G04 (created by PCBNEW (2013-07-07 BZR 4022)-stable) date 17/03/2014 19:27:42*
%MOIN*%
G04 Gerber Fmt 3.4, Leading zero omitted, Abs format*
%FSLAX34Y34*%
G01*
G70*
G90*
G04 APERTURE LIST*
%ADD10C,0.006*%
%ADD11C,0.0984252*%
%ADD12R,0.0669291X0.0984252*%
%ADD13R,0.035X0.055*%
%ADD14R,0.0511811X0.0590551*%
%ADD15R,0.06X0.06*%
%ADD16C,0.06*%
%ADD17R,0.0787402X0.0787402*%
%ADD18C,0.0787402*%
%ADD19R,0.11811X0.11811*%
%ADD20C,0.11811*%
%ADD21R,0.045X0.02*%
%ADD22R,0.0984252X0.0669291*%
%ADD23R,0.08X0.06*%
%ADD24R,0.065X0.12*%
%ADD25R,0.24X0.24*%
%ADD26R,0.07X0.11*%
%ADD27C,0.0551181*%
%ADD28O,0.0866142X0.110236*%
%ADD29C,0.0629921*%
%ADD30R,0.0394X0.0276*%
%ADD31R,0.0255906X0.0531496*%
%ADD32R,0.145669X0.0472441*%
%ADD33C,0.075*%
%ADD34C,0.07*%
%ADD35R,0.07X0.07*%
%ADD36O,0.06X0.1*%
%ADD37C,0.16*%
%ADD38R,0.1X0.2*%
%ADD39R,0.016X0.05*%
%ADD40R,0.055X0.035*%
%ADD41R,0.0314X0.0314*%
%ADD42C,0.046*%
%ADD43C,0.02*%
%ADD44C,0.035*%
%ADD45C,0.024*%
%ADD46C,0.036*%
%ADD47C,0.048*%
%ADD48C,0.01*%
%ADD49C,0.15*%
G04 APERTURE END LIST*
G54D10*
G54D11*
X95650Y-39550D03*
G54D12*
X100250Y-61100D03*
X100250Y-62674D03*
G54D13*
X100225Y-59650D03*
X99475Y-59650D03*
X101725Y-59650D03*
X102475Y-59650D03*
X97925Y-58500D03*
X98675Y-58500D03*
G54D14*
X94900Y-61450D03*
X94900Y-62450D03*
X98443Y-62450D03*
X98443Y-61450D03*
G54D15*
X105700Y-46700D03*
G54D16*
X106700Y-46700D03*
X105700Y-47700D03*
X106700Y-47700D03*
X105700Y-48700D03*
X106700Y-48700D03*
G54D13*
X90575Y-45800D03*
X91325Y-45800D03*
X88600Y-47750D03*
X89350Y-47750D03*
G54D17*
X112600Y-62000D03*
G54D18*
X112600Y-60031D03*
X112600Y-58062D03*
G54D17*
X112800Y-54750D03*
G54D18*
X112800Y-53372D03*
X112800Y-51994D03*
X112800Y-50616D03*
X112800Y-49238D03*
X112800Y-47860D03*
X112800Y-46482D03*
X112800Y-45104D03*
X112800Y-43726D03*
X112800Y-42348D03*
X112800Y-40970D03*
X112800Y-39592D03*
G54D19*
X53824Y-60588D03*
G54D20*
X53824Y-58935D03*
X53824Y-57281D03*
X53824Y-55628D03*
X53824Y-53974D03*
X53824Y-52321D03*
X53824Y-50667D03*
X53824Y-49014D03*
X53824Y-47360D03*
X53824Y-45707D03*
X53824Y-44053D03*
X53824Y-42400D03*
X55989Y-60588D03*
X55989Y-58935D03*
X55989Y-57281D03*
X55989Y-55628D03*
X55989Y-53974D03*
X55938Y-52321D03*
X55989Y-50667D03*
X55989Y-49014D03*
X55989Y-47360D03*
X55989Y-45707D03*
X55989Y-44053D03*
X55989Y-42400D03*
G54D21*
X91900Y-51325D03*
X91900Y-51825D03*
X91900Y-52325D03*
X91900Y-52825D03*
X89400Y-52825D03*
X89400Y-52325D03*
X89400Y-51825D03*
X89400Y-51325D03*
G54D22*
X110850Y-50000D03*
X109275Y-50000D03*
G54D23*
X96050Y-51600D03*
X96050Y-50300D03*
G54D13*
X95650Y-48425D03*
X96400Y-48425D03*
G54D24*
X98950Y-50000D03*
G54D25*
X98050Y-52500D03*
G54D24*
X97150Y-50000D03*
X106450Y-49900D03*
G54D25*
X105550Y-52400D03*
G54D24*
X104650Y-49900D03*
G54D26*
X58250Y-43550D03*
X59650Y-43550D03*
X59650Y-42000D03*
X58250Y-42000D03*
G54D23*
X61150Y-43650D03*
X61150Y-44950D03*
X61100Y-49700D03*
X61100Y-48400D03*
X61150Y-40050D03*
X61150Y-41350D03*
G54D13*
X59475Y-39600D03*
X58725Y-39600D03*
G54D27*
X65623Y-39425D03*
X64835Y-39425D03*
X64048Y-39425D03*
G54D13*
X102975Y-42300D03*
X102225Y-42300D03*
X83725Y-41050D03*
X82975Y-41050D03*
X105925Y-45550D03*
X106675Y-45550D03*
X82975Y-39400D03*
X83725Y-39400D03*
X106725Y-42400D03*
X105975Y-42400D03*
G54D28*
X80729Y-40616D03*
X76870Y-40616D03*
G54D29*
X78800Y-39750D03*
X79784Y-39750D03*
X77815Y-39750D03*
G54D28*
X74279Y-40616D03*
X70420Y-40616D03*
G54D29*
X72350Y-39750D03*
X73334Y-39750D03*
X71365Y-39750D03*
G54D30*
X90925Y-55650D03*
X90925Y-55275D03*
X90925Y-54900D03*
X91925Y-54900D03*
X91925Y-55275D03*
X91925Y-55650D03*
G54D31*
X97075Y-55375D03*
X98019Y-55375D03*
G54D32*
X94725Y-55725D03*
X94725Y-54622D03*
G54D33*
X104150Y-60250D03*
X104940Y-57890D03*
X109740Y-57890D03*
X109740Y-62610D03*
X104940Y-62610D03*
G54D34*
X94800Y-42250D03*
X95800Y-42250D03*
G54D35*
X96800Y-42250D03*
G54D34*
X103000Y-43800D03*
X102000Y-43800D03*
G54D35*
X101000Y-43800D03*
G54D34*
X107800Y-43800D03*
X106800Y-43800D03*
G54D35*
X105800Y-43800D03*
G54D34*
X88550Y-42250D03*
X89550Y-42250D03*
G54D35*
X90550Y-42250D03*
G54D21*
X100300Y-46050D03*
X100300Y-46550D03*
X100300Y-47050D03*
X100300Y-47550D03*
X100300Y-48050D03*
X100300Y-48550D03*
X100300Y-49050D03*
X102800Y-49050D03*
X102800Y-48550D03*
X102800Y-47550D03*
X102800Y-47050D03*
X102800Y-46550D03*
X102800Y-46050D03*
X102800Y-48050D03*
G54D36*
X84700Y-62500D03*
X84700Y-43500D03*
X83700Y-43500D03*
X82700Y-43500D03*
X81700Y-43500D03*
X80700Y-43500D03*
X79700Y-43500D03*
X78700Y-43500D03*
X77700Y-43500D03*
X76100Y-43500D03*
X75100Y-43500D03*
X74100Y-43500D03*
X73100Y-43500D03*
X72100Y-43500D03*
X71100Y-43500D03*
X70100Y-43500D03*
X69100Y-43500D03*
X83700Y-62500D03*
X82700Y-62500D03*
X81700Y-62500D03*
X80700Y-62500D03*
X79700Y-62500D03*
X77700Y-62500D03*
X76700Y-62500D03*
X75700Y-62500D03*
X74700Y-62500D03*
X73700Y-62500D03*
X72700Y-62500D03*
X71700Y-62500D03*
X70700Y-62500D03*
G54D37*
X63300Y-52700D03*
G54D15*
X63200Y-55150D03*
G54D16*
X63200Y-56150D03*
G54D38*
X63200Y-55650D03*
G54D10*
G36*
X65072Y-54046D02*
X65496Y-53622D01*
X65920Y-54046D01*
X65496Y-54470D01*
X65072Y-54046D01*
X65072Y-54046D01*
G37*
G54D16*
X66203Y-54753D03*
G54D10*
G36*
X64789Y-54046D02*
X65496Y-53339D01*
X66910Y-54753D01*
X66203Y-55460D01*
X64789Y-54046D01*
X64789Y-54046D01*
G37*
G54D15*
X63200Y-51050D03*
G54D16*
X63200Y-50050D03*
G54D38*
X63200Y-50550D03*
G54D10*
G36*
X65296Y-51977D02*
X64872Y-51553D01*
X65296Y-51129D01*
X65720Y-51553D01*
X65296Y-51977D01*
X65296Y-51977D01*
G37*
G54D16*
X66003Y-50846D03*
G54D10*
G36*
X65296Y-52260D02*
X64589Y-51553D01*
X66003Y-50139D01*
X66710Y-50846D01*
X65296Y-52260D01*
X65296Y-52260D01*
G37*
G54D39*
X92400Y-46800D03*
X92150Y-46800D03*
X91890Y-46800D03*
X91630Y-46800D03*
X91380Y-46800D03*
X91120Y-46800D03*
X90860Y-46800D03*
X90610Y-46800D03*
X90350Y-46800D03*
X90100Y-46800D03*
X90100Y-48900D03*
X90350Y-48900D03*
X90610Y-48900D03*
X90860Y-48900D03*
X91120Y-48900D03*
X91380Y-48900D03*
X91630Y-48900D03*
X91890Y-48900D03*
X92150Y-48900D03*
X92400Y-48900D03*
G54D40*
X88250Y-45675D03*
X88250Y-46425D03*
G54D10*
G36*
X82975Y-45900D02*
X82425Y-45900D01*
X82625Y-45250D01*
X82775Y-45250D01*
X82975Y-45900D01*
X82975Y-45900D01*
G37*
G36*
X82975Y-44500D02*
X82775Y-45150D01*
X82625Y-45150D01*
X82425Y-44500D01*
X82975Y-44500D01*
X82975Y-44500D01*
G37*
G36*
X81975Y-45700D02*
X81425Y-45700D01*
X81625Y-45050D01*
X81775Y-45050D01*
X81975Y-45700D01*
X81975Y-45700D01*
G37*
G36*
X81975Y-44300D02*
X81775Y-44950D01*
X81625Y-44950D01*
X81425Y-44300D01*
X81975Y-44300D01*
X81975Y-44300D01*
G37*
G36*
X80975Y-45875D02*
X80425Y-45875D01*
X80625Y-45225D01*
X80775Y-45225D01*
X80975Y-45875D01*
X80975Y-45875D01*
G37*
G36*
X80975Y-44475D02*
X80775Y-45125D01*
X80625Y-45125D01*
X80425Y-44475D01*
X80975Y-44475D01*
X80975Y-44475D01*
G37*
G36*
X76975Y-58300D02*
X76425Y-58300D01*
X76625Y-57650D01*
X76775Y-57650D01*
X76975Y-58300D01*
X76975Y-58300D01*
G37*
G36*
X76975Y-56900D02*
X76775Y-57550D01*
X76625Y-57550D01*
X76425Y-56900D01*
X76975Y-56900D01*
X76975Y-56900D01*
G37*
G36*
X75975Y-58325D02*
X75425Y-58325D01*
X75625Y-57675D01*
X75775Y-57675D01*
X75975Y-58325D01*
X75975Y-58325D01*
G37*
G36*
X75975Y-56925D02*
X75775Y-57575D01*
X75625Y-57575D01*
X75425Y-56925D01*
X75975Y-56925D01*
X75975Y-56925D01*
G37*
G36*
X77975Y-61350D02*
X77425Y-61350D01*
X77625Y-60700D01*
X77775Y-60700D01*
X77975Y-61350D01*
X77975Y-61350D01*
G37*
G36*
X77975Y-59950D02*
X77775Y-60600D01*
X77625Y-60600D01*
X77425Y-59950D01*
X77975Y-59950D01*
X77975Y-59950D01*
G37*
G36*
X84975Y-45900D02*
X84425Y-45900D01*
X84625Y-45250D01*
X84775Y-45250D01*
X84975Y-45900D01*
X84975Y-45900D01*
G37*
G36*
X84975Y-44500D02*
X84775Y-45150D01*
X84625Y-45150D01*
X84425Y-44500D01*
X84975Y-44500D01*
X84975Y-44500D01*
G37*
G36*
X71375Y-46000D02*
X70825Y-46000D01*
X71025Y-45350D01*
X71175Y-45350D01*
X71375Y-46000D01*
X71375Y-46000D01*
G37*
G36*
X71375Y-44600D02*
X71175Y-45250D01*
X71025Y-45250D01*
X70825Y-44600D01*
X71375Y-44600D01*
X71375Y-44600D01*
G37*
G36*
X74375Y-46575D02*
X73825Y-46575D01*
X74025Y-45925D01*
X74175Y-45925D01*
X74375Y-46575D01*
X74375Y-46575D01*
G37*
G36*
X74375Y-45175D02*
X74175Y-45825D01*
X74025Y-45825D01*
X73825Y-45175D01*
X74375Y-45175D01*
X74375Y-45175D01*
G37*
G36*
X81425Y-60100D02*
X81975Y-60100D01*
X81775Y-60750D01*
X81625Y-60750D01*
X81425Y-60100D01*
X81425Y-60100D01*
G37*
G36*
X81425Y-61500D02*
X81625Y-60850D01*
X81775Y-60850D01*
X81975Y-61500D01*
X81425Y-61500D01*
X81425Y-61500D01*
G37*
G36*
X82425Y-60100D02*
X82975Y-60100D01*
X82775Y-60750D01*
X82625Y-60750D01*
X82425Y-60100D01*
X82425Y-60100D01*
G37*
G36*
X82425Y-61500D02*
X82625Y-60850D01*
X82775Y-60850D01*
X82975Y-61500D01*
X82425Y-61500D01*
X82425Y-61500D01*
G37*
G36*
X80425Y-60100D02*
X80975Y-60100D01*
X80775Y-60750D01*
X80625Y-60750D01*
X80425Y-60100D01*
X80425Y-60100D01*
G37*
G36*
X80425Y-61500D02*
X80625Y-60850D01*
X80775Y-60850D01*
X80975Y-61500D01*
X80425Y-61500D01*
X80425Y-61500D01*
G37*
G36*
X79425Y-60100D02*
X79975Y-60100D01*
X79775Y-60750D01*
X79625Y-60750D01*
X79425Y-60100D01*
X79425Y-60100D01*
G37*
G36*
X79425Y-61500D02*
X79625Y-60850D01*
X79775Y-60850D01*
X79975Y-61500D01*
X79425Y-61500D01*
X79425Y-61500D01*
G37*
G36*
X77975Y-45700D02*
X77425Y-45700D01*
X77625Y-45050D01*
X77775Y-45050D01*
X77975Y-45700D01*
X77975Y-45700D01*
G37*
G36*
X77975Y-44300D02*
X77775Y-44950D01*
X77625Y-44950D01*
X77425Y-44300D01*
X77975Y-44300D01*
X77975Y-44300D01*
G37*
G54D13*
X89825Y-45850D03*
X89075Y-45850D03*
G54D41*
X97400Y-60095D03*
X97400Y-59505D03*
G54D11*
X89400Y-39500D03*
G54D42*
X101825Y-52700D03*
X55600Y-61900D03*
X77700Y-59325D03*
X101000Y-59650D03*
X59450Y-59700D03*
X62300Y-43700D03*
G54D43*
X56825Y-39800D03*
G54D42*
X85350Y-41000D03*
G54D44*
X88500Y-54950D03*
G54D42*
X64300Y-43850D03*
X60800Y-55200D03*
X65300Y-55450D03*
G54D43*
X91950Y-47525D03*
X90000Y-51450D03*
X108700Y-47100D03*
G54D42*
X61150Y-50900D03*
X57350Y-41375D03*
X64850Y-45100D03*
X62350Y-41350D03*
G54D43*
X93500Y-50750D03*
X84725Y-46200D03*
X98775Y-44625D03*
X84700Y-53925D03*
X74150Y-48050D03*
X73275Y-48125D03*
X93525Y-61450D03*
X88600Y-52300D03*
X88375Y-50475D03*
X67225Y-39800D03*
X67300Y-40825D03*
X76125Y-47000D03*
X82000Y-46700D03*
X93150Y-51925D03*
X92750Y-50425D03*
X80075Y-46775D03*
X88075Y-51300D03*
X82700Y-46975D03*
X92800Y-52100D03*
G54D42*
X90225Y-55275D03*
X96725Y-56875D03*
G54D43*
X92575Y-54875D03*
X86625Y-39350D03*
X93300Y-46850D03*
X91400Y-47450D03*
X90700Y-47375D03*
X102150Y-47400D03*
X88725Y-48300D03*
X89650Y-46700D03*
X95200Y-48950D03*
X99950Y-45225D03*
X92475Y-51825D03*
X89700Y-48725D03*
G54D42*
X101775Y-52050D03*
X95125Y-50300D03*
G54D43*
X110750Y-47100D03*
G54D42*
X103450Y-49250D03*
X105100Y-45550D03*
X107850Y-42500D03*
X104300Y-43550D03*
X100250Y-44650D03*
X101200Y-47350D03*
X103500Y-46950D03*
X60050Y-44950D03*
G54D43*
X61150Y-39175D03*
X75975Y-56700D03*
G54D42*
X73925Y-57325D03*
X60550Y-47300D03*
X88700Y-55750D03*
X111475Y-55700D03*
X92775Y-55275D03*
G54D44*
X92525Y-39600D03*
G54D43*
X65175Y-40675D03*
G54D42*
X92550Y-43800D03*
X99450Y-58500D03*
G54D43*
X99450Y-47775D03*
X98875Y-47200D03*
X91325Y-49425D03*
X92400Y-47600D03*
X91000Y-49425D03*
X103600Y-46100D03*
X101600Y-47750D03*
X103750Y-46550D03*
X98250Y-49925D03*
X98850Y-48300D03*
X97525Y-47150D03*
X102200Y-48550D03*
G54D42*
X93850Y-62500D03*
X99050Y-63200D03*
G54D45*
X77700Y-60275D02*
X77700Y-59325D01*
X100225Y-59650D02*
X101000Y-59650D01*
X101000Y-59650D02*
X101725Y-59650D01*
G54D46*
X58250Y-43550D02*
X58250Y-58500D01*
X58250Y-58500D02*
X59450Y-59700D01*
G54D47*
X59650Y-43550D02*
X61050Y-43550D01*
X61050Y-43550D02*
X61150Y-43650D01*
G54D46*
X61150Y-43650D02*
X62250Y-43650D01*
X62250Y-43650D02*
X62300Y-43700D01*
G54D48*
X58725Y-39600D02*
X57025Y-39600D01*
X57025Y-39600D02*
X56825Y-39800D01*
G54D45*
X89100Y-54950D02*
X88500Y-54950D01*
X90550Y-55650D02*
X90925Y-55650D01*
X89975Y-55825D02*
X89525Y-55375D01*
X90375Y-55825D02*
X89975Y-55825D01*
X90550Y-55650D02*
X90375Y-55825D01*
X89525Y-55375D02*
X89100Y-54950D01*
X90925Y-55650D02*
X90925Y-55975D01*
X94125Y-56325D02*
X94725Y-55725D01*
X91275Y-56325D02*
X94125Y-56325D01*
X90925Y-55975D02*
X91275Y-56325D01*
G54D48*
X91890Y-47335D02*
X91890Y-47465D01*
X91890Y-46800D02*
X91890Y-47335D01*
X91890Y-47465D02*
X91950Y-47525D01*
X89400Y-51325D02*
X89875Y-51325D01*
X89875Y-51325D02*
X90000Y-51450D01*
G54D45*
X61100Y-50850D02*
X61150Y-50900D01*
X61100Y-49700D02*
X61100Y-50850D01*
G54D46*
X57700Y-42000D02*
X58250Y-42000D01*
X57350Y-41375D02*
X57700Y-42000D01*
G54D45*
X62300Y-42600D02*
X64800Y-45100D01*
X64800Y-45100D02*
X64850Y-45100D01*
X62300Y-41350D02*
X62300Y-42600D01*
G54D48*
X61150Y-41350D02*
X61150Y-41775D01*
X60925Y-42000D02*
X59650Y-42000D01*
X61150Y-41775D02*
X60925Y-42000D01*
G54D46*
X61150Y-41350D02*
X62300Y-41350D01*
X62300Y-41350D02*
X62350Y-41350D01*
G54D48*
X93550Y-53400D02*
X94525Y-53400D01*
X96050Y-51875D02*
X96050Y-51600D01*
X94525Y-53400D02*
X96050Y-51875D01*
X81700Y-60425D02*
X81700Y-54725D01*
X83025Y-53400D02*
X93550Y-53400D01*
X93550Y-53400D02*
X93975Y-53400D01*
X81700Y-54725D02*
X83025Y-53400D01*
G54D45*
X99700Y-48775D02*
X99700Y-51600D01*
X100300Y-48550D02*
X101125Y-48550D01*
X102475Y-49900D02*
X104650Y-49900D01*
X101125Y-48550D02*
X102475Y-49900D01*
X100300Y-48550D02*
X99925Y-48550D01*
X99925Y-48550D02*
X99700Y-48775D01*
G54D48*
X98950Y-50825D02*
X98950Y-50000D01*
X98825Y-50950D02*
X98950Y-50825D01*
X93700Y-50950D02*
X98825Y-50950D01*
X93500Y-50750D02*
X93700Y-50950D01*
X84700Y-45575D02*
X84725Y-45600D01*
X84725Y-45600D02*
X84725Y-46200D01*
X97850Y-44850D02*
X98550Y-44850D01*
X98550Y-44850D02*
X98775Y-44625D01*
X74100Y-46250D02*
X74100Y-46850D01*
X87575Y-44850D02*
X97850Y-44850D01*
X87350Y-44625D02*
X87575Y-44850D01*
X85375Y-42650D02*
X87350Y-44625D01*
X77050Y-42650D02*
X85375Y-42650D01*
X76875Y-42825D02*
X77050Y-42650D01*
X76875Y-44050D02*
X76875Y-42825D01*
X75725Y-45200D02*
X76875Y-44050D01*
X75725Y-46325D02*
X75725Y-45200D01*
X74800Y-47250D02*
X75725Y-46325D01*
X74500Y-47250D02*
X74800Y-47250D01*
X74100Y-46850D02*
X74500Y-47250D01*
X90700Y-54200D02*
X90925Y-54425D01*
X90925Y-54900D02*
X90925Y-54425D01*
X84975Y-54200D02*
X90700Y-54200D01*
X84700Y-53925D02*
X84975Y-54200D01*
X88775Y-50675D02*
X88700Y-50675D01*
X74150Y-48075D02*
X74225Y-48150D01*
X74225Y-48150D02*
X86200Y-48150D01*
X86200Y-48150D02*
X86300Y-48250D01*
X74150Y-48050D02*
X74150Y-48075D01*
X87975Y-49925D02*
X86300Y-48250D01*
X87975Y-50500D02*
X87975Y-49925D01*
X88225Y-50750D02*
X87975Y-50500D01*
X88625Y-50750D02*
X88225Y-50750D01*
X88700Y-50675D02*
X88625Y-50750D01*
X92150Y-48900D02*
X92150Y-49900D01*
X91375Y-50675D02*
X88775Y-50675D01*
X88775Y-50675D02*
X88725Y-50675D01*
X92150Y-49900D02*
X91375Y-50675D01*
X91475Y-50900D02*
X88850Y-50900D01*
X92400Y-48900D02*
X92400Y-49975D01*
X91475Y-50900D02*
X92400Y-49975D01*
X88050Y-51025D02*
X87750Y-50725D01*
X88725Y-51025D02*
X88050Y-51025D01*
X88850Y-50900D02*
X88725Y-51025D01*
X87625Y-49900D02*
X87025Y-49300D01*
X87750Y-50025D02*
X87625Y-49900D01*
X87750Y-52400D02*
X87750Y-50725D01*
X87750Y-50725D02*
X87750Y-50025D01*
X87025Y-49300D02*
X86100Y-48375D01*
X73525Y-48375D02*
X73275Y-48125D01*
X86100Y-48375D02*
X73525Y-48375D01*
X89400Y-52825D02*
X88175Y-52825D01*
X88175Y-52825D02*
X87750Y-52400D01*
X89400Y-52825D02*
X89375Y-52800D01*
X93525Y-61450D02*
X94900Y-61450D01*
X89400Y-52325D02*
X88625Y-52325D01*
X88600Y-52300D02*
X88625Y-52325D01*
X88375Y-50475D02*
X88250Y-50350D01*
X88250Y-49850D02*
X86150Y-47750D01*
X88250Y-50350D02*
X88250Y-49850D01*
X72375Y-47750D02*
X71725Y-47100D01*
X71100Y-45675D02*
X71100Y-46475D01*
X71725Y-47100D02*
X71100Y-46475D01*
X86150Y-47750D02*
X72375Y-47750D01*
X91474Y-50250D02*
X91274Y-50450D01*
X91670Y-50070D02*
X91654Y-50070D01*
X91654Y-50070D02*
X91474Y-50250D01*
X88400Y-50450D02*
X88375Y-50475D01*
X91274Y-50450D02*
X88400Y-50450D01*
X91890Y-49850D02*
X91670Y-50070D01*
X91670Y-50070D02*
X91665Y-50075D01*
X91890Y-48900D02*
X91890Y-49850D01*
X79700Y-60425D02*
X79700Y-56725D01*
X66875Y-40150D02*
X67225Y-39800D01*
X66875Y-43900D02*
X66875Y-40150D01*
X79700Y-56725D02*
X66875Y-43900D01*
X80700Y-60425D02*
X80700Y-59525D01*
X67300Y-43800D02*
X80700Y-57200D01*
X80700Y-57200D02*
X80700Y-59525D01*
X67300Y-40825D02*
X67300Y-43800D01*
X76487Y-47362D02*
X76625Y-47500D01*
X86425Y-47500D02*
X86575Y-47650D01*
X76625Y-47500D02*
X86425Y-47500D01*
X76500Y-47375D02*
X76487Y-47362D01*
X76487Y-47362D02*
X76125Y-47000D01*
X91630Y-49495D02*
X91475Y-49650D01*
X91475Y-49650D02*
X88725Y-49650D01*
X88725Y-49650D02*
X88575Y-49650D01*
X88575Y-49650D02*
X86575Y-47650D01*
X91630Y-48900D02*
X91630Y-49495D01*
X90860Y-48900D02*
X90860Y-49265D01*
X80700Y-46925D02*
X80700Y-45550D01*
X81025Y-47250D02*
X80700Y-46925D01*
X86500Y-47250D02*
X81025Y-47250D01*
X88699Y-49449D02*
X86500Y-47250D01*
X90675Y-49449D02*
X88699Y-49449D01*
X90860Y-49265D02*
X90675Y-49449D01*
X81700Y-46400D02*
X81700Y-45375D01*
X82000Y-46700D02*
X81700Y-46400D01*
X93100Y-52450D02*
X93100Y-51975D01*
X92725Y-52825D02*
X93100Y-52450D01*
X91900Y-52825D02*
X92725Y-52825D01*
X93100Y-51975D02*
X93150Y-51925D01*
X93000Y-50175D02*
X92750Y-50425D01*
X93000Y-48975D02*
X93000Y-50175D01*
X92400Y-47150D02*
X93000Y-47750D01*
X93000Y-47750D02*
X93000Y-48975D01*
X92400Y-46800D02*
X92400Y-47150D01*
X77700Y-45375D02*
X77700Y-45825D01*
X80000Y-46775D02*
X80075Y-46775D01*
X79350Y-46125D02*
X80000Y-46775D01*
X78000Y-46125D02*
X79350Y-46125D01*
X77700Y-45825D02*
X78000Y-46125D01*
X88875Y-51825D02*
X88600Y-51825D01*
X88600Y-51825D02*
X88075Y-51300D01*
X89400Y-51825D02*
X88875Y-51825D01*
X88875Y-51825D02*
X88850Y-51825D01*
G54D46*
X110850Y-50000D02*
X112038Y-50000D01*
X112038Y-50000D02*
X112800Y-49238D01*
X109275Y-50000D02*
X109275Y-51549D01*
X109275Y-51549D02*
X109250Y-51575D01*
X112800Y-50616D02*
X112758Y-50616D01*
X111875Y-51500D02*
X111200Y-51500D01*
X112758Y-50616D02*
X111875Y-51500D01*
G54D48*
X82700Y-60425D02*
X82700Y-57925D01*
X113825Y-53019D02*
X112800Y-51994D01*
X113825Y-55725D02*
X113825Y-53019D01*
X113300Y-56250D02*
X113825Y-55725D01*
X103100Y-56250D02*
X113300Y-56250D01*
X101975Y-57375D02*
X103100Y-56250D01*
X83250Y-57375D02*
X101975Y-57375D01*
X82700Y-57925D02*
X83250Y-57375D01*
X82700Y-46750D02*
X82700Y-45575D01*
X82700Y-46725D02*
X82700Y-46750D01*
X82700Y-46975D02*
X82700Y-46725D01*
X91900Y-52325D02*
X92575Y-52325D01*
X92575Y-52325D02*
X92800Y-52100D01*
G54D45*
X111425Y-54925D02*
X112000Y-54925D01*
X112175Y-54750D02*
X112025Y-54900D01*
X112800Y-54750D02*
X112175Y-54750D01*
X110975Y-55375D02*
X111425Y-54925D01*
X110975Y-55375D02*
X98019Y-55375D01*
X112000Y-54925D02*
X112025Y-54900D01*
X98019Y-55375D02*
X98019Y-56130D01*
X90225Y-55275D02*
X90925Y-55275D01*
X97275Y-56875D02*
X96725Y-56875D01*
X98019Y-56130D02*
X97275Y-56875D01*
G54D48*
X92575Y-54875D02*
X92550Y-54900D01*
X91925Y-54900D02*
X92550Y-54900D01*
X85650Y-39411D02*
X85650Y-39400D01*
X85713Y-39475D02*
X85650Y-39411D01*
X86500Y-39475D02*
X85713Y-39475D01*
X86625Y-39350D02*
X86500Y-39475D01*
G54D45*
X95800Y-42250D02*
X95800Y-41250D01*
X95800Y-41250D02*
X96650Y-40400D01*
X112207Y-39000D02*
X112800Y-39592D01*
X108400Y-39000D02*
X112207Y-39000D01*
X107000Y-40400D02*
X108400Y-39000D01*
X96650Y-40400D02*
X107000Y-40400D01*
X83725Y-39400D02*
X85650Y-39400D01*
X94750Y-40350D02*
X95800Y-41250D01*
X86450Y-40350D02*
X94750Y-40350D01*
X85650Y-39400D02*
X86450Y-40350D01*
X112800Y-40970D02*
X110829Y-40970D01*
X89550Y-41750D02*
X89550Y-42250D01*
X89750Y-41550D02*
X89550Y-41750D01*
X91550Y-41550D02*
X89750Y-41550D01*
X93000Y-43000D02*
X91550Y-41550D01*
X98100Y-43000D02*
X93000Y-43000D01*
X99550Y-41550D02*
X98100Y-43000D01*
X110250Y-41550D02*
X99550Y-41550D01*
X110829Y-40970D02*
X110250Y-41550D01*
X83725Y-41050D02*
X84550Y-41050D01*
X89550Y-41650D02*
X89550Y-42250D01*
X89450Y-41550D02*
X89550Y-41650D01*
X85050Y-41550D02*
X89450Y-41550D01*
X84550Y-41050D02*
X85050Y-41550D01*
G54D49*
X112600Y-58062D02*
X109912Y-58062D01*
X109912Y-58062D02*
X109740Y-57890D01*
X112600Y-62000D02*
X110350Y-62000D01*
X110350Y-62000D02*
X109740Y-62610D01*
G54D48*
X93100Y-46450D02*
X92700Y-46050D01*
X93100Y-46650D02*
X93100Y-46450D01*
X93300Y-46850D02*
X93100Y-46650D01*
X99600Y-46050D02*
X92700Y-46050D01*
X92700Y-46050D02*
X92050Y-46050D01*
X91630Y-46470D02*
X91630Y-46850D01*
X92050Y-46050D02*
X91630Y-46470D01*
X100300Y-46050D02*
X99600Y-46050D01*
X91380Y-47430D02*
X91380Y-46800D01*
X91400Y-47450D02*
X91380Y-47430D01*
X91380Y-46800D02*
X91380Y-45855D01*
X91380Y-45855D02*
X91325Y-45800D01*
X90700Y-47375D02*
X90860Y-47215D01*
X90860Y-47215D02*
X90860Y-46800D01*
X91120Y-46800D02*
X91120Y-47355D01*
X89450Y-47650D02*
X89350Y-47750D01*
X90825Y-47650D02*
X89450Y-47650D01*
X91120Y-47355D02*
X90825Y-47650D01*
X102800Y-48050D02*
X102450Y-48050D01*
X102150Y-47750D02*
X102150Y-47400D01*
X102450Y-48050D02*
X102150Y-47750D01*
X112800Y-46482D02*
X111682Y-46482D01*
X111682Y-46482D02*
X111250Y-46050D01*
X102800Y-47050D02*
X102450Y-47050D01*
X104850Y-46050D02*
X111250Y-46050D01*
X104500Y-45700D02*
X104850Y-46050D01*
X102400Y-45700D02*
X104500Y-45700D01*
X102200Y-45900D02*
X102400Y-45700D01*
X102200Y-46800D02*
X102200Y-45900D01*
X102450Y-47050D02*
X102200Y-46800D01*
X88600Y-48125D02*
X88600Y-47750D01*
X88725Y-48250D02*
X88600Y-48125D01*
X88725Y-48300D02*
X88725Y-48250D01*
X89075Y-45850D02*
X89075Y-45375D01*
X90575Y-45450D02*
X90575Y-45800D01*
X90350Y-45225D02*
X90575Y-45450D01*
X89225Y-45225D02*
X90350Y-45225D01*
X89075Y-45375D02*
X89225Y-45225D01*
X89075Y-45850D02*
X89075Y-46125D01*
X88600Y-47350D02*
X88600Y-47750D01*
X89175Y-47175D02*
X89650Y-46700D01*
X88775Y-47175D02*
X89175Y-47175D01*
X88600Y-47350D02*
X88775Y-47175D01*
X89075Y-46125D02*
X89650Y-46700D01*
X90100Y-46800D02*
X89750Y-46800D01*
X89750Y-46800D02*
X89650Y-46700D01*
X92475Y-51825D02*
X91900Y-51825D01*
X90000Y-49000D02*
X90100Y-48900D01*
X89800Y-49000D02*
X90000Y-49000D01*
X89700Y-48900D02*
X89800Y-49000D01*
X89700Y-48725D02*
X89700Y-48900D01*
G54D46*
X96050Y-50300D02*
X95125Y-50300D01*
X97150Y-50000D02*
X96350Y-50000D01*
X96350Y-50000D02*
X96050Y-50300D01*
G54D48*
X90610Y-46800D02*
X90610Y-46310D01*
X90575Y-46275D02*
X90575Y-45800D01*
X90610Y-46310D02*
X90575Y-46275D01*
G54D45*
X105925Y-45550D02*
X105100Y-45550D01*
X106725Y-42400D02*
X107750Y-42400D01*
X107750Y-42400D02*
X107850Y-42500D01*
X107750Y-42400D02*
X107850Y-42500D01*
X100300Y-47550D02*
X101000Y-47550D01*
X101000Y-47550D02*
X101200Y-47350D01*
X102000Y-43800D02*
X102000Y-42525D01*
X102000Y-42525D02*
X102225Y-42300D01*
X103100Y-47550D02*
X102800Y-47550D01*
X103450Y-47200D02*
X103100Y-47550D01*
X103450Y-47000D02*
X103450Y-47200D01*
X103500Y-46950D02*
X103450Y-47000D01*
X106675Y-45550D02*
X106800Y-45425D01*
X106800Y-45425D02*
X106800Y-43800D01*
G54D46*
X61150Y-44950D02*
X60050Y-44950D01*
G54D48*
X61150Y-40050D02*
X63800Y-40050D01*
X64048Y-39801D02*
X64048Y-39425D01*
X63800Y-40050D02*
X64048Y-39801D01*
X61150Y-40050D02*
X61150Y-39175D01*
G54D46*
X75700Y-57250D02*
X76675Y-57250D01*
X76675Y-57250D02*
X76700Y-57225D01*
X73925Y-57325D02*
X75625Y-57325D01*
X75625Y-57325D02*
X75700Y-57250D01*
G54D47*
X75225Y-57250D02*
X75975Y-57250D01*
X73925Y-57325D02*
X74000Y-57250D01*
X74000Y-57250D02*
X75225Y-57250D01*
X75975Y-57250D02*
X76675Y-57250D01*
X76675Y-57250D02*
X76700Y-57225D01*
G54D45*
X61100Y-48400D02*
X61100Y-47850D01*
X61100Y-47850D02*
X60550Y-47300D01*
X92775Y-55275D02*
X91925Y-55275D01*
X99450Y-58500D02*
X98675Y-58500D01*
G54D46*
X53824Y-42400D02*
X52900Y-42400D01*
X52100Y-57211D02*
X53824Y-58935D01*
X52100Y-43200D02*
X52100Y-57211D01*
X52900Y-42400D02*
X52100Y-43200D01*
G54D45*
X91925Y-55650D02*
X92350Y-55650D01*
X93927Y-54622D02*
X94725Y-54622D01*
X93675Y-54875D02*
X93927Y-54622D01*
X93675Y-55125D02*
X93675Y-54875D01*
X92925Y-55875D02*
X93675Y-55125D01*
X92575Y-55875D02*
X92925Y-55875D01*
X92350Y-55650D02*
X92575Y-55875D01*
X94725Y-54622D02*
X95722Y-54622D01*
X96475Y-55375D02*
X97075Y-55375D01*
X95722Y-54622D02*
X96475Y-55375D01*
G54D48*
X91900Y-51325D02*
X92350Y-51325D01*
X95425Y-48200D02*
X95650Y-48425D01*
X94125Y-48200D02*
X95425Y-48200D01*
X93550Y-48775D02*
X94125Y-48200D01*
X93550Y-50125D02*
X93550Y-48775D01*
X92350Y-51325D02*
X93550Y-50125D01*
G54D45*
X100300Y-49050D02*
X101050Y-49050D01*
X106450Y-50625D02*
X106450Y-49900D01*
X106225Y-50850D02*
X106450Y-50625D01*
X102850Y-50850D02*
X106225Y-50850D01*
X101050Y-49050D02*
X102850Y-50850D01*
G54D48*
X100300Y-48050D02*
X99725Y-48050D01*
X99725Y-48050D02*
X99450Y-47775D01*
X97650Y-48425D02*
X98875Y-47200D01*
X97375Y-48425D02*
X97650Y-48425D01*
X96400Y-48425D02*
X97375Y-48425D01*
G54D45*
X105975Y-42400D02*
X105975Y-43625D01*
X105975Y-43625D02*
X105800Y-43800D01*
X82975Y-41050D02*
X82975Y-41075D01*
X89800Y-43000D02*
X90550Y-42250D01*
X87300Y-43000D02*
X89800Y-43000D01*
X86500Y-42200D02*
X87300Y-43000D01*
X84100Y-42200D02*
X86500Y-42200D01*
X82975Y-41075D02*
X84100Y-42200D01*
X82975Y-41050D02*
X82175Y-41850D01*
X75300Y-39750D02*
X73334Y-39750D01*
X75600Y-40050D02*
X75300Y-39750D01*
X75600Y-40850D02*
X75600Y-40050D01*
X76600Y-41850D02*
X75600Y-40850D01*
X82175Y-41850D02*
X76600Y-41850D01*
X102975Y-42300D02*
X102975Y-43775D01*
X102975Y-43775D02*
X103000Y-43800D01*
X82975Y-39400D02*
X82975Y-39825D01*
X93400Y-40850D02*
X94800Y-42250D01*
X86200Y-40850D02*
X93400Y-40850D01*
X85750Y-40400D02*
X86200Y-40850D01*
X83550Y-40400D02*
X85750Y-40400D01*
X82975Y-39825D02*
X83550Y-40400D01*
X82975Y-39400D02*
X80134Y-39400D01*
X80134Y-39400D02*
X79784Y-39750D01*
G54D48*
X84700Y-44825D02*
X84700Y-43500D01*
X80700Y-44800D02*
X80700Y-43500D01*
G54D45*
X77700Y-62500D02*
X77700Y-61025D01*
G54D48*
X81700Y-44625D02*
X81700Y-43500D01*
X82700Y-44825D02*
X82700Y-43500D01*
G54D46*
X75700Y-58000D02*
X75700Y-62500D01*
X76700Y-57975D02*
X76700Y-62500D01*
G54D48*
X81700Y-61175D02*
X81700Y-62500D01*
X82700Y-61175D02*
X82700Y-62500D01*
X80700Y-61175D02*
X80700Y-62500D01*
X79700Y-61175D02*
X79700Y-62500D01*
X74100Y-45500D02*
X74100Y-43500D01*
X77700Y-44625D02*
X77700Y-43500D01*
X71100Y-44925D02*
X71100Y-43500D01*
X91380Y-48900D02*
X91380Y-49370D01*
X91380Y-49370D02*
X91325Y-49425D01*
X92150Y-47350D02*
X92150Y-46800D01*
X92400Y-47600D02*
X92150Y-47350D01*
X91120Y-48900D02*
X91120Y-49305D01*
X91120Y-49305D02*
X91000Y-49425D01*
X103550Y-46050D02*
X103600Y-46100D01*
X102800Y-46050D02*
X103550Y-46050D01*
X88632Y-49100D02*
X87791Y-48258D01*
X90350Y-48900D02*
X90350Y-48525D01*
X89625Y-48400D02*
X88925Y-49100D01*
X90200Y-48400D02*
X89625Y-48400D01*
X90325Y-48525D02*
X90200Y-48400D01*
X90350Y-48525D02*
X90325Y-48525D01*
X88925Y-49100D02*
X88632Y-49100D01*
X87800Y-45675D02*
X88250Y-45675D01*
X87628Y-45846D02*
X87800Y-45675D01*
X87628Y-48096D02*
X87628Y-45846D01*
X87791Y-48258D02*
X87628Y-48096D01*
X101600Y-47750D02*
X101900Y-48050D01*
X101900Y-48050D02*
X101900Y-48750D01*
X101900Y-48750D02*
X102200Y-49050D01*
X102800Y-49050D02*
X102200Y-49050D01*
X103750Y-46550D02*
X102800Y-46550D01*
X88700Y-48850D02*
X88665Y-48850D01*
X88250Y-47000D02*
X88250Y-46425D01*
X88050Y-47200D02*
X88250Y-47000D01*
X88050Y-48234D02*
X88050Y-47200D01*
X88665Y-48850D02*
X88050Y-48234D01*
X90610Y-48385D02*
X90400Y-48175D01*
X90400Y-48175D02*
X89567Y-48175D01*
X89567Y-48175D02*
X88892Y-48850D01*
X90610Y-48385D02*
X90610Y-48900D01*
X88675Y-48850D02*
X88700Y-48850D01*
X88700Y-48850D02*
X88892Y-48850D01*
X90350Y-46800D02*
X90350Y-46425D01*
X89825Y-46175D02*
X89825Y-45850D01*
X89925Y-46275D02*
X89825Y-46175D01*
X90200Y-46275D02*
X89925Y-46275D01*
X90350Y-46425D02*
X90200Y-46275D01*
X98275Y-48875D02*
X98850Y-48300D01*
X98275Y-49900D02*
X98275Y-48875D01*
X98250Y-49925D02*
X98275Y-49900D01*
X98850Y-47750D02*
X98850Y-48300D01*
X100300Y-47050D02*
X99550Y-47050D01*
X99550Y-47050D02*
X98850Y-47750D01*
X100300Y-46550D02*
X97675Y-46550D01*
X97500Y-47125D02*
X97525Y-47150D01*
X97500Y-46725D02*
X97500Y-47125D01*
X97675Y-46550D02*
X97500Y-46725D01*
X102800Y-48550D02*
X102200Y-48550D01*
X105700Y-48700D02*
X104900Y-48700D01*
X104750Y-48550D02*
X102800Y-48550D01*
X104900Y-48700D02*
X104750Y-48550D01*
X105700Y-48700D02*
X105700Y-47700D01*
X105700Y-46700D02*
X105700Y-47700D01*
G54D45*
X97400Y-59505D02*
X97400Y-58650D01*
X97550Y-58500D02*
X97925Y-58500D01*
X97400Y-58650D02*
X97550Y-58500D01*
X102475Y-59650D02*
X102475Y-58675D01*
X103260Y-57890D02*
X104940Y-57890D01*
X102475Y-58675D02*
X103260Y-57890D01*
X100250Y-61100D02*
X101700Y-61100D01*
X102475Y-60325D02*
X102475Y-59650D01*
X101700Y-61100D02*
X102475Y-60325D01*
X94900Y-62450D02*
X93900Y-62450D01*
X93900Y-62450D02*
X93850Y-62500D01*
X98443Y-62450D02*
X98443Y-62593D01*
X98443Y-62593D02*
X99050Y-63200D01*
X97400Y-60095D02*
X97400Y-61950D01*
X97900Y-62450D02*
X98443Y-62450D01*
X97400Y-61950D02*
X97900Y-62450D01*
X98443Y-61450D02*
X98443Y-60156D01*
X98950Y-59650D02*
X99475Y-59650D01*
X98443Y-60156D02*
X98950Y-59650D01*
X100250Y-62674D02*
X104875Y-62674D01*
X104875Y-62674D02*
X104940Y-62610D01*
G54D48*
X65623Y-39425D02*
X65623Y-39348D01*
X60200Y-38875D02*
X59475Y-39600D01*
X65100Y-38875D02*
X60200Y-38875D01*
X65623Y-39348D02*
X65100Y-38875D01*
X64835Y-39425D02*
X64835Y-39889D01*
X63950Y-40775D02*
X57000Y-40775D01*
X57000Y-40775D02*
X56600Y-41175D01*
X56600Y-41175D02*
X56600Y-41600D01*
X56600Y-41600D02*
X57050Y-42050D01*
X57050Y-42050D02*
X57050Y-54725D01*
X57050Y-54725D02*
X56146Y-55628D01*
X56146Y-55628D02*
X55989Y-55628D01*
X64835Y-39889D02*
X63950Y-40775D01*
G54D10*
G36*
X111400Y-54559D02*
X111283Y-54583D01*
X111258Y-54600D01*
X108900Y-54600D01*
X102475Y-54600D01*
X102475Y-51250D01*
X111400Y-51250D01*
X111400Y-54559D01*
X111400Y-54559D01*
G37*
G54D48*
X111400Y-54559D02*
X111283Y-54583D01*
X111258Y-54600D01*
X108900Y-54600D01*
X102475Y-54600D01*
X102475Y-51250D01*
X111400Y-51250D01*
X111400Y-54559D01*
G54D10*
G36*
X101050Y-54600D02*
X96450Y-54600D01*
X96450Y-54025D01*
X93475Y-54025D01*
X93475Y-52054D01*
X93499Y-51994D01*
X93500Y-51855D01*
X93475Y-51795D01*
X93475Y-51250D01*
X93700Y-51250D01*
X98825Y-51250D01*
X101050Y-51250D01*
X101050Y-54600D01*
X101050Y-54600D01*
G37*
G54D48*
X101050Y-54600D02*
X96450Y-54600D01*
X96450Y-54025D01*
X93475Y-54025D01*
X93475Y-52054D01*
X93499Y-51994D01*
X93500Y-51855D01*
X93475Y-51795D01*
X93475Y-51250D01*
X93700Y-51250D01*
X98825Y-51250D01*
X101050Y-51250D01*
X101050Y-54600D01*
M02*
