G04 (created by PCBNEW (2013-07-07 BZR 4022)-stable) date 17/03/2014 19:27:42*
%MOIN*%
G04 Gerber Fmt 3.4, Leading zero omitted, Abs format*
%FSLAX34Y34*%
G01*
G70*
G90*
G04 APERTURE LIST*
%ADD10C,0.006*%
%ADD11C,0.0984252*%
%ADD12R,0.036X0.036*%
%ADD13R,0.035X0.055*%
%ADD14R,0.012X0.02*%
%ADD15R,0.06X0.08*%
%ADD16R,0.055X0.035*%
%ADD17R,0.06X0.06*%
%ADD18C,0.06*%
%ADD19R,0.0787402X0.0787402*%
%ADD20C,0.0787402*%
%ADD21R,0.11811X0.11811*%
%ADD22C,0.11811*%
%ADD23R,0.15X0.055*%
%ADD24R,0.055X0.15*%
%ADD25R,0.11X0.07*%
%ADD26C,0.0551181*%
%ADD27O,0.0866142X0.110236*%
%ADD28C,0.0629921*%
%ADD29C,0.075*%
%ADD30C,0.07*%
%ADD31R,0.07X0.07*%
%ADD32O,0.06X0.1*%
%ADD33C,0.16*%
%ADD34R,0.1X0.2*%
%ADD35R,0.1X0.05*%
%ADD36R,0.05X0.1*%
%ADD37C,0.046*%
%ADD38C,0.02*%
%ADD39C,0.035*%
%ADD40C,0.036*%
%ADD41C,0.024*%
%ADD42C,0.01*%
%ADD43C,0.15*%
%ADD44C,0.048*%
G04 APERTURE END LIST*
G54D10*
G54D11*
X95650Y-39550D03*
G54D12*
X102700Y-62150D03*
X102700Y-62850D03*
X103500Y-62500D03*
G54D13*
X100275Y-62700D03*
X101025Y-62700D03*
X92025Y-62450D03*
X92775Y-62450D03*
X100925Y-58500D03*
X100175Y-58500D03*
G54D14*
X109975Y-48750D03*
X109475Y-48750D03*
X109975Y-47950D03*
X109725Y-48750D03*
X109475Y-47950D03*
G54D15*
X98150Y-47200D03*
X96850Y-47200D03*
X94150Y-47200D03*
X95450Y-47200D03*
X100450Y-50175D03*
X101750Y-50175D03*
X96850Y-48300D03*
X98150Y-48300D03*
G54D16*
X89525Y-55000D03*
X89525Y-55750D03*
G54D13*
X94050Y-48275D03*
X93300Y-48275D03*
X91250Y-48275D03*
X90500Y-48275D03*
G54D16*
X103450Y-48325D03*
X103450Y-47575D03*
X101200Y-45975D03*
X101200Y-46725D03*
G54D13*
X109350Y-47100D03*
X110100Y-47100D03*
X104875Y-49100D03*
X104125Y-49100D03*
X104875Y-48200D03*
X104125Y-48200D03*
X103275Y-50250D03*
X102525Y-50250D03*
X104875Y-47200D03*
X104125Y-47200D03*
X96975Y-49900D03*
X97725Y-49900D03*
G54D17*
X105700Y-46700D03*
G54D18*
X106700Y-46700D03*
X105700Y-47700D03*
X106700Y-47700D03*
X105700Y-48700D03*
X106700Y-48700D03*
G54D13*
X93625Y-46100D03*
X92875Y-46100D03*
G54D19*
X112600Y-62000D03*
G54D20*
X112600Y-60031D03*
X112600Y-58062D03*
G54D19*
X112800Y-54750D03*
G54D20*
X112800Y-53372D03*
X112800Y-51994D03*
X112800Y-50616D03*
X112800Y-49238D03*
X112800Y-47860D03*
X112800Y-46482D03*
X112800Y-45104D03*
X112800Y-43726D03*
X112800Y-42348D03*
X112800Y-40970D03*
X112800Y-39592D03*
G54D21*
X53824Y-60588D03*
G54D22*
X53824Y-58935D03*
X53824Y-57281D03*
X53824Y-55628D03*
X53824Y-53974D03*
X53824Y-52321D03*
X53824Y-50667D03*
X53824Y-49014D03*
X53824Y-47360D03*
X53824Y-45707D03*
X53824Y-44053D03*
X53824Y-42400D03*
X55989Y-60588D03*
X55989Y-58935D03*
X55989Y-57281D03*
X55989Y-55628D03*
X55989Y-53974D03*
X55938Y-52321D03*
X55989Y-50667D03*
X55989Y-49014D03*
X55989Y-47360D03*
X55989Y-45707D03*
X55989Y-44053D03*
X55989Y-42400D03*
G54D13*
X78400Y-56525D03*
X77650Y-56525D03*
G54D12*
X99250Y-45675D03*
X98550Y-45675D03*
X98900Y-46475D03*
G54D23*
X110950Y-53750D03*
X110950Y-51950D03*
G54D16*
X102925Y-52775D03*
X102925Y-52025D03*
X90575Y-52275D03*
X90575Y-51525D03*
G54D23*
X58250Y-53050D03*
X58250Y-51250D03*
G54D24*
X57650Y-61100D03*
X59450Y-61100D03*
G54D23*
X61150Y-58100D03*
X61150Y-56300D03*
G54D24*
X53850Y-40325D03*
X55650Y-40325D03*
G54D25*
X60700Y-53250D03*
X60700Y-51850D03*
G54D26*
X65623Y-39425D03*
X64835Y-39425D03*
X64048Y-39425D03*
G54D16*
X108600Y-42625D03*
X108600Y-43375D03*
G54D13*
X105725Y-42400D03*
X104975Y-42400D03*
X107125Y-42400D03*
X106375Y-42400D03*
G54D16*
X95800Y-43500D03*
X95800Y-44250D03*
G54D13*
X101725Y-44800D03*
X100975Y-44800D03*
G54D16*
X89550Y-44275D03*
X89550Y-43525D03*
X96775Y-43500D03*
X96775Y-44250D03*
X99850Y-43275D03*
X99850Y-44025D03*
G54D13*
X104125Y-42400D03*
X103375Y-42400D03*
X68550Y-41150D03*
X67800Y-41150D03*
X66650Y-41150D03*
X65900Y-41150D03*
X65900Y-40300D03*
X66650Y-40300D03*
X67800Y-40300D03*
X68550Y-40300D03*
G54D16*
X88550Y-44275D03*
X88550Y-43525D03*
X104350Y-45025D03*
X104350Y-44275D03*
X94800Y-43500D03*
X94800Y-44250D03*
X90550Y-44275D03*
X90550Y-43525D03*
G54D27*
X80729Y-40616D03*
X76870Y-40616D03*
G54D28*
X78800Y-39750D03*
X79784Y-39750D03*
X77815Y-39750D03*
G54D27*
X74279Y-40616D03*
X70420Y-40616D03*
G54D28*
X72350Y-39750D03*
X73334Y-39750D03*
X71365Y-39750D03*
G54D12*
X90050Y-40600D03*
X90050Y-41300D03*
X90850Y-40950D03*
X106200Y-44650D03*
X105500Y-44650D03*
X105850Y-45450D03*
X103500Y-45400D03*
X103500Y-44700D03*
X102700Y-45050D03*
X94700Y-40550D03*
X94700Y-41250D03*
X95500Y-40900D03*
X97150Y-40500D03*
X96450Y-40500D03*
X96800Y-41300D03*
X100650Y-42900D03*
X100650Y-42200D03*
X99850Y-42550D03*
X88750Y-41300D03*
X88750Y-40600D03*
X87950Y-40950D03*
X107850Y-44650D03*
X107150Y-44650D03*
X107500Y-45450D03*
G54D13*
X112775Y-55900D03*
X112025Y-55900D03*
G54D16*
X93475Y-54900D03*
X93475Y-55650D03*
G54D29*
X104150Y-60250D03*
X104940Y-57890D03*
X109740Y-57890D03*
X109740Y-62610D03*
X104940Y-62610D03*
G54D30*
X94800Y-42250D03*
X95800Y-42250D03*
G54D31*
X96800Y-42250D03*
G54D30*
X103000Y-43800D03*
X102000Y-43800D03*
G54D31*
X101000Y-43800D03*
G54D30*
X107800Y-43800D03*
X106800Y-43800D03*
G54D31*
X105800Y-43800D03*
G54D30*
X88550Y-42250D03*
X89550Y-42250D03*
G54D31*
X90550Y-42250D03*
G54D32*
X84700Y-62500D03*
X84700Y-43500D03*
X83700Y-43500D03*
X82700Y-43500D03*
X81700Y-43500D03*
X80700Y-43500D03*
X79700Y-43500D03*
X78700Y-43500D03*
X77700Y-43500D03*
X76100Y-43500D03*
X75100Y-43500D03*
X74100Y-43500D03*
X73100Y-43500D03*
X72100Y-43500D03*
X71100Y-43500D03*
X70100Y-43500D03*
X69100Y-43500D03*
X83700Y-62500D03*
X82700Y-62500D03*
X81700Y-62500D03*
X80700Y-62500D03*
X79700Y-62500D03*
X77700Y-62500D03*
X76700Y-62500D03*
X75700Y-62500D03*
X74700Y-62500D03*
X73700Y-62500D03*
X72700Y-62500D03*
X71700Y-62500D03*
X70700Y-62500D03*
G54D33*
X63300Y-52700D03*
G54D17*
X63200Y-55150D03*
G54D18*
X63200Y-56150D03*
G54D34*
X63200Y-55650D03*
G54D10*
G36*
X65072Y-54046D02*
X65496Y-53622D01*
X65920Y-54046D01*
X65496Y-54470D01*
X65072Y-54046D01*
X65072Y-54046D01*
G37*
G54D18*
X66203Y-54753D03*
G54D10*
G36*
X64789Y-54046D02*
X65496Y-53339D01*
X66910Y-54753D01*
X66203Y-55460D01*
X64789Y-54046D01*
X64789Y-54046D01*
G37*
G54D17*
X63200Y-51050D03*
G54D18*
X63200Y-50050D03*
G54D34*
X63200Y-50550D03*
G54D10*
G36*
X65296Y-51977D02*
X64872Y-51553D01*
X65296Y-51129D01*
X65720Y-51553D01*
X65296Y-51977D01*
X65296Y-51977D01*
G37*
G54D18*
X66003Y-50846D03*
G54D10*
G36*
X65296Y-52260D02*
X64589Y-51553D01*
X66003Y-50139D01*
X66710Y-50846D01*
X65296Y-52260D01*
X65296Y-52260D01*
G37*
G54D13*
X92650Y-48275D03*
X91900Y-48275D03*
G54D10*
G36*
X79975Y-45700D02*
X79425Y-45700D01*
X79625Y-45050D01*
X79775Y-45050D01*
X79975Y-45700D01*
X79975Y-45700D01*
G37*
G36*
X79625Y-44950D02*
X79425Y-44300D01*
X79975Y-44300D01*
X79775Y-44950D01*
X79625Y-44950D01*
X79625Y-44950D01*
G37*
G36*
X75375Y-46000D02*
X74825Y-46000D01*
X75025Y-45350D01*
X75175Y-45350D01*
X75375Y-46000D01*
X75375Y-46000D01*
G37*
G36*
X75025Y-45250D02*
X74825Y-44600D01*
X75375Y-44600D01*
X75175Y-45250D01*
X75025Y-45250D01*
X75025Y-45250D01*
G37*
G36*
X72375Y-46550D02*
X71825Y-46550D01*
X72025Y-45900D01*
X72175Y-45900D01*
X72375Y-46550D01*
X72375Y-46550D01*
G37*
G36*
X72025Y-45800D02*
X71825Y-45150D01*
X72375Y-45150D01*
X72175Y-45800D01*
X72025Y-45800D01*
X72025Y-45800D01*
G37*
G36*
X73375Y-46000D02*
X72825Y-46000D01*
X73025Y-45350D01*
X73175Y-45350D01*
X73375Y-46000D01*
X73375Y-46000D01*
G37*
G36*
X73025Y-45250D02*
X72825Y-44600D01*
X73375Y-44600D01*
X73175Y-45250D01*
X73025Y-45250D01*
X73025Y-45250D01*
G37*
G36*
X78975Y-45875D02*
X78425Y-45875D01*
X78625Y-45225D01*
X78775Y-45225D01*
X78975Y-45875D01*
X78975Y-45875D01*
G37*
G36*
X78625Y-45125D02*
X78425Y-44475D01*
X78975Y-44475D01*
X78775Y-45125D01*
X78625Y-45125D01*
X78625Y-45125D01*
G37*
G36*
X76400Y-46600D02*
X75850Y-46600D01*
X76050Y-45950D01*
X76200Y-45950D01*
X76400Y-46600D01*
X76400Y-46600D01*
G37*
G36*
X76050Y-45850D02*
X75850Y-45200D01*
X76400Y-45200D01*
X76200Y-45850D01*
X76050Y-45850D01*
X76050Y-45850D01*
G37*
G54D16*
X110150Y-44825D03*
X110150Y-44075D03*
G54D35*
X111550Y-39275D03*
X111550Y-40475D03*
G54D36*
X111600Y-42850D03*
X110400Y-42850D03*
X111625Y-41550D03*
X110425Y-41550D03*
G54D35*
X111225Y-45075D03*
X111225Y-43875D03*
G54D13*
X91825Y-49600D03*
X92575Y-49600D03*
G54D11*
X89400Y-39500D03*
G54D13*
X91650Y-39600D03*
X90900Y-39600D03*
X93425Y-39600D03*
X94175Y-39600D03*
G54D37*
X101825Y-52700D03*
X55600Y-61900D03*
X77700Y-59325D03*
X101000Y-59650D03*
X59450Y-59700D03*
X62300Y-43700D03*
G54D38*
X56825Y-39800D03*
G54D37*
X85350Y-41000D03*
G54D39*
X88500Y-54950D03*
G54D37*
X64300Y-43850D03*
X60800Y-55200D03*
X65300Y-55450D03*
G54D38*
X91950Y-47525D03*
X90000Y-51450D03*
X108700Y-47100D03*
G54D37*
X61150Y-50900D03*
X57350Y-41375D03*
X64850Y-45100D03*
X62350Y-41350D03*
G54D38*
X93500Y-50750D03*
X84725Y-46200D03*
X98775Y-44625D03*
X84700Y-53925D03*
X74150Y-48050D03*
X73275Y-48125D03*
X93525Y-61450D03*
X88600Y-52300D03*
X88375Y-50475D03*
X67225Y-39800D03*
X67300Y-40825D03*
X76125Y-47000D03*
X82000Y-46700D03*
X93150Y-51925D03*
X92750Y-50425D03*
X80075Y-46775D03*
X88075Y-51300D03*
X82700Y-46975D03*
X92800Y-52100D03*
G54D37*
X90225Y-55275D03*
X96725Y-56875D03*
G54D38*
X92575Y-54875D03*
X86625Y-39350D03*
X93300Y-46850D03*
X91400Y-47450D03*
X90700Y-47375D03*
X102150Y-47400D03*
X88725Y-48300D03*
X89650Y-46700D03*
X95200Y-48950D03*
X99950Y-45225D03*
X92475Y-51825D03*
X89700Y-48725D03*
G54D37*
X101775Y-52050D03*
X95125Y-50300D03*
G54D38*
X110750Y-47100D03*
G54D37*
X103450Y-49250D03*
X105100Y-45550D03*
X107850Y-42500D03*
X104300Y-43550D03*
X100250Y-44650D03*
X101200Y-47350D03*
X103500Y-46950D03*
X60050Y-44950D03*
G54D38*
X61150Y-39175D03*
X75975Y-56700D03*
G54D37*
X73925Y-57325D03*
X60550Y-47300D03*
X88700Y-55750D03*
X111475Y-55700D03*
X92775Y-55275D03*
G54D39*
X92525Y-39600D03*
G54D38*
X65175Y-40675D03*
G54D37*
X92550Y-43800D03*
X99450Y-58500D03*
G54D38*
X99450Y-47775D03*
X98875Y-47200D03*
X91325Y-49425D03*
X92400Y-47600D03*
X91000Y-49425D03*
X103600Y-46100D03*
X101600Y-47750D03*
X103750Y-46550D03*
X98250Y-49925D03*
X98850Y-48300D03*
X97525Y-47150D03*
X102200Y-48550D03*
G54D37*
X93850Y-62500D03*
X99050Y-63200D03*
G54D40*
X102925Y-52775D02*
X103050Y-52650D01*
X109850Y-52650D02*
X110950Y-53750D01*
X103050Y-52650D02*
X109850Y-52650D01*
X102925Y-52775D02*
X102850Y-52700D01*
X102850Y-52700D02*
X101825Y-52700D01*
X56250Y-61900D02*
X56700Y-61450D01*
X57050Y-61100D02*
X57650Y-61100D01*
X56700Y-61450D02*
X57050Y-61100D01*
X55600Y-61900D02*
X56250Y-61900D01*
X59450Y-59700D02*
X59450Y-61100D01*
G54D41*
X99850Y-43275D02*
X99850Y-42550D01*
X101000Y-43800D02*
X100800Y-43800D01*
X100275Y-43275D02*
X99850Y-43275D01*
X100800Y-43800D02*
X100275Y-43275D01*
X96775Y-43500D02*
X96775Y-42275D01*
X96775Y-42275D02*
X96800Y-42250D01*
X96800Y-42250D02*
X96800Y-41300D01*
G54D40*
X111600Y-42850D02*
X112298Y-42850D01*
X112298Y-42850D02*
X112800Y-42348D01*
G54D42*
X56100Y-39875D02*
X55650Y-40325D01*
X56750Y-39875D02*
X56100Y-39875D01*
X56825Y-39800D02*
X56750Y-39875D01*
G54D40*
X64850Y-42350D02*
X64750Y-42350D01*
X62725Y-40325D02*
X55650Y-40325D01*
X64750Y-42350D02*
X62725Y-40325D01*
X83775Y-42325D02*
X84025Y-42325D01*
X64850Y-42350D02*
X64850Y-42350D01*
X64850Y-42350D02*
X83675Y-42325D01*
X83675Y-42325D02*
X83775Y-42325D01*
X84025Y-42325D02*
X85350Y-41000D01*
X111225Y-45075D02*
X112770Y-45075D01*
X112770Y-45075D02*
X112800Y-45104D01*
G54D41*
X89525Y-55000D02*
X88550Y-55000D01*
X88550Y-55000D02*
X88500Y-54950D01*
G54D40*
X60200Y-55200D02*
X60800Y-55200D01*
X62100Y-46050D02*
X63650Y-44500D01*
X60500Y-46050D02*
X62100Y-46050D01*
X59450Y-47100D02*
X60500Y-46050D01*
X59450Y-54450D02*
X59450Y-47100D01*
X60200Y-55200D02*
X59450Y-54450D01*
X63650Y-44500D02*
X64300Y-43850D01*
X60800Y-55200D02*
X61750Y-54250D01*
X64100Y-54250D02*
X65300Y-55450D01*
X61750Y-54250D02*
X64100Y-54250D01*
X60700Y-53250D02*
X60700Y-55100D01*
X61150Y-55550D02*
X60800Y-55200D01*
X61150Y-55550D02*
X61150Y-56300D01*
X60700Y-55100D02*
X60800Y-55200D01*
G54D42*
X91250Y-47950D02*
X91250Y-48275D01*
X91525Y-47675D02*
X91250Y-47950D01*
X91800Y-47675D02*
X91525Y-47675D01*
X91950Y-47525D02*
X91800Y-47675D01*
X90075Y-51525D02*
X90575Y-51525D01*
X90000Y-51450D02*
X90075Y-51525D01*
X91250Y-48275D02*
X91250Y-47975D01*
X91900Y-48275D02*
X91250Y-48275D01*
X109350Y-47100D02*
X108700Y-47100D01*
X109475Y-47950D02*
X109475Y-47700D01*
X109350Y-47575D02*
X109350Y-47100D01*
X109475Y-47700D02*
X109350Y-47575D01*
G54D40*
X60700Y-51350D02*
X61150Y-50900D01*
X60700Y-51350D02*
X60700Y-51850D01*
X58250Y-51250D02*
X58250Y-42550D01*
X58250Y-42550D02*
X57350Y-41375D01*
G54D41*
X108600Y-44850D02*
X108600Y-44900D01*
X108600Y-43375D02*
X108600Y-44850D01*
X108050Y-45450D02*
X107500Y-45450D01*
X108600Y-44900D02*
X108050Y-45450D01*
X107800Y-43800D02*
X107800Y-43650D01*
X107800Y-43650D02*
X108075Y-43375D01*
X108075Y-43375D02*
X108600Y-43375D01*
X108525Y-43450D02*
X108600Y-43375D01*
X87950Y-40950D02*
X87950Y-41650D01*
X87950Y-41650D02*
X88550Y-42250D01*
X88550Y-42250D02*
X88550Y-43525D01*
G54D42*
X91300Y-50050D02*
X92800Y-50050D01*
X92800Y-50050D02*
X93500Y-50750D01*
X89350Y-50050D02*
X91300Y-50050D01*
X91300Y-50050D02*
X91325Y-50050D01*
X85774Y-46474D02*
X89350Y-50050D01*
X84999Y-46474D02*
X85774Y-46474D01*
X84725Y-46200D02*
X84999Y-46474D01*
X98550Y-44850D02*
X98550Y-45675D01*
X98775Y-44625D02*
X98550Y-44850D01*
X75100Y-46525D02*
X75100Y-46900D01*
X75100Y-46525D02*
X75100Y-45675D01*
X84175Y-53400D02*
X84700Y-53925D01*
X84175Y-49475D02*
X84175Y-53400D01*
X83650Y-48950D02*
X84175Y-49475D01*
X77150Y-48950D02*
X83650Y-48950D01*
X75100Y-46900D02*
X77150Y-48950D01*
X73100Y-47000D02*
X73100Y-45675D01*
X74150Y-48050D02*
X73100Y-47000D01*
X72100Y-46950D02*
X72100Y-46225D01*
X73275Y-48125D02*
X72100Y-46950D01*
X72100Y-46225D02*
X72100Y-46575D01*
X78700Y-45550D02*
X78700Y-46100D01*
X93150Y-61450D02*
X93525Y-61450D01*
X84675Y-52975D02*
X93150Y-61450D01*
X84675Y-49175D02*
X84675Y-52975D01*
X83800Y-48300D02*
X84675Y-49175D01*
X80900Y-48300D02*
X83800Y-48300D01*
X78700Y-46100D02*
X80900Y-48300D01*
X78400Y-56525D02*
X83925Y-56525D01*
X89850Y-62450D02*
X92025Y-62450D01*
X83925Y-56525D02*
X89850Y-62450D01*
X88600Y-52300D02*
X88375Y-52075D01*
X88375Y-52075D02*
X88375Y-50475D01*
X88375Y-50475D02*
X88400Y-50475D01*
X67425Y-40300D02*
X67800Y-40300D01*
X67225Y-40100D02*
X67425Y-40300D01*
X67225Y-39800D02*
X67225Y-40100D01*
X66650Y-40300D02*
X67800Y-40300D01*
X66975Y-41150D02*
X66650Y-41150D01*
X66975Y-41150D02*
X67300Y-40825D01*
X66650Y-41150D02*
X67800Y-41150D01*
X76125Y-46275D02*
X76125Y-47000D01*
X82962Y-46712D02*
X82012Y-46712D01*
X82012Y-46712D02*
X82000Y-46700D01*
X83175Y-46925D02*
X82962Y-46712D01*
X85625Y-46925D02*
X83175Y-46925D01*
X89221Y-50521D02*
X85625Y-46925D01*
X92321Y-50521D02*
X89221Y-50521D01*
X93150Y-51350D02*
X92321Y-50521D01*
X93150Y-51925D02*
X93150Y-51350D01*
X89275Y-50275D02*
X89025Y-50025D01*
X92600Y-50275D02*
X89275Y-50275D01*
X92750Y-50425D02*
X92600Y-50275D01*
X89025Y-50025D02*
X85675Y-46675D01*
X83275Y-46675D02*
X85675Y-46675D01*
X83100Y-46500D02*
X83275Y-46675D01*
X82287Y-46412D02*
X79962Y-46412D01*
X82375Y-46500D02*
X82900Y-46500D01*
X82287Y-46412D02*
X82375Y-46500D01*
X82900Y-46500D02*
X83100Y-46500D01*
X79700Y-46125D02*
X79700Y-46150D01*
X79700Y-45375D02*
X79700Y-46125D01*
X79700Y-46150D02*
X79962Y-46412D01*
X79962Y-46412D02*
X79975Y-46425D01*
X82375Y-47550D02*
X82800Y-47550D01*
X81600Y-46775D02*
X82375Y-47550D01*
X80075Y-46775D02*
X81600Y-46775D01*
X88025Y-50025D02*
X88025Y-50000D01*
X88025Y-50000D02*
X85575Y-47550D01*
X85575Y-47550D02*
X82800Y-47550D01*
X88025Y-51000D02*
X88025Y-50025D01*
X88025Y-50025D02*
X88025Y-50000D01*
X88025Y-51250D02*
X88025Y-51000D01*
X88075Y-51300D02*
X88025Y-51250D01*
G54D40*
X110950Y-51950D02*
X110950Y-51088D01*
X110950Y-51088D02*
X112800Y-49238D01*
G54D41*
X113300Y-45850D02*
X112000Y-45850D01*
X113255Y-51994D02*
X113650Y-51600D01*
X113650Y-51600D02*
X113650Y-46200D01*
X113650Y-46200D02*
X113300Y-45850D01*
X112800Y-51994D02*
X113255Y-51994D01*
X110150Y-45375D02*
X110150Y-44825D01*
X110475Y-45700D02*
X110150Y-45375D01*
X111850Y-45700D02*
X110475Y-45700D01*
X112000Y-45850D02*
X111850Y-45700D01*
G54D42*
X83025Y-47150D02*
X82875Y-47150D01*
X82875Y-47150D02*
X82700Y-46975D01*
X85525Y-47150D02*
X83025Y-47150D01*
X83025Y-47150D02*
X83000Y-47150D01*
X89100Y-50725D02*
X85525Y-47150D01*
X92050Y-50725D02*
X89100Y-50725D01*
X92800Y-51475D02*
X92050Y-50725D01*
X92800Y-52100D02*
X92800Y-51475D01*
G54D41*
X112775Y-55900D02*
X112775Y-54775D01*
X112775Y-54775D02*
X112800Y-54750D01*
X90225Y-55275D02*
X90225Y-56075D01*
X90225Y-56075D02*
X90975Y-56825D01*
X90975Y-56825D02*
X96675Y-56825D01*
X96675Y-56825D02*
X96725Y-56875D01*
X93475Y-54900D02*
X95575Y-54900D01*
X111000Y-55400D02*
X111750Y-54650D01*
X96075Y-55400D02*
X111000Y-55400D01*
X95575Y-54900D02*
X96075Y-55400D01*
X111500Y-54900D02*
X111750Y-54650D01*
X112075Y-54097D02*
X112800Y-53372D01*
X111750Y-54650D02*
X112075Y-54325D01*
X112075Y-54325D02*
X112075Y-54097D01*
G54D42*
X92575Y-54875D02*
X93450Y-54875D01*
X93450Y-54875D02*
X93475Y-54900D01*
G54D40*
X111550Y-39275D02*
X112482Y-39275D01*
X112482Y-39275D02*
X112800Y-39592D01*
G54D42*
X68550Y-40300D02*
X68925Y-40300D01*
X86200Y-38925D02*
X86625Y-39350D01*
X69475Y-38925D02*
X86200Y-38925D01*
X69225Y-39175D02*
X69475Y-38925D01*
X69225Y-40000D02*
X69225Y-39175D01*
X68925Y-40300D02*
X69225Y-40000D01*
G54D41*
X95800Y-43500D02*
X95800Y-42250D01*
X95500Y-40900D02*
X95500Y-40750D01*
X95750Y-40500D02*
X96450Y-40500D01*
X95500Y-40750D02*
X95750Y-40500D01*
X95800Y-42250D02*
X95800Y-41200D01*
X95800Y-41200D02*
X95500Y-40900D01*
G54D40*
X111625Y-41550D02*
X112220Y-41550D01*
X112220Y-41550D02*
X112800Y-40970D01*
G54D42*
X88750Y-40600D02*
X88750Y-40375D01*
X68975Y-41150D02*
X69575Y-40550D01*
X69575Y-40550D02*
X69575Y-39525D01*
X69575Y-39525D02*
X69974Y-39125D01*
X69974Y-39125D02*
X85200Y-39125D01*
X85200Y-39125D02*
X86325Y-40250D01*
X68975Y-41150D02*
X68550Y-41150D01*
X88625Y-40250D02*
X86325Y-40250D01*
X88750Y-40375D02*
X88625Y-40250D01*
G54D41*
X89550Y-42250D02*
X89550Y-43525D01*
X89600Y-41300D02*
X89600Y-42200D01*
X89600Y-42200D02*
X89550Y-42250D01*
X88750Y-40600D02*
X88900Y-40600D01*
X89600Y-41300D02*
X90050Y-41300D01*
X88900Y-40600D02*
X89600Y-41300D01*
G54D43*
X112600Y-60031D02*
X104368Y-60031D01*
X104368Y-60031D02*
X104150Y-60250D01*
G54D42*
X93625Y-46100D02*
X93625Y-46525D01*
X93625Y-46525D02*
X93300Y-46850D01*
X94150Y-47200D02*
X93650Y-47200D01*
X93650Y-47200D02*
X93300Y-46850D01*
X92875Y-46100D02*
X92125Y-46100D01*
X91400Y-46825D02*
X91400Y-47450D01*
X92125Y-46100D02*
X91400Y-46825D01*
X89600Y-49025D02*
X89775Y-49025D01*
X93000Y-49025D02*
X95400Y-51425D01*
X89275Y-48700D02*
X89600Y-49025D01*
X109475Y-48750D02*
X109475Y-51225D01*
X109475Y-51225D02*
X109275Y-51425D01*
X109275Y-51425D02*
X95400Y-51425D01*
X89275Y-48700D02*
X89275Y-48250D01*
X92750Y-48775D02*
X93000Y-49025D01*
X90025Y-48775D02*
X92750Y-48775D01*
X89775Y-49025D02*
X90025Y-48775D01*
X89300Y-48225D02*
X89275Y-48250D01*
X89275Y-48250D02*
X89375Y-48150D01*
X90150Y-47375D02*
X89375Y-48150D01*
X89375Y-48150D02*
X89300Y-48225D01*
X90700Y-47375D02*
X90150Y-47375D01*
X112050Y-47110D02*
X112800Y-47860D01*
X112050Y-46750D02*
X112050Y-47110D01*
X111350Y-46050D02*
X112050Y-46750D01*
X104850Y-46050D02*
X111350Y-46050D01*
X104600Y-45800D02*
X104850Y-46050D01*
X102300Y-45800D02*
X104600Y-45800D01*
X102200Y-45900D02*
X102300Y-45800D01*
X102200Y-47350D02*
X102200Y-45900D01*
X102150Y-47400D02*
X102200Y-47350D01*
X89617Y-49325D02*
X89775Y-49325D01*
X93000Y-49325D02*
X93600Y-49925D01*
X109975Y-48750D02*
X109975Y-49525D01*
X109975Y-49525D02*
X109975Y-51375D01*
X109700Y-51650D02*
X109975Y-51375D01*
X93600Y-49925D02*
X95325Y-51650D01*
X95325Y-51650D02*
X109700Y-51650D01*
X88725Y-48432D02*
X89617Y-49325D01*
X88725Y-48300D02*
X88725Y-48432D01*
X92625Y-48950D02*
X93000Y-49325D01*
X90150Y-48950D02*
X92625Y-48950D01*
X89775Y-49325D02*
X90150Y-48950D01*
X95200Y-48950D02*
X95750Y-48400D01*
X94525Y-48275D02*
X95200Y-48950D01*
X94050Y-48275D02*
X94525Y-48275D01*
X96750Y-48400D02*
X96850Y-48300D01*
X95750Y-48400D02*
X96750Y-48400D01*
X101200Y-45975D02*
X100700Y-45975D01*
X99500Y-45675D02*
X99950Y-45225D01*
X99500Y-45675D02*
X99250Y-45675D01*
X100700Y-45975D02*
X99950Y-45225D01*
X90575Y-52275D02*
X90900Y-52275D01*
X91350Y-51825D02*
X92475Y-51825D01*
X90900Y-52275D02*
X91350Y-51825D01*
X90500Y-48275D02*
X90150Y-48275D01*
X90150Y-48275D02*
X89700Y-48725D01*
G54D40*
X102925Y-52025D02*
X102900Y-52050D01*
X102900Y-52050D02*
X101775Y-52050D01*
G54D42*
X110100Y-47100D02*
X110750Y-47100D01*
X109725Y-48750D02*
X109725Y-48375D01*
X109725Y-48375D02*
X109975Y-48125D01*
X109975Y-48750D02*
X109975Y-48125D01*
X109975Y-48125D02*
X109975Y-47950D01*
X109975Y-47950D02*
X109975Y-47650D01*
X110100Y-47525D02*
X110100Y-47100D01*
X109975Y-47650D02*
X110100Y-47525D01*
G54D41*
X103450Y-48325D02*
X103450Y-49250D01*
X105100Y-45550D02*
X105200Y-45450D01*
X105200Y-45450D02*
X105850Y-45450D01*
X107850Y-42500D02*
X108475Y-42500D01*
X108475Y-42500D02*
X108600Y-42625D01*
X104300Y-43550D02*
X104900Y-42950D01*
X104900Y-42475D02*
X104975Y-42400D01*
X104900Y-42950D02*
X104900Y-42475D01*
X104125Y-42400D02*
X104125Y-43375D01*
X104350Y-43600D02*
X104300Y-43550D01*
X104350Y-43600D02*
X104350Y-44275D01*
X104125Y-43375D02*
X104300Y-43550D01*
X99850Y-44025D02*
X99850Y-44250D01*
X100400Y-44800D02*
X100250Y-44650D01*
X100400Y-44800D02*
X100975Y-44800D01*
X99850Y-44250D02*
X100250Y-44650D01*
X102700Y-45050D02*
X102450Y-44800D01*
X102450Y-44800D02*
X101725Y-44800D01*
X101200Y-47350D02*
X101200Y-46725D01*
X102000Y-43800D02*
X102000Y-43850D01*
X102000Y-43850D02*
X101725Y-44125D01*
X101725Y-44125D02*
X101725Y-44800D01*
X100650Y-42200D02*
X101450Y-42200D01*
X101450Y-42200D02*
X102000Y-42750D01*
X102000Y-42750D02*
X102000Y-43800D01*
X103450Y-47575D02*
X103450Y-47000D01*
X103450Y-47000D02*
X103500Y-46950D01*
X106800Y-43800D02*
X106800Y-44300D01*
X106800Y-44300D02*
X107150Y-44650D01*
X107125Y-42400D02*
X107125Y-43475D01*
X107125Y-43475D02*
X106800Y-43800D01*
G54D42*
X77650Y-56525D02*
X76150Y-56525D01*
X76150Y-56525D02*
X76025Y-56650D01*
X76025Y-56650D02*
X75975Y-56700D01*
G54D41*
X89525Y-55750D02*
X88700Y-55750D01*
X112025Y-55900D02*
X111600Y-55900D01*
X111600Y-55900D02*
X111475Y-55700D01*
X93475Y-55650D02*
X93150Y-55650D01*
X93150Y-55650D02*
X92775Y-55275D01*
G54D44*
X93425Y-39600D02*
X92525Y-39600D01*
X92525Y-39600D02*
X91650Y-39600D01*
G54D41*
X110150Y-44075D02*
X110150Y-44025D01*
X110300Y-43875D02*
X111225Y-43875D01*
X110150Y-44025D02*
X110300Y-43875D01*
G54D40*
X111225Y-43875D02*
X112651Y-43875D01*
X112651Y-43875D02*
X112800Y-43726D01*
X110425Y-41550D02*
X110425Y-42825D01*
X110425Y-42825D02*
X110400Y-42850D01*
X110400Y-42850D02*
X110400Y-43050D01*
X110400Y-43050D02*
X111225Y-43875D01*
X111550Y-40475D02*
X111200Y-40475D01*
X110425Y-41250D02*
X110425Y-41550D01*
X111200Y-40475D02*
X110425Y-41250D01*
G54D41*
X112776Y-43750D02*
X112800Y-43726D01*
G54D42*
X65900Y-41150D02*
X65650Y-41150D01*
X65550Y-40300D02*
X65175Y-40675D01*
X65550Y-40300D02*
X65900Y-40300D01*
X65650Y-41150D02*
X65175Y-40675D01*
G54D41*
X90550Y-44275D02*
X92075Y-44275D01*
X93000Y-44250D02*
X92550Y-43800D01*
X93000Y-44250D02*
X94800Y-44250D01*
X92075Y-44275D02*
X92550Y-43800D01*
X89550Y-44275D02*
X90550Y-44275D01*
X88550Y-44275D02*
X89550Y-44275D01*
X96775Y-44250D02*
X95800Y-44250D01*
X95800Y-44250D02*
X94800Y-44250D01*
X100175Y-58500D02*
X99450Y-58500D01*
G54D40*
X55989Y-58935D02*
X57014Y-58935D01*
X58250Y-57700D02*
X58250Y-53050D01*
X57014Y-58935D02*
X58250Y-57700D01*
X53824Y-52321D02*
X53303Y-52321D01*
X52400Y-53225D02*
X52400Y-57052D01*
X53303Y-52321D02*
X52400Y-53225D01*
X61150Y-58100D02*
X61150Y-61200D01*
X52400Y-57052D02*
X53824Y-55628D01*
X52400Y-61350D02*
X52400Y-57052D01*
X53900Y-62850D02*
X52400Y-61350D01*
X59500Y-62850D02*
X53900Y-62850D01*
X61150Y-61200D02*
X59500Y-62850D01*
X53850Y-40325D02*
X53850Y-42374D01*
X53850Y-42374D02*
X53824Y-42400D01*
X53824Y-39774D02*
X53800Y-39750D01*
G54D42*
X98875Y-46500D02*
X98900Y-46475D01*
X98875Y-47200D02*
X98875Y-46500D01*
X99250Y-46825D02*
X98900Y-46475D01*
X99250Y-47575D02*
X99250Y-46825D01*
X99450Y-47775D02*
X99250Y-47575D01*
G54D44*
X94175Y-39600D02*
X95600Y-39600D01*
X95600Y-39600D02*
X95650Y-39550D01*
X89400Y-39500D02*
X90800Y-39500D01*
X90800Y-39500D02*
X90900Y-39600D01*
G54D41*
X106375Y-42400D02*
X105725Y-42400D01*
X105800Y-43800D02*
X105725Y-43725D01*
X105725Y-43725D02*
X105725Y-42825D01*
X105800Y-43800D02*
X105500Y-44100D01*
X105500Y-44100D02*
X105500Y-44650D01*
X105725Y-42825D02*
X105725Y-42400D01*
X90550Y-42250D02*
X90550Y-41250D01*
X90550Y-41250D02*
X90850Y-40950D01*
X90550Y-42250D02*
X90550Y-43525D01*
X103000Y-43800D02*
X103000Y-42775D01*
X103000Y-42775D02*
X103375Y-42400D01*
X103500Y-44700D02*
X104025Y-44700D01*
X104025Y-44700D02*
X104350Y-45025D01*
X103000Y-43800D02*
X103050Y-43800D01*
X103500Y-44250D02*
X103500Y-44700D01*
X103050Y-43800D02*
X103500Y-44250D01*
X94800Y-42250D02*
X94800Y-43500D01*
X94800Y-42250D02*
X94800Y-41350D01*
X94800Y-41350D02*
X94700Y-41250D01*
G54D42*
X78700Y-44800D02*
X78700Y-43500D01*
X79700Y-44625D02*
X79700Y-43500D01*
X75100Y-44925D02*
X75100Y-43500D01*
X76125Y-45525D02*
X76125Y-43525D01*
X76125Y-43525D02*
X76100Y-43500D01*
X73100Y-44925D02*
X73100Y-43500D01*
X72100Y-45475D02*
X72100Y-43500D01*
X92575Y-49475D02*
X92575Y-49600D01*
X92250Y-49150D02*
X92575Y-49475D01*
X91400Y-49150D02*
X92250Y-49150D01*
X91325Y-49225D02*
X91400Y-49150D01*
X91325Y-49425D02*
X91325Y-49225D01*
X92650Y-48275D02*
X92650Y-47850D01*
X92650Y-47850D02*
X92400Y-47600D01*
X92650Y-48275D02*
X93300Y-48275D01*
X91650Y-49775D02*
X91825Y-49600D01*
X91100Y-49775D02*
X91650Y-49775D01*
X90975Y-49650D02*
X91100Y-49775D01*
X90975Y-49450D02*
X90975Y-49650D01*
X91000Y-49425D02*
X90975Y-49450D01*
X104875Y-47200D02*
X105150Y-47200D01*
X106700Y-46800D02*
X106300Y-47200D01*
X106300Y-47200D02*
X105150Y-47200D01*
X106700Y-46800D02*
X106700Y-46700D01*
X104875Y-49100D02*
X105025Y-49250D01*
X106150Y-49250D02*
X106700Y-48700D01*
X105025Y-49250D02*
X106150Y-49250D01*
X106700Y-47700D02*
X106700Y-47750D01*
X106250Y-48200D02*
X104875Y-48200D01*
X106700Y-47750D02*
X106250Y-48200D01*
X101750Y-50175D02*
X102175Y-50175D01*
X102250Y-50250D02*
X102525Y-50250D01*
X102175Y-50175D02*
X102250Y-50250D01*
X102425Y-50150D02*
X102525Y-50250D01*
X102575Y-49350D02*
X102575Y-50200D01*
X103600Y-46100D02*
X103550Y-46050D01*
X103550Y-46050D02*
X102950Y-46050D01*
X102950Y-46050D02*
X102575Y-46425D01*
X102575Y-46425D02*
X102575Y-49350D01*
X102575Y-50200D02*
X102525Y-50250D01*
X97287Y-49037D02*
X97550Y-48775D01*
X96875Y-47200D02*
X96850Y-47200D01*
X97550Y-47875D02*
X96875Y-47200D01*
X97550Y-48775D02*
X97550Y-47875D01*
X96975Y-49575D02*
X96975Y-49350D01*
X96975Y-49900D02*
X96975Y-49575D01*
X96975Y-49350D02*
X97287Y-49037D01*
X97287Y-49037D02*
X97300Y-49025D01*
X99150Y-48450D02*
X99450Y-48149D01*
X98575Y-49025D02*
X99150Y-48450D01*
X98575Y-49025D02*
X97300Y-49025D01*
X101200Y-48149D02*
X101600Y-47750D01*
X99450Y-48149D02*
X101200Y-48149D01*
X103275Y-50250D02*
X103600Y-50250D01*
X104125Y-49725D02*
X104125Y-49100D01*
X103600Y-50250D02*
X104125Y-49725D01*
X104125Y-47200D02*
X103825Y-46625D01*
X103825Y-46625D02*
X103750Y-46550D01*
X104125Y-48200D02*
X104125Y-47200D01*
X104125Y-49100D02*
X104125Y-48200D01*
X100450Y-50175D02*
X98500Y-50175D01*
X98500Y-50175D02*
X98250Y-49925D01*
X98850Y-48300D02*
X98150Y-48300D01*
X98125Y-47225D02*
X98150Y-47200D01*
X97600Y-47225D02*
X98125Y-47225D01*
X97525Y-47150D02*
X97600Y-47225D01*
X95450Y-47200D02*
X95450Y-46625D01*
X98150Y-46600D02*
X98150Y-47200D01*
X97925Y-46375D02*
X98150Y-46600D01*
X95700Y-46375D02*
X97925Y-46375D01*
X95450Y-46625D02*
X95700Y-46375D01*
X99400Y-48550D02*
X99600Y-48350D01*
X99400Y-48550D02*
X98650Y-49300D01*
X98650Y-49300D02*
X97950Y-49300D01*
X97950Y-49300D02*
X97725Y-49525D01*
X97725Y-49900D02*
X97725Y-49525D01*
X99600Y-48350D02*
X101500Y-48350D01*
X101700Y-48550D02*
X101500Y-48350D01*
X102200Y-48550D02*
X101700Y-48550D01*
G54D41*
X102100Y-61775D02*
X102100Y-61900D01*
X101550Y-58500D02*
X102100Y-59050D01*
X102100Y-59050D02*
X102100Y-61775D01*
X100925Y-58500D02*
X101550Y-58500D01*
X102350Y-62150D02*
X102700Y-62150D01*
X102100Y-61900D02*
X102350Y-62150D01*
X101025Y-62700D02*
X102100Y-62700D01*
X102250Y-62850D02*
X102700Y-62850D01*
X102100Y-62700D02*
X102250Y-62850D01*
X93800Y-62450D02*
X92775Y-62450D01*
X93850Y-62500D02*
X93800Y-62450D01*
X99550Y-62700D02*
X100275Y-62700D01*
X99050Y-63200D02*
X99550Y-62700D01*
X103500Y-62500D02*
X104830Y-62500D01*
X104830Y-62500D02*
X104940Y-62610D01*
G54D42*
X104830Y-62500D02*
X104940Y-62610D01*
M02*
