G04 (created by PCBNEW (2013-07-07 BZR 4022)-stable) date 16/03/2014 11:18:58*
%MOIN*%
G04 Gerber Fmt 3.4, Leading zero omitted, Abs format*
%FSLAX34Y34*%
G01*
G70*
G90*
G04 APERTURE LIST*
%ADD10C,0.006*%
%ADD11C,0.005*%
%ADD12C,0.0039*%
%ADD13C,0.0047*%
%ADD14C,0.0075*%
%ADD15C,0.008*%
%ADD16C,0.0043*%
%ADD17C,0.0051*%
G04 APERTURE END LIST*
G54D10*
G54D11*
X102950Y-61900D02*
X102950Y-63100D01*
X102950Y-63100D02*
X103250Y-63100D01*
X103250Y-63100D02*
X103250Y-61900D01*
X103250Y-61900D02*
X102950Y-61900D01*
G54D12*
X100050Y-62400D02*
G75*
G03X100050Y-62400I-50J0D01*
G74*
G01*
X100450Y-62400D02*
X100050Y-62400D01*
X100050Y-62400D02*
X100050Y-63000D01*
X100050Y-63000D02*
X100450Y-63000D01*
X100850Y-63000D02*
X101250Y-63000D01*
X101250Y-63000D02*
X101250Y-62400D01*
X101250Y-62400D02*
X100850Y-62400D01*
X91800Y-62150D02*
G75*
G03X91800Y-62150I-50J0D01*
G74*
G01*
X92200Y-62150D02*
X91800Y-62150D01*
X91800Y-62150D02*
X91800Y-62750D01*
X91800Y-62750D02*
X92200Y-62750D01*
X92600Y-62750D02*
X93000Y-62750D01*
X93000Y-62750D02*
X93000Y-62150D01*
X93000Y-62150D02*
X92600Y-62150D01*
X101250Y-58800D02*
G75*
G03X101250Y-58800I-50J0D01*
G74*
G01*
X100750Y-58800D02*
X101150Y-58800D01*
X101150Y-58800D02*
X101150Y-58200D01*
X101150Y-58200D02*
X100750Y-58200D01*
X100350Y-58200D02*
X99950Y-58200D01*
X99950Y-58200D02*
X99950Y-58800D01*
X99950Y-58800D02*
X100350Y-58800D01*
G54D10*
X109325Y-48100D02*
X110125Y-48100D01*
X110125Y-48100D02*
X110125Y-48600D01*
X110125Y-48600D02*
X109325Y-48600D01*
X109325Y-48600D02*
X109325Y-48100D01*
G54D11*
X98500Y-46750D02*
X98500Y-47650D01*
X98500Y-47650D02*
X97850Y-47650D01*
X97150Y-46750D02*
X96500Y-46750D01*
X96500Y-46750D02*
X96500Y-47650D01*
X96500Y-47650D02*
X97150Y-47650D01*
X97850Y-46750D02*
X98500Y-46750D01*
X93800Y-47650D02*
X93800Y-46750D01*
X93800Y-46750D02*
X94450Y-46750D01*
X95150Y-47650D02*
X95800Y-47650D01*
X95800Y-47650D02*
X95800Y-46750D01*
X95800Y-46750D02*
X95150Y-46750D01*
X94450Y-47650D02*
X93800Y-47650D01*
X100100Y-50625D02*
X100100Y-49725D01*
X100100Y-49725D02*
X100750Y-49725D01*
X101450Y-50625D02*
X102100Y-50625D01*
X102100Y-50625D02*
X102100Y-49725D01*
X102100Y-49725D02*
X101450Y-49725D01*
X100750Y-50625D02*
X100100Y-50625D01*
X96500Y-48750D02*
X96500Y-47850D01*
X96500Y-47850D02*
X97150Y-47850D01*
X97850Y-48750D02*
X98500Y-48750D01*
X98500Y-48750D02*
X98500Y-47850D01*
X98500Y-47850D02*
X97850Y-47850D01*
X97150Y-48750D02*
X96500Y-48750D01*
G54D12*
X89875Y-54725D02*
G75*
G03X89875Y-54725I-50J0D01*
G74*
G01*
X89825Y-55175D02*
X89825Y-54775D01*
X89825Y-54775D02*
X89225Y-54775D01*
X89225Y-54775D02*
X89225Y-55175D01*
X89225Y-55575D02*
X89225Y-55975D01*
X89225Y-55975D02*
X89825Y-55975D01*
X89825Y-55975D02*
X89825Y-55575D01*
X94375Y-48575D02*
G75*
G03X94375Y-48575I-50J0D01*
G74*
G01*
X93875Y-48575D02*
X94275Y-48575D01*
X94275Y-48575D02*
X94275Y-47975D01*
X94275Y-47975D02*
X93875Y-47975D01*
X93475Y-47975D02*
X93075Y-47975D01*
X93075Y-47975D02*
X93075Y-48575D01*
X93075Y-48575D02*
X93475Y-48575D01*
X91575Y-48575D02*
G75*
G03X91575Y-48575I-50J0D01*
G74*
G01*
X91075Y-48575D02*
X91475Y-48575D01*
X91475Y-48575D02*
X91475Y-47975D01*
X91475Y-47975D02*
X91075Y-47975D01*
X90675Y-47975D02*
X90275Y-47975D01*
X90275Y-47975D02*
X90275Y-48575D01*
X90275Y-48575D02*
X90675Y-48575D01*
X103200Y-48600D02*
G75*
G03X103200Y-48600I-50J0D01*
G74*
G01*
X103150Y-48150D02*
X103150Y-48550D01*
X103150Y-48550D02*
X103750Y-48550D01*
X103750Y-48550D02*
X103750Y-48150D01*
X103750Y-47750D02*
X103750Y-47350D01*
X103750Y-47350D02*
X103150Y-47350D01*
X103150Y-47350D02*
X103150Y-47750D01*
X101550Y-45700D02*
G75*
G03X101550Y-45700I-50J0D01*
G74*
G01*
X101500Y-46150D02*
X101500Y-45750D01*
X101500Y-45750D02*
X100900Y-45750D01*
X100900Y-45750D02*
X100900Y-46150D01*
X100900Y-46550D02*
X100900Y-46950D01*
X100900Y-46950D02*
X101500Y-46950D01*
X101500Y-46950D02*
X101500Y-46550D01*
X109125Y-46800D02*
G75*
G03X109125Y-46800I-50J0D01*
G74*
G01*
X109525Y-46800D02*
X109125Y-46800D01*
X109125Y-46800D02*
X109125Y-47400D01*
X109125Y-47400D02*
X109525Y-47400D01*
X109925Y-47400D02*
X110325Y-47400D01*
X110325Y-47400D02*
X110325Y-46800D01*
X110325Y-46800D02*
X109925Y-46800D01*
X105200Y-49400D02*
G75*
G03X105200Y-49400I-50J0D01*
G74*
G01*
X104700Y-49400D02*
X105100Y-49400D01*
X105100Y-49400D02*
X105100Y-48800D01*
X105100Y-48800D02*
X104700Y-48800D01*
X104300Y-48800D02*
X103900Y-48800D01*
X103900Y-48800D02*
X103900Y-49400D01*
X103900Y-49400D02*
X104300Y-49400D01*
X105200Y-48500D02*
G75*
G03X105200Y-48500I-50J0D01*
G74*
G01*
X104700Y-48500D02*
X105100Y-48500D01*
X105100Y-48500D02*
X105100Y-47900D01*
X105100Y-47900D02*
X104700Y-47900D01*
X104300Y-47900D02*
X103900Y-47900D01*
X103900Y-47900D02*
X103900Y-48500D01*
X103900Y-48500D02*
X104300Y-48500D01*
X103600Y-50550D02*
G75*
G03X103600Y-50550I-50J0D01*
G74*
G01*
X103100Y-50550D02*
X103500Y-50550D01*
X103500Y-50550D02*
X103500Y-49950D01*
X103500Y-49950D02*
X103100Y-49950D01*
X102700Y-49950D02*
X102300Y-49950D01*
X102300Y-49950D02*
X102300Y-50550D01*
X102300Y-50550D02*
X102700Y-50550D01*
X105200Y-47500D02*
G75*
G03X105200Y-47500I-50J0D01*
G74*
G01*
X104700Y-47500D02*
X105100Y-47500D01*
X105100Y-47500D02*
X105100Y-46900D01*
X105100Y-46900D02*
X104700Y-46900D01*
X104300Y-46900D02*
X103900Y-46900D01*
X103900Y-46900D02*
X103900Y-47500D01*
X103900Y-47500D02*
X104300Y-47500D01*
X96750Y-49600D02*
G75*
G03X96750Y-49600I-50J0D01*
G74*
G01*
X97150Y-49600D02*
X96750Y-49600D01*
X96750Y-49600D02*
X96750Y-50200D01*
X96750Y-50200D02*
X97150Y-50200D01*
X97550Y-50200D02*
X97950Y-50200D01*
X97950Y-50200D02*
X97950Y-49600D01*
X97950Y-49600D02*
X97550Y-49600D01*
X93950Y-46400D02*
G75*
G03X93950Y-46400I-50J0D01*
G74*
G01*
X93450Y-46400D02*
X93850Y-46400D01*
X93850Y-46400D02*
X93850Y-45800D01*
X93850Y-45800D02*
X93450Y-45800D01*
X93050Y-45800D02*
X92650Y-45800D01*
X92650Y-45800D02*
X92650Y-46400D01*
X92650Y-46400D02*
X93050Y-46400D01*
X78725Y-56825D02*
G75*
G03X78725Y-56825I-50J0D01*
G74*
G01*
X78225Y-56825D02*
X78625Y-56825D01*
X78625Y-56825D02*
X78625Y-56225D01*
X78625Y-56225D02*
X78225Y-56225D01*
X77825Y-56225D02*
X77425Y-56225D01*
X77425Y-56225D02*
X77425Y-56825D01*
X77425Y-56825D02*
X77825Y-56825D01*
G54D13*
X99500Y-45925D02*
X98300Y-45925D01*
X98300Y-45925D02*
X98300Y-46225D01*
X98300Y-46225D02*
X99500Y-46225D01*
X99500Y-46225D02*
X99500Y-45925D01*
G54D11*
X110170Y-54150D02*
G75*
G03X110170Y-54150I-70J0D01*
G74*
G01*
X110150Y-52250D02*
X110150Y-51600D01*
X110150Y-51600D02*
X111750Y-51600D01*
X111750Y-51600D02*
X111750Y-52250D01*
X111750Y-53450D02*
X111750Y-54100D01*
X111750Y-54100D02*
X110150Y-54100D01*
X110150Y-54100D02*
X110150Y-53450D01*
G54D12*
X102675Y-53050D02*
G75*
G03X102675Y-53050I-50J0D01*
G74*
G01*
X102625Y-52600D02*
X102625Y-53000D01*
X102625Y-53000D02*
X103225Y-53000D01*
X103225Y-53000D02*
X103225Y-52600D01*
X103225Y-52200D02*
X103225Y-51800D01*
X103225Y-51800D02*
X102625Y-51800D01*
X102625Y-51800D02*
X102625Y-52200D01*
X90325Y-52550D02*
G75*
G03X90325Y-52550I-50J0D01*
G74*
G01*
X90275Y-52100D02*
X90275Y-52500D01*
X90275Y-52500D02*
X90875Y-52500D01*
X90875Y-52500D02*
X90875Y-52100D01*
X90875Y-51700D02*
X90875Y-51300D01*
X90875Y-51300D02*
X90275Y-51300D01*
X90275Y-51300D02*
X90275Y-51700D01*
G54D11*
X57470Y-53450D02*
G75*
G03X57470Y-53450I-70J0D01*
G74*
G01*
X57450Y-51550D02*
X57450Y-50900D01*
X57450Y-50900D02*
X59050Y-50900D01*
X59050Y-50900D02*
X59050Y-51550D01*
X59050Y-52750D02*
X59050Y-53400D01*
X59050Y-53400D02*
X57450Y-53400D01*
X57450Y-53400D02*
X57450Y-52750D01*
X57320Y-60250D02*
G75*
G03X57320Y-60250I-70J0D01*
G74*
G01*
X59150Y-60300D02*
X59800Y-60300D01*
X59800Y-60300D02*
X59800Y-61900D01*
X59800Y-61900D02*
X59150Y-61900D01*
X57950Y-61900D02*
X57300Y-61900D01*
X57300Y-61900D02*
X57300Y-60300D01*
X57300Y-60300D02*
X57950Y-60300D01*
X60370Y-58500D02*
G75*
G03X60370Y-58500I-70J0D01*
G74*
G01*
X60350Y-56600D02*
X60350Y-55950D01*
X60350Y-55950D02*
X61950Y-55950D01*
X61950Y-55950D02*
X61950Y-56600D01*
X61950Y-57800D02*
X61950Y-58450D01*
X61950Y-58450D02*
X60350Y-58450D01*
X60350Y-58450D02*
X60350Y-57800D01*
X53520Y-39475D02*
G75*
G03X53520Y-39475I-70J0D01*
G74*
G01*
X55350Y-39525D02*
X56000Y-39525D01*
X56000Y-39525D02*
X56000Y-41125D01*
X56000Y-41125D02*
X55350Y-41125D01*
X54150Y-41125D02*
X53500Y-41125D01*
X53500Y-41125D02*
X53500Y-39525D01*
X53500Y-39525D02*
X54150Y-39525D01*
X61300Y-53650D02*
X60100Y-53650D01*
X60100Y-52200D02*
X60100Y-51450D01*
X60100Y-51450D02*
X61300Y-51450D01*
X61300Y-51450D02*
X61300Y-52200D01*
X61300Y-52850D02*
X61300Y-53650D01*
X61300Y-53571D02*
X60100Y-53571D01*
X60100Y-53650D02*
X60100Y-52850D01*
G54D12*
X108950Y-42350D02*
G75*
G03X108950Y-42350I-50J0D01*
G74*
G01*
X108900Y-42800D02*
X108900Y-42400D01*
X108900Y-42400D02*
X108300Y-42400D01*
X108300Y-42400D02*
X108300Y-42800D01*
X108300Y-43200D02*
X108300Y-43600D01*
X108300Y-43600D02*
X108900Y-43600D01*
X108900Y-43600D02*
X108900Y-43200D01*
X106050Y-42700D02*
G75*
G03X106050Y-42700I-50J0D01*
G74*
G01*
X105550Y-42700D02*
X105950Y-42700D01*
X105950Y-42700D02*
X105950Y-42100D01*
X105950Y-42100D02*
X105550Y-42100D01*
X105150Y-42100D02*
X104750Y-42100D01*
X104750Y-42100D02*
X104750Y-42700D01*
X104750Y-42700D02*
X105150Y-42700D01*
X107450Y-42700D02*
G75*
G03X107450Y-42700I-50J0D01*
G74*
G01*
X106950Y-42700D02*
X107350Y-42700D01*
X107350Y-42700D02*
X107350Y-42100D01*
X107350Y-42100D02*
X106950Y-42100D01*
X106550Y-42100D02*
X106150Y-42100D01*
X106150Y-42100D02*
X106150Y-42700D01*
X106150Y-42700D02*
X106550Y-42700D01*
X96150Y-43225D02*
G75*
G03X96150Y-43225I-50J0D01*
G74*
G01*
X96100Y-43675D02*
X96100Y-43275D01*
X96100Y-43275D02*
X95500Y-43275D01*
X95500Y-43275D02*
X95500Y-43675D01*
X95500Y-44075D02*
X95500Y-44475D01*
X95500Y-44475D02*
X96100Y-44475D01*
X96100Y-44475D02*
X96100Y-44075D01*
X102050Y-45100D02*
G75*
G03X102050Y-45100I-50J0D01*
G74*
G01*
X101550Y-45100D02*
X101950Y-45100D01*
X101950Y-45100D02*
X101950Y-44500D01*
X101950Y-44500D02*
X101550Y-44500D01*
X101150Y-44500D02*
X100750Y-44500D01*
X100750Y-44500D02*
X100750Y-45100D01*
X100750Y-45100D02*
X101150Y-45100D01*
X89300Y-44550D02*
G75*
G03X89300Y-44550I-50J0D01*
G74*
G01*
X89250Y-44100D02*
X89250Y-44500D01*
X89250Y-44500D02*
X89850Y-44500D01*
X89850Y-44500D02*
X89850Y-44100D01*
X89850Y-43700D02*
X89850Y-43300D01*
X89850Y-43300D02*
X89250Y-43300D01*
X89250Y-43300D02*
X89250Y-43700D01*
X97125Y-43225D02*
G75*
G03X97125Y-43225I-50J0D01*
G74*
G01*
X97075Y-43675D02*
X97075Y-43275D01*
X97075Y-43275D02*
X96475Y-43275D01*
X96475Y-43275D02*
X96475Y-43675D01*
X96475Y-44075D02*
X96475Y-44475D01*
X96475Y-44475D02*
X97075Y-44475D01*
X97075Y-44475D02*
X97075Y-44075D01*
X100200Y-43000D02*
G75*
G03X100200Y-43000I-50J0D01*
G74*
G01*
X100150Y-43450D02*
X100150Y-43050D01*
X100150Y-43050D02*
X99550Y-43050D01*
X99550Y-43050D02*
X99550Y-43450D01*
X99550Y-43850D02*
X99550Y-44250D01*
X99550Y-44250D02*
X100150Y-44250D01*
X100150Y-44250D02*
X100150Y-43850D01*
X104450Y-42700D02*
G75*
G03X104450Y-42700I-50J0D01*
G74*
G01*
X103950Y-42700D02*
X104350Y-42700D01*
X104350Y-42700D02*
X104350Y-42100D01*
X104350Y-42100D02*
X103950Y-42100D01*
X103550Y-42100D02*
X103150Y-42100D01*
X103150Y-42100D02*
X103150Y-42700D01*
X103150Y-42700D02*
X103550Y-42700D01*
X68875Y-41450D02*
G75*
G03X68875Y-41450I-50J0D01*
G74*
G01*
X68375Y-41450D02*
X68775Y-41450D01*
X68775Y-41450D02*
X68775Y-40850D01*
X68775Y-40850D02*
X68375Y-40850D01*
X67975Y-40850D02*
X67575Y-40850D01*
X67575Y-40850D02*
X67575Y-41450D01*
X67575Y-41450D02*
X67975Y-41450D01*
X66975Y-41450D02*
G75*
G03X66975Y-41450I-50J0D01*
G74*
G01*
X66475Y-41450D02*
X66875Y-41450D01*
X66875Y-41450D02*
X66875Y-40850D01*
X66875Y-40850D02*
X66475Y-40850D01*
X66075Y-40850D02*
X65675Y-40850D01*
X65675Y-40850D02*
X65675Y-41450D01*
X65675Y-41450D02*
X66075Y-41450D01*
X65675Y-40000D02*
G75*
G03X65675Y-40000I-50J0D01*
G74*
G01*
X66075Y-40000D02*
X65675Y-40000D01*
X65675Y-40000D02*
X65675Y-40600D01*
X65675Y-40600D02*
X66075Y-40600D01*
X66475Y-40600D02*
X66875Y-40600D01*
X66875Y-40600D02*
X66875Y-40000D01*
X66875Y-40000D02*
X66475Y-40000D01*
X67575Y-40000D02*
G75*
G03X67575Y-40000I-50J0D01*
G74*
G01*
X67975Y-40000D02*
X67575Y-40000D01*
X67575Y-40000D02*
X67575Y-40600D01*
X67575Y-40600D02*
X67975Y-40600D01*
X68375Y-40600D02*
X68775Y-40600D01*
X68775Y-40600D02*
X68775Y-40000D01*
X68775Y-40000D02*
X68375Y-40000D01*
X88300Y-44550D02*
G75*
G03X88300Y-44550I-50J0D01*
G74*
G01*
X88250Y-44100D02*
X88250Y-44500D01*
X88250Y-44500D02*
X88850Y-44500D01*
X88850Y-44500D02*
X88850Y-44100D01*
X88850Y-43700D02*
X88850Y-43300D01*
X88850Y-43300D02*
X88250Y-43300D01*
X88250Y-43300D02*
X88250Y-43700D01*
X104100Y-45300D02*
G75*
G03X104100Y-45300I-50J0D01*
G74*
G01*
X104050Y-44850D02*
X104050Y-45250D01*
X104050Y-45250D02*
X104650Y-45250D01*
X104650Y-45250D02*
X104650Y-44850D01*
X104650Y-44450D02*
X104650Y-44050D01*
X104650Y-44050D02*
X104050Y-44050D01*
X104050Y-44050D02*
X104050Y-44450D01*
X95150Y-43225D02*
G75*
G03X95150Y-43225I-50J0D01*
G74*
G01*
X95100Y-43675D02*
X95100Y-43275D01*
X95100Y-43275D02*
X94500Y-43275D01*
X94500Y-43275D02*
X94500Y-43675D01*
X94500Y-44075D02*
X94500Y-44475D01*
X94500Y-44475D02*
X95100Y-44475D01*
X95100Y-44475D02*
X95100Y-44075D01*
X90300Y-44550D02*
G75*
G03X90300Y-44550I-50J0D01*
G74*
G01*
X90250Y-44100D02*
X90250Y-44500D01*
X90250Y-44500D02*
X90850Y-44500D01*
X90850Y-44500D02*
X90850Y-44100D01*
X90850Y-43700D02*
X90850Y-43300D01*
X90850Y-43300D02*
X90250Y-43300D01*
X90250Y-43300D02*
X90250Y-43700D01*
G54D11*
X90300Y-40350D02*
X90300Y-41550D01*
X90300Y-41550D02*
X90600Y-41550D01*
X90600Y-41550D02*
X90600Y-40350D01*
X90600Y-40350D02*
X90300Y-40350D01*
X106450Y-44900D02*
X105250Y-44900D01*
X105250Y-44900D02*
X105250Y-45200D01*
X105250Y-45200D02*
X106450Y-45200D01*
X106450Y-45200D02*
X106450Y-44900D01*
X103250Y-45650D02*
X103250Y-44450D01*
X103250Y-44450D02*
X102950Y-44450D01*
X102950Y-44450D02*
X102950Y-45650D01*
X102950Y-45650D02*
X103250Y-45650D01*
X94950Y-40300D02*
X94950Y-41500D01*
X94950Y-41500D02*
X95250Y-41500D01*
X95250Y-41500D02*
X95250Y-40300D01*
X95250Y-40300D02*
X94950Y-40300D01*
X97400Y-40750D02*
X96200Y-40750D01*
X96200Y-40750D02*
X96200Y-41050D01*
X96200Y-41050D02*
X97400Y-41050D01*
X97400Y-41050D02*
X97400Y-40750D01*
X100400Y-43150D02*
X100400Y-41950D01*
X100400Y-41950D02*
X100100Y-41950D01*
X100100Y-41950D02*
X100100Y-43150D01*
X100100Y-43150D02*
X100400Y-43150D01*
X88500Y-41550D02*
X88500Y-40350D01*
X88500Y-40350D02*
X88200Y-40350D01*
X88200Y-40350D02*
X88200Y-41550D01*
X88200Y-41550D02*
X88500Y-41550D01*
X108100Y-44900D02*
X106900Y-44900D01*
X106900Y-44900D02*
X106900Y-45200D01*
X106900Y-45200D02*
X108100Y-45200D01*
X108100Y-45200D02*
X108100Y-44900D01*
G54D12*
X113100Y-56200D02*
G75*
G03X113100Y-56200I-50J0D01*
G74*
G01*
X112600Y-56200D02*
X113000Y-56200D01*
X113000Y-56200D02*
X113000Y-55600D01*
X113000Y-55600D02*
X112600Y-55600D01*
X112200Y-55600D02*
X111800Y-55600D01*
X111800Y-55600D02*
X111800Y-56200D01*
X111800Y-56200D02*
X112200Y-56200D01*
X93825Y-54625D02*
G75*
G03X93825Y-54625I-50J0D01*
G74*
G01*
X93775Y-55075D02*
X93775Y-54675D01*
X93775Y-54675D02*
X93175Y-54675D01*
X93175Y-54675D02*
X93175Y-55075D01*
X93175Y-55475D02*
X93175Y-55875D01*
X93175Y-55875D02*
X93775Y-55875D01*
X93775Y-55875D02*
X93775Y-55475D01*
X92975Y-48575D02*
G75*
G03X92975Y-48575I-50J0D01*
G74*
G01*
X92475Y-48575D02*
X92875Y-48575D01*
X92875Y-48575D02*
X92875Y-47975D01*
X92875Y-47975D02*
X92475Y-47975D01*
X92075Y-47975D02*
X91675Y-47975D01*
X91675Y-47975D02*
X91675Y-48575D01*
X91675Y-48575D02*
X92075Y-48575D01*
X79450Y-45650D02*
G75*
G03X79450Y-45650I-50J0D01*
G74*
G01*
X79400Y-45200D02*
X79400Y-45600D01*
X79400Y-45600D02*
X80000Y-45600D01*
X80000Y-45600D02*
X80000Y-45200D01*
X80000Y-44800D02*
X80000Y-44400D01*
X80000Y-44400D02*
X79400Y-44400D01*
X79400Y-44400D02*
X79400Y-44800D01*
X74850Y-45950D02*
G75*
G03X74850Y-45950I-50J0D01*
G74*
G01*
X74800Y-45500D02*
X74800Y-45900D01*
X74800Y-45900D02*
X75400Y-45900D01*
X75400Y-45900D02*
X75400Y-45500D01*
X75400Y-45100D02*
X75400Y-44700D01*
X75400Y-44700D02*
X74800Y-44700D01*
X74800Y-44700D02*
X74800Y-45100D01*
X71850Y-46500D02*
G75*
G03X71850Y-46500I-50J0D01*
G74*
G01*
X71800Y-46050D02*
X71800Y-46450D01*
X71800Y-46450D02*
X72400Y-46450D01*
X72400Y-46450D02*
X72400Y-46050D01*
X72400Y-45650D02*
X72400Y-45250D01*
X72400Y-45250D02*
X71800Y-45250D01*
X71800Y-45250D02*
X71800Y-45650D01*
X72850Y-45950D02*
G75*
G03X72850Y-45950I-50J0D01*
G74*
G01*
X72800Y-45500D02*
X72800Y-45900D01*
X72800Y-45900D02*
X73400Y-45900D01*
X73400Y-45900D02*
X73400Y-45500D01*
X73400Y-45100D02*
X73400Y-44700D01*
X73400Y-44700D02*
X72800Y-44700D01*
X72800Y-44700D02*
X72800Y-45100D01*
X78450Y-45825D02*
G75*
G03X78450Y-45825I-50J0D01*
G74*
G01*
X78400Y-45375D02*
X78400Y-45775D01*
X78400Y-45775D02*
X79000Y-45775D01*
X79000Y-45775D02*
X79000Y-45375D01*
X79000Y-44975D02*
X79000Y-44575D01*
X79000Y-44575D02*
X78400Y-44575D01*
X78400Y-44575D02*
X78400Y-44975D01*
X75875Y-46550D02*
G75*
G03X75875Y-46550I-50J0D01*
G74*
G01*
X75825Y-46100D02*
X75825Y-46500D01*
X75825Y-46500D02*
X76425Y-46500D01*
X76425Y-46500D02*
X76425Y-46100D01*
X76425Y-45700D02*
X76425Y-45300D01*
X76425Y-45300D02*
X75825Y-45300D01*
X75825Y-45300D02*
X75825Y-45700D01*
X109900Y-45100D02*
G75*
G03X109900Y-45100I-50J0D01*
G74*
G01*
X109850Y-44650D02*
X109850Y-45050D01*
X109850Y-45050D02*
X110450Y-45050D01*
X110450Y-45050D02*
X110450Y-44650D01*
X110450Y-44250D02*
X110450Y-43850D01*
X110450Y-43850D02*
X109850Y-43850D01*
X109850Y-43850D02*
X109850Y-44250D01*
G54D11*
X112220Y-38925D02*
G75*
G03X112220Y-38925I-70J0D01*
G74*
G01*
X111000Y-39575D02*
X111000Y-38975D01*
X111000Y-38975D02*
X112100Y-38975D01*
X112100Y-38975D02*
X112100Y-39575D01*
X112100Y-40175D02*
X112100Y-40775D01*
X112100Y-40775D02*
X111000Y-40775D01*
X111000Y-40775D02*
X111000Y-40175D01*
X112020Y-43450D02*
G75*
G03X112020Y-43450I-70J0D01*
G74*
G01*
X111300Y-42300D02*
X111900Y-42300D01*
X111900Y-42300D02*
X111900Y-43400D01*
X111900Y-43400D02*
X111300Y-43400D01*
X110700Y-43400D02*
X110100Y-43400D01*
X110100Y-43400D02*
X110100Y-42300D01*
X110100Y-42300D02*
X110700Y-42300D01*
X112045Y-42150D02*
G75*
G03X112045Y-42150I-70J0D01*
G74*
G01*
X111325Y-41000D02*
X111925Y-41000D01*
X111925Y-41000D02*
X111925Y-42100D01*
X111925Y-42100D02*
X111325Y-42100D01*
X110725Y-42100D02*
X110125Y-42100D01*
X110125Y-42100D02*
X110125Y-41000D01*
X110125Y-41000D02*
X110725Y-41000D01*
X110695Y-45425D02*
G75*
G03X110695Y-45425I-70J0D01*
G74*
G01*
X111775Y-44775D02*
X111775Y-45375D01*
X111775Y-45375D02*
X110675Y-45375D01*
X110675Y-45375D02*
X110675Y-44775D01*
X110675Y-44175D02*
X110675Y-43575D01*
X110675Y-43575D02*
X111775Y-43575D01*
X111775Y-43575D02*
X111775Y-44175D01*
G54D14*
X102300Y-62471D02*
X102285Y-62442D01*
X102257Y-62414D01*
X102214Y-62371D01*
X102200Y-62342D01*
X102200Y-62314D01*
X102271Y-62328D02*
X102257Y-62300D01*
X102228Y-62271D01*
X102171Y-62257D01*
X102071Y-62257D01*
X102014Y-62271D01*
X101985Y-62300D01*
X101971Y-62328D01*
X101971Y-62385D01*
X101985Y-62414D01*
X102014Y-62442D01*
X102071Y-62457D01*
X102171Y-62457D01*
X102228Y-62442D01*
X102257Y-62414D01*
X102271Y-62385D01*
X102271Y-62328D01*
X102271Y-62742D02*
X102271Y-62571D01*
X102271Y-62657D02*
X101971Y-62657D01*
X102014Y-62628D01*
X102042Y-62600D01*
X102057Y-62571D01*
G54D15*
G54D16*
X100682Y-62904D02*
X100748Y-62810D01*
X100795Y-62904D02*
X100795Y-62707D01*
X100720Y-62707D01*
X100701Y-62717D01*
X100692Y-62726D01*
X100682Y-62745D01*
X100682Y-62773D01*
X100692Y-62792D01*
X100701Y-62801D01*
X100720Y-62810D01*
X100795Y-62810D01*
X100513Y-62773D02*
X100513Y-62904D01*
X100560Y-62698D02*
X100607Y-62839D01*
X100485Y-62839D01*
X100781Y-62629D02*
X100893Y-62629D01*
X100837Y-62629D02*
X100837Y-62432D01*
X100856Y-62460D01*
X100875Y-62479D01*
X100893Y-62489D01*
X100659Y-62432D02*
X100640Y-62432D01*
X100621Y-62442D01*
X100612Y-62451D01*
X100603Y-62470D01*
X100593Y-62507D01*
X100593Y-62554D01*
X100603Y-62592D01*
X100612Y-62610D01*
X100621Y-62620D01*
X100640Y-62629D01*
X100659Y-62629D01*
X100678Y-62620D01*
X100687Y-62610D01*
X100696Y-62592D01*
X100706Y-62554D01*
X100706Y-62507D01*
X100696Y-62470D01*
X100687Y-62451D01*
X100678Y-62442D01*
X100659Y-62432D01*
X100471Y-62432D02*
X100453Y-62432D01*
X100434Y-62442D01*
X100424Y-62451D01*
X100415Y-62470D01*
X100406Y-62507D01*
X100406Y-62554D01*
X100415Y-62592D01*
X100424Y-62610D01*
X100434Y-62620D01*
X100453Y-62629D01*
X100471Y-62629D01*
X100490Y-62620D01*
X100499Y-62610D01*
X100509Y-62592D01*
X100518Y-62554D01*
X100518Y-62507D01*
X100509Y-62470D01*
X100499Y-62451D01*
X100490Y-62442D01*
X100471Y-62432D01*
X92432Y-62654D02*
X92498Y-62560D01*
X92545Y-62654D02*
X92545Y-62457D01*
X92470Y-62457D01*
X92451Y-62467D01*
X92442Y-62476D01*
X92432Y-62495D01*
X92432Y-62523D01*
X92442Y-62542D01*
X92451Y-62551D01*
X92470Y-62560D01*
X92545Y-62560D01*
X92245Y-62654D02*
X92357Y-62654D01*
X92301Y-62654D02*
X92301Y-62457D01*
X92320Y-62485D01*
X92339Y-62504D01*
X92357Y-62514D01*
X92540Y-62182D02*
X92634Y-62182D01*
X92643Y-62276D01*
X92634Y-62267D01*
X92615Y-62257D01*
X92568Y-62257D01*
X92550Y-62267D01*
X92540Y-62276D01*
X92531Y-62295D01*
X92531Y-62342D01*
X92540Y-62360D01*
X92550Y-62370D01*
X92568Y-62379D01*
X92615Y-62379D01*
X92634Y-62370D01*
X92643Y-62360D01*
X92409Y-62182D02*
X92390Y-62182D01*
X92371Y-62192D01*
X92362Y-62201D01*
X92353Y-62220D01*
X92343Y-62257D01*
X92343Y-62304D01*
X92353Y-62342D01*
X92362Y-62360D01*
X92371Y-62370D01*
X92390Y-62379D01*
X92409Y-62379D01*
X92428Y-62370D01*
X92437Y-62360D01*
X92446Y-62342D01*
X92456Y-62304D01*
X92456Y-62257D01*
X92446Y-62220D01*
X92437Y-62201D01*
X92428Y-62192D01*
X92409Y-62182D01*
X92221Y-62182D02*
X92203Y-62182D01*
X92184Y-62192D01*
X92174Y-62201D01*
X92165Y-62220D01*
X92156Y-62257D01*
X92156Y-62304D01*
X92165Y-62342D01*
X92174Y-62360D01*
X92184Y-62370D01*
X92203Y-62379D01*
X92221Y-62379D01*
X92240Y-62370D01*
X92249Y-62360D01*
X92259Y-62342D01*
X92268Y-62304D01*
X92268Y-62257D01*
X92259Y-62220D01*
X92249Y-62201D01*
X92240Y-62192D01*
X92221Y-62182D01*
X100582Y-58454D02*
X100648Y-58360D01*
X100695Y-58454D02*
X100695Y-58257D01*
X100620Y-58257D01*
X100601Y-58267D01*
X100592Y-58276D01*
X100582Y-58295D01*
X100582Y-58323D01*
X100592Y-58342D01*
X100601Y-58351D01*
X100620Y-58360D01*
X100695Y-58360D01*
X100413Y-58257D02*
X100451Y-58257D01*
X100470Y-58267D01*
X100479Y-58276D01*
X100498Y-58304D01*
X100507Y-58342D01*
X100507Y-58417D01*
X100498Y-58435D01*
X100489Y-58445D01*
X100470Y-58454D01*
X100432Y-58454D01*
X100413Y-58445D01*
X100404Y-58435D01*
X100395Y-58417D01*
X100395Y-58370D01*
X100404Y-58351D01*
X100413Y-58342D01*
X100432Y-58332D01*
X100470Y-58332D01*
X100489Y-58342D01*
X100498Y-58351D01*
X100507Y-58370D01*
X100559Y-58532D02*
X100540Y-58532D01*
X100521Y-58542D01*
X100512Y-58551D01*
X100503Y-58570D01*
X100493Y-58607D01*
X100493Y-58654D01*
X100503Y-58692D01*
X100512Y-58710D01*
X100521Y-58720D01*
X100540Y-58729D01*
X100559Y-58729D01*
X100578Y-58720D01*
X100587Y-58710D01*
X100596Y-58692D01*
X100606Y-58654D01*
X100606Y-58607D01*
X100596Y-58570D01*
X100587Y-58551D01*
X100578Y-58542D01*
X100559Y-58532D01*
G54D11*
X109915Y-48132D02*
X109915Y-48375D01*
X109903Y-48403D01*
X109891Y-48418D01*
X109867Y-48432D01*
X109820Y-48432D01*
X109796Y-48418D01*
X109784Y-48403D01*
X109772Y-48375D01*
X109772Y-48132D01*
X109677Y-48132D02*
X109522Y-48132D01*
X109605Y-48246D01*
X109570Y-48246D01*
X109546Y-48261D01*
X109534Y-48275D01*
X109522Y-48303D01*
X109522Y-48375D01*
X109534Y-48403D01*
X109546Y-48418D01*
X109570Y-48432D01*
X109641Y-48432D01*
X109665Y-48418D01*
X109677Y-48403D01*
X97550Y-47321D02*
X97650Y-47178D01*
X97721Y-47321D02*
X97721Y-47021D01*
X97607Y-47021D01*
X97578Y-47035D01*
X97564Y-47050D01*
X97550Y-47078D01*
X97550Y-47121D01*
X97564Y-47150D01*
X97578Y-47164D01*
X97607Y-47178D01*
X97721Y-47178D01*
X97407Y-47321D02*
X97350Y-47321D01*
X97321Y-47307D01*
X97307Y-47292D01*
X97278Y-47250D01*
X97264Y-47192D01*
X97264Y-47078D01*
X97278Y-47050D01*
X97292Y-47035D01*
X97321Y-47021D01*
X97378Y-47021D01*
X97407Y-47035D01*
X97421Y-47050D01*
X97435Y-47078D01*
X97435Y-47150D01*
X97421Y-47178D01*
X97407Y-47192D01*
X97378Y-47207D01*
X97321Y-47207D01*
X97292Y-47192D01*
X97278Y-47178D01*
X97264Y-47150D01*
X94850Y-47321D02*
X94950Y-47178D01*
X95021Y-47321D02*
X95021Y-47021D01*
X94907Y-47021D01*
X94878Y-47035D01*
X94864Y-47050D01*
X94850Y-47078D01*
X94850Y-47121D01*
X94864Y-47150D01*
X94878Y-47164D01*
X94907Y-47178D01*
X95021Y-47178D01*
X94750Y-47021D02*
X94550Y-47021D01*
X94678Y-47321D01*
X101292Y-50296D02*
X101392Y-50153D01*
X101464Y-50296D02*
X101464Y-49996D01*
X101350Y-49996D01*
X101321Y-50010D01*
X101307Y-50025D01*
X101292Y-50053D01*
X101292Y-50096D01*
X101307Y-50125D01*
X101321Y-50139D01*
X101350Y-50153D01*
X101464Y-50153D01*
X101007Y-50296D02*
X101178Y-50296D01*
X101092Y-50296D02*
X101092Y-49996D01*
X101121Y-50039D01*
X101150Y-50067D01*
X101178Y-50082D01*
X100821Y-49996D02*
X100792Y-49996D01*
X100764Y-50010D01*
X100750Y-50025D01*
X100735Y-50053D01*
X100721Y-50110D01*
X100721Y-50182D01*
X100735Y-50239D01*
X100750Y-50267D01*
X100764Y-50282D01*
X100792Y-50296D01*
X100821Y-50296D01*
X100850Y-50282D01*
X100864Y-50267D01*
X100878Y-50239D01*
X100892Y-50182D01*
X100892Y-50110D01*
X100878Y-50053D01*
X100864Y-50025D01*
X100850Y-50010D01*
X100821Y-49996D01*
X97550Y-48421D02*
X97650Y-48278D01*
X97721Y-48421D02*
X97721Y-48121D01*
X97607Y-48121D01*
X97578Y-48135D01*
X97564Y-48150D01*
X97550Y-48178D01*
X97550Y-48221D01*
X97564Y-48250D01*
X97578Y-48264D01*
X97607Y-48278D01*
X97721Y-48278D01*
X97378Y-48250D02*
X97407Y-48235D01*
X97421Y-48221D01*
X97435Y-48192D01*
X97435Y-48178D01*
X97421Y-48150D01*
X97407Y-48135D01*
X97378Y-48121D01*
X97321Y-48121D01*
X97292Y-48135D01*
X97278Y-48150D01*
X97264Y-48178D01*
X97264Y-48192D01*
X97278Y-48221D01*
X97292Y-48235D01*
X97321Y-48250D01*
X97378Y-48250D01*
X97407Y-48264D01*
X97421Y-48278D01*
X97435Y-48307D01*
X97435Y-48364D01*
X97421Y-48392D01*
X97407Y-48407D01*
X97378Y-48421D01*
X97321Y-48421D01*
X97292Y-48407D01*
X97278Y-48392D01*
X97264Y-48364D01*
X97264Y-48307D01*
X97278Y-48278D01*
X97292Y-48264D01*
X97321Y-48250D01*
G54D16*
X89460Y-55342D02*
X89470Y-55332D01*
X89479Y-55304D01*
X89479Y-55285D01*
X89470Y-55257D01*
X89451Y-55238D01*
X89432Y-55229D01*
X89395Y-55220D01*
X89367Y-55220D01*
X89329Y-55229D01*
X89310Y-55238D01*
X89292Y-55257D01*
X89282Y-55285D01*
X89282Y-55304D01*
X89292Y-55332D01*
X89301Y-55342D01*
X89479Y-55529D02*
X89479Y-55417D01*
X89479Y-55473D02*
X89282Y-55473D01*
X89310Y-55454D01*
X89329Y-55435D01*
X89339Y-55417D01*
X89754Y-55342D02*
X89754Y-55229D01*
X89754Y-55285D02*
X89557Y-55285D01*
X89585Y-55267D01*
X89604Y-55248D01*
X89614Y-55229D01*
X89623Y-55511D02*
X89754Y-55511D01*
X89623Y-55426D02*
X89726Y-55426D01*
X89745Y-55435D01*
X89754Y-55454D01*
X89754Y-55482D01*
X89745Y-55501D01*
X89735Y-55511D01*
X93707Y-48210D02*
X93717Y-48220D01*
X93745Y-48229D01*
X93764Y-48229D01*
X93792Y-48220D01*
X93811Y-48201D01*
X93820Y-48182D01*
X93829Y-48145D01*
X93829Y-48117D01*
X93820Y-48079D01*
X93811Y-48060D01*
X93792Y-48042D01*
X93764Y-48032D01*
X93745Y-48032D01*
X93717Y-48042D01*
X93707Y-48051D01*
X93642Y-48032D02*
X93510Y-48032D01*
X93595Y-48229D01*
X93614Y-48485D02*
X93623Y-48495D01*
X93651Y-48504D01*
X93670Y-48504D01*
X93698Y-48495D01*
X93717Y-48476D01*
X93726Y-48457D01*
X93735Y-48420D01*
X93735Y-48392D01*
X93726Y-48354D01*
X93717Y-48335D01*
X93698Y-48317D01*
X93670Y-48307D01*
X93651Y-48307D01*
X93623Y-48317D01*
X93614Y-48326D01*
X90907Y-48210D02*
X90917Y-48220D01*
X90945Y-48229D01*
X90964Y-48229D01*
X90992Y-48220D01*
X91011Y-48201D01*
X91020Y-48182D01*
X91029Y-48145D01*
X91029Y-48117D01*
X91020Y-48079D01*
X91011Y-48060D01*
X90992Y-48042D01*
X90964Y-48032D01*
X90945Y-48032D01*
X90917Y-48042D01*
X90907Y-48051D01*
X90795Y-48117D02*
X90814Y-48107D01*
X90823Y-48098D01*
X90832Y-48079D01*
X90832Y-48070D01*
X90823Y-48051D01*
X90814Y-48042D01*
X90795Y-48032D01*
X90757Y-48032D01*
X90738Y-48042D01*
X90729Y-48051D01*
X90720Y-48070D01*
X90720Y-48079D01*
X90729Y-48098D01*
X90738Y-48107D01*
X90757Y-48117D01*
X90795Y-48117D01*
X90814Y-48126D01*
X90823Y-48135D01*
X90832Y-48154D01*
X90832Y-48192D01*
X90823Y-48210D01*
X90814Y-48220D01*
X90795Y-48229D01*
X90757Y-48229D01*
X90738Y-48220D01*
X90729Y-48210D01*
X90720Y-48192D01*
X90720Y-48154D01*
X90729Y-48135D01*
X90738Y-48126D01*
X90757Y-48117D01*
X90814Y-48485D02*
X90823Y-48495D01*
X90851Y-48504D01*
X90870Y-48504D01*
X90898Y-48495D01*
X90917Y-48476D01*
X90926Y-48457D01*
X90935Y-48420D01*
X90935Y-48392D01*
X90926Y-48354D01*
X90917Y-48335D01*
X90898Y-48317D01*
X90870Y-48307D01*
X90851Y-48307D01*
X90823Y-48317D01*
X90814Y-48326D01*
X103635Y-47823D02*
X103645Y-47813D01*
X103654Y-47785D01*
X103654Y-47767D01*
X103645Y-47738D01*
X103626Y-47720D01*
X103607Y-47710D01*
X103570Y-47701D01*
X103542Y-47701D01*
X103504Y-47710D01*
X103485Y-47720D01*
X103467Y-47738D01*
X103457Y-47767D01*
X103457Y-47785D01*
X103467Y-47813D01*
X103476Y-47823D01*
X103654Y-48010D02*
X103654Y-47898D01*
X103654Y-47954D02*
X103457Y-47954D01*
X103485Y-47935D01*
X103504Y-47917D01*
X103514Y-47898D01*
X103457Y-48132D02*
X103457Y-48151D01*
X103467Y-48170D01*
X103476Y-48179D01*
X103495Y-48189D01*
X103532Y-48198D01*
X103579Y-48198D01*
X103617Y-48189D01*
X103635Y-48179D01*
X103645Y-48170D01*
X103654Y-48151D01*
X103654Y-48132D01*
X103645Y-48114D01*
X103635Y-48104D01*
X103617Y-48095D01*
X103579Y-48086D01*
X103532Y-48086D01*
X103495Y-48095D01*
X103476Y-48104D01*
X103467Y-48114D01*
X103457Y-48132D01*
X103360Y-48010D02*
X103370Y-48001D01*
X103379Y-47973D01*
X103379Y-47954D01*
X103370Y-47926D01*
X103351Y-47907D01*
X103332Y-47898D01*
X103295Y-47889D01*
X103267Y-47889D01*
X103229Y-47898D01*
X103210Y-47907D01*
X103192Y-47926D01*
X103182Y-47954D01*
X103182Y-47973D01*
X103192Y-48001D01*
X103201Y-48010D01*
X101135Y-46223D02*
X101145Y-46213D01*
X101154Y-46185D01*
X101154Y-46167D01*
X101145Y-46138D01*
X101126Y-46120D01*
X101107Y-46110D01*
X101070Y-46101D01*
X101042Y-46101D01*
X101004Y-46110D01*
X100985Y-46120D01*
X100967Y-46138D01*
X100957Y-46167D01*
X100957Y-46185D01*
X100967Y-46213D01*
X100976Y-46223D01*
X101154Y-46410D02*
X101154Y-46298D01*
X101154Y-46354D02*
X100957Y-46354D01*
X100985Y-46335D01*
X101004Y-46317D01*
X101014Y-46298D01*
X101154Y-46598D02*
X101154Y-46486D01*
X101154Y-46542D02*
X100957Y-46542D01*
X100985Y-46523D01*
X101004Y-46504D01*
X101014Y-46486D01*
X101410Y-46410D02*
X101420Y-46401D01*
X101429Y-46373D01*
X101429Y-46354D01*
X101420Y-46326D01*
X101401Y-46307D01*
X101382Y-46298D01*
X101345Y-46289D01*
X101317Y-46289D01*
X101279Y-46298D01*
X101260Y-46307D01*
X101242Y-46326D01*
X101232Y-46354D01*
X101232Y-46373D01*
X101242Y-46401D01*
X101251Y-46410D01*
X109757Y-47285D02*
X109767Y-47295D01*
X109795Y-47304D01*
X109814Y-47304D01*
X109842Y-47295D01*
X109861Y-47276D01*
X109870Y-47257D01*
X109879Y-47220D01*
X109879Y-47192D01*
X109870Y-47154D01*
X109861Y-47135D01*
X109842Y-47117D01*
X109814Y-47107D01*
X109795Y-47107D01*
X109767Y-47117D01*
X109757Y-47126D01*
X109664Y-47304D02*
X109626Y-47304D01*
X109607Y-47295D01*
X109598Y-47285D01*
X109579Y-47257D01*
X109570Y-47220D01*
X109570Y-47145D01*
X109579Y-47126D01*
X109588Y-47117D01*
X109607Y-47107D01*
X109645Y-47107D01*
X109664Y-47117D01*
X109673Y-47126D01*
X109682Y-47145D01*
X109682Y-47192D01*
X109673Y-47210D01*
X109664Y-47220D01*
X109645Y-47229D01*
X109607Y-47229D01*
X109588Y-47220D01*
X109579Y-47210D01*
X109570Y-47192D01*
X109664Y-47010D02*
X109673Y-47020D01*
X109701Y-47029D01*
X109720Y-47029D01*
X109748Y-47020D01*
X109767Y-47001D01*
X109776Y-46982D01*
X109785Y-46945D01*
X109785Y-46917D01*
X109776Y-46879D01*
X109767Y-46860D01*
X109748Y-46842D01*
X109720Y-46832D01*
X109701Y-46832D01*
X109673Y-46842D01*
X109664Y-46851D01*
X104626Y-49054D02*
X104692Y-48960D01*
X104739Y-49054D02*
X104739Y-48857D01*
X104664Y-48857D01*
X104645Y-48867D01*
X104636Y-48876D01*
X104626Y-48895D01*
X104626Y-48923D01*
X104636Y-48942D01*
X104645Y-48951D01*
X104664Y-48960D01*
X104739Y-48960D01*
X104457Y-48923D02*
X104457Y-49054D01*
X104504Y-48848D02*
X104551Y-48989D01*
X104429Y-48989D01*
X104270Y-48923D02*
X104270Y-49054D01*
X104317Y-48848D02*
X104363Y-48989D01*
X104242Y-48989D01*
X104439Y-49329D02*
X104504Y-49235D01*
X104551Y-49329D02*
X104551Y-49132D01*
X104476Y-49132D01*
X104457Y-49142D01*
X104448Y-49151D01*
X104439Y-49170D01*
X104439Y-49198D01*
X104448Y-49217D01*
X104457Y-49226D01*
X104476Y-49235D01*
X104551Y-49235D01*
X104626Y-48154D02*
X104692Y-48060D01*
X104739Y-48154D02*
X104739Y-47957D01*
X104664Y-47957D01*
X104645Y-47967D01*
X104636Y-47976D01*
X104626Y-47995D01*
X104626Y-48023D01*
X104636Y-48042D01*
X104645Y-48051D01*
X104664Y-48060D01*
X104739Y-48060D01*
X104457Y-48023D02*
X104457Y-48154D01*
X104504Y-47948D02*
X104551Y-48089D01*
X104429Y-48089D01*
X104260Y-47957D02*
X104354Y-47957D01*
X104363Y-48051D01*
X104354Y-48042D01*
X104335Y-48032D01*
X104288Y-48032D01*
X104270Y-48042D01*
X104260Y-48051D01*
X104251Y-48070D01*
X104251Y-48117D01*
X104260Y-48135D01*
X104270Y-48145D01*
X104288Y-48154D01*
X104335Y-48154D01*
X104354Y-48145D01*
X104363Y-48135D01*
X104439Y-48429D02*
X104504Y-48335D01*
X104551Y-48429D02*
X104551Y-48232D01*
X104476Y-48232D01*
X104457Y-48242D01*
X104448Y-48251D01*
X104439Y-48270D01*
X104439Y-48298D01*
X104448Y-48317D01*
X104457Y-48326D01*
X104476Y-48335D01*
X104551Y-48335D01*
X103026Y-50204D02*
X103092Y-50110D01*
X103139Y-50204D02*
X103139Y-50007D01*
X103064Y-50007D01*
X103045Y-50017D01*
X103036Y-50026D01*
X103026Y-50045D01*
X103026Y-50073D01*
X103036Y-50092D01*
X103045Y-50101D01*
X103064Y-50110D01*
X103139Y-50110D01*
X102839Y-50204D02*
X102951Y-50204D01*
X102895Y-50204D02*
X102895Y-50007D01*
X102914Y-50035D01*
X102932Y-50054D01*
X102951Y-50064D01*
X102773Y-50007D02*
X102651Y-50007D01*
X102717Y-50082D01*
X102688Y-50082D01*
X102670Y-50092D01*
X102660Y-50101D01*
X102651Y-50120D01*
X102651Y-50167D01*
X102660Y-50185D01*
X102670Y-50195D01*
X102688Y-50204D01*
X102745Y-50204D01*
X102763Y-50195D01*
X102773Y-50185D01*
X102839Y-50479D02*
X102904Y-50385D01*
X102951Y-50479D02*
X102951Y-50282D01*
X102876Y-50282D01*
X102857Y-50292D01*
X102848Y-50301D01*
X102839Y-50320D01*
X102839Y-50348D01*
X102848Y-50367D01*
X102857Y-50376D01*
X102876Y-50385D01*
X102951Y-50385D01*
X104626Y-47154D02*
X104692Y-47060D01*
X104739Y-47154D02*
X104739Y-46957D01*
X104664Y-46957D01*
X104645Y-46967D01*
X104636Y-46976D01*
X104626Y-46995D01*
X104626Y-47023D01*
X104636Y-47042D01*
X104645Y-47051D01*
X104664Y-47060D01*
X104739Y-47060D01*
X104439Y-47154D02*
X104551Y-47154D01*
X104495Y-47154D02*
X104495Y-46957D01*
X104514Y-46985D01*
X104532Y-47004D01*
X104551Y-47014D01*
X104363Y-46976D02*
X104354Y-46967D01*
X104335Y-46957D01*
X104288Y-46957D01*
X104270Y-46967D01*
X104260Y-46976D01*
X104251Y-46995D01*
X104251Y-47014D01*
X104260Y-47042D01*
X104373Y-47154D01*
X104251Y-47154D01*
X104439Y-47429D02*
X104504Y-47335D01*
X104551Y-47429D02*
X104551Y-47232D01*
X104476Y-47232D01*
X104457Y-47242D01*
X104448Y-47251D01*
X104439Y-47270D01*
X104439Y-47298D01*
X104448Y-47317D01*
X104457Y-47326D01*
X104476Y-47335D01*
X104551Y-47335D01*
X97476Y-50104D02*
X97542Y-50010D01*
X97589Y-50104D02*
X97589Y-49907D01*
X97514Y-49907D01*
X97495Y-49917D01*
X97486Y-49926D01*
X97476Y-49945D01*
X97476Y-49973D01*
X97486Y-49992D01*
X97495Y-50001D01*
X97514Y-50010D01*
X97589Y-50010D01*
X97289Y-50104D02*
X97401Y-50104D01*
X97345Y-50104D02*
X97345Y-49907D01*
X97364Y-49935D01*
X97382Y-49954D01*
X97401Y-49964D01*
X97101Y-50104D02*
X97213Y-50104D01*
X97157Y-50104D02*
X97157Y-49907D01*
X97176Y-49935D01*
X97195Y-49954D01*
X97213Y-49964D01*
X97289Y-49829D02*
X97354Y-49735D01*
X97401Y-49829D02*
X97401Y-49632D01*
X97326Y-49632D01*
X97307Y-49642D01*
X97298Y-49651D01*
X97289Y-49670D01*
X97289Y-49698D01*
X97298Y-49717D01*
X97307Y-49726D01*
X97326Y-49735D01*
X97401Y-49735D01*
X93282Y-46035D02*
X93292Y-46045D01*
X93320Y-46054D01*
X93339Y-46054D01*
X93367Y-46045D01*
X93386Y-46026D01*
X93395Y-46007D01*
X93404Y-45970D01*
X93404Y-45942D01*
X93395Y-45904D01*
X93386Y-45885D01*
X93367Y-45867D01*
X93339Y-45857D01*
X93320Y-45857D01*
X93292Y-45867D01*
X93282Y-45876D01*
X93113Y-45857D02*
X93151Y-45857D01*
X93170Y-45867D01*
X93179Y-45876D01*
X93198Y-45904D01*
X93207Y-45942D01*
X93207Y-46017D01*
X93198Y-46035D01*
X93189Y-46045D01*
X93170Y-46054D01*
X93132Y-46054D01*
X93113Y-46045D01*
X93104Y-46035D01*
X93095Y-46017D01*
X93095Y-45970D01*
X93104Y-45951D01*
X93113Y-45942D01*
X93132Y-45932D01*
X93170Y-45932D01*
X93189Y-45942D01*
X93198Y-45951D01*
X93207Y-45970D01*
X93189Y-46310D02*
X93198Y-46320D01*
X93226Y-46329D01*
X93245Y-46329D01*
X93273Y-46320D01*
X93292Y-46301D01*
X93301Y-46282D01*
X93310Y-46245D01*
X93310Y-46217D01*
X93301Y-46179D01*
X93292Y-46160D01*
X93273Y-46142D01*
X93245Y-46132D01*
X93226Y-46132D01*
X93198Y-46142D01*
X93189Y-46151D01*
X78151Y-56479D02*
X78217Y-56385D01*
X78264Y-56479D02*
X78264Y-56282D01*
X78189Y-56282D01*
X78170Y-56292D01*
X78161Y-56301D01*
X78151Y-56320D01*
X78151Y-56348D01*
X78161Y-56367D01*
X78170Y-56376D01*
X78189Y-56385D01*
X78264Y-56385D01*
X78085Y-56282D02*
X77964Y-56282D01*
X78029Y-56357D01*
X78001Y-56357D01*
X77982Y-56367D01*
X77973Y-56376D01*
X77964Y-56395D01*
X77964Y-56442D01*
X77973Y-56460D01*
X77982Y-56470D01*
X78001Y-56479D01*
X78057Y-56479D01*
X78076Y-56470D01*
X78085Y-56460D01*
X77898Y-56282D02*
X77776Y-56282D01*
X77842Y-56357D01*
X77813Y-56357D01*
X77795Y-56367D01*
X77785Y-56376D01*
X77776Y-56395D01*
X77776Y-56442D01*
X77785Y-56460D01*
X77795Y-56470D01*
X77813Y-56479D01*
X77870Y-56479D01*
X77888Y-56470D01*
X77898Y-56460D01*
X77964Y-56754D02*
X78029Y-56660D01*
X78076Y-56754D02*
X78076Y-56557D01*
X78001Y-56557D01*
X77982Y-56567D01*
X77973Y-56576D01*
X77964Y-56595D01*
X77964Y-56623D01*
X77973Y-56642D01*
X77982Y-56651D01*
X78001Y-56660D01*
X78076Y-56660D01*
G54D17*
X98928Y-45375D02*
X98957Y-45360D01*
X98985Y-45332D01*
X99028Y-45289D01*
X99057Y-45275D01*
X99085Y-45275D01*
X99071Y-45346D02*
X99100Y-45332D01*
X99128Y-45303D01*
X99142Y-45246D01*
X99142Y-45146D01*
X99128Y-45089D01*
X99100Y-45060D01*
X99071Y-45046D01*
X99014Y-45046D01*
X98985Y-45060D01*
X98957Y-45089D01*
X98942Y-45146D01*
X98942Y-45246D01*
X98957Y-45303D01*
X98985Y-45332D01*
X99014Y-45346D01*
X99071Y-45346D01*
X98828Y-45075D02*
X98814Y-45060D01*
X98785Y-45046D01*
X98714Y-45046D01*
X98685Y-45060D01*
X98671Y-45075D01*
X98657Y-45103D01*
X98657Y-45132D01*
X98671Y-45175D01*
X98842Y-45346D01*
X98657Y-45346D01*
X100335Y-46196D02*
X100335Y-45896D01*
X100264Y-45896D01*
X100221Y-45910D01*
X100192Y-45939D01*
X100178Y-45967D01*
X100164Y-46025D01*
X100164Y-46067D01*
X100178Y-46125D01*
X100192Y-46153D01*
X100221Y-46182D01*
X100264Y-46196D01*
X100335Y-46196D01*
X100035Y-46196D02*
X100035Y-45896D01*
X99935Y-46110D01*
X99835Y-45896D01*
X99835Y-46196D01*
X99692Y-46196D02*
X99692Y-45896D01*
X99521Y-46196D01*
X99521Y-45896D01*
X99249Y-45896D02*
X99307Y-45896D01*
X99335Y-45910D01*
X99349Y-45925D01*
X99378Y-45967D01*
X99392Y-46025D01*
X99392Y-46139D01*
X99378Y-46167D01*
X99364Y-46182D01*
X99335Y-46196D01*
X99278Y-46196D01*
X99249Y-46182D01*
X99235Y-46167D01*
X99221Y-46139D01*
X99221Y-46067D01*
X99235Y-46039D01*
X99249Y-46025D01*
X99278Y-46010D01*
X99335Y-46010D01*
X99364Y-46025D01*
X99378Y-46039D01*
X99392Y-46067D01*
X98949Y-45896D02*
X99092Y-45896D01*
X99107Y-46039D01*
X99092Y-46025D01*
X99064Y-46010D01*
X98992Y-46010D01*
X98964Y-46025D01*
X98949Y-46039D01*
X98935Y-46067D01*
X98935Y-46139D01*
X98949Y-46167D01*
X98964Y-46182D01*
X98992Y-46196D01*
X99064Y-46196D01*
X99092Y-46182D01*
X99107Y-46167D01*
X98807Y-46196D02*
X98807Y-45896D01*
X98735Y-45896D01*
X98692Y-45910D01*
X98664Y-45939D01*
X98650Y-45967D01*
X98635Y-46025D01*
X98635Y-46067D01*
X98650Y-46125D01*
X98664Y-46153D01*
X98692Y-46182D01*
X98735Y-46196D01*
X98807Y-46196D01*
X98464Y-46025D02*
X98492Y-46010D01*
X98507Y-45996D01*
X98521Y-45967D01*
X98521Y-45953D01*
X98507Y-45925D01*
X98492Y-45910D01*
X98464Y-45896D01*
X98407Y-45896D01*
X98378Y-45910D01*
X98364Y-45925D01*
X98350Y-45953D01*
X98350Y-45967D01*
X98364Y-45996D01*
X98378Y-46010D01*
X98407Y-46025D01*
X98464Y-46025D01*
X98492Y-46039D01*
X98507Y-46053D01*
X98521Y-46082D01*
X98521Y-46139D01*
X98507Y-46167D01*
X98492Y-46182D01*
X98464Y-46196D01*
X98407Y-46196D01*
X98378Y-46182D01*
X98364Y-46167D01*
X98350Y-46139D01*
X98350Y-46082D01*
X98364Y-46053D01*
X98378Y-46039D01*
X98407Y-46025D01*
X98078Y-46196D02*
X98221Y-46196D01*
X98221Y-45896D01*
X97978Y-46082D02*
X97750Y-46082D01*
X97635Y-45896D02*
X97435Y-45896D01*
X97564Y-46196D01*
G54D11*
X111335Y-52905D02*
X111164Y-52905D01*
X111249Y-53305D02*
X111249Y-52905D01*
X111064Y-53305D02*
X111064Y-52905D01*
X111064Y-53096D02*
X110892Y-53096D01*
X110892Y-53305D02*
X110892Y-52905D01*
X110607Y-52905D02*
X110749Y-52905D01*
X110764Y-53096D01*
X110749Y-53077D01*
X110721Y-53058D01*
X110649Y-53058D01*
X110621Y-53077D01*
X110607Y-53096D01*
X110592Y-53134D01*
X110592Y-53229D01*
X110607Y-53267D01*
X110621Y-53286D01*
X110649Y-53305D01*
X110721Y-53305D01*
X110749Y-53286D01*
X110764Y-53267D01*
G54D16*
X103110Y-52273D02*
X103120Y-52263D01*
X103129Y-52235D01*
X103129Y-52217D01*
X103120Y-52188D01*
X103101Y-52170D01*
X103082Y-52160D01*
X103045Y-52151D01*
X103017Y-52151D01*
X102979Y-52160D01*
X102960Y-52170D01*
X102942Y-52188D01*
X102932Y-52217D01*
X102932Y-52235D01*
X102942Y-52263D01*
X102951Y-52273D01*
X103129Y-52460D02*
X103129Y-52348D01*
X103129Y-52404D02*
X102932Y-52404D01*
X102960Y-52385D01*
X102979Y-52367D01*
X102989Y-52348D01*
X102932Y-52526D02*
X102932Y-52648D01*
X103007Y-52582D01*
X103007Y-52611D01*
X103017Y-52629D01*
X103026Y-52639D01*
X103045Y-52648D01*
X103092Y-52648D01*
X103110Y-52639D01*
X103120Y-52629D01*
X103129Y-52611D01*
X103129Y-52554D01*
X103120Y-52536D01*
X103110Y-52526D01*
X102835Y-52460D02*
X102845Y-52451D01*
X102854Y-52423D01*
X102854Y-52404D01*
X102845Y-52376D01*
X102826Y-52357D01*
X102807Y-52348D01*
X102770Y-52339D01*
X102742Y-52339D01*
X102704Y-52348D01*
X102685Y-52357D01*
X102667Y-52376D01*
X102657Y-52404D01*
X102657Y-52423D01*
X102667Y-52451D01*
X102676Y-52460D01*
X90760Y-51773D02*
X90770Y-51763D01*
X90779Y-51735D01*
X90779Y-51717D01*
X90770Y-51688D01*
X90751Y-51670D01*
X90732Y-51660D01*
X90695Y-51651D01*
X90667Y-51651D01*
X90629Y-51660D01*
X90610Y-51670D01*
X90592Y-51688D01*
X90582Y-51717D01*
X90582Y-51735D01*
X90592Y-51763D01*
X90601Y-51773D01*
X90779Y-51960D02*
X90779Y-51848D01*
X90779Y-51904D02*
X90582Y-51904D01*
X90610Y-51885D01*
X90629Y-51867D01*
X90639Y-51848D01*
X90601Y-52036D02*
X90592Y-52045D01*
X90582Y-52064D01*
X90582Y-52111D01*
X90592Y-52129D01*
X90601Y-52139D01*
X90620Y-52148D01*
X90639Y-52148D01*
X90667Y-52139D01*
X90779Y-52026D01*
X90779Y-52148D01*
X90485Y-51960D02*
X90495Y-51951D01*
X90504Y-51923D01*
X90504Y-51904D01*
X90495Y-51876D01*
X90476Y-51857D01*
X90457Y-51848D01*
X90420Y-51839D01*
X90392Y-51839D01*
X90354Y-51848D01*
X90335Y-51857D01*
X90317Y-51876D01*
X90307Y-51904D01*
X90307Y-51923D01*
X90317Y-51951D01*
X90326Y-51960D01*
G54D11*
X58635Y-52205D02*
X58464Y-52205D01*
X58549Y-52605D02*
X58549Y-52205D01*
X58364Y-52605D02*
X58364Y-52205D01*
X58364Y-52396D02*
X58192Y-52396D01*
X58192Y-52605D02*
X58192Y-52205D01*
X57921Y-52339D02*
X57921Y-52605D01*
X57992Y-52186D02*
X58064Y-52472D01*
X57878Y-52472D01*
X60149Y-52011D02*
X60149Y-51611D01*
X60049Y-51897D01*
X59949Y-51611D01*
X59949Y-52011D01*
X59807Y-52011D02*
X59807Y-51611D01*
X59664Y-52011D02*
X59664Y-51611D01*
X59492Y-52011D01*
X59492Y-51611D01*
X59349Y-52011D02*
X59349Y-51611D01*
X59221Y-51992D02*
X59178Y-52011D01*
X59107Y-52011D01*
X59078Y-51992D01*
X59064Y-51973D01*
X59050Y-51935D01*
X59050Y-51897D01*
X59064Y-51859D01*
X59078Y-51840D01*
X59107Y-51821D01*
X59164Y-51802D01*
X59192Y-51783D01*
X59207Y-51764D01*
X59221Y-51726D01*
X59221Y-51688D01*
X59207Y-51650D01*
X59192Y-51630D01*
X59164Y-51611D01*
X59092Y-51611D01*
X59050Y-51630D01*
X58921Y-52011D02*
X58921Y-51611D01*
X58821Y-51897D01*
X58721Y-51611D01*
X58721Y-52011D01*
X58578Y-52011D02*
X58578Y-51611D01*
X58507Y-51611D01*
X58464Y-51630D01*
X58435Y-51669D01*
X58421Y-51707D01*
X58407Y-51783D01*
X58407Y-51840D01*
X58421Y-51916D01*
X58435Y-51954D01*
X58464Y-51992D01*
X58507Y-52011D01*
X58578Y-52011D01*
X58107Y-51973D02*
X58121Y-51992D01*
X58164Y-52011D01*
X58192Y-52011D01*
X58235Y-51992D01*
X58264Y-51954D01*
X58278Y-51916D01*
X58292Y-51840D01*
X58292Y-51783D01*
X58278Y-51707D01*
X58264Y-51669D01*
X58235Y-51630D01*
X58192Y-51611D01*
X58164Y-51611D01*
X58121Y-51630D01*
X58107Y-51650D01*
X57921Y-51611D02*
X57892Y-51611D01*
X57864Y-51630D01*
X57850Y-51650D01*
X57835Y-51688D01*
X57821Y-51764D01*
X57821Y-51859D01*
X57835Y-51935D01*
X57850Y-51973D01*
X57864Y-51992D01*
X57892Y-52011D01*
X57921Y-52011D01*
X57950Y-51992D01*
X57964Y-51973D01*
X57978Y-51935D01*
X57992Y-51859D01*
X57992Y-51764D01*
X57978Y-51688D01*
X57964Y-51650D01*
X57950Y-51630D01*
X57921Y-51611D01*
X57550Y-51611D02*
X57692Y-51611D01*
X57707Y-51802D01*
X57692Y-51783D01*
X57664Y-51764D01*
X57592Y-51764D01*
X57564Y-51783D01*
X57550Y-51802D01*
X57535Y-51840D01*
X57535Y-51935D01*
X57550Y-51973D01*
X57564Y-51992D01*
X57592Y-52011D01*
X57664Y-52011D01*
X57692Y-51992D01*
X57707Y-51973D01*
X57350Y-51611D02*
X57321Y-51611D01*
X57292Y-51630D01*
X57278Y-51650D01*
X57264Y-51688D01*
X57250Y-51764D01*
X57250Y-51859D01*
X57264Y-51935D01*
X57278Y-51973D01*
X57292Y-51992D01*
X57321Y-52011D01*
X57350Y-52011D01*
X57378Y-51992D01*
X57392Y-51973D01*
X57407Y-51935D01*
X57421Y-51859D01*
X57421Y-51764D01*
X57407Y-51688D01*
X57392Y-51650D01*
X57378Y-51630D01*
X57350Y-51611D01*
X57021Y-51802D02*
X57121Y-51802D01*
X57121Y-52011D02*
X57121Y-51611D01*
X56978Y-51611D01*
X56864Y-51859D02*
X56635Y-51859D01*
X56507Y-51650D02*
X56492Y-51630D01*
X56464Y-51611D01*
X56392Y-51611D01*
X56364Y-51630D01*
X56350Y-51650D01*
X56335Y-51688D01*
X56335Y-51726D01*
X56350Y-51783D01*
X56521Y-52011D01*
X56335Y-52011D01*
X58017Y-60714D02*
X58017Y-60885D01*
X58417Y-60800D02*
X58017Y-60800D01*
X58417Y-60985D02*
X58017Y-60985D01*
X58208Y-60985D02*
X58208Y-61157D01*
X58417Y-61157D02*
X58017Y-61157D01*
X58017Y-61271D02*
X58017Y-61457D01*
X58170Y-61357D01*
X58170Y-61400D01*
X58189Y-61428D01*
X58208Y-61442D01*
X58246Y-61457D01*
X58341Y-61457D01*
X58379Y-61442D01*
X58398Y-61428D01*
X58417Y-61400D01*
X58417Y-61314D01*
X58398Y-61285D01*
X58379Y-61271D01*
X59011Y-59200D02*
X58611Y-59200D01*
X58897Y-59300D01*
X58611Y-59400D01*
X59011Y-59400D01*
X59011Y-59542D02*
X58611Y-59542D01*
X59011Y-59685D02*
X58611Y-59685D01*
X59011Y-59857D01*
X58611Y-59857D01*
X59011Y-60000D02*
X58611Y-60000D01*
X58992Y-60128D02*
X59011Y-60171D01*
X59011Y-60242D01*
X58992Y-60271D01*
X58973Y-60285D01*
X58935Y-60300D01*
X58897Y-60300D01*
X58859Y-60285D01*
X58840Y-60271D01*
X58821Y-60242D01*
X58802Y-60185D01*
X58783Y-60157D01*
X58764Y-60142D01*
X58726Y-60128D01*
X58688Y-60128D01*
X58650Y-60142D01*
X58630Y-60157D01*
X58611Y-60185D01*
X58611Y-60257D01*
X58630Y-60300D01*
X59011Y-60428D02*
X58611Y-60428D01*
X58897Y-60528D01*
X58611Y-60628D01*
X59011Y-60628D01*
X59011Y-60771D02*
X58611Y-60771D01*
X58611Y-60842D01*
X58630Y-60885D01*
X58669Y-60914D01*
X58707Y-60928D01*
X58783Y-60942D01*
X58840Y-60942D01*
X58916Y-60928D01*
X58954Y-60914D01*
X58992Y-60885D01*
X59011Y-60842D01*
X59011Y-60771D01*
X58973Y-61242D02*
X58992Y-61228D01*
X59011Y-61185D01*
X59011Y-61157D01*
X58992Y-61114D01*
X58954Y-61085D01*
X58916Y-61071D01*
X58840Y-61057D01*
X58783Y-61057D01*
X58707Y-61071D01*
X58669Y-61085D01*
X58630Y-61114D01*
X58611Y-61157D01*
X58611Y-61185D01*
X58630Y-61228D01*
X58650Y-61242D01*
X58611Y-61428D02*
X58611Y-61457D01*
X58630Y-61485D01*
X58650Y-61500D01*
X58688Y-61514D01*
X58764Y-61528D01*
X58859Y-61528D01*
X58935Y-61514D01*
X58973Y-61500D01*
X58992Y-61485D01*
X59011Y-61457D01*
X59011Y-61428D01*
X58992Y-61400D01*
X58973Y-61385D01*
X58935Y-61371D01*
X58859Y-61357D01*
X58764Y-61357D01*
X58688Y-61371D01*
X58650Y-61385D01*
X58630Y-61400D01*
X58611Y-61428D01*
X58611Y-61800D02*
X58611Y-61657D01*
X58802Y-61642D01*
X58783Y-61657D01*
X58764Y-61685D01*
X58764Y-61757D01*
X58783Y-61785D01*
X58802Y-61800D01*
X58840Y-61814D01*
X58935Y-61814D01*
X58973Y-61800D01*
X58992Y-61785D01*
X59011Y-61757D01*
X59011Y-61685D01*
X58992Y-61657D01*
X58973Y-61642D01*
X58611Y-61999D02*
X58611Y-62028D01*
X58630Y-62057D01*
X58650Y-62071D01*
X58688Y-62085D01*
X58764Y-62099D01*
X58859Y-62099D01*
X58935Y-62085D01*
X58973Y-62071D01*
X58992Y-62057D01*
X59011Y-62028D01*
X59011Y-61999D01*
X58992Y-61971D01*
X58973Y-61957D01*
X58935Y-61942D01*
X58859Y-61928D01*
X58764Y-61928D01*
X58688Y-61942D01*
X58650Y-61957D01*
X58630Y-61971D01*
X58611Y-61999D01*
X58802Y-62328D02*
X58802Y-62228D01*
X59011Y-62228D02*
X58611Y-62228D01*
X58611Y-62371D01*
X58859Y-62485D02*
X58859Y-62714D01*
X58650Y-62842D02*
X58630Y-62857D01*
X58611Y-62885D01*
X58611Y-62957D01*
X58630Y-62985D01*
X58650Y-63000D01*
X58688Y-63014D01*
X58726Y-63014D01*
X58783Y-63000D01*
X59011Y-62828D01*
X59011Y-63014D01*
X61535Y-57255D02*
X61364Y-57255D01*
X61449Y-57655D02*
X61449Y-57255D01*
X61264Y-57655D02*
X61264Y-57255D01*
X61264Y-57446D02*
X61092Y-57446D01*
X61092Y-57655D02*
X61092Y-57255D01*
X60964Y-57294D02*
X60949Y-57274D01*
X60921Y-57255D01*
X60849Y-57255D01*
X60821Y-57274D01*
X60807Y-57294D01*
X60792Y-57332D01*
X60792Y-57370D01*
X60807Y-57427D01*
X60978Y-57655D01*
X60792Y-57655D01*
X63049Y-57061D02*
X63049Y-56661D01*
X62949Y-56947D01*
X62849Y-56661D01*
X62849Y-57061D01*
X62707Y-57061D02*
X62707Y-56661D01*
X62564Y-57061D02*
X62564Y-56661D01*
X62392Y-57061D01*
X62392Y-56661D01*
X62249Y-57061D02*
X62249Y-56661D01*
X62121Y-57042D02*
X62078Y-57061D01*
X62007Y-57061D01*
X61978Y-57042D01*
X61964Y-57023D01*
X61950Y-56985D01*
X61950Y-56947D01*
X61964Y-56909D01*
X61978Y-56890D01*
X62007Y-56871D01*
X62064Y-56852D01*
X62092Y-56833D01*
X62107Y-56814D01*
X62121Y-56776D01*
X62121Y-56738D01*
X62107Y-56700D01*
X62092Y-56680D01*
X62064Y-56661D01*
X61992Y-56661D01*
X61950Y-56680D01*
X61821Y-57061D02*
X61821Y-56661D01*
X61721Y-56947D01*
X61621Y-56661D01*
X61621Y-57061D01*
X61478Y-57061D02*
X61478Y-56661D01*
X61407Y-56661D01*
X61364Y-56680D01*
X61335Y-56719D01*
X61321Y-56757D01*
X61307Y-56833D01*
X61307Y-56890D01*
X61321Y-56966D01*
X61335Y-57004D01*
X61364Y-57042D01*
X61407Y-57061D01*
X61478Y-57061D01*
X61007Y-57023D02*
X61021Y-57042D01*
X61064Y-57061D01*
X61092Y-57061D01*
X61135Y-57042D01*
X61164Y-57004D01*
X61178Y-56966D01*
X61192Y-56890D01*
X61192Y-56833D01*
X61178Y-56757D01*
X61164Y-56719D01*
X61135Y-56680D01*
X61092Y-56661D01*
X61064Y-56661D01*
X61021Y-56680D01*
X61007Y-56700D01*
X60821Y-56661D02*
X60792Y-56661D01*
X60764Y-56680D01*
X60750Y-56700D01*
X60735Y-56738D01*
X60721Y-56814D01*
X60721Y-56909D01*
X60735Y-56985D01*
X60750Y-57023D01*
X60764Y-57042D01*
X60792Y-57061D01*
X60821Y-57061D01*
X60850Y-57042D01*
X60864Y-57023D01*
X60878Y-56985D01*
X60892Y-56909D01*
X60892Y-56814D01*
X60878Y-56738D01*
X60864Y-56700D01*
X60850Y-56680D01*
X60821Y-56661D01*
X60450Y-56661D02*
X60592Y-56661D01*
X60607Y-56852D01*
X60592Y-56833D01*
X60564Y-56814D01*
X60492Y-56814D01*
X60464Y-56833D01*
X60450Y-56852D01*
X60435Y-56890D01*
X60435Y-56985D01*
X60450Y-57023D01*
X60464Y-57042D01*
X60492Y-57061D01*
X60564Y-57061D01*
X60592Y-57042D01*
X60607Y-57023D01*
X60250Y-56661D02*
X60221Y-56661D01*
X60192Y-56680D01*
X60178Y-56700D01*
X60164Y-56738D01*
X60150Y-56814D01*
X60150Y-56909D01*
X60164Y-56985D01*
X60178Y-57023D01*
X60192Y-57042D01*
X60221Y-57061D01*
X60250Y-57061D01*
X60278Y-57042D01*
X60292Y-57023D01*
X60307Y-56985D01*
X60321Y-56909D01*
X60321Y-56814D01*
X60307Y-56738D01*
X60292Y-56700D01*
X60278Y-56680D01*
X60250Y-56661D01*
X59921Y-56852D02*
X60021Y-56852D01*
X60021Y-57061D02*
X60021Y-56661D01*
X59878Y-56661D01*
X59764Y-56909D02*
X59535Y-56909D01*
X59407Y-56700D02*
X59392Y-56680D01*
X59364Y-56661D01*
X59292Y-56661D01*
X59264Y-56680D01*
X59250Y-56700D01*
X59235Y-56738D01*
X59235Y-56776D01*
X59250Y-56833D01*
X59421Y-57061D01*
X59235Y-57061D01*
X54217Y-39939D02*
X54217Y-40110D01*
X54617Y-40025D02*
X54217Y-40025D01*
X54617Y-40210D02*
X54217Y-40210D01*
X54408Y-40210D02*
X54408Y-40382D01*
X54617Y-40382D02*
X54217Y-40382D01*
X54617Y-40682D02*
X54617Y-40510D01*
X54617Y-40596D02*
X54217Y-40596D01*
X54275Y-40567D01*
X54313Y-40539D01*
X54332Y-40510D01*
X55211Y-38425D02*
X54811Y-38425D01*
X55097Y-38525D01*
X54811Y-38625D01*
X55211Y-38625D01*
X55211Y-38767D02*
X54811Y-38767D01*
X55211Y-38910D02*
X54811Y-38910D01*
X55211Y-39082D01*
X54811Y-39082D01*
X55211Y-39225D02*
X54811Y-39225D01*
X55192Y-39353D02*
X55211Y-39396D01*
X55211Y-39467D01*
X55192Y-39496D01*
X55173Y-39510D01*
X55135Y-39525D01*
X55097Y-39525D01*
X55059Y-39510D01*
X55040Y-39496D01*
X55021Y-39467D01*
X55002Y-39410D01*
X54983Y-39382D01*
X54964Y-39367D01*
X54926Y-39353D01*
X54888Y-39353D01*
X54850Y-39367D01*
X54830Y-39382D01*
X54811Y-39410D01*
X54811Y-39482D01*
X54830Y-39525D01*
X55211Y-39653D02*
X54811Y-39653D01*
X55097Y-39753D01*
X54811Y-39853D01*
X55211Y-39853D01*
X55211Y-39996D02*
X54811Y-39996D01*
X54811Y-40067D01*
X54830Y-40110D01*
X54869Y-40139D01*
X54907Y-40153D01*
X54983Y-40167D01*
X55040Y-40167D01*
X55116Y-40153D01*
X55154Y-40139D01*
X55192Y-40110D01*
X55211Y-40067D01*
X55211Y-39996D01*
X55173Y-40467D02*
X55192Y-40453D01*
X55211Y-40410D01*
X55211Y-40382D01*
X55192Y-40339D01*
X55154Y-40310D01*
X55116Y-40296D01*
X55040Y-40282D01*
X54983Y-40282D01*
X54907Y-40296D01*
X54869Y-40310D01*
X54830Y-40339D01*
X54811Y-40382D01*
X54811Y-40410D01*
X54830Y-40453D01*
X54850Y-40467D01*
X54811Y-40653D02*
X54811Y-40682D01*
X54830Y-40710D01*
X54850Y-40725D01*
X54888Y-40739D01*
X54964Y-40753D01*
X55059Y-40753D01*
X55135Y-40739D01*
X55173Y-40725D01*
X55192Y-40710D01*
X55211Y-40682D01*
X55211Y-40653D01*
X55192Y-40625D01*
X55173Y-40610D01*
X55135Y-40596D01*
X55059Y-40582D01*
X54964Y-40582D01*
X54888Y-40596D01*
X54850Y-40610D01*
X54830Y-40625D01*
X54811Y-40653D01*
X54811Y-41025D02*
X54811Y-40882D01*
X55002Y-40867D01*
X54983Y-40882D01*
X54964Y-40910D01*
X54964Y-40982D01*
X54983Y-41010D01*
X55002Y-41025D01*
X55040Y-41039D01*
X55135Y-41039D01*
X55173Y-41025D01*
X55192Y-41010D01*
X55211Y-40982D01*
X55211Y-40910D01*
X55192Y-40882D01*
X55173Y-40867D01*
X54811Y-41224D02*
X54811Y-41253D01*
X54830Y-41282D01*
X54850Y-41296D01*
X54888Y-41310D01*
X54964Y-41324D01*
X55059Y-41324D01*
X55135Y-41310D01*
X55173Y-41296D01*
X55192Y-41282D01*
X55211Y-41253D01*
X55211Y-41224D01*
X55192Y-41196D01*
X55173Y-41182D01*
X55135Y-41167D01*
X55059Y-41153D01*
X54964Y-41153D01*
X54888Y-41167D01*
X54850Y-41182D01*
X54830Y-41196D01*
X54811Y-41224D01*
X55002Y-41553D02*
X55002Y-41453D01*
X55211Y-41453D02*
X54811Y-41453D01*
X54811Y-41596D01*
X55059Y-41710D02*
X55059Y-41939D01*
X54850Y-42067D02*
X54830Y-42082D01*
X54811Y-42110D01*
X54811Y-42182D01*
X54830Y-42210D01*
X54850Y-42225D01*
X54888Y-42239D01*
X54926Y-42239D01*
X54983Y-42225D01*
X55211Y-42053D01*
X55211Y-42239D01*
X61111Y-52454D02*
X61111Y-52322D01*
X60835Y-52322D01*
X60927Y-52664D02*
X61111Y-52664D01*
X60822Y-52598D02*
X61019Y-52532D01*
X61019Y-52703D01*
X60485Y-50876D02*
X60498Y-50863D01*
X60511Y-50824D01*
X60511Y-50798D01*
X60498Y-50758D01*
X60472Y-50732D01*
X60445Y-50719D01*
X60393Y-50706D01*
X60354Y-50706D01*
X60301Y-50719D01*
X60275Y-50732D01*
X60249Y-50758D01*
X60235Y-50798D01*
X60235Y-50824D01*
X60249Y-50863D01*
X60262Y-50876D01*
X60511Y-50994D02*
X60235Y-50994D01*
X60432Y-51086D01*
X60235Y-51178D01*
X60511Y-51178D01*
X60235Y-51283D02*
X60235Y-51454D01*
X60340Y-51362D01*
X60340Y-51401D01*
X60354Y-51427D01*
X60367Y-51441D01*
X60393Y-51454D01*
X60459Y-51454D01*
X60485Y-51441D01*
X60498Y-51427D01*
X60511Y-51401D01*
X60511Y-51322D01*
X60498Y-51296D01*
X60485Y-51283D01*
X60262Y-51559D02*
X60249Y-51572D01*
X60235Y-51598D01*
X60235Y-51664D01*
X60249Y-51690D01*
X60262Y-51703D01*
X60288Y-51716D01*
X60314Y-51716D01*
X60354Y-51703D01*
X60511Y-51546D01*
X60511Y-51716D01*
X60262Y-51821D02*
X60249Y-51834D01*
X60235Y-51861D01*
X60235Y-51926D01*
X60249Y-51952D01*
X60262Y-51966D01*
X60288Y-51979D01*
X60314Y-51979D01*
X60354Y-51966D01*
X60511Y-51808D01*
X60511Y-51979D01*
X60235Y-52228D02*
X60235Y-52097D01*
X60367Y-52084D01*
X60354Y-52097D01*
X60340Y-52123D01*
X60340Y-52189D01*
X60354Y-52215D01*
X60367Y-52228D01*
X60393Y-52241D01*
X60459Y-52241D01*
X60485Y-52228D01*
X60498Y-52215D01*
X60511Y-52189D01*
X60511Y-52123D01*
X60498Y-52097D01*
X60485Y-52084D01*
X60262Y-52346D02*
X60249Y-52359D01*
X60235Y-52385D01*
X60235Y-52451D01*
X60249Y-52477D01*
X60262Y-52490D01*
X60288Y-52504D01*
X60314Y-52504D01*
X60354Y-52490D01*
X60511Y-52333D01*
X60511Y-52504D01*
X60262Y-52609D02*
X60249Y-52622D01*
X60235Y-52648D01*
X60235Y-52714D01*
X60249Y-52740D01*
X60262Y-52753D01*
X60288Y-52766D01*
X60314Y-52766D01*
X60354Y-52753D01*
X60511Y-52595D01*
X60511Y-52766D01*
X60406Y-52884D02*
X60406Y-53094D01*
X60262Y-53212D02*
X60249Y-53225D01*
X60235Y-53252D01*
X60235Y-53317D01*
X60249Y-53343D01*
X60262Y-53357D01*
X60288Y-53370D01*
X60314Y-53370D01*
X60354Y-53357D01*
X60511Y-53199D01*
X60511Y-53370D01*
X60262Y-53475D02*
X60249Y-53488D01*
X60235Y-53514D01*
X60235Y-53580D01*
X60249Y-53606D01*
X60262Y-53619D01*
X60288Y-53632D01*
X60314Y-53632D01*
X60354Y-53619D01*
X60511Y-53462D01*
X60511Y-53632D01*
X60235Y-53803D02*
X60235Y-53829D01*
X60249Y-53855D01*
X60262Y-53868D01*
X60288Y-53882D01*
X60340Y-53895D01*
X60406Y-53895D01*
X60459Y-53882D01*
X60485Y-53868D01*
X60498Y-53855D01*
X60511Y-53829D01*
X60511Y-53803D01*
X60498Y-53777D01*
X60485Y-53763D01*
X60459Y-53750D01*
X60406Y-53737D01*
X60340Y-53737D01*
X60288Y-53750D01*
X60262Y-53763D01*
X60249Y-53777D01*
X60235Y-53803D01*
X60511Y-54013D02*
X60235Y-54013D01*
X60511Y-54170D02*
X60354Y-54052D01*
X60235Y-54170D02*
X60393Y-54013D01*
X60511Y-54420D02*
X60511Y-54288D01*
X60235Y-54288D01*
G54D16*
X108535Y-42873D02*
X108545Y-42863D01*
X108554Y-42835D01*
X108554Y-42817D01*
X108545Y-42788D01*
X108526Y-42770D01*
X108507Y-42760D01*
X108470Y-42751D01*
X108442Y-42751D01*
X108404Y-42760D01*
X108385Y-42770D01*
X108367Y-42788D01*
X108357Y-42817D01*
X108357Y-42835D01*
X108367Y-42863D01*
X108376Y-42873D01*
X108554Y-43060D02*
X108554Y-42948D01*
X108554Y-43004D02*
X108357Y-43004D01*
X108385Y-42985D01*
X108404Y-42967D01*
X108414Y-42948D01*
X108357Y-43126D02*
X108357Y-43257D01*
X108554Y-43173D01*
X108810Y-43060D02*
X108820Y-43051D01*
X108829Y-43023D01*
X108829Y-43004D01*
X108820Y-42976D01*
X108801Y-42957D01*
X108782Y-42948D01*
X108745Y-42939D01*
X108717Y-42939D01*
X108679Y-42948D01*
X108660Y-42957D01*
X108642Y-42976D01*
X108632Y-43004D01*
X108632Y-43023D01*
X108642Y-43051D01*
X108651Y-43060D01*
X105476Y-42354D02*
X105542Y-42260D01*
X105589Y-42354D02*
X105589Y-42157D01*
X105514Y-42157D01*
X105495Y-42167D01*
X105486Y-42176D01*
X105476Y-42195D01*
X105476Y-42223D01*
X105486Y-42242D01*
X105495Y-42251D01*
X105514Y-42260D01*
X105589Y-42260D01*
X105298Y-42157D02*
X105392Y-42157D01*
X105401Y-42251D01*
X105392Y-42242D01*
X105373Y-42232D01*
X105326Y-42232D01*
X105307Y-42242D01*
X105298Y-42251D01*
X105289Y-42270D01*
X105289Y-42317D01*
X105298Y-42335D01*
X105307Y-42345D01*
X105326Y-42354D01*
X105373Y-42354D01*
X105392Y-42345D01*
X105401Y-42335D01*
X105120Y-42223D02*
X105120Y-42354D01*
X105167Y-42148D02*
X105213Y-42289D01*
X105092Y-42289D01*
X105289Y-42629D02*
X105354Y-42535D01*
X105401Y-42629D02*
X105401Y-42432D01*
X105326Y-42432D01*
X105307Y-42442D01*
X105298Y-42451D01*
X105289Y-42470D01*
X105289Y-42498D01*
X105298Y-42517D01*
X105307Y-42526D01*
X105326Y-42535D01*
X105401Y-42535D01*
X106876Y-42354D02*
X106942Y-42260D01*
X106989Y-42354D02*
X106989Y-42157D01*
X106914Y-42157D01*
X106895Y-42167D01*
X106886Y-42176D01*
X106876Y-42195D01*
X106876Y-42223D01*
X106886Y-42242D01*
X106895Y-42251D01*
X106914Y-42260D01*
X106989Y-42260D01*
X106698Y-42157D02*
X106792Y-42157D01*
X106801Y-42251D01*
X106792Y-42242D01*
X106773Y-42232D01*
X106726Y-42232D01*
X106707Y-42242D01*
X106698Y-42251D01*
X106689Y-42270D01*
X106689Y-42317D01*
X106698Y-42335D01*
X106707Y-42345D01*
X106726Y-42354D01*
X106773Y-42354D01*
X106792Y-42345D01*
X106801Y-42335D01*
X106510Y-42157D02*
X106604Y-42157D01*
X106613Y-42251D01*
X106604Y-42242D01*
X106585Y-42232D01*
X106538Y-42232D01*
X106520Y-42242D01*
X106510Y-42251D01*
X106501Y-42270D01*
X106501Y-42317D01*
X106510Y-42335D01*
X106520Y-42345D01*
X106538Y-42354D01*
X106585Y-42354D01*
X106604Y-42345D01*
X106613Y-42335D01*
X106689Y-42629D02*
X106754Y-42535D01*
X106801Y-42629D02*
X106801Y-42432D01*
X106726Y-42432D01*
X106707Y-42442D01*
X106698Y-42451D01*
X106689Y-42470D01*
X106689Y-42498D01*
X106698Y-42517D01*
X106707Y-42526D01*
X106726Y-42535D01*
X106801Y-42535D01*
X95735Y-43748D02*
X95745Y-43738D01*
X95754Y-43710D01*
X95754Y-43692D01*
X95745Y-43663D01*
X95726Y-43645D01*
X95707Y-43635D01*
X95670Y-43626D01*
X95642Y-43626D01*
X95604Y-43635D01*
X95585Y-43645D01*
X95567Y-43663D01*
X95557Y-43692D01*
X95557Y-43710D01*
X95567Y-43738D01*
X95576Y-43748D01*
X95576Y-43823D02*
X95567Y-43832D01*
X95557Y-43851D01*
X95557Y-43898D01*
X95567Y-43917D01*
X95576Y-43926D01*
X95595Y-43935D01*
X95614Y-43935D01*
X95642Y-43926D01*
X95754Y-43814D01*
X95754Y-43935D01*
X95557Y-44001D02*
X95557Y-44123D01*
X95632Y-44057D01*
X95632Y-44086D01*
X95642Y-44104D01*
X95651Y-44114D01*
X95670Y-44123D01*
X95717Y-44123D01*
X95735Y-44114D01*
X95745Y-44104D01*
X95754Y-44086D01*
X95754Y-44029D01*
X95745Y-44011D01*
X95735Y-44001D01*
X96010Y-43935D02*
X96020Y-43926D01*
X96029Y-43898D01*
X96029Y-43879D01*
X96020Y-43851D01*
X96001Y-43832D01*
X95982Y-43823D01*
X95945Y-43814D01*
X95917Y-43814D01*
X95879Y-43823D01*
X95860Y-43832D01*
X95842Y-43851D01*
X95832Y-43879D01*
X95832Y-43898D01*
X95842Y-43926D01*
X95851Y-43935D01*
X101476Y-44735D02*
X101486Y-44745D01*
X101514Y-44754D01*
X101532Y-44754D01*
X101561Y-44745D01*
X101579Y-44726D01*
X101589Y-44707D01*
X101598Y-44670D01*
X101598Y-44642D01*
X101589Y-44604D01*
X101579Y-44585D01*
X101561Y-44567D01*
X101532Y-44557D01*
X101514Y-44557D01*
X101486Y-44567D01*
X101476Y-44576D01*
X101401Y-44576D02*
X101392Y-44567D01*
X101373Y-44557D01*
X101326Y-44557D01*
X101307Y-44567D01*
X101298Y-44576D01*
X101289Y-44595D01*
X101289Y-44614D01*
X101298Y-44642D01*
X101410Y-44754D01*
X101289Y-44754D01*
X101110Y-44557D02*
X101204Y-44557D01*
X101213Y-44651D01*
X101204Y-44642D01*
X101185Y-44632D01*
X101138Y-44632D01*
X101120Y-44642D01*
X101110Y-44651D01*
X101101Y-44670D01*
X101101Y-44717D01*
X101110Y-44735D01*
X101120Y-44745D01*
X101138Y-44754D01*
X101185Y-44754D01*
X101204Y-44745D01*
X101213Y-44735D01*
X101289Y-45010D02*
X101298Y-45020D01*
X101326Y-45029D01*
X101345Y-45029D01*
X101373Y-45020D01*
X101392Y-45001D01*
X101401Y-44982D01*
X101410Y-44945D01*
X101410Y-44917D01*
X101401Y-44879D01*
X101392Y-44860D01*
X101373Y-44842D01*
X101345Y-44832D01*
X101326Y-44832D01*
X101298Y-44842D01*
X101289Y-44851D01*
X89735Y-43773D02*
X89745Y-43763D01*
X89754Y-43735D01*
X89754Y-43717D01*
X89745Y-43688D01*
X89726Y-43670D01*
X89707Y-43660D01*
X89670Y-43651D01*
X89642Y-43651D01*
X89604Y-43660D01*
X89585Y-43670D01*
X89567Y-43688D01*
X89557Y-43717D01*
X89557Y-43735D01*
X89567Y-43763D01*
X89576Y-43773D01*
X89576Y-43848D02*
X89567Y-43857D01*
X89557Y-43876D01*
X89557Y-43923D01*
X89567Y-43942D01*
X89576Y-43951D01*
X89595Y-43960D01*
X89614Y-43960D01*
X89642Y-43951D01*
X89754Y-43839D01*
X89754Y-43960D01*
X89576Y-44036D02*
X89567Y-44045D01*
X89557Y-44064D01*
X89557Y-44111D01*
X89567Y-44129D01*
X89576Y-44139D01*
X89595Y-44148D01*
X89614Y-44148D01*
X89642Y-44139D01*
X89754Y-44026D01*
X89754Y-44148D01*
X89460Y-43960D02*
X89470Y-43951D01*
X89479Y-43923D01*
X89479Y-43904D01*
X89470Y-43876D01*
X89451Y-43857D01*
X89432Y-43848D01*
X89395Y-43839D01*
X89367Y-43839D01*
X89329Y-43848D01*
X89310Y-43857D01*
X89292Y-43876D01*
X89282Y-43904D01*
X89282Y-43923D01*
X89292Y-43951D01*
X89301Y-43960D01*
X96710Y-43748D02*
X96720Y-43738D01*
X96729Y-43710D01*
X96729Y-43692D01*
X96720Y-43663D01*
X96701Y-43645D01*
X96682Y-43635D01*
X96645Y-43626D01*
X96617Y-43626D01*
X96579Y-43635D01*
X96560Y-43645D01*
X96542Y-43663D01*
X96532Y-43692D01*
X96532Y-43710D01*
X96542Y-43738D01*
X96551Y-43748D01*
X96729Y-43935D02*
X96729Y-43823D01*
X96729Y-43879D02*
X96532Y-43879D01*
X96560Y-43860D01*
X96579Y-43842D01*
X96589Y-43823D01*
X96532Y-44114D02*
X96532Y-44020D01*
X96626Y-44011D01*
X96617Y-44020D01*
X96607Y-44039D01*
X96607Y-44086D01*
X96617Y-44104D01*
X96626Y-44114D01*
X96645Y-44123D01*
X96692Y-44123D01*
X96710Y-44114D01*
X96720Y-44104D01*
X96729Y-44086D01*
X96729Y-44039D01*
X96720Y-44020D01*
X96710Y-44011D01*
X96985Y-43935D02*
X96995Y-43926D01*
X97004Y-43898D01*
X97004Y-43879D01*
X96995Y-43851D01*
X96976Y-43832D01*
X96957Y-43823D01*
X96920Y-43814D01*
X96892Y-43814D01*
X96854Y-43823D01*
X96835Y-43832D01*
X96817Y-43851D01*
X96807Y-43879D01*
X96807Y-43898D01*
X96817Y-43926D01*
X96826Y-43935D01*
X99785Y-43523D02*
X99795Y-43513D01*
X99804Y-43485D01*
X99804Y-43467D01*
X99795Y-43438D01*
X99776Y-43420D01*
X99757Y-43410D01*
X99720Y-43401D01*
X99692Y-43401D01*
X99654Y-43410D01*
X99635Y-43420D01*
X99617Y-43438D01*
X99607Y-43467D01*
X99607Y-43485D01*
X99617Y-43513D01*
X99626Y-43523D01*
X99804Y-43710D02*
X99804Y-43598D01*
X99804Y-43654D02*
X99607Y-43654D01*
X99635Y-43635D01*
X99654Y-43617D01*
X99664Y-43598D01*
X99607Y-43879D02*
X99607Y-43842D01*
X99617Y-43823D01*
X99626Y-43814D01*
X99654Y-43795D01*
X99692Y-43786D01*
X99767Y-43786D01*
X99785Y-43795D01*
X99795Y-43804D01*
X99804Y-43823D01*
X99804Y-43861D01*
X99795Y-43879D01*
X99785Y-43889D01*
X99767Y-43898D01*
X99720Y-43898D01*
X99701Y-43889D01*
X99692Y-43879D01*
X99682Y-43861D01*
X99682Y-43823D01*
X99692Y-43804D01*
X99701Y-43795D01*
X99720Y-43786D01*
X100060Y-43710D02*
X100070Y-43701D01*
X100079Y-43673D01*
X100079Y-43654D01*
X100070Y-43626D01*
X100051Y-43607D01*
X100032Y-43598D01*
X99995Y-43589D01*
X99967Y-43589D01*
X99929Y-43598D01*
X99910Y-43607D01*
X99892Y-43626D01*
X99882Y-43654D01*
X99882Y-43673D01*
X99892Y-43701D01*
X99901Y-43710D01*
X103876Y-42354D02*
X103942Y-42260D01*
X103989Y-42354D02*
X103989Y-42157D01*
X103914Y-42157D01*
X103895Y-42167D01*
X103886Y-42176D01*
X103876Y-42195D01*
X103876Y-42223D01*
X103886Y-42242D01*
X103895Y-42251D01*
X103914Y-42260D01*
X103989Y-42260D01*
X103698Y-42157D02*
X103792Y-42157D01*
X103801Y-42251D01*
X103792Y-42242D01*
X103773Y-42232D01*
X103726Y-42232D01*
X103707Y-42242D01*
X103698Y-42251D01*
X103689Y-42270D01*
X103689Y-42317D01*
X103698Y-42335D01*
X103707Y-42345D01*
X103726Y-42354D01*
X103773Y-42354D01*
X103792Y-42345D01*
X103801Y-42335D01*
X103623Y-42157D02*
X103501Y-42157D01*
X103567Y-42232D01*
X103538Y-42232D01*
X103520Y-42242D01*
X103510Y-42251D01*
X103501Y-42270D01*
X103501Y-42317D01*
X103510Y-42335D01*
X103520Y-42345D01*
X103538Y-42354D01*
X103595Y-42354D01*
X103613Y-42345D01*
X103623Y-42335D01*
X103689Y-42629D02*
X103754Y-42535D01*
X103801Y-42629D02*
X103801Y-42432D01*
X103726Y-42432D01*
X103707Y-42442D01*
X103698Y-42451D01*
X103689Y-42470D01*
X103689Y-42498D01*
X103698Y-42517D01*
X103707Y-42526D01*
X103726Y-42535D01*
X103801Y-42535D01*
X68301Y-41104D02*
X68367Y-41010D01*
X68414Y-41104D02*
X68414Y-40907D01*
X68339Y-40907D01*
X68320Y-40917D01*
X68311Y-40926D01*
X68301Y-40945D01*
X68301Y-40973D01*
X68311Y-40992D01*
X68320Y-41001D01*
X68339Y-41010D01*
X68414Y-41010D01*
X68132Y-40973D02*
X68132Y-41104D01*
X68179Y-40898D02*
X68226Y-41039D01*
X68104Y-41039D01*
X67926Y-41104D02*
X68038Y-41104D01*
X67982Y-41104D02*
X67982Y-40907D01*
X68001Y-40935D01*
X68020Y-40954D01*
X68038Y-40964D01*
X68114Y-41379D02*
X68179Y-41285D01*
X68226Y-41379D02*
X68226Y-41182D01*
X68151Y-41182D01*
X68132Y-41192D01*
X68123Y-41201D01*
X68114Y-41220D01*
X68114Y-41248D01*
X68123Y-41267D01*
X68132Y-41276D01*
X68151Y-41285D01*
X68226Y-41285D01*
X66401Y-41104D02*
X66467Y-41010D01*
X66514Y-41104D02*
X66514Y-40907D01*
X66439Y-40907D01*
X66420Y-40917D01*
X66411Y-40926D01*
X66401Y-40945D01*
X66401Y-40973D01*
X66411Y-40992D01*
X66420Y-41001D01*
X66439Y-41010D01*
X66514Y-41010D01*
X66232Y-40973D02*
X66232Y-41104D01*
X66279Y-40898D02*
X66326Y-41039D01*
X66204Y-41039D01*
X66092Y-40907D02*
X66073Y-40907D01*
X66054Y-40917D01*
X66045Y-40926D01*
X66035Y-40945D01*
X66026Y-40982D01*
X66026Y-41029D01*
X66035Y-41067D01*
X66045Y-41085D01*
X66054Y-41095D01*
X66073Y-41104D01*
X66092Y-41104D01*
X66110Y-41095D01*
X66120Y-41085D01*
X66129Y-41067D01*
X66138Y-41029D01*
X66138Y-40982D01*
X66129Y-40945D01*
X66120Y-40926D01*
X66110Y-40917D01*
X66092Y-40907D01*
X66214Y-41379D02*
X66279Y-41285D01*
X66326Y-41379D02*
X66326Y-41182D01*
X66251Y-41182D01*
X66232Y-41192D01*
X66223Y-41201D01*
X66214Y-41220D01*
X66214Y-41248D01*
X66223Y-41267D01*
X66232Y-41276D01*
X66251Y-41285D01*
X66326Y-41285D01*
X66401Y-40504D02*
X66467Y-40410D01*
X66514Y-40504D02*
X66514Y-40307D01*
X66439Y-40307D01*
X66420Y-40317D01*
X66411Y-40326D01*
X66401Y-40345D01*
X66401Y-40373D01*
X66411Y-40392D01*
X66420Y-40401D01*
X66439Y-40410D01*
X66514Y-40410D01*
X66335Y-40307D02*
X66214Y-40307D01*
X66279Y-40382D01*
X66251Y-40382D01*
X66232Y-40392D01*
X66223Y-40401D01*
X66214Y-40420D01*
X66214Y-40467D01*
X66223Y-40485D01*
X66232Y-40495D01*
X66251Y-40504D01*
X66307Y-40504D01*
X66326Y-40495D01*
X66335Y-40485D01*
X66120Y-40504D02*
X66082Y-40504D01*
X66063Y-40495D01*
X66054Y-40485D01*
X66035Y-40457D01*
X66026Y-40420D01*
X66026Y-40345D01*
X66035Y-40326D01*
X66045Y-40317D01*
X66063Y-40307D01*
X66101Y-40307D01*
X66120Y-40317D01*
X66129Y-40326D01*
X66138Y-40345D01*
X66138Y-40392D01*
X66129Y-40410D01*
X66120Y-40420D01*
X66101Y-40429D01*
X66063Y-40429D01*
X66045Y-40420D01*
X66035Y-40410D01*
X66026Y-40392D01*
X66214Y-40229D02*
X66279Y-40135D01*
X66326Y-40229D02*
X66326Y-40032D01*
X66251Y-40032D01*
X66232Y-40042D01*
X66223Y-40051D01*
X66214Y-40070D01*
X66214Y-40098D01*
X66223Y-40117D01*
X66232Y-40126D01*
X66251Y-40135D01*
X66326Y-40135D01*
X68301Y-40504D02*
X68367Y-40410D01*
X68414Y-40504D02*
X68414Y-40307D01*
X68339Y-40307D01*
X68320Y-40317D01*
X68311Y-40326D01*
X68301Y-40345D01*
X68301Y-40373D01*
X68311Y-40392D01*
X68320Y-40401D01*
X68339Y-40410D01*
X68414Y-40410D01*
X68235Y-40307D02*
X68114Y-40307D01*
X68179Y-40382D01*
X68151Y-40382D01*
X68132Y-40392D01*
X68123Y-40401D01*
X68114Y-40420D01*
X68114Y-40467D01*
X68123Y-40485D01*
X68132Y-40495D01*
X68151Y-40504D01*
X68207Y-40504D01*
X68226Y-40495D01*
X68235Y-40485D01*
X68001Y-40392D02*
X68020Y-40382D01*
X68029Y-40373D01*
X68038Y-40354D01*
X68038Y-40345D01*
X68029Y-40326D01*
X68020Y-40317D01*
X68001Y-40307D01*
X67963Y-40307D01*
X67945Y-40317D01*
X67935Y-40326D01*
X67926Y-40345D01*
X67926Y-40354D01*
X67935Y-40373D01*
X67945Y-40382D01*
X67963Y-40392D01*
X68001Y-40392D01*
X68020Y-40401D01*
X68029Y-40410D01*
X68038Y-40429D01*
X68038Y-40467D01*
X68029Y-40485D01*
X68020Y-40495D01*
X68001Y-40504D01*
X67963Y-40504D01*
X67945Y-40495D01*
X67935Y-40485D01*
X67926Y-40467D01*
X67926Y-40429D01*
X67935Y-40410D01*
X67945Y-40401D01*
X67963Y-40392D01*
X68114Y-40229D02*
X68179Y-40135D01*
X68226Y-40229D02*
X68226Y-40032D01*
X68151Y-40032D01*
X68132Y-40042D01*
X68123Y-40051D01*
X68114Y-40070D01*
X68114Y-40098D01*
X68123Y-40117D01*
X68132Y-40126D01*
X68151Y-40135D01*
X68226Y-40135D01*
X88735Y-43773D02*
X88745Y-43763D01*
X88754Y-43735D01*
X88754Y-43717D01*
X88745Y-43688D01*
X88726Y-43670D01*
X88707Y-43660D01*
X88670Y-43651D01*
X88642Y-43651D01*
X88604Y-43660D01*
X88585Y-43670D01*
X88567Y-43688D01*
X88557Y-43717D01*
X88557Y-43735D01*
X88567Y-43763D01*
X88576Y-43773D01*
X88754Y-43960D02*
X88754Y-43848D01*
X88754Y-43904D02*
X88557Y-43904D01*
X88585Y-43885D01*
X88604Y-43867D01*
X88614Y-43848D01*
X88623Y-44129D02*
X88754Y-44129D01*
X88548Y-44082D02*
X88689Y-44036D01*
X88689Y-44157D01*
X88460Y-43960D02*
X88470Y-43951D01*
X88479Y-43923D01*
X88479Y-43904D01*
X88470Y-43876D01*
X88451Y-43857D01*
X88432Y-43848D01*
X88395Y-43839D01*
X88367Y-43839D01*
X88329Y-43848D01*
X88310Y-43857D01*
X88292Y-43876D01*
X88282Y-43904D01*
X88282Y-43923D01*
X88292Y-43951D01*
X88301Y-43960D01*
X104535Y-44523D02*
X104545Y-44513D01*
X104554Y-44485D01*
X104554Y-44467D01*
X104545Y-44438D01*
X104526Y-44420D01*
X104507Y-44410D01*
X104470Y-44401D01*
X104442Y-44401D01*
X104404Y-44410D01*
X104385Y-44420D01*
X104367Y-44438D01*
X104357Y-44467D01*
X104357Y-44485D01*
X104367Y-44513D01*
X104376Y-44523D01*
X104376Y-44598D02*
X104367Y-44607D01*
X104357Y-44626D01*
X104357Y-44673D01*
X104367Y-44692D01*
X104376Y-44701D01*
X104395Y-44710D01*
X104414Y-44710D01*
X104442Y-44701D01*
X104554Y-44589D01*
X104554Y-44710D01*
X104357Y-44832D02*
X104357Y-44851D01*
X104367Y-44870D01*
X104376Y-44879D01*
X104395Y-44889D01*
X104432Y-44898D01*
X104479Y-44898D01*
X104517Y-44889D01*
X104535Y-44879D01*
X104545Y-44870D01*
X104554Y-44851D01*
X104554Y-44832D01*
X104545Y-44814D01*
X104535Y-44804D01*
X104517Y-44795D01*
X104479Y-44786D01*
X104432Y-44786D01*
X104395Y-44795D01*
X104376Y-44804D01*
X104367Y-44814D01*
X104357Y-44832D01*
X104260Y-44710D02*
X104270Y-44701D01*
X104279Y-44673D01*
X104279Y-44654D01*
X104270Y-44626D01*
X104251Y-44607D01*
X104232Y-44598D01*
X104195Y-44589D01*
X104167Y-44589D01*
X104129Y-44598D01*
X104110Y-44607D01*
X104092Y-44626D01*
X104082Y-44654D01*
X104082Y-44673D01*
X104092Y-44701D01*
X104101Y-44710D01*
X94735Y-43748D02*
X94745Y-43738D01*
X94754Y-43710D01*
X94754Y-43692D01*
X94745Y-43663D01*
X94726Y-43645D01*
X94707Y-43635D01*
X94670Y-43626D01*
X94642Y-43626D01*
X94604Y-43635D01*
X94585Y-43645D01*
X94567Y-43663D01*
X94557Y-43692D01*
X94557Y-43710D01*
X94567Y-43738D01*
X94576Y-43748D01*
X94754Y-43935D02*
X94754Y-43823D01*
X94754Y-43879D02*
X94557Y-43879D01*
X94585Y-43860D01*
X94604Y-43842D01*
X94614Y-43823D01*
X94754Y-44029D02*
X94754Y-44067D01*
X94745Y-44086D01*
X94735Y-44095D01*
X94707Y-44114D01*
X94670Y-44123D01*
X94595Y-44123D01*
X94576Y-44114D01*
X94567Y-44104D01*
X94557Y-44086D01*
X94557Y-44048D01*
X94567Y-44029D01*
X94576Y-44020D01*
X94595Y-44011D01*
X94642Y-44011D01*
X94660Y-44020D01*
X94670Y-44029D01*
X94679Y-44048D01*
X94679Y-44086D01*
X94670Y-44104D01*
X94660Y-44114D01*
X94642Y-44123D01*
X95010Y-43935D02*
X95020Y-43926D01*
X95029Y-43898D01*
X95029Y-43879D01*
X95020Y-43851D01*
X95001Y-43832D01*
X94982Y-43823D01*
X94945Y-43814D01*
X94917Y-43814D01*
X94879Y-43823D01*
X94860Y-43832D01*
X94842Y-43851D01*
X94832Y-43879D01*
X94832Y-43898D01*
X94842Y-43926D01*
X94851Y-43935D01*
X90735Y-43773D02*
X90745Y-43763D01*
X90754Y-43735D01*
X90754Y-43717D01*
X90745Y-43688D01*
X90726Y-43670D01*
X90707Y-43660D01*
X90670Y-43651D01*
X90642Y-43651D01*
X90604Y-43660D01*
X90585Y-43670D01*
X90567Y-43688D01*
X90557Y-43717D01*
X90557Y-43735D01*
X90567Y-43763D01*
X90576Y-43773D01*
X90754Y-43960D02*
X90754Y-43848D01*
X90754Y-43904D02*
X90557Y-43904D01*
X90585Y-43885D01*
X90604Y-43867D01*
X90614Y-43848D01*
X90642Y-44073D02*
X90632Y-44054D01*
X90623Y-44045D01*
X90604Y-44036D01*
X90595Y-44036D01*
X90576Y-44045D01*
X90567Y-44054D01*
X90557Y-44073D01*
X90557Y-44111D01*
X90567Y-44129D01*
X90576Y-44139D01*
X90595Y-44148D01*
X90604Y-44148D01*
X90623Y-44139D01*
X90632Y-44129D01*
X90642Y-44111D01*
X90642Y-44073D01*
X90651Y-44054D01*
X90660Y-44045D01*
X90679Y-44036D01*
X90717Y-44036D01*
X90735Y-44045D01*
X90745Y-44054D01*
X90754Y-44073D01*
X90754Y-44111D01*
X90745Y-44129D01*
X90735Y-44139D01*
X90717Y-44148D01*
X90679Y-44148D01*
X90660Y-44139D01*
X90651Y-44129D01*
X90642Y-44111D01*
X90460Y-43960D02*
X90470Y-43951D01*
X90479Y-43923D01*
X90479Y-43904D01*
X90470Y-43876D01*
X90451Y-43857D01*
X90432Y-43848D01*
X90395Y-43839D01*
X90367Y-43839D01*
X90329Y-43848D01*
X90310Y-43857D01*
X90292Y-43876D01*
X90282Y-43904D01*
X90282Y-43923D01*
X90292Y-43951D01*
X90301Y-43960D01*
G54D14*
X89621Y-40585D02*
X89321Y-40585D01*
X89321Y-40657D01*
X89335Y-40700D01*
X89364Y-40728D01*
X89392Y-40742D01*
X89450Y-40757D01*
X89492Y-40757D01*
X89550Y-40742D01*
X89578Y-40728D01*
X89607Y-40700D01*
X89621Y-40657D01*
X89621Y-40585D01*
X89621Y-41042D02*
X89621Y-40871D01*
X89621Y-40957D02*
X89321Y-40957D01*
X89364Y-40928D01*
X89392Y-40900D01*
X89407Y-40871D01*
X89321Y-41228D02*
X89321Y-41257D01*
X89335Y-41285D01*
X89350Y-41300D01*
X89378Y-41314D01*
X89435Y-41328D01*
X89507Y-41328D01*
X89564Y-41314D01*
X89592Y-41300D01*
X89607Y-41285D01*
X89621Y-41257D01*
X89621Y-41228D01*
X89607Y-41200D01*
X89592Y-41185D01*
X89564Y-41171D01*
X89507Y-41157D01*
X89435Y-41157D01*
X89378Y-41171D01*
X89350Y-41185D01*
X89335Y-41200D01*
X89321Y-41228D01*
X106214Y-44221D02*
X106214Y-43921D01*
X106142Y-43921D01*
X106100Y-43935D01*
X106071Y-43964D01*
X106057Y-43992D01*
X106042Y-44050D01*
X106042Y-44092D01*
X106057Y-44150D01*
X106071Y-44178D01*
X106100Y-44207D01*
X106142Y-44221D01*
X106214Y-44221D01*
X105757Y-44221D02*
X105928Y-44221D01*
X105842Y-44221D02*
X105842Y-43921D01*
X105871Y-43964D01*
X105900Y-43992D01*
X105928Y-44007D01*
X105657Y-43921D02*
X105471Y-43921D01*
X105571Y-44035D01*
X105528Y-44035D01*
X105500Y-44050D01*
X105485Y-44064D01*
X105471Y-44092D01*
X105471Y-44164D01*
X105485Y-44192D01*
X105500Y-44207D01*
X105528Y-44221D01*
X105614Y-44221D01*
X105642Y-44207D01*
X105657Y-44192D01*
X104171Y-44685D02*
X103871Y-44685D01*
X103871Y-44757D01*
X103885Y-44800D01*
X103914Y-44828D01*
X103942Y-44842D01*
X104000Y-44857D01*
X104042Y-44857D01*
X104100Y-44842D01*
X104128Y-44828D01*
X104157Y-44800D01*
X104171Y-44757D01*
X104171Y-44685D01*
X104171Y-45142D02*
X104171Y-44971D01*
X104171Y-45057D02*
X103871Y-45057D01*
X103914Y-45028D01*
X103942Y-45000D01*
X103957Y-44971D01*
X103900Y-45257D02*
X103885Y-45271D01*
X103871Y-45300D01*
X103871Y-45371D01*
X103885Y-45400D01*
X103900Y-45414D01*
X103928Y-45428D01*
X103957Y-45428D01*
X104000Y-45414D01*
X104171Y-45242D01*
X104171Y-45428D01*
X94271Y-40535D02*
X93971Y-40535D01*
X93971Y-40607D01*
X93985Y-40650D01*
X94014Y-40678D01*
X94042Y-40692D01*
X94100Y-40707D01*
X94142Y-40707D01*
X94200Y-40692D01*
X94228Y-40678D01*
X94257Y-40650D01*
X94271Y-40607D01*
X94271Y-40535D01*
X94271Y-40992D02*
X94271Y-40821D01*
X94271Y-40907D02*
X93971Y-40907D01*
X94014Y-40878D01*
X94042Y-40850D01*
X94057Y-40821D01*
X94271Y-41278D02*
X94271Y-41107D01*
X94271Y-41192D02*
X93971Y-41192D01*
X94014Y-41164D01*
X94042Y-41135D01*
X94057Y-41107D01*
X97021Y-40071D02*
X97021Y-39771D01*
X96950Y-39771D01*
X96907Y-39785D01*
X96878Y-39814D01*
X96864Y-39842D01*
X96850Y-39900D01*
X96850Y-39942D01*
X96864Y-40000D01*
X96878Y-40028D01*
X96907Y-40057D01*
X96950Y-40071D01*
X97021Y-40071D01*
X96750Y-39771D02*
X96550Y-39771D01*
X96678Y-40071D01*
X101321Y-42328D02*
X101021Y-42328D01*
X101021Y-42400D01*
X101035Y-42442D01*
X101064Y-42471D01*
X101092Y-42485D01*
X101150Y-42500D01*
X101192Y-42500D01*
X101250Y-42485D01*
X101278Y-42471D01*
X101307Y-42442D01*
X101321Y-42400D01*
X101321Y-42328D01*
X101150Y-42671D02*
X101135Y-42642D01*
X101121Y-42628D01*
X101092Y-42614D01*
X101078Y-42614D01*
X101050Y-42628D01*
X101035Y-42642D01*
X101021Y-42671D01*
X101021Y-42728D01*
X101035Y-42757D01*
X101050Y-42771D01*
X101078Y-42785D01*
X101092Y-42785D01*
X101121Y-42771D01*
X101135Y-42757D01*
X101150Y-42728D01*
X101150Y-42671D01*
X101164Y-42642D01*
X101178Y-42628D01*
X101207Y-42614D01*
X101264Y-42614D01*
X101292Y-42628D01*
X101307Y-42642D01*
X101321Y-42671D01*
X101321Y-42728D01*
X101307Y-42757D01*
X101292Y-42771D01*
X101264Y-42785D01*
X101207Y-42785D01*
X101178Y-42771D01*
X101164Y-42757D01*
X101150Y-42728D01*
X89421Y-40728D02*
X89121Y-40728D01*
X89121Y-40800D01*
X89135Y-40842D01*
X89164Y-40871D01*
X89192Y-40885D01*
X89250Y-40900D01*
X89292Y-40900D01*
X89350Y-40885D01*
X89378Y-40871D01*
X89407Y-40842D01*
X89421Y-40800D01*
X89421Y-40728D01*
X89121Y-41157D02*
X89121Y-41100D01*
X89135Y-41071D01*
X89150Y-41057D01*
X89192Y-41028D01*
X89250Y-41014D01*
X89364Y-41014D01*
X89392Y-41028D01*
X89407Y-41042D01*
X89421Y-41071D01*
X89421Y-41128D01*
X89407Y-41157D01*
X89392Y-41171D01*
X89364Y-41185D01*
X89292Y-41185D01*
X89264Y-41171D01*
X89250Y-41157D01*
X89235Y-41128D01*
X89235Y-41071D01*
X89250Y-41042D01*
X89264Y-41028D01*
X89292Y-41014D01*
X107721Y-44221D02*
X107721Y-43921D01*
X107650Y-43921D01*
X107607Y-43935D01*
X107578Y-43964D01*
X107564Y-43992D01*
X107550Y-44050D01*
X107550Y-44092D01*
X107564Y-44150D01*
X107578Y-44178D01*
X107607Y-44207D01*
X107650Y-44221D01*
X107721Y-44221D01*
X107407Y-44221D02*
X107350Y-44221D01*
X107321Y-44207D01*
X107307Y-44192D01*
X107278Y-44150D01*
X107264Y-44092D01*
X107264Y-43978D01*
X107278Y-43950D01*
X107292Y-43935D01*
X107321Y-43921D01*
X107378Y-43921D01*
X107407Y-43935D01*
X107421Y-43950D01*
X107435Y-43978D01*
X107435Y-44050D01*
X107421Y-44078D01*
X107407Y-44092D01*
X107378Y-44107D01*
X107321Y-44107D01*
X107292Y-44092D01*
X107278Y-44078D01*
X107264Y-44050D01*
G54D16*
X112432Y-55835D02*
X112442Y-55845D01*
X112470Y-55854D01*
X112489Y-55854D01*
X112517Y-55845D01*
X112536Y-55826D01*
X112545Y-55807D01*
X112554Y-55770D01*
X112554Y-55742D01*
X112545Y-55704D01*
X112536Y-55685D01*
X112517Y-55667D01*
X112489Y-55657D01*
X112470Y-55657D01*
X112442Y-55667D01*
X112432Y-55676D01*
X112357Y-55676D02*
X112348Y-55667D01*
X112329Y-55657D01*
X112282Y-55657D01*
X112263Y-55667D01*
X112254Y-55676D01*
X112245Y-55695D01*
X112245Y-55714D01*
X112254Y-55742D01*
X112367Y-55854D01*
X112245Y-55854D01*
X112432Y-56129D02*
X112545Y-56129D01*
X112489Y-56129D02*
X112489Y-55932D01*
X112507Y-55960D01*
X112526Y-55979D01*
X112545Y-55989D01*
X112263Y-55998D02*
X112263Y-56129D01*
X112348Y-55998D02*
X112348Y-56101D01*
X112339Y-56120D01*
X112320Y-56129D01*
X112292Y-56129D01*
X112273Y-56120D01*
X112263Y-56110D01*
X93429Y-55148D02*
X93335Y-55082D01*
X93429Y-55035D02*
X93232Y-55035D01*
X93232Y-55110D01*
X93242Y-55129D01*
X93251Y-55138D01*
X93270Y-55148D01*
X93298Y-55148D01*
X93317Y-55138D01*
X93326Y-55129D01*
X93335Y-55110D01*
X93335Y-55035D01*
X93429Y-55335D02*
X93429Y-55223D01*
X93429Y-55279D02*
X93232Y-55279D01*
X93260Y-55260D01*
X93279Y-55242D01*
X93289Y-55223D01*
X93298Y-55504D02*
X93429Y-55504D01*
X93223Y-55457D02*
X93364Y-55411D01*
X93364Y-55532D01*
X93704Y-55237D02*
X93704Y-55124D01*
X93704Y-55181D02*
X93507Y-55181D01*
X93535Y-55162D01*
X93554Y-55143D01*
X93564Y-55124D01*
X93507Y-55415D02*
X93507Y-55321D01*
X93601Y-55312D01*
X93592Y-55321D01*
X93582Y-55340D01*
X93582Y-55387D01*
X93592Y-55406D01*
X93601Y-55415D01*
X93620Y-55425D01*
X93667Y-55425D01*
X93685Y-55415D01*
X93695Y-55406D01*
X93704Y-55387D01*
X93704Y-55340D01*
X93695Y-55321D01*
X93685Y-55312D01*
X92307Y-48229D02*
X92401Y-48229D01*
X92401Y-48032D01*
X92148Y-48032D02*
X92242Y-48032D01*
X92251Y-48126D01*
X92242Y-48117D01*
X92223Y-48107D01*
X92176Y-48107D01*
X92157Y-48117D01*
X92148Y-48126D01*
X92138Y-48145D01*
X92138Y-48192D01*
X92148Y-48210D01*
X92157Y-48220D01*
X92176Y-48229D01*
X92223Y-48229D01*
X92242Y-48220D01*
X92251Y-48210D01*
X92955Y-48504D02*
X92955Y-48307D01*
X92861Y-48504D02*
X92861Y-48307D01*
X92748Y-48504D01*
X92748Y-48307D01*
X92654Y-48504D02*
X92654Y-48307D01*
X92608Y-48307D01*
X92579Y-48317D01*
X92561Y-48335D01*
X92551Y-48354D01*
X92542Y-48392D01*
X92542Y-48420D01*
X92551Y-48457D01*
X92561Y-48476D01*
X92579Y-48495D01*
X92608Y-48504D01*
X92654Y-48504D01*
X92457Y-48307D02*
X92457Y-48467D01*
X92448Y-48485D01*
X92439Y-48495D01*
X92420Y-48504D01*
X92382Y-48504D01*
X92364Y-48495D01*
X92354Y-48485D01*
X92345Y-48467D01*
X92345Y-48307D01*
X92138Y-48485D02*
X92148Y-48495D01*
X92176Y-48504D01*
X92195Y-48504D01*
X92223Y-48495D01*
X92242Y-48476D01*
X92251Y-48457D01*
X92260Y-48420D01*
X92260Y-48392D01*
X92251Y-48354D01*
X92242Y-48335D01*
X92223Y-48317D01*
X92195Y-48307D01*
X92176Y-48307D01*
X92148Y-48317D01*
X92138Y-48326D01*
X92082Y-48307D02*
X91970Y-48307D01*
X92026Y-48504D02*
X92026Y-48307D01*
X91866Y-48307D02*
X91829Y-48307D01*
X91810Y-48317D01*
X91791Y-48335D01*
X91782Y-48373D01*
X91782Y-48439D01*
X91791Y-48476D01*
X91810Y-48495D01*
X91829Y-48504D01*
X91866Y-48504D01*
X91885Y-48495D01*
X91904Y-48476D01*
X91913Y-48439D01*
X91913Y-48373D01*
X91904Y-48335D01*
X91885Y-48317D01*
X91866Y-48307D01*
X91585Y-48504D02*
X91651Y-48410D01*
X91698Y-48504D02*
X91698Y-48307D01*
X91623Y-48307D01*
X91604Y-48317D01*
X91594Y-48326D01*
X91585Y-48345D01*
X91585Y-48373D01*
X91594Y-48392D01*
X91604Y-48401D01*
X91623Y-48410D01*
X91698Y-48410D01*
X80339Y-44873D02*
X80245Y-44807D01*
X80339Y-44760D02*
X80142Y-44760D01*
X80142Y-44835D01*
X80152Y-44854D01*
X80161Y-44863D01*
X80180Y-44873D01*
X80208Y-44873D01*
X80227Y-44863D01*
X80236Y-44854D01*
X80245Y-44835D01*
X80245Y-44760D01*
X80208Y-45042D02*
X80339Y-45042D01*
X80133Y-44995D02*
X80274Y-44948D01*
X80274Y-45070D01*
X80142Y-45229D02*
X80142Y-45192D01*
X80152Y-45173D01*
X80161Y-45164D01*
X80189Y-45145D01*
X80227Y-45136D01*
X80302Y-45136D01*
X80320Y-45145D01*
X80330Y-45154D01*
X80339Y-45173D01*
X80339Y-45211D01*
X80330Y-45229D01*
X80320Y-45239D01*
X80302Y-45248D01*
X80255Y-45248D01*
X80236Y-45239D01*
X80227Y-45229D01*
X80217Y-45211D01*
X80217Y-45173D01*
X80227Y-45154D01*
X80236Y-45145D01*
X80255Y-45136D01*
X75739Y-45173D02*
X75645Y-45107D01*
X75739Y-45060D02*
X75542Y-45060D01*
X75542Y-45135D01*
X75552Y-45154D01*
X75561Y-45163D01*
X75580Y-45173D01*
X75608Y-45173D01*
X75627Y-45163D01*
X75636Y-45154D01*
X75645Y-45135D01*
X75645Y-45060D01*
X75561Y-45248D02*
X75552Y-45257D01*
X75542Y-45276D01*
X75542Y-45323D01*
X75552Y-45342D01*
X75561Y-45351D01*
X75580Y-45360D01*
X75599Y-45360D01*
X75627Y-45351D01*
X75739Y-45239D01*
X75739Y-45360D01*
X75627Y-45473D02*
X75617Y-45454D01*
X75608Y-45445D01*
X75589Y-45436D01*
X75580Y-45436D01*
X75561Y-45445D01*
X75552Y-45454D01*
X75542Y-45473D01*
X75542Y-45511D01*
X75552Y-45529D01*
X75561Y-45539D01*
X75580Y-45548D01*
X75589Y-45548D01*
X75608Y-45539D01*
X75617Y-45529D01*
X75627Y-45511D01*
X75627Y-45473D01*
X75636Y-45454D01*
X75645Y-45445D01*
X75664Y-45436D01*
X75702Y-45436D01*
X75720Y-45445D01*
X75730Y-45454D01*
X75739Y-45473D01*
X75739Y-45511D01*
X75730Y-45529D01*
X75720Y-45539D01*
X75702Y-45548D01*
X75664Y-45548D01*
X75645Y-45539D01*
X75636Y-45529D01*
X75627Y-45511D01*
X72739Y-45723D02*
X72645Y-45657D01*
X72739Y-45610D02*
X72542Y-45610D01*
X72542Y-45685D01*
X72552Y-45704D01*
X72561Y-45713D01*
X72580Y-45723D01*
X72608Y-45723D01*
X72627Y-45713D01*
X72636Y-45704D01*
X72645Y-45685D01*
X72645Y-45610D01*
X72561Y-45798D02*
X72552Y-45807D01*
X72542Y-45826D01*
X72542Y-45873D01*
X72552Y-45892D01*
X72561Y-45901D01*
X72580Y-45910D01*
X72599Y-45910D01*
X72627Y-45901D01*
X72739Y-45789D01*
X72739Y-45910D01*
X72542Y-46089D02*
X72542Y-45995D01*
X72636Y-45986D01*
X72627Y-45995D01*
X72617Y-46014D01*
X72617Y-46061D01*
X72627Y-46079D01*
X72636Y-46089D01*
X72655Y-46098D01*
X72702Y-46098D01*
X72720Y-46089D01*
X72730Y-46079D01*
X72739Y-46061D01*
X72739Y-46014D01*
X72730Y-45995D01*
X72720Y-45986D01*
X73739Y-45173D02*
X73645Y-45107D01*
X73739Y-45060D02*
X73542Y-45060D01*
X73542Y-45135D01*
X73552Y-45154D01*
X73561Y-45163D01*
X73580Y-45173D01*
X73608Y-45173D01*
X73627Y-45163D01*
X73636Y-45154D01*
X73645Y-45135D01*
X73645Y-45060D01*
X73561Y-45248D02*
X73552Y-45257D01*
X73542Y-45276D01*
X73542Y-45323D01*
X73552Y-45342D01*
X73561Y-45351D01*
X73580Y-45360D01*
X73599Y-45360D01*
X73627Y-45351D01*
X73739Y-45239D01*
X73739Y-45360D01*
X73542Y-45529D02*
X73542Y-45492D01*
X73552Y-45473D01*
X73561Y-45464D01*
X73589Y-45445D01*
X73627Y-45436D01*
X73702Y-45436D01*
X73720Y-45445D01*
X73730Y-45454D01*
X73739Y-45473D01*
X73739Y-45511D01*
X73730Y-45529D01*
X73720Y-45539D01*
X73702Y-45548D01*
X73655Y-45548D01*
X73636Y-45539D01*
X73627Y-45529D01*
X73617Y-45511D01*
X73617Y-45473D01*
X73627Y-45454D01*
X73636Y-45445D01*
X73655Y-45436D01*
X79339Y-45048D02*
X79245Y-44982D01*
X79339Y-44935D02*
X79142Y-44935D01*
X79142Y-45010D01*
X79152Y-45029D01*
X79161Y-45038D01*
X79180Y-45048D01*
X79208Y-45048D01*
X79227Y-45038D01*
X79236Y-45029D01*
X79245Y-45010D01*
X79245Y-44935D01*
X79142Y-45114D02*
X79142Y-45235D01*
X79217Y-45170D01*
X79217Y-45198D01*
X79227Y-45217D01*
X79236Y-45226D01*
X79255Y-45235D01*
X79302Y-45235D01*
X79320Y-45226D01*
X79330Y-45217D01*
X79339Y-45198D01*
X79339Y-45142D01*
X79330Y-45123D01*
X79320Y-45114D01*
X79339Y-45423D02*
X79339Y-45311D01*
X79339Y-45367D02*
X79142Y-45367D01*
X79170Y-45348D01*
X79189Y-45329D01*
X79199Y-45311D01*
X76764Y-45773D02*
X76670Y-45707D01*
X76764Y-45660D02*
X76567Y-45660D01*
X76567Y-45735D01*
X76577Y-45754D01*
X76586Y-45763D01*
X76605Y-45773D01*
X76633Y-45773D01*
X76652Y-45763D01*
X76661Y-45754D01*
X76670Y-45735D01*
X76670Y-45660D01*
X76586Y-45848D02*
X76577Y-45857D01*
X76567Y-45876D01*
X76567Y-45923D01*
X76577Y-45942D01*
X76586Y-45951D01*
X76605Y-45960D01*
X76624Y-45960D01*
X76652Y-45951D01*
X76764Y-45839D01*
X76764Y-45960D01*
X76764Y-46054D02*
X76764Y-46092D01*
X76755Y-46111D01*
X76745Y-46120D01*
X76717Y-46139D01*
X76680Y-46148D01*
X76605Y-46148D01*
X76586Y-46139D01*
X76577Y-46129D01*
X76567Y-46111D01*
X76567Y-46073D01*
X76577Y-46054D01*
X76586Y-46045D01*
X76605Y-46036D01*
X76652Y-46036D01*
X76670Y-46045D01*
X76680Y-46054D01*
X76689Y-46073D01*
X76689Y-46111D01*
X76680Y-46129D01*
X76670Y-46139D01*
X76652Y-46148D01*
X110354Y-44323D02*
X110260Y-44257D01*
X110354Y-44210D02*
X110157Y-44210D01*
X110157Y-44285D01*
X110167Y-44304D01*
X110176Y-44313D01*
X110195Y-44323D01*
X110223Y-44323D01*
X110242Y-44313D01*
X110251Y-44304D01*
X110260Y-44285D01*
X110260Y-44210D01*
X110157Y-44501D02*
X110157Y-44407D01*
X110251Y-44398D01*
X110242Y-44407D01*
X110232Y-44426D01*
X110232Y-44473D01*
X110242Y-44492D01*
X110251Y-44501D01*
X110270Y-44510D01*
X110317Y-44510D01*
X110335Y-44501D01*
X110345Y-44492D01*
X110354Y-44473D01*
X110354Y-44426D01*
X110345Y-44407D01*
X110335Y-44398D01*
X110157Y-44679D02*
X110157Y-44642D01*
X110167Y-44623D01*
X110176Y-44614D01*
X110204Y-44595D01*
X110242Y-44586D01*
X110317Y-44586D01*
X110335Y-44595D01*
X110345Y-44604D01*
X110354Y-44623D01*
X110354Y-44661D01*
X110345Y-44679D01*
X110335Y-44689D01*
X110317Y-44698D01*
X110270Y-44698D01*
X110251Y-44689D01*
X110242Y-44679D01*
X110232Y-44661D01*
X110232Y-44623D01*
X110242Y-44604D01*
X110251Y-44595D01*
X110270Y-44586D01*
X110079Y-44510D02*
X109985Y-44445D01*
X110079Y-44398D02*
X109882Y-44398D01*
X109882Y-44473D01*
X109892Y-44492D01*
X109901Y-44501D01*
X109920Y-44510D01*
X109948Y-44510D01*
X109967Y-44501D01*
X109976Y-44492D01*
X109985Y-44473D01*
X109985Y-44398D01*
G54D11*
X111442Y-39682D02*
X111457Y-39667D01*
X111471Y-39625D01*
X111471Y-39596D01*
X111457Y-39553D01*
X111428Y-39525D01*
X111400Y-39510D01*
X111342Y-39496D01*
X111300Y-39496D01*
X111242Y-39510D01*
X111214Y-39525D01*
X111185Y-39553D01*
X111171Y-39596D01*
X111171Y-39625D01*
X111185Y-39667D01*
X111200Y-39682D01*
X111200Y-39796D02*
X111185Y-39810D01*
X111171Y-39839D01*
X111171Y-39910D01*
X111185Y-39939D01*
X111200Y-39953D01*
X111228Y-39967D01*
X111257Y-39967D01*
X111300Y-39953D01*
X111471Y-39782D01*
X111471Y-39967D01*
X111471Y-40110D02*
X111471Y-40167D01*
X111457Y-40196D01*
X111442Y-40210D01*
X111400Y-40239D01*
X111342Y-40253D01*
X111228Y-40253D01*
X111200Y-40239D01*
X111185Y-40225D01*
X111171Y-40196D01*
X111171Y-40139D01*
X111185Y-40110D01*
X111200Y-40096D01*
X111228Y-40082D01*
X111300Y-40082D01*
X111328Y-40096D01*
X111342Y-40110D01*
X111357Y-40139D01*
X111357Y-40196D01*
X111342Y-40225D01*
X111328Y-40239D01*
X111300Y-40253D01*
X111842Y-39967D02*
X111857Y-39953D01*
X111871Y-39910D01*
X111871Y-39882D01*
X111857Y-39839D01*
X111828Y-39810D01*
X111800Y-39796D01*
X111742Y-39782D01*
X111700Y-39782D01*
X111642Y-39796D01*
X111614Y-39810D01*
X111585Y-39839D01*
X111571Y-39882D01*
X111571Y-39910D01*
X111585Y-39953D01*
X111600Y-39967D01*
X111192Y-42742D02*
X111207Y-42757D01*
X111250Y-42771D01*
X111278Y-42771D01*
X111321Y-42757D01*
X111350Y-42728D01*
X111364Y-42700D01*
X111378Y-42642D01*
X111378Y-42600D01*
X111364Y-42542D01*
X111350Y-42514D01*
X111321Y-42485D01*
X111278Y-42471D01*
X111250Y-42471D01*
X111207Y-42485D01*
X111192Y-42500D01*
X111078Y-42500D02*
X111064Y-42485D01*
X111035Y-42471D01*
X110964Y-42471D01*
X110935Y-42485D01*
X110921Y-42500D01*
X110907Y-42528D01*
X110907Y-42557D01*
X110921Y-42600D01*
X111092Y-42771D01*
X110907Y-42771D01*
X110807Y-42471D02*
X110607Y-42471D01*
X110735Y-42771D01*
X110907Y-43142D02*
X110921Y-43157D01*
X110964Y-43171D01*
X110992Y-43171D01*
X111035Y-43157D01*
X111064Y-43128D01*
X111078Y-43100D01*
X111092Y-43042D01*
X111092Y-43000D01*
X111078Y-42942D01*
X111064Y-42914D01*
X111035Y-42885D01*
X110992Y-42871D01*
X110964Y-42871D01*
X110921Y-42885D01*
X110907Y-42900D01*
X111217Y-41442D02*
X111232Y-41457D01*
X111275Y-41471D01*
X111303Y-41471D01*
X111346Y-41457D01*
X111375Y-41428D01*
X111389Y-41400D01*
X111403Y-41342D01*
X111403Y-41300D01*
X111389Y-41242D01*
X111375Y-41214D01*
X111346Y-41185D01*
X111303Y-41171D01*
X111275Y-41171D01*
X111232Y-41185D01*
X111217Y-41200D01*
X111103Y-41200D02*
X111089Y-41185D01*
X111060Y-41171D01*
X110989Y-41171D01*
X110960Y-41185D01*
X110946Y-41200D01*
X110932Y-41228D01*
X110932Y-41257D01*
X110946Y-41300D01*
X111117Y-41471D01*
X110932Y-41471D01*
X110760Y-41300D02*
X110789Y-41285D01*
X110803Y-41271D01*
X110817Y-41242D01*
X110817Y-41228D01*
X110803Y-41200D01*
X110789Y-41185D01*
X110760Y-41171D01*
X110703Y-41171D01*
X110675Y-41185D01*
X110660Y-41200D01*
X110646Y-41228D01*
X110646Y-41242D01*
X110660Y-41271D01*
X110675Y-41285D01*
X110703Y-41300D01*
X110760Y-41300D01*
X110789Y-41314D01*
X110803Y-41328D01*
X110817Y-41357D01*
X110817Y-41414D01*
X110803Y-41442D01*
X110789Y-41457D01*
X110760Y-41471D01*
X110703Y-41471D01*
X110675Y-41457D01*
X110660Y-41442D01*
X110646Y-41414D01*
X110646Y-41357D01*
X110660Y-41328D01*
X110675Y-41314D01*
X110703Y-41300D01*
X110932Y-41842D02*
X110946Y-41857D01*
X110989Y-41871D01*
X111017Y-41871D01*
X111060Y-41857D01*
X111089Y-41828D01*
X111103Y-41800D01*
X111117Y-41742D01*
X111117Y-41700D01*
X111103Y-41642D01*
X111089Y-41614D01*
X111060Y-41585D01*
X111017Y-41571D01*
X110989Y-41571D01*
X110946Y-41585D01*
X110932Y-41600D01*
X111517Y-44282D02*
X111532Y-44267D01*
X111546Y-44225D01*
X111546Y-44196D01*
X111532Y-44153D01*
X111503Y-44125D01*
X111475Y-44110D01*
X111417Y-44096D01*
X111375Y-44096D01*
X111317Y-44110D01*
X111289Y-44125D01*
X111260Y-44153D01*
X111246Y-44196D01*
X111246Y-44225D01*
X111260Y-44267D01*
X111275Y-44282D01*
X111275Y-44396D02*
X111260Y-44410D01*
X111246Y-44439D01*
X111246Y-44510D01*
X111260Y-44539D01*
X111275Y-44553D01*
X111303Y-44567D01*
X111332Y-44567D01*
X111375Y-44553D01*
X111546Y-44382D01*
X111546Y-44567D01*
X111246Y-44825D02*
X111246Y-44767D01*
X111260Y-44739D01*
X111275Y-44725D01*
X111317Y-44696D01*
X111375Y-44682D01*
X111489Y-44682D01*
X111517Y-44696D01*
X111532Y-44710D01*
X111546Y-44739D01*
X111546Y-44796D01*
X111532Y-44825D01*
X111517Y-44839D01*
X111489Y-44853D01*
X111417Y-44853D01*
X111389Y-44839D01*
X111375Y-44825D01*
X111360Y-44796D01*
X111360Y-44739D01*
X111375Y-44710D01*
X111389Y-44696D01*
X111417Y-44682D01*
X111117Y-44567D02*
X111132Y-44553D01*
X111146Y-44510D01*
X111146Y-44482D01*
X111132Y-44439D01*
X111103Y-44410D01*
X111075Y-44396D01*
X111017Y-44382D01*
X110975Y-44382D01*
X110917Y-44396D01*
X110889Y-44410D01*
X110860Y-44439D01*
X110846Y-44482D01*
X110846Y-44510D01*
X110860Y-44553D01*
X110875Y-44567D01*
M02*
