G04 (created by PCBNEW (2013-07-07 BZR 4022)-stable) date 31/03/2014 17:29:00*
%MOIN*%
G04 Gerber Fmt 3.4, Leading zero omitted, Abs format*
%FSLAX34Y34*%
G01*
G70*
G90*
G04 APERTURE LIST*
%ADD10C,0.006*%
%ADD11C,0.0984252*%
%ADD12R,0.06X0.06*%
%ADD13C,0.06*%
%ADD14R,0.0787402X0.0787402*%
%ADD15C,0.0787402*%
%ADD16C,0.075*%
%ADD17C,0.07*%
%ADD18R,0.07X0.07*%
%ADD19O,0.0866142X0.110236*%
%ADD20C,0.0629921*%
%ADD21C,0.0551181*%
%ADD22O,0.06X0.1*%
%ADD23R,0.11811X0.11811*%
%ADD24C,0.11811*%
%ADD25C,0.1*%
%ADD26R,0.1X0.1*%
%ADD27C,0.046*%
%ADD28C,0.027*%
%ADD29C,0.035*%
%ADD30C,0.048*%
%ADD31C,0.01*%
G04 APERTURE END LIST*
G54D10*
G54D11*
X95650Y-39550D03*
G54D12*
X105700Y-46700D03*
G54D13*
X106700Y-46700D03*
X105700Y-47700D03*
X106700Y-47700D03*
X105700Y-48700D03*
X106700Y-48700D03*
G54D14*
X112600Y-62000D03*
G54D15*
X112600Y-60031D03*
X112600Y-58062D03*
G54D14*
X112800Y-54750D03*
G54D15*
X112800Y-53372D03*
X112800Y-51994D03*
X112800Y-50616D03*
X112800Y-49238D03*
X112800Y-47860D03*
X112800Y-46482D03*
X112800Y-45104D03*
X112800Y-43726D03*
X112800Y-42348D03*
X112800Y-40970D03*
X112800Y-39592D03*
G54D16*
X104150Y-60250D03*
X104940Y-57890D03*
X109740Y-57890D03*
X109740Y-62610D03*
X104940Y-62610D03*
G54D11*
X89400Y-39500D03*
G54D17*
X89525Y-42250D03*
X90525Y-42250D03*
G54D18*
X88525Y-42250D03*
G54D17*
X106800Y-43800D03*
X107800Y-43800D03*
G54D18*
X105800Y-43800D03*
G54D17*
X102000Y-43825D03*
X103000Y-43825D03*
G54D18*
X101000Y-43825D03*
G54D17*
X95800Y-42250D03*
X96800Y-42250D03*
G54D18*
X94800Y-42250D03*
G54D19*
X74279Y-40616D03*
X70420Y-40616D03*
G54D20*
X72350Y-39750D03*
X73334Y-39750D03*
X71365Y-39750D03*
G54D19*
X80729Y-40616D03*
X76870Y-40616D03*
G54D20*
X78800Y-39750D03*
X79784Y-39750D03*
X77815Y-39750D03*
G54D21*
X65623Y-39425D03*
X64835Y-39425D03*
X64048Y-39425D03*
G54D22*
X84700Y-62500D03*
X84700Y-43500D03*
X83700Y-43500D03*
X82700Y-43500D03*
X81700Y-43500D03*
X80700Y-43500D03*
X79700Y-43500D03*
X78700Y-43500D03*
X77700Y-43500D03*
X76100Y-43500D03*
X75100Y-43500D03*
X74100Y-43500D03*
X73100Y-43500D03*
X72100Y-43500D03*
X71100Y-43500D03*
X70100Y-43500D03*
X69100Y-43500D03*
X83700Y-62500D03*
X82700Y-62500D03*
X81700Y-62500D03*
X80700Y-62500D03*
X79700Y-62500D03*
X77700Y-62500D03*
X76700Y-62500D03*
X75700Y-62500D03*
X74700Y-62500D03*
X73700Y-62500D03*
X72700Y-62500D03*
X71700Y-62500D03*
X70700Y-62500D03*
G54D23*
X53824Y-60588D03*
G54D24*
X53824Y-58935D03*
X53824Y-57281D03*
X53824Y-55628D03*
X53824Y-53974D03*
X53824Y-52321D03*
X53824Y-50667D03*
X53824Y-49014D03*
X53824Y-47360D03*
X53824Y-45707D03*
X53824Y-44053D03*
X53824Y-42400D03*
X55989Y-60588D03*
X55989Y-58935D03*
X55989Y-57281D03*
X55989Y-55628D03*
X55989Y-53974D03*
X55938Y-52321D03*
X55989Y-50667D03*
X55989Y-49014D03*
X55989Y-47360D03*
X55989Y-45707D03*
X55989Y-44053D03*
X55989Y-42400D03*
G54D25*
X94450Y-49425D03*
X104300Y-41100D03*
X92525Y-42075D03*
X101950Y-58425D03*
X98700Y-60475D03*
X86900Y-46625D03*
X108050Y-48575D03*
X98475Y-44850D03*
G54D12*
X102300Y-41050D03*
G54D13*
X101300Y-41050D03*
X100300Y-41050D03*
G54D12*
X105725Y-41075D03*
G54D13*
X106725Y-41075D03*
X107725Y-41075D03*
G54D26*
X64375Y-52025D03*
X65375Y-52025D03*
X63200Y-51050D03*
X63200Y-50050D03*
X64325Y-53650D03*
X65325Y-53650D03*
X63200Y-55450D03*
X63200Y-56450D03*
G54D27*
X109250Y-43300D03*
X101825Y-52700D03*
X55600Y-61900D03*
X77700Y-59325D03*
X101000Y-59650D03*
X59450Y-59700D03*
X62300Y-43700D03*
G54D28*
X56825Y-39800D03*
G54D27*
X85350Y-41000D03*
X60800Y-55200D03*
X65375Y-55125D03*
X64300Y-43850D03*
G54D29*
X88500Y-54950D03*
G54D28*
X91950Y-47525D03*
X90000Y-51450D03*
X108700Y-47100D03*
G54D27*
X61150Y-50900D03*
X57350Y-41375D03*
X87125Y-41800D03*
X62350Y-41350D03*
G54D28*
X93500Y-50750D03*
X84725Y-46200D03*
X97825Y-45400D03*
X84700Y-53925D03*
X74150Y-48050D03*
X73275Y-48125D03*
X93525Y-61450D03*
X88600Y-52300D03*
X88375Y-50475D03*
X67225Y-39800D03*
X67300Y-40825D03*
X76125Y-47000D03*
X82000Y-46700D03*
X93150Y-51925D03*
X92750Y-50425D03*
X80075Y-46775D03*
X88075Y-51300D03*
X82700Y-46975D03*
X92800Y-52100D03*
G54D27*
X90225Y-55275D03*
X96725Y-56875D03*
G54D28*
X92575Y-54875D03*
X86625Y-39350D03*
G54D27*
X84575Y-40900D03*
G54D28*
X93300Y-46850D03*
X91400Y-47450D03*
X90650Y-47475D03*
X102150Y-47400D03*
X88350Y-47425D03*
X95200Y-48950D03*
X99950Y-45225D03*
G54D27*
X104375Y-44300D03*
X104775Y-43225D03*
X95125Y-50300D03*
G54D28*
X110750Y-47100D03*
X99300Y-45150D03*
X92475Y-51825D03*
X89700Y-48725D03*
G54D27*
X101775Y-52050D03*
X103450Y-48925D03*
X101200Y-47350D03*
X105675Y-45575D03*
X103500Y-46950D03*
X60050Y-44950D03*
G54D28*
X61150Y-39175D03*
X75975Y-56700D03*
G54D27*
X73925Y-57325D03*
X60550Y-47300D03*
X88700Y-55750D03*
X111475Y-55700D03*
X92775Y-55275D03*
G54D29*
X92525Y-39600D03*
G54D27*
X92550Y-43800D03*
G54D28*
X65175Y-40675D03*
G54D27*
X99450Y-58500D03*
G54D28*
X99450Y-47775D03*
X98875Y-47200D03*
X92400Y-47600D03*
X90925Y-49575D03*
X109125Y-49000D03*
X91350Y-49500D03*
X98250Y-49925D03*
X98850Y-48300D03*
X98400Y-46450D03*
X101600Y-47750D03*
X103600Y-46100D03*
X91950Y-45375D03*
X103750Y-46550D03*
X102200Y-48550D03*
G54D27*
X99050Y-63200D03*
X93850Y-62500D03*
X101025Y-60300D03*
X99350Y-61350D03*
G54D30*
X104300Y-41100D02*
X104300Y-42350D01*
X64875Y-57250D02*
X64550Y-56925D01*
X64125Y-55450D02*
X63200Y-55450D01*
X64550Y-55875D02*
X64125Y-55450D01*
X64550Y-55900D02*
X64550Y-55875D01*
X64550Y-56925D02*
X64550Y-55900D01*
G54D31*
X75975Y-56700D02*
X75975Y-57075D01*
X75725Y-57325D02*
X73925Y-57325D01*
X75975Y-57075D02*
X75725Y-57325D01*
G54D30*
X64875Y-57325D02*
X64875Y-57250D01*
X64875Y-57250D02*
X64875Y-57300D01*
X64875Y-57300D02*
X64875Y-57325D01*
X64875Y-57325D02*
X73925Y-57325D01*
X64875Y-57325D02*
X64825Y-57275D01*
G54D10*
G36*
X114030Y-45600D02*
X113447Y-45600D01*
X113447Y-43830D01*
X113443Y-43717D01*
X113443Y-42220D01*
X113443Y-40842D01*
X113443Y-39465D01*
X113346Y-39228D01*
X113165Y-39047D01*
X112928Y-38948D01*
X112672Y-38948D01*
X112435Y-39046D01*
X112254Y-39227D01*
X112156Y-39463D01*
X112156Y-39719D01*
X112253Y-39956D01*
X112434Y-40137D01*
X112671Y-40236D01*
X112927Y-40236D01*
X113164Y-40138D01*
X113345Y-39957D01*
X113443Y-39721D01*
X113443Y-39465D01*
X113443Y-40842D01*
X113346Y-40606D01*
X113165Y-40425D01*
X112928Y-40326D01*
X112672Y-40326D01*
X112435Y-40424D01*
X112254Y-40605D01*
X112156Y-40841D01*
X112156Y-41097D01*
X112253Y-41334D01*
X112434Y-41515D01*
X112671Y-41614D01*
X112927Y-41614D01*
X113164Y-41516D01*
X113345Y-41335D01*
X113443Y-41099D01*
X113443Y-40842D01*
X113443Y-42220D01*
X113346Y-41984D01*
X113165Y-41803D01*
X112928Y-41704D01*
X112672Y-41704D01*
X112435Y-41802D01*
X112254Y-41983D01*
X112156Y-42219D01*
X112156Y-42475D01*
X112253Y-42712D01*
X112434Y-42893D01*
X112671Y-42992D01*
X112927Y-42992D01*
X113164Y-42894D01*
X113345Y-42713D01*
X113443Y-42477D01*
X113443Y-42220D01*
X113443Y-43717D01*
X113438Y-43574D01*
X113358Y-43382D01*
X113253Y-43343D01*
X113183Y-43414D01*
X113183Y-43272D01*
X113144Y-43167D01*
X112904Y-43078D01*
X112648Y-43087D01*
X112455Y-43167D01*
X112416Y-43272D01*
X112800Y-43655D01*
X113183Y-43272D01*
X113183Y-43414D01*
X112870Y-43726D01*
X113253Y-44109D01*
X113358Y-44070D01*
X113447Y-43830D01*
X113447Y-45600D01*
X113214Y-45600D01*
X113345Y-45469D01*
X113443Y-45232D01*
X113443Y-44976D01*
X113346Y-44740D01*
X113183Y-44576D01*
X113183Y-44180D01*
X112800Y-43797D01*
X112729Y-43867D01*
X112729Y-43726D01*
X112346Y-43343D01*
X112241Y-43382D01*
X112152Y-43622D01*
X112161Y-43878D01*
X112241Y-44070D01*
X112346Y-44109D01*
X112729Y-43726D01*
X112729Y-43867D01*
X112416Y-44180D01*
X112455Y-44285D01*
X112695Y-44374D01*
X112951Y-44364D01*
X113144Y-44285D01*
X113183Y-44180D01*
X113183Y-44576D01*
X113165Y-44558D01*
X112928Y-44460D01*
X112672Y-44460D01*
X112435Y-44558D01*
X112254Y-44739D01*
X112156Y-44975D01*
X112156Y-45231D01*
X112253Y-45468D01*
X112385Y-45600D01*
X110940Y-45600D01*
X110940Y-39833D01*
X110813Y-39524D01*
X110576Y-39287D01*
X110267Y-39159D01*
X109933Y-39159D01*
X109624Y-39287D01*
X109387Y-39523D01*
X109259Y-39832D01*
X109259Y-40166D01*
X109387Y-40475D01*
X109623Y-40712D01*
X109932Y-40840D01*
X110266Y-40840D01*
X110575Y-40713D01*
X110812Y-40476D01*
X110940Y-40167D01*
X110940Y-39833D01*
X110940Y-45600D01*
X109800Y-45600D01*
X109800Y-41850D01*
X108275Y-41850D01*
X108275Y-40966D01*
X108191Y-40763D01*
X108036Y-40609D01*
X107834Y-40525D01*
X107616Y-40524D01*
X107413Y-40608D01*
X107259Y-40763D01*
X107225Y-40844D01*
X107191Y-40763D01*
X107036Y-40609D01*
X106834Y-40525D01*
X106616Y-40524D01*
X106413Y-40608D01*
X106275Y-40747D01*
X106275Y-40725D01*
X106237Y-40633D01*
X106166Y-40563D01*
X106074Y-40525D01*
X105975Y-40524D01*
X105375Y-40524D01*
X105283Y-40562D01*
X105213Y-40633D01*
X105175Y-40725D01*
X105174Y-40824D01*
X105174Y-41424D01*
X105212Y-41516D01*
X105283Y-41586D01*
X105375Y-41624D01*
X105474Y-41625D01*
X106074Y-41625D01*
X106166Y-41587D01*
X106236Y-41516D01*
X106274Y-41424D01*
X106274Y-41402D01*
X106413Y-41540D01*
X106615Y-41624D01*
X106833Y-41625D01*
X107036Y-41541D01*
X107190Y-41386D01*
X107224Y-41305D01*
X107258Y-41386D01*
X107413Y-41540D01*
X107615Y-41624D01*
X107833Y-41625D01*
X108036Y-41541D01*
X108190Y-41386D01*
X108274Y-41184D01*
X108275Y-40966D01*
X108275Y-41850D01*
X104790Y-41850D01*
X104790Y-41670D01*
X104935Y-41525D01*
X105049Y-41249D01*
X105050Y-40951D01*
X104936Y-40675D01*
X104725Y-40464D01*
X104449Y-40350D01*
X104151Y-40349D01*
X103875Y-40463D01*
X103664Y-40674D01*
X103550Y-40950D01*
X103549Y-41248D01*
X103663Y-41524D01*
X103810Y-41670D01*
X103810Y-41850D01*
X102850Y-41850D01*
X102850Y-41300D01*
X102850Y-40700D01*
X102812Y-40608D01*
X102741Y-40538D01*
X102649Y-40500D01*
X102550Y-40499D01*
X101950Y-40499D01*
X101858Y-40537D01*
X101788Y-40608D01*
X101750Y-40700D01*
X101750Y-40722D01*
X101611Y-40584D01*
X101409Y-40500D01*
X101191Y-40499D01*
X100988Y-40583D01*
X100834Y-40738D01*
X100800Y-40819D01*
X100766Y-40738D01*
X100611Y-40584D01*
X100409Y-40500D01*
X100191Y-40499D01*
X99988Y-40583D01*
X99834Y-40738D01*
X99750Y-40940D01*
X99749Y-41158D01*
X99833Y-41361D01*
X99988Y-41515D01*
X100190Y-41599D01*
X100408Y-41600D01*
X100611Y-41516D01*
X100765Y-41361D01*
X100799Y-41280D01*
X100833Y-41361D01*
X100988Y-41515D01*
X101190Y-41599D01*
X101408Y-41600D01*
X101611Y-41516D01*
X101749Y-41377D01*
X101749Y-41399D01*
X101787Y-41491D01*
X101858Y-41561D01*
X101950Y-41599D01*
X102049Y-41600D01*
X102649Y-41600D01*
X102741Y-41562D01*
X102811Y-41491D01*
X102849Y-41399D01*
X102850Y-41300D01*
X102850Y-41850D01*
X99300Y-41850D01*
X99300Y-44350D01*
X99035Y-44350D01*
X98900Y-44214D01*
X98624Y-44100D01*
X98326Y-44099D01*
X98050Y-44213D01*
X97914Y-44350D01*
X97400Y-44350D01*
X97400Y-42131D01*
X97308Y-41910D01*
X97140Y-41741D01*
X96919Y-41650D01*
X96681Y-41649D01*
X96460Y-41741D01*
X96299Y-41901D01*
X96140Y-41741D01*
X95919Y-41650D01*
X95681Y-41649D01*
X95460Y-41741D01*
X95385Y-41815D01*
X95362Y-41758D01*
X95291Y-41688D01*
X95199Y-41650D01*
X95100Y-41649D01*
X94400Y-41649D01*
X94308Y-41687D01*
X94238Y-41758D01*
X94200Y-41850D01*
X94199Y-41949D01*
X94199Y-42649D01*
X94237Y-42741D01*
X94308Y-42811D01*
X94400Y-42849D01*
X94499Y-42850D01*
X95199Y-42850D01*
X95291Y-42812D01*
X95361Y-42741D01*
X95385Y-42684D01*
X95459Y-42758D01*
X95680Y-42849D01*
X95918Y-42850D01*
X96139Y-42758D01*
X96300Y-42598D01*
X96459Y-42758D01*
X96680Y-42849D01*
X96918Y-42850D01*
X97139Y-42758D01*
X97308Y-42590D01*
X97399Y-42369D01*
X97400Y-42131D01*
X97400Y-44350D01*
X93278Y-44350D01*
X93278Y-42204D01*
X93270Y-41906D01*
X93171Y-41666D01*
X93055Y-41615D01*
X92984Y-41685D01*
X92984Y-41544D01*
X92933Y-41428D01*
X92654Y-41321D01*
X92356Y-41329D01*
X92116Y-41428D01*
X92065Y-41544D01*
X92525Y-42004D01*
X92984Y-41544D01*
X92984Y-41685D01*
X92595Y-42075D01*
X93055Y-42534D01*
X93171Y-42483D01*
X93278Y-42204D01*
X93278Y-44350D01*
X92984Y-44350D01*
X92984Y-42605D01*
X92525Y-42145D01*
X92454Y-42216D01*
X92454Y-42075D01*
X91994Y-41615D01*
X91878Y-41666D01*
X91771Y-41945D01*
X91779Y-42243D01*
X91878Y-42483D01*
X91994Y-42534D01*
X92454Y-42075D01*
X92454Y-42216D01*
X92065Y-42605D01*
X92116Y-42721D01*
X92395Y-42828D01*
X92693Y-42820D01*
X92933Y-42721D01*
X92984Y-42605D01*
X92984Y-44350D01*
X91125Y-44350D01*
X91125Y-42131D01*
X91033Y-41910D01*
X90865Y-41741D01*
X90644Y-41650D01*
X90406Y-41649D01*
X90185Y-41741D01*
X90024Y-41901D01*
X89865Y-41741D01*
X89644Y-41650D01*
X89406Y-41649D01*
X89185Y-41741D01*
X89110Y-41815D01*
X89087Y-41758D01*
X89016Y-41688D01*
X88924Y-41650D01*
X88825Y-41649D01*
X88125Y-41649D01*
X88033Y-41687D01*
X87963Y-41758D01*
X87925Y-41850D01*
X87924Y-41949D01*
X87924Y-42649D01*
X87962Y-42741D01*
X88033Y-42811D01*
X88125Y-42849D01*
X88224Y-42850D01*
X88924Y-42850D01*
X89016Y-42812D01*
X89086Y-42741D01*
X89110Y-42684D01*
X89184Y-42758D01*
X89405Y-42849D01*
X89643Y-42850D01*
X89864Y-42758D01*
X90025Y-42598D01*
X90184Y-42758D01*
X90405Y-42849D01*
X90643Y-42850D01*
X90864Y-42758D01*
X91033Y-42590D01*
X91124Y-42369D01*
X91125Y-42131D01*
X91125Y-44350D01*
X87605Y-44350D01*
X87605Y-41704D01*
X87532Y-41528D01*
X87397Y-41393D01*
X87220Y-41320D01*
X87029Y-41319D01*
X87010Y-41328D01*
X87010Y-39273D01*
X86951Y-39132D01*
X86843Y-39023D01*
X86701Y-38965D01*
X86548Y-38964D01*
X86407Y-39023D01*
X86298Y-39131D01*
X86240Y-39273D01*
X86239Y-39426D01*
X86298Y-39567D01*
X86406Y-39676D01*
X86548Y-39734D01*
X86701Y-39735D01*
X86842Y-39676D01*
X86951Y-39568D01*
X87009Y-39426D01*
X87010Y-39273D01*
X87010Y-41328D01*
X86853Y-41392D01*
X86718Y-41527D01*
X86645Y-41704D01*
X86644Y-41895D01*
X86717Y-42071D01*
X86852Y-42206D01*
X87029Y-42279D01*
X87220Y-42280D01*
X87396Y-42207D01*
X87531Y-42072D01*
X87604Y-41895D01*
X87605Y-41704D01*
X87605Y-44350D01*
X85830Y-44350D01*
X85830Y-40904D01*
X85757Y-40728D01*
X85622Y-40593D01*
X85445Y-40520D01*
X85254Y-40519D01*
X85078Y-40592D01*
X84999Y-40671D01*
X84982Y-40628D01*
X84847Y-40493D01*
X84670Y-40420D01*
X84479Y-40419D01*
X84303Y-40492D01*
X84168Y-40627D01*
X84095Y-40804D01*
X84094Y-40995D01*
X84167Y-41171D01*
X84302Y-41306D01*
X84479Y-41379D01*
X84670Y-41380D01*
X84846Y-41307D01*
X84925Y-41228D01*
X84942Y-41271D01*
X85077Y-41406D01*
X85254Y-41479D01*
X85445Y-41480D01*
X85621Y-41407D01*
X85756Y-41272D01*
X85829Y-41095D01*
X85830Y-40904D01*
X85830Y-44350D01*
X85250Y-44350D01*
X85250Y-43714D01*
X85250Y-43285D01*
X85208Y-43074D01*
X85088Y-42896D01*
X84910Y-42777D01*
X84700Y-42735D01*
X84489Y-42777D01*
X84311Y-42896D01*
X84200Y-43062D01*
X84088Y-42896D01*
X83910Y-42777D01*
X83700Y-42735D01*
X83489Y-42777D01*
X83311Y-42896D01*
X83200Y-43062D01*
X83088Y-42896D01*
X82910Y-42777D01*
X82700Y-42735D01*
X82489Y-42777D01*
X82311Y-42896D01*
X82200Y-43062D01*
X82088Y-42896D01*
X81910Y-42777D01*
X81700Y-42735D01*
X81489Y-42777D01*
X81412Y-42828D01*
X81412Y-40749D01*
X81412Y-40482D01*
X81360Y-40220D01*
X81212Y-39999D01*
X80990Y-39851D01*
X80729Y-39799D01*
X80467Y-39851D01*
X80310Y-39956D01*
X80349Y-39862D01*
X80349Y-39638D01*
X80263Y-39430D01*
X80104Y-39271D01*
X79897Y-39185D01*
X79672Y-39184D01*
X79464Y-39270D01*
X79305Y-39429D01*
X79294Y-39455D01*
X79293Y-39453D01*
X79196Y-39423D01*
X79126Y-39494D01*
X79126Y-39353D01*
X79096Y-39256D01*
X78885Y-39180D01*
X78660Y-39191D01*
X78503Y-39256D01*
X78473Y-39353D01*
X78800Y-39679D01*
X79126Y-39353D01*
X79126Y-39494D01*
X78870Y-39750D01*
X79196Y-40076D01*
X79293Y-40046D01*
X79294Y-40044D01*
X79305Y-40069D01*
X79463Y-40228D01*
X79671Y-40314D01*
X79896Y-40315D01*
X80095Y-40232D01*
X80046Y-40482D01*
X80046Y-40749D01*
X80098Y-41011D01*
X80246Y-41232D01*
X80467Y-41381D01*
X80729Y-41433D01*
X80990Y-41381D01*
X81212Y-41232D01*
X81360Y-41011D01*
X81412Y-40749D01*
X81412Y-42828D01*
X81311Y-42896D01*
X81200Y-43062D01*
X81088Y-42896D01*
X80910Y-42777D01*
X80700Y-42735D01*
X80489Y-42777D01*
X80311Y-42896D01*
X80200Y-43062D01*
X80088Y-42896D01*
X79910Y-42777D01*
X79700Y-42735D01*
X79489Y-42777D01*
X79311Y-42896D01*
X79200Y-43062D01*
X79126Y-42951D01*
X79126Y-40146D01*
X78800Y-39820D01*
X78729Y-39891D01*
X78729Y-39750D01*
X78403Y-39423D01*
X78306Y-39453D01*
X78305Y-39455D01*
X78294Y-39430D01*
X78136Y-39271D01*
X77928Y-39185D01*
X77703Y-39184D01*
X77496Y-39270D01*
X77337Y-39429D01*
X77250Y-39637D01*
X77250Y-39861D01*
X77289Y-39956D01*
X77132Y-39851D01*
X76870Y-39799D01*
X76609Y-39851D01*
X76387Y-39999D01*
X76239Y-40220D01*
X76187Y-40482D01*
X76187Y-40749D01*
X76239Y-41011D01*
X76387Y-41232D01*
X76609Y-41381D01*
X76870Y-41433D01*
X77132Y-41381D01*
X77353Y-41232D01*
X77501Y-41011D01*
X77553Y-40749D01*
X77553Y-40482D01*
X77504Y-40232D01*
X77702Y-40314D01*
X77927Y-40315D01*
X78135Y-40229D01*
X78294Y-40070D01*
X78305Y-40044D01*
X78306Y-40046D01*
X78403Y-40076D01*
X78729Y-39750D01*
X78729Y-39891D01*
X78473Y-40146D01*
X78503Y-40243D01*
X78714Y-40319D01*
X78939Y-40308D01*
X79096Y-40243D01*
X79126Y-40146D01*
X79126Y-42951D01*
X79088Y-42896D01*
X78910Y-42777D01*
X78700Y-42735D01*
X78489Y-42777D01*
X78311Y-42896D01*
X78200Y-43062D01*
X78088Y-42896D01*
X77910Y-42777D01*
X77700Y-42735D01*
X77489Y-42777D01*
X77311Y-42896D01*
X77191Y-43074D01*
X77150Y-43285D01*
X77150Y-43714D01*
X77191Y-43925D01*
X77311Y-44103D01*
X77489Y-44222D01*
X77700Y-44264D01*
X77910Y-44222D01*
X78088Y-44103D01*
X78200Y-43937D01*
X78311Y-44103D01*
X78489Y-44222D01*
X78700Y-44264D01*
X78910Y-44222D01*
X79088Y-44103D01*
X79200Y-43937D01*
X79311Y-44103D01*
X79489Y-44222D01*
X79700Y-44264D01*
X79910Y-44222D01*
X80088Y-44103D01*
X80200Y-43937D01*
X80311Y-44103D01*
X80489Y-44222D01*
X80700Y-44264D01*
X80910Y-44222D01*
X81088Y-44103D01*
X81200Y-43937D01*
X81311Y-44103D01*
X81489Y-44222D01*
X81700Y-44264D01*
X81910Y-44222D01*
X82088Y-44103D01*
X82200Y-43937D01*
X82311Y-44103D01*
X82489Y-44222D01*
X82700Y-44264D01*
X82910Y-44222D01*
X83088Y-44103D01*
X83200Y-43937D01*
X83311Y-44103D01*
X83489Y-44222D01*
X83700Y-44264D01*
X83910Y-44222D01*
X84088Y-44103D01*
X84200Y-43937D01*
X84311Y-44103D01*
X84489Y-44222D01*
X84700Y-44264D01*
X84910Y-44222D01*
X85088Y-44103D01*
X85208Y-43925D01*
X85250Y-43714D01*
X85250Y-44350D01*
X76650Y-44350D01*
X76650Y-43714D01*
X76650Y-43285D01*
X76608Y-43074D01*
X76488Y-42896D01*
X76310Y-42777D01*
X76100Y-42735D01*
X75889Y-42777D01*
X75711Y-42896D01*
X75600Y-43062D01*
X75488Y-42896D01*
X75310Y-42777D01*
X75100Y-42735D01*
X74962Y-42762D01*
X74962Y-40749D01*
X74962Y-40482D01*
X74910Y-40220D01*
X74762Y-39999D01*
X74540Y-39851D01*
X74279Y-39799D01*
X74017Y-39851D01*
X73860Y-39956D01*
X73899Y-39862D01*
X73899Y-39638D01*
X73813Y-39430D01*
X73654Y-39271D01*
X73447Y-39185D01*
X73222Y-39184D01*
X73014Y-39270D01*
X72855Y-39429D01*
X72844Y-39455D01*
X72843Y-39453D01*
X72746Y-39423D01*
X72676Y-39494D01*
X72676Y-39353D01*
X72646Y-39256D01*
X72435Y-39180D01*
X72210Y-39191D01*
X72053Y-39256D01*
X72023Y-39353D01*
X72350Y-39679D01*
X72676Y-39353D01*
X72676Y-39494D01*
X72420Y-39750D01*
X72746Y-40076D01*
X72843Y-40046D01*
X72844Y-40044D01*
X72855Y-40069D01*
X73013Y-40228D01*
X73221Y-40314D01*
X73446Y-40315D01*
X73645Y-40232D01*
X73596Y-40482D01*
X73596Y-40749D01*
X73648Y-41011D01*
X73796Y-41232D01*
X74017Y-41381D01*
X74279Y-41433D01*
X74540Y-41381D01*
X74762Y-41232D01*
X74910Y-41011D01*
X74962Y-40749D01*
X74962Y-42762D01*
X74889Y-42777D01*
X74711Y-42896D01*
X74600Y-43062D01*
X74488Y-42896D01*
X74310Y-42777D01*
X74100Y-42735D01*
X73889Y-42777D01*
X73711Y-42896D01*
X73600Y-43062D01*
X73488Y-42896D01*
X73310Y-42777D01*
X73100Y-42735D01*
X72889Y-42777D01*
X72711Y-42896D01*
X72676Y-42948D01*
X72676Y-40146D01*
X72350Y-39820D01*
X72279Y-39891D01*
X72279Y-39750D01*
X71953Y-39423D01*
X71856Y-39453D01*
X71855Y-39455D01*
X71844Y-39430D01*
X71686Y-39271D01*
X71478Y-39185D01*
X71253Y-39184D01*
X71046Y-39270D01*
X70887Y-39429D01*
X70800Y-39637D01*
X70800Y-39861D01*
X70839Y-39956D01*
X70682Y-39851D01*
X70420Y-39799D01*
X70159Y-39851D01*
X69937Y-39999D01*
X69789Y-40220D01*
X69737Y-40482D01*
X69737Y-40749D01*
X69789Y-41011D01*
X69937Y-41232D01*
X70159Y-41381D01*
X70420Y-41433D01*
X70682Y-41381D01*
X70903Y-41232D01*
X71051Y-41011D01*
X71103Y-40749D01*
X71103Y-40482D01*
X71054Y-40232D01*
X71252Y-40314D01*
X71477Y-40315D01*
X71685Y-40229D01*
X71844Y-40070D01*
X71855Y-40044D01*
X71856Y-40046D01*
X71953Y-40076D01*
X72279Y-39750D01*
X72279Y-39891D01*
X72023Y-40146D01*
X72053Y-40243D01*
X72264Y-40319D01*
X72489Y-40308D01*
X72646Y-40243D01*
X72676Y-40146D01*
X72676Y-42948D01*
X72600Y-43062D01*
X72488Y-42896D01*
X72310Y-42777D01*
X72100Y-42735D01*
X71889Y-42777D01*
X71711Y-42896D01*
X71600Y-43062D01*
X71488Y-42896D01*
X71310Y-42777D01*
X71100Y-42735D01*
X70889Y-42777D01*
X70711Y-42896D01*
X70600Y-43062D01*
X70488Y-42896D01*
X70310Y-42777D01*
X70100Y-42735D01*
X69889Y-42777D01*
X69711Y-42896D01*
X69600Y-43062D01*
X69488Y-42896D01*
X69310Y-42777D01*
X69100Y-42735D01*
X68889Y-42777D01*
X68711Y-42896D01*
X68591Y-43074D01*
X68550Y-43285D01*
X68550Y-43714D01*
X68591Y-43925D01*
X68711Y-44103D01*
X68889Y-44222D01*
X69100Y-44264D01*
X69310Y-44222D01*
X69488Y-44103D01*
X69600Y-43937D01*
X69711Y-44103D01*
X69889Y-44222D01*
X70100Y-44264D01*
X70310Y-44222D01*
X70488Y-44103D01*
X70600Y-43937D01*
X70711Y-44103D01*
X70889Y-44222D01*
X71100Y-44264D01*
X71310Y-44222D01*
X71488Y-44103D01*
X71600Y-43937D01*
X71711Y-44103D01*
X71889Y-44222D01*
X72100Y-44264D01*
X72310Y-44222D01*
X72488Y-44103D01*
X72600Y-43937D01*
X72711Y-44103D01*
X72889Y-44222D01*
X73100Y-44264D01*
X73310Y-44222D01*
X73488Y-44103D01*
X73600Y-43937D01*
X73711Y-44103D01*
X73889Y-44222D01*
X74100Y-44264D01*
X74310Y-44222D01*
X74488Y-44103D01*
X74600Y-43937D01*
X74711Y-44103D01*
X74889Y-44222D01*
X75100Y-44264D01*
X75310Y-44222D01*
X75488Y-44103D01*
X75600Y-43937D01*
X75711Y-44103D01*
X75889Y-44222D01*
X76100Y-44264D01*
X76310Y-44222D01*
X76488Y-44103D01*
X76608Y-43925D01*
X76650Y-43714D01*
X76650Y-44350D01*
X67685Y-44350D01*
X67685Y-40748D01*
X67626Y-40607D01*
X67610Y-40590D01*
X67610Y-39723D01*
X67551Y-39582D01*
X67443Y-39473D01*
X67301Y-39415D01*
X67148Y-39414D01*
X67007Y-39473D01*
X66995Y-39485D01*
X66995Y-39317D01*
X66912Y-39116D01*
X66759Y-38963D01*
X66558Y-38879D01*
X66342Y-38879D01*
X66141Y-38962D01*
X66022Y-39081D01*
X65921Y-38979D01*
X65728Y-38899D01*
X65519Y-38899D01*
X65325Y-38979D01*
X65229Y-39075D01*
X65133Y-38979D01*
X64940Y-38899D01*
X64731Y-38899D01*
X64538Y-38979D01*
X64442Y-39075D01*
X64346Y-38979D01*
X64153Y-38899D01*
X63944Y-38899D01*
X63751Y-38979D01*
X63648Y-39081D01*
X63530Y-38963D01*
X63330Y-38879D01*
X63113Y-38879D01*
X62913Y-38962D01*
X62759Y-39115D01*
X62676Y-39316D01*
X62676Y-39532D01*
X62759Y-39733D01*
X62912Y-39886D01*
X63112Y-39970D01*
X63329Y-39970D01*
X63530Y-39887D01*
X63649Y-39768D01*
X63750Y-39870D01*
X63943Y-39950D01*
X64152Y-39950D01*
X64345Y-39870D01*
X64442Y-39774D01*
X64537Y-39870D01*
X64730Y-39950D01*
X64939Y-39950D01*
X65133Y-39870D01*
X65229Y-39774D01*
X65325Y-39870D01*
X65518Y-39950D01*
X65727Y-39950D01*
X65920Y-39870D01*
X66022Y-39768D01*
X66140Y-39886D01*
X66341Y-39970D01*
X66557Y-39970D01*
X66758Y-39887D01*
X66839Y-39806D01*
X66839Y-39876D01*
X66898Y-40017D01*
X67006Y-40126D01*
X67148Y-40184D01*
X67301Y-40185D01*
X67442Y-40126D01*
X67551Y-40018D01*
X67609Y-39876D01*
X67610Y-39723D01*
X67610Y-40590D01*
X67518Y-40498D01*
X67376Y-40440D01*
X67223Y-40439D01*
X67082Y-40498D01*
X66973Y-40606D01*
X66915Y-40748D01*
X66914Y-40901D01*
X66973Y-41042D01*
X67081Y-41151D01*
X67223Y-41209D01*
X67376Y-41210D01*
X67517Y-41151D01*
X67626Y-41043D01*
X67684Y-40901D01*
X67685Y-40748D01*
X67685Y-44350D01*
X65934Y-44350D01*
X66195Y-44242D01*
X66441Y-43996D01*
X66574Y-43674D01*
X66575Y-43326D01*
X66442Y-43005D01*
X66196Y-42758D01*
X65874Y-42625D01*
X65526Y-42624D01*
X65205Y-42757D01*
X64958Y-43003D01*
X64825Y-43325D01*
X64824Y-43673D01*
X64957Y-43995D01*
X65203Y-44241D01*
X65465Y-44350D01*
X64780Y-44350D01*
X64780Y-43754D01*
X64707Y-43578D01*
X64572Y-43443D01*
X64395Y-43370D01*
X64204Y-43369D01*
X64028Y-43442D01*
X63893Y-43577D01*
X63820Y-43754D01*
X63819Y-43945D01*
X63892Y-44121D01*
X64027Y-44256D01*
X64204Y-44329D01*
X64395Y-44330D01*
X64571Y-44257D01*
X64706Y-44122D01*
X64779Y-43945D01*
X64780Y-43754D01*
X64780Y-44350D01*
X64150Y-44350D01*
X64150Y-50400D01*
X63903Y-50400D01*
X63841Y-50338D01*
X63749Y-50300D01*
X63650Y-50299D01*
X62650Y-50299D01*
X62558Y-50337D01*
X62496Y-50400D01*
X62100Y-50400D01*
X62100Y-44400D01*
X62100Y-44136D01*
X62204Y-44179D01*
X62395Y-44180D01*
X62571Y-44107D01*
X62706Y-43972D01*
X62779Y-43795D01*
X62780Y-43604D01*
X62707Y-43428D01*
X62572Y-43293D01*
X62395Y-43220D01*
X62204Y-43219D01*
X62100Y-43263D01*
X62100Y-41765D01*
X62254Y-41829D01*
X62445Y-41830D01*
X62621Y-41757D01*
X62756Y-41622D01*
X62829Y-41445D01*
X62830Y-41254D01*
X62757Y-41078D01*
X62622Y-40943D01*
X62445Y-40870D01*
X62254Y-40869D01*
X62100Y-40933D01*
X62100Y-38869D01*
X88982Y-38869D01*
X88980Y-38870D01*
X88771Y-39079D01*
X88658Y-39351D01*
X88657Y-39646D01*
X88770Y-39919D01*
X88979Y-40128D01*
X89251Y-40241D01*
X89546Y-40242D01*
X89819Y-40129D01*
X90028Y-39920D01*
X90141Y-39648D01*
X90142Y-39353D01*
X90029Y-39080D01*
X89820Y-38871D01*
X89817Y-38869D01*
X95353Y-38869D01*
X95230Y-38920D01*
X95021Y-39129D01*
X94908Y-39401D01*
X94907Y-39696D01*
X95020Y-39969D01*
X95229Y-40178D01*
X95501Y-40291D01*
X95796Y-40292D01*
X96069Y-40179D01*
X96278Y-39970D01*
X96391Y-39698D01*
X96392Y-39403D01*
X96279Y-39130D01*
X96070Y-38921D01*
X95946Y-38869D01*
X114030Y-38869D01*
X114030Y-45600D01*
X114030Y-45600D01*
G37*
G54D31*
X114030Y-45600D02*
X113447Y-45600D01*
X113447Y-43830D01*
X113443Y-43717D01*
X113443Y-42220D01*
X113443Y-40842D01*
X113443Y-39465D01*
X113346Y-39228D01*
X113165Y-39047D01*
X112928Y-38948D01*
X112672Y-38948D01*
X112435Y-39046D01*
X112254Y-39227D01*
X112156Y-39463D01*
X112156Y-39719D01*
X112253Y-39956D01*
X112434Y-40137D01*
X112671Y-40236D01*
X112927Y-40236D01*
X113164Y-40138D01*
X113345Y-39957D01*
X113443Y-39721D01*
X113443Y-39465D01*
X113443Y-40842D01*
X113346Y-40606D01*
X113165Y-40425D01*
X112928Y-40326D01*
X112672Y-40326D01*
X112435Y-40424D01*
X112254Y-40605D01*
X112156Y-40841D01*
X112156Y-41097D01*
X112253Y-41334D01*
X112434Y-41515D01*
X112671Y-41614D01*
X112927Y-41614D01*
X113164Y-41516D01*
X113345Y-41335D01*
X113443Y-41099D01*
X113443Y-40842D01*
X113443Y-42220D01*
X113346Y-41984D01*
X113165Y-41803D01*
X112928Y-41704D01*
X112672Y-41704D01*
X112435Y-41802D01*
X112254Y-41983D01*
X112156Y-42219D01*
X112156Y-42475D01*
X112253Y-42712D01*
X112434Y-42893D01*
X112671Y-42992D01*
X112927Y-42992D01*
X113164Y-42894D01*
X113345Y-42713D01*
X113443Y-42477D01*
X113443Y-42220D01*
X113443Y-43717D01*
X113438Y-43574D01*
X113358Y-43382D01*
X113253Y-43343D01*
X113183Y-43414D01*
X113183Y-43272D01*
X113144Y-43167D01*
X112904Y-43078D01*
X112648Y-43087D01*
X112455Y-43167D01*
X112416Y-43272D01*
X112800Y-43655D01*
X113183Y-43272D01*
X113183Y-43414D01*
X112870Y-43726D01*
X113253Y-44109D01*
X113358Y-44070D01*
X113447Y-43830D01*
X113447Y-45600D01*
X113214Y-45600D01*
X113345Y-45469D01*
X113443Y-45232D01*
X113443Y-44976D01*
X113346Y-44740D01*
X113183Y-44576D01*
X113183Y-44180D01*
X112800Y-43797D01*
X112729Y-43867D01*
X112729Y-43726D01*
X112346Y-43343D01*
X112241Y-43382D01*
X112152Y-43622D01*
X112161Y-43878D01*
X112241Y-44070D01*
X112346Y-44109D01*
X112729Y-43726D01*
X112729Y-43867D01*
X112416Y-44180D01*
X112455Y-44285D01*
X112695Y-44374D01*
X112951Y-44364D01*
X113144Y-44285D01*
X113183Y-44180D01*
X113183Y-44576D01*
X113165Y-44558D01*
X112928Y-44460D01*
X112672Y-44460D01*
X112435Y-44558D01*
X112254Y-44739D01*
X112156Y-44975D01*
X112156Y-45231D01*
X112253Y-45468D01*
X112385Y-45600D01*
X110940Y-45600D01*
X110940Y-39833D01*
X110813Y-39524D01*
X110576Y-39287D01*
X110267Y-39159D01*
X109933Y-39159D01*
X109624Y-39287D01*
X109387Y-39523D01*
X109259Y-39832D01*
X109259Y-40166D01*
X109387Y-40475D01*
X109623Y-40712D01*
X109932Y-40840D01*
X110266Y-40840D01*
X110575Y-40713D01*
X110812Y-40476D01*
X110940Y-40167D01*
X110940Y-39833D01*
X110940Y-45600D01*
X109800Y-45600D01*
X109800Y-41850D01*
X108275Y-41850D01*
X108275Y-40966D01*
X108191Y-40763D01*
X108036Y-40609D01*
X107834Y-40525D01*
X107616Y-40524D01*
X107413Y-40608D01*
X107259Y-40763D01*
X107225Y-40844D01*
X107191Y-40763D01*
X107036Y-40609D01*
X106834Y-40525D01*
X106616Y-40524D01*
X106413Y-40608D01*
X106275Y-40747D01*
X106275Y-40725D01*
X106237Y-40633D01*
X106166Y-40563D01*
X106074Y-40525D01*
X105975Y-40524D01*
X105375Y-40524D01*
X105283Y-40562D01*
X105213Y-40633D01*
X105175Y-40725D01*
X105174Y-40824D01*
X105174Y-41424D01*
X105212Y-41516D01*
X105283Y-41586D01*
X105375Y-41624D01*
X105474Y-41625D01*
X106074Y-41625D01*
X106166Y-41587D01*
X106236Y-41516D01*
X106274Y-41424D01*
X106274Y-41402D01*
X106413Y-41540D01*
X106615Y-41624D01*
X106833Y-41625D01*
X107036Y-41541D01*
X107190Y-41386D01*
X107224Y-41305D01*
X107258Y-41386D01*
X107413Y-41540D01*
X107615Y-41624D01*
X107833Y-41625D01*
X108036Y-41541D01*
X108190Y-41386D01*
X108274Y-41184D01*
X108275Y-40966D01*
X108275Y-41850D01*
X104790Y-41850D01*
X104790Y-41670D01*
X104935Y-41525D01*
X105049Y-41249D01*
X105050Y-40951D01*
X104936Y-40675D01*
X104725Y-40464D01*
X104449Y-40350D01*
X104151Y-40349D01*
X103875Y-40463D01*
X103664Y-40674D01*
X103550Y-40950D01*
X103549Y-41248D01*
X103663Y-41524D01*
X103810Y-41670D01*
X103810Y-41850D01*
X102850Y-41850D01*
X102850Y-41300D01*
X102850Y-40700D01*
X102812Y-40608D01*
X102741Y-40538D01*
X102649Y-40500D01*
X102550Y-40499D01*
X101950Y-40499D01*
X101858Y-40537D01*
X101788Y-40608D01*
X101750Y-40700D01*
X101750Y-40722D01*
X101611Y-40584D01*
X101409Y-40500D01*
X101191Y-40499D01*
X100988Y-40583D01*
X100834Y-40738D01*
X100800Y-40819D01*
X100766Y-40738D01*
X100611Y-40584D01*
X100409Y-40500D01*
X100191Y-40499D01*
X99988Y-40583D01*
X99834Y-40738D01*
X99750Y-40940D01*
X99749Y-41158D01*
X99833Y-41361D01*
X99988Y-41515D01*
X100190Y-41599D01*
X100408Y-41600D01*
X100611Y-41516D01*
X100765Y-41361D01*
X100799Y-41280D01*
X100833Y-41361D01*
X100988Y-41515D01*
X101190Y-41599D01*
X101408Y-41600D01*
X101611Y-41516D01*
X101749Y-41377D01*
X101749Y-41399D01*
X101787Y-41491D01*
X101858Y-41561D01*
X101950Y-41599D01*
X102049Y-41600D01*
X102649Y-41600D01*
X102741Y-41562D01*
X102811Y-41491D01*
X102849Y-41399D01*
X102850Y-41300D01*
X102850Y-41850D01*
X99300Y-41850D01*
X99300Y-44350D01*
X99035Y-44350D01*
X98900Y-44214D01*
X98624Y-44100D01*
X98326Y-44099D01*
X98050Y-44213D01*
X97914Y-44350D01*
X97400Y-44350D01*
X97400Y-42131D01*
X97308Y-41910D01*
X97140Y-41741D01*
X96919Y-41650D01*
X96681Y-41649D01*
X96460Y-41741D01*
X96299Y-41901D01*
X96140Y-41741D01*
X95919Y-41650D01*
X95681Y-41649D01*
X95460Y-41741D01*
X95385Y-41815D01*
X95362Y-41758D01*
X95291Y-41688D01*
X95199Y-41650D01*
X95100Y-41649D01*
X94400Y-41649D01*
X94308Y-41687D01*
X94238Y-41758D01*
X94200Y-41850D01*
X94199Y-41949D01*
X94199Y-42649D01*
X94237Y-42741D01*
X94308Y-42811D01*
X94400Y-42849D01*
X94499Y-42850D01*
X95199Y-42850D01*
X95291Y-42812D01*
X95361Y-42741D01*
X95385Y-42684D01*
X95459Y-42758D01*
X95680Y-42849D01*
X95918Y-42850D01*
X96139Y-42758D01*
X96300Y-42598D01*
X96459Y-42758D01*
X96680Y-42849D01*
X96918Y-42850D01*
X97139Y-42758D01*
X97308Y-42590D01*
X97399Y-42369D01*
X97400Y-42131D01*
X97400Y-44350D01*
X93278Y-44350D01*
X93278Y-42204D01*
X93270Y-41906D01*
X93171Y-41666D01*
X93055Y-41615D01*
X92984Y-41685D01*
X92984Y-41544D01*
X92933Y-41428D01*
X92654Y-41321D01*
X92356Y-41329D01*
X92116Y-41428D01*
X92065Y-41544D01*
X92525Y-42004D01*
X92984Y-41544D01*
X92984Y-41685D01*
X92595Y-42075D01*
X93055Y-42534D01*
X93171Y-42483D01*
X93278Y-42204D01*
X93278Y-44350D01*
X92984Y-44350D01*
X92984Y-42605D01*
X92525Y-42145D01*
X92454Y-42216D01*
X92454Y-42075D01*
X91994Y-41615D01*
X91878Y-41666D01*
X91771Y-41945D01*
X91779Y-42243D01*
X91878Y-42483D01*
X91994Y-42534D01*
X92454Y-42075D01*
X92454Y-42216D01*
X92065Y-42605D01*
X92116Y-42721D01*
X92395Y-42828D01*
X92693Y-42820D01*
X92933Y-42721D01*
X92984Y-42605D01*
X92984Y-44350D01*
X91125Y-44350D01*
X91125Y-42131D01*
X91033Y-41910D01*
X90865Y-41741D01*
X90644Y-41650D01*
X90406Y-41649D01*
X90185Y-41741D01*
X90024Y-41901D01*
X89865Y-41741D01*
X89644Y-41650D01*
X89406Y-41649D01*
X89185Y-41741D01*
X89110Y-41815D01*
X89087Y-41758D01*
X89016Y-41688D01*
X88924Y-41650D01*
X88825Y-41649D01*
X88125Y-41649D01*
X88033Y-41687D01*
X87963Y-41758D01*
X87925Y-41850D01*
X87924Y-41949D01*
X87924Y-42649D01*
X87962Y-42741D01*
X88033Y-42811D01*
X88125Y-42849D01*
X88224Y-42850D01*
X88924Y-42850D01*
X89016Y-42812D01*
X89086Y-42741D01*
X89110Y-42684D01*
X89184Y-42758D01*
X89405Y-42849D01*
X89643Y-42850D01*
X89864Y-42758D01*
X90025Y-42598D01*
X90184Y-42758D01*
X90405Y-42849D01*
X90643Y-42850D01*
X90864Y-42758D01*
X91033Y-42590D01*
X91124Y-42369D01*
X91125Y-42131D01*
X91125Y-44350D01*
X87605Y-44350D01*
X87605Y-41704D01*
X87532Y-41528D01*
X87397Y-41393D01*
X87220Y-41320D01*
X87029Y-41319D01*
X87010Y-41328D01*
X87010Y-39273D01*
X86951Y-39132D01*
X86843Y-39023D01*
X86701Y-38965D01*
X86548Y-38964D01*
X86407Y-39023D01*
X86298Y-39131D01*
X86240Y-39273D01*
X86239Y-39426D01*
X86298Y-39567D01*
X86406Y-39676D01*
X86548Y-39734D01*
X86701Y-39735D01*
X86842Y-39676D01*
X86951Y-39568D01*
X87009Y-39426D01*
X87010Y-39273D01*
X87010Y-41328D01*
X86853Y-41392D01*
X86718Y-41527D01*
X86645Y-41704D01*
X86644Y-41895D01*
X86717Y-42071D01*
X86852Y-42206D01*
X87029Y-42279D01*
X87220Y-42280D01*
X87396Y-42207D01*
X87531Y-42072D01*
X87604Y-41895D01*
X87605Y-41704D01*
X87605Y-44350D01*
X85830Y-44350D01*
X85830Y-40904D01*
X85757Y-40728D01*
X85622Y-40593D01*
X85445Y-40520D01*
X85254Y-40519D01*
X85078Y-40592D01*
X84999Y-40671D01*
X84982Y-40628D01*
X84847Y-40493D01*
X84670Y-40420D01*
X84479Y-40419D01*
X84303Y-40492D01*
X84168Y-40627D01*
X84095Y-40804D01*
X84094Y-40995D01*
X84167Y-41171D01*
X84302Y-41306D01*
X84479Y-41379D01*
X84670Y-41380D01*
X84846Y-41307D01*
X84925Y-41228D01*
X84942Y-41271D01*
X85077Y-41406D01*
X85254Y-41479D01*
X85445Y-41480D01*
X85621Y-41407D01*
X85756Y-41272D01*
X85829Y-41095D01*
X85830Y-40904D01*
X85830Y-44350D01*
X85250Y-44350D01*
X85250Y-43714D01*
X85250Y-43285D01*
X85208Y-43074D01*
X85088Y-42896D01*
X84910Y-42777D01*
X84700Y-42735D01*
X84489Y-42777D01*
X84311Y-42896D01*
X84200Y-43062D01*
X84088Y-42896D01*
X83910Y-42777D01*
X83700Y-42735D01*
X83489Y-42777D01*
X83311Y-42896D01*
X83200Y-43062D01*
X83088Y-42896D01*
X82910Y-42777D01*
X82700Y-42735D01*
X82489Y-42777D01*
X82311Y-42896D01*
X82200Y-43062D01*
X82088Y-42896D01*
X81910Y-42777D01*
X81700Y-42735D01*
X81489Y-42777D01*
X81412Y-42828D01*
X81412Y-40749D01*
X81412Y-40482D01*
X81360Y-40220D01*
X81212Y-39999D01*
X80990Y-39851D01*
X80729Y-39799D01*
X80467Y-39851D01*
X80310Y-39956D01*
X80349Y-39862D01*
X80349Y-39638D01*
X80263Y-39430D01*
X80104Y-39271D01*
X79897Y-39185D01*
X79672Y-39184D01*
X79464Y-39270D01*
X79305Y-39429D01*
X79294Y-39455D01*
X79293Y-39453D01*
X79196Y-39423D01*
X79126Y-39494D01*
X79126Y-39353D01*
X79096Y-39256D01*
X78885Y-39180D01*
X78660Y-39191D01*
X78503Y-39256D01*
X78473Y-39353D01*
X78800Y-39679D01*
X79126Y-39353D01*
X79126Y-39494D01*
X78870Y-39750D01*
X79196Y-40076D01*
X79293Y-40046D01*
X79294Y-40044D01*
X79305Y-40069D01*
X79463Y-40228D01*
X79671Y-40314D01*
X79896Y-40315D01*
X80095Y-40232D01*
X80046Y-40482D01*
X80046Y-40749D01*
X80098Y-41011D01*
X80246Y-41232D01*
X80467Y-41381D01*
X80729Y-41433D01*
X80990Y-41381D01*
X81212Y-41232D01*
X81360Y-41011D01*
X81412Y-40749D01*
X81412Y-42828D01*
X81311Y-42896D01*
X81200Y-43062D01*
X81088Y-42896D01*
X80910Y-42777D01*
X80700Y-42735D01*
X80489Y-42777D01*
X80311Y-42896D01*
X80200Y-43062D01*
X80088Y-42896D01*
X79910Y-42777D01*
X79700Y-42735D01*
X79489Y-42777D01*
X79311Y-42896D01*
X79200Y-43062D01*
X79126Y-42951D01*
X79126Y-40146D01*
X78800Y-39820D01*
X78729Y-39891D01*
X78729Y-39750D01*
X78403Y-39423D01*
X78306Y-39453D01*
X78305Y-39455D01*
X78294Y-39430D01*
X78136Y-39271D01*
X77928Y-39185D01*
X77703Y-39184D01*
X77496Y-39270D01*
X77337Y-39429D01*
X77250Y-39637D01*
X77250Y-39861D01*
X77289Y-39956D01*
X77132Y-39851D01*
X76870Y-39799D01*
X76609Y-39851D01*
X76387Y-39999D01*
X76239Y-40220D01*
X76187Y-40482D01*
X76187Y-40749D01*
X76239Y-41011D01*
X76387Y-41232D01*
X76609Y-41381D01*
X76870Y-41433D01*
X77132Y-41381D01*
X77353Y-41232D01*
X77501Y-41011D01*
X77553Y-40749D01*
X77553Y-40482D01*
X77504Y-40232D01*
X77702Y-40314D01*
X77927Y-40315D01*
X78135Y-40229D01*
X78294Y-40070D01*
X78305Y-40044D01*
X78306Y-40046D01*
X78403Y-40076D01*
X78729Y-39750D01*
X78729Y-39891D01*
X78473Y-40146D01*
X78503Y-40243D01*
X78714Y-40319D01*
X78939Y-40308D01*
X79096Y-40243D01*
X79126Y-40146D01*
X79126Y-42951D01*
X79088Y-42896D01*
X78910Y-42777D01*
X78700Y-42735D01*
X78489Y-42777D01*
X78311Y-42896D01*
X78200Y-43062D01*
X78088Y-42896D01*
X77910Y-42777D01*
X77700Y-42735D01*
X77489Y-42777D01*
X77311Y-42896D01*
X77191Y-43074D01*
X77150Y-43285D01*
X77150Y-43714D01*
X77191Y-43925D01*
X77311Y-44103D01*
X77489Y-44222D01*
X77700Y-44264D01*
X77910Y-44222D01*
X78088Y-44103D01*
X78200Y-43937D01*
X78311Y-44103D01*
X78489Y-44222D01*
X78700Y-44264D01*
X78910Y-44222D01*
X79088Y-44103D01*
X79200Y-43937D01*
X79311Y-44103D01*
X79489Y-44222D01*
X79700Y-44264D01*
X79910Y-44222D01*
X80088Y-44103D01*
X80200Y-43937D01*
X80311Y-44103D01*
X80489Y-44222D01*
X80700Y-44264D01*
X80910Y-44222D01*
X81088Y-44103D01*
X81200Y-43937D01*
X81311Y-44103D01*
X81489Y-44222D01*
X81700Y-44264D01*
X81910Y-44222D01*
X82088Y-44103D01*
X82200Y-43937D01*
X82311Y-44103D01*
X82489Y-44222D01*
X82700Y-44264D01*
X82910Y-44222D01*
X83088Y-44103D01*
X83200Y-43937D01*
X83311Y-44103D01*
X83489Y-44222D01*
X83700Y-44264D01*
X83910Y-44222D01*
X84088Y-44103D01*
X84200Y-43937D01*
X84311Y-44103D01*
X84489Y-44222D01*
X84700Y-44264D01*
X84910Y-44222D01*
X85088Y-44103D01*
X85208Y-43925D01*
X85250Y-43714D01*
X85250Y-44350D01*
X76650Y-44350D01*
X76650Y-43714D01*
X76650Y-43285D01*
X76608Y-43074D01*
X76488Y-42896D01*
X76310Y-42777D01*
X76100Y-42735D01*
X75889Y-42777D01*
X75711Y-42896D01*
X75600Y-43062D01*
X75488Y-42896D01*
X75310Y-42777D01*
X75100Y-42735D01*
X74962Y-42762D01*
X74962Y-40749D01*
X74962Y-40482D01*
X74910Y-40220D01*
X74762Y-39999D01*
X74540Y-39851D01*
X74279Y-39799D01*
X74017Y-39851D01*
X73860Y-39956D01*
X73899Y-39862D01*
X73899Y-39638D01*
X73813Y-39430D01*
X73654Y-39271D01*
X73447Y-39185D01*
X73222Y-39184D01*
X73014Y-39270D01*
X72855Y-39429D01*
X72844Y-39455D01*
X72843Y-39453D01*
X72746Y-39423D01*
X72676Y-39494D01*
X72676Y-39353D01*
X72646Y-39256D01*
X72435Y-39180D01*
X72210Y-39191D01*
X72053Y-39256D01*
X72023Y-39353D01*
X72350Y-39679D01*
X72676Y-39353D01*
X72676Y-39494D01*
X72420Y-39750D01*
X72746Y-40076D01*
X72843Y-40046D01*
X72844Y-40044D01*
X72855Y-40069D01*
X73013Y-40228D01*
X73221Y-40314D01*
X73446Y-40315D01*
X73645Y-40232D01*
X73596Y-40482D01*
X73596Y-40749D01*
X73648Y-41011D01*
X73796Y-41232D01*
X74017Y-41381D01*
X74279Y-41433D01*
X74540Y-41381D01*
X74762Y-41232D01*
X74910Y-41011D01*
X74962Y-40749D01*
X74962Y-42762D01*
X74889Y-42777D01*
X74711Y-42896D01*
X74600Y-43062D01*
X74488Y-42896D01*
X74310Y-42777D01*
X74100Y-42735D01*
X73889Y-42777D01*
X73711Y-42896D01*
X73600Y-43062D01*
X73488Y-42896D01*
X73310Y-42777D01*
X73100Y-42735D01*
X72889Y-42777D01*
X72711Y-42896D01*
X72676Y-42948D01*
X72676Y-40146D01*
X72350Y-39820D01*
X72279Y-39891D01*
X72279Y-39750D01*
X71953Y-39423D01*
X71856Y-39453D01*
X71855Y-39455D01*
X71844Y-39430D01*
X71686Y-39271D01*
X71478Y-39185D01*
X71253Y-39184D01*
X71046Y-39270D01*
X70887Y-39429D01*
X70800Y-39637D01*
X70800Y-39861D01*
X70839Y-39956D01*
X70682Y-39851D01*
X70420Y-39799D01*
X70159Y-39851D01*
X69937Y-39999D01*
X69789Y-40220D01*
X69737Y-40482D01*
X69737Y-40749D01*
X69789Y-41011D01*
X69937Y-41232D01*
X70159Y-41381D01*
X70420Y-41433D01*
X70682Y-41381D01*
X70903Y-41232D01*
X71051Y-41011D01*
X71103Y-40749D01*
X71103Y-40482D01*
X71054Y-40232D01*
X71252Y-40314D01*
X71477Y-40315D01*
X71685Y-40229D01*
X71844Y-40070D01*
X71855Y-40044D01*
X71856Y-40046D01*
X71953Y-40076D01*
X72279Y-39750D01*
X72279Y-39891D01*
X72023Y-40146D01*
X72053Y-40243D01*
X72264Y-40319D01*
X72489Y-40308D01*
X72646Y-40243D01*
X72676Y-40146D01*
X72676Y-42948D01*
X72600Y-43062D01*
X72488Y-42896D01*
X72310Y-42777D01*
X72100Y-42735D01*
X71889Y-42777D01*
X71711Y-42896D01*
X71600Y-43062D01*
X71488Y-42896D01*
X71310Y-42777D01*
X71100Y-42735D01*
X70889Y-42777D01*
X70711Y-42896D01*
X70600Y-43062D01*
X70488Y-42896D01*
X70310Y-42777D01*
X70100Y-42735D01*
X69889Y-42777D01*
X69711Y-42896D01*
X69600Y-43062D01*
X69488Y-42896D01*
X69310Y-42777D01*
X69100Y-42735D01*
X68889Y-42777D01*
X68711Y-42896D01*
X68591Y-43074D01*
X68550Y-43285D01*
X68550Y-43714D01*
X68591Y-43925D01*
X68711Y-44103D01*
X68889Y-44222D01*
X69100Y-44264D01*
X69310Y-44222D01*
X69488Y-44103D01*
X69600Y-43937D01*
X69711Y-44103D01*
X69889Y-44222D01*
X70100Y-44264D01*
X70310Y-44222D01*
X70488Y-44103D01*
X70600Y-43937D01*
X70711Y-44103D01*
X70889Y-44222D01*
X71100Y-44264D01*
X71310Y-44222D01*
X71488Y-44103D01*
X71600Y-43937D01*
X71711Y-44103D01*
X71889Y-44222D01*
X72100Y-44264D01*
X72310Y-44222D01*
X72488Y-44103D01*
X72600Y-43937D01*
X72711Y-44103D01*
X72889Y-44222D01*
X73100Y-44264D01*
X73310Y-44222D01*
X73488Y-44103D01*
X73600Y-43937D01*
X73711Y-44103D01*
X73889Y-44222D01*
X74100Y-44264D01*
X74310Y-44222D01*
X74488Y-44103D01*
X74600Y-43937D01*
X74711Y-44103D01*
X74889Y-44222D01*
X75100Y-44264D01*
X75310Y-44222D01*
X75488Y-44103D01*
X75600Y-43937D01*
X75711Y-44103D01*
X75889Y-44222D01*
X76100Y-44264D01*
X76310Y-44222D01*
X76488Y-44103D01*
X76608Y-43925D01*
X76650Y-43714D01*
X76650Y-44350D01*
X67685Y-44350D01*
X67685Y-40748D01*
X67626Y-40607D01*
X67610Y-40590D01*
X67610Y-39723D01*
X67551Y-39582D01*
X67443Y-39473D01*
X67301Y-39415D01*
X67148Y-39414D01*
X67007Y-39473D01*
X66995Y-39485D01*
X66995Y-39317D01*
X66912Y-39116D01*
X66759Y-38963D01*
X66558Y-38879D01*
X66342Y-38879D01*
X66141Y-38962D01*
X66022Y-39081D01*
X65921Y-38979D01*
X65728Y-38899D01*
X65519Y-38899D01*
X65325Y-38979D01*
X65229Y-39075D01*
X65133Y-38979D01*
X64940Y-38899D01*
X64731Y-38899D01*
X64538Y-38979D01*
X64442Y-39075D01*
X64346Y-38979D01*
X64153Y-38899D01*
X63944Y-38899D01*
X63751Y-38979D01*
X63648Y-39081D01*
X63530Y-38963D01*
X63330Y-38879D01*
X63113Y-38879D01*
X62913Y-38962D01*
X62759Y-39115D01*
X62676Y-39316D01*
X62676Y-39532D01*
X62759Y-39733D01*
X62912Y-39886D01*
X63112Y-39970D01*
X63329Y-39970D01*
X63530Y-39887D01*
X63649Y-39768D01*
X63750Y-39870D01*
X63943Y-39950D01*
X64152Y-39950D01*
X64345Y-39870D01*
X64442Y-39774D01*
X64537Y-39870D01*
X64730Y-39950D01*
X64939Y-39950D01*
X65133Y-39870D01*
X65229Y-39774D01*
X65325Y-39870D01*
X65518Y-39950D01*
X65727Y-39950D01*
X65920Y-39870D01*
X66022Y-39768D01*
X66140Y-39886D01*
X66341Y-39970D01*
X66557Y-39970D01*
X66758Y-39887D01*
X66839Y-39806D01*
X66839Y-39876D01*
X66898Y-40017D01*
X67006Y-40126D01*
X67148Y-40184D01*
X67301Y-40185D01*
X67442Y-40126D01*
X67551Y-40018D01*
X67609Y-39876D01*
X67610Y-39723D01*
X67610Y-40590D01*
X67518Y-40498D01*
X67376Y-40440D01*
X67223Y-40439D01*
X67082Y-40498D01*
X66973Y-40606D01*
X66915Y-40748D01*
X66914Y-40901D01*
X66973Y-41042D01*
X67081Y-41151D01*
X67223Y-41209D01*
X67376Y-41210D01*
X67517Y-41151D01*
X67626Y-41043D01*
X67684Y-40901D01*
X67685Y-40748D01*
X67685Y-44350D01*
X65934Y-44350D01*
X66195Y-44242D01*
X66441Y-43996D01*
X66574Y-43674D01*
X66575Y-43326D01*
X66442Y-43005D01*
X66196Y-42758D01*
X65874Y-42625D01*
X65526Y-42624D01*
X65205Y-42757D01*
X64958Y-43003D01*
X64825Y-43325D01*
X64824Y-43673D01*
X64957Y-43995D01*
X65203Y-44241D01*
X65465Y-44350D01*
X64780Y-44350D01*
X64780Y-43754D01*
X64707Y-43578D01*
X64572Y-43443D01*
X64395Y-43370D01*
X64204Y-43369D01*
X64028Y-43442D01*
X63893Y-43577D01*
X63820Y-43754D01*
X63819Y-43945D01*
X63892Y-44121D01*
X64027Y-44256D01*
X64204Y-44329D01*
X64395Y-44330D01*
X64571Y-44257D01*
X64706Y-44122D01*
X64779Y-43945D01*
X64780Y-43754D01*
X64780Y-44350D01*
X64150Y-44350D01*
X64150Y-50400D01*
X63903Y-50400D01*
X63841Y-50338D01*
X63749Y-50300D01*
X63650Y-50299D01*
X62650Y-50299D01*
X62558Y-50337D01*
X62496Y-50400D01*
X62100Y-50400D01*
X62100Y-44400D01*
X62100Y-44136D01*
X62204Y-44179D01*
X62395Y-44180D01*
X62571Y-44107D01*
X62706Y-43972D01*
X62779Y-43795D01*
X62780Y-43604D01*
X62707Y-43428D01*
X62572Y-43293D01*
X62395Y-43220D01*
X62204Y-43219D01*
X62100Y-43263D01*
X62100Y-41765D01*
X62254Y-41829D01*
X62445Y-41830D01*
X62621Y-41757D01*
X62756Y-41622D01*
X62829Y-41445D01*
X62830Y-41254D01*
X62757Y-41078D01*
X62622Y-40943D01*
X62445Y-40870D01*
X62254Y-40869D01*
X62100Y-40933D01*
X62100Y-38869D01*
X88982Y-38869D01*
X88980Y-38870D01*
X88771Y-39079D01*
X88658Y-39351D01*
X88657Y-39646D01*
X88770Y-39919D01*
X88979Y-40128D01*
X89251Y-40241D01*
X89546Y-40242D01*
X89819Y-40129D01*
X90028Y-39920D01*
X90141Y-39648D01*
X90142Y-39353D01*
X90029Y-39080D01*
X89820Y-38871D01*
X89817Y-38869D01*
X95353Y-38869D01*
X95230Y-38920D01*
X95021Y-39129D01*
X94908Y-39401D01*
X94907Y-39696D01*
X95020Y-39969D01*
X95229Y-40178D01*
X95501Y-40291D01*
X95796Y-40292D01*
X96069Y-40179D01*
X96278Y-39970D01*
X96391Y-39698D01*
X96392Y-39403D01*
X96279Y-39130D01*
X96070Y-38921D01*
X95946Y-38869D01*
X114030Y-38869D01*
X114030Y-45600D01*
G54D10*
G36*
X64399Y-50751D02*
X64325Y-55800D01*
X63903Y-55800D01*
X63841Y-55738D01*
X63749Y-55700D01*
X63650Y-55699D01*
X62650Y-55699D01*
X62558Y-55737D01*
X62496Y-55800D01*
X61800Y-55800D01*
X61800Y-63330D01*
X61630Y-63330D01*
X61630Y-50804D01*
X61557Y-50628D01*
X61422Y-50493D01*
X61245Y-50420D01*
X61054Y-50419D01*
X60878Y-50492D01*
X60743Y-50627D01*
X60670Y-50804D01*
X60669Y-50995D01*
X60742Y-51171D01*
X60877Y-51306D01*
X61054Y-51379D01*
X61245Y-51380D01*
X61421Y-51307D01*
X61556Y-51172D01*
X61629Y-50995D01*
X61630Y-50804D01*
X61630Y-63330D01*
X61280Y-63330D01*
X61280Y-55104D01*
X61207Y-54928D01*
X61072Y-54793D01*
X60895Y-54720D01*
X60704Y-54719D01*
X60528Y-54792D01*
X60393Y-54927D01*
X60320Y-55104D01*
X60319Y-55295D01*
X60392Y-55471D01*
X60527Y-55606D01*
X60704Y-55679D01*
X60895Y-55680D01*
X61071Y-55607D01*
X61206Y-55472D01*
X61279Y-55295D01*
X61280Y-55104D01*
X61280Y-63330D01*
X59930Y-63330D01*
X59930Y-59604D01*
X59857Y-59428D01*
X59722Y-59293D01*
X59545Y-59220D01*
X59354Y-59219D01*
X59178Y-59292D01*
X59043Y-59427D01*
X58970Y-59604D01*
X58969Y-59795D01*
X59042Y-59971D01*
X59177Y-60106D01*
X59354Y-60179D01*
X59545Y-60180D01*
X59721Y-60107D01*
X59856Y-59972D01*
X59929Y-59795D01*
X59930Y-59604D01*
X59930Y-63330D01*
X57830Y-63330D01*
X57830Y-41279D01*
X57757Y-41103D01*
X57622Y-40968D01*
X57445Y-40895D01*
X57254Y-40894D01*
X57210Y-40913D01*
X57210Y-39723D01*
X57151Y-39582D01*
X57043Y-39473D01*
X56901Y-39415D01*
X56748Y-39414D01*
X56607Y-39473D01*
X56498Y-39581D01*
X56440Y-39723D01*
X56439Y-39876D01*
X56498Y-40017D01*
X56606Y-40126D01*
X56748Y-40184D01*
X56901Y-40185D01*
X57042Y-40126D01*
X57151Y-40018D01*
X57209Y-39876D01*
X57210Y-39723D01*
X57210Y-40913D01*
X57078Y-40967D01*
X56943Y-41102D01*
X56870Y-41279D01*
X56869Y-41470D01*
X56942Y-41646D01*
X57077Y-41781D01*
X57254Y-41854D01*
X57445Y-41855D01*
X57621Y-41782D01*
X57756Y-41647D01*
X57829Y-41470D01*
X57830Y-41279D01*
X57830Y-63330D01*
X57046Y-63330D01*
X56830Y-63329D01*
X56830Y-60422D01*
X56702Y-60113D01*
X56466Y-59876D01*
X56189Y-59762D01*
X56464Y-59648D01*
X56701Y-59412D01*
X56829Y-59103D01*
X56830Y-58768D01*
X56702Y-58459D01*
X56466Y-58223D01*
X56189Y-58108D01*
X56464Y-57994D01*
X56701Y-57758D01*
X56829Y-57449D01*
X56830Y-57115D01*
X56702Y-56806D01*
X56466Y-56569D01*
X56189Y-56454D01*
X56464Y-56341D01*
X56701Y-56105D01*
X56829Y-55796D01*
X56830Y-55461D01*
X56702Y-55152D01*
X56466Y-54916D01*
X56189Y-54801D01*
X56464Y-54687D01*
X56701Y-54451D01*
X56829Y-54142D01*
X56830Y-53808D01*
X56702Y-53499D01*
X56466Y-53262D01*
X56164Y-53137D01*
X56413Y-53034D01*
X56650Y-52798D01*
X56778Y-52489D01*
X56778Y-52154D01*
X56651Y-51845D01*
X56414Y-51609D01*
X56164Y-51504D01*
X56464Y-51380D01*
X56701Y-51144D01*
X56829Y-50835D01*
X56830Y-50501D01*
X56702Y-50192D01*
X56466Y-49955D01*
X56189Y-49840D01*
X56464Y-49727D01*
X56701Y-49490D01*
X56829Y-49182D01*
X56830Y-48847D01*
X56702Y-48538D01*
X56466Y-48302D01*
X56189Y-48187D01*
X56464Y-48073D01*
X56701Y-47837D01*
X56829Y-47528D01*
X56830Y-47194D01*
X56702Y-46885D01*
X56466Y-46648D01*
X56189Y-46533D01*
X56464Y-46420D01*
X56701Y-46183D01*
X56829Y-45875D01*
X56830Y-45540D01*
X56702Y-45231D01*
X56466Y-44994D01*
X56189Y-44880D01*
X56464Y-44766D01*
X56701Y-44530D01*
X56829Y-44221D01*
X56830Y-43887D01*
X56702Y-43578D01*
X56466Y-43341D01*
X56189Y-43226D01*
X56464Y-43113D01*
X56701Y-42876D01*
X56829Y-42567D01*
X56830Y-42233D01*
X56702Y-41924D01*
X56466Y-41687D01*
X56157Y-41559D01*
X55822Y-41559D01*
X55513Y-41687D01*
X55277Y-41923D01*
X55148Y-42232D01*
X55148Y-42566D01*
X55276Y-42875D01*
X55512Y-43112D01*
X55788Y-43226D01*
X55513Y-43340D01*
X55277Y-43576D01*
X55148Y-43885D01*
X55148Y-44220D01*
X55276Y-44529D01*
X55512Y-44765D01*
X55788Y-44880D01*
X55513Y-44994D01*
X55277Y-45230D01*
X55148Y-45539D01*
X55148Y-45873D01*
X55276Y-46182D01*
X55512Y-46419D01*
X55788Y-46533D01*
X55513Y-46647D01*
X55277Y-46883D01*
X55148Y-47192D01*
X55148Y-47527D01*
X55276Y-47836D01*
X55512Y-48072D01*
X55788Y-48187D01*
X55513Y-48301D01*
X55277Y-48537D01*
X55148Y-48846D01*
X55148Y-49180D01*
X55276Y-49489D01*
X55512Y-49726D01*
X55788Y-49841D01*
X55513Y-49954D01*
X55277Y-50190D01*
X55148Y-50499D01*
X55148Y-50834D01*
X55276Y-51143D01*
X55512Y-51379D01*
X55763Y-51484D01*
X55462Y-51608D01*
X55226Y-51844D01*
X55097Y-52153D01*
X55097Y-52487D01*
X55225Y-52796D01*
X55461Y-53033D01*
X55763Y-53158D01*
X55513Y-53261D01*
X55277Y-53498D01*
X55148Y-53806D01*
X55148Y-54141D01*
X55276Y-54450D01*
X55512Y-54686D01*
X55788Y-54801D01*
X55513Y-54915D01*
X55277Y-55151D01*
X55148Y-55460D01*
X55148Y-55794D01*
X55276Y-56103D01*
X55512Y-56340D01*
X55788Y-56455D01*
X55513Y-56568D01*
X55277Y-56805D01*
X55148Y-57113D01*
X55148Y-57448D01*
X55276Y-57757D01*
X55512Y-57994D01*
X55788Y-58108D01*
X55513Y-58222D01*
X55277Y-58458D01*
X55148Y-58767D01*
X55148Y-59101D01*
X55276Y-59410D01*
X55512Y-59647D01*
X55788Y-59762D01*
X55513Y-59875D01*
X55277Y-60112D01*
X55148Y-60421D01*
X55148Y-60755D01*
X55276Y-61064D01*
X55512Y-61301D01*
X55821Y-61429D01*
X56155Y-61429D01*
X56464Y-61301D01*
X56701Y-61065D01*
X56829Y-60756D01*
X56830Y-60422D01*
X56830Y-63329D01*
X56080Y-63326D01*
X56080Y-61804D01*
X56007Y-61628D01*
X55872Y-61493D01*
X55695Y-61420D01*
X55504Y-61419D01*
X55328Y-61492D01*
X55193Y-61627D01*
X55120Y-61804D01*
X55119Y-61995D01*
X55192Y-62171D01*
X55327Y-62306D01*
X55504Y-62379D01*
X55695Y-62380D01*
X55871Y-62307D01*
X56006Y-62172D01*
X56079Y-61995D01*
X56080Y-61804D01*
X56080Y-63326D01*
X54667Y-63320D01*
X54667Y-57432D01*
X54667Y-54125D01*
X54664Y-53974D01*
X54664Y-52154D01*
X54537Y-51845D01*
X54300Y-51609D01*
X54024Y-51494D01*
X54299Y-51380D01*
X54536Y-51144D01*
X54664Y-50835D01*
X54664Y-50501D01*
X54537Y-50192D01*
X54300Y-49955D01*
X54024Y-49840D01*
X54299Y-49727D01*
X54536Y-49490D01*
X54664Y-49182D01*
X54664Y-48847D01*
X54537Y-48538D01*
X54300Y-48302D01*
X54024Y-48187D01*
X54299Y-48073D01*
X54536Y-47837D01*
X54664Y-47528D01*
X54664Y-47194D01*
X54537Y-46885D01*
X54300Y-46648D01*
X54024Y-46533D01*
X54299Y-46420D01*
X54536Y-46183D01*
X54664Y-45875D01*
X54664Y-45540D01*
X54537Y-45231D01*
X54300Y-44994D01*
X54024Y-44880D01*
X54299Y-44766D01*
X54536Y-44530D01*
X54664Y-44221D01*
X54664Y-43887D01*
X54537Y-43578D01*
X54300Y-43341D01*
X54024Y-43226D01*
X54299Y-43113D01*
X54536Y-42876D01*
X54664Y-42567D01*
X54664Y-42233D01*
X54537Y-41924D01*
X54300Y-41687D01*
X53991Y-41559D01*
X53657Y-41559D01*
X53348Y-41687D01*
X53111Y-41923D01*
X52983Y-42232D01*
X52983Y-42566D01*
X53111Y-42875D01*
X53347Y-43112D01*
X53623Y-43226D01*
X53348Y-43340D01*
X53111Y-43576D01*
X52983Y-43885D01*
X52983Y-44220D01*
X53111Y-44529D01*
X53347Y-44765D01*
X53623Y-44880D01*
X53348Y-44994D01*
X53111Y-45230D01*
X52983Y-45539D01*
X52983Y-45873D01*
X53111Y-46182D01*
X53347Y-46419D01*
X53623Y-46533D01*
X53348Y-46647D01*
X53111Y-46883D01*
X52983Y-47192D01*
X52983Y-47527D01*
X53111Y-47836D01*
X53347Y-48072D01*
X53623Y-48187D01*
X53348Y-48301D01*
X53111Y-48537D01*
X52983Y-48846D01*
X52983Y-49180D01*
X53111Y-49489D01*
X53347Y-49726D01*
X53623Y-49841D01*
X53348Y-49954D01*
X53111Y-50190D01*
X52983Y-50499D01*
X52983Y-50834D01*
X53111Y-51143D01*
X53347Y-51379D01*
X53623Y-51494D01*
X53348Y-51608D01*
X53111Y-51844D01*
X52983Y-52153D01*
X52983Y-52487D01*
X53111Y-52796D01*
X53347Y-53033D01*
X53619Y-53146D01*
X53361Y-53253D01*
X53298Y-53378D01*
X53824Y-53904D01*
X54349Y-53378D01*
X54286Y-53253D01*
X54021Y-53149D01*
X54299Y-53034D01*
X54536Y-52798D01*
X54664Y-52489D01*
X54664Y-52154D01*
X54664Y-53974D01*
X54661Y-53791D01*
X54545Y-53512D01*
X54420Y-53449D01*
X53894Y-53974D01*
X54420Y-54500D01*
X54545Y-54437D01*
X54667Y-54125D01*
X54667Y-57432D01*
X54664Y-57281D01*
X54664Y-55461D01*
X54537Y-55152D01*
X54300Y-54916D01*
X54028Y-54803D01*
X54286Y-54696D01*
X54349Y-54570D01*
X53824Y-54045D01*
X53753Y-54116D01*
X53753Y-53974D01*
X53227Y-53449D01*
X53102Y-53512D01*
X52980Y-53823D01*
X52986Y-54158D01*
X53102Y-54437D01*
X53227Y-54500D01*
X53753Y-53974D01*
X53753Y-54116D01*
X53298Y-54570D01*
X53361Y-54696D01*
X53626Y-54800D01*
X53348Y-54915D01*
X53111Y-55151D01*
X52983Y-55460D01*
X52983Y-55794D01*
X53111Y-56103D01*
X53347Y-56340D01*
X53619Y-56453D01*
X53361Y-56560D01*
X53298Y-56685D01*
X53824Y-57211D01*
X54349Y-56685D01*
X54286Y-56560D01*
X54021Y-56456D01*
X54299Y-56341D01*
X54536Y-56105D01*
X54664Y-55796D01*
X54664Y-55461D01*
X54664Y-57281D01*
X54661Y-57098D01*
X54545Y-56819D01*
X54420Y-56756D01*
X53894Y-57281D01*
X54420Y-57807D01*
X54545Y-57744D01*
X54667Y-57432D01*
X54667Y-63320D01*
X54664Y-63320D01*
X54664Y-58768D01*
X54537Y-58459D01*
X54300Y-58223D01*
X54028Y-58110D01*
X54286Y-58003D01*
X54349Y-57877D01*
X53824Y-57352D01*
X53753Y-57423D01*
X53753Y-57281D01*
X53227Y-56756D01*
X53102Y-56819D01*
X52980Y-57130D01*
X52986Y-57465D01*
X53102Y-57744D01*
X53227Y-57807D01*
X53753Y-57281D01*
X53753Y-57423D01*
X53298Y-57877D01*
X53361Y-58003D01*
X53626Y-58107D01*
X53348Y-58222D01*
X53111Y-58458D01*
X52983Y-58767D01*
X52983Y-59101D01*
X53111Y-59410D01*
X53347Y-59647D01*
X53589Y-59748D01*
X53183Y-59748D01*
X53092Y-59786D01*
X53021Y-59856D01*
X52983Y-59948D01*
X52983Y-60047D01*
X52983Y-61229D01*
X53021Y-61320D01*
X53091Y-61391D01*
X53183Y-61429D01*
X53282Y-61429D01*
X54464Y-61429D01*
X54555Y-61391D01*
X54626Y-61321D01*
X54664Y-61229D01*
X54664Y-61130D01*
X54664Y-59948D01*
X54626Y-59856D01*
X54556Y-59786D01*
X54464Y-59748D01*
X54365Y-59748D01*
X54057Y-59748D01*
X54299Y-59648D01*
X54536Y-59412D01*
X54664Y-59103D01*
X54664Y-58768D01*
X54664Y-63320D01*
X51530Y-63307D01*
X51662Y-63176D01*
X51790Y-62867D01*
X51790Y-62533D01*
X51790Y-60422D01*
X51790Y-42233D01*
X51663Y-41924D01*
X51426Y-41687D01*
X51117Y-41559D01*
X50783Y-41559D01*
X50474Y-41687D01*
X50237Y-41923D01*
X50109Y-42232D01*
X50109Y-42566D01*
X50237Y-42875D01*
X50473Y-43112D01*
X50782Y-43240D01*
X51116Y-43240D01*
X51425Y-43113D01*
X51662Y-42876D01*
X51790Y-42567D01*
X51790Y-42233D01*
X51790Y-60422D01*
X51663Y-60113D01*
X51426Y-59876D01*
X51117Y-59748D01*
X50783Y-59748D01*
X50474Y-59875D01*
X50237Y-60112D01*
X50109Y-60421D01*
X50109Y-60755D01*
X50237Y-61064D01*
X50473Y-61301D01*
X50782Y-61429D01*
X51116Y-61429D01*
X51425Y-61301D01*
X51662Y-61065D01*
X51790Y-60756D01*
X51790Y-60422D01*
X51790Y-62533D01*
X51663Y-62224D01*
X51426Y-61987D01*
X51117Y-61859D01*
X50783Y-61859D01*
X50474Y-61987D01*
X50237Y-62223D01*
X50109Y-62532D01*
X50109Y-62866D01*
X50237Y-63175D01*
X50364Y-63302D01*
X49700Y-63300D01*
X49700Y-38899D01*
X50515Y-38896D01*
X50287Y-39123D01*
X50159Y-39432D01*
X50159Y-39766D01*
X50287Y-40075D01*
X50523Y-40312D01*
X50832Y-40440D01*
X51166Y-40440D01*
X51475Y-40313D01*
X51712Y-40076D01*
X51840Y-39767D01*
X51840Y-39433D01*
X51713Y-39124D01*
X51481Y-38892D01*
X57046Y-38869D01*
X61800Y-38869D01*
X61800Y-50822D01*
X62649Y-50799D01*
X62650Y-50799D01*
X62749Y-50800D01*
X63749Y-50800D01*
X63829Y-50767D01*
X64399Y-50751D01*
X64399Y-50751D01*
G37*
G54D31*
X64399Y-50751D02*
X64325Y-55800D01*
X63903Y-55800D01*
X63841Y-55738D01*
X63749Y-55700D01*
X63650Y-55699D01*
X62650Y-55699D01*
X62558Y-55737D01*
X62496Y-55800D01*
X61800Y-55800D01*
X61800Y-63330D01*
X61630Y-63330D01*
X61630Y-50804D01*
X61557Y-50628D01*
X61422Y-50493D01*
X61245Y-50420D01*
X61054Y-50419D01*
X60878Y-50492D01*
X60743Y-50627D01*
X60670Y-50804D01*
X60669Y-50995D01*
X60742Y-51171D01*
X60877Y-51306D01*
X61054Y-51379D01*
X61245Y-51380D01*
X61421Y-51307D01*
X61556Y-51172D01*
X61629Y-50995D01*
X61630Y-50804D01*
X61630Y-63330D01*
X61280Y-63330D01*
X61280Y-55104D01*
X61207Y-54928D01*
X61072Y-54793D01*
X60895Y-54720D01*
X60704Y-54719D01*
X60528Y-54792D01*
X60393Y-54927D01*
X60320Y-55104D01*
X60319Y-55295D01*
X60392Y-55471D01*
X60527Y-55606D01*
X60704Y-55679D01*
X60895Y-55680D01*
X61071Y-55607D01*
X61206Y-55472D01*
X61279Y-55295D01*
X61280Y-55104D01*
X61280Y-63330D01*
X59930Y-63330D01*
X59930Y-59604D01*
X59857Y-59428D01*
X59722Y-59293D01*
X59545Y-59220D01*
X59354Y-59219D01*
X59178Y-59292D01*
X59043Y-59427D01*
X58970Y-59604D01*
X58969Y-59795D01*
X59042Y-59971D01*
X59177Y-60106D01*
X59354Y-60179D01*
X59545Y-60180D01*
X59721Y-60107D01*
X59856Y-59972D01*
X59929Y-59795D01*
X59930Y-59604D01*
X59930Y-63330D01*
X57830Y-63330D01*
X57830Y-41279D01*
X57757Y-41103D01*
X57622Y-40968D01*
X57445Y-40895D01*
X57254Y-40894D01*
X57210Y-40913D01*
X57210Y-39723D01*
X57151Y-39582D01*
X57043Y-39473D01*
X56901Y-39415D01*
X56748Y-39414D01*
X56607Y-39473D01*
X56498Y-39581D01*
X56440Y-39723D01*
X56439Y-39876D01*
X56498Y-40017D01*
X56606Y-40126D01*
X56748Y-40184D01*
X56901Y-40185D01*
X57042Y-40126D01*
X57151Y-40018D01*
X57209Y-39876D01*
X57210Y-39723D01*
X57210Y-40913D01*
X57078Y-40967D01*
X56943Y-41102D01*
X56870Y-41279D01*
X56869Y-41470D01*
X56942Y-41646D01*
X57077Y-41781D01*
X57254Y-41854D01*
X57445Y-41855D01*
X57621Y-41782D01*
X57756Y-41647D01*
X57829Y-41470D01*
X57830Y-41279D01*
X57830Y-63330D01*
X57046Y-63330D01*
X56830Y-63329D01*
X56830Y-60422D01*
X56702Y-60113D01*
X56466Y-59876D01*
X56189Y-59762D01*
X56464Y-59648D01*
X56701Y-59412D01*
X56829Y-59103D01*
X56830Y-58768D01*
X56702Y-58459D01*
X56466Y-58223D01*
X56189Y-58108D01*
X56464Y-57994D01*
X56701Y-57758D01*
X56829Y-57449D01*
X56830Y-57115D01*
X56702Y-56806D01*
X56466Y-56569D01*
X56189Y-56454D01*
X56464Y-56341D01*
X56701Y-56105D01*
X56829Y-55796D01*
X56830Y-55461D01*
X56702Y-55152D01*
X56466Y-54916D01*
X56189Y-54801D01*
X56464Y-54687D01*
X56701Y-54451D01*
X56829Y-54142D01*
X56830Y-53808D01*
X56702Y-53499D01*
X56466Y-53262D01*
X56164Y-53137D01*
X56413Y-53034D01*
X56650Y-52798D01*
X56778Y-52489D01*
X56778Y-52154D01*
X56651Y-51845D01*
X56414Y-51609D01*
X56164Y-51504D01*
X56464Y-51380D01*
X56701Y-51144D01*
X56829Y-50835D01*
X56830Y-50501D01*
X56702Y-50192D01*
X56466Y-49955D01*
X56189Y-49840D01*
X56464Y-49727D01*
X56701Y-49490D01*
X56829Y-49182D01*
X56830Y-48847D01*
X56702Y-48538D01*
X56466Y-48302D01*
X56189Y-48187D01*
X56464Y-48073D01*
X56701Y-47837D01*
X56829Y-47528D01*
X56830Y-47194D01*
X56702Y-46885D01*
X56466Y-46648D01*
X56189Y-46533D01*
X56464Y-46420D01*
X56701Y-46183D01*
X56829Y-45875D01*
X56830Y-45540D01*
X56702Y-45231D01*
X56466Y-44994D01*
X56189Y-44880D01*
X56464Y-44766D01*
X56701Y-44530D01*
X56829Y-44221D01*
X56830Y-43887D01*
X56702Y-43578D01*
X56466Y-43341D01*
X56189Y-43226D01*
X56464Y-43113D01*
X56701Y-42876D01*
X56829Y-42567D01*
X56830Y-42233D01*
X56702Y-41924D01*
X56466Y-41687D01*
X56157Y-41559D01*
X55822Y-41559D01*
X55513Y-41687D01*
X55277Y-41923D01*
X55148Y-42232D01*
X55148Y-42566D01*
X55276Y-42875D01*
X55512Y-43112D01*
X55788Y-43226D01*
X55513Y-43340D01*
X55277Y-43576D01*
X55148Y-43885D01*
X55148Y-44220D01*
X55276Y-44529D01*
X55512Y-44765D01*
X55788Y-44880D01*
X55513Y-44994D01*
X55277Y-45230D01*
X55148Y-45539D01*
X55148Y-45873D01*
X55276Y-46182D01*
X55512Y-46419D01*
X55788Y-46533D01*
X55513Y-46647D01*
X55277Y-46883D01*
X55148Y-47192D01*
X55148Y-47527D01*
X55276Y-47836D01*
X55512Y-48072D01*
X55788Y-48187D01*
X55513Y-48301D01*
X55277Y-48537D01*
X55148Y-48846D01*
X55148Y-49180D01*
X55276Y-49489D01*
X55512Y-49726D01*
X55788Y-49841D01*
X55513Y-49954D01*
X55277Y-50190D01*
X55148Y-50499D01*
X55148Y-50834D01*
X55276Y-51143D01*
X55512Y-51379D01*
X55763Y-51484D01*
X55462Y-51608D01*
X55226Y-51844D01*
X55097Y-52153D01*
X55097Y-52487D01*
X55225Y-52796D01*
X55461Y-53033D01*
X55763Y-53158D01*
X55513Y-53261D01*
X55277Y-53498D01*
X55148Y-53806D01*
X55148Y-54141D01*
X55276Y-54450D01*
X55512Y-54686D01*
X55788Y-54801D01*
X55513Y-54915D01*
X55277Y-55151D01*
X55148Y-55460D01*
X55148Y-55794D01*
X55276Y-56103D01*
X55512Y-56340D01*
X55788Y-56455D01*
X55513Y-56568D01*
X55277Y-56805D01*
X55148Y-57113D01*
X55148Y-57448D01*
X55276Y-57757D01*
X55512Y-57994D01*
X55788Y-58108D01*
X55513Y-58222D01*
X55277Y-58458D01*
X55148Y-58767D01*
X55148Y-59101D01*
X55276Y-59410D01*
X55512Y-59647D01*
X55788Y-59762D01*
X55513Y-59875D01*
X55277Y-60112D01*
X55148Y-60421D01*
X55148Y-60755D01*
X55276Y-61064D01*
X55512Y-61301D01*
X55821Y-61429D01*
X56155Y-61429D01*
X56464Y-61301D01*
X56701Y-61065D01*
X56829Y-60756D01*
X56830Y-60422D01*
X56830Y-63329D01*
X56080Y-63326D01*
X56080Y-61804D01*
X56007Y-61628D01*
X55872Y-61493D01*
X55695Y-61420D01*
X55504Y-61419D01*
X55328Y-61492D01*
X55193Y-61627D01*
X55120Y-61804D01*
X55119Y-61995D01*
X55192Y-62171D01*
X55327Y-62306D01*
X55504Y-62379D01*
X55695Y-62380D01*
X55871Y-62307D01*
X56006Y-62172D01*
X56079Y-61995D01*
X56080Y-61804D01*
X56080Y-63326D01*
X54667Y-63320D01*
X54667Y-57432D01*
X54667Y-54125D01*
X54664Y-53974D01*
X54664Y-52154D01*
X54537Y-51845D01*
X54300Y-51609D01*
X54024Y-51494D01*
X54299Y-51380D01*
X54536Y-51144D01*
X54664Y-50835D01*
X54664Y-50501D01*
X54537Y-50192D01*
X54300Y-49955D01*
X54024Y-49840D01*
X54299Y-49727D01*
X54536Y-49490D01*
X54664Y-49182D01*
X54664Y-48847D01*
X54537Y-48538D01*
X54300Y-48302D01*
X54024Y-48187D01*
X54299Y-48073D01*
X54536Y-47837D01*
X54664Y-47528D01*
X54664Y-47194D01*
X54537Y-46885D01*
X54300Y-46648D01*
X54024Y-46533D01*
X54299Y-46420D01*
X54536Y-46183D01*
X54664Y-45875D01*
X54664Y-45540D01*
X54537Y-45231D01*
X54300Y-44994D01*
X54024Y-44880D01*
X54299Y-44766D01*
X54536Y-44530D01*
X54664Y-44221D01*
X54664Y-43887D01*
X54537Y-43578D01*
X54300Y-43341D01*
X54024Y-43226D01*
X54299Y-43113D01*
X54536Y-42876D01*
X54664Y-42567D01*
X54664Y-42233D01*
X54537Y-41924D01*
X54300Y-41687D01*
X53991Y-41559D01*
X53657Y-41559D01*
X53348Y-41687D01*
X53111Y-41923D01*
X52983Y-42232D01*
X52983Y-42566D01*
X53111Y-42875D01*
X53347Y-43112D01*
X53623Y-43226D01*
X53348Y-43340D01*
X53111Y-43576D01*
X52983Y-43885D01*
X52983Y-44220D01*
X53111Y-44529D01*
X53347Y-44765D01*
X53623Y-44880D01*
X53348Y-44994D01*
X53111Y-45230D01*
X52983Y-45539D01*
X52983Y-45873D01*
X53111Y-46182D01*
X53347Y-46419D01*
X53623Y-46533D01*
X53348Y-46647D01*
X53111Y-46883D01*
X52983Y-47192D01*
X52983Y-47527D01*
X53111Y-47836D01*
X53347Y-48072D01*
X53623Y-48187D01*
X53348Y-48301D01*
X53111Y-48537D01*
X52983Y-48846D01*
X52983Y-49180D01*
X53111Y-49489D01*
X53347Y-49726D01*
X53623Y-49841D01*
X53348Y-49954D01*
X53111Y-50190D01*
X52983Y-50499D01*
X52983Y-50834D01*
X53111Y-51143D01*
X53347Y-51379D01*
X53623Y-51494D01*
X53348Y-51608D01*
X53111Y-51844D01*
X52983Y-52153D01*
X52983Y-52487D01*
X53111Y-52796D01*
X53347Y-53033D01*
X53619Y-53146D01*
X53361Y-53253D01*
X53298Y-53378D01*
X53824Y-53904D01*
X54349Y-53378D01*
X54286Y-53253D01*
X54021Y-53149D01*
X54299Y-53034D01*
X54536Y-52798D01*
X54664Y-52489D01*
X54664Y-52154D01*
X54664Y-53974D01*
X54661Y-53791D01*
X54545Y-53512D01*
X54420Y-53449D01*
X53894Y-53974D01*
X54420Y-54500D01*
X54545Y-54437D01*
X54667Y-54125D01*
X54667Y-57432D01*
X54664Y-57281D01*
X54664Y-55461D01*
X54537Y-55152D01*
X54300Y-54916D01*
X54028Y-54803D01*
X54286Y-54696D01*
X54349Y-54570D01*
X53824Y-54045D01*
X53753Y-54116D01*
X53753Y-53974D01*
X53227Y-53449D01*
X53102Y-53512D01*
X52980Y-53823D01*
X52986Y-54158D01*
X53102Y-54437D01*
X53227Y-54500D01*
X53753Y-53974D01*
X53753Y-54116D01*
X53298Y-54570D01*
X53361Y-54696D01*
X53626Y-54800D01*
X53348Y-54915D01*
X53111Y-55151D01*
X52983Y-55460D01*
X52983Y-55794D01*
X53111Y-56103D01*
X53347Y-56340D01*
X53619Y-56453D01*
X53361Y-56560D01*
X53298Y-56685D01*
X53824Y-57211D01*
X54349Y-56685D01*
X54286Y-56560D01*
X54021Y-56456D01*
X54299Y-56341D01*
X54536Y-56105D01*
X54664Y-55796D01*
X54664Y-55461D01*
X54664Y-57281D01*
X54661Y-57098D01*
X54545Y-56819D01*
X54420Y-56756D01*
X53894Y-57281D01*
X54420Y-57807D01*
X54545Y-57744D01*
X54667Y-57432D01*
X54667Y-63320D01*
X54664Y-63320D01*
X54664Y-58768D01*
X54537Y-58459D01*
X54300Y-58223D01*
X54028Y-58110D01*
X54286Y-58003D01*
X54349Y-57877D01*
X53824Y-57352D01*
X53753Y-57423D01*
X53753Y-57281D01*
X53227Y-56756D01*
X53102Y-56819D01*
X52980Y-57130D01*
X52986Y-57465D01*
X53102Y-57744D01*
X53227Y-57807D01*
X53753Y-57281D01*
X53753Y-57423D01*
X53298Y-57877D01*
X53361Y-58003D01*
X53626Y-58107D01*
X53348Y-58222D01*
X53111Y-58458D01*
X52983Y-58767D01*
X52983Y-59101D01*
X53111Y-59410D01*
X53347Y-59647D01*
X53589Y-59748D01*
X53183Y-59748D01*
X53092Y-59786D01*
X53021Y-59856D01*
X52983Y-59948D01*
X52983Y-60047D01*
X52983Y-61229D01*
X53021Y-61320D01*
X53091Y-61391D01*
X53183Y-61429D01*
X53282Y-61429D01*
X54464Y-61429D01*
X54555Y-61391D01*
X54626Y-61321D01*
X54664Y-61229D01*
X54664Y-61130D01*
X54664Y-59948D01*
X54626Y-59856D01*
X54556Y-59786D01*
X54464Y-59748D01*
X54365Y-59748D01*
X54057Y-59748D01*
X54299Y-59648D01*
X54536Y-59412D01*
X54664Y-59103D01*
X54664Y-58768D01*
X54664Y-63320D01*
X51530Y-63307D01*
X51662Y-63176D01*
X51790Y-62867D01*
X51790Y-62533D01*
X51790Y-60422D01*
X51790Y-42233D01*
X51663Y-41924D01*
X51426Y-41687D01*
X51117Y-41559D01*
X50783Y-41559D01*
X50474Y-41687D01*
X50237Y-41923D01*
X50109Y-42232D01*
X50109Y-42566D01*
X50237Y-42875D01*
X50473Y-43112D01*
X50782Y-43240D01*
X51116Y-43240D01*
X51425Y-43113D01*
X51662Y-42876D01*
X51790Y-42567D01*
X51790Y-42233D01*
X51790Y-60422D01*
X51663Y-60113D01*
X51426Y-59876D01*
X51117Y-59748D01*
X50783Y-59748D01*
X50474Y-59875D01*
X50237Y-60112D01*
X50109Y-60421D01*
X50109Y-60755D01*
X50237Y-61064D01*
X50473Y-61301D01*
X50782Y-61429D01*
X51116Y-61429D01*
X51425Y-61301D01*
X51662Y-61065D01*
X51790Y-60756D01*
X51790Y-60422D01*
X51790Y-62533D01*
X51663Y-62224D01*
X51426Y-61987D01*
X51117Y-61859D01*
X50783Y-61859D01*
X50474Y-61987D01*
X50237Y-62223D01*
X50109Y-62532D01*
X50109Y-62866D01*
X50237Y-63175D01*
X50364Y-63302D01*
X49700Y-63300D01*
X49700Y-38899D01*
X50515Y-38896D01*
X50287Y-39123D01*
X50159Y-39432D01*
X50159Y-39766D01*
X50287Y-40075D01*
X50523Y-40312D01*
X50832Y-40440D01*
X51166Y-40440D01*
X51475Y-40313D01*
X51712Y-40076D01*
X51840Y-39767D01*
X51840Y-39433D01*
X51713Y-39124D01*
X51481Y-38892D01*
X57046Y-38869D01*
X61800Y-38869D01*
X61800Y-50822D01*
X62649Y-50799D01*
X62650Y-50799D01*
X62749Y-50800D01*
X63749Y-50800D01*
X63829Y-50767D01*
X64399Y-50751D01*
G54D10*
G36*
X114030Y-52799D02*
X113443Y-52799D01*
X113443Y-51866D01*
X113443Y-50488D01*
X113443Y-49110D01*
X113443Y-47732D01*
X113346Y-47496D01*
X113165Y-47314D01*
X112928Y-47216D01*
X112672Y-47216D01*
X112435Y-47314D01*
X112254Y-47495D01*
X112156Y-47731D01*
X112156Y-47987D01*
X112253Y-48224D01*
X112434Y-48405D01*
X112671Y-48503D01*
X112927Y-48504D01*
X113164Y-48406D01*
X113345Y-48225D01*
X113443Y-47988D01*
X113443Y-47732D01*
X113443Y-49110D01*
X113346Y-48874D01*
X113165Y-48692D01*
X112928Y-48594D01*
X112672Y-48594D01*
X112435Y-48692D01*
X112254Y-48873D01*
X112156Y-49109D01*
X112156Y-49365D01*
X112253Y-49602D01*
X112434Y-49783D01*
X112671Y-49881D01*
X112927Y-49882D01*
X113164Y-49784D01*
X113345Y-49603D01*
X113443Y-49366D01*
X113443Y-49110D01*
X113443Y-50488D01*
X113346Y-50251D01*
X113165Y-50070D01*
X112928Y-49972D01*
X112672Y-49972D01*
X112435Y-50070D01*
X112254Y-50251D01*
X112156Y-50487D01*
X112156Y-50743D01*
X112253Y-50980D01*
X112434Y-51161D01*
X112671Y-51259D01*
X112927Y-51259D01*
X113164Y-51162D01*
X113345Y-50981D01*
X113443Y-50744D01*
X113443Y-50488D01*
X113443Y-51866D01*
X113346Y-51629D01*
X113165Y-51448D01*
X112928Y-51350D01*
X112672Y-51350D01*
X112435Y-51448D01*
X112254Y-51628D01*
X112156Y-51865D01*
X112156Y-52121D01*
X112253Y-52358D01*
X112434Y-52539D01*
X112671Y-52637D01*
X112927Y-52637D01*
X113164Y-52540D01*
X113345Y-52359D01*
X113443Y-52122D01*
X113443Y-51866D01*
X113443Y-52799D01*
X113099Y-52799D01*
X112928Y-52728D01*
X112672Y-52728D01*
X112500Y-52799D01*
X109510Y-52797D01*
X109510Y-48923D01*
X109451Y-48782D01*
X109343Y-48673D01*
X109201Y-48615D01*
X109085Y-48614D01*
X109085Y-47023D01*
X109026Y-46882D01*
X108918Y-46773D01*
X108776Y-46715D01*
X108623Y-46714D01*
X108482Y-46773D01*
X108400Y-46855D01*
X108400Y-43681D01*
X108308Y-43460D01*
X108140Y-43291D01*
X107919Y-43200D01*
X107681Y-43199D01*
X107460Y-43291D01*
X107299Y-43451D01*
X107140Y-43291D01*
X106919Y-43200D01*
X106681Y-43199D01*
X106460Y-43291D01*
X106385Y-43365D01*
X106362Y-43308D01*
X106291Y-43238D01*
X106199Y-43200D01*
X106100Y-43199D01*
X105400Y-43199D01*
X105308Y-43237D01*
X105238Y-43308D01*
X105200Y-43400D01*
X105199Y-43499D01*
X105199Y-44199D01*
X105237Y-44291D01*
X105308Y-44361D01*
X105400Y-44399D01*
X105499Y-44400D01*
X106199Y-44400D01*
X106291Y-44362D01*
X106361Y-44291D01*
X106385Y-44234D01*
X106459Y-44308D01*
X106680Y-44399D01*
X106918Y-44400D01*
X107139Y-44308D01*
X107300Y-44148D01*
X107459Y-44308D01*
X107680Y-44399D01*
X107918Y-44400D01*
X108139Y-44308D01*
X108308Y-44140D01*
X108399Y-43919D01*
X108400Y-43681D01*
X108400Y-46855D01*
X108373Y-46881D01*
X108315Y-47023D01*
X108314Y-47176D01*
X108373Y-47317D01*
X108481Y-47426D01*
X108623Y-47484D01*
X108776Y-47485D01*
X108917Y-47426D01*
X109026Y-47318D01*
X109084Y-47176D01*
X109085Y-47023D01*
X109085Y-48614D01*
X109048Y-48614D01*
X108907Y-48673D01*
X108800Y-48780D01*
X108800Y-48426D01*
X108686Y-48150D01*
X108475Y-47939D01*
X108199Y-47825D01*
X107901Y-47824D01*
X107625Y-47938D01*
X107414Y-48149D01*
X107300Y-48425D01*
X107299Y-48723D01*
X107413Y-48999D01*
X107624Y-49210D01*
X107900Y-49324D01*
X108198Y-49325D01*
X108474Y-49211D01*
X108685Y-49000D01*
X108799Y-48724D01*
X108800Y-48426D01*
X108800Y-48780D01*
X108798Y-48781D01*
X108740Y-48923D01*
X108739Y-49076D01*
X108798Y-49217D01*
X108906Y-49326D01*
X109048Y-49384D01*
X109201Y-49385D01*
X109342Y-49326D01*
X109451Y-49218D01*
X109509Y-49076D01*
X109510Y-48923D01*
X109510Y-52797D01*
X107250Y-52796D01*
X107250Y-48591D01*
X107166Y-48388D01*
X107011Y-48234D01*
X106930Y-48200D01*
X107011Y-48166D01*
X107165Y-48011D01*
X107249Y-47809D01*
X107250Y-47591D01*
X107166Y-47388D01*
X107011Y-47234D01*
X106930Y-47200D01*
X107011Y-47166D01*
X107165Y-47011D01*
X107249Y-46809D01*
X107250Y-46591D01*
X107166Y-46388D01*
X107011Y-46234D01*
X106809Y-46150D01*
X106591Y-46149D01*
X106388Y-46233D01*
X106250Y-46372D01*
X106250Y-46350D01*
X106212Y-46258D01*
X106155Y-46201D01*
X106155Y-45479D01*
X106082Y-45303D01*
X105947Y-45168D01*
X105770Y-45095D01*
X105579Y-45094D01*
X105403Y-45167D01*
X105268Y-45302D01*
X105195Y-45479D01*
X105194Y-45670D01*
X105267Y-45846D01*
X105402Y-45981D01*
X105579Y-46054D01*
X105770Y-46055D01*
X105946Y-45982D01*
X106081Y-45847D01*
X106154Y-45670D01*
X106155Y-45479D01*
X106155Y-46201D01*
X106141Y-46188D01*
X106049Y-46150D01*
X105950Y-46149D01*
X105350Y-46149D01*
X105258Y-46187D01*
X105188Y-46258D01*
X105150Y-46350D01*
X105149Y-46449D01*
X105149Y-47049D01*
X105187Y-47141D01*
X105258Y-47211D01*
X105350Y-47249D01*
X105372Y-47249D01*
X105234Y-47388D01*
X105150Y-47590D01*
X105149Y-47808D01*
X105233Y-48011D01*
X105388Y-48165D01*
X105469Y-48199D01*
X105388Y-48233D01*
X105234Y-48388D01*
X105150Y-48590D01*
X105149Y-48808D01*
X105233Y-49011D01*
X105388Y-49165D01*
X105590Y-49249D01*
X105808Y-49250D01*
X106011Y-49166D01*
X106165Y-49011D01*
X106199Y-48930D01*
X106233Y-49011D01*
X106388Y-49165D01*
X106590Y-49249D01*
X106808Y-49250D01*
X107011Y-49166D01*
X107165Y-49011D01*
X107249Y-48809D01*
X107250Y-48591D01*
X107250Y-52796D01*
X104135Y-52794D01*
X104135Y-46473D01*
X104076Y-46332D01*
X103968Y-46223D01*
X103965Y-46222D01*
X103984Y-46176D01*
X103985Y-46023D01*
X103926Y-45882D01*
X103818Y-45773D01*
X103676Y-45715D01*
X103600Y-45714D01*
X103600Y-43706D01*
X103508Y-43485D01*
X103340Y-43316D01*
X103119Y-43225D01*
X102881Y-43224D01*
X102660Y-43316D01*
X102499Y-43476D01*
X102340Y-43316D01*
X102119Y-43225D01*
X101881Y-43224D01*
X101660Y-43316D01*
X101585Y-43390D01*
X101562Y-43333D01*
X101491Y-43263D01*
X101399Y-43225D01*
X101300Y-43224D01*
X100600Y-43224D01*
X100508Y-43262D01*
X100438Y-43333D01*
X100400Y-43425D01*
X100399Y-43524D01*
X100399Y-44224D01*
X100437Y-44316D01*
X100508Y-44386D01*
X100600Y-44424D01*
X100699Y-44425D01*
X101399Y-44425D01*
X101491Y-44387D01*
X101561Y-44316D01*
X101585Y-44259D01*
X101659Y-44333D01*
X101880Y-44424D01*
X102118Y-44425D01*
X102339Y-44333D01*
X102500Y-44173D01*
X102659Y-44333D01*
X102880Y-44424D01*
X103118Y-44425D01*
X103339Y-44333D01*
X103508Y-44165D01*
X103599Y-43944D01*
X103600Y-43706D01*
X103600Y-45714D01*
X103523Y-45714D01*
X103382Y-45773D01*
X103273Y-45881D01*
X103215Y-46023D01*
X103214Y-46176D01*
X103273Y-46317D01*
X103381Y-46426D01*
X103384Y-46427D01*
X103365Y-46473D01*
X103365Y-46486D01*
X103228Y-46542D01*
X103093Y-46677D01*
X103020Y-46854D01*
X103019Y-47045D01*
X103092Y-47221D01*
X103227Y-47356D01*
X103404Y-47429D01*
X103595Y-47430D01*
X103771Y-47357D01*
X103906Y-47222D01*
X103979Y-47045D01*
X103980Y-46864D01*
X104076Y-46768D01*
X104134Y-46626D01*
X104135Y-46473D01*
X104135Y-52794D01*
X102585Y-52794D01*
X102585Y-48473D01*
X102535Y-48352D01*
X102535Y-47323D01*
X102476Y-47182D01*
X102368Y-47073D01*
X102226Y-47015D01*
X102073Y-47014D01*
X101932Y-47073D01*
X101823Y-47181D01*
X101765Y-47323D01*
X101764Y-47401D01*
X101679Y-47366D01*
X101680Y-47254D01*
X101607Y-47078D01*
X101472Y-46943D01*
X101295Y-46870D01*
X101104Y-46869D01*
X100928Y-46942D01*
X100793Y-47077D01*
X100720Y-47254D01*
X100719Y-47445D01*
X100792Y-47621D01*
X100927Y-47756D01*
X101104Y-47829D01*
X101216Y-47830D01*
X101273Y-47967D01*
X101381Y-48076D01*
X101523Y-48134D01*
X101676Y-48135D01*
X101817Y-48076D01*
X101926Y-47968D01*
X101984Y-47826D01*
X101985Y-47748D01*
X102073Y-47784D01*
X102226Y-47785D01*
X102367Y-47726D01*
X102476Y-47618D01*
X102534Y-47476D01*
X102535Y-47323D01*
X102535Y-48352D01*
X102526Y-48332D01*
X102418Y-48223D01*
X102276Y-48165D01*
X102123Y-48164D01*
X101982Y-48223D01*
X101873Y-48331D01*
X101815Y-48473D01*
X101814Y-48626D01*
X101873Y-48767D01*
X101981Y-48876D01*
X102123Y-48934D01*
X102276Y-48935D01*
X102417Y-48876D01*
X102526Y-48768D01*
X102584Y-48626D01*
X102585Y-48473D01*
X102585Y-52794D01*
X102304Y-52794D01*
X102305Y-52604D01*
X102232Y-52428D01*
X102097Y-52293D01*
X101920Y-52220D01*
X101729Y-52219D01*
X101553Y-52292D01*
X101418Y-52427D01*
X101345Y-52604D01*
X101344Y-52793D01*
X99835Y-52792D01*
X99835Y-47698D01*
X99776Y-47557D01*
X99668Y-47448D01*
X99526Y-47390D01*
X99373Y-47389D01*
X99260Y-47436D01*
X99260Y-47123D01*
X99201Y-46982D01*
X99093Y-46873D01*
X98951Y-46815D01*
X98798Y-46814D01*
X98785Y-46820D01*
X98785Y-46373D01*
X98726Y-46232D01*
X98618Y-46123D01*
X98476Y-46065D01*
X98323Y-46064D01*
X98182Y-46123D01*
X98073Y-46231D01*
X98015Y-46373D01*
X98014Y-46526D01*
X98073Y-46667D01*
X98181Y-46776D01*
X98323Y-46834D01*
X98476Y-46835D01*
X98617Y-46776D01*
X98726Y-46668D01*
X98784Y-46526D01*
X98785Y-46373D01*
X98785Y-46820D01*
X98657Y-46873D01*
X98548Y-46981D01*
X98490Y-47123D01*
X98489Y-47276D01*
X98548Y-47417D01*
X98656Y-47526D01*
X98798Y-47584D01*
X98951Y-47585D01*
X99092Y-47526D01*
X99201Y-47418D01*
X99259Y-47276D01*
X99260Y-47123D01*
X99260Y-47436D01*
X99232Y-47448D01*
X99123Y-47556D01*
X99065Y-47698D01*
X99064Y-47851D01*
X99123Y-47992D01*
X99231Y-48101D01*
X99373Y-48159D01*
X99526Y-48160D01*
X99667Y-48101D01*
X99776Y-47993D01*
X99834Y-47851D01*
X99835Y-47698D01*
X99835Y-52792D01*
X99235Y-52792D01*
X99235Y-48223D01*
X99176Y-48082D01*
X99068Y-47973D01*
X98926Y-47915D01*
X98773Y-47914D01*
X98632Y-47973D01*
X98523Y-48081D01*
X98465Y-48223D01*
X98464Y-48376D01*
X98523Y-48517D01*
X98631Y-48626D01*
X98773Y-48684D01*
X98926Y-48685D01*
X99067Y-48626D01*
X99176Y-48518D01*
X99234Y-48376D01*
X99235Y-48223D01*
X99235Y-52792D01*
X98635Y-52792D01*
X98635Y-49848D01*
X98576Y-49707D01*
X98468Y-49598D01*
X98326Y-49540D01*
X98173Y-49539D01*
X98032Y-49598D01*
X97923Y-49706D01*
X97865Y-49848D01*
X97864Y-50001D01*
X97923Y-50142D01*
X98031Y-50251D01*
X98173Y-50309D01*
X98326Y-50310D01*
X98467Y-50251D01*
X98576Y-50143D01*
X98634Y-50001D01*
X98635Y-49848D01*
X98635Y-52792D01*
X95200Y-52790D01*
X95200Y-49276D01*
X95086Y-49000D01*
X94875Y-48789D01*
X94599Y-48675D01*
X94301Y-48674D01*
X94025Y-48788D01*
X93814Y-48999D01*
X93700Y-49275D01*
X93699Y-49573D01*
X93813Y-49849D01*
X94024Y-50060D01*
X94300Y-50174D01*
X94598Y-50175D01*
X94874Y-50061D01*
X95085Y-49850D01*
X95199Y-49574D01*
X95200Y-49276D01*
X95200Y-52790D01*
X93885Y-52789D01*
X93885Y-50673D01*
X93826Y-50532D01*
X93718Y-50423D01*
X93685Y-50409D01*
X93685Y-46773D01*
X93626Y-46632D01*
X93518Y-46523D01*
X93376Y-46465D01*
X93223Y-46464D01*
X93082Y-46523D01*
X92973Y-46631D01*
X92915Y-46773D01*
X92914Y-46926D01*
X92973Y-47067D01*
X93081Y-47176D01*
X93223Y-47234D01*
X93376Y-47235D01*
X93517Y-47176D01*
X93626Y-47068D01*
X93684Y-46926D01*
X93685Y-46773D01*
X93685Y-50409D01*
X93576Y-50365D01*
X93423Y-50364D01*
X93282Y-50423D01*
X93173Y-50531D01*
X93135Y-50624D01*
X93135Y-50348D01*
X93076Y-50207D01*
X92968Y-50098D01*
X92826Y-50040D01*
X92785Y-50040D01*
X92785Y-47523D01*
X92726Y-47382D01*
X92618Y-47273D01*
X92476Y-47215D01*
X92335Y-47214D01*
X92335Y-45298D01*
X92276Y-45157D01*
X92168Y-45048D01*
X92026Y-44990D01*
X91873Y-44989D01*
X91732Y-45048D01*
X91623Y-45156D01*
X91565Y-45298D01*
X91564Y-45451D01*
X91623Y-45592D01*
X91731Y-45701D01*
X91873Y-45759D01*
X92026Y-45760D01*
X92167Y-45701D01*
X92276Y-45593D01*
X92334Y-45451D01*
X92335Y-45298D01*
X92335Y-47214D01*
X92323Y-47214D01*
X92225Y-47255D01*
X92168Y-47198D01*
X92026Y-47140D01*
X91873Y-47139D01*
X91732Y-47198D01*
X91712Y-47218D01*
X91618Y-47123D01*
X91476Y-47065D01*
X91323Y-47064D01*
X91182Y-47123D01*
X91073Y-47231D01*
X91019Y-47361D01*
X90976Y-47257D01*
X90868Y-47148D01*
X90726Y-47090D01*
X90573Y-47089D01*
X90432Y-47148D01*
X90323Y-47256D01*
X90265Y-47398D01*
X90264Y-47551D01*
X90323Y-47692D01*
X90431Y-47801D01*
X90573Y-47859D01*
X90726Y-47860D01*
X90867Y-47801D01*
X90976Y-47693D01*
X91030Y-47563D01*
X91073Y-47667D01*
X91181Y-47776D01*
X91323Y-47834D01*
X91476Y-47835D01*
X91617Y-47776D01*
X91637Y-47756D01*
X91731Y-47851D01*
X91873Y-47909D01*
X92026Y-47910D01*
X92124Y-47869D01*
X92181Y-47926D01*
X92323Y-47984D01*
X92476Y-47985D01*
X92617Y-47926D01*
X92726Y-47818D01*
X92784Y-47676D01*
X92785Y-47523D01*
X92785Y-50040D01*
X92673Y-50039D01*
X92532Y-50098D01*
X92423Y-50206D01*
X92365Y-50348D01*
X92364Y-50501D01*
X92423Y-50642D01*
X92531Y-50751D01*
X92673Y-50809D01*
X92826Y-50810D01*
X92967Y-50751D01*
X93076Y-50643D01*
X93134Y-50501D01*
X93135Y-50348D01*
X93135Y-50624D01*
X93115Y-50673D01*
X93114Y-50826D01*
X93173Y-50967D01*
X93281Y-51076D01*
X93423Y-51134D01*
X93576Y-51135D01*
X93717Y-51076D01*
X93826Y-50968D01*
X93884Y-50826D01*
X93885Y-50673D01*
X93885Y-52789D01*
X93535Y-52789D01*
X93535Y-51848D01*
X93476Y-51707D01*
X93368Y-51598D01*
X93226Y-51540D01*
X93073Y-51539D01*
X92932Y-51598D01*
X92823Y-51706D01*
X92820Y-51715D01*
X92723Y-51714D01*
X92582Y-51773D01*
X92473Y-51881D01*
X92415Y-52023D01*
X92414Y-52176D01*
X92473Y-52317D01*
X92581Y-52426D01*
X92723Y-52484D01*
X92876Y-52485D01*
X93017Y-52426D01*
X93126Y-52318D01*
X93129Y-52309D01*
X93226Y-52310D01*
X93367Y-52251D01*
X93476Y-52143D01*
X93534Y-52001D01*
X93535Y-51848D01*
X93535Y-52789D01*
X91735Y-52788D01*
X91735Y-49423D01*
X91676Y-49282D01*
X91568Y-49173D01*
X91426Y-49115D01*
X91273Y-49114D01*
X91132Y-49173D01*
X91082Y-49223D01*
X91001Y-49190D01*
X90848Y-49189D01*
X90707Y-49248D01*
X90598Y-49356D01*
X90540Y-49498D01*
X90539Y-49651D01*
X90598Y-49792D01*
X90706Y-49901D01*
X90848Y-49959D01*
X91001Y-49960D01*
X91142Y-49901D01*
X91192Y-49851D01*
X91273Y-49884D01*
X91426Y-49885D01*
X91567Y-49826D01*
X91676Y-49718D01*
X91734Y-49576D01*
X91735Y-49423D01*
X91735Y-52788D01*
X90385Y-52787D01*
X90385Y-51373D01*
X90326Y-51232D01*
X90218Y-51123D01*
X90076Y-51065D01*
X89923Y-51064D01*
X89782Y-51123D01*
X89673Y-51231D01*
X89615Y-51373D01*
X89614Y-51526D01*
X89673Y-51667D01*
X89781Y-51776D01*
X89923Y-51834D01*
X90076Y-51835D01*
X90217Y-51776D01*
X90326Y-51668D01*
X90384Y-51526D01*
X90385Y-51373D01*
X90385Y-52787D01*
X88985Y-52787D01*
X88985Y-52223D01*
X88926Y-52082D01*
X88818Y-51973D01*
X88760Y-51949D01*
X88760Y-50398D01*
X88701Y-50257D01*
X88593Y-50148D01*
X88451Y-50090D01*
X88298Y-50089D01*
X88157Y-50148D01*
X88048Y-50256D01*
X87990Y-50398D01*
X87989Y-50551D01*
X88048Y-50692D01*
X88156Y-50801D01*
X88298Y-50859D01*
X88451Y-50860D01*
X88592Y-50801D01*
X88701Y-50693D01*
X88759Y-50551D01*
X88760Y-50398D01*
X88760Y-51949D01*
X88676Y-51915D01*
X88523Y-51914D01*
X88460Y-51941D01*
X88460Y-51223D01*
X88401Y-51082D01*
X88293Y-50973D01*
X88151Y-50915D01*
X87998Y-50914D01*
X87857Y-50973D01*
X87748Y-51081D01*
X87690Y-51223D01*
X87689Y-51376D01*
X87748Y-51517D01*
X87856Y-51626D01*
X87998Y-51684D01*
X88151Y-51685D01*
X88292Y-51626D01*
X88401Y-51518D01*
X88459Y-51376D01*
X88460Y-51223D01*
X88460Y-51941D01*
X88382Y-51973D01*
X88273Y-52081D01*
X88215Y-52223D01*
X88214Y-52376D01*
X88273Y-52517D01*
X88381Y-52626D01*
X88523Y-52684D01*
X88676Y-52685D01*
X88817Y-52626D01*
X88926Y-52518D01*
X88984Y-52376D01*
X88985Y-52223D01*
X88985Y-52787D01*
X87650Y-52786D01*
X87650Y-46476D01*
X87536Y-46200D01*
X87325Y-45989D01*
X87049Y-45875D01*
X86751Y-45874D01*
X86475Y-45988D01*
X86264Y-46199D01*
X86150Y-46475D01*
X86149Y-46773D01*
X86263Y-47049D01*
X86474Y-47260D01*
X86750Y-47374D01*
X87048Y-47375D01*
X87324Y-47261D01*
X87535Y-47050D01*
X87649Y-46774D01*
X87650Y-46476D01*
X87650Y-52786D01*
X86575Y-52786D01*
X86575Y-49326D01*
X86442Y-49005D01*
X86196Y-48758D01*
X85874Y-48625D01*
X85526Y-48624D01*
X85205Y-48757D01*
X85110Y-48852D01*
X85110Y-46123D01*
X85051Y-45982D01*
X84943Y-45873D01*
X84801Y-45815D01*
X84648Y-45814D01*
X84507Y-45873D01*
X84398Y-45981D01*
X84340Y-46123D01*
X84339Y-46276D01*
X84398Y-46417D01*
X84506Y-46526D01*
X84648Y-46584D01*
X84801Y-46585D01*
X84942Y-46526D01*
X85051Y-46418D01*
X85109Y-46276D01*
X85110Y-46123D01*
X85110Y-48852D01*
X84958Y-49003D01*
X84825Y-49325D01*
X84824Y-49673D01*
X84957Y-49995D01*
X85203Y-50241D01*
X85525Y-50374D01*
X85873Y-50375D01*
X86195Y-50242D01*
X86441Y-49996D01*
X86574Y-49674D01*
X86575Y-49326D01*
X86575Y-52786D01*
X83085Y-52784D01*
X83085Y-46898D01*
X83026Y-46757D01*
X82918Y-46648D01*
X82776Y-46590D01*
X82623Y-46589D01*
X82482Y-46648D01*
X82384Y-46745D01*
X82385Y-46623D01*
X82326Y-46482D01*
X82218Y-46373D01*
X82076Y-46315D01*
X81923Y-46314D01*
X81782Y-46373D01*
X81673Y-46481D01*
X81615Y-46623D01*
X81614Y-46776D01*
X81673Y-46917D01*
X81781Y-47026D01*
X81923Y-47084D01*
X82076Y-47085D01*
X82217Y-47026D01*
X82315Y-46929D01*
X82314Y-47051D01*
X82373Y-47192D01*
X82481Y-47301D01*
X82623Y-47359D01*
X82776Y-47360D01*
X82917Y-47301D01*
X83026Y-47193D01*
X83084Y-47051D01*
X83085Y-46898D01*
X83085Y-52784D01*
X80460Y-52782D01*
X80460Y-46698D01*
X80401Y-46557D01*
X80293Y-46448D01*
X80151Y-46390D01*
X79998Y-46389D01*
X79857Y-46448D01*
X79748Y-46556D01*
X79690Y-46698D01*
X79689Y-46851D01*
X79748Y-46992D01*
X79856Y-47101D01*
X79998Y-47159D01*
X80151Y-47160D01*
X80292Y-47101D01*
X80401Y-46993D01*
X80459Y-46851D01*
X80460Y-46698D01*
X80460Y-52782D01*
X76510Y-52780D01*
X76510Y-46923D01*
X76451Y-46782D01*
X76343Y-46673D01*
X76201Y-46615D01*
X76048Y-46614D01*
X75907Y-46673D01*
X75798Y-46781D01*
X75740Y-46923D01*
X75739Y-47076D01*
X75798Y-47217D01*
X75906Y-47326D01*
X76048Y-47384D01*
X76201Y-47385D01*
X76342Y-47326D01*
X76451Y-47218D01*
X76509Y-47076D01*
X76510Y-46923D01*
X76510Y-52780D01*
X74535Y-52779D01*
X74535Y-47973D01*
X74476Y-47832D01*
X74368Y-47723D01*
X74226Y-47665D01*
X74073Y-47664D01*
X73932Y-47723D01*
X73823Y-47831D01*
X73765Y-47973D01*
X73764Y-48126D01*
X73823Y-48267D01*
X73931Y-48376D01*
X74073Y-48434D01*
X74226Y-48435D01*
X74367Y-48376D01*
X74476Y-48268D01*
X74534Y-48126D01*
X74535Y-47973D01*
X74535Y-52779D01*
X73660Y-52779D01*
X73660Y-48048D01*
X73601Y-47907D01*
X73493Y-47798D01*
X73351Y-47740D01*
X73198Y-47739D01*
X73057Y-47798D01*
X72948Y-47906D01*
X72890Y-48048D01*
X72889Y-48201D01*
X72948Y-48342D01*
X73056Y-48451D01*
X73198Y-48509D01*
X73351Y-48510D01*
X73492Y-48451D01*
X73601Y-48343D01*
X73659Y-48201D01*
X73660Y-48048D01*
X73660Y-52779D01*
X64785Y-52775D01*
X64924Y-52775D01*
X65016Y-52737D01*
X65086Y-52666D01*
X65124Y-52574D01*
X65125Y-52475D01*
X65125Y-51475D01*
X65087Y-51383D01*
X65016Y-51313D01*
X64924Y-51275D01*
X64825Y-51274D01*
X64750Y-51274D01*
X64750Y-44725D01*
X97725Y-44748D01*
X97724Y-44998D01*
X97734Y-45020D01*
X97607Y-45073D01*
X97498Y-45181D01*
X97440Y-45323D01*
X97439Y-45476D01*
X97498Y-45617D01*
X97606Y-45726D01*
X97748Y-45784D01*
X97901Y-45785D01*
X98042Y-45726D01*
X98151Y-45618D01*
X98183Y-45540D01*
X98325Y-45599D01*
X98623Y-45600D01*
X98899Y-45486D01*
X99110Y-45275D01*
X99224Y-44999D01*
X99225Y-44749D01*
X99700Y-44750D01*
X99700Y-42250D01*
X109450Y-42250D01*
X109450Y-42863D01*
X109345Y-42820D01*
X109154Y-42819D01*
X108978Y-42892D01*
X108843Y-43027D01*
X108770Y-43204D01*
X108769Y-43395D01*
X108842Y-43571D01*
X108977Y-43706D01*
X109154Y-43779D01*
X109345Y-43780D01*
X109450Y-43736D01*
X109450Y-46100D01*
X112271Y-46100D01*
X112254Y-46117D01*
X112156Y-46353D01*
X112156Y-46609D01*
X112253Y-46846D01*
X112434Y-47027D01*
X112671Y-47125D01*
X112927Y-47126D01*
X113164Y-47028D01*
X113345Y-46847D01*
X113443Y-46610D01*
X113443Y-46354D01*
X113346Y-46118D01*
X113327Y-46100D01*
X114030Y-46100D01*
X114030Y-52799D01*
X114030Y-52799D01*
G37*
G54D31*
X114030Y-52799D02*
X113443Y-52799D01*
X113443Y-51866D01*
X113443Y-50488D01*
X113443Y-49110D01*
X113443Y-47732D01*
X113346Y-47496D01*
X113165Y-47314D01*
X112928Y-47216D01*
X112672Y-47216D01*
X112435Y-47314D01*
X112254Y-47495D01*
X112156Y-47731D01*
X112156Y-47987D01*
X112253Y-48224D01*
X112434Y-48405D01*
X112671Y-48503D01*
X112927Y-48504D01*
X113164Y-48406D01*
X113345Y-48225D01*
X113443Y-47988D01*
X113443Y-47732D01*
X113443Y-49110D01*
X113346Y-48874D01*
X113165Y-48692D01*
X112928Y-48594D01*
X112672Y-48594D01*
X112435Y-48692D01*
X112254Y-48873D01*
X112156Y-49109D01*
X112156Y-49365D01*
X112253Y-49602D01*
X112434Y-49783D01*
X112671Y-49881D01*
X112927Y-49882D01*
X113164Y-49784D01*
X113345Y-49603D01*
X113443Y-49366D01*
X113443Y-49110D01*
X113443Y-50488D01*
X113346Y-50251D01*
X113165Y-50070D01*
X112928Y-49972D01*
X112672Y-49972D01*
X112435Y-50070D01*
X112254Y-50251D01*
X112156Y-50487D01*
X112156Y-50743D01*
X112253Y-50980D01*
X112434Y-51161D01*
X112671Y-51259D01*
X112927Y-51259D01*
X113164Y-51162D01*
X113345Y-50981D01*
X113443Y-50744D01*
X113443Y-50488D01*
X113443Y-51866D01*
X113346Y-51629D01*
X113165Y-51448D01*
X112928Y-51350D01*
X112672Y-51350D01*
X112435Y-51448D01*
X112254Y-51628D01*
X112156Y-51865D01*
X112156Y-52121D01*
X112253Y-52358D01*
X112434Y-52539D01*
X112671Y-52637D01*
X112927Y-52637D01*
X113164Y-52540D01*
X113345Y-52359D01*
X113443Y-52122D01*
X113443Y-51866D01*
X113443Y-52799D01*
X113099Y-52799D01*
X112928Y-52728D01*
X112672Y-52728D01*
X112500Y-52799D01*
X109510Y-52797D01*
X109510Y-48923D01*
X109451Y-48782D01*
X109343Y-48673D01*
X109201Y-48615D01*
X109085Y-48614D01*
X109085Y-47023D01*
X109026Y-46882D01*
X108918Y-46773D01*
X108776Y-46715D01*
X108623Y-46714D01*
X108482Y-46773D01*
X108400Y-46855D01*
X108400Y-43681D01*
X108308Y-43460D01*
X108140Y-43291D01*
X107919Y-43200D01*
X107681Y-43199D01*
X107460Y-43291D01*
X107299Y-43451D01*
X107140Y-43291D01*
X106919Y-43200D01*
X106681Y-43199D01*
X106460Y-43291D01*
X106385Y-43365D01*
X106362Y-43308D01*
X106291Y-43238D01*
X106199Y-43200D01*
X106100Y-43199D01*
X105400Y-43199D01*
X105308Y-43237D01*
X105238Y-43308D01*
X105200Y-43400D01*
X105199Y-43499D01*
X105199Y-44199D01*
X105237Y-44291D01*
X105308Y-44361D01*
X105400Y-44399D01*
X105499Y-44400D01*
X106199Y-44400D01*
X106291Y-44362D01*
X106361Y-44291D01*
X106385Y-44234D01*
X106459Y-44308D01*
X106680Y-44399D01*
X106918Y-44400D01*
X107139Y-44308D01*
X107300Y-44148D01*
X107459Y-44308D01*
X107680Y-44399D01*
X107918Y-44400D01*
X108139Y-44308D01*
X108308Y-44140D01*
X108399Y-43919D01*
X108400Y-43681D01*
X108400Y-46855D01*
X108373Y-46881D01*
X108315Y-47023D01*
X108314Y-47176D01*
X108373Y-47317D01*
X108481Y-47426D01*
X108623Y-47484D01*
X108776Y-47485D01*
X108917Y-47426D01*
X109026Y-47318D01*
X109084Y-47176D01*
X109085Y-47023D01*
X109085Y-48614D01*
X109048Y-48614D01*
X108907Y-48673D01*
X108800Y-48780D01*
X108800Y-48426D01*
X108686Y-48150D01*
X108475Y-47939D01*
X108199Y-47825D01*
X107901Y-47824D01*
X107625Y-47938D01*
X107414Y-48149D01*
X107300Y-48425D01*
X107299Y-48723D01*
X107413Y-48999D01*
X107624Y-49210D01*
X107900Y-49324D01*
X108198Y-49325D01*
X108474Y-49211D01*
X108685Y-49000D01*
X108799Y-48724D01*
X108800Y-48426D01*
X108800Y-48780D01*
X108798Y-48781D01*
X108740Y-48923D01*
X108739Y-49076D01*
X108798Y-49217D01*
X108906Y-49326D01*
X109048Y-49384D01*
X109201Y-49385D01*
X109342Y-49326D01*
X109451Y-49218D01*
X109509Y-49076D01*
X109510Y-48923D01*
X109510Y-52797D01*
X107250Y-52796D01*
X107250Y-48591D01*
X107166Y-48388D01*
X107011Y-48234D01*
X106930Y-48200D01*
X107011Y-48166D01*
X107165Y-48011D01*
X107249Y-47809D01*
X107250Y-47591D01*
X107166Y-47388D01*
X107011Y-47234D01*
X106930Y-47200D01*
X107011Y-47166D01*
X107165Y-47011D01*
X107249Y-46809D01*
X107250Y-46591D01*
X107166Y-46388D01*
X107011Y-46234D01*
X106809Y-46150D01*
X106591Y-46149D01*
X106388Y-46233D01*
X106250Y-46372D01*
X106250Y-46350D01*
X106212Y-46258D01*
X106155Y-46201D01*
X106155Y-45479D01*
X106082Y-45303D01*
X105947Y-45168D01*
X105770Y-45095D01*
X105579Y-45094D01*
X105403Y-45167D01*
X105268Y-45302D01*
X105195Y-45479D01*
X105194Y-45670D01*
X105267Y-45846D01*
X105402Y-45981D01*
X105579Y-46054D01*
X105770Y-46055D01*
X105946Y-45982D01*
X106081Y-45847D01*
X106154Y-45670D01*
X106155Y-45479D01*
X106155Y-46201D01*
X106141Y-46188D01*
X106049Y-46150D01*
X105950Y-46149D01*
X105350Y-46149D01*
X105258Y-46187D01*
X105188Y-46258D01*
X105150Y-46350D01*
X105149Y-46449D01*
X105149Y-47049D01*
X105187Y-47141D01*
X105258Y-47211D01*
X105350Y-47249D01*
X105372Y-47249D01*
X105234Y-47388D01*
X105150Y-47590D01*
X105149Y-47808D01*
X105233Y-48011D01*
X105388Y-48165D01*
X105469Y-48199D01*
X105388Y-48233D01*
X105234Y-48388D01*
X105150Y-48590D01*
X105149Y-48808D01*
X105233Y-49011D01*
X105388Y-49165D01*
X105590Y-49249D01*
X105808Y-49250D01*
X106011Y-49166D01*
X106165Y-49011D01*
X106199Y-48930D01*
X106233Y-49011D01*
X106388Y-49165D01*
X106590Y-49249D01*
X106808Y-49250D01*
X107011Y-49166D01*
X107165Y-49011D01*
X107249Y-48809D01*
X107250Y-48591D01*
X107250Y-52796D01*
X104135Y-52794D01*
X104135Y-46473D01*
X104076Y-46332D01*
X103968Y-46223D01*
X103965Y-46222D01*
X103984Y-46176D01*
X103985Y-46023D01*
X103926Y-45882D01*
X103818Y-45773D01*
X103676Y-45715D01*
X103600Y-45714D01*
X103600Y-43706D01*
X103508Y-43485D01*
X103340Y-43316D01*
X103119Y-43225D01*
X102881Y-43224D01*
X102660Y-43316D01*
X102499Y-43476D01*
X102340Y-43316D01*
X102119Y-43225D01*
X101881Y-43224D01*
X101660Y-43316D01*
X101585Y-43390D01*
X101562Y-43333D01*
X101491Y-43263D01*
X101399Y-43225D01*
X101300Y-43224D01*
X100600Y-43224D01*
X100508Y-43262D01*
X100438Y-43333D01*
X100400Y-43425D01*
X100399Y-43524D01*
X100399Y-44224D01*
X100437Y-44316D01*
X100508Y-44386D01*
X100600Y-44424D01*
X100699Y-44425D01*
X101399Y-44425D01*
X101491Y-44387D01*
X101561Y-44316D01*
X101585Y-44259D01*
X101659Y-44333D01*
X101880Y-44424D01*
X102118Y-44425D01*
X102339Y-44333D01*
X102500Y-44173D01*
X102659Y-44333D01*
X102880Y-44424D01*
X103118Y-44425D01*
X103339Y-44333D01*
X103508Y-44165D01*
X103599Y-43944D01*
X103600Y-43706D01*
X103600Y-45714D01*
X103523Y-45714D01*
X103382Y-45773D01*
X103273Y-45881D01*
X103215Y-46023D01*
X103214Y-46176D01*
X103273Y-46317D01*
X103381Y-46426D01*
X103384Y-46427D01*
X103365Y-46473D01*
X103365Y-46486D01*
X103228Y-46542D01*
X103093Y-46677D01*
X103020Y-46854D01*
X103019Y-47045D01*
X103092Y-47221D01*
X103227Y-47356D01*
X103404Y-47429D01*
X103595Y-47430D01*
X103771Y-47357D01*
X103906Y-47222D01*
X103979Y-47045D01*
X103980Y-46864D01*
X104076Y-46768D01*
X104134Y-46626D01*
X104135Y-46473D01*
X104135Y-52794D01*
X102585Y-52794D01*
X102585Y-48473D01*
X102535Y-48352D01*
X102535Y-47323D01*
X102476Y-47182D01*
X102368Y-47073D01*
X102226Y-47015D01*
X102073Y-47014D01*
X101932Y-47073D01*
X101823Y-47181D01*
X101765Y-47323D01*
X101764Y-47401D01*
X101679Y-47366D01*
X101680Y-47254D01*
X101607Y-47078D01*
X101472Y-46943D01*
X101295Y-46870D01*
X101104Y-46869D01*
X100928Y-46942D01*
X100793Y-47077D01*
X100720Y-47254D01*
X100719Y-47445D01*
X100792Y-47621D01*
X100927Y-47756D01*
X101104Y-47829D01*
X101216Y-47830D01*
X101273Y-47967D01*
X101381Y-48076D01*
X101523Y-48134D01*
X101676Y-48135D01*
X101817Y-48076D01*
X101926Y-47968D01*
X101984Y-47826D01*
X101985Y-47748D01*
X102073Y-47784D01*
X102226Y-47785D01*
X102367Y-47726D01*
X102476Y-47618D01*
X102534Y-47476D01*
X102535Y-47323D01*
X102535Y-48352D01*
X102526Y-48332D01*
X102418Y-48223D01*
X102276Y-48165D01*
X102123Y-48164D01*
X101982Y-48223D01*
X101873Y-48331D01*
X101815Y-48473D01*
X101814Y-48626D01*
X101873Y-48767D01*
X101981Y-48876D01*
X102123Y-48934D01*
X102276Y-48935D01*
X102417Y-48876D01*
X102526Y-48768D01*
X102584Y-48626D01*
X102585Y-48473D01*
X102585Y-52794D01*
X102304Y-52794D01*
X102305Y-52604D01*
X102232Y-52428D01*
X102097Y-52293D01*
X101920Y-52220D01*
X101729Y-52219D01*
X101553Y-52292D01*
X101418Y-52427D01*
X101345Y-52604D01*
X101344Y-52793D01*
X99835Y-52792D01*
X99835Y-47698D01*
X99776Y-47557D01*
X99668Y-47448D01*
X99526Y-47390D01*
X99373Y-47389D01*
X99260Y-47436D01*
X99260Y-47123D01*
X99201Y-46982D01*
X99093Y-46873D01*
X98951Y-46815D01*
X98798Y-46814D01*
X98785Y-46820D01*
X98785Y-46373D01*
X98726Y-46232D01*
X98618Y-46123D01*
X98476Y-46065D01*
X98323Y-46064D01*
X98182Y-46123D01*
X98073Y-46231D01*
X98015Y-46373D01*
X98014Y-46526D01*
X98073Y-46667D01*
X98181Y-46776D01*
X98323Y-46834D01*
X98476Y-46835D01*
X98617Y-46776D01*
X98726Y-46668D01*
X98784Y-46526D01*
X98785Y-46373D01*
X98785Y-46820D01*
X98657Y-46873D01*
X98548Y-46981D01*
X98490Y-47123D01*
X98489Y-47276D01*
X98548Y-47417D01*
X98656Y-47526D01*
X98798Y-47584D01*
X98951Y-47585D01*
X99092Y-47526D01*
X99201Y-47418D01*
X99259Y-47276D01*
X99260Y-47123D01*
X99260Y-47436D01*
X99232Y-47448D01*
X99123Y-47556D01*
X99065Y-47698D01*
X99064Y-47851D01*
X99123Y-47992D01*
X99231Y-48101D01*
X99373Y-48159D01*
X99526Y-48160D01*
X99667Y-48101D01*
X99776Y-47993D01*
X99834Y-47851D01*
X99835Y-47698D01*
X99835Y-52792D01*
X99235Y-52792D01*
X99235Y-48223D01*
X99176Y-48082D01*
X99068Y-47973D01*
X98926Y-47915D01*
X98773Y-47914D01*
X98632Y-47973D01*
X98523Y-48081D01*
X98465Y-48223D01*
X98464Y-48376D01*
X98523Y-48517D01*
X98631Y-48626D01*
X98773Y-48684D01*
X98926Y-48685D01*
X99067Y-48626D01*
X99176Y-48518D01*
X99234Y-48376D01*
X99235Y-48223D01*
X99235Y-52792D01*
X98635Y-52792D01*
X98635Y-49848D01*
X98576Y-49707D01*
X98468Y-49598D01*
X98326Y-49540D01*
X98173Y-49539D01*
X98032Y-49598D01*
X97923Y-49706D01*
X97865Y-49848D01*
X97864Y-50001D01*
X97923Y-50142D01*
X98031Y-50251D01*
X98173Y-50309D01*
X98326Y-50310D01*
X98467Y-50251D01*
X98576Y-50143D01*
X98634Y-50001D01*
X98635Y-49848D01*
X98635Y-52792D01*
X95200Y-52790D01*
X95200Y-49276D01*
X95086Y-49000D01*
X94875Y-48789D01*
X94599Y-48675D01*
X94301Y-48674D01*
X94025Y-48788D01*
X93814Y-48999D01*
X93700Y-49275D01*
X93699Y-49573D01*
X93813Y-49849D01*
X94024Y-50060D01*
X94300Y-50174D01*
X94598Y-50175D01*
X94874Y-50061D01*
X95085Y-49850D01*
X95199Y-49574D01*
X95200Y-49276D01*
X95200Y-52790D01*
X93885Y-52789D01*
X93885Y-50673D01*
X93826Y-50532D01*
X93718Y-50423D01*
X93685Y-50409D01*
X93685Y-46773D01*
X93626Y-46632D01*
X93518Y-46523D01*
X93376Y-46465D01*
X93223Y-46464D01*
X93082Y-46523D01*
X92973Y-46631D01*
X92915Y-46773D01*
X92914Y-46926D01*
X92973Y-47067D01*
X93081Y-47176D01*
X93223Y-47234D01*
X93376Y-47235D01*
X93517Y-47176D01*
X93626Y-47068D01*
X93684Y-46926D01*
X93685Y-46773D01*
X93685Y-50409D01*
X93576Y-50365D01*
X93423Y-50364D01*
X93282Y-50423D01*
X93173Y-50531D01*
X93135Y-50624D01*
X93135Y-50348D01*
X93076Y-50207D01*
X92968Y-50098D01*
X92826Y-50040D01*
X92785Y-50040D01*
X92785Y-47523D01*
X92726Y-47382D01*
X92618Y-47273D01*
X92476Y-47215D01*
X92335Y-47214D01*
X92335Y-45298D01*
X92276Y-45157D01*
X92168Y-45048D01*
X92026Y-44990D01*
X91873Y-44989D01*
X91732Y-45048D01*
X91623Y-45156D01*
X91565Y-45298D01*
X91564Y-45451D01*
X91623Y-45592D01*
X91731Y-45701D01*
X91873Y-45759D01*
X92026Y-45760D01*
X92167Y-45701D01*
X92276Y-45593D01*
X92334Y-45451D01*
X92335Y-45298D01*
X92335Y-47214D01*
X92323Y-47214D01*
X92225Y-47255D01*
X92168Y-47198D01*
X92026Y-47140D01*
X91873Y-47139D01*
X91732Y-47198D01*
X91712Y-47218D01*
X91618Y-47123D01*
X91476Y-47065D01*
X91323Y-47064D01*
X91182Y-47123D01*
X91073Y-47231D01*
X91019Y-47361D01*
X90976Y-47257D01*
X90868Y-47148D01*
X90726Y-47090D01*
X90573Y-47089D01*
X90432Y-47148D01*
X90323Y-47256D01*
X90265Y-47398D01*
X90264Y-47551D01*
X90323Y-47692D01*
X90431Y-47801D01*
X90573Y-47859D01*
X90726Y-47860D01*
X90867Y-47801D01*
X90976Y-47693D01*
X91030Y-47563D01*
X91073Y-47667D01*
X91181Y-47776D01*
X91323Y-47834D01*
X91476Y-47835D01*
X91617Y-47776D01*
X91637Y-47756D01*
X91731Y-47851D01*
X91873Y-47909D01*
X92026Y-47910D01*
X92124Y-47869D01*
X92181Y-47926D01*
X92323Y-47984D01*
X92476Y-47985D01*
X92617Y-47926D01*
X92726Y-47818D01*
X92784Y-47676D01*
X92785Y-47523D01*
X92785Y-50040D01*
X92673Y-50039D01*
X92532Y-50098D01*
X92423Y-50206D01*
X92365Y-50348D01*
X92364Y-50501D01*
X92423Y-50642D01*
X92531Y-50751D01*
X92673Y-50809D01*
X92826Y-50810D01*
X92967Y-50751D01*
X93076Y-50643D01*
X93134Y-50501D01*
X93135Y-50348D01*
X93135Y-50624D01*
X93115Y-50673D01*
X93114Y-50826D01*
X93173Y-50967D01*
X93281Y-51076D01*
X93423Y-51134D01*
X93576Y-51135D01*
X93717Y-51076D01*
X93826Y-50968D01*
X93884Y-50826D01*
X93885Y-50673D01*
X93885Y-52789D01*
X93535Y-52789D01*
X93535Y-51848D01*
X93476Y-51707D01*
X93368Y-51598D01*
X93226Y-51540D01*
X93073Y-51539D01*
X92932Y-51598D01*
X92823Y-51706D01*
X92820Y-51715D01*
X92723Y-51714D01*
X92582Y-51773D01*
X92473Y-51881D01*
X92415Y-52023D01*
X92414Y-52176D01*
X92473Y-52317D01*
X92581Y-52426D01*
X92723Y-52484D01*
X92876Y-52485D01*
X93017Y-52426D01*
X93126Y-52318D01*
X93129Y-52309D01*
X93226Y-52310D01*
X93367Y-52251D01*
X93476Y-52143D01*
X93534Y-52001D01*
X93535Y-51848D01*
X93535Y-52789D01*
X91735Y-52788D01*
X91735Y-49423D01*
X91676Y-49282D01*
X91568Y-49173D01*
X91426Y-49115D01*
X91273Y-49114D01*
X91132Y-49173D01*
X91082Y-49223D01*
X91001Y-49190D01*
X90848Y-49189D01*
X90707Y-49248D01*
X90598Y-49356D01*
X90540Y-49498D01*
X90539Y-49651D01*
X90598Y-49792D01*
X90706Y-49901D01*
X90848Y-49959D01*
X91001Y-49960D01*
X91142Y-49901D01*
X91192Y-49851D01*
X91273Y-49884D01*
X91426Y-49885D01*
X91567Y-49826D01*
X91676Y-49718D01*
X91734Y-49576D01*
X91735Y-49423D01*
X91735Y-52788D01*
X90385Y-52787D01*
X90385Y-51373D01*
X90326Y-51232D01*
X90218Y-51123D01*
X90076Y-51065D01*
X89923Y-51064D01*
X89782Y-51123D01*
X89673Y-51231D01*
X89615Y-51373D01*
X89614Y-51526D01*
X89673Y-51667D01*
X89781Y-51776D01*
X89923Y-51834D01*
X90076Y-51835D01*
X90217Y-51776D01*
X90326Y-51668D01*
X90384Y-51526D01*
X90385Y-51373D01*
X90385Y-52787D01*
X88985Y-52787D01*
X88985Y-52223D01*
X88926Y-52082D01*
X88818Y-51973D01*
X88760Y-51949D01*
X88760Y-50398D01*
X88701Y-50257D01*
X88593Y-50148D01*
X88451Y-50090D01*
X88298Y-50089D01*
X88157Y-50148D01*
X88048Y-50256D01*
X87990Y-50398D01*
X87989Y-50551D01*
X88048Y-50692D01*
X88156Y-50801D01*
X88298Y-50859D01*
X88451Y-50860D01*
X88592Y-50801D01*
X88701Y-50693D01*
X88759Y-50551D01*
X88760Y-50398D01*
X88760Y-51949D01*
X88676Y-51915D01*
X88523Y-51914D01*
X88460Y-51941D01*
X88460Y-51223D01*
X88401Y-51082D01*
X88293Y-50973D01*
X88151Y-50915D01*
X87998Y-50914D01*
X87857Y-50973D01*
X87748Y-51081D01*
X87690Y-51223D01*
X87689Y-51376D01*
X87748Y-51517D01*
X87856Y-51626D01*
X87998Y-51684D01*
X88151Y-51685D01*
X88292Y-51626D01*
X88401Y-51518D01*
X88459Y-51376D01*
X88460Y-51223D01*
X88460Y-51941D01*
X88382Y-51973D01*
X88273Y-52081D01*
X88215Y-52223D01*
X88214Y-52376D01*
X88273Y-52517D01*
X88381Y-52626D01*
X88523Y-52684D01*
X88676Y-52685D01*
X88817Y-52626D01*
X88926Y-52518D01*
X88984Y-52376D01*
X88985Y-52223D01*
X88985Y-52787D01*
X87650Y-52786D01*
X87650Y-46476D01*
X87536Y-46200D01*
X87325Y-45989D01*
X87049Y-45875D01*
X86751Y-45874D01*
X86475Y-45988D01*
X86264Y-46199D01*
X86150Y-46475D01*
X86149Y-46773D01*
X86263Y-47049D01*
X86474Y-47260D01*
X86750Y-47374D01*
X87048Y-47375D01*
X87324Y-47261D01*
X87535Y-47050D01*
X87649Y-46774D01*
X87650Y-46476D01*
X87650Y-52786D01*
X86575Y-52786D01*
X86575Y-49326D01*
X86442Y-49005D01*
X86196Y-48758D01*
X85874Y-48625D01*
X85526Y-48624D01*
X85205Y-48757D01*
X85110Y-48852D01*
X85110Y-46123D01*
X85051Y-45982D01*
X84943Y-45873D01*
X84801Y-45815D01*
X84648Y-45814D01*
X84507Y-45873D01*
X84398Y-45981D01*
X84340Y-46123D01*
X84339Y-46276D01*
X84398Y-46417D01*
X84506Y-46526D01*
X84648Y-46584D01*
X84801Y-46585D01*
X84942Y-46526D01*
X85051Y-46418D01*
X85109Y-46276D01*
X85110Y-46123D01*
X85110Y-48852D01*
X84958Y-49003D01*
X84825Y-49325D01*
X84824Y-49673D01*
X84957Y-49995D01*
X85203Y-50241D01*
X85525Y-50374D01*
X85873Y-50375D01*
X86195Y-50242D01*
X86441Y-49996D01*
X86574Y-49674D01*
X86575Y-49326D01*
X86575Y-52786D01*
X83085Y-52784D01*
X83085Y-46898D01*
X83026Y-46757D01*
X82918Y-46648D01*
X82776Y-46590D01*
X82623Y-46589D01*
X82482Y-46648D01*
X82384Y-46745D01*
X82385Y-46623D01*
X82326Y-46482D01*
X82218Y-46373D01*
X82076Y-46315D01*
X81923Y-46314D01*
X81782Y-46373D01*
X81673Y-46481D01*
X81615Y-46623D01*
X81614Y-46776D01*
X81673Y-46917D01*
X81781Y-47026D01*
X81923Y-47084D01*
X82076Y-47085D01*
X82217Y-47026D01*
X82315Y-46929D01*
X82314Y-47051D01*
X82373Y-47192D01*
X82481Y-47301D01*
X82623Y-47359D01*
X82776Y-47360D01*
X82917Y-47301D01*
X83026Y-47193D01*
X83084Y-47051D01*
X83085Y-46898D01*
X83085Y-52784D01*
X80460Y-52782D01*
X80460Y-46698D01*
X80401Y-46557D01*
X80293Y-46448D01*
X80151Y-46390D01*
X79998Y-46389D01*
X79857Y-46448D01*
X79748Y-46556D01*
X79690Y-46698D01*
X79689Y-46851D01*
X79748Y-46992D01*
X79856Y-47101D01*
X79998Y-47159D01*
X80151Y-47160D01*
X80292Y-47101D01*
X80401Y-46993D01*
X80459Y-46851D01*
X80460Y-46698D01*
X80460Y-52782D01*
X76510Y-52780D01*
X76510Y-46923D01*
X76451Y-46782D01*
X76343Y-46673D01*
X76201Y-46615D01*
X76048Y-46614D01*
X75907Y-46673D01*
X75798Y-46781D01*
X75740Y-46923D01*
X75739Y-47076D01*
X75798Y-47217D01*
X75906Y-47326D01*
X76048Y-47384D01*
X76201Y-47385D01*
X76342Y-47326D01*
X76451Y-47218D01*
X76509Y-47076D01*
X76510Y-46923D01*
X76510Y-52780D01*
X74535Y-52779D01*
X74535Y-47973D01*
X74476Y-47832D01*
X74368Y-47723D01*
X74226Y-47665D01*
X74073Y-47664D01*
X73932Y-47723D01*
X73823Y-47831D01*
X73765Y-47973D01*
X73764Y-48126D01*
X73823Y-48267D01*
X73931Y-48376D01*
X74073Y-48434D01*
X74226Y-48435D01*
X74367Y-48376D01*
X74476Y-48268D01*
X74534Y-48126D01*
X74535Y-47973D01*
X74535Y-52779D01*
X73660Y-52779D01*
X73660Y-48048D01*
X73601Y-47907D01*
X73493Y-47798D01*
X73351Y-47740D01*
X73198Y-47739D01*
X73057Y-47798D01*
X72948Y-47906D01*
X72890Y-48048D01*
X72889Y-48201D01*
X72948Y-48342D01*
X73056Y-48451D01*
X73198Y-48509D01*
X73351Y-48510D01*
X73492Y-48451D01*
X73601Y-48343D01*
X73659Y-48201D01*
X73660Y-48048D01*
X73660Y-52779D01*
X64785Y-52775D01*
X64924Y-52775D01*
X65016Y-52737D01*
X65086Y-52666D01*
X65124Y-52574D01*
X65125Y-52475D01*
X65125Y-51475D01*
X65087Y-51383D01*
X65016Y-51313D01*
X64924Y-51275D01*
X64825Y-51274D01*
X64750Y-51274D01*
X64750Y-44725D01*
X97725Y-44748D01*
X97724Y-44998D01*
X97734Y-45020D01*
X97607Y-45073D01*
X97498Y-45181D01*
X97440Y-45323D01*
X97439Y-45476D01*
X97498Y-45617D01*
X97606Y-45726D01*
X97748Y-45784D01*
X97901Y-45785D01*
X98042Y-45726D01*
X98151Y-45618D01*
X98183Y-45540D01*
X98325Y-45599D01*
X98623Y-45600D01*
X98899Y-45486D01*
X99110Y-45275D01*
X99224Y-44999D01*
X99225Y-44749D01*
X99700Y-44750D01*
X99700Y-42250D01*
X109450Y-42250D01*
X109450Y-42863D01*
X109345Y-42820D01*
X109154Y-42819D01*
X108978Y-42892D01*
X108843Y-43027D01*
X108770Y-43204D01*
X108769Y-43395D01*
X108842Y-43571D01*
X108977Y-43706D01*
X109154Y-43779D01*
X109345Y-43780D01*
X109450Y-43736D01*
X109450Y-46100D01*
X112271Y-46100D01*
X112254Y-46117D01*
X112156Y-46353D01*
X112156Y-46609D01*
X112253Y-46846D01*
X112434Y-47027D01*
X112671Y-47125D01*
X112927Y-47126D01*
X113164Y-47028D01*
X113345Y-46847D01*
X113443Y-46610D01*
X113443Y-46354D01*
X113346Y-46118D01*
X113327Y-46100D01*
X114030Y-46100D01*
X114030Y-52799D01*
G54D10*
G36*
X114030Y-56000D02*
X113443Y-56000D01*
X113443Y-55094D01*
X113443Y-54306D01*
X113405Y-54214D01*
X113335Y-54144D01*
X113243Y-54106D01*
X113144Y-54106D01*
X112356Y-54106D01*
X112264Y-54144D01*
X112194Y-54214D01*
X112156Y-54306D01*
X112156Y-54405D01*
X112156Y-55193D01*
X112194Y-55285D01*
X112264Y-55355D01*
X112356Y-55393D01*
X112455Y-55393D01*
X113243Y-55393D01*
X113335Y-55355D01*
X113405Y-55285D01*
X113443Y-55193D01*
X113443Y-55094D01*
X113443Y-56000D01*
X100300Y-56000D01*
X100300Y-57025D01*
X97180Y-57029D01*
X97204Y-56970D01*
X97205Y-56779D01*
X97132Y-56603D01*
X96997Y-56468D01*
X96820Y-56395D01*
X96629Y-56394D01*
X96453Y-56467D01*
X96318Y-56602D01*
X96245Y-56779D01*
X96244Y-56970D01*
X96269Y-57030D01*
X92960Y-57035D01*
X92960Y-54798D01*
X92901Y-54657D01*
X92793Y-54548D01*
X92651Y-54490D01*
X92498Y-54489D01*
X92357Y-54548D01*
X92248Y-54656D01*
X92190Y-54798D01*
X92189Y-54951D01*
X92248Y-55092D01*
X92356Y-55201D01*
X92498Y-55259D01*
X92651Y-55260D01*
X92792Y-55201D01*
X92901Y-55093D01*
X92959Y-54951D01*
X92960Y-54798D01*
X92960Y-57035D01*
X90705Y-57038D01*
X90705Y-55179D01*
X90632Y-55003D01*
X90497Y-54868D01*
X90320Y-54795D01*
X90129Y-54794D01*
X89953Y-54867D01*
X89818Y-55002D01*
X89745Y-55179D01*
X89744Y-55370D01*
X89817Y-55546D01*
X89952Y-55681D01*
X90129Y-55754D01*
X90320Y-55755D01*
X90496Y-55682D01*
X90631Y-55547D01*
X90704Y-55370D01*
X90705Y-55179D01*
X90705Y-57038D01*
X88925Y-57040D01*
X88925Y-54865D01*
X88860Y-54709D01*
X88741Y-54589D01*
X88584Y-54525D01*
X88415Y-54524D01*
X88259Y-54589D01*
X88139Y-54708D01*
X88075Y-54865D01*
X88074Y-55034D01*
X88139Y-55190D01*
X88258Y-55310D01*
X88415Y-55374D01*
X88584Y-55375D01*
X88740Y-55310D01*
X88860Y-55191D01*
X88924Y-55034D01*
X88925Y-54865D01*
X88925Y-57040D01*
X85085Y-57046D01*
X85085Y-53848D01*
X85026Y-53707D01*
X84918Y-53598D01*
X84776Y-53540D01*
X84623Y-53539D01*
X84482Y-53598D01*
X84373Y-53706D01*
X84315Y-53848D01*
X84314Y-54001D01*
X84373Y-54142D01*
X84481Y-54251D01*
X84623Y-54309D01*
X84776Y-54310D01*
X84917Y-54251D01*
X85026Y-54143D01*
X85084Y-54001D01*
X85085Y-53848D01*
X85085Y-57046D01*
X76275Y-57058D01*
X76275Y-56944D01*
X76301Y-56918D01*
X76359Y-56776D01*
X76360Y-56623D01*
X76301Y-56482D01*
X76193Y-56373D01*
X76051Y-56315D01*
X75898Y-56314D01*
X75757Y-56373D01*
X75648Y-56481D01*
X75590Y-56623D01*
X75589Y-56776D01*
X75648Y-56917D01*
X75675Y-56944D01*
X75675Y-56950D01*
X75600Y-57025D01*
X74303Y-57025D01*
X74300Y-57021D01*
X74271Y-56978D01*
X74229Y-56950D01*
X74197Y-56918D01*
X74155Y-56900D01*
X74112Y-56872D01*
X74062Y-56862D01*
X74020Y-56845D01*
X73975Y-56845D01*
X73925Y-56835D01*
X65855Y-56835D01*
X65855Y-55029D01*
X65782Y-54853D01*
X65647Y-54718D01*
X65470Y-54645D01*
X65279Y-54644D01*
X65103Y-54717D01*
X64968Y-54852D01*
X64895Y-55029D01*
X64894Y-55220D01*
X64967Y-55396D01*
X65102Y-55531D01*
X65279Y-55604D01*
X65470Y-55605D01*
X65646Y-55532D01*
X65781Y-55397D01*
X65854Y-55220D01*
X65855Y-55029D01*
X65855Y-56835D01*
X65152Y-56835D01*
X65040Y-56722D01*
X65040Y-55900D01*
X65040Y-55875D01*
X65002Y-55687D01*
X64896Y-55528D01*
X64697Y-55329D01*
X64709Y-54400D01*
X64874Y-54400D01*
X64966Y-54362D01*
X65036Y-54291D01*
X65074Y-54199D01*
X65075Y-54100D01*
X65075Y-53225D01*
X112164Y-53225D01*
X112156Y-53243D01*
X112156Y-53499D01*
X112253Y-53736D01*
X112434Y-53917D01*
X112671Y-54015D01*
X112927Y-54015D01*
X113164Y-53918D01*
X113345Y-53737D01*
X113443Y-53500D01*
X113443Y-53244D01*
X113435Y-53225D01*
X114030Y-53225D01*
X114030Y-56000D01*
X114030Y-56000D01*
G37*
G54D31*
X114030Y-56000D02*
X113443Y-56000D01*
X113443Y-55094D01*
X113443Y-54306D01*
X113405Y-54214D01*
X113335Y-54144D01*
X113243Y-54106D01*
X113144Y-54106D01*
X112356Y-54106D01*
X112264Y-54144D01*
X112194Y-54214D01*
X112156Y-54306D01*
X112156Y-54405D01*
X112156Y-55193D01*
X112194Y-55285D01*
X112264Y-55355D01*
X112356Y-55393D01*
X112455Y-55393D01*
X113243Y-55393D01*
X113335Y-55355D01*
X113405Y-55285D01*
X113443Y-55193D01*
X113443Y-55094D01*
X113443Y-56000D01*
X100300Y-56000D01*
X100300Y-57025D01*
X97180Y-57029D01*
X97204Y-56970D01*
X97205Y-56779D01*
X97132Y-56603D01*
X96997Y-56468D01*
X96820Y-56395D01*
X96629Y-56394D01*
X96453Y-56467D01*
X96318Y-56602D01*
X96245Y-56779D01*
X96244Y-56970D01*
X96269Y-57030D01*
X92960Y-57035D01*
X92960Y-54798D01*
X92901Y-54657D01*
X92793Y-54548D01*
X92651Y-54490D01*
X92498Y-54489D01*
X92357Y-54548D01*
X92248Y-54656D01*
X92190Y-54798D01*
X92189Y-54951D01*
X92248Y-55092D01*
X92356Y-55201D01*
X92498Y-55259D01*
X92651Y-55260D01*
X92792Y-55201D01*
X92901Y-55093D01*
X92959Y-54951D01*
X92960Y-54798D01*
X92960Y-57035D01*
X90705Y-57038D01*
X90705Y-55179D01*
X90632Y-55003D01*
X90497Y-54868D01*
X90320Y-54795D01*
X90129Y-54794D01*
X89953Y-54867D01*
X89818Y-55002D01*
X89745Y-55179D01*
X89744Y-55370D01*
X89817Y-55546D01*
X89952Y-55681D01*
X90129Y-55754D01*
X90320Y-55755D01*
X90496Y-55682D01*
X90631Y-55547D01*
X90704Y-55370D01*
X90705Y-55179D01*
X90705Y-57038D01*
X88925Y-57040D01*
X88925Y-54865D01*
X88860Y-54709D01*
X88741Y-54589D01*
X88584Y-54525D01*
X88415Y-54524D01*
X88259Y-54589D01*
X88139Y-54708D01*
X88075Y-54865D01*
X88074Y-55034D01*
X88139Y-55190D01*
X88258Y-55310D01*
X88415Y-55374D01*
X88584Y-55375D01*
X88740Y-55310D01*
X88860Y-55191D01*
X88924Y-55034D01*
X88925Y-54865D01*
X88925Y-57040D01*
X85085Y-57046D01*
X85085Y-53848D01*
X85026Y-53707D01*
X84918Y-53598D01*
X84776Y-53540D01*
X84623Y-53539D01*
X84482Y-53598D01*
X84373Y-53706D01*
X84315Y-53848D01*
X84314Y-54001D01*
X84373Y-54142D01*
X84481Y-54251D01*
X84623Y-54309D01*
X84776Y-54310D01*
X84917Y-54251D01*
X85026Y-54143D01*
X85084Y-54001D01*
X85085Y-53848D01*
X85085Y-57046D01*
X76275Y-57058D01*
X76275Y-56944D01*
X76301Y-56918D01*
X76359Y-56776D01*
X76360Y-56623D01*
X76301Y-56482D01*
X76193Y-56373D01*
X76051Y-56315D01*
X75898Y-56314D01*
X75757Y-56373D01*
X75648Y-56481D01*
X75590Y-56623D01*
X75589Y-56776D01*
X75648Y-56917D01*
X75675Y-56944D01*
X75675Y-56950D01*
X75600Y-57025D01*
X74303Y-57025D01*
X74300Y-57021D01*
X74271Y-56978D01*
X74229Y-56950D01*
X74197Y-56918D01*
X74155Y-56900D01*
X74112Y-56872D01*
X74062Y-56862D01*
X74020Y-56845D01*
X73975Y-56845D01*
X73925Y-56835D01*
X65855Y-56835D01*
X65855Y-55029D01*
X65782Y-54853D01*
X65647Y-54718D01*
X65470Y-54645D01*
X65279Y-54644D01*
X65103Y-54717D01*
X64968Y-54852D01*
X64895Y-55029D01*
X64894Y-55220D01*
X64967Y-55396D01*
X65102Y-55531D01*
X65279Y-55604D01*
X65470Y-55605D01*
X65646Y-55532D01*
X65781Y-55397D01*
X65854Y-55220D01*
X65855Y-55029D01*
X65855Y-56835D01*
X65152Y-56835D01*
X65040Y-56722D01*
X65040Y-55900D01*
X65040Y-55875D01*
X65002Y-55687D01*
X64896Y-55528D01*
X64697Y-55329D01*
X64709Y-54400D01*
X64874Y-54400D01*
X64966Y-54362D01*
X65036Y-54291D01*
X65074Y-54199D01*
X65075Y-54100D01*
X65075Y-53225D01*
X112164Y-53225D01*
X112156Y-53243D01*
X112156Y-53499D01*
X112253Y-53736D01*
X112434Y-53917D01*
X112671Y-54015D01*
X112927Y-54015D01*
X113164Y-53918D01*
X113345Y-53737D01*
X113443Y-53500D01*
X113443Y-53244D01*
X113435Y-53225D01*
X114030Y-53225D01*
X114030Y-56000D01*
G54D10*
G36*
X105600Y-63330D02*
X105565Y-63330D01*
X105565Y-62486D01*
X105470Y-62256D01*
X105294Y-62080D01*
X105064Y-61985D01*
X104816Y-61984D01*
X104586Y-62079D01*
X104410Y-62255D01*
X104315Y-62485D01*
X104314Y-62733D01*
X104409Y-62963D01*
X104585Y-63139D01*
X104815Y-63234D01*
X105063Y-63235D01*
X105293Y-63140D01*
X105469Y-62964D01*
X105564Y-62734D01*
X105565Y-62486D01*
X105565Y-63330D01*
X102840Y-63330D01*
X102840Y-60958D01*
X102713Y-60649D01*
X102700Y-60636D01*
X102700Y-58276D01*
X102586Y-58000D01*
X102375Y-57789D01*
X102099Y-57675D01*
X101801Y-57674D01*
X101525Y-57788D01*
X101314Y-57999D01*
X101200Y-58275D01*
X101199Y-58573D01*
X101313Y-58849D01*
X101524Y-59060D01*
X101800Y-59174D01*
X102098Y-59175D01*
X102374Y-59061D01*
X102585Y-58850D01*
X102699Y-58574D01*
X102700Y-58276D01*
X102700Y-60636D01*
X102476Y-60412D01*
X102167Y-60284D01*
X101833Y-60284D01*
X101524Y-60412D01*
X101479Y-60456D01*
X101504Y-60395D01*
X101505Y-60204D01*
X101432Y-60028D01*
X101366Y-59962D01*
X101406Y-59922D01*
X101479Y-59745D01*
X101480Y-59554D01*
X101407Y-59378D01*
X101272Y-59243D01*
X101095Y-59170D01*
X100904Y-59169D01*
X100728Y-59242D01*
X100593Y-59377D01*
X100520Y-59554D01*
X100519Y-59745D01*
X100592Y-59921D01*
X100658Y-59987D01*
X100618Y-60027D01*
X100545Y-60204D01*
X100544Y-60395D01*
X100617Y-60571D01*
X100752Y-60706D01*
X100929Y-60779D01*
X101120Y-60780D01*
X101256Y-60723D01*
X101159Y-60957D01*
X101159Y-61291D01*
X101287Y-61600D01*
X101523Y-61837D01*
X101832Y-61965D01*
X102166Y-61965D01*
X102475Y-61838D01*
X102712Y-61601D01*
X102840Y-61292D01*
X102840Y-60958D01*
X102840Y-63330D01*
X99830Y-63330D01*
X99830Y-61254D01*
X99757Y-61078D01*
X99622Y-60943D01*
X99445Y-60870D01*
X99348Y-60869D01*
X99449Y-60624D01*
X99450Y-60326D01*
X99336Y-60050D01*
X99125Y-59839D01*
X98849Y-59725D01*
X98551Y-59724D01*
X98275Y-59838D01*
X98064Y-60049D01*
X97950Y-60325D01*
X97949Y-60623D01*
X98063Y-60899D01*
X98274Y-61110D01*
X98550Y-61224D01*
X98848Y-61225D01*
X98889Y-61208D01*
X98870Y-61254D01*
X98869Y-61445D01*
X98942Y-61621D01*
X99077Y-61756D01*
X99254Y-61829D01*
X99445Y-61830D01*
X99621Y-61757D01*
X99756Y-61622D01*
X99829Y-61445D01*
X99830Y-61254D01*
X99830Y-63330D01*
X99515Y-63330D01*
X99529Y-63295D01*
X99530Y-63104D01*
X99457Y-62928D01*
X99322Y-62793D01*
X99145Y-62720D01*
X98954Y-62719D01*
X98778Y-62792D01*
X98643Y-62927D01*
X98570Y-63104D01*
X98569Y-63295D01*
X98584Y-63330D01*
X94330Y-63330D01*
X94330Y-62404D01*
X94257Y-62228D01*
X94122Y-62093D01*
X93945Y-62020D01*
X93910Y-62020D01*
X93910Y-61373D01*
X93851Y-61232D01*
X93743Y-61123D01*
X93601Y-61065D01*
X93448Y-61064D01*
X93307Y-61123D01*
X93198Y-61231D01*
X93140Y-61373D01*
X93139Y-61526D01*
X93198Y-61667D01*
X93306Y-61776D01*
X93448Y-61834D01*
X93601Y-61835D01*
X93742Y-61776D01*
X93851Y-61668D01*
X93909Y-61526D01*
X93910Y-61373D01*
X93910Y-62020D01*
X93754Y-62019D01*
X93578Y-62092D01*
X93443Y-62227D01*
X93370Y-62404D01*
X93369Y-62595D01*
X93442Y-62771D01*
X93577Y-62906D01*
X93754Y-62979D01*
X93945Y-62980D01*
X94121Y-62907D01*
X94256Y-62772D01*
X94329Y-62595D01*
X94330Y-62404D01*
X94330Y-63330D01*
X86575Y-63330D01*
X86575Y-60326D01*
X86442Y-60005D01*
X86196Y-59758D01*
X85874Y-59625D01*
X85526Y-59624D01*
X85205Y-59757D01*
X84958Y-60003D01*
X84825Y-60325D01*
X84824Y-60673D01*
X84957Y-60995D01*
X85203Y-61241D01*
X85525Y-61374D01*
X85873Y-61375D01*
X86195Y-61242D01*
X86441Y-60996D01*
X86574Y-60674D01*
X86575Y-60326D01*
X86575Y-63330D01*
X85250Y-63330D01*
X85250Y-62714D01*
X85250Y-62285D01*
X85208Y-62074D01*
X85088Y-61896D01*
X84910Y-61777D01*
X84700Y-61735D01*
X84489Y-61777D01*
X84311Y-61896D01*
X84200Y-62062D01*
X84088Y-61896D01*
X83910Y-61777D01*
X83700Y-61735D01*
X83489Y-61777D01*
X83311Y-61896D01*
X83200Y-62062D01*
X83088Y-61896D01*
X82910Y-61777D01*
X82700Y-61735D01*
X82489Y-61777D01*
X82311Y-61896D01*
X82200Y-62062D01*
X82088Y-61896D01*
X81910Y-61777D01*
X81700Y-61735D01*
X81489Y-61777D01*
X81311Y-61896D01*
X81200Y-62062D01*
X81088Y-61896D01*
X80910Y-61777D01*
X80700Y-61735D01*
X80489Y-61777D01*
X80311Y-61896D01*
X80200Y-62062D01*
X80088Y-61896D01*
X79910Y-61777D01*
X79700Y-61735D01*
X79489Y-61777D01*
X79311Y-61896D01*
X79191Y-62074D01*
X79150Y-62285D01*
X79150Y-62714D01*
X79191Y-62925D01*
X79311Y-63103D01*
X79489Y-63222D01*
X79700Y-63264D01*
X79910Y-63222D01*
X80088Y-63103D01*
X80200Y-62937D01*
X80311Y-63103D01*
X80489Y-63222D01*
X80700Y-63264D01*
X80910Y-63222D01*
X81088Y-63103D01*
X81200Y-62937D01*
X81311Y-63103D01*
X81489Y-63222D01*
X81700Y-63264D01*
X81910Y-63222D01*
X82088Y-63103D01*
X82200Y-62937D01*
X82311Y-63103D01*
X82489Y-63222D01*
X82700Y-63264D01*
X82910Y-63222D01*
X83088Y-63103D01*
X83200Y-62937D01*
X83311Y-63103D01*
X83489Y-63222D01*
X83700Y-63264D01*
X83910Y-63222D01*
X84088Y-63103D01*
X84200Y-62937D01*
X84311Y-63103D01*
X84489Y-63222D01*
X84700Y-63264D01*
X84910Y-63222D01*
X85088Y-63103D01*
X85208Y-62925D01*
X85250Y-62714D01*
X85250Y-63330D01*
X78250Y-63330D01*
X78250Y-62714D01*
X78250Y-62285D01*
X78208Y-62074D01*
X78180Y-62032D01*
X78180Y-59229D01*
X78107Y-59053D01*
X77972Y-58918D01*
X77795Y-58845D01*
X77604Y-58844D01*
X77428Y-58917D01*
X77293Y-59052D01*
X77220Y-59229D01*
X77219Y-59420D01*
X77292Y-59596D01*
X77427Y-59731D01*
X77604Y-59804D01*
X77795Y-59805D01*
X77971Y-59732D01*
X78106Y-59597D01*
X78179Y-59420D01*
X78180Y-59229D01*
X78180Y-62032D01*
X78088Y-61896D01*
X77910Y-61777D01*
X77700Y-61735D01*
X77489Y-61777D01*
X77311Y-61896D01*
X77200Y-62062D01*
X77088Y-61896D01*
X76910Y-61777D01*
X76700Y-61735D01*
X76489Y-61777D01*
X76311Y-61896D01*
X76200Y-62062D01*
X76088Y-61896D01*
X75910Y-61777D01*
X75700Y-61735D01*
X75489Y-61777D01*
X75311Y-61896D01*
X75200Y-62062D01*
X75088Y-61896D01*
X74910Y-61777D01*
X74700Y-61735D01*
X74489Y-61777D01*
X74311Y-61896D01*
X74200Y-62062D01*
X74088Y-61896D01*
X73910Y-61777D01*
X73700Y-61735D01*
X73489Y-61777D01*
X73311Y-61896D01*
X73200Y-62062D01*
X73088Y-61896D01*
X72910Y-61777D01*
X72700Y-61735D01*
X72489Y-61777D01*
X72311Y-61896D01*
X72200Y-62062D01*
X72088Y-61896D01*
X71910Y-61777D01*
X71700Y-61735D01*
X71489Y-61777D01*
X71311Y-61896D01*
X71200Y-62062D01*
X71088Y-61896D01*
X70910Y-61777D01*
X70700Y-61735D01*
X70489Y-61777D01*
X70311Y-61896D01*
X70191Y-62074D01*
X70150Y-62285D01*
X70150Y-62714D01*
X70191Y-62925D01*
X70311Y-63103D01*
X70489Y-63222D01*
X70700Y-63264D01*
X70910Y-63222D01*
X71088Y-63103D01*
X71200Y-62937D01*
X71311Y-63103D01*
X71489Y-63222D01*
X71700Y-63264D01*
X71910Y-63222D01*
X72088Y-63103D01*
X72200Y-62937D01*
X72311Y-63103D01*
X72489Y-63222D01*
X72700Y-63264D01*
X72910Y-63222D01*
X73088Y-63103D01*
X73200Y-62937D01*
X73311Y-63103D01*
X73489Y-63222D01*
X73700Y-63264D01*
X73910Y-63222D01*
X74088Y-63103D01*
X74200Y-62937D01*
X74311Y-63103D01*
X74489Y-63222D01*
X74700Y-63264D01*
X74910Y-63222D01*
X75088Y-63103D01*
X75200Y-62937D01*
X75311Y-63103D01*
X75489Y-63222D01*
X75700Y-63264D01*
X75910Y-63222D01*
X76088Y-63103D01*
X76200Y-62937D01*
X76311Y-63103D01*
X76489Y-63222D01*
X76700Y-63264D01*
X76910Y-63222D01*
X77088Y-63103D01*
X77200Y-62937D01*
X77311Y-63103D01*
X77489Y-63222D01*
X77700Y-63264D01*
X77910Y-63222D01*
X78088Y-63103D01*
X78208Y-62925D01*
X78250Y-62714D01*
X78250Y-63330D01*
X65481Y-63330D01*
X65695Y-63242D01*
X65941Y-62996D01*
X66074Y-62674D01*
X66075Y-62326D01*
X65942Y-62005D01*
X65696Y-61758D01*
X65374Y-61625D01*
X65026Y-61624D01*
X64705Y-61757D01*
X64458Y-62003D01*
X64325Y-62325D01*
X64324Y-62673D01*
X64457Y-62995D01*
X64703Y-63241D01*
X64917Y-63330D01*
X62100Y-63330D01*
X62100Y-57553D01*
X63825Y-57554D01*
X62100Y-57452D01*
X62100Y-56125D01*
X62521Y-56125D01*
X62558Y-56161D01*
X62650Y-56199D01*
X62749Y-56200D01*
X63749Y-56200D01*
X63841Y-56162D01*
X63878Y-56125D01*
X64060Y-56125D01*
X64060Y-56925D01*
X64097Y-57112D01*
X64125Y-57153D01*
X64125Y-57554D01*
X64433Y-57554D01*
X64478Y-57621D01*
X64528Y-57671D01*
X64687Y-57777D01*
X64687Y-57777D01*
X64875Y-57815D01*
X73925Y-57815D01*
X73975Y-57805D01*
X74020Y-57805D01*
X74062Y-57787D01*
X74112Y-57777D01*
X74154Y-57749D01*
X74196Y-57732D01*
X74228Y-57700D01*
X74271Y-57671D01*
X74299Y-57629D01*
X74303Y-57625D01*
X75725Y-57625D01*
X75725Y-57624D01*
X75839Y-57602D01*
X75839Y-57602D01*
X75891Y-57567D01*
X103150Y-57597D01*
X103150Y-56600D01*
X105600Y-56600D01*
X105600Y-57550D01*
X105600Y-58750D01*
X105565Y-58750D01*
X105565Y-57766D01*
X105470Y-57536D01*
X105294Y-57360D01*
X105064Y-57265D01*
X104816Y-57264D01*
X104586Y-57359D01*
X104410Y-57535D01*
X104315Y-57765D01*
X104314Y-58013D01*
X104409Y-58243D01*
X104585Y-58419D01*
X104815Y-58514D01*
X105063Y-58515D01*
X105293Y-58420D01*
X105469Y-58244D01*
X105564Y-58014D01*
X105565Y-57766D01*
X105565Y-58750D01*
X103025Y-58750D01*
X103025Y-61800D01*
X105600Y-61800D01*
X105600Y-63330D01*
X105600Y-63330D01*
G37*
G54D31*
X105600Y-63330D02*
X105565Y-63330D01*
X105565Y-62486D01*
X105470Y-62256D01*
X105294Y-62080D01*
X105064Y-61985D01*
X104816Y-61984D01*
X104586Y-62079D01*
X104410Y-62255D01*
X104315Y-62485D01*
X104314Y-62733D01*
X104409Y-62963D01*
X104585Y-63139D01*
X104815Y-63234D01*
X105063Y-63235D01*
X105293Y-63140D01*
X105469Y-62964D01*
X105564Y-62734D01*
X105565Y-62486D01*
X105565Y-63330D01*
X102840Y-63330D01*
X102840Y-60958D01*
X102713Y-60649D01*
X102700Y-60636D01*
X102700Y-58276D01*
X102586Y-58000D01*
X102375Y-57789D01*
X102099Y-57675D01*
X101801Y-57674D01*
X101525Y-57788D01*
X101314Y-57999D01*
X101200Y-58275D01*
X101199Y-58573D01*
X101313Y-58849D01*
X101524Y-59060D01*
X101800Y-59174D01*
X102098Y-59175D01*
X102374Y-59061D01*
X102585Y-58850D01*
X102699Y-58574D01*
X102700Y-58276D01*
X102700Y-60636D01*
X102476Y-60412D01*
X102167Y-60284D01*
X101833Y-60284D01*
X101524Y-60412D01*
X101479Y-60456D01*
X101504Y-60395D01*
X101505Y-60204D01*
X101432Y-60028D01*
X101366Y-59962D01*
X101406Y-59922D01*
X101479Y-59745D01*
X101480Y-59554D01*
X101407Y-59378D01*
X101272Y-59243D01*
X101095Y-59170D01*
X100904Y-59169D01*
X100728Y-59242D01*
X100593Y-59377D01*
X100520Y-59554D01*
X100519Y-59745D01*
X100592Y-59921D01*
X100658Y-59987D01*
X100618Y-60027D01*
X100545Y-60204D01*
X100544Y-60395D01*
X100617Y-60571D01*
X100752Y-60706D01*
X100929Y-60779D01*
X101120Y-60780D01*
X101256Y-60723D01*
X101159Y-60957D01*
X101159Y-61291D01*
X101287Y-61600D01*
X101523Y-61837D01*
X101832Y-61965D01*
X102166Y-61965D01*
X102475Y-61838D01*
X102712Y-61601D01*
X102840Y-61292D01*
X102840Y-60958D01*
X102840Y-63330D01*
X99830Y-63330D01*
X99830Y-61254D01*
X99757Y-61078D01*
X99622Y-60943D01*
X99445Y-60870D01*
X99348Y-60869D01*
X99449Y-60624D01*
X99450Y-60326D01*
X99336Y-60050D01*
X99125Y-59839D01*
X98849Y-59725D01*
X98551Y-59724D01*
X98275Y-59838D01*
X98064Y-60049D01*
X97950Y-60325D01*
X97949Y-60623D01*
X98063Y-60899D01*
X98274Y-61110D01*
X98550Y-61224D01*
X98848Y-61225D01*
X98889Y-61208D01*
X98870Y-61254D01*
X98869Y-61445D01*
X98942Y-61621D01*
X99077Y-61756D01*
X99254Y-61829D01*
X99445Y-61830D01*
X99621Y-61757D01*
X99756Y-61622D01*
X99829Y-61445D01*
X99830Y-61254D01*
X99830Y-63330D01*
X99515Y-63330D01*
X99529Y-63295D01*
X99530Y-63104D01*
X99457Y-62928D01*
X99322Y-62793D01*
X99145Y-62720D01*
X98954Y-62719D01*
X98778Y-62792D01*
X98643Y-62927D01*
X98570Y-63104D01*
X98569Y-63295D01*
X98584Y-63330D01*
X94330Y-63330D01*
X94330Y-62404D01*
X94257Y-62228D01*
X94122Y-62093D01*
X93945Y-62020D01*
X93910Y-62020D01*
X93910Y-61373D01*
X93851Y-61232D01*
X93743Y-61123D01*
X93601Y-61065D01*
X93448Y-61064D01*
X93307Y-61123D01*
X93198Y-61231D01*
X93140Y-61373D01*
X93139Y-61526D01*
X93198Y-61667D01*
X93306Y-61776D01*
X93448Y-61834D01*
X93601Y-61835D01*
X93742Y-61776D01*
X93851Y-61668D01*
X93909Y-61526D01*
X93910Y-61373D01*
X93910Y-62020D01*
X93754Y-62019D01*
X93578Y-62092D01*
X93443Y-62227D01*
X93370Y-62404D01*
X93369Y-62595D01*
X93442Y-62771D01*
X93577Y-62906D01*
X93754Y-62979D01*
X93945Y-62980D01*
X94121Y-62907D01*
X94256Y-62772D01*
X94329Y-62595D01*
X94330Y-62404D01*
X94330Y-63330D01*
X86575Y-63330D01*
X86575Y-60326D01*
X86442Y-60005D01*
X86196Y-59758D01*
X85874Y-59625D01*
X85526Y-59624D01*
X85205Y-59757D01*
X84958Y-60003D01*
X84825Y-60325D01*
X84824Y-60673D01*
X84957Y-60995D01*
X85203Y-61241D01*
X85525Y-61374D01*
X85873Y-61375D01*
X86195Y-61242D01*
X86441Y-60996D01*
X86574Y-60674D01*
X86575Y-60326D01*
X86575Y-63330D01*
X85250Y-63330D01*
X85250Y-62714D01*
X85250Y-62285D01*
X85208Y-62074D01*
X85088Y-61896D01*
X84910Y-61777D01*
X84700Y-61735D01*
X84489Y-61777D01*
X84311Y-61896D01*
X84200Y-62062D01*
X84088Y-61896D01*
X83910Y-61777D01*
X83700Y-61735D01*
X83489Y-61777D01*
X83311Y-61896D01*
X83200Y-62062D01*
X83088Y-61896D01*
X82910Y-61777D01*
X82700Y-61735D01*
X82489Y-61777D01*
X82311Y-61896D01*
X82200Y-62062D01*
X82088Y-61896D01*
X81910Y-61777D01*
X81700Y-61735D01*
X81489Y-61777D01*
X81311Y-61896D01*
X81200Y-62062D01*
X81088Y-61896D01*
X80910Y-61777D01*
X80700Y-61735D01*
X80489Y-61777D01*
X80311Y-61896D01*
X80200Y-62062D01*
X80088Y-61896D01*
X79910Y-61777D01*
X79700Y-61735D01*
X79489Y-61777D01*
X79311Y-61896D01*
X79191Y-62074D01*
X79150Y-62285D01*
X79150Y-62714D01*
X79191Y-62925D01*
X79311Y-63103D01*
X79489Y-63222D01*
X79700Y-63264D01*
X79910Y-63222D01*
X80088Y-63103D01*
X80200Y-62937D01*
X80311Y-63103D01*
X80489Y-63222D01*
X80700Y-63264D01*
X80910Y-63222D01*
X81088Y-63103D01*
X81200Y-62937D01*
X81311Y-63103D01*
X81489Y-63222D01*
X81700Y-63264D01*
X81910Y-63222D01*
X82088Y-63103D01*
X82200Y-62937D01*
X82311Y-63103D01*
X82489Y-63222D01*
X82700Y-63264D01*
X82910Y-63222D01*
X83088Y-63103D01*
X83200Y-62937D01*
X83311Y-63103D01*
X83489Y-63222D01*
X83700Y-63264D01*
X83910Y-63222D01*
X84088Y-63103D01*
X84200Y-62937D01*
X84311Y-63103D01*
X84489Y-63222D01*
X84700Y-63264D01*
X84910Y-63222D01*
X85088Y-63103D01*
X85208Y-62925D01*
X85250Y-62714D01*
X85250Y-63330D01*
X78250Y-63330D01*
X78250Y-62714D01*
X78250Y-62285D01*
X78208Y-62074D01*
X78180Y-62032D01*
X78180Y-59229D01*
X78107Y-59053D01*
X77972Y-58918D01*
X77795Y-58845D01*
X77604Y-58844D01*
X77428Y-58917D01*
X77293Y-59052D01*
X77220Y-59229D01*
X77219Y-59420D01*
X77292Y-59596D01*
X77427Y-59731D01*
X77604Y-59804D01*
X77795Y-59805D01*
X77971Y-59732D01*
X78106Y-59597D01*
X78179Y-59420D01*
X78180Y-59229D01*
X78180Y-62032D01*
X78088Y-61896D01*
X77910Y-61777D01*
X77700Y-61735D01*
X77489Y-61777D01*
X77311Y-61896D01*
X77200Y-62062D01*
X77088Y-61896D01*
X76910Y-61777D01*
X76700Y-61735D01*
X76489Y-61777D01*
X76311Y-61896D01*
X76200Y-62062D01*
X76088Y-61896D01*
X75910Y-61777D01*
X75700Y-61735D01*
X75489Y-61777D01*
X75311Y-61896D01*
X75200Y-62062D01*
X75088Y-61896D01*
X74910Y-61777D01*
X74700Y-61735D01*
X74489Y-61777D01*
X74311Y-61896D01*
X74200Y-62062D01*
X74088Y-61896D01*
X73910Y-61777D01*
X73700Y-61735D01*
X73489Y-61777D01*
X73311Y-61896D01*
X73200Y-62062D01*
X73088Y-61896D01*
X72910Y-61777D01*
X72700Y-61735D01*
X72489Y-61777D01*
X72311Y-61896D01*
X72200Y-62062D01*
X72088Y-61896D01*
X71910Y-61777D01*
X71700Y-61735D01*
X71489Y-61777D01*
X71311Y-61896D01*
X71200Y-62062D01*
X71088Y-61896D01*
X70910Y-61777D01*
X70700Y-61735D01*
X70489Y-61777D01*
X70311Y-61896D01*
X70191Y-62074D01*
X70150Y-62285D01*
X70150Y-62714D01*
X70191Y-62925D01*
X70311Y-63103D01*
X70489Y-63222D01*
X70700Y-63264D01*
X70910Y-63222D01*
X71088Y-63103D01*
X71200Y-62937D01*
X71311Y-63103D01*
X71489Y-63222D01*
X71700Y-63264D01*
X71910Y-63222D01*
X72088Y-63103D01*
X72200Y-62937D01*
X72311Y-63103D01*
X72489Y-63222D01*
X72700Y-63264D01*
X72910Y-63222D01*
X73088Y-63103D01*
X73200Y-62937D01*
X73311Y-63103D01*
X73489Y-63222D01*
X73700Y-63264D01*
X73910Y-63222D01*
X74088Y-63103D01*
X74200Y-62937D01*
X74311Y-63103D01*
X74489Y-63222D01*
X74700Y-63264D01*
X74910Y-63222D01*
X75088Y-63103D01*
X75200Y-62937D01*
X75311Y-63103D01*
X75489Y-63222D01*
X75700Y-63264D01*
X75910Y-63222D01*
X76088Y-63103D01*
X76200Y-62937D01*
X76311Y-63103D01*
X76489Y-63222D01*
X76700Y-63264D01*
X76910Y-63222D01*
X77088Y-63103D01*
X77200Y-62937D01*
X77311Y-63103D01*
X77489Y-63222D01*
X77700Y-63264D01*
X77910Y-63222D01*
X78088Y-63103D01*
X78208Y-62925D01*
X78250Y-62714D01*
X78250Y-63330D01*
X65481Y-63330D01*
X65695Y-63242D01*
X65941Y-62996D01*
X66074Y-62674D01*
X66075Y-62326D01*
X65942Y-62005D01*
X65696Y-61758D01*
X65374Y-61625D01*
X65026Y-61624D01*
X64705Y-61757D01*
X64458Y-62003D01*
X64325Y-62325D01*
X64324Y-62673D01*
X64457Y-62995D01*
X64703Y-63241D01*
X64917Y-63330D01*
X62100Y-63330D01*
X62100Y-57553D01*
X63825Y-57554D01*
X62100Y-57452D01*
X62100Y-56125D01*
X62521Y-56125D01*
X62558Y-56161D01*
X62650Y-56199D01*
X62749Y-56200D01*
X63749Y-56200D01*
X63841Y-56162D01*
X63878Y-56125D01*
X64060Y-56125D01*
X64060Y-56925D01*
X64097Y-57112D01*
X64125Y-57153D01*
X64125Y-57554D01*
X64433Y-57554D01*
X64478Y-57621D01*
X64528Y-57671D01*
X64687Y-57777D01*
X64687Y-57777D01*
X64875Y-57815D01*
X73925Y-57815D01*
X73975Y-57805D01*
X74020Y-57805D01*
X74062Y-57787D01*
X74112Y-57777D01*
X74154Y-57749D01*
X74196Y-57732D01*
X74228Y-57700D01*
X74271Y-57671D01*
X74299Y-57629D01*
X74303Y-57625D01*
X75725Y-57625D01*
X75725Y-57624D01*
X75839Y-57602D01*
X75839Y-57602D01*
X75891Y-57567D01*
X103150Y-57597D01*
X103150Y-56600D01*
X105600Y-56600D01*
X105600Y-57550D01*
X105600Y-58750D01*
X105565Y-58750D01*
X105565Y-57766D01*
X105470Y-57536D01*
X105294Y-57360D01*
X105064Y-57265D01*
X104816Y-57264D01*
X104586Y-57359D01*
X104410Y-57535D01*
X104315Y-57765D01*
X104314Y-58013D01*
X104409Y-58243D01*
X104585Y-58419D01*
X104815Y-58514D01*
X105063Y-58515D01*
X105293Y-58420D01*
X105469Y-58244D01*
X105564Y-58014D01*
X105565Y-57766D01*
X105565Y-58750D01*
X103025Y-58750D01*
X103025Y-61800D01*
X105600Y-61800D01*
X105600Y-63330D01*
M02*
