G04 (created by PCBNEW (2013-07-07 BZR 4022)-stable) date 17/03/2014 17:56:54*
%MOIN*%
G04 Gerber Fmt 3.4, Leading zero omitted, Abs format*
%FSLAX34Y34*%
G01*
G70*
G90*
G04 APERTURE LIST*
%ADD10C,0.006*%
%ADD11R,0.036X0.036*%
%ADD12R,0.035X0.055*%
%ADD13R,0.012X0.02*%
%ADD14R,0.06X0.08*%
%ADD15R,0.055X0.035*%
%ADD16R,0.06X0.06*%
%ADD17C,0.06*%
%ADD18R,0.0787402X0.0787402*%
%ADD19C,0.0787402*%
%ADD20C,0.11811*%
%ADD21R,0.11811X0.11811*%
%ADD22R,0.15X0.055*%
%ADD23R,0.055X0.15*%
%ADD24R,0.11X0.07*%
%ADD25C,0.0590551*%
%ADD26C,0.0551181*%
%ADD27O,0.0866142X0.110236*%
%ADD28C,0.0629921*%
%ADD29C,0.075*%
%ADD30C,0.07*%
%ADD31R,0.07X0.07*%
%ADD32O,0.06X0.1*%
%ADD33C,0.125*%
%ADD34C,0.0984252*%
%ADD35C,0.16*%
%ADD36R,0.1X0.2*%
%ADD37R,0.1X0.05*%
%ADD38R,0.05X0.1*%
G04 APERTURE END LIST*
G54D10*
G54D11*
X102700Y-62150D03*
X102700Y-62850D03*
X103500Y-62500D03*
G54D12*
X100275Y-62700D03*
X101025Y-62700D03*
X92025Y-62450D03*
X92775Y-62450D03*
X100925Y-58500D03*
X100175Y-58500D03*
G54D13*
X109975Y-48750D03*
X109475Y-48750D03*
X109975Y-47950D03*
X109725Y-48750D03*
X109475Y-47950D03*
G54D14*
X98150Y-47200D03*
X96850Y-47200D03*
X94150Y-47200D03*
X95450Y-47200D03*
X100450Y-50175D03*
X101750Y-50175D03*
X96850Y-48300D03*
X98150Y-48300D03*
G54D15*
X89525Y-55000D03*
X89525Y-55750D03*
G54D12*
X94050Y-48275D03*
X93300Y-48275D03*
X91250Y-48275D03*
X90500Y-48275D03*
G54D15*
X103450Y-48325D03*
X103450Y-47575D03*
X101200Y-45975D03*
X101200Y-46725D03*
G54D12*
X109350Y-47100D03*
X110100Y-47100D03*
X104875Y-49100D03*
X104125Y-49100D03*
X104875Y-48200D03*
X104125Y-48200D03*
X103275Y-50250D03*
X102525Y-50250D03*
X104875Y-47200D03*
X104125Y-47200D03*
X96975Y-49900D03*
X97725Y-49900D03*
G54D16*
X105700Y-46700D03*
G54D17*
X106700Y-46700D03*
X105700Y-47700D03*
X106700Y-47700D03*
X105700Y-48700D03*
X106700Y-48700D03*
G54D12*
X93625Y-46100D03*
X92875Y-46100D03*
G54D18*
X112600Y-62000D03*
G54D19*
X112600Y-60031D03*
X112600Y-58062D03*
G54D18*
X112800Y-54750D03*
G54D19*
X112800Y-53372D03*
X112800Y-51994D03*
X112800Y-50616D03*
X112800Y-49238D03*
X112800Y-47860D03*
X112800Y-46482D03*
X112800Y-45104D03*
X112800Y-43726D03*
X112800Y-42348D03*
X112800Y-40970D03*
X112800Y-39592D03*
G54D20*
X50950Y-42400D03*
X50950Y-60588D03*
G54D21*
X53824Y-60588D03*
G54D20*
X53824Y-58935D03*
X53824Y-57281D03*
X53824Y-55628D03*
X53824Y-53974D03*
X53824Y-52321D03*
X53824Y-50667D03*
X53824Y-49014D03*
X53824Y-47360D03*
X53824Y-45707D03*
X53824Y-44053D03*
X53824Y-42400D03*
X55989Y-60588D03*
X55989Y-58935D03*
X55989Y-57281D03*
X55989Y-55628D03*
X55989Y-53974D03*
X55938Y-52321D03*
X55989Y-50667D03*
X55989Y-49014D03*
X55989Y-47360D03*
X55989Y-45707D03*
X55989Y-44053D03*
X55989Y-42400D03*
G54D12*
X78400Y-56525D03*
X77650Y-56525D03*
G54D11*
X99250Y-45675D03*
X98550Y-45675D03*
X98900Y-46475D03*
G54D22*
X110950Y-53750D03*
X110950Y-51950D03*
G54D15*
X102925Y-52775D03*
X102925Y-52025D03*
X90575Y-52275D03*
X90575Y-51525D03*
G54D22*
X58250Y-53050D03*
X58250Y-51250D03*
G54D23*
X57650Y-61100D03*
X59450Y-61100D03*
G54D22*
X61150Y-58100D03*
X61150Y-56300D03*
G54D23*
X53850Y-40325D03*
X55650Y-40325D03*
G54D24*
X60700Y-53250D03*
X60700Y-51850D03*
G54D25*
X66450Y-39425D03*
X63221Y-39425D03*
G54D26*
X65623Y-39425D03*
X64835Y-39425D03*
X64048Y-39425D03*
G54D15*
X108600Y-42625D03*
X108600Y-43375D03*
G54D12*
X105725Y-42400D03*
X104975Y-42400D03*
X107125Y-42400D03*
X106375Y-42400D03*
G54D15*
X95800Y-43500D03*
X95800Y-44250D03*
G54D12*
X101725Y-44800D03*
X100975Y-44800D03*
G54D15*
X89550Y-44275D03*
X89550Y-43525D03*
X96775Y-43500D03*
X96775Y-44250D03*
X99850Y-43275D03*
X99850Y-44025D03*
G54D12*
X104125Y-42400D03*
X103375Y-42400D03*
X68550Y-41150D03*
X67800Y-41150D03*
X66650Y-41150D03*
X65900Y-41150D03*
X65900Y-40300D03*
X66650Y-40300D03*
X67800Y-40300D03*
X68550Y-40300D03*
G54D15*
X88550Y-44275D03*
X88550Y-43525D03*
X104350Y-45025D03*
X104350Y-44275D03*
X94800Y-43500D03*
X94800Y-44250D03*
X90550Y-44275D03*
X90550Y-43525D03*
G54D27*
X80729Y-40616D03*
X76870Y-40616D03*
G54D28*
X78800Y-39750D03*
X79784Y-39750D03*
X77815Y-39750D03*
G54D27*
X74279Y-40616D03*
X70420Y-40616D03*
G54D28*
X72350Y-39750D03*
X73334Y-39750D03*
X71365Y-39750D03*
G54D11*
X90050Y-40600D03*
X90050Y-41300D03*
X90850Y-40950D03*
X106200Y-44650D03*
X105500Y-44650D03*
X105850Y-45450D03*
X103500Y-45400D03*
X103500Y-44700D03*
X102700Y-45050D03*
X94700Y-40550D03*
X94700Y-41250D03*
X95500Y-40900D03*
X97150Y-40500D03*
X96450Y-40500D03*
X96800Y-41300D03*
X100650Y-42900D03*
X100650Y-42200D03*
X99850Y-42550D03*
X88750Y-41300D03*
X88750Y-40600D03*
X87950Y-40950D03*
X107850Y-44650D03*
X107150Y-44650D03*
X107500Y-45450D03*
G54D12*
X112775Y-55900D03*
X112025Y-55900D03*
G54D15*
X93475Y-54900D03*
X93475Y-55650D03*
G54D29*
X104150Y-60250D03*
X104940Y-57890D03*
X109740Y-57890D03*
X109740Y-62610D03*
X104940Y-62610D03*
G54D30*
X94800Y-42250D03*
X95800Y-42250D03*
G54D31*
X96800Y-42250D03*
G54D30*
X103000Y-43800D03*
X102000Y-43800D03*
G54D31*
X101000Y-43800D03*
G54D30*
X107800Y-43800D03*
X106800Y-43800D03*
G54D31*
X105800Y-43800D03*
G54D30*
X88550Y-42250D03*
X89550Y-42250D03*
G54D31*
X90550Y-42250D03*
G54D20*
X51000Y-39600D03*
X50950Y-62700D03*
X110100Y-40000D03*
G54D32*
X84700Y-62500D03*
X84700Y-43500D03*
X83700Y-43500D03*
X82700Y-43500D03*
X81700Y-43500D03*
X80700Y-43500D03*
X79700Y-43500D03*
X78700Y-43500D03*
X77700Y-43500D03*
X76100Y-43500D03*
X75100Y-43500D03*
X74100Y-43500D03*
X73100Y-43500D03*
X72100Y-43500D03*
X71100Y-43500D03*
X70100Y-43500D03*
X69100Y-43500D03*
X83700Y-62500D03*
X82700Y-62500D03*
X81700Y-62500D03*
X80700Y-62500D03*
X79700Y-62500D03*
X77700Y-62500D03*
X76700Y-62500D03*
X75700Y-62500D03*
X74700Y-62500D03*
X73700Y-62500D03*
X72700Y-62500D03*
X71700Y-62500D03*
X70700Y-62500D03*
G54D33*
X85700Y-49500D03*
X85700Y-60500D03*
X65700Y-43500D03*
X65200Y-62500D03*
G54D34*
X89400Y-39500D03*
X95650Y-39550D03*
G54D35*
X63300Y-52700D03*
G54D16*
X63200Y-55150D03*
G54D17*
X63200Y-56150D03*
G54D36*
X63200Y-55650D03*
G54D10*
G36*
X65072Y-54046D02*
X65496Y-53622D01*
X65920Y-54046D01*
X65496Y-54470D01*
X65072Y-54046D01*
X65072Y-54046D01*
G37*
G54D17*
X66203Y-54753D03*
G54D10*
G36*
X64789Y-54046D02*
X65496Y-53339D01*
X66910Y-54753D01*
X66203Y-55460D01*
X64789Y-54046D01*
X64789Y-54046D01*
G37*
G54D16*
X63200Y-51050D03*
G54D17*
X63200Y-50050D03*
G54D36*
X63200Y-50550D03*
G54D10*
G36*
X65296Y-51977D02*
X64872Y-51553D01*
X65296Y-51129D01*
X65720Y-51553D01*
X65296Y-51977D01*
X65296Y-51977D01*
G37*
G54D17*
X66003Y-50846D03*
G54D10*
G36*
X65296Y-52260D02*
X64589Y-51553D01*
X66003Y-50139D01*
X66710Y-50846D01*
X65296Y-52260D01*
X65296Y-52260D01*
G37*
G54D12*
X92650Y-48275D03*
X91900Y-48275D03*
G54D10*
G36*
X80005Y-45730D02*
X79395Y-45730D01*
X79595Y-45020D01*
X79805Y-45020D01*
X80005Y-45730D01*
X80005Y-45730D01*
G37*
G36*
X79595Y-44980D02*
X79395Y-44270D01*
X80005Y-44270D01*
X79805Y-44980D01*
X79595Y-44980D01*
X79595Y-44980D01*
G37*
G36*
X75405Y-46030D02*
X74795Y-46030D01*
X74995Y-45320D01*
X75205Y-45320D01*
X75405Y-46030D01*
X75405Y-46030D01*
G37*
G36*
X74995Y-45280D02*
X74795Y-44570D01*
X75405Y-44570D01*
X75205Y-45280D01*
X74995Y-45280D01*
X74995Y-45280D01*
G37*
G36*
X72405Y-46580D02*
X71795Y-46580D01*
X71995Y-45870D01*
X72205Y-45870D01*
X72405Y-46580D01*
X72405Y-46580D01*
G37*
G36*
X71995Y-45830D02*
X71795Y-45120D01*
X72405Y-45120D01*
X72205Y-45830D01*
X71995Y-45830D01*
X71995Y-45830D01*
G37*
G36*
X73405Y-46030D02*
X72795Y-46030D01*
X72995Y-45320D01*
X73205Y-45320D01*
X73405Y-46030D01*
X73405Y-46030D01*
G37*
G36*
X72995Y-45280D02*
X72795Y-44570D01*
X73405Y-44570D01*
X73205Y-45280D01*
X72995Y-45280D01*
X72995Y-45280D01*
G37*
G36*
X79005Y-45905D02*
X78395Y-45905D01*
X78595Y-45195D01*
X78805Y-45195D01*
X79005Y-45905D01*
X79005Y-45905D01*
G37*
G36*
X78595Y-45155D02*
X78395Y-44445D01*
X79005Y-44445D01*
X78805Y-45155D01*
X78595Y-45155D01*
X78595Y-45155D01*
G37*
G36*
X76430Y-46630D02*
X75820Y-46630D01*
X76020Y-45920D01*
X76230Y-45920D01*
X76430Y-46630D01*
X76430Y-46630D01*
G37*
G36*
X76020Y-45880D02*
X75820Y-45170D01*
X76430Y-45170D01*
X76230Y-45880D01*
X76020Y-45880D01*
X76020Y-45880D01*
G37*
G54D15*
X110150Y-44825D03*
X110150Y-44075D03*
G54D37*
X111550Y-39275D03*
X111550Y-40475D03*
G54D38*
X111600Y-42850D03*
X110400Y-42850D03*
X111625Y-41550D03*
X110425Y-41550D03*
G54D37*
X111225Y-45075D03*
X111225Y-43875D03*
G54D12*
X91825Y-49600D03*
X92575Y-49600D03*
M02*
