G04 (created by PCBNEW (2013-07-07 BZR 4022)-stable) date 26/03/2014 18:27:59*
%MOIN*%
G04 Gerber Fmt 3.4, Leading zero omitted, Abs format*
%FSLAX34Y34*%
G01*
G70*
G90*
G04 APERTURE LIST*
%ADD10C,0.006*%
%ADD11C,0.0984252*%
%ADD12R,0.06X0.06*%
%ADD13C,0.06*%
%ADD14R,0.0787402X0.0787402*%
%ADD15C,0.0787402*%
%ADD16C,0.075*%
%ADD17C,0.16*%
%ADD18C,0.07*%
%ADD19R,0.07X0.07*%
%ADD20O,0.0866142X0.110236*%
%ADD21C,0.0629921*%
%ADD22C,0.0551181*%
%ADD23O,0.06X0.1*%
%ADD24R,0.11811X0.11811*%
%ADD25C,0.11811*%
%ADD26C,0.1*%
%ADD27C,0.046*%
%ADD28C,0.02*%
%ADD29C,0.035*%
%ADD30C,0.036*%
%ADD31C,0.048*%
%ADD32C,0.024*%
%ADD33C,0.01*%
G04 APERTURE END LIST*
G54D10*
G54D11*
X95650Y-39550D03*
G54D12*
X105700Y-46700D03*
G54D13*
X106700Y-46700D03*
X105700Y-47700D03*
X106700Y-47700D03*
X105700Y-48700D03*
X106700Y-48700D03*
G54D14*
X112600Y-62000D03*
G54D15*
X112600Y-60031D03*
X112600Y-58062D03*
G54D14*
X112800Y-54750D03*
G54D15*
X112800Y-53372D03*
X112800Y-51994D03*
X112800Y-50616D03*
X112800Y-49238D03*
X112800Y-47860D03*
X112800Y-46482D03*
X112800Y-45104D03*
X112800Y-43726D03*
X112800Y-42348D03*
X112800Y-40970D03*
X112800Y-39592D03*
G54D16*
X104150Y-60250D03*
X104940Y-57890D03*
X109740Y-57890D03*
X109740Y-62610D03*
X104940Y-62610D03*
G54D17*
X63300Y-52700D03*
G54D12*
X63200Y-55150D03*
G54D13*
X63200Y-56150D03*
G54D10*
G36*
X65072Y-54046D02*
X65496Y-53622D01*
X65920Y-54046D01*
X65496Y-54470D01*
X65072Y-54046D01*
X65072Y-54046D01*
G37*
G54D13*
X66203Y-54753D03*
G54D12*
X63200Y-51050D03*
G54D13*
X63200Y-50050D03*
G54D10*
G36*
X65296Y-51977D02*
X64872Y-51553D01*
X65296Y-51129D01*
X65720Y-51553D01*
X65296Y-51977D01*
X65296Y-51977D01*
G37*
G54D13*
X66003Y-50846D03*
G54D11*
X89400Y-39500D03*
G54D18*
X89525Y-42250D03*
X90525Y-42250D03*
G54D19*
X88525Y-42250D03*
G54D18*
X106800Y-43800D03*
X107800Y-43800D03*
G54D19*
X105800Y-43800D03*
G54D18*
X102000Y-43825D03*
X103000Y-43825D03*
G54D19*
X101000Y-43825D03*
G54D18*
X95800Y-42250D03*
X96800Y-42250D03*
G54D19*
X94800Y-42250D03*
G54D20*
X74279Y-40616D03*
X70420Y-40616D03*
G54D21*
X72350Y-39750D03*
X73334Y-39750D03*
X71365Y-39750D03*
G54D20*
X80729Y-40616D03*
X76870Y-40616D03*
G54D21*
X78800Y-39750D03*
X79784Y-39750D03*
X77815Y-39750D03*
G54D22*
X65623Y-39425D03*
X64835Y-39425D03*
X64048Y-39425D03*
G54D23*
X84700Y-62500D03*
X84700Y-43500D03*
X83700Y-43500D03*
X82700Y-43500D03*
X81700Y-43500D03*
X80700Y-43500D03*
X79700Y-43500D03*
X78700Y-43500D03*
X77700Y-43500D03*
X76100Y-43500D03*
X75100Y-43500D03*
X74100Y-43500D03*
X73100Y-43500D03*
X72100Y-43500D03*
X71100Y-43500D03*
X70100Y-43500D03*
X69100Y-43500D03*
X83700Y-62500D03*
X82700Y-62500D03*
X81700Y-62500D03*
X80700Y-62500D03*
X79700Y-62500D03*
X77700Y-62500D03*
X76700Y-62500D03*
X75700Y-62500D03*
X74700Y-62500D03*
X73700Y-62500D03*
X72700Y-62500D03*
X71700Y-62500D03*
X70700Y-62500D03*
G54D24*
X53824Y-60588D03*
G54D25*
X53824Y-58935D03*
X53824Y-57281D03*
X53824Y-55628D03*
X53824Y-53974D03*
X53824Y-52321D03*
X53824Y-50667D03*
X53824Y-49014D03*
X53824Y-47360D03*
X53824Y-45707D03*
X53824Y-44053D03*
X53824Y-42400D03*
X55989Y-60588D03*
X55989Y-58935D03*
X55989Y-57281D03*
X55989Y-55628D03*
X55989Y-53974D03*
X55938Y-52321D03*
X55989Y-50667D03*
X55989Y-49014D03*
X55989Y-47360D03*
X55989Y-45707D03*
X55989Y-44053D03*
X55989Y-42400D03*
G54D26*
X94450Y-49425D03*
X104300Y-41100D03*
X92525Y-42075D03*
X101950Y-58425D03*
X98700Y-60475D03*
X86900Y-46625D03*
X108050Y-48575D03*
X98475Y-44850D03*
G54D12*
X102300Y-41050D03*
G54D13*
X101300Y-41050D03*
X100300Y-41050D03*
G54D12*
X105725Y-41075D03*
G54D13*
X106725Y-41075D03*
X107725Y-41075D03*
G54D27*
X109250Y-43300D03*
X101825Y-52700D03*
X55600Y-61900D03*
X77700Y-59325D03*
X101000Y-59650D03*
X59450Y-59700D03*
X62300Y-43700D03*
G54D28*
X56825Y-39800D03*
G54D27*
X85350Y-41000D03*
X64300Y-43850D03*
X60800Y-55200D03*
G54D29*
X88500Y-54950D03*
G54D27*
X65300Y-55450D03*
G54D28*
X91950Y-47525D03*
X90000Y-51450D03*
X108700Y-47100D03*
G54D27*
X61150Y-50900D03*
X57350Y-41375D03*
X87125Y-41800D03*
X62350Y-41350D03*
G54D28*
X93500Y-50750D03*
X84725Y-46200D03*
X97825Y-45400D03*
X84700Y-53925D03*
X74150Y-48050D03*
X73275Y-48125D03*
X93525Y-61450D03*
X88600Y-52300D03*
X88375Y-50475D03*
X67225Y-39800D03*
X67300Y-40825D03*
X76125Y-47000D03*
X82000Y-46700D03*
X93150Y-51925D03*
X92750Y-50425D03*
X80075Y-46775D03*
X88075Y-51300D03*
X82700Y-46975D03*
X92800Y-52100D03*
G54D27*
X90225Y-55275D03*
X96725Y-56875D03*
G54D28*
X92575Y-54875D03*
X86625Y-39350D03*
G54D27*
X84575Y-40900D03*
G54D28*
X93300Y-46850D03*
X91400Y-47450D03*
X90700Y-47375D03*
X102150Y-47400D03*
X88350Y-47425D03*
X95200Y-48950D03*
X99950Y-45225D03*
G54D27*
X104375Y-44300D03*
X104775Y-43225D03*
X95125Y-50300D03*
G54D28*
X110750Y-47100D03*
X99300Y-45150D03*
X92475Y-51825D03*
X89700Y-48725D03*
G54D27*
X101775Y-52050D03*
X103450Y-48925D03*
X101200Y-47350D03*
X105675Y-45575D03*
X103500Y-46950D03*
X60050Y-44950D03*
G54D28*
X61150Y-39175D03*
X75975Y-56700D03*
G54D27*
X73925Y-57325D03*
X60550Y-47300D03*
X88700Y-55750D03*
X111475Y-55700D03*
X92775Y-55275D03*
G54D29*
X92525Y-39600D03*
G54D27*
X92550Y-43800D03*
G54D28*
X65175Y-40675D03*
G54D27*
X99450Y-58500D03*
G54D28*
X99450Y-47775D03*
X98875Y-47200D03*
X92400Y-47600D03*
X91000Y-49425D03*
X109125Y-49000D03*
X91325Y-49425D03*
X98250Y-49925D03*
X98850Y-48300D03*
X98400Y-46450D03*
X101600Y-47750D03*
X103600Y-46100D03*
X91950Y-45375D03*
X103750Y-46550D03*
X102200Y-48550D03*
G54D27*
X99050Y-63200D03*
X93850Y-62500D03*
X101025Y-60300D03*
X99350Y-61350D03*
G54D30*
X59875Y-54025D02*
X59425Y-54475D01*
X64025Y-54025D02*
X59875Y-54025D01*
X65350Y-52700D02*
X64025Y-54025D01*
X100550Y-52700D02*
X65350Y-52700D01*
X101825Y-52700D02*
X100550Y-52700D01*
X52792Y-45707D02*
X52400Y-46100D01*
X52400Y-46100D02*
X52400Y-61350D01*
X52400Y-61350D02*
X52950Y-61900D01*
X53824Y-45707D02*
X52792Y-45707D01*
X55400Y-61900D02*
X55600Y-61900D01*
X52950Y-61900D02*
X55400Y-61900D01*
X55600Y-61900D02*
X56850Y-61900D01*
X56850Y-61900D02*
X58400Y-60350D01*
X58400Y-60350D02*
X58400Y-55500D01*
X58400Y-55500D02*
X59425Y-54475D01*
X59425Y-54475D02*
X59850Y-54050D01*
X59850Y-54050D02*
X59850Y-54050D01*
G54D31*
X59450Y-59700D02*
X63450Y-59700D01*
G54D30*
X101300Y-41050D02*
X101300Y-40825D01*
X96875Y-42175D02*
X96800Y-42250D01*
X98050Y-42175D02*
X96875Y-42175D01*
X98575Y-41650D02*
X98050Y-42175D01*
X99925Y-40300D02*
X98575Y-41650D01*
X100775Y-40300D02*
X99925Y-40300D01*
X101300Y-40825D02*
X100775Y-40300D01*
X87850Y-43200D02*
X96500Y-43200D01*
X87000Y-42350D02*
X87850Y-43200D01*
X62300Y-43700D02*
X63650Y-42350D01*
X63650Y-42350D02*
X87000Y-42350D01*
X96500Y-43200D02*
X96800Y-42900D01*
X96800Y-42900D02*
X96800Y-42250D01*
X112800Y-42348D02*
X112301Y-41850D01*
X110375Y-41850D02*
X112301Y-41850D01*
X109100Y-40575D02*
X107650Y-39125D01*
X85350Y-41000D02*
X85775Y-40575D01*
X109100Y-40575D02*
X110375Y-41850D01*
X85825Y-40525D02*
X85775Y-40575D01*
X97525Y-40525D02*
X85825Y-40525D01*
X98925Y-39125D02*
X97525Y-40525D01*
X107650Y-39125D02*
X98925Y-39125D01*
X97000Y-44500D02*
X97500Y-44500D01*
X100450Y-44775D02*
X111825Y-44775D01*
X99525Y-43850D02*
X100450Y-44775D01*
X98150Y-43850D02*
X99525Y-43850D01*
X97500Y-44500D02*
X98150Y-43850D01*
X112154Y-45104D02*
X111825Y-44775D01*
X112800Y-45104D02*
X112154Y-45104D01*
X64825Y-44375D02*
X64300Y-43850D01*
X64950Y-44500D02*
X64825Y-44375D01*
X97025Y-44500D02*
X97000Y-44500D01*
X97000Y-44500D02*
X64950Y-44500D01*
G54D31*
X61150Y-50900D02*
X61150Y-49900D01*
X62500Y-48550D02*
X64275Y-48550D01*
X61150Y-49900D02*
X62500Y-48550D01*
G54D30*
X97600Y-41250D02*
X97800Y-41250D01*
X90175Y-41250D02*
X97600Y-41250D01*
X89525Y-41900D02*
X90175Y-41250D01*
X99300Y-39750D02*
X106225Y-39750D01*
X106225Y-39750D02*
X106725Y-40250D01*
X106725Y-40250D02*
X106725Y-41075D01*
X97800Y-41250D02*
X99300Y-39750D01*
X89525Y-42250D02*
X89525Y-41900D01*
X86575Y-41150D02*
X85975Y-41750D01*
X88775Y-41150D02*
X86575Y-41150D01*
X89525Y-41900D02*
X88775Y-41150D01*
X62350Y-41350D02*
X62750Y-41750D01*
X62750Y-41750D02*
X85975Y-41750D01*
G54D32*
X104300Y-46950D02*
X103500Y-46950D01*
X105675Y-45575D02*
X104300Y-46950D01*
X105725Y-41075D02*
X105725Y-41225D01*
X106800Y-42300D02*
X106800Y-43800D01*
X105725Y-41225D02*
X106800Y-42300D01*
G54D10*
G36*
X114030Y-52450D02*
X113254Y-52450D01*
X113345Y-52359D01*
X113443Y-52122D01*
X113443Y-51866D01*
X113443Y-50488D01*
X113443Y-49110D01*
X113443Y-47732D01*
X113346Y-47496D01*
X113165Y-47314D01*
X112928Y-47216D01*
X112672Y-47216D01*
X112435Y-47314D01*
X112254Y-47495D01*
X112156Y-47731D01*
X112156Y-47987D01*
X112253Y-48224D01*
X112434Y-48405D01*
X112671Y-48503D01*
X112927Y-48504D01*
X113164Y-48406D01*
X113345Y-48225D01*
X113443Y-47988D01*
X113443Y-47732D01*
X113443Y-49110D01*
X113346Y-48874D01*
X113165Y-48692D01*
X112928Y-48594D01*
X112672Y-48594D01*
X112435Y-48692D01*
X112254Y-48873D01*
X112156Y-49109D01*
X112156Y-49365D01*
X112253Y-49602D01*
X112434Y-49783D01*
X112671Y-49881D01*
X112927Y-49882D01*
X113164Y-49784D01*
X113345Y-49603D01*
X113443Y-49366D01*
X113443Y-49110D01*
X113443Y-50488D01*
X113346Y-50251D01*
X113165Y-50070D01*
X112928Y-49972D01*
X112672Y-49972D01*
X112435Y-50070D01*
X112254Y-50251D01*
X112156Y-50487D01*
X112156Y-50743D01*
X112253Y-50980D01*
X112434Y-51161D01*
X112671Y-51259D01*
X112927Y-51259D01*
X113164Y-51162D01*
X113345Y-50981D01*
X113443Y-50744D01*
X113443Y-50488D01*
X113443Y-51866D01*
X113346Y-51629D01*
X113165Y-51448D01*
X112928Y-51350D01*
X112672Y-51350D01*
X112435Y-51448D01*
X112254Y-51628D01*
X112156Y-51865D01*
X112156Y-52121D01*
X112253Y-52358D01*
X112345Y-52450D01*
X111425Y-52450D01*
X111425Y-52800D01*
X111100Y-52800D01*
X111100Y-47030D01*
X111046Y-46902D01*
X110948Y-46803D01*
X110819Y-46750D01*
X110680Y-46749D01*
X110552Y-46803D01*
X110453Y-46901D01*
X110400Y-47030D01*
X110399Y-47169D01*
X110453Y-47298D01*
X110551Y-47396D01*
X110680Y-47449D01*
X110819Y-47450D01*
X110948Y-47396D01*
X111046Y-47298D01*
X111099Y-47169D01*
X111100Y-47030D01*
X111100Y-52800D01*
X109475Y-52800D01*
X109475Y-48930D01*
X109421Y-48802D01*
X109323Y-48703D01*
X109194Y-48650D01*
X109055Y-48649D01*
X108927Y-48703D01*
X108828Y-48801D01*
X108800Y-48869D01*
X108800Y-48426D01*
X108686Y-48150D01*
X108475Y-47939D01*
X108199Y-47825D01*
X107901Y-47824D01*
X107625Y-47938D01*
X107414Y-48149D01*
X107300Y-48425D01*
X107299Y-48723D01*
X107413Y-48999D01*
X107624Y-49210D01*
X107900Y-49324D01*
X108198Y-49325D01*
X108474Y-49211D01*
X108685Y-49000D01*
X108799Y-48724D01*
X108800Y-48426D01*
X108800Y-48869D01*
X108775Y-48930D01*
X108774Y-49069D01*
X108828Y-49198D01*
X108926Y-49296D01*
X109055Y-49349D01*
X109194Y-49350D01*
X109323Y-49296D01*
X109421Y-49198D01*
X109474Y-49069D01*
X109475Y-48930D01*
X109475Y-52800D01*
X103930Y-52800D01*
X103930Y-48829D01*
X103857Y-48653D01*
X103722Y-48518D01*
X103545Y-48445D01*
X103354Y-48444D01*
X103178Y-48517D01*
X103043Y-48652D01*
X102970Y-48829D01*
X102969Y-49020D01*
X103042Y-49196D01*
X103177Y-49331D01*
X103354Y-49404D01*
X103545Y-49405D01*
X103721Y-49332D01*
X103856Y-49197D01*
X103929Y-49020D01*
X103930Y-48829D01*
X103930Y-52800D01*
X102550Y-52800D01*
X102550Y-48480D01*
X102500Y-48359D01*
X102500Y-47330D01*
X102446Y-47202D01*
X102348Y-47103D01*
X102219Y-47050D01*
X102080Y-47049D01*
X101952Y-47103D01*
X101853Y-47201D01*
X101800Y-47330D01*
X101799Y-47454D01*
X101798Y-47453D01*
X101679Y-47404D01*
X101680Y-47254D01*
X101607Y-47078D01*
X101472Y-46943D01*
X101295Y-46870D01*
X101104Y-46869D01*
X100928Y-46942D01*
X100793Y-47077D01*
X100720Y-47254D01*
X100719Y-47445D01*
X100792Y-47621D01*
X100927Y-47756D01*
X101104Y-47829D01*
X101254Y-47830D01*
X101303Y-47948D01*
X101401Y-48046D01*
X101530Y-48099D01*
X101669Y-48100D01*
X101798Y-48046D01*
X101896Y-47948D01*
X101949Y-47819D01*
X101950Y-47695D01*
X101951Y-47696D01*
X102080Y-47749D01*
X102219Y-47750D01*
X102348Y-47696D01*
X102446Y-47598D01*
X102499Y-47469D01*
X102500Y-47330D01*
X102500Y-48359D01*
X102496Y-48352D01*
X102398Y-48253D01*
X102269Y-48200D01*
X102130Y-48199D01*
X102002Y-48253D01*
X101903Y-48351D01*
X101850Y-48480D01*
X101849Y-48619D01*
X101903Y-48748D01*
X102001Y-48846D01*
X102130Y-48899D01*
X102269Y-48900D01*
X102398Y-48846D01*
X102496Y-48748D01*
X102549Y-48619D01*
X102550Y-48480D01*
X102550Y-52800D01*
X102303Y-52800D01*
X102304Y-52795D01*
X102305Y-52604D01*
X102232Y-52428D01*
X102153Y-52350D01*
X102181Y-52322D01*
X102254Y-52145D01*
X102255Y-51954D01*
X102182Y-51778D01*
X102047Y-51643D01*
X101870Y-51570D01*
X101679Y-51569D01*
X101503Y-51642D01*
X101368Y-51777D01*
X101295Y-51954D01*
X101294Y-52145D01*
X101346Y-52270D01*
X100550Y-52270D01*
X99800Y-52270D01*
X99800Y-47705D01*
X99746Y-47577D01*
X99648Y-47478D01*
X99519Y-47425D01*
X99380Y-47424D01*
X99252Y-47478D01*
X99225Y-47505D01*
X99225Y-47130D01*
X99171Y-47002D01*
X99073Y-46903D01*
X98944Y-46850D01*
X98805Y-46849D01*
X98677Y-46903D01*
X98578Y-47001D01*
X98525Y-47130D01*
X98524Y-47269D01*
X98578Y-47398D01*
X98676Y-47496D01*
X98805Y-47549D01*
X98944Y-47550D01*
X99073Y-47496D01*
X99171Y-47398D01*
X99224Y-47269D01*
X99225Y-47130D01*
X99225Y-47505D01*
X99153Y-47576D01*
X99100Y-47705D01*
X99099Y-47844D01*
X99153Y-47973D01*
X99251Y-48071D01*
X99380Y-48124D01*
X99519Y-48125D01*
X99648Y-48071D01*
X99746Y-47973D01*
X99799Y-47844D01*
X99800Y-47705D01*
X99800Y-52270D01*
X99200Y-52270D01*
X99200Y-48230D01*
X99146Y-48102D01*
X99048Y-48003D01*
X98919Y-47950D01*
X98780Y-47949D01*
X98652Y-48003D01*
X98553Y-48101D01*
X98500Y-48230D01*
X98499Y-48369D01*
X98553Y-48498D01*
X98651Y-48596D01*
X98780Y-48649D01*
X98919Y-48650D01*
X99048Y-48596D01*
X99146Y-48498D01*
X99199Y-48369D01*
X99200Y-48230D01*
X99200Y-52270D01*
X98600Y-52270D01*
X98600Y-49855D01*
X98546Y-49727D01*
X98448Y-49628D01*
X98319Y-49575D01*
X98180Y-49574D01*
X98052Y-49628D01*
X97953Y-49726D01*
X97900Y-49855D01*
X97899Y-49994D01*
X97953Y-50123D01*
X98051Y-50221D01*
X98180Y-50274D01*
X98319Y-50275D01*
X98448Y-50221D01*
X98546Y-50123D01*
X98599Y-49994D01*
X98600Y-49855D01*
X98600Y-52270D01*
X95605Y-52270D01*
X95605Y-50204D01*
X95532Y-50028D01*
X95397Y-49893D01*
X95220Y-49820D01*
X95098Y-49819D01*
X95199Y-49574D01*
X95200Y-49300D01*
X95269Y-49300D01*
X95398Y-49246D01*
X95496Y-49148D01*
X95549Y-49019D01*
X95550Y-48880D01*
X95496Y-48752D01*
X95398Y-48653D01*
X95269Y-48600D01*
X95130Y-48599D01*
X95002Y-48653D01*
X94903Y-48751D01*
X94884Y-48798D01*
X94875Y-48789D01*
X94599Y-48675D01*
X94301Y-48674D01*
X94025Y-48788D01*
X93814Y-48999D01*
X93700Y-49275D01*
X93699Y-49573D01*
X93813Y-49849D01*
X94024Y-50060D01*
X94300Y-50174D01*
X94598Y-50175D01*
X94669Y-50145D01*
X94645Y-50204D01*
X94644Y-50395D01*
X94717Y-50571D01*
X94852Y-50706D01*
X95029Y-50779D01*
X95220Y-50780D01*
X95396Y-50707D01*
X95531Y-50572D01*
X95604Y-50395D01*
X95605Y-50204D01*
X95605Y-52270D01*
X93850Y-52270D01*
X93850Y-50680D01*
X93796Y-50552D01*
X93698Y-50453D01*
X93650Y-50433D01*
X93650Y-46780D01*
X93596Y-46652D01*
X93498Y-46553D01*
X93369Y-46500D01*
X93230Y-46499D01*
X93102Y-46553D01*
X93003Y-46651D01*
X92950Y-46780D01*
X92949Y-46919D01*
X93003Y-47048D01*
X93101Y-47146D01*
X93230Y-47199D01*
X93369Y-47200D01*
X93498Y-47146D01*
X93596Y-47048D01*
X93649Y-46919D01*
X93650Y-46780D01*
X93650Y-50433D01*
X93569Y-50400D01*
X93430Y-50399D01*
X93302Y-50453D01*
X93203Y-50551D01*
X93150Y-50680D01*
X93149Y-50819D01*
X93203Y-50948D01*
X93301Y-51046D01*
X93430Y-51099D01*
X93569Y-51100D01*
X93698Y-51046D01*
X93796Y-50948D01*
X93849Y-50819D01*
X93850Y-50680D01*
X93850Y-52270D01*
X93231Y-52270D01*
X93348Y-52221D01*
X93446Y-52123D01*
X93499Y-51994D01*
X93500Y-51855D01*
X93446Y-51727D01*
X93348Y-51628D01*
X93219Y-51575D01*
X93100Y-51574D01*
X93100Y-50355D01*
X93046Y-50227D01*
X92948Y-50128D01*
X92819Y-50075D01*
X92750Y-50074D01*
X92750Y-47530D01*
X92696Y-47402D01*
X92598Y-47303D01*
X92469Y-47250D01*
X92330Y-47249D01*
X92202Y-47303D01*
X92103Y-47401D01*
X92050Y-47530D01*
X92049Y-47669D01*
X92103Y-47798D01*
X92201Y-47896D01*
X92330Y-47949D01*
X92469Y-47950D01*
X92598Y-47896D01*
X92696Y-47798D01*
X92749Y-47669D01*
X92750Y-47530D01*
X92750Y-50074D01*
X92680Y-50074D01*
X92552Y-50128D01*
X92453Y-50226D01*
X92400Y-50355D01*
X92399Y-50494D01*
X92453Y-50623D01*
X92551Y-50721D01*
X92680Y-50774D01*
X92819Y-50775D01*
X92948Y-50721D01*
X93046Y-50623D01*
X93099Y-50494D01*
X93100Y-50355D01*
X93100Y-51574D01*
X93080Y-51574D01*
X92952Y-51628D01*
X92853Y-51726D01*
X92843Y-51750D01*
X92822Y-51750D01*
X92771Y-51627D01*
X92673Y-51528D01*
X92544Y-51475D01*
X92405Y-51474D01*
X92277Y-51528D01*
X92178Y-51626D01*
X92125Y-51755D01*
X92124Y-51894D01*
X92178Y-52023D01*
X92276Y-52121D01*
X92405Y-52174D01*
X92452Y-52174D01*
X92491Y-52270D01*
X91750Y-52270D01*
X91750Y-47380D01*
X91696Y-47252D01*
X91598Y-47153D01*
X91469Y-47100D01*
X91330Y-47099D01*
X91202Y-47153D01*
X91103Y-47251D01*
X91050Y-47380D01*
X91050Y-47305D01*
X90996Y-47177D01*
X90898Y-47078D01*
X90769Y-47025D01*
X90630Y-47024D01*
X90502Y-47078D01*
X90403Y-47176D01*
X90350Y-47305D01*
X90349Y-47444D01*
X90403Y-47573D01*
X90501Y-47671D01*
X90630Y-47724D01*
X90769Y-47725D01*
X90898Y-47671D01*
X90996Y-47573D01*
X91049Y-47444D01*
X91050Y-47305D01*
X91050Y-47380D01*
X91049Y-47519D01*
X91103Y-47648D01*
X91201Y-47746D01*
X91330Y-47799D01*
X91469Y-47800D01*
X91598Y-47746D01*
X91696Y-47648D01*
X91749Y-47519D01*
X91750Y-47380D01*
X91750Y-52270D01*
X91675Y-52270D01*
X91675Y-49355D01*
X91621Y-49227D01*
X91523Y-49128D01*
X91394Y-49075D01*
X91255Y-49074D01*
X91162Y-49113D01*
X91069Y-49075D01*
X90930Y-49074D01*
X90802Y-49128D01*
X90703Y-49226D01*
X90650Y-49355D01*
X90649Y-49494D01*
X90703Y-49623D01*
X90801Y-49721D01*
X90930Y-49774D01*
X91069Y-49775D01*
X91162Y-49736D01*
X91255Y-49774D01*
X91394Y-49775D01*
X91523Y-49721D01*
X91621Y-49623D01*
X91674Y-49494D01*
X91675Y-49355D01*
X91675Y-52270D01*
X90050Y-52270D01*
X90050Y-48655D01*
X89996Y-48527D01*
X89898Y-48428D01*
X89769Y-48375D01*
X89630Y-48374D01*
X89502Y-48428D01*
X89403Y-48526D01*
X89350Y-48655D01*
X89349Y-48794D01*
X89403Y-48923D01*
X89501Y-49021D01*
X89630Y-49074D01*
X89769Y-49075D01*
X89898Y-49021D01*
X89996Y-48923D01*
X90049Y-48794D01*
X90050Y-48655D01*
X90050Y-52270D01*
X88950Y-52270D01*
X88950Y-52230D01*
X88896Y-52102D01*
X88798Y-52003D01*
X88725Y-51972D01*
X88725Y-50405D01*
X88700Y-50345D01*
X88700Y-47355D01*
X88646Y-47227D01*
X88548Y-47128D01*
X88419Y-47075D01*
X88280Y-47074D01*
X88152Y-47128D01*
X88053Y-47226D01*
X88000Y-47355D01*
X87999Y-47494D01*
X88053Y-47623D01*
X88151Y-47721D01*
X88280Y-47774D01*
X88419Y-47775D01*
X88548Y-47721D01*
X88646Y-47623D01*
X88699Y-47494D01*
X88700Y-47355D01*
X88700Y-50345D01*
X88671Y-50277D01*
X88573Y-50178D01*
X88444Y-50125D01*
X88305Y-50124D01*
X88177Y-50178D01*
X88078Y-50276D01*
X88025Y-50405D01*
X88024Y-50544D01*
X88078Y-50673D01*
X88176Y-50771D01*
X88305Y-50824D01*
X88444Y-50825D01*
X88573Y-50771D01*
X88671Y-50673D01*
X88724Y-50544D01*
X88725Y-50405D01*
X88725Y-51972D01*
X88669Y-51950D01*
X88530Y-51949D01*
X88425Y-51993D01*
X88425Y-51230D01*
X88371Y-51102D01*
X88273Y-51003D01*
X88144Y-50950D01*
X88005Y-50949D01*
X87877Y-51003D01*
X87778Y-51101D01*
X87725Y-51230D01*
X87724Y-51369D01*
X87778Y-51498D01*
X87876Y-51596D01*
X88005Y-51649D01*
X88144Y-51650D01*
X88273Y-51596D01*
X88371Y-51498D01*
X88424Y-51369D01*
X88425Y-51230D01*
X88425Y-51993D01*
X88402Y-52003D01*
X88303Y-52101D01*
X88250Y-52230D01*
X88250Y-52270D01*
X87653Y-52270D01*
X87359Y-52270D01*
X87359Y-47155D01*
X86900Y-46695D01*
X86829Y-46766D01*
X86440Y-47155D01*
X86491Y-47271D01*
X86770Y-47378D01*
X87068Y-47370D01*
X87308Y-47271D01*
X87359Y-47155D01*
X87359Y-52270D01*
X86575Y-52270D01*
X86575Y-49326D01*
X86442Y-49005D01*
X86196Y-48758D01*
X85874Y-48625D01*
X85526Y-48624D01*
X85205Y-48757D01*
X84958Y-49003D01*
X84825Y-49325D01*
X84824Y-49673D01*
X84957Y-49995D01*
X85203Y-50241D01*
X85525Y-50374D01*
X85873Y-50375D01*
X86195Y-50242D01*
X86441Y-49996D01*
X86574Y-49674D01*
X86575Y-49326D01*
X86575Y-52270D01*
X83050Y-52270D01*
X83050Y-46905D01*
X82996Y-46777D01*
X82898Y-46678D01*
X82769Y-46625D01*
X82630Y-46624D01*
X82502Y-46678D01*
X82403Y-46776D01*
X82350Y-46905D01*
X82350Y-46630D01*
X82296Y-46502D01*
X82198Y-46403D01*
X82069Y-46350D01*
X81930Y-46349D01*
X81802Y-46403D01*
X81703Y-46501D01*
X81650Y-46630D01*
X81649Y-46769D01*
X81703Y-46898D01*
X81801Y-46996D01*
X81930Y-47049D01*
X82069Y-47050D01*
X82198Y-46996D01*
X82296Y-46898D01*
X82349Y-46769D01*
X82350Y-46630D01*
X82350Y-46905D01*
X82349Y-47044D01*
X82403Y-47173D01*
X82501Y-47271D01*
X82630Y-47324D01*
X82769Y-47325D01*
X82898Y-47271D01*
X82996Y-47173D01*
X83049Y-47044D01*
X83050Y-46905D01*
X83050Y-52270D01*
X80425Y-52270D01*
X80425Y-46705D01*
X80371Y-46577D01*
X80273Y-46478D01*
X80144Y-46425D01*
X80005Y-46424D01*
X79877Y-46478D01*
X79778Y-46576D01*
X79725Y-46705D01*
X79724Y-46844D01*
X79778Y-46973D01*
X79876Y-47071D01*
X80005Y-47124D01*
X80144Y-47125D01*
X80273Y-47071D01*
X80371Y-46973D01*
X80424Y-46844D01*
X80425Y-46705D01*
X80425Y-52270D01*
X76475Y-52270D01*
X76475Y-46930D01*
X76421Y-46802D01*
X76323Y-46703D01*
X76194Y-46650D01*
X76055Y-46649D01*
X75927Y-46703D01*
X75828Y-46801D01*
X75775Y-46930D01*
X75774Y-47069D01*
X75828Y-47198D01*
X75926Y-47296D01*
X76055Y-47349D01*
X76194Y-47350D01*
X76323Y-47296D01*
X76421Y-47198D01*
X76474Y-47069D01*
X76475Y-46930D01*
X76475Y-52270D01*
X74500Y-52270D01*
X74500Y-47980D01*
X74446Y-47852D01*
X74348Y-47753D01*
X74219Y-47700D01*
X74080Y-47699D01*
X73952Y-47753D01*
X73853Y-47851D01*
X73800Y-47980D01*
X73799Y-48119D01*
X73853Y-48248D01*
X73951Y-48346D01*
X74080Y-48399D01*
X74219Y-48400D01*
X74348Y-48346D01*
X74446Y-48248D01*
X74499Y-48119D01*
X74500Y-47980D01*
X74500Y-52270D01*
X73625Y-52270D01*
X73625Y-48055D01*
X73571Y-47927D01*
X73473Y-47828D01*
X73344Y-47775D01*
X73205Y-47774D01*
X73077Y-47828D01*
X72978Y-47926D01*
X72925Y-48055D01*
X72924Y-48194D01*
X72978Y-48323D01*
X73076Y-48421D01*
X73205Y-48474D01*
X73344Y-48475D01*
X73473Y-48421D01*
X73571Y-48323D01*
X73624Y-48194D01*
X73625Y-48055D01*
X73625Y-52270D01*
X66553Y-52270D01*
X66553Y-50737D01*
X66470Y-50535D01*
X66315Y-50380D01*
X66113Y-50296D01*
X65894Y-50296D01*
X65692Y-50379D01*
X65537Y-50534D01*
X65453Y-50736D01*
X65453Y-50932D01*
X65438Y-50917D01*
X65346Y-50879D01*
X65246Y-50879D01*
X65155Y-50917D01*
X65084Y-50987D01*
X64660Y-51411D01*
X64622Y-51503D01*
X64622Y-51603D01*
X64660Y-51694D01*
X64730Y-51765D01*
X65154Y-52189D01*
X65246Y-52227D01*
X65345Y-52227D01*
X65437Y-52189D01*
X65508Y-52119D01*
X65932Y-51695D01*
X65970Y-51603D01*
X65970Y-51504D01*
X65932Y-51412D01*
X65917Y-51396D01*
X66112Y-51396D01*
X66314Y-51312D01*
X66469Y-51158D01*
X66553Y-50956D01*
X66553Y-50737D01*
X66553Y-52270D01*
X65350Y-52270D01*
X65185Y-52302D01*
X65045Y-52395D01*
X64641Y-52800D01*
X64349Y-52800D01*
X64350Y-52492D01*
X64190Y-52106D01*
X63895Y-51810D01*
X63509Y-51650D01*
X63500Y-51650D01*
X63500Y-51600D01*
X63549Y-51600D01*
X63641Y-51562D01*
X63711Y-51491D01*
X63749Y-51399D01*
X63750Y-51300D01*
X63750Y-50700D01*
X63712Y-50608D01*
X63641Y-50538D01*
X63549Y-50500D01*
X63527Y-50500D01*
X63665Y-50361D01*
X63749Y-50159D01*
X63750Y-49941D01*
X63666Y-49738D01*
X63511Y-49584D01*
X63500Y-49579D01*
X63500Y-46100D01*
X84387Y-46100D01*
X84375Y-46130D01*
X84374Y-46269D01*
X84428Y-46398D01*
X84526Y-46496D01*
X84655Y-46549D01*
X84794Y-46550D01*
X84923Y-46496D01*
X85021Y-46398D01*
X85074Y-46269D01*
X85075Y-46130D01*
X85062Y-46100D01*
X86344Y-46100D01*
X86324Y-46120D01*
X86369Y-46165D01*
X86253Y-46216D01*
X86146Y-46495D01*
X86154Y-46793D01*
X86253Y-47033D01*
X86369Y-47084D01*
X86829Y-46625D01*
X86823Y-46619D01*
X86894Y-46548D01*
X86900Y-46554D01*
X86905Y-46548D01*
X86976Y-46619D01*
X86970Y-46625D01*
X87430Y-47084D01*
X87546Y-47033D01*
X87653Y-46754D01*
X87645Y-46456D01*
X87546Y-46216D01*
X87430Y-46165D01*
X87475Y-46120D01*
X87455Y-46100D01*
X98330Y-46100D01*
X98202Y-46153D01*
X98103Y-46251D01*
X98050Y-46380D01*
X98049Y-46519D01*
X98103Y-46648D01*
X98201Y-46746D01*
X98330Y-46799D01*
X98469Y-46800D01*
X98598Y-46746D01*
X98696Y-46648D01*
X98749Y-46519D01*
X98750Y-46380D01*
X98696Y-46252D01*
X98598Y-46153D01*
X98469Y-46100D01*
X98400Y-46100D01*
X103249Y-46100D01*
X103249Y-46169D01*
X103303Y-46298D01*
X103401Y-46396D01*
X103429Y-46408D01*
X103404Y-46470D01*
X103228Y-46542D01*
X103093Y-46677D01*
X103020Y-46854D01*
X103019Y-47045D01*
X103092Y-47221D01*
X103227Y-47356D01*
X103404Y-47429D01*
X103595Y-47430D01*
X103771Y-47357D01*
X103808Y-47320D01*
X104300Y-47320D01*
X104441Y-47291D01*
X104561Y-47211D01*
X105149Y-46623D01*
X105149Y-47049D01*
X105187Y-47141D01*
X105258Y-47211D01*
X105350Y-47249D01*
X105372Y-47249D01*
X105234Y-47388D01*
X105150Y-47590D01*
X105149Y-47808D01*
X105233Y-48011D01*
X105388Y-48165D01*
X105469Y-48199D01*
X105388Y-48233D01*
X105234Y-48388D01*
X105150Y-48590D01*
X105149Y-48808D01*
X105233Y-49011D01*
X105388Y-49165D01*
X105590Y-49249D01*
X105808Y-49250D01*
X106011Y-49166D01*
X106165Y-49011D01*
X106199Y-48930D01*
X106233Y-49011D01*
X106388Y-49165D01*
X106590Y-49249D01*
X106808Y-49250D01*
X107011Y-49166D01*
X107165Y-49011D01*
X107249Y-48809D01*
X107250Y-48591D01*
X107166Y-48388D01*
X107011Y-48234D01*
X106930Y-48200D01*
X107011Y-48166D01*
X107165Y-48011D01*
X107249Y-47809D01*
X107250Y-47591D01*
X107166Y-47388D01*
X107011Y-47234D01*
X106930Y-47200D01*
X107011Y-47166D01*
X107165Y-47011D01*
X107249Y-46809D01*
X107250Y-46591D01*
X107166Y-46388D01*
X107011Y-46234D01*
X106809Y-46150D01*
X106591Y-46149D01*
X106388Y-46233D01*
X106250Y-46372D01*
X106250Y-46350D01*
X106212Y-46258D01*
X106141Y-46188D01*
X106049Y-46150D01*
X105950Y-46149D01*
X105623Y-46149D01*
X105673Y-46100D01*
X112271Y-46100D01*
X112254Y-46117D01*
X112156Y-46353D01*
X112156Y-46609D01*
X112253Y-46846D01*
X112434Y-47027D01*
X112671Y-47125D01*
X112927Y-47126D01*
X113164Y-47028D01*
X113345Y-46847D01*
X113443Y-46610D01*
X113443Y-46354D01*
X113346Y-46118D01*
X113327Y-46100D01*
X114030Y-46100D01*
X114030Y-52450D01*
X114030Y-52450D01*
G37*
G54D33*
X114030Y-52450D02*
X113254Y-52450D01*
X113345Y-52359D01*
X113443Y-52122D01*
X113443Y-51866D01*
X113443Y-50488D01*
X113443Y-49110D01*
X113443Y-47732D01*
X113346Y-47496D01*
X113165Y-47314D01*
X112928Y-47216D01*
X112672Y-47216D01*
X112435Y-47314D01*
X112254Y-47495D01*
X112156Y-47731D01*
X112156Y-47987D01*
X112253Y-48224D01*
X112434Y-48405D01*
X112671Y-48503D01*
X112927Y-48504D01*
X113164Y-48406D01*
X113345Y-48225D01*
X113443Y-47988D01*
X113443Y-47732D01*
X113443Y-49110D01*
X113346Y-48874D01*
X113165Y-48692D01*
X112928Y-48594D01*
X112672Y-48594D01*
X112435Y-48692D01*
X112254Y-48873D01*
X112156Y-49109D01*
X112156Y-49365D01*
X112253Y-49602D01*
X112434Y-49783D01*
X112671Y-49881D01*
X112927Y-49882D01*
X113164Y-49784D01*
X113345Y-49603D01*
X113443Y-49366D01*
X113443Y-49110D01*
X113443Y-50488D01*
X113346Y-50251D01*
X113165Y-50070D01*
X112928Y-49972D01*
X112672Y-49972D01*
X112435Y-50070D01*
X112254Y-50251D01*
X112156Y-50487D01*
X112156Y-50743D01*
X112253Y-50980D01*
X112434Y-51161D01*
X112671Y-51259D01*
X112927Y-51259D01*
X113164Y-51162D01*
X113345Y-50981D01*
X113443Y-50744D01*
X113443Y-50488D01*
X113443Y-51866D01*
X113346Y-51629D01*
X113165Y-51448D01*
X112928Y-51350D01*
X112672Y-51350D01*
X112435Y-51448D01*
X112254Y-51628D01*
X112156Y-51865D01*
X112156Y-52121D01*
X112253Y-52358D01*
X112345Y-52450D01*
X111425Y-52450D01*
X111425Y-52800D01*
X111100Y-52800D01*
X111100Y-47030D01*
X111046Y-46902D01*
X110948Y-46803D01*
X110819Y-46750D01*
X110680Y-46749D01*
X110552Y-46803D01*
X110453Y-46901D01*
X110400Y-47030D01*
X110399Y-47169D01*
X110453Y-47298D01*
X110551Y-47396D01*
X110680Y-47449D01*
X110819Y-47450D01*
X110948Y-47396D01*
X111046Y-47298D01*
X111099Y-47169D01*
X111100Y-47030D01*
X111100Y-52800D01*
X109475Y-52800D01*
X109475Y-48930D01*
X109421Y-48802D01*
X109323Y-48703D01*
X109194Y-48650D01*
X109055Y-48649D01*
X108927Y-48703D01*
X108828Y-48801D01*
X108800Y-48869D01*
X108800Y-48426D01*
X108686Y-48150D01*
X108475Y-47939D01*
X108199Y-47825D01*
X107901Y-47824D01*
X107625Y-47938D01*
X107414Y-48149D01*
X107300Y-48425D01*
X107299Y-48723D01*
X107413Y-48999D01*
X107624Y-49210D01*
X107900Y-49324D01*
X108198Y-49325D01*
X108474Y-49211D01*
X108685Y-49000D01*
X108799Y-48724D01*
X108800Y-48426D01*
X108800Y-48869D01*
X108775Y-48930D01*
X108774Y-49069D01*
X108828Y-49198D01*
X108926Y-49296D01*
X109055Y-49349D01*
X109194Y-49350D01*
X109323Y-49296D01*
X109421Y-49198D01*
X109474Y-49069D01*
X109475Y-48930D01*
X109475Y-52800D01*
X103930Y-52800D01*
X103930Y-48829D01*
X103857Y-48653D01*
X103722Y-48518D01*
X103545Y-48445D01*
X103354Y-48444D01*
X103178Y-48517D01*
X103043Y-48652D01*
X102970Y-48829D01*
X102969Y-49020D01*
X103042Y-49196D01*
X103177Y-49331D01*
X103354Y-49404D01*
X103545Y-49405D01*
X103721Y-49332D01*
X103856Y-49197D01*
X103929Y-49020D01*
X103930Y-48829D01*
X103930Y-52800D01*
X102550Y-52800D01*
X102550Y-48480D01*
X102500Y-48359D01*
X102500Y-47330D01*
X102446Y-47202D01*
X102348Y-47103D01*
X102219Y-47050D01*
X102080Y-47049D01*
X101952Y-47103D01*
X101853Y-47201D01*
X101800Y-47330D01*
X101799Y-47454D01*
X101798Y-47453D01*
X101679Y-47404D01*
X101680Y-47254D01*
X101607Y-47078D01*
X101472Y-46943D01*
X101295Y-46870D01*
X101104Y-46869D01*
X100928Y-46942D01*
X100793Y-47077D01*
X100720Y-47254D01*
X100719Y-47445D01*
X100792Y-47621D01*
X100927Y-47756D01*
X101104Y-47829D01*
X101254Y-47830D01*
X101303Y-47948D01*
X101401Y-48046D01*
X101530Y-48099D01*
X101669Y-48100D01*
X101798Y-48046D01*
X101896Y-47948D01*
X101949Y-47819D01*
X101950Y-47695D01*
X101951Y-47696D01*
X102080Y-47749D01*
X102219Y-47750D01*
X102348Y-47696D01*
X102446Y-47598D01*
X102499Y-47469D01*
X102500Y-47330D01*
X102500Y-48359D01*
X102496Y-48352D01*
X102398Y-48253D01*
X102269Y-48200D01*
X102130Y-48199D01*
X102002Y-48253D01*
X101903Y-48351D01*
X101850Y-48480D01*
X101849Y-48619D01*
X101903Y-48748D01*
X102001Y-48846D01*
X102130Y-48899D01*
X102269Y-48900D01*
X102398Y-48846D01*
X102496Y-48748D01*
X102549Y-48619D01*
X102550Y-48480D01*
X102550Y-52800D01*
X102303Y-52800D01*
X102304Y-52795D01*
X102305Y-52604D01*
X102232Y-52428D01*
X102153Y-52350D01*
X102181Y-52322D01*
X102254Y-52145D01*
X102255Y-51954D01*
X102182Y-51778D01*
X102047Y-51643D01*
X101870Y-51570D01*
X101679Y-51569D01*
X101503Y-51642D01*
X101368Y-51777D01*
X101295Y-51954D01*
X101294Y-52145D01*
X101346Y-52270D01*
X100550Y-52270D01*
X99800Y-52270D01*
X99800Y-47705D01*
X99746Y-47577D01*
X99648Y-47478D01*
X99519Y-47425D01*
X99380Y-47424D01*
X99252Y-47478D01*
X99225Y-47505D01*
X99225Y-47130D01*
X99171Y-47002D01*
X99073Y-46903D01*
X98944Y-46850D01*
X98805Y-46849D01*
X98677Y-46903D01*
X98578Y-47001D01*
X98525Y-47130D01*
X98524Y-47269D01*
X98578Y-47398D01*
X98676Y-47496D01*
X98805Y-47549D01*
X98944Y-47550D01*
X99073Y-47496D01*
X99171Y-47398D01*
X99224Y-47269D01*
X99225Y-47130D01*
X99225Y-47505D01*
X99153Y-47576D01*
X99100Y-47705D01*
X99099Y-47844D01*
X99153Y-47973D01*
X99251Y-48071D01*
X99380Y-48124D01*
X99519Y-48125D01*
X99648Y-48071D01*
X99746Y-47973D01*
X99799Y-47844D01*
X99800Y-47705D01*
X99800Y-52270D01*
X99200Y-52270D01*
X99200Y-48230D01*
X99146Y-48102D01*
X99048Y-48003D01*
X98919Y-47950D01*
X98780Y-47949D01*
X98652Y-48003D01*
X98553Y-48101D01*
X98500Y-48230D01*
X98499Y-48369D01*
X98553Y-48498D01*
X98651Y-48596D01*
X98780Y-48649D01*
X98919Y-48650D01*
X99048Y-48596D01*
X99146Y-48498D01*
X99199Y-48369D01*
X99200Y-48230D01*
X99200Y-52270D01*
X98600Y-52270D01*
X98600Y-49855D01*
X98546Y-49727D01*
X98448Y-49628D01*
X98319Y-49575D01*
X98180Y-49574D01*
X98052Y-49628D01*
X97953Y-49726D01*
X97900Y-49855D01*
X97899Y-49994D01*
X97953Y-50123D01*
X98051Y-50221D01*
X98180Y-50274D01*
X98319Y-50275D01*
X98448Y-50221D01*
X98546Y-50123D01*
X98599Y-49994D01*
X98600Y-49855D01*
X98600Y-52270D01*
X95605Y-52270D01*
X95605Y-50204D01*
X95532Y-50028D01*
X95397Y-49893D01*
X95220Y-49820D01*
X95098Y-49819D01*
X95199Y-49574D01*
X95200Y-49300D01*
X95269Y-49300D01*
X95398Y-49246D01*
X95496Y-49148D01*
X95549Y-49019D01*
X95550Y-48880D01*
X95496Y-48752D01*
X95398Y-48653D01*
X95269Y-48600D01*
X95130Y-48599D01*
X95002Y-48653D01*
X94903Y-48751D01*
X94884Y-48798D01*
X94875Y-48789D01*
X94599Y-48675D01*
X94301Y-48674D01*
X94025Y-48788D01*
X93814Y-48999D01*
X93700Y-49275D01*
X93699Y-49573D01*
X93813Y-49849D01*
X94024Y-50060D01*
X94300Y-50174D01*
X94598Y-50175D01*
X94669Y-50145D01*
X94645Y-50204D01*
X94644Y-50395D01*
X94717Y-50571D01*
X94852Y-50706D01*
X95029Y-50779D01*
X95220Y-50780D01*
X95396Y-50707D01*
X95531Y-50572D01*
X95604Y-50395D01*
X95605Y-50204D01*
X95605Y-52270D01*
X93850Y-52270D01*
X93850Y-50680D01*
X93796Y-50552D01*
X93698Y-50453D01*
X93650Y-50433D01*
X93650Y-46780D01*
X93596Y-46652D01*
X93498Y-46553D01*
X93369Y-46500D01*
X93230Y-46499D01*
X93102Y-46553D01*
X93003Y-46651D01*
X92950Y-46780D01*
X92949Y-46919D01*
X93003Y-47048D01*
X93101Y-47146D01*
X93230Y-47199D01*
X93369Y-47200D01*
X93498Y-47146D01*
X93596Y-47048D01*
X93649Y-46919D01*
X93650Y-46780D01*
X93650Y-50433D01*
X93569Y-50400D01*
X93430Y-50399D01*
X93302Y-50453D01*
X93203Y-50551D01*
X93150Y-50680D01*
X93149Y-50819D01*
X93203Y-50948D01*
X93301Y-51046D01*
X93430Y-51099D01*
X93569Y-51100D01*
X93698Y-51046D01*
X93796Y-50948D01*
X93849Y-50819D01*
X93850Y-50680D01*
X93850Y-52270D01*
X93231Y-52270D01*
X93348Y-52221D01*
X93446Y-52123D01*
X93499Y-51994D01*
X93500Y-51855D01*
X93446Y-51727D01*
X93348Y-51628D01*
X93219Y-51575D01*
X93100Y-51574D01*
X93100Y-50355D01*
X93046Y-50227D01*
X92948Y-50128D01*
X92819Y-50075D01*
X92750Y-50074D01*
X92750Y-47530D01*
X92696Y-47402D01*
X92598Y-47303D01*
X92469Y-47250D01*
X92330Y-47249D01*
X92202Y-47303D01*
X92103Y-47401D01*
X92050Y-47530D01*
X92049Y-47669D01*
X92103Y-47798D01*
X92201Y-47896D01*
X92330Y-47949D01*
X92469Y-47950D01*
X92598Y-47896D01*
X92696Y-47798D01*
X92749Y-47669D01*
X92750Y-47530D01*
X92750Y-50074D01*
X92680Y-50074D01*
X92552Y-50128D01*
X92453Y-50226D01*
X92400Y-50355D01*
X92399Y-50494D01*
X92453Y-50623D01*
X92551Y-50721D01*
X92680Y-50774D01*
X92819Y-50775D01*
X92948Y-50721D01*
X93046Y-50623D01*
X93099Y-50494D01*
X93100Y-50355D01*
X93100Y-51574D01*
X93080Y-51574D01*
X92952Y-51628D01*
X92853Y-51726D01*
X92843Y-51750D01*
X92822Y-51750D01*
X92771Y-51627D01*
X92673Y-51528D01*
X92544Y-51475D01*
X92405Y-51474D01*
X92277Y-51528D01*
X92178Y-51626D01*
X92125Y-51755D01*
X92124Y-51894D01*
X92178Y-52023D01*
X92276Y-52121D01*
X92405Y-52174D01*
X92452Y-52174D01*
X92491Y-52270D01*
X91750Y-52270D01*
X91750Y-47380D01*
X91696Y-47252D01*
X91598Y-47153D01*
X91469Y-47100D01*
X91330Y-47099D01*
X91202Y-47153D01*
X91103Y-47251D01*
X91050Y-47380D01*
X91050Y-47305D01*
X90996Y-47177D01*
X90898Y-47078D01*
X90769Y-47025D01*
X90630Y-47024D01*
X90502Y-47078D01*
X90403Y-47176D01*
X90350Y-47305D01*
X90349Y-47444D01*
X90403Y-47573D01*
X90501Y-47671D01*
X90630Y-47724D01*
X90769Y-47725D01*
X90898Y-47671D01*
X90996Y-47573D01*
X91049Y-47444D01*
X91050Y-47305D01*
X91050Y-47380D01*
X91049Y-47519D01*
X91103Y-47648D01*
X91201Y-47746D01*
X91330Y-47799D01*
X91469Y-47800D01*
X91598Y-47746D01*
X91696Y-47648D01*
X91749Y-47519D01*
X91750Y-47380D01*
X91750Y-52270D01*
X91675Y-52270D01*
X91675Y-49355D01*
X91621Y-49227D01*
X91523Y-49128D01*
X91394Y-49075D01*
X91255Y-49074D01*
X91162Y-49113D01*
X91069Y-49075D01*
X90930Y-49074D01*
X90802Y-49128D01*
X90703Y-49226D01*
X90650Y-49355D01*
X90649Y-49494D01*
X90703Y-49623D01*
X90801Y-49721D01*
X90930Y-49774D01*
X91069Y-49775D01*
X91162Y-49736D01*
X91255Y-49774D01*
X91394Y-49775D01*
X91523Y-49721D01*
X91621Y-49623D01*
X91674Y-49494D01*
X91675Y-49355D01*
X91675Y-52270D01*
X90050Y-52270D01*
X90050Y-48655D01*
X89996Y-48527D01*
X89898Y-48428D01*
X89769Y-48375D01*
X89630Y-48374D01*
X89502Y-48428D01*
X89403Y-48526D01*
X89350Y-48655D01*
X89349Y-48794D01*
X89403Y-48923D01*
X89501Y-49021D01*
X89630Y-49074D01*
X89769Y-49075D01*
X89898Y-49021D01*
X89996Y-48923D01*
X90049Y-48794D01*
X90050Y-48655D01*
X90050Y-52270D01*
X88950Y-52270D01*
X88950Y-52230D01*
X88896Y-52102D01*
X88798Y-52003D01*
X88725Y-51972D01*
X88725Y-50405D01*
X88700Y-50345D01*
X88700Y-47355D01*
X88646Y-47227D01*
X88548Y-47128D01*
X88419Y-47075D01*
X88280Y-47074D01*
X88152Y-47128D01*
X88053Y-47226D01*
X88000Y-47355D01*
X87999Y-47494D01*
X88053Y-47623D01*
X88151Y-47721D01*
X88280Y-47774D01*
X88419Y-47775D01*
X88548Y-47721D01*
X88646Y-47623D01*
X88699Y-47494D01*
X88700Y-47355D01*
X88700Y-50345D01*
X88671Y-50277D01*
X88573Y-50178D01*
X88444Y-50125D01*
X88305Y-50124D01*
X88177Y-50178D01*
X88078Y-50276D01*
X88025Y-50405D01*
X88024Y-50544D01*
X88078Y-50673D01*
X88176Y-50771D01*
X88305Y-50824D01*
X88444Y-50825D01*
X88573Y-50771D01*
X88671Y-50673D01*
X88724Y-50544D01*
X88725Y-50405D01*
X88725Y-51972D01*
X88669Y-51950D01*
X88530Y-51949D01*
X88425Y-51993D01*
X88425Y-51230D01*
X88371Y-51102D01*
X88273Y-51003D01*
X88144Y-50950D01*
X88005Y-50949D01*
X87877Y-51003D01*
X87778Y-51101D01*
X87725Y-51230D01*
X87724Y-51369D01*
X87778Y-51498D01*
X87876Y-51596D01*
X88005Y-51649D01*
X88144Y-51650D01*
X88273Y-51596D01*
X88371Y-51498D01*
X88424Y-51369D01*
X88425Y-51230D01*
X88425Y-51993D01*
X88402Y-52003D01*
X88303Y-52101D01*
X88250Y-52230D01*
X88250Y-52270D01*
X87653Y-52270D01*
X87359Y-52270D01*
X87359Y-47155D01*
X86900Y-46695D01*
X86829Y-46766D01*
X86440Y-47155D01*
X86491Y-47271D01*
X86770Y-47378D01*
X87068Y-47370D01*
X87308Y-47271D01*
X87359Y-47155D01*
X87359Y-52270D01*
X86575Y-52270D01*
X86575Y-49326D01*
X86442Y-49005D01*
X86196Y-48758D01*
X85874Y-48625D01*
X85526Y-48624D01*
X85205Y-48757D01*
X84958Y-49003D01*
X84825Y-49325D01*
X84824Y-49673D01*
X84957Y-49995D01*
X85203Y-50241D01*
X85525Y-50374D01*
X85873Y-50375D01*
X86195Y-50242D01*
X86441Y-49996D01*
X86574Y-49674D01*
X86575Y-49326D01*
X86575Y-52270D01*
X83050Y-52270D01*
X83050Y-46905D01*
X82996Y-46777D01*
X82898Y-46678D01*
X82769Y-46625D01*
X82630Y-46624D01*
X82502Y-46678D01*
X82403Y-46776D01*
X82350Y-46905D01*
X82350Y-46630D01*
X82296Y-46502D01*
X82198Y-46403D01*
X82069Y-46350D01*
X81930Y-46349D01*
X81802Y-46403D01*
X81703Y-46501D01*
X81650Y-46630D01*
X81649Y-46769D01*
X81703Y-46898D01*
X81801Y-46996D01*
X81930Y-47049D01*
X82069Y-47050D01*
X82198Y-46996D01*
X82296Y-46898D01*
X82349Y-46769D01*
X82350Y-46630D01*
X82350Y-46905D01*
X82349Y-47044D01*
X82403Y-47173D01*
X82501Y-47271D01*
X82630Y-47324D01*
X82769Y-47325D01*
X82898Y-47271D01*
X82996Y-47173D01*
X83049Y-47044D01*
X83050Y-46905D01*
X83050Y-52270D01*
X80425Y-52270D01*
X80425Y-46705D01*
X80371Y-46577D01*
X80273Y-46478D01*
X80144Y-46425D01*
X80005Y-46424D01*
X79877Y-46478D01*
X79778Y-46576D01*
X79725Y-46705D01*
X79724Y-46844D01*
X79778Y-46973D01*
X79876Y-47071D01*
X80005Y-47124D01*
X80144Y-47125D01*
X80273Y-47071D01*
X80371Y-46973D01*
X80424Y-46844D01*
X80425Y-46705D01*
X80425Y-52270D01*
X76475Y-52270D01*
X76475Y-46930D01*
X76421Y-46802D01*
X76323Y-46703D01*
X76194Y-46650D01*
X76055Y-46649D01*
X75927Y-46703D01*
X75828Y-46801D01*
X75775Y-46930D01*
X75774Y-47069D01*
X75828Y-47198D01*
X75926Y-47296D01*
X76055Y-47349D01*
X76194Y-47350D01*
X76323Y-47296D01*
X76421Y-47198D01*
X76474Y-47069D01*
X76475Y-46930D01*
X76475Y-52270D01*
X74500Y-52270D01*
X74500Y-47980D01*
X74446Y-47852D01*
X74348Y-47753D01*
X74219Y-47700D01*
X74080Y-47699D01*
X73952Y-47753D01*
X73853Y-47851D01*
X73800Y-47980D01*
X73799Y-48119D01*
X73853Y-48248D01*
X73951Y-48346D01*
X74080Y-48399D01*
X74219Y-48400D01*
X74348Y-48346D01*
X74446Y-48248D01*
X74499Y-48119D01*
X74500Y-47980D01*
X74500Y-52270D01*
X73625Y-52270D01*
X73625Y-48055D01*
X73571Y-47927D01*
X73473Y-47828D01*
X73344Y-47775D01*
X73205Y-47774D01*
X73077Y-47828D01*
X72978Y-47926D01*
X72925Y-48055D01*
X72924Y-48194D01*
X72978Y-48323D01*
X73076Y-48421D01*
X73205Y-48474D01*
X73344Y-48475D01*
X73473Y-48421D01*
X73571Y-48323D01*
X73624Y-48194D01*
X73625Y-48055D01*
X73625Y-52270D01*
X66553Y-52270D01*
X66553Y-50737D01*
X66470Y-50535D01*
X66315Y-50380D01*
X66113Y-50296D01*
X65894Y-50296D01*
X65692Y-50379D01*
X65537Y-50534D01*
X65453Y-50736D01*
X65453Y-50932D01*
X65438Y-50917D01*
X65346Y-50879D01*
X65246Y-50879D01*
X65155Y-50917D01*
X65084Y-50987D01*
X64660Y-51411D01*
X64622Y-51503D01*
X64622Y-51603D01*
X64660Y-51694D01*
X64730Y-51765D01*
X65154Y-52189D01*
X65246Y-52227D01*
X65345Y-52227D01*
X65437Y-52189D01*
X65508Y-52119D01*
X65932Y-51695D01*
X65970Y-51603D01*
X65970Y-51504D01*
X65932Y-51412D01*
X65917Y-51396D01*
X66112Y-51396D01*
X66314Y-51312D01*
X66469Y-51158D01*
X66553Y-50956D01*
X66553Y-50737D01*
X66553Y-52270D01*
X65350Y-52270D01*
X65185Y-52302D01*
X65045Y-52395D01*
X64641Y-52800D01*
X64349Y-52800D01*
X64350Y-52492D01*
X64190Y-52106D01*
X63895Y-51810D01*
X63509Y-51650D01*
X63500Y-51650D01*
X63500Y-51600D01*
X63549Y-51600D01*
X63641Y-51562D01*
X63711Y-51491D01*
X63749Y-51399D01*
X63750Y-51300D01*
X63750Y-50700D01*
X63712Y-50608D01*
X63641Y-50538D01*
X63549Y-50500D01*
X63527Y-50500D01*
X63665Y-50361D01*
X63749Y-50159D01*
X63750Y-49941D01*
X63666Y-49738D01*
X63511Y-49584D01*
X63500Y-49579D01*
X63500Y-46100D01*
X84387Y-46100D01*
X84375Y-46130D01*
X84374Y-46269D01*
X84428Y-46398D01*
X84526Y-46496D01*
X84655Y-46549D01*
X84794Y-46550D01*
X84923Y-46496D01*
X85021Y-46398D01*
X85074Y-46269D01*
X85075Y-46130D01*
X85062Y-46100D01*
X86344Y-46100D01*
X86324Y-46120D01*
X86369Y-46165D01*
X86253Y-46216D01*
X86146Y-46495D01*
X86154Y-46793D01*
X86253Y-47033D01*
X86369Y-47084D01*
X86829Y-46625D01*
X86823Y-46619D01*
X86894Y-46548D01*
X86900Y-46554D01*
X86905Y-46548D01*
X86976Y-46619D01*
X86970Y-46625D01*
X87430Y-47084D01*
X87546Y-47033D01*
X87653Y-46754D01*
X87645Y-46456D01*
X87546Y-46216D01*
X87430Y-46165D01*
X87475Y-46120D01*
X87455Y-46100D01*
X98330Y-46100D01*
X98202Y-46153D01*
X98103Y-46251D01*
X98050Y-46380D01*
X98049Y-46519D01*
X98103Y-46648D01*
X98201Y-46746D01*
X98330Y-46799D01*
X98469Y-46800D01*
X98598Y-46746D01*
X98696Y-46648D01*
X98749Y-46519D01*
X98750Y-46380D01*
X98696Y-46252D01*
X98598Y-46153D01*
X98469Y-46100D01*
X98400Y-46100D01*
X103249Y-46100D01*
X103249Y-46169D01*
X103303Y-46298D01*
X103401Y-46396D01*
X103429Y-46408D01*
X103404Y-46470D01*
X103228Y-46542D01*
X103093Y-46677D01*
X103020Y-46854D01*
X103019Y-47045D01*
X103092Y-47221D01*
X103227Y-47356D01*
X103404Y-47429D01*
X103595Y-47430D01*
X103771Y-47357D01*
X103808Y-47320D01*
X104300Y-47320D01*
X104441Y-47291D01*
X104561Y-47211D01*
X105149Y-46623D01*
X105149Y-47049D01*
X105187Y-47141D01*
X105258Y-47211D01*
X105350Y-47249D01*
X105372Y-47249D01*
X105234Y-47388D01*
X105150Y-47590D01*
X105149Y-47808D01*
X105233Y-48011D01*
X105388Y-48165D01*
X105469Y-48199D01*
X105388Y-48233D01*
X105234Y-48388D01*
X105150Y-48590D01*
X105149Y-48808D01*
X105233Y-49011D01*
X105388Y-49165D01*
X105590Y-49249D01*
X105808Y-49250D01*
X106011Y-49166D01*
X106165Y-49011D01*
X106199Y-48930D01*
X106233Y-49011D01*
X106388Y-49165D01*
X106590Y-49249D01*
X106808Y-49250D01*
X107011Y-49166D01*
X107165Y-49011D01*
X107249Y-48809D01*
X107250Y-48591D01*
X107166Y-48388D01*
X107011Y-48234D01*
X106930Y-48200D01*
X107011Y-48166D01*
X107165Y-48011D01*
X107249Y-47809D01*
X107250Y-47591D01*
X107166Y-47388D01*
X107011Y-47234D01*
X106930Y-47200D01*
X107011Y-47166D01*
X107165Y-47011D01*
X107249Y-46809D01*
X107250Y-46591D01*
X107166Y-46388D01*
X107011Y-46234D01*
X106809Y-46150D01*
X106591Y-46149D01*
X106388Y-46233D01*
X106250Y-46372D01*
X106250Y-46350D01*
X106212Y-46258D01*
X106141Y-46188D01*
X106049Y-46150D01*
X105950Y-46149D01*
X105623Y-46149D01*
X105673Y-46100D01*
X112271Y-46100D01*
X112254Y-46117D01*
X112156Y-46353D01*
X112156Y-46609D01*
X112253Y-46846D01*
X112434Y-47027D01*
X112671Y-47125D01*
X112927Y-47126D01*
X113164Y-47028D01*
X113345Y-46847D01*
X113443Y-46610D01*
X113443Y-46354D01*
X113346Y-46118D01*
X113327Y-46100D01*
X114030Y-46100D01*
X114030Y-52450D01*
G54D10*
G36*
X114030Y-56000D02*
X113443Y-56000D01*
X113443Y-55094D01*
X113443Y-54306D01*
X113405Y-54214D01*
X113335Y-54144D01*
X113243Y-54106D01*
X113144Y-54106D01*
X112356Y-54106D01*
X112264Y-54144D01*
X112194Y-54214D01*
X112156Y-54306D01*
X112156Y-54405D01*
X112156Y-55193D01*
X112194Y-55285D01*
X112264Y-55355D01*
X112356Y-55393D01*
X112455Y-55393D01*
X113243Y-55393D01*
X113335Y-55355D01*
X113405Y-55285D01*
X113443Y-55193D01*
X113443Y-55094D01*
X113443Y-56000D01*
X111853Y-56000D01*
X111881Y-55972D01*
X111954Y-55795D01*
X111955Y-55604D01*
X111882Y-55428D01*
X111747Y-55293D01*
X111570Y-55220D01*
X111379Y-55219D01*
X111203Y-55292D01*
X111068Y-55427D01*
X110995Y-55604D01*
X110994Y-55795D01*
X111067Y-55971D01*
X111096Y-56000D01*
X100350Y-56000D01*
X100350Y-56800D01*
X97205Y-56800D01*
X97205Y-56779D01*
X97132Y-56603D01*
X96997Y-56468D01*
X96820Y-56395D01*
X96629Y-56394D01*
X96453Y-56467D01*
X96318Y-56602D01*
X96245Y-56779D01*
X96245Y-56800D01*
X93255Y-56800D01*
X93255Y-55179D01*
X93182Y-55003D01*
X93047Y-54868D01*
X92925Y-54817D01*
X92925Y-54805D01*
X92871Y-54677D01*
X92773Y-54578D01*
X92644Y-54525D01*
X92505Y-54524D01*
X92377Y-54578D01*
X92278Y-54676D01*
X92225Y-54805D01*
X92224Y-54944D01*
X92278Y-55073D01*
X92321Y-55116D01*
X92295Y-55179D01*
X92294Y-55370D01*
X92367Y-55546D01*
X92502Y-55681D01*
X92679Y-55754D01*
X92870Y-55755D01*
X93046Y-55682D01*
X93181Y-55547D01*
X93254Y-55370D01*
X93255Y-55179D01*
X93255Y-56800D01*
X90705Y-56800D01*
X90705Y-55179D01*
X90632Y-55003D01*
X90497Y-54868D01*
X90320Y-54795D01*
X90129Y-54794D01*
X89953Y-54867D01*
X89818Y-55002D01*
X89745Y-55179D01*
X89744Y-55370D01*
X89817Y-55546D01*
X89952Y-55681D01*
X90129Y-55754D01*
X90320Y-55755D01*
X90496Y-55682D01*
X90631Y-55547D01*
X90704Y-55370D01*
X90705Y-55179D01*
X90705Y-56800D01*
X89180Y-56800D01*
X89180Y-55654D01*
X89107Y-55478D01*
X88972Y-55343D01*
X88795Y-55270D01*
X88604Y-55269D01*
X88428Y-55342D01*
X88293Y-55477D01*
X88220Y-55654D01*
X88219Y-55845D01*
X88292Y-56021D01*
X88427Y-56156D01*
X88604Y-56229D01*
X88795Y-56230D01*
X88971Y-56157D01*
X89106Y-56022D01*
X89179Y-55845D01*
X89180Y-55654D01*
X89180Y-56800D01*
X85050Y-56800D01*
X85050Y-53855D01*
X84996Y-53727D01*
X84898Y-53628D01*
X84769Y-53575D01*
X84630Y-53574D01*
X84502Y-53628D01*
X84403Y-53726D01*
X84350Y-53855D01*
X84349Y-53994D01*
X84403Y-54123D01*
X84501Y-54221D01*
X84630Y-54274D01*
X84769Y-54275D01*
X84898Y-54221D01*
X84996Y-54123D01*
X85049Y-53994D01*
X85050Y-53855D01*
X85050Y-56800D01*
X76312Y-56800D01*
X76324Y-56769D01*
X76325Y-56630D01*
X76271Y-56502D01*
X76173Y-56403D01*
X76044Y-56350D01*
X75905Y-56349D01*
X75777Y-56403D01*
X75678Y-56501D01*
X75625Y-56630D01*
X75624Y-56769D01*
X75637Y-56800D01*
X66753Y-56800D01*
X66753Y-54644D01*
X66670Y-54442D01*
X66515Y-54287D01*
X66313Y-54203D01*
X66117Y-54203D01*
X66132Y-54188D01*
X66170Y-54096D01*
X66170Y-53996D01*
X66132Y-53905D01*
X66062Y-53834D01*
X65638Y-53410D01*
X65546Y-53372D01*
X65446Y-53372D01*
X65355Y-53410D01*
X65284Y-53480D01*
X64860Y-53904D01*
X64822Y-53996D01*
X64822Y-54095D01*
X64860Y-54187D01*
X64930Y-54258D01*
X65354Y-54682D01*
X65446Y-54720D01*
X65545Y-54720D01*
X65637Y-54682D01*
X65653Y-54667D01*
X65653Y-54862D01*
X65737Y-55064D01*
X65891Y-55219D01*
X66093Y-55303D01*
X66312Y-55303D01*
X66514Y-55220D01*
X66669Y-55065D01*
X66753Y-54863D01*
X66753Y-54644D01*
X66753Y-56800D01*
X63500Y-56800D01*
X63500Y-56621D01*
X63511Y-56616D01*
X63665Y-56461D01*
X63749Y-56259D01*
X63750Y-56041D01*
X63666Y-55838D01*
X63527Y-55700D01*
X63549Y-55700D01*
X63641Y-55662D01*
X63711Y-55591D01*
X63749Y-55499D01*
X63750Y-55400D01*
X63750Y-54800D01*
X63712Y-54708D01*
X63641Y-54638D01*
X63549Y-54600D01*
X63500Y-54600D01*
X63500Y-54455D01*
X64025Y-54455D01*
X64189Y-54422D01*
X64329Y-54329D01*
X65385Y-53273D01*
X111725Y-53227D01*
X111725Y-52800D01*
X112498Y-52800D01*
X112435Y-52826D01*
X112254Y-53006D01*
X112156Y-53243D01*
X112156Y-53499D01*
X112253Y-53736D01*
X112434Y-53917D01*
X112671Y-54015D01*
X112927Y-54015D01*
X113164Y-53918D01*
X113345Y-53737D01*
X113443Y-53500D01*
X113443Y-53244D01*
X113346Y-53007D01*
X113165Y-52826D01*
X113100Y-52800D01*
X114030Y-52800D01*
X114030Y-56000D01*
X114030Y-56000D01*
G37*
G54D33*
X114030Y-56000D02*
X113443Y-56000D01*
X113443Y-55094D01*
X113443Y-54306D01*
X113405Y-54214D01*
X113335Y-54144D01*
X113243Y-54106D01*
X113144Y-54106D01*
X112356Y-54106D01*
X112264Y-54144D01*
X112194Y-54214D01*
X112156Y-54306D01*
X112156Y-54405D01*
X112156Y-55193D01*
X112194Y-55285D01*
X112264Y-55355D01*
X112356Y-55393D01*
X112455Y-55393D01*
X113243Y-55393D01*
X113335Y-55355D01*
X113405Y-55285D01*
X113443Y-55193D01*
X113443Y-55094D01*
X113443Y-56000D01*
X111853Y-56000D01*
X111881Y-55972D01*
X111954Y-55795D01*
X111955Y-55604D01*
X111882Y-55428D01*
X111747Y-55293D01*
X111570Y-55220D01*
X111379Y-55219D01*
X111203Y-55292D01*
X111068Y-55427D01*
X110995Y-55604D01*
X110994Y-55795D01*
X111067Y-55971D01*
X111096Y-56000D01*
X100350Y-56000D01*
X100350Y-56800D01*
X97205Y-56800D01*
X97205Y-56779D01*
X97132Y-56603D01*
X96997Y-56468D01*
X96820Y-56395D01*
X96629Y-56394D01*
X96453Y-56467D01*
X96318Y-56602D01*
X96245Y-56779D01*
X96245Y-56800D01*
X93255Y-56800D01*
X93255Y-55179D01*
X93182Y-55003D01*
X93047Y-54868D01*
X92925Y-54817D01*
X92925Y-54805D01*
X92871Y-54677D01*
X92773Y-54578D01*
X92644Y-54525D01*
X92505Y-54524D01*
X92377Y-54578D01*
X92278Y-54676D01*
X92225Y-54805D01*
X92224Y-54944D01*
X92278Y-55073D01*
X92321Y-55116D01*
X92295Y-55179D01*
X92294Y-55370D01*
X92367Y-55546D01*
X92502Y-55681D01*
X92679Y-55754D01*
X92870Y-55755D01*
X93046Y-55682D01*
X93181Y-55547D01*
X93254Y-55370D01*
X93255Y-55179D01*
X93255Y-56800D01*
X90705Y-56800D01*
X90705Y-55179D01*
X90632Y-55003D01*
X90497Y-54868D01*
X90320Y-54795D01*
X90129Y-54794D01*
X89953Y-54867D01*
X89818Y-55002D01*
X89745Y-55179D01*
X89744Y-55370D01*
X89817Y-55546D01*
X89952Y-55681D01*
X90129Y-55754D01*
X90320Y-55755D01*
X90496Y-55682D01*
X90631Y-55547D01*
X90704Y-55370D01*
X90705Y-55179D01*
X90705Y-56800D01*
X89180Y-56800D01*
X89180Y-55654D01*
X89107Y-55478D01*
X88972Y-55343D01*
X88795Y-55270D01*
X88604Y-55269D01*
X88428Y-55342D01*
X88293Y-55477D01*
X88220Y-55654D01*
X88219Y-55845D01*
X88292Y-56021D01*
X88427Y-56156D01*
X88604Y-56229D01*
X88795Y-56230D01*
X88971Y-56157D01*
X89106Y-56022D01*
X89179Y-55845D01*
X89180Y-55654D01*
X89180Y-56800D01*
X85050Y-56800D01*
X85050Y-53855D01*
X84996Y-53727D01*
X84898Y-53628D01*
X84769Y-53575D01*
X84630Y-53574D01*
X84502Y-53628D01*
X84403Y-53726D01*
X84350Y-53855D01*
X84349Y-53994D01*
X84403Y-54123D01*
X84501Y-54221D01*
X84630Y-54274D01*
X84769Y-54275D01*
X84898Y-54221D01*
X84996Y-54123D01*
X85049Y-53994D01*
X85050Y-53855D01*
X85050Y-56800D01*
X76312Y-56800D01*
X76324Y-56769D01*
X76325Y-56630D01*
X76271Y-56502D01*
X76173Y-56403D01*
X76044Y-56350D01*
X75905Y-56349D01*
X75777Y-56403D01*
X75678Y-56501D01*
X75625Y-56630D01*
X75624Y-56769D01*
X75637Y-56800D01*
X66753Y-56800D01*
X66753Y-54644D01*
X66670Y-54442D01*
X66515Y-54287D01*
X66313Y-54203D01*
X66117Y-54203D01*
X66132Y-54188D01*
X66170Y-54096D01*
X66170Y-53996D01*
X66132Y-53905D01*
X66062Y-53834D01*
X65638Y-53410D01*
X65546Y-53372D01*
X65446Y-53372D01*
X65355Y-53410D01*
X65284Y-53480D01*
X64860Y-53904D01*
X64822Y-53996D01*
X64822Y-54095D01*
X64860Y-54187D01*
X64930Y-54258D01*
X65354Y-54682D01*
X65446Y-54720D01*
X65545Y-54720D01*
X65637Y-54682D01*
X65653Y-54667D01*
X65653Y-54862D01*
X65737Y-55064D01*
X65891Y-55219D01*
X66093Y-55303D01*
X66312Y-55303D01*
X66514Y-55220D01*
X66669Y-55065D01*
X66753Y-54863D01*
X66753Y-54644D01*
X66753Y-56800D01*
X63500Y-56800D01*
X63500Y-56621D01*
X63511Y-56616D01*
X63665Y-56461D01*
X63749Y-56259D01*
X63750Y-56041D01*
X63666Y-55838D01*
X63527Y-55700D01*
X63549Y-55700D01*
X63641Y-55662D01*
X63711Y-55591D01*
X63749Y-55499D01*
X63750Y-55400D01*
X63750Y-54800D01*
X63712Y-54708D01*
X63641Y-54638D01*
X63549Y-54600D01*
X63500Y-54600D01*
X63500Y-54455D01*
X64025Y-54455D01*
X64189Y-54422D01*
X64329Y-54329D01*
X65385Y-53273D01*
X111725Y-53227D01*
X111725Y-52800D01*
X112498Y-52800D01*
X112435Y-52826D01*
X112254Y-53006D01*
X112156Y-53243D01*
X112156Y-53499D01*
X112253Y-53736D01*
X112434Y-53917D01*
X112671Y-54015D01*
X112927Y-54015D01*
X113164Y-53918D01*
X113345Y-53737D01*
X113443Y-53500D01*
X113443Y-53244D01*
X113346Y-53007D01*
X113165Y-52826D01*
X113100Y-52800D01*
X114030Y-52800D01*
X114030Y-56000D01*
G54D10*
G36*
X105600Y-63330D02*
X105565Y-63330D01*
X105565Y-62486D01*
X105470Y-62256D01*
X105294Y-62080D01*
X105064Y-61985D01*
X104816Y-61984D01*
X104586Y-62079D01*
X104410Y-62255D01*
X104315Y-62485D01*
X104314Y-62733D01*
X104409Y-62963D01*
X104585Y-63139D01*
X104815Y-63234D01*
X105063Y-63235D01*
X105293Y-63140D01*
X105469Y-62964D01*
X105564Y-62734D01*
X105565Y-62486D01*
X105565Y-63330D01*
X103090Y-63330D01*
X103090Y-60808D01*
X102963Y-60499D01*
X102726Y-60262D01*
X102703Y-60253D01*
X102703Y-58554D01*
X102695Y-58256D01*
X102596Y-58016D01*
X102480Y-57965D01*
X102409Y-58035D01*
X102409Y-57894D01*
X102358Y-57778D01*
X102079Y-57671D01*
X101781Y-57679D01*
X101541Y-57778D01*
X101490Y-57894D01*
X101950Y-58354D01*
X102409Y-57894D01*
X102409Y-58035D01*
X102020Y-58425D01*
X102480Y-58884D01*
X102596Y-58833D01*
X102703Y-58554D01*
X102703Y-60253D01*
X102417Y-60134D01*
X102409Y-60134D01*
X102409Y-58955D01*
X101950Y-58495D01*
X101879Y-58566D01*
X101879Y-58425D01*
X101419Y-57965D01*
X101303Y-58016D01*
X101196Y-58295D01*
X101204Y-58593D01*
X101303Y-58833D01*
X101419Y-58884D01*
X101879Y-58425D01*
X101879Y-58566D01*
X101490Y-58955D01*
X101541Y-59071D01*
X101820Y-59178D01*
X102118Y-59170D01*
X102358Y-59071D01*
X102409Y-58955D01*
X102409Y-60134D01*
X102083Y-60134D01*
X101774Y-60262D01*
X101537Y-60498D01*
X101505Y-60577D01*
X101505Y-60204D01*
X101432Y-60028D01*
X101297Y-59893D01*
X101120Y-59820D01*
X100929Y-59819D01*
X100753Y-59892D01*
X100618Y-60027D01*
X100545Y-60204D01*
X100544Y-60395D01*
X100617Y-60571D01*
X100752Y-60706D01*
X100929Y-60779D01*
X101120Y-60780D01*
X101296Y-60707D01*
X101431Y-60572D01*
X101504Y-60395D01*
X101505Y-60204D01*
X101505Y-60577D01*
X101409Y-60807D01*
X101409Y-61141D01*
X101537Y-61450D01*
X101773Y-61687D01*
X102082Y-61815D01*
X102416Y-61815D01*
X102725Y-61688D01*
X102962Y-61451D01*
X103090Y-61142D01*
X103090Y-60808D01*
X103090Y-63330D01*
X99930Y-63330D01*
X99930Y-58404D01*
X99857Y-58228D01*
X99722Y-58093D01*
X99545Y-58020D01*
X99354Y-58019D01*
X99178Y-58092D01*
X99043Y-58227D01*
X98970Y-58404D01*
X98969Y-58595D01*
X99042Y-58771D01*
X99177Y-58906D01*
X99354Y-58979D01*
X99545Y-58980D01*
X99721Y-58907D01*
X99856Y-58772D01*
X99929Y-58595D01*
X99930Y-58404D01*
X99930Y-63330D01*
X99830Y-63330D01*
X99830Y-61254D01*
X99757Y-61078D01*
X99622Y-60943D01*
X99445Y-60870D01*
X99348Y-60869D01*
X99449Y-60624D01*
X99450Y-60326D01*
X99336Y-60050D01*
X99125Y-59839D01*
X98849Y-59725D01*
X98551Y-59724D01*
X98275Y-59838D01*
X98064Y-60049D01*
X97950Y-60325D01*
X97949Y-60623D01*
X98063Y-60899D01*
X98274Y-61110D01*
X98550Y-61224D01*
X98848Y-61225D01*
X98889Y-61208D01*
X98870Y-61254D01*
X98869Y-61445D01*
X98942Y-61621D01*
X99077Y-61756D01*
X99254Y-61829D01*
X99445Y-61830D01*
X99621Y-61757D01*
X99756Y-61622D01*
X99829Y-61445D01*
X99830Y-61254D01*
X99830Y-63330D01*
X99515Y-63330D01*
X99529Y-63295D01*
X99530Y-63104D01*
X99457Y-62928D01*
X99322Y-62793D01*
X99145Y-62720D01*
X98954Y-62719D01*
X98778Y-62792D01*
X98643Y-62927D01*
X98570Y-63104D01*
X98569Y-63295D01*
X98584Y-63330D01*
X94330Y-63330D01*
X94330Y-62404D01*
X94257Y-62228D01*
X94122Y-62093D01*
X93945Y-62020D01*
X93875Y-62020D01*
X93875Y-61380D01*
X93821Y-61252D01*
X93723Y-61153D01*
X93594Y-61100D01*
X93455Y-61099D01*
X93327Y-61153D01*
X93228Y-61251D01*
X93175Y-61380D01*
X93174Y-61519D01*
X93228Y-61648D01*
X93326Y-61746D01*
X93455Y-61799D01*
X93594Y-61800D01*
X93723Y-61746D01*
X93821Y-61648D01*
X93874Y-61519D01*
X93875Y-61380D01*
X93875Y-62020D01*
X93754Y-62019D01*
X93578Y-62092D01*
X93443Y-62227D01*
X93370Y-62404D01*
X93369Y-62595D01*
X93442Y-62771D01*
X93577Y-62906D01*
X93754Y-62979D01*
X93945Y-62980D01*
X94121Y-62907D01*
X94256Y-62772D01*
X94329Y-62595D01*
X94330Y-62404D01*
X94330Y-63330D01*
X86575Y-63330D01*
X86575Y-60326D01*
X86442Y-60005D01*
X86196Y-59758D01*
X85874Y-59625D01*
X85526Y-59624D01*
X85205Y-59757D01*
X84958Y-60003D01*
X84825Y-60325D01*
X84824Y-60673D01*
X84957Y-60995D01*
X85203Y-61241D01*
X85525Y-61374D01*
X85873Y-61375D01*
X86195Y-61242D01*
X86441Y-60996D01*
X86574Y-60674D01*
X86575Y-60326D01*
X86575Y-63330D01*
X85250Y-63330D01*
X85250Y-62714D01*
X85250Y-62285D01*
X85208Y-62074D01*
X85088Y-61896D01*
X84910Y-61777D01*
X84700Y-61735D01*
X84489Y-61777D01*
X84311Y-61896D01*
X84200Y-62062D01*
X84088Y-61896D01*
X83910Y-61777D01*
X83700Y-61735D01*
X83489Y-61777D01*
X83311Y-61896D01*
X83200Y-62062D01*
X83088Y-61896D01*
X82910Y-61777D01*
X82700Y-61735D01*
X82489Y-61777D01*
X82311Y-61896D01*
X82200Y-62062D01*
X82088Y-61896D01*
X81910Y-61777D01*
X81700Y-61735D01*
X81489Y-61777D01*
X81311Y-61896D01*
X81200Y-62062D01*
X81088Y-61896D01*
X80910Y-61777D01*
X80700Y-61735D01*
X80489Y-61777D01*
X80311Y-61896D01*
X80200Y-62062D01*
X80088Y-61896D01*
X79910Y-61777D01*
X79700Y-61735D01*
X79489Y-61777D01*
X79311Y-61896D01*
X79191Y-62074D01*
X79150Y-62285D01*
X79150Y-62714D01*
X79191Y-62925D01*
X79311Y-63103D01*
X79489Y-63222D01*
X79700Y-63264D01*
X79910Y-63222D01*
X80088Y-63103D01*
X80200Y-62937D01*
X80311Y-63103D01*
X80489Y-63222D01*
X80700Y-63264D01*
X80910Y-63222D01*
X81088Y-63103D01*
X81200Y-62937D01*
X81311Y-63103D01*
X81489Y-63222D01*
X81700Y-63264D01*
X81910Y-63222D01*
X82088Y-63103D01*
X82200Y-62937D01*
X82311Y-63103D01*
X82489Y-63222D01*
X82700Y-63264D01*
X82910Y-63222D01*
X83088Y-63103D01*
X83200Y-62937D01*
X83311Y-63103D01*
X83489Y-63222D01*
X83700Y-63264D01*
X83910Y-63222D01*
X84088Y-63103D01*
X84200Y-62937D01*
X84311Y-63103D01*
X84489Y-63222D01*
X84700Y-63264D01*
X84910Y-63222D01*
X85088Y-63103D01*
X85208Y-62925D01*
X85250Y-62714D01*
X85250Y-63330D01*
X78250Y-63330D01*
X78250Y-62714D01*
X78250Y-62285D01*
X78208Y-62074D01*
X78088Y-61896D01*
X77910Y-61777D01*
X77700Y-61735D01*
X77489Y-61777D01*
X77311Y-61896D01*
X77200Y-62062D01*
X77088Y-61896D01*
X76910Y-61777D01*
X76700Y-61735D01*
X76489Y-61777D01*
X76311Y-61896D01*
X76200Y-62062D01*
X76088Y-61896D01*
X75910Y-61777D01*
X75700Y-61735D01*
X75489Y-61777D01*
X75311Y-61896D01*
X75200Y-62062D01*
X75088Y-61896D01*
X74910Y-61777D01*
X74700Y-61735D01*
X74489Y-61777D01*
X74311Y-61896D01*
X74200Y-62062D01*
X74088Y-61896D01*
X73910Y-61777D01*
X73700Y-61735D01*
X73489Y-61777D01*
X73311Y-61896D01*
X73200Y-62062D01*
X73088Y-61896D01*
X72910Y-61777D01*
X72700Y-61735D01*
X72489Y-61777D01*
X72311Y-61896D01*
X72200Y-62062D01*
X72088Y-61896D01*
X71910Y-61777D01*
X71700Y-61735D01*
X71489Y-61777D01*
X71311Y-61896D01*
X71200Y-62062D01*
X71088Y-61896D01*
X70910Y-61777D01*
X70700Y-61735D01*
X70489Y-61777D01*
X70311Y-61896D01*
X70191Y-62074D01*
X70150Y-62285D01*
X70150Y-62714D01*
X70191Y-62925D01*
X70311Y-63103D01*
X70489Y-63222D01*
X70700Y-63264D01*
X70910Y-63222D01*
X71088Y-63103D01*
X71200Y-62937D01*
X71311Y-63103D01*
X71489Y-63222D01*
X71700Y-63264D01*
X71910Y-63222D01*
X72088Y-63103D01*
X72200Y-62937D01*
X72311Y-63103D01*
X72489Y-63222D01*
X72700Y-63264D01*
X72910Y-63222D01*
X73088Y-63103D01*
X73200Y-62937D01*
X73311Y-63103D01*
X73489Y-63222D01*
X73700Y-63264D01*
X73910Y-63222D01*
X74088Y-63103D01*
X74200Y-62937D01*
X74311Y-63103D01*
X74489Y-63222D01*
X74700Y-63264D01*
X74910Y-63222D01*
X75088Y-63103D01*
X75200Y-62937D01*
X75311Y-63103D01*
X75489Y-63222D01*
X75700Y-63264D01*
X75910Y-63222D01*
X76088Y-63103D01*
X76200Y-62937D01*
X76311Y-63103D01*
X76489Y-63222D01*
X76700Y-63264D01*
X76910Y-63222D01*
X77088Y-63103D01*
X77200Y-62937D01*
X77311Y-63103D01*
X77489Y-63222D01*
X77700Y-63264D01*
X77910Y-63222D01*
X78088Y-63103D01*
X78208Y-62925D01*
X78250Y-62714D01*
X78250Y-63330D01*
X65481Y-63330D01*
X65695Y-63242D01*
X65941Y-62996D01*
X66074Y-62674D01*
X66075Y-62326D01*
X65942Y-62005D01*
X65696Y-61758D01*
X65374Y-61625D01*
X65026Y-61624D01*
X64705Y-61757D01*
X64458Y-62003D01*
X64325Y-62325D01*
X64324Y-62673D01*
X64457Y-62995D01*
X64703Y-63241D01*
X64917Y-63330D01*
X62100Y-63330D01*
X62100Y-57550D01*
X73504Y-57563D01*
X73517Y-57596D01*
X73652Y-57731D01*
X73829Y-57804D01*
X74020Y-57805D01*
X74196Y-57732D01*
X74331Y-57597D01*
X74345Y-57564D01*
X104384Y-57598D01*
X104315Y-57765D01*
X104314Y-58013D01*
X104409Y-58243D01*
X104585Y-58419D01*
X104815Y-58514D01*
X105063Y-58515D01*
X105293Y-58420D01*
X105469Y-58244D01*
X105564Y-58014D01*
X105565Y-57766D01*
X105496Y-57599D01*
X105600Y-57599D01*
X105600Y-59100D01*
X103250Y-59100D01*
X103250Y-59744D01*
X103125Y-60045D01*
X103124Y-60452D01*
X103250Y-60755D01*
X103250Y-61800D01*
X105600Y-61800D01*
X105600Y-63330D01*
X105600Y-63330D01*
G37*
G54D33*
X105600Y-63330D02*
X105565Y-63330D01*
X105565Y-62486D01*
X105470Y-62256D01*
X105294Y-62080D01*
X105064Y-61985D01*
X104816Y-61984D01*
X104586Y-62079D01*
X104410Y-62255D01*
X104315Y-62485D01*
X104314Y-62733D01*
X104409Y-62963D01*
X104585Y-63139D01*
X104815Y-63234D01*
X105063Y-63235D01*
X105293Y-63140D01*
X105469Y-62964D01*
X105564Y-62734D01*
X105565Y-62486D01*
X105565Y-63330D01*
X103090Y-63330D01*
X103090Y-60808D01*
X102963Y-60499D01*
X102726Y-60262D01*
X102703Y-60253D01*
X102703Y-58554D01*
X102695Y-58256D01*
X102596Y-58016D01*
X102480Y-57965D01*
X102409Y-58035D01*
X102409Y-57894D01*
X102358Y-57778D01*
X102079Y-57671D01*
X101781Y-57679D01*
X101541Y-57778D01*
X101490Y-57894D01*
X101950Y-58354D01*
X102409Y-57894D01*
X102409Y-58035D01*
X102020Y-58425D01*
X102480Y-58884D01*
X102596Y-58833D01*
X102703Y-58554D01*
X102703Y-60253D01*
X102417Y-60134D01*
X102409Y-60134D01*
X102409Y-58955D01*
X101950Y-58495D01*
X101879Y-58566D01*
X101879Y-58425D01*
X101419Y-57965D01*
X101303Y-58016D01*
X101196Y-58295D01*
X101204Y-58593D01*
X101303Y-58833D01*
X101419Y-58884D01*
X101879Y-58425D01*
X101879Y-58566D01*
X101490Y-58955D01*
X101541Y-59071D01*
X101820Y-59178D01*
X102118Y-59170D01*
X102358Y-59071D01*
X102409Y-58955D01*
X102409Y-60134D01*
X102083Y-60134D01*
X101774Y-60262D01*
X101537Y-60498D01*
X101505Y-60577D01*
X101505Y-60204D01*
X101432Y-60028D01*
X101297Y-59893D01*
X101120Y-59820D01*
X100929Y-59819D01*
X100753Y-59892D01*
X100618Y-60027D01*
X100545Y-60204D01*
X100544Y-60395D01*
X100617Y-60571D01*
X100752Y-60706D01*
X100929Y-60779D01*
X101120Y-60780D01*
X101296Y-60707D01*
X101431Y-60572D01*
X101504Y-60395D01*
X101505Y-60204D01*
X101505Y-60577D01*
X101409Y-60807D01*
X101409Y-61141D01*
X101537Y-61450D01*
X101773Y-61687D01*
X102082Y-61815D01*
X102416Y-61815D01*
X102725Y-61688D01*
X102962Y-61451D01*
X103090Y-61142D01*
X103090Y-60808D01*
X103090Y-63330D01*
X99930Y-63330D01*
X99930Y-58404D01*
X99857Y-58228D01*
X99722Y-58093D01*
X99545Y-58020D01*
X99354Y-58019D01*
X99178Y-58092D01*
X99043Y-58227D01*
X98970Y-58404D01*
X98969Y-58595D01*
X99042Y-58771D01*
X99177Y-58906D01*
X99354Y-58979D01*
X99545Y-58980D01*
X99721Y-58907D01*
X99856Y-58772D01*
X99929Y-58595D01*
X99930Y-58404D01*
X99930Y-63330D01*
X99830Y-63330D01*
X99830Y-61254D01*
X99757Y-61078D01*
X99622Y-60943D01*
X99445Y-60870D01*
X99348Y-60869D01*
X99449Y-60624D01*
X99450Y-60326D01*
X99336Y-60050D01*
X99125Y-59839D01*
X98849Y-59725D01*
X98551Y-59724D01*
X98275Y-59838D01*
X98064Y-60049D01*
X97950Y-60325D01*
X97949Y-60623D01*
X98063Y-60899D01*
X98274Y-61110D01*
X98550Y-61224D01*
X98848Y-61225D01*
X98889Y-61208D01*
X98870Y-61254D01*
X98869Y-61445D01*
X98942Y-61621D01*
X99077Y-61756D01*
X99254Y-61829D01*
X99445Y-61830D01*
X99621Y-61757D01*
X99756Y-61622D01*
X99829Y-61445D01*
X99830Y-61254D01*
X99830Y-63330D01*
X99515Y-63330D01*
X99529Y-63295D01*
X99530Y-63104D01*
X99457Y-62928D01*
X99322Y-62793D01*
X99145Y-62720D01*
X98954Y-62719D01*
X98778Y-62792D01*
X98643Y-62927D01*
X98570Y-63104D01*
X98569Y-63295D01*
X98584Y-63330D01*
X94330Y-63330D01*
X94330Y-62404D01*
X94257Y-62228D01*
X94122Y-62093D01*
X93945Y-62020D01*
X93875Y-62020D01*
X93875Y-61380D01*
X93821Y-61252D01*
X93723Y-61153D01*
X93594Y-61100D01*
X93455Y-61099D01*
X93327Y-61153D01*
X93228Y-61251D01*
X93175Y-61380D01*
X93174Y-61519D01*
X93228Y-61648D01*
X93326Y-61746D01*
X93455Y-61799D01*
X93594Y-61800D01*
X93723Y-61746D01*
X93821Y-61648D01*
X93874Y-61519D01*
X93875Y-61380D01*
X93875Y-62020D01*
X93754Y-62019D01*
X93578Y-62092D01*
X93443Y-62227D01*
X93370Y-62404D01*
X93369Y-62595D01*
X93442Y-62771D01*
X93577Y-62906D01*
X93754Y-62979D01*
X93945Y-62980D01*
X94121Y-62907D01*
X94256Y-62772D01*
X94329Y-62595D01*
X94330Y-62404D01*
X94330Y-63330D01*
X86575Y-63330D01*
X86575Y-60326D01*
X86442Y-60005D01*
X86196Y-59758D01*
X85874Y-59625D01*
X85526Y-59624D01*
X85205Y-59757D01*
X84958Y-60003D01*
X84825Y-60325D01*
X84824Y-60673D01*
X84957Y-60995D01*
X85203Y-61241D01*
X85525Y-61374D01*
X85873Y-61375D01*
X86195Y-61242D01*
X86441Y-60996D01*
X86574Y-60674D01*
X86575Y-60326D01*
X86575Y-63330D01*
X85250Y-63330D01*
X85250Y-62714D01*
X85250Y-62285D01*
X85208Y-62074D01*
X85088Y-61896D01*
X84910Y-61777D01*
X84700Y-61735D01*
X84489Y-61777D01*
X84311Y-61896D01*
X84200Y-62062D01*
X84088Y-61896D01*
X83910Y-61777D01*
X83700Y-61735D01*
X83489Y-61777D01*
X83311Y-61896D01*
X83200Y-62062D01*
X83088Y-61896D01*
X82910Y-61777D01*
X82700Y-61735D01*
X82489Y-61777D01*
X82311Y-61896D01*
X82200Y-62062D01*
X82088Y-61896D01*
X81910Y-61777D01*
X81700Y-61735D01*
X81489Y-61777D01*
X81311Y-61896D01*
X81200Y-62062D01*
X81088Y-61896D01*
X80910Y-61777D01*
X80700Y-61735D01*
X80489Y-61777D01*
X80311Y-61896D01*
X80200Y-62062D01*
X80088Y-61896D01*
X79910Y-61777D01*
X79700Y-61735D01*
X79489Y-61777D01*
X79311Y-61896D01*
X79191Y-62074D01*
X79150Y-62285D01*
X79150Y-62714D01*
X79191Y-62925D01*
X79311Y-63103D01*
X79489Y-63222D01*
X79700Y-63264D01*
X79910Y-63222D01*
X80088Y-63103D01*
X80200Y-62937D01*
X80311Y-63103D01*
X80489Y-63222D01*
X80700Y-63264D01*
X80910Y-63222D01*
X81088Y-63103D01*
X81200Y-62937D01*
X81311Y-63103D01*
X81489Y-63222D01*
X81700Y-63264D01*
X81910Y-63222D01*
X82088Y-63103D01*
X82200Y-62937D01*
X82311Y-63103D01*
X82489Y-63222D01*
X82700Y-63264D01*
X82910Y-63222D01*
X83088Y-63103D01*
X83200Y-62937D01*
X83311Y-63103D01*
X83489Y-63222D01*
X83700Y-63264D01*
X83910Y-63222D01*
X84088Y-63103D01*
X84200Y-62937D01*
X84311Y-63103D01*
X84489Y-63222D01*
X84700Y-63264D01*
X84910Y-63222D01*
X85088Y-63103D01*
X85208Y-62925D01*
X85250Y-62714D01*
X85250Y-63330D01*
X78250Y-63330D01*
X78250Y-62714D01*
X78250Y-62285D01*
X78208Y-62074D01*
X78088Y-61896D01*
X77910Y-61777D01*
X77700Y-61735D01*
X77489Y-61777D01*
X77311Y-61896D01*
X77200Y-62062D01*
X77088Y-61896D01*
X76910Y-61777D01*
X76700Y-61735D01*
X76489Y-61777D01*
X76311Y-61896D01*
X76200Y-62062D01*
X76088Y-61896D01*
X75910Y-61777D01*
X75700Y-61735D01*
X75489Y-61777D01*
X75311Y-61896D01*
X75200Y-62062D01*
X75088Y-61896D01*
X74910Y-61777D01*
X74700Y-61735D01*
X74489Y-61777D01*
X74311Y-61896D01*
X74200Y-62062D01*
X74088Y-61896D01*
X73910Y-61777D01*
X73700Y-61735D01*
X73489Y-61777D01*
X73311Y-61896D01*
X73200Y-62062D01*
X73088Y-61896D01*
X72910Y-61777D01*
X72700Y-61735D01*
X72489Y-61777D01*
X72311Y-61896D01*
X72200Y-62062D01*
X72088Y-61896D01*
X71910Y-61777D01*
X71700Y-61735D01*
X71489Y-61777D01*
X71311Y-61896D01*
X71200Y-62062D01*
X71088Y-61896D01*
X70910Y-61777D01*
X70700Y-61735D01*
X70489Y-61777D01*
X70311Y-61896D01*
X70191Y-62074D01*
X70150Y-62285D01*
X70150Y-62714D01*
X70191Y-62925D01*
X70311Y-63103D01*
X70489Y-63222D01*
X70700Y-63264D01*
X70910Y-63222D01*
X71088Y-63103D01*
X71200Y-62937D01*
X71311Y-63103D01*
X71489Y-63222D01*
X71700Y-63264D01*
X71910Y-63222D01*
X72088Y-63103D01*
X72200Y-62937D01*
X72311Y-63103D01*
X72489Y-63222D01*
X72700Y-63264D01*
X72910Y-63222D01*
X73088Y-63103D01*
X73200Y-62937D01*
X73311Y-63103D01*
X73489Y-63222D01*
X73700Y-63264D01*
X73910Y-63222D01*
X74088Y-63103D01*
X74200Y-62937D01*
X74311Y-63103D01*
X74489Y-63222D01*
X74700Y-63264D01*
X74910Y-63222D01*
X75088Y-63103D01*
X75200Y-62937D01*
X75311Y-63103D01*
X75489Y-63222D01*
X75700Y-63264D01*
X75910Y-63222D01*
X76088Y-63103D01*
X76200Y-62937D01*
X76311Y-63103D01*
X76489Y-63222D01*
X76700Y-63264D01*
X76910Y-63222D01*
X77088Y-63103D01*
X77200Y-62937D01*
X77311Y-63103D01*
X77489Y-63222D01*
X77700Y-63264D01*
X77910Y-63222D01*
X78088Y-63103D01*
X78208Y-62925D01*
X78250Y-62714D01*
X78250Y-63330D01*
X65481Y-63330D01*
X65695Y-63242D01*
X65941Y-62996D01*
X66074Y-62674D01*
X66075Y-62326D01*
X65942Y-62005D01*
X65696Y-61758D01*
X65374Y-61625D01*
X65026Y-61624D01*
X64705Y-61757D01*
X64458Y-62003D01*
X64325Y-62325D01*
X64324Y-62673D01*
X64457Y-62995D01*
X64703Y-63241D01*
X64917Y-63330D01*
X62100Y-63330D01*
X62100Y-57550D01*
X73504Y-57563D01*
X73517Y-57596D01*
X73652Y-57731D01*
X73829Y-57804D01*
X74020Y-57805D01*
X74196Y-57732D01*
X74331Y-57597D01*
X74345Y-57564D01*
X104384Y-57598D01*
X104315Y-57765D01*
X104314Y-58013D01*
X104409Y-58243D01*
X104585Y-58419D01*
X104815Y-58514D01*
X105063Y-58515D01*
X105293Y-58420D01*
X105469Y-58244D01*
X105564Y-58014D01*
X105565Y-57766D01*
X105496Y-57599D01*
X105600Y-57599D01*
X105600Y-59100D01*
X103250Y-59100D01*
X103250Y-59744D01*
X103125Y-60045D01*
X103124Y-60452D01*
X103250Y-60755D01*
X103250Y-61800D01*
X105600Y-61800D01*
X105600Y-63330D01*
M02*
