G04 (created by PCBNEW (2013-07-07 BZR 4022)-stable) date 27/03/2014 17:50:44*
%MOIN*%
G04 Gerber Fmt 3.4, Leading zero omitted, Abs format*
%FSLAX34Y34*%
G01*
G70*
G90*
G04 APERTURE LIST*
%ADD10C,0.006*%
%ADD11C,0.0984252*%
%ADD12R,0.036X0.036*%
%ADD13R,0.035X0.055*%
%ADD14R,0.012X0.02*%
%ADD15R,0.06X0.08*%
%ADD16R,0.055X0.035*%
%ADD17R,0.06X0.06*%
%ADD18C,0.06*%
%ADD19R,0.0787402X0.0787402*%
%ADD20C,0.0787402*%
%ADD21R,0.15X0.055*%
%ADD22R,0.055X0.15*%
%ADD23R,0.11X0.07*%
%ADD24C,0.075*%
%ADD25C,0.16*%
%ADD26R,0.1X0.2*%
%ADD27R,0.1X0.05*%
%ADD28R,0.05X0.1*%
%ADD29C,0.07*%
%ADD30R,0.07X0.07*%
%ADD31O,0.0866142X0.110236*%
%ADD32C,0.0629921*%
%ADD33C,0.0551181*%
%ADD34O,0.06X0.1*%
%ADD35R,0.11811X0.11811*%
%ADD36C,0.11811*%
%ADD37C,0.1*%
%ADD38C,0.046*%
%ADD39C,0.027*%
%ADD40C,0.035*%
%ADD41C,0.036*%
%ADD42C,0.024*%
%ADD43C,0.01*%
%ADD44C,0.15*%
%ADD45C,0.048*%
G04 APERTURE END LIST*
G54D10*
G54D11*
X95650Y-39550D03*
G54D12*
X102700Y-62150D03*
X102700Y-62850D03*
X103500Y-62500D03*
G54D13*
X100275Y-62700D03*
X101025Y-62700D03*
X92025Y-62450D03*
X92775Y-62450D03*
X100925Y-58500D03*
X100175Y-58500D03*
G54D14*
X109975Y-48750D03*
X109475Y-48750D03*
X109975Y-47950D03*
X109725Y-48750D03*
X109475Y-47950D03*
G54D15*
X98150Y-47200D03*
X96850Y-47200D03*
X94150Y-47200D03*
X95450Y-47200D03*
X100450Y-50175D03*
X101750Y-50175D03*
X96850Y-48300D03*
X98150Y-48300D03*
G54D16*
X89525Y-55000D03*
X89525Y-55750D03*
G54D13*
X94050Y-48275D03*
X93300Y-48275D03*
X91250Y-48275D03*
X90500Y-48275D03*
G54D16*
X103450Y-48325D03*
X103450Y-47575D03*
X101200Y-45975D03*
X101200Y-46725D03*
G54D13*
X109350Y-47100D03*
X110100Y-47100D03*
X104875Y-49100D03*
X104125Y-49100D03*
X104875Y-48200D03*
X104125Y-48200D03*
X103275Y-50250D03*
X102525Y-50250D03*
X104875Y-47200D03*
X104125Y-47200D03*
X96975Y-49900D03*
X97725Y-49900D03*
G54D17*
X105700Y-46700D03*
G54D18*
X106700Y-46700D03*
X105700Y-47700D03*
X106700Y-47700D03*
X105700Y-48700D03*
X106700Y-48700D03*
G54D13*
X93625Y-46100D03*
X92875Y-46100D03*
G54D19*
X112600Y-62000D03*
G54D20*
X112600Y-60031D03*
X112600Y-58062D03*
G54D19*
X112800Y-54750D03*
G54D20*
X112800Y-53372D03*
X112800Y-51994D03*
X112800Y-50616D03*
X112800Y-49238D03*
X112800Y-47860D03*
X112800Y-46482D03*
X112800Y-45104D03*
X112800Y-43726D03*
X112800Y-42348D03*
X112800Y-40970D03*
X112800Y-39592D03*
G54D13*
X78400Y-56525D03*
X77650Y-56525D03*
G54D12*
X99250Y-45675D03*
X98550Y-45675D03*
X98900Y-46475D03*
G54D21*
X110950Y-53750D03*
X110950Y-51950D03*
G54D16*
X102925Y-52775D03*
X102925Y-52025D03*
X90575Y-52275D03*
X90575Y-51525D03*
G54D21*
X58250Y-53050D03*
X58250Y-51250D03*
G54D22*
X57650Y-61100D03*
X59450Y-61100D03*
G54D21*
X61150Y-58100D03*
X61150Y-56300D03*
G54D22*
X53850Y-40325D03*
X55650Y-40325D03*
G54D23*
X60700Y-53250D03*
X60700Y-51850D03*
G54D13*
X100050Y-42650D03*
X100800Y-42650D03*
X104825Y-40200D03*
X105575Y-40200D03*
X105925Y-42550D03*
X105175Y-42550D03*
X107675Y-42575D03*
X106925Y-42575D03*
G54D16*
X95800Y-43500D03*
X95800Y-44250D03*
G54D13*
X103225Y-45000D03*
X103975Y-45000D03*
X104900Y-44875D03*
X105650Y-44875D03*
G54D16*
X90525Y-44225D03*
X90525Y-43475D03*
X96775Y-43500D03*
X96775Y-44250D03*
G54D13*
X101800Y-40225D03*
X102550Y-40225D03*
X99250Y-41900D03*
X100000Y-41900D03*
X68550Y-41150D03*
X67800Y-41150D03*
X66650Y-41150D03*
X65900Y-41150D03*
X65900Y-40300D03*
X66650Y-40300D03*
X67800Y-40300D03*
X68550Y-40300D03*
G54D16*
X89550Y-44225D03*
X89550Y-43475D03*
X104200Y-42025D03*
X104200Y-42775D03*
G54D13*
X100225Y-43775D03*
X99475Y-43775D03*
G54D16*
X94800Y-43500D03*
X94800Y-44250D03*
X88525Y-44225D03*
X88525Y-43475D03*
G54D12*
X90525Y-41300D03*
X90525Y-40600D03*
X89725Y-40950D03*
X106375Y-44850D03*
X106375Y-45550D03*
X107175Y-45200D03*
X101925Y-44600D03*
X101225Y-44600D03*
X101575Y-45400D03*
X94700Y-40550D03*
X94700Y-41250D03*
X95500Y-40900D03*
X97150Y-40500D03*
X96450Y-40500D03*
X96800Y-41300D03*
X101625Y-42200D03*
X101625Y-42900D03*
X102425Y-42550D03*
X87600Y-40125D03*
X87600Y-40825D03*
X88400Y-40475D03*
X108525Y-44700D03*
X107825Y-44700D03*
X108175Y-45500D03*
G54D13*
X112775Y-55900D03*
X112025Y-55900D03*
G54D16*
X93475Y-54900D03*
X93475Y-55650D03*
G54D24*
X104150Y-60250D03*
X104940Y-57890D03*
X109740Y-57890D03*
X109740Y-62610D03*
X104940Y-62610D03*
G54D25*
X63300Y-52700D03*
G54D17*
X63200Y-55150D03*
G54D18*
X63200Y-56150D03*
G54D26*
X63200Y-55650D03*
G54D10*
G36*
X65072Y-54046D02*
X65496Y-53622D01*
X65920Y-54046D01*
X65496Y-54470D01*
X65072Y-54046D01*
X65072Y-54046D01*
G37*
G54D18*
X66203Y-54753D03*
G54D10*
G36*
X64789Y-54046D02*
X65496Y-53339D01*
X66910Y-54753D01*
X66203Y-55460D01*
X64789Y-54046D01*
X64789Y-54046D01*
G37*
G54D17*
X63200Y-51050D03*
G54D18*
X63200Y-50050D03*
G54D26*
X63200Y-50550D03*
G54D10*
G36*
X65296Y-51977D02*
X64872Y-51553D01*
X65296Y-51129D01*
X65720Y-51553D01*
X65296Y-51977D01*
X65296Y-51977D01*
G37*
G54D18*
X66003Y-50846D03*
G54D10*
G36*
X65296Y-52260D02*
X64589Y-51553D01*
X66003Y-50139D01*
X66710Y-50846D01*
X65296Y-52260D01*
X65296Y-52260D01*
G37*
G54D13*
X92650Y-48275D03*
X91900Y-48275D03*
G54D10*
G36*
X79975Y-45700D02*
X79425Y-45700D01*
X79625Y-45050D01*
X79775Y-45050D01*
X79975Y-45700D01*
X79975Y-45700D01*
G37*
G36*
X79625Y-44950D02*
X79425Y-44300D01*
X79975Y-44300D01*
X79775Y-44950D01*
X79625Y-44950D01*
X79625Y-44950D01*
G37*
G36*
X75375Y-46000D02*
X74825Y-46000D01*
X75025Y-45350D01*
X75175Y-45350D01*
X75375Y-46000D01*
X75375Y-46000D01*
G37*
G36*
X75025Y-45250D02*
X74825Y-44600D01*
X75375Y-44600D01*
X75175Y-45250D01*
X75025Y-45250D01*
X75025Y-45250D01*
G37*
G36*
X72375Y-46550D02*
X71825Y-46550D01*
X72025Y-45900D01*
X72175Y-45900D01*
X72375Y-46550D01*
X72375Y-46550D01*
G37*
G36*
X72025Y-45800D02*
X71825Y-45150D01*
X72375Y-45150D01*
X72175Y-45800D01*
X72025Y-45800D01*
X72025Y-45800D01*
G37*
G36*
X73375Y-46000D02*
X72825Y-46000D01*
X73025Y-45350D01*
X73175Y-45350D01*
X73375Y-46000D01*
X73375Y-46000D01*
G37*
G36*
X73025Y-45250D02*
X72825Y-44600D01*
X73375Y-44600D01*
X73175Y-45250D01*
X73025Y-45250D01*
X73025Y-45250D01*
G37*
G36*
X78975Y-45875D02*
X78425Y-45875D01*
X78625Y-45225D01*
X78775Y-45225D01*
X78975Y-45875D01*
X78975Y-45875D01*
G37*
G36*
X78625Y-45125D02*
X78425Y-44475D01*
X78975Y-44475D01*
X78775Y-45125D01*
X78625Y-45125D01*
X78625Y-45125D01*
G37*
G36*
X76400Y-46600D02*
X75850Y-46600D01*
X76050Y-45950D01*
X76200Y-45950D01*
X76400Y-46600D01*
X76400Y-46600D01*
G37*
G36*
X76050Y-45850D02*
X75850Y-45200D01*
X76400Y-45200D01*
X76200Y-45850D01*
X76050Y-45850D01*
X76050Y-45850D01*
G37*
G54D16*
X110150Y-44825D03*
X110150Y-44075D03*
G54D27*
X111550Y-39275D03*
X111550Y-40475D03*
G54D28*
X111600Y-42850D03*
X110400Y-42850D03*
X111625Y-41550D03*
X110425Y-41550D03*
G54D27*
X111225Y-45075D03*
X111225Y-43875D03*
G54D13*
X91825Y-49600D03*
X92575Y-49600D03*
G54D11*
X89400Y-39500D03*
G54D13*
X91650Y-39600D03*
X90900Y-39600D03*
X93425Y-39600D03*
X94175Y-39600D03*
G54D29*
X89525Y-42250D03*
X90525Y-42250D03*
G54D30*
X88525Y-42250D03*
G54D29*
X106800Y-43800D03*
X107800Y-43800D03*
G54D30*
X105800Y-43800D03*
G54D29*
X102000Y-43825D03*
X103000Y-43825D03*
G54D30*
X101000Y-43825D03*
G54D29*
X95800Y-42250D03*
X96800Y-42250D03*
G54D30*
X94800Y-42250D03*
G54D31*
X74279Y-40616D03*
X70420Y-40616D03*
G54D32*
X72350Y-39750D03*
X73334Y-39750D03*
X71365Y-39750D03*
G54D31*
X80729Y-40616D03*
X76870Y-40616D03*
G54D32*
X78800Y-39750D03*
X79784Y-39750D03*
X77815Y-39750D03*
G54D33*
X65623Y-39425D03*
X64835Y-39425D03*
X64048Y-39425D03*
G54D34*
X84700Y-62500D03*
X84700Y-43500D03*
X83700Y-43500D03*
X82700Y-43500D03*
X81700Y-43500D03*
X80700Y-43500D03*
X79700Y-43500D03*
X78700Y-43500D03*
X77700Y-43500D03*
X76100Y-43500D03*
X75100Y-43500D03*
X74100Y-43500D03*
X73100Y-43500D03*
X72100Y-43500D03*
X71100Y-43500D03*
X70100Y-43500D03*
X69100Y-43500D03*
X83700Y-62500D03*
X82700Y-62500D03*
X81700Y-62500D03*
X80700Y-62500D03*
X79700Y-62500D03*
X77700Y-62500D03*
X76700Y-62500D03*
X75700Y-62500D03*
X74700Y-62500D03*
X73700Y-62500D03*
X72700Y-62500D03*
X71700Y-62500D03*
X70700Y-62500D03*
G54D35*
X53824Y-60588D03*
G54D36*
X53824Y-58935D03*
X53824Y-57281D03*
X53824Y-55628D03*
X53824Y-53974D03*
X53824Y-52321D03*
X53824Y-50667D03*
X53824Y-49014D03*
X53824Y-47360D03*
X53824Y-45707D03*
X53824Y-44053D03*
X53824Y-42400D03*
X55989Y-60588D03*
X55989Y-58935D03*
X55989Y-57281D03*
X55989Y-55628D03*
X55989Y-53974D03*
X55938Y-52321D03*
X55989Y-50667D03*
X55989Y-49014D03*
X55989Y-47360D03*
X55989Y-45707D03*
X55989Y-44053D03*
X55989Y-42400D03*
G54D37*
X94450Y-49425D03*
X104300Y-41100D03*
X92525Y-42075D03*
X101950Y-58425D03*
X98700Y-60475D03*
X86900Y-46625D03*
X108050Y-48575D03*
X98475Y-44850D03*
G54D13*
X95700Y-49200D03*
X96450Y-49200D03*
X111700Y-50850D03*
X110950Y-50850D03*
X100425Y-46550D03*
X99675Y-46550D03*
G54D17*
X102300Y-41050D03*
G54D18*
X101300Y-41050D03*
X100300Y-41050D03*
G54D17*
X105725Y-41075D03*
G54D18*
X106725Y-41075D03*
X107725Y-41075D03*
G54D38*
X109250Y-43300D03*
X101825Y-52700D03*
X55600Y-61900D03*
X77700Y-59325D03*
X101000Y-59650D03*
X59450Y-59700D03*
X62300Y-43700D03*
G54D39*
X56825Y-39800D03*
G54D38*
X85350Y-41000D03*
X64300Y-43850D03*
X60800Y-55200D03*
G54D40*
X88500Y-54950D03*
G54D38*
X65300Y-55450D03*
G54D39*
X91950Y-47525D03*
X90000Y-51450D03*
X108700Y-47100D03*
G54D38*
X61150Y-50900D03*
X57350Y-41375D03*
X87125Y-41800D03*
X62350Y-41350D03*
G54D39*
X93500Y-50750D03*
X84725Y-46200D03*
X97825Y-45400D03*
X84700Y-53925D03*
X74150Y-48050D03*
X73275Y-48125D03*
X93525Y-61450D03*
X88600Y-52300D03*
X88375Y-50475D03*
X67225Y-39800D03*
X67300Y-40825D03*
X76125Y-47000D03*
X82000Y-46700D03*
X93150Y-51925D03*
X92750Y-50425D03*
X80075Y-46775D03*
X88075Y-51300D03*
X82700Y-46975D03*
X92800Y-52100D03*
G54D38*
X90225Y-55275D03*
X96725Y-56875D03*
G54D39*
X92575Y-54875D03*
X86625Y-39350D03*
G54D38*
X84575Y-40900D03*
G54D39*
X93300Y-46850D03*
X91400Y-47450D03*
X90650Y-47475D03*
X102150Y-47400D03*
X88350Y-47425D03*
X95200Y-48950D03*
X99950Y-45225D03*
G54D38*
X104375Y-44300D03*
X104775Y-43225D03*
X95125Y-50300D03*
G54D39*
X110750Y-47100D03*
X99300Y-45150D03*
X92475Y-51825D03*
X89700Y-48725D03*
G54D38*
X101775Y-52050D03*
X103450Y-48925D03*
X101200Y-47350D03*
X105675Y-45575D03*
X103500Y-46950D03*
X60050Y-44950D03*
G54D39*
X61150Y-39175D03*
X75975Y-56700D03*
G54D38*
X73925Y-57325D03*
X60550Y-47300D03*
X88700Y-55750D03*
X111475Y-55700D03*
X92775Y-55275D03*
G54D40*
X92525Y-39600D03*
G54D38*
X92550Y-43800D03*
G54D39*
X65175Y-40675D03*
G54D38*
X99450Y-58500D03*
G54D39*
X99450Y-47775D03*
X98875Y-47200D03*
X92400Y-47600D03*
X90925Y-49575D03*
X109125Y-49000D03*
X91350Y-49500D03*
X98250Y-49925D03*
X98850Y-48300D03*
X98400Y-46450D03*
X101600Y-47750D03*
X103600Y-46100D03*
X91950Y-45375D03*
X103750Y-46550D03*
X102200Y-48550D03*
G54D38*
X99050Y-63200D03*
X93850Y-62500D03*
X101025Y-60300D03*
X99350Y-61350D03*
G54D41*
X102925Y-52775D02*
X103050Y-52650D01*
X109850Y-52650D02*
X110950Y-53750D01*
X103050Y-52650D02*
X109850Y-52650D01*
X102925Y-52775D02*
X102850Y-52700D01*
X102850Y-52700D02*
X101825Y-52700D01*
X56250Y-61900D02*
X56700Y-61450D01*
X57050Y-61100D02*
X57650Y-61100D01*
X56700Y-61450D02*
X57050Y-61100D01*
X55600Y-61900D02*
X56250Y-61900D01*
X59450Y-59700D02*
X59450Y-61100D01*
G54D42*
X101300Y-41050D02*
X101300Y-40450D01*
X101525Y-40225D02*
X101800Y-40225D01*
X101300Y-40450D02*
X101525Y-40225D01*
X96775Y-43500D02*
X96775Y-42275D01*
X96775Y-42275D02*
X96800Y-42250D01*
X96800Y-42250D02*
X96800Y-41300D01*
G54D41*
X83675Y-42325D02*
X83775Y-42325D01*
X83675Y-42325D02*
X64850Y-42350D01*
X83775Y-42325D02*
X84025Y-42325D01*
X111600Y-42850D02*
X112298Y-42850D01*
X112298Y-42850D02*
X112800Y-42348D01*
G54D43*
X56100Y-39875D02*
X55650Y-40325D01*
X56750Y-39875D02*
X56100Y-39875D01*
X56825Y-39800D02*
X56750Y-39875D01*
G54D41*
X64850Y-42350D02*
X64750Y-42350D01*
X62725Y-40325D02*
X55650Y-40325D01*
X64750Y-42350D02*
X62725Y-40325D01*
X64850Y-42350D02*
X64850Y-42350D01*
X84025Y-42325D02*
X85350Y-41000D01*
X60200Y-55200D02*
X60800Y-55200D01*
X62100Y-46050D02*
X63650Y-44500D01*
X60500Y-46050D02*
X62100Y-46050D01*
X59450Y-47100D02*
X60500Y-46050D01*
X59450Y-54450D02*
X59450Y-47100D01*
X60200Y-55200D02*
X59450Y-54450D01*
X63650Y-44500D02*
X64300Y-43850D01*
X111225Y-45075D02*
X112770Y-45075D01*
X112770Y-45075D02*
X112800Y-45104D01*
G54D42*
X89525Y-55000D02*
X88550Y-55000D01*
X88550Y-55000D02*
X88500Y-54950D01*
G54D41*
X60800Y-55200D02*
X61750Y-54250D01*
X64100Y-54250D02*
X65300Y-55450D01*
X61750Y-54250D02*
X64100Y-54250D01*
X60700Y-53250D02*
X60700Y-55100D01*
X61150Y-55550D02*
X60800Y-55200D01*
X61150Y-55550D02*
X61150Y-56300D01*
X60700Y-55100D02*
X60800Y-55200D01*
G54D43*
X89500Y-47100D02*
X89950Y-47100D01*
X89600Y-47100D02*
X89675Y-47100D01*
X86900Y-46625D02*
X87450Y-46625D01*
X89575Y-47100D02*
X89600Y-47100D01*
X89700Y-47100D02*
X89950Y-47100D01*
X89950Y-47100D02*
X90800Y-47100D01*
X91050Y-48075D02*
X91250Y-48275D01*
X91050Y-47350D02*
X91050Y-48075D01*
X90800Y-47100D02*
X91050Y-47350D01*
X87925Y-47100D02*
X89500Y-47100D01*
X89500Y-47100D02*
X89575Y-47100D01*
X87450Y-46625D02*
X87925Y-47100D01*
X91250Y-47950D02*
X91250Y-48275D01*
X91525Y-47675D02*
X91250Y-47950D01*
X91800Y-47675D02*
X91525Y-47675D01*
X91950Y-47525D02*
X91800Y-47675D01*
X90075Y-51525D02*
X90575Y-51525D01*
X90000Y-51450D02*
X90075Y-51525D01*
X91250Y-48275D02*
X91250Y-47975D01*
X91900Y-48275D02*
X91250Y-48275D01*
X109350Y-47100D02*
X108700Y-47100D01*
X109475Y-47950D02*
X109475Y-47700D01*
X109350Y-47575D02*
X109350Y-47100D01*
X109475Y-47700D02*
X109350Y-47575D01*
G54D41*
X60700Y-51350D02*
X61150Y-50900D01*
X60700Y-51350D02*
X60700Y-51850D01*
X58250Y-51250D02*
X58250Y-42550D01*
X58250Y-42550D02*
X57350Y-41375D01*
G54D42*
X105575Y-40200D02*
X106425Y-40200D01*
X106725Y-40500D02*
X106725Y-41075D01*
X106425Y-40200D02*
X106725Y-40500D01*
X87600Y-41325D02*
X87600Y-40825D01*
X87125Y-41800D02*
X87600Y-41325D01*
G54D41*
X89550Y-43475D02*
X89550Y-42275D01*
X89550Y-42275D02*
X89525Y-42250D01*
G54D42*
X89600Y-42200D02*
X89550Y-42250D01*
G54D43*
X91300Y-50050D02*
X92800Y-50050D01*
X92800Y-50050D02*
X93500Y-50750D01*
X89350Y-50050D02*
X91300Y-50050D01*
X91300Y-50050D02*
X91325Y-50050D01*
X85774Y-46474D02*
X89350Y-50050D01*
X84999Y-46474D02*
X85774Y-46474D01*
X84725Y-46200D02*
X84999Y-46474D01*
X98550Y-45675D02*
X98100Y-45675D01*
X98100Y-45675D02*
X97825Y-45400D01*
X75100Y-46525D02*
X75100Y-46900D01*
X75100Y-46525D02*
X75100Y-45675D01*
X84175Y-53400D02*
X84700Y-53925D01*
X84175Y-49475D02*
X84175Y-53400D01*
X83650Y-48950D02*
X84175Y-49475D01*
X77150Y-48950D02*
X83650Y-48950D01*
X75100Y-46900D02*
X77150Y-48950D01*
X73100Y-47000D02*
X73100Y-45675D01*
X74150Y-48050D02*
X73100Y-47000D01*
X72100Y-46950D02*
X72100Y-46225D01*
X73275Y-48125D02*
X72100Y-46950D01*
X72100Y-46225D02*
X72100Y-46575D01*
X78700Y-45550D02*
X78700Y-46100D01*
X93150Y-61450D02*
X93525Y-61450D01*
X84675Y-52975D02*
X93150Y-61450D01*
X84675Y-49175D02*
X84675Y-52975D01*
X83800Y-48300D02*
X84675Y-49175D01*
X80900Y-48300D02*
X83800Y-48300D01*
X78700Y-46100D02*
X80900Y-48300D01*
X78400Y-56525D02*
X83925Y-56525D01*
X89850Y-62450D02*
X92025Y-62450D01*
X83925Y-56525D02*
X89850Y-62450D01*
X88600Y-52300D02*
X88375Y-52075D01*
X88375Y-52075D02*
X88375Y-50475D01*
X88375Y-50475D02*
X88400Y-50475D01*
X67425Y-40300D02*
X67800Y-40300D01*
X67225Y-40100D02*
X67425Y-40300D01*
X67225Y-39800D02*
X67225Y-40100D01*
X66650Y-40300D02*
X67800Y-40300D01*
X66975Y-41150D02*
X66650Y-41150D01*
X66975Y-41150D02*
X67300Y-40825D01*
X66650Y-41150D02*
X67800Y-41150D01*
X76125Y-46275D02*
X76125Y-47000D01*
X82962Y-46712D02*
X82012Y-46712D01*
X82012Y-46712D02*
X82000Y-46700D01*
X83175Y-46925D02*
X82962Y-46712D01*
X85625Y-46925D02*
X83175Y-46925D01*
X89221Y-50521D02*
X85625Y-46925D01*
X92321Y-50521D02*
X89221Y-50521D01*
X93150Y-51350D02*
X92321Y-50521D01*
X93150Y-51925D02*
X93150Y-51350D01*
X89275Y-50275D02*
X89025Y-50025D01*
X92600Y-50275D02*
X89275Y-50275D01*
X92750Y-50425D02*
X92600Y-50275D01*
X89025Y-50025D02*
X85675Y-46675D01*
X83275Y-46675D02*
X85675Y-46675D01*
X83100Y-46500D02*
X83275Y-46675D01*
X82287Y-46412D02*
X79962Y-46412D01*
X82375Y-46500D02*
X82900Y-46500D01*
X82287Y-46412D02*
X82375Y-46500D01*
X82900Y-46500D02*
X83100Y-46500D01*
X79700Y-46125D02*
X79700Y-46150D01*
X79700Y-45375D02*
X79700Y-46125D01*
X79700Y-46150D02*
X79962Y-46412D01*
X79962Y-46412D02*
X79975Y-46425D01*
X82375Y-47550D02*
X82800Y-47550D01*
X81600Y-46775D02*
X82375Y-47550D01*
X80075Y-46775D02*
X81600Y-46775D01*
X88025Y-50025D02*
X88025Y-50000D01*
X88025Y-50000D02*
X85575Y-47550D01*
X85575Y-47550D02*
X82800Y-47550D01*
X88025Y-51000D02*
X88025Y-50025D01*
X88025Y-50025D02*
X88025Y-50000D01*
X88025Y-51250D02*
X88025Y-51000D01*
X88075Y-51300D02*
X88025Y-51250D01*
G54D42*
X110950Y-50850D02*
X110950Y-50375D01*
X112086Y-49238D02*
X112800Y-49238D01*
X110950Y-50375D02*
X112086Y-49238D01*
X110950Y-50850D02*
X110950Y-51950D01*
X111700Y-50850D02*
X112566Y-50850D01*
X112566Y-50850D02*
X112800Y-50616D01*
X113300Y-45850D02*
X112000Y-45850D01*
X113255Y-51994D02*
X113650Y-51600D01*
X113650Y-51600D02*
X113650Y-46200D01*
X113650Y-46200D02*
X113300Y-45850D01*
X112800Y-51994D02*
X113255Y-51994D01*
X110150Y-45375D02*
X110150Y-44825D01*
X110475Y-45700D02*
X110150Y-45375D01*
X111850Y-45700D02*
X110475Y-45700D01*
X112000Y-45850D02*
X111850Y-45700D01*
G54D43*
X83025Y-47150D02*
X82875Y-47150D01*
X82875Y-47150D02*
X82700Y-46975D01*
X85525Y-47150D02*
X83025Y-47150D01*
X83025Y-47150D02*
X83000Y-47150D01*
X89100Y-50725D02*
X85525Y-47150D01*
X92050Y-50725D02*
X89100Y-50725D01*
X92800Y-51475D02*
X92050Y-50725D01*
X92800Y-52100D02*
X92800Y-51475D01*
G54D42*
X112775Y-55900D02*
X112775Y-54775D01*
X112775Y-54775D02*
X112800Y-54750D01*
X90225Y-55275D02*
X90225Y-56075D01*
X90225Y-56075D02*
X90975Y-56825D01*
X90975Y-56825D02*
X96675Y-56825D01*
X96675Y-56825D02*
X96725Y-56875D01*
X93475Y-54900D02*
X95575Y-54900D01*
X111000Y-55400D02*
X111750Y-54650D01*
X96075Y-55400D02*
X111000Y-55400D01*
X95575Y-54900D02*
X96075Y-55400D01*
X111500Y-54900D02*
X111750Y-54650D01*
X112075Y-54097D02*
X112800Y-53372D01*
X111750Y-54650D02*
X112075Y-54325D01*
X112075Y-54325D02*
X112075Y-54097D01*
G54D43*
X92575Y-54875D02*
X93450Y-54875D01*
X93450Y-54875D02*
X93475Y-54900D01*
G54D42*
X95800Y-42250D02*
X95800Y-41200D01*
G54D43*
X86200Y-38925D02*
X86625Y-39350D01*
X69475Y-38925D02*
X86200Y-38925D01*
X69225Y-39175D02*
X69475Y-38925D01*
X69225Y-40000D02*
X69225Y-39175D01*
X68925Y-40300D02*
X69225Y-40000D01*
G54D42*
X95800Y-43500D02*
X95800Y-42250D01*
G54D41*
X111550Y-39275D02*
X112482Y-39275D01*
X112482Y-39275D02*
X112800Y-39592D01*
G54D43*
X68550Y-40300D02*
X68925Y-40300D01*
G54D42*
X95500Y-40900D02*
X95500Y-40750D01*
X95750Y-40500D02*
X96450Y-40500D01*
X95500Y-40750D02*
X95750Y-40500D01*
X95800Y-41200D02*
X95500Y-40900D01*
G54D43*
X68550Y-41150D02*
X69550Y-41150D01*
X84575Y-41200D02*
X84575Y-40900D01*
X84125Y-41650D02*
X84575Y-41200D01*
X70050Y-41650D02*
X84125Y-41650D01*
X69550Y-41150D02*
X70050Y-41650D01*
G54D42*
X84575Y-40900D02*
X84575Y-40875D01*
X84575Y-40875D02*
X85000Y-40450D01*
X88400Y-40475D02*
X88400Y-40125D01*
X84575Y-40875D02*
X84575Y-40900D01*
X85400Y-40050D02*
X85000Y-40450D01*
X85000Y-40450D02*
X84575Y-40875D01*
X86600Y-40050D02*
X85400Y-40050D01*
X87125Y-39525D02*
X86600Y-40050D01*
X87800Y-39525D02*
X87125Y-39525D01*
X88400Y-40125D02*
X87800Y-39525D01*
G54D43*
X88400Y-40475D02*
X90400Y-40475D01*
G54D42*
X90400Y-40475D02*
X90525Y-40600D01*
X90400Y-40475D02*
X90525Y-40600D01*
X90525Y-40600D02*
X90850Y-40600D01*
X90850Y-40600D02*
X91300Y-41050D01*
X91300Y-41050D02*
X91300Y-41475D01*
X91300Y-41475D02*
X90525Y-42250D01*
G54D41*
X90525Y-43475D02*
X90525Y-42250D01*
X111625Y-41550D02*
X112220Y-41550D01*
X112220Y-41550D02*
X112800Y-40970D01*
G54D44*
X112600Y-60031D02*
X104368Y-60031D01*
X104368Y-60031D02*
X104150Y-60250D01*
G54D43*
X93625Y-46100D02*
X93625Y-46525D01*
X93625Y-46525D02*
X93300Y-46850D01*
X94150Y-47200D02*
X93650Y-47200D01*
X93650Y-47200D02*
X93300Y-46850D01*
X92875Y-46100D02*
X92125Y-46100D01*
X91400Y-46825D02*
X91400Y-47450D01*
X92125Y-46100D02*
X91400Y-46825D01*
X90637Y-47487D02*
X90037Y-47487D01*
X90650Y-47475D02*
X90637Y-47487D01*
X90950Y-48750D02*
X90050Y-48750D01*
X90950Y-48750D02*
X92750Y-48750D01*
X92750Y-48750D02*
X95400Y-51400D01*
X95400Y-51400D02*
X109475Y-51400D01*
X109475Y-51400D02*
X109600Y-51275D01*
X109600Y-51275D02*
X109600Y-50125D01*
X108050Y-48575D02*
X109600Y-50125D01*
X89275Y-48675D02*
X89275Y-48250D01*
X89600Y-49000D02*
X89275Y-48675D01*
X89800Y-49000D02*
X89600Y-49000D01*
X90050Y-48750D02*
X89800Y-49000D01*
X90037Y-47487D02*
X89375Y-48150D01*
X89300Y-48225D02*
X89275Y-48250D01*
X89375Y-48150D02*
X89300Y-48225D01*
X89275Y-48250D02*
X89375Y-48150D01*
X112050Y-47110D02*
X112800Y-47860D01*
X112050Y-46750D02*
X112050Y-47110D01*
X111350Y-46050D02*
X112050Y-46750D01*
X104850Y-46050D02*
X111350Y-46050D01*
X104600Y-45800D02*
X104850Y-46050D01*
X102300Y-45800D02*
X104600Y-45800D01*
X102200Y-45900D02*
X102300Y-45800D01*
X102200Y-47350D02*
X102200Y-45900D01*
X102150Y-47400D02*
X102200Y-47350D01*
X95700Y-49200D02*
X95450Y-49200D01*
X94525Y-48275D02*
X95200Y-48950D01*
X94525Y-48275D02*
X94050Y-48275D01*
X95450Y-49200D02*
X95200Y-48950D01*
X100425Y-46550D02*
X100425Y-46075D01*
X99950Y-45600D02*
X99950Y-45225D01*
X100425Y-46075D02*
X99950Y-45600D01*
G54D42*
X104900Y-44875D02*
X104900Y-44825D01*
X104900Y-44825D02*
X104375Y-44300D01*
X104900Y-44875D02*
X104450Y-44875D01*
X104325Y-45000D02*
X103975Y-45000D01*
X104450Y-44875D02*
X104325Y-45000D01*
X104200Y-42025D02*
X105050Y-42025D01*
X105175Y-42150D02*
X105175Y-42550D01*
X105050Y-42025D02*
X105175Y-42150D01*
X105175Y-42550D02*
X105175Y-42825D01*
X105175Y-42825D02*
X104775Y-43225D01*
G54D43*
X110750Y-47100D02*
X110100Y-47100D01*
G54D42*
X99475Y-44250D02*
X99475Y-44975D01*
X99475Y-43775D02*
X99475Y-44250D01*
X99475Y-44975D02*
X99300Y-45150D01*
X104825Y-40200D02*
X104825Y-40575D01*
X104825Y-40575D02*
X104300Y-41100D01*
X99250Y-41900D02*
X99250Y-42800D01*
X99475Y-43025D02*
X99475Y-43775D01*
X99250Y-42800D02*
X99475Y-43025D01*
X102550Y-40225D02*
X103425Y-40225D01*
X103425Y-40225D02*
X104300Y-41100D01*
X103975Y-45000D02*
X104025Y-45000D01*
G54D43*
X101200Y-45975D02*
X100700Y-45975D01*
X100700Y-45975D02*
X99950Y-45225D01*
X90575Y-52275D02*
X90900Y-52275D01*
X91350Y-51825D02*
X92475Y-51825D01*
X90900Y-52275D02*
X91350Y-51825D01*
X90500Y-48275D02*
X90150Y-48275D01*
X90150Y-48275D02*
X89700Y-48725D01*
G54D41*
X102925Y-52025D02*
X102900Y-52050D01*
X102900Y-52050D02*
X101775Y-52050D01*
G54D43*
X109725Y-48750D02*
X109725Y-48375D01*
X109725Y-48375D02*
X109975Y-48125D01*
X109975Y-48750D02*
X109975Y-48125D01*
X109975Y-48125D02*
X109975Y-47950D01*
X109975Y-47950D02*
X109975Y-47650D01*
X110100Y-47525D02*
X110100Y-47100D01*
X109975Y-47650D02*
X110100Y-47525D01*
G54D42*
X103450Y-48325D02*
X103450Y-48925D01*
X103225Y-45000D02*
X103175Y-45000D01*
X103175Y-45000D02*
X102000Y-43825D01*
X102000Y-43825D02*
X102000Y-43175D01*
X101725Y-42900D02*
X101625Y-42900D01*
X101725Y-42900D02*
X102000Y-43175D01*
X100800Y-42650D02*
X101100Y-42650D01*
X101100Y-42650D02*
X101350Y-42900D01*
X101350Y-42900D02*
X101625Y-42900D01*
X100300Y-41050D02*
X100300Y-41350D01*
X100800Y-41850D02*
X100800Y-42650D01*
X100300Y-41350D02*
X100800Y-41850D01*
X101575Y-45400D02*
X102825Y-45400D01*
X102825Y-45400D02*
X103225Y-45000D01*
X101575Y-45400D02*
X101650Y-45400D01*
X101650Y-45400D02*
X101825Y-45575D01*
X101200Y-47350D02*
X101200Y-46725D01*
X105675Y-45575D02*
X106350Y-45575D01*
X106350Y-45575D02*
X106375Y-45550D01*
X105650Y-44875D02*
X105650Y-45550D01*
X105650Y-45550D02*
X105675Y-45575D01*
X108175Y-45500D02*
X108175Y-45550D01*
X108175Y-45550D02*
X107905Y-45819D01*
X107905Y-45819D02*
X106644Y-45819D01*
X106644Y-45819D02*
X106375Y-45550D01*
X107800Y-43800D02*
X108700Y-43800D01*
X108950Y-45500D02*
X108175Y-45500D01*
X109275Y-45175D02*
X108950Y-45500D01*
X109275Y-44375D02*
X109275Y-45175D01*
X108700Y-43800D02*
X109275Y-44375D01*
X107675Y-42575D02*
X107675Y-43225D01*
X107800Y-43350D02*
X107800Y-43800D01*
X107675Y-43225D02*
X107800Y-43350D01*
X107675Y-42575D02*
X107675Y-41825D01*
X107725Y-41775D02*
X107725Y-41075D01*
X107675Y-41825D02*
X107725Y-41775D01*
X103450Y-47575D02*
X103450Y-47000D01*
X103450Y-47000D02*
X103500Y-46950D01*
G54D43*
X77650Y-56525D02*
X76150Y-56525D01*
X76150Y-56525D02*
X76025Y-56650D01*
X76025Y-56650D02*
X75975Y-56700D01*
G54D42*
X89525Y-55750D02*
X88700Y-55750D01*
X112025Y-55900D02*
X111600Y-55900D01*
X111600Y-55900D02*
X111475Y-55700D01*
X93475Y-55650D02*
X93150Y-55650D01*
X93150Y-55650D02*
X92775Y-55275D01*
X92525Y-42075D02*
X92525Y-39600D01*
G54D41*
X90525Y-44225D02*
X92125Y-44225D01*
X92125Y-44225D02*
X92275Y-44075D01*
X89550Y-44225D02*
X88525Y-44225D01*
X90525Y-44225D02*
X89550Y-44225D01*
X92550Y-43800D02*
X92275Y-44075D01*
G54D42*
X94800Y-44250D02*
X93000Y-44250D01*
X93000Y-44250D02*
X92550Y-43800D01*
G54D45*
X93425Y-39600D02*
X92525Y-39600D01*
X92525Y-39600D02*
X91650Y-39600D01*
G54D42*
X110150Y-44075D02*
X110150Y-44025D01*
X110300Y-43875D02*
X111225Y-43875D01*
X110150Y-44025D02*
X110300Y-43875D01*
G54D41*
X111225Y-43875D02*
X112651Y-43875D01*
X112651Y-43875D02*
X112800Y-43726D01*
X110425Y-41550D02*
X110425Y-42825D01*
X110425Y-42825D02*
X110400Y-42850D01*
X110400Y-42850D02*
X110400Y-43050D01*
X110400Y-43050D02*
X111225Y-43875D01*
X111550Y-40475D02*
X111200Y-40475D01*
X110425Y-41250D02*
X110425Y-41550D01*
X111200Y-40475D02*
X110425Y-41250D01*
G54D42*
X112776Y-43750D02*
X112800Y-43726D01*
G54D43*
X65900Y-41150D02*
X65650Y-41150D01*
X65550Y-40300D02*
X65175Y-40675D01*
X65550Y-40300D02*
X65900Y-40300D01*
X65650Y-41150D02*
X65175Y-40675D01*
G54D42*
X96775Y-44250D02*
X95800Y-44250D01*
X95800Y-44250D02*
X94800Y-44250D01*
X100175Y-58500D02*
X99450Y-58500D01*
G54D41*
X53824Y-52321D02*
X53303Y-52321D01*
X52400Y-53225D02*
X52400Y-57052D01*
X53303Y-52321D02*
X52400Y-53225D01*
X61150Y-58100D02*
X61150Y-61200D01*
X52400Y-57052D02*
X53824Y-55628D01*
X52400Y-61350D02*
X52400Y-57052D01*
X53900Y-62850D02*
X52400Y-61350D01*
X59500Y-62850D02*
X53900Y-62850D01*
X61150Y-61200D02*
X59500Y-62850D01*
X53850Y-40325D02*
X53850Y-42374D01*
X53850Y-42374D02*
X53824Y-42400D01*
X53824Y-39774D02*
X53800Y-39750D01*
G54D43*
X99675Y-46550D02*
X99675Y-46325D01*
X99250Y-45900D02*
X99250Y-45675D01*
X99675Y-46325D02*
X99250Y-45900D01*
X98875Y-46500D02*
X98900Y-46475D01*
X98875Y-47200D02*
X98875Y-46500D01*
X99250Y-46825D02*
X98900Y-46475D01*
X99250Y-47575D02*
X99250Y-46825D01*
X99450Y-47775D02*
X99250Y-47575D01*
G54D42*
X102425Y-42550D02*
X102425Y-41175D01*
X102425Y-41175D02*
X102300Y-41050D01*
X103000Y-43825D02*
X103000Y-43400D01*
X102425Y-42825D02*
X102425Y-42550D01*
X103000Y-43400D02*
X102425Y-42825D01*
G54D45*
X94175Y-39600D02*
X95600Y-39600D01*
X95600Y-39600D02*
X95650Y-39550D01*
X89400Y-39500D02*
X90800Y-39500D01*
X90800Y-39500D02*
X90900Y-39600D01*
G54D42*
X106800Y-43800D02*
X106800Y-43900D01*
X107600Y-44700D02*
X107825Y-44700D01*
X106800Y-43900D02*
X107600Y-44700D01*
X94800Y-42250D02*
X94800Y-43500D01*
X94800Y-42250D02*
X94800Y-41350D01*
X94800Y-41350D02*
X94700Y-41250D01*
X101000Y-43825D02*
X101000Y-44375D01*
X101000Y-44375D02*
X101225Y-44600D01*
X100050Y-42650D02*
X100050Y-41950D01*
X100050Y-41950D02*
X100000Y-41900D01*
X100225Y-43775D02*
X100225Y-43350D01*
X100050Y-43175D02*
X100050Y-42650D01*
X100225Y-43350D02*
X100050Y-43175D01*
X100225Y-43775D02*
X100950Y-43775D01*
X100950Y-43775D02*
X101000Y-43825D01*
X101225Y-44600D02*
X101200Y-44600D01*
X100950Y-43775D02*
X101000Y-43825D01*
X107175Y-45200D02*
X107175Y-44800D01*
X106400Y-44400D02*
X105800Y-43800D01*
X106775Y-44400D02*
X106400Y-44400D01*
X107175Y-44800D02*
X106775Y-44400D01*
X104200Y-42775D02*
X104200Y-43525D01*
X104475Y-43800D02*
X105800Y-43800D01*
X104200Y-43525D02*
X104475Y-43800D01*
X105800Y-43800D02*
X105900Y-43800D01*
X105800Y-43800D02*
X105800Y-42675D01*
X105800Y-42675D02*
X105925Y-42550D01*
X105925Y-42550D02*
X106900Y-42550D01*
X106900Y-42550D02*
X106925Y-42575D01*
X104300Y-42650D02*
X104275Y-42675D01*
X89725Y-40950D02*
X89725Y-41050D01*
X89725Y-41050D02*
X88525Y-42250D01*
G54D41*
X88525Y-43475D02*
X88525Y-42250D01*
G54D43*
X78700Y-44800D02*
X78700Y-43500D01*
X79700Y-44625D02*
X79700Y-43500D01*
X75100Y-44925D02*
X75100Y-43500D01*
X76125Y-45525D02*
X76125Y-43525D01*
X76125Y-43525D02*
X76100Y-43500D01*
X73100Y-44925D02*
X73100Y-43500D01*
X72100Y-45475D02*
X72100Y-43500D01*
X92650Y-48275D02*
X92650Y-47850D01*
X92650Y-47850D02*
X92400Y-47600D01*
X92650Y-48275D02*
X93300Y-48275D01*
X91125Y-49775D02*
X91250Y-49775D01*
X90925Y-49575D02*
X91125Y-49775D01*
X91650Y-49775D02*
X91825Y-49600D01*
X91250Y-49775D02*
X91650Y-49775D01*
X109475Y-48925D02*
X109475Y-48750D01*
X109400Y-49000D02*
X109475Y-48925D01*
X109125Y-49000D02*
X109400Y-49000D01*
X91325Y-49225D02*
X91400Y-49150D01*
X91400Y-49150D02*
X92250Y-49150D01*
X92250Y-49150D02*
X92575Y-49475D01*
X92575Y-49600D02*
X92575Y-49475D01*
X91325Y-49475D02*
X91325Y-49225D01*
X91350Y-49500D02*
X91325Y-49475D01*
X106700Y-47700D02*
X106700Y-47750D01*
X106250Y-48200D02*
X104875Y-48200D01*
X106700Y-47750D02*
X106250Y-48200D01*
X104875Y-49100D02*
X105025Y-49250D01*
X106150Y-49250D02*
X106700Y-48700D01*
X105025Y-49250D02*
X106150Y-49250D01*
X100450Y-50175D02*
X98500Y-50175D01*
X98500Y-50175D02*
X98250Y-49925D01*
X98850Y-48300D02*
X98150Y-48300D01*
X98300Y-46475D02*
X98150Y-46625D01*
X98375Y-46475D02*
X98300Y-46475D01*
X98400Y-46450D02*
X98375Y-46475D01*
X95450Y-47200D02*
X95450Y-46625D01*
X98150Y-46600D02*
X98150Y-46625D01*
X98150Y-46625D02*
X98150Y-47200D01*
X97925Y-46375D02*
X98150Y-46600D01*
X95700Y-46375D02*
X97925Y-46375D01*
X95450Y-46625D02*
X95700Y-46375D01*
X104875Y-47200D02*
X105150Y-47200D01*
X106700Y-46800D02*
X106300Y-47200D01*
X106300Y-47200D02*
X105150Y-47200D01*
X106700Y-46800D02*
X106700Y-46700D01*
X97287Y-49037D02*
X97550Y-48775D01*
X96875Y-47200D02*
X96850Y-47200D01*
X97550Y-47875D02*
X96875Y-47200D01*
X97550Y-48775D02*
X97550Y-47875D01*
X96975Y-49575D02*
X96975Y-49350D01*
X96975Y-49900D02*
X96975Y-49575D01*
X96975Y-49350D02*
X97287Y-49037D01*
X97287Y-49037D02*
X97300Y-49025D01*
X99150Y-48450D02*
X99450Y-48149D01*
X98575Y-49025D02*
X99150Y-48450D01*
X98575Y-49025D02*
X97300Y-49025D01*
X101200Y-48149D02*
X101600Y-47750D01*
X99450Y-48149D02*
X101200Y-48149D01*
X101750Y-50175D02*
X102175Y-50175D01*
X102250Y-50250D02*
X102525Y-50250D01*
X102175Y-50175D02*
X102250Y-50250D01*
X102425Y-50150D02*
X102525Y-50250D01*
X102575Y-49350D02*
X102575Y-50200D01*
X103600Y-46100D02*
X103550Y-46050D01*
X103550Y-46050D02*
X102950Y-46050D01*
X102950Y-46050D02*
X102575Y-46425D01*
X102575Y-46425D02*
X102575Y-49350D01*
X102575Y-50200D02*
X102525Y-50250D01*
X96850Y-48300D02*
X95450Y-48300D01*
X94075Y-45375D02*
X91950Y-45375D01*
X94775Y-46075D02*
X94075Y-45375D01*
X94775Y-47625D02*
X94775Y-46075D01*
X95450Y-48300D02*
X94775Y-47625D01*
X96450Y-49200D02*
X96575Y-49200D01*
X96850Y-48925D02*
X96850Y-48300D01*
X96575Y-49200D02*
X96850Y-48925D01*
X96750Y-48400D02*
X96850Y-48300D01*
X103275Y-50250D02*
X103600Y-50250D01*
X104125Y-49725D02*
X104125Y-49100D01*
X103600Y-50250D02*
X104125Y-49725D01*
X104125Y-47200D02*
X103825Y-46625D01*
X103825Y-46625D02*
X103750Y-46550D01*
X104125Y-48200D02*
X104125Y-47200D01*
X104125Y-49100D02*
X104125Y-48200D01*
X99400Y-48550D02*
X99600Y-48350D01*
X99400Y-48550D02*
X98650Y-49300D01*
X98650Y-49300D02*
X97950Y-49300D01*
X97950Y-49300D02*
X97725Y-49525D01*
X97725Y-49900D02*
X97725Y-49525D01*
X99600Y-48350D02*
X101500Y-48350D01*
X101700Y-48550D02*
X101500Y-48350D01*
X102200Y-48550D02*
X101700Y-48550D01*
G54D42*
X102700Y-62150D02*
X101550Y-62150D01*
X100925Y-58775D02*
X100925Y-58500D01*
X100175Y-59525D02*
X100925Y-58775D01*
X100175Y-60775D02*
X100175Y-59525D01*
X101550Y-62150D02*
X100175Y-60775D01*
X99550Y-62700D02*
X100275Y-62700D01*
X99050Y-63200D02*
X99550Y-62700D01*
X101025Y-62700D02*
X102100Y-62700D01*
X102250Y-62850D02*
X102700Y-62850D01*
X102100Y-62700D02*
X102250Y-62850D01*
X93800Y-62450D02*
X92775Y-62450D01*
X93850Y-62500D02*
X93800Y-62450D01*
X101025Y-60300D02*
X101100Y-60300D01*
X104285Y-57890D02*
X104940Y-57890D01*
X102525Y-59650D02*
X104285Y-57890D01*
X101750Y-59650D02*
X102525Y-59650D01*
X101100Y-60300D02*
X101750Y-59650D01*
X98700Y-60475D02*
X98700Y-60700D01*
X98700Y-60700D02*
X99350Y-61350D01*
X103500Y-62500D02*
X104830Y-62500D01*
X104830Y-62500D02*
X104940Y-62610D01*
G54D43*
X104830Y-62500D02*
X104940Y-62610D01*
G54D41*
X55989Y-58935D02*
X57014Y-58935D01*
X58250Y-57700D02*
X58250Y-53050D01*
X57014Y-58935D02*
X58250Y-57700D01*
M02*
