M48
INCH,TZ
T1C0.013
T2C0.024
T3C0.025
T4C0.031
T5C0.040
T6C0.043
T7C0.047
T8C0.050
T9C0.051
T10C0.059
T11C0.063
T12C0.071
T13C0.120
%
G90
G05
T1
X56825Y-39800
X61150Y-39175
X65175Y-40675
X67225Y-39800
X67300Y-40825
X73275Y-48125
X74150Y-48050
X75975Y-56700
X76125Y-47000
X80075Y-46775
X82000Y-46700
X82700Y-46975
X84700Y-53925
X84725Y-46200
X86625Y-39350
X88075Y-51300
X88375Y-50475
X88600Y-52300
X88725Y-48300
X89650Y-46700
X89700Y-48725
X90000Y-51450
X90700Y-47375
X91400Y-47450
X91950Y-47525
X92400Y-47600
X92475Y-51825
X92575Y-54875
X92750Y-50425
X92800Y-52100
X93150Y-51925
X93300Y-46850
X93500Y-50750
X93525Y-61450
X95200Y-48950
X97525Y-47150
X98250Y-49925
X98775Y-44625
X98850Y-48300
X98875Y-47200
X99450Y-47775
X99950Y-45225
X101600Y-47750
X102150Y-47400
X102200Y-48550
X103600Y-46100
X103750Y-46550
X108700Y-47100
X110750Y-47100
T2
X55600Y-61900
X57350Y-41375
X59450Y-59700
X60050Y-44950
X60550Y-47300
X60800Y-55200
X61150Y-50900
X62300Y-43700
X62350Y-41350
X64300Y-43850
X64850Y-45100
X65300Y-55450
X73925Y-57325
X77700Y-59325
X85350Y-41000
X88700Y-55750
X90225Y-55275
X92550Y-43800
X92775Y-55275
X93850Y-62500
X95125Y-50300
X96725Y-56875
X99050Y-63200
X99450Y-58500
X100250Y-44650
X101000Y-59650
X101200Y-47350
X101775Y-52050
X101825Y-52700
X103450Y-49250
X103500Y-46950
X104300Y-43550
X105100Y-45550
X107850Y-42500
X111475Y-55700
T3
X88500Y-54950
T4
X64048Y-39425
X64836Y-39425
X65623Y-39425
T5
X63200Y-50050
X63200Y-51050
X63200Y-55150
X63200Y-56150
X65296Y-51554
X65496Y-54046
X66004Y-50846
X66204Y-54754
X69100Y-43500
X70100Y-43500
X70700Y-62500
X71100Y-43500
X71700Y-62500
X72100Y-43500
X72700Y-62500
X73100Y-43500
X73700Y-62500
X74100Y-43500
X74700Y-62500
X75100Y-43500
X75700Y-62500
X76100Y-43500
X76700Y-62500
X77700Y-43500
X77700Y-62500
X78700Y-43500
X79700Y-43500
X79700Y-62500
X80700Y-43500
X80700Y-62500
X81700Y-43500
X81700Y-62500
X82700Y-43500
X82700Y-62500
X83700Y-43500
X83700Y-62500
X84700Y-43500
X84700Y-62500
X88550Y-42250
X89550Y-42250
X90550Y-42250
X94800Y-42250
X95800Y-42250
X96800Y-42250
X101000Y-43800
X102000Y-43800
X103000Y-43800
X105700Y-46700
X105700Y-47700
X105700Y-48700
X105800Y-43800
X106700Y-46700
X106700Y-47700
X106700Y-48700
X106800Y-43800
X107800Y-43800
T6
X71366Y-39750
X72350Y-39750
X73334Y-39750
X77816Y-39750
X78800Y-39750
X79784Y-39750
T7
X112800Y-39593
X112800Y-40970
X112800Y-42348
X112800Y-43726
X112800Y-45104
X112800Y-46482
X112800Y-47860
X112800Y-49238
X112800Y-50616
X112800Y-51994
X112800Y-53372
X112800Y-54750
T8
X104150Y-60250
X104940Y-57890
X104940Y-62610
X109740Y-57890
X109740Y-62610
T9
X112600Y-58063
X112600Y-60031
X112600Y-62000
T10
X89400Y-39500
X95650Y-39550
T12
X53824Y-42400
X53824Y-44054
X53824Y-45707
X53824Y-47361
X53824Y-49014
X53824Y-50668
X53824Y-52321
X53824Y-53975
X53824Y-55628
X53824Y-57282
X53824Y-58935
X53824Y-60589
X55938Y-52321
X55989Y-42400
X55989Y-44054
X55989Y-45707
X55989Y-47361
X55989Y-49014
X55989Y-50668
X55989Y-53975
X55989Y-55628
X55989Y-57282
X55989Y-58935
X55989Y-60589
T13
X63300Y-52700
T11
X70421Y-40734G85X70421Y-40498
G05
X74279Y-40734G85X74279Y-40498
G05
X76871Y-40734G85X76871Y-40498
G05
X80729Y-40734G85X80729Y-40498
G05
T0
M30
