G04 (created by PCBNEW (2013-07-07 BZR 4022)-stable) date 18/03/2014 19:28:15*
%MOIN*%
G04 Gerber Fmt 3.4, Leading zero omitted, Abs format*
%FSLAX34Y34*%
G01*
G70*
G90*
G04 APERTURE LIST*
%ADD10C,0.006*%
%ADD11C,0.005*%
%ADD12C,0.0039*%
%ADD13C,0.0047*%
%ADD14C,0.0075*%
%ADD15C,0.008*%
%ADD16C,0.0043*%
%ADD17C,0.0051*%
G04 APERTURE END LIST*
G54D10*
G54D11*
X102950Y-61900D02*
X102950Y-63100D01*
X102950Y-63100D02*
X103250Y-63100D01*
X103250Y-63100D02*
X103250Y-61900D01*
X103250Y-61900D02*
X102950Y-61900D01*
G54D12*
X100050Y-62400D02*
G75*
G03X100050Y-62400I-50J0D01*
G74*
G01*
X100450Y-62400D02*
X100050Y-62400D01*
X100050Y-62400D02*
X100050Y-63000D01*
X100050Y-63000D02*
X100450Y-63000D01*
X100850Y-63000D02*
X101250Y-63000D01*
X101250Y-63000D02*
X101250Y-62400D01*
X101250Y-62400D02*
X100850Y-62400D01*
X91800Y-62150D02*
G75*
G03X91800Y-62150I-50J0D01*
G74*
G01*
X92200Y-62150D02*
X91800Y-62150D01*
X91800Y-62150D02*
X91800Y-62750D01*
X91800Y-62750D02*
X92200Y-62750D01*
X92600Y-62750D02*
X93000Y-62750D01*
X93000Y-62750D02*
X93000Y-62150D01*
X93000Y-62150D02*
X92600Y-62150D01*
X101250Y-58800D02*
G75*
G03X101250Y-58800I-50J0D01*
G74*
G01*
X100750Y-58800D02*
X101150Y-58800D01*
X101150Y-58800D02*
X101150Y-58200D01*
X101150Y-58200D02*
X100750Y-58200D01*
X100350Y-58200D02*
X99950Y-58200D01*
X99950Y-58200D02*
X99950Y-58800D01*
X99950Y-58800D02*
X100350Y-58800D01*
G54D10*
X109325Y-48100D02*
X110125Y-48100D01*
X110125Y-48100D02*
X110125Y-48600D01*
X110125Y-48600D02*
X109325Y-48600D01*
X109325Y-48600D02*
X109325Y-48100D01*
G54D11*
X98500Y-46750D02*
X98500Y-47650D01*
X98500Y-47650D02*
X97850Y-47650D01*
X97150Y-46750D02*
X96500Y-46750D01*
X96500Y-46750D02*
X96500Y-47650D01*
X96500Y-47650D02*
X97150Y-47650D01*
X97850Y-46750D02*
X98500Y-46750D01*
X93800Y-47650D02*
X93800Y-46750D01*
X93800Y-46750D02*
X94450Y-46750D01*
X95150Y-47650D02*
X95800Y-47650D01*
X95800Y-47650D02*
X95800Y-46750D01*
X95800Y-46750D02*
X95150Y-46750D01*
X94450Y-47650D02*
X93800Y-47650D01*
X100100Y-50625D02*
X100100Y-49725D01*
X100100Y-49725D02*
X100750Y-49725D01*
X101450Y-50625D02*
X102100Y-50625D01*
X102100Y-50625D02*
X102100Y-49725D01*
X102100Y-49725D02*
X101450Y-49725D01*
X100750Y-50625D02*
X100100Y-50625D01*
X96500Y-48750D02*
X96500Y-47850D01*
X96500Y-47850D02*
X97150Y-47850D01*
X97850Y-48750D02*
X98500Y-48750D01*
X98500Y-48750D02*
X98500Y-47850D01*
X98500Y-47850D02*
X97850Y-47850D01*
X97150Y-48750D02*
X96500Y-48750D01*
G54D12*
X89875Y-54725D02*
G75*
G03X89875Y-54725I-50J0D01*
G74*
G01*
X89825Y-55175D02*
X89825Y-54775D01*
X89825Y-54775D02*
X89225Y-54775D01*
X89225Y-54775D02*
X89225Y-55175D01*
X89225Y-55575D02*
X89225Y-55975D01*
X89225Y-55975D02*
X89825Y-55975D01*
X89825Y-55975D02*
X89825Y-55575D01*
X94375Y-48575D02*
G75*
G03X94375Y-48575I-50J0D01*
G74*
G01*
X93875Y-48575D02*
X94275Y-48575D01*
X94275Y-48575D02*
X94275Y-47975D01*
X94275Y-47975D02*
X93875Y-47975D01*
X93475Y-47975D02*
X93075Y-47975D01*
X93075Y-47975D02*
X93075Y-48575D01*
X93075Y-48575D02*
X93475Y-48575D01*
X91575Y-48575D02*
G75*
G03X91575Y-48575I-50J0D01*
G74*
G01*
X91075Y-48575D02*
X91475Y-48575D01*
X91475Y-48575D02*
X91475Y-47975D01*
X91475Y-47975D02*
X91075Y-47975D01*
X90675Y-47975D02*
X90275Y-47975D01*
X90275Y-47975D02*
X90275Y-48575D01*
X90275Y-48575D02*
X90675Y-48575D01*
X103200Y-48600D02*
G75*
G03X103200Y-48600I-50J0D01*
G74*
G01*
X103150Y-48150D02*
X103150Y-48550D01*
X103150Y-48550D02*
X103750Y-48550D01*
X103750Y-48550D02*
X103750Y-48150D01*
X103750Y-47750D02*
X103750Y-47350D01*
X103750Y-47350D02*
X103150Y-47350D01*
X103150Y-47350D02*
X103150Y-47750D01*
X101550Y-45700D02*
G75*
G03X101550Y-45700I-50J0D01*
G74*
G01*
X101500Y-46150D02*
X101500Y-45750D01*
X101500Y-45750D02*
X100900Y-45750D01*
X100900Y-45750D02*
X100900Y-46150D01*
X100900Y-46550D02*
X100900Y-46950D01*
X100900Y-46950D02*
X101500Y-46950D01*
X101500Y-46950D02*
X101500Y-46550D01*
X109125Y-46800D02*
G75*
G03X109125Y-46800I-50J0D01*
G74*
G01*
X109525Y-46800D02*
X109125Y-46800D01*
X109125Y-46800D02*
X109125Y-47400D01*
X109125Y-47400D02*
X109525Y-47400D01*
X109925Y-47400D02*
X110325Y-47400D01*
X110325Y-47400D02*
X110325Y-46800D01*
X110325Y-46800D02*
X109925Y-46800D01*
X105200Y-49400D02*
G75*
G03X105200Y-49400I-50J0D01*
G74*
G01*
X104700Y-49400D02*
X105100Y-49400D01*
X105100Y-49400D02*
X105100Y-48800D01*
X105100Y-48800D02*
X104700Y-48800D01*
X104300Y-48800D02*
X103900Y-48800D01*
X103900Y-48800D02*
X103900Y-49400D01*
X103900Y-49400D02*
X104300Y-49400D01*
X105200Y-48500D02*
G75*
G03X105200Y-48500I-50J0D01*
G74*
G01*
X104700Y-48500D02*
X105100Y-48500D01*
X105100Y-48500D02*
X105100Y-47900D01*
X105100Y-47900D02*
X104700Y-47900D01*
X104300Y-47900D02*
X103900Y-47900D01*
X103900Y-47900D02*
X103900Y-48500D01*
X103900Y-48500D02*
X104300Y-48500D01*
X103600Y-50550D02*
G75*
G03X103600Y-50550I-50J0D01*
G74*
G01*
X103100Y-50550D02*
X103500Y-50550D01*
X103500Y-50550D02*
X103500Y-49950D01*
X103500Y-49950D02*
X103100Y-49950D01*
X102700Y-49950D02*
X102300Y-49950D01*
X102300Y-49950D02*
X102300Y-50550D01*
X102300Y-50550D02*
X102700Y-50550D01*
X105200Y-47500D02*
G75*
G03X105200Y-47500I-50J0D01*
G74*
G01*
X104700Y-47500D02*
X105100Y-47500D01*
X105100Y-47500D02*
X105100Y-46900D01*
X105100Y-46900D02*
X104700Y-46900D01*
X104300Y-46900D02*
X103900Y-46900D01*
X103900Y-46900D02*
X103900Y-47500D01*
X103900Y-47500D02*
X104300Y-47500D01*
X96750Y-49600D02*
G75*
G03X96750Y-49600I-50J0D01*
G74*
G01*
X97150Y-49600D02*
X96750Y-49600D01*
X96750Y-49600D02*
X96750Y-50200D01*
X96750Y-50200D02*
X97150Y-50200D01*
X97550Y-50200D02*
X97950Y-50200D01*
X97950Y-50200D02*
X97950Y-49600D01*
X97950Y-49600D02*
X97550Y-49600D01*
X93950Y-46400D02*
G75*
G03X93950Y-46400I-50J0D01*
G74*
G01*
X93450Y-46400D02*
X93850Y-46400D01*
X93850Y-46400D02*
X93850Y-45800D01*
X93850Y-45800D02*
X93450Y-45800D01*
X93050Y-45800D02*
X92650Y-45800D01*
X92650Y-45800D02*
X92650Y-46400D01*
X92650Y-46400D02*
X93050Y-46400D01*
X78725Y-56825D02*
G75*
G03X78725Y-56825I-50J0D01*
G74*
G01*
X78225Y-56825D02*
X78625Y-56825D01*
X78625Y-56825D02*
X78625Y-56225D01*
X78625Y-56225D02*
X78225Y-56225D01*
X77825Y-56225D02*
X77425Y-56225D01*
X77425Y-56225D02*
X77425Y-56825D01*
X77425Y-56825D02*
X77825Y-56825D01*
G54D13*
X99500Y-45925D02*
X98300Y-45925D01*
X98300Y-45925D02*
X98300Y-46225D01*
X98300Y-46225D02*
X99500Y-46225D01*
X99500Y-46225D02*
X99500Y-45925D01*
G54D11*
X110170Y-54150D02*
G75*
G03X110170Y-54150I-70J0D01*
G74*
G01*
X110150Y-52250D02*
X110150Y-51600D01*
X110150Y-51600D02*
X111750Y-51600D01*
X111750Y-51600D02*
X111750Y-52250D01*
X111750Y-53450D02*
X111750Y-54100D01*
X111750Y-54100D02*
X110150Y-54100D01*
X110150Y-54100D02*
X110150Y-53450D01*
G54D12*
X102675Y-53050D02*
G75*
G03X102675Y-53050I-50J0D01*
G74*
G01*
X102625Y-52600D02*
X102625Y-53000D01*
X102625Y-53000D02*
X103225Y-53000D01*
X103225Y-53000D02*
X103225Y-52600D01*
X103225Y-52200D02*
X103225Y-51800D01*
X103225Y-51800D02*
X102625Y-51800D01*
X102625Y-51800D02*
X102625Y-52200D01*
X90325Y-52550D02*
G75*
G03X90325Y-52550I-50J0D01*
G74*
G01*
X90275Y-52100D02*
X90275Y-52500D01*
X90275Y-52500D02*
X90875Y-52500D01*
X90875Y-52500D02*
X90875Y-52100D01*
X90875Y-51700D02*
X90875Y-51300D01*
X90875Y-51300D02*
X90275Y-51300D01*
X90275Y-51300D02*
X90275Y-51700D01*
G54D11*
X57470Y-53450D02*
G75*
G03X57470Y-53450I-70J0D01*
G74*
G01*
X57450Y-51550D02*
X57450Y-50900D01*
X57450Y-50900D02*
X59050Y-50900D01*
X59050Y-50900D02*
X59050Y-51550D01*
X59050Y-52750D02*
X59050Y-53400D01*
X59050Y-53400D02*
X57450Y-53400D01*
X57450Y-53400D02*
X57450Y-52750D01*
X57320Y-60250D02*
G75*
G03X57320Y-60250I-70J0D01*
G74*
G01*
X59150Y-60300D02*
X59800Y-60300D01*
X59800Y-60300D02*
X59800Y-61900D01*
X59800Y-61900D02*
X59150Y-61900D01*
X57950Y-61900D02*
X57300Y-61900D01*
X57300Y-61900D02*
X57300Y-60300D01*
X57300Y-60300D02*
X57950Y-60300D01*
X60370Y-58500D02*
G75*
G03X60370Y-58500I-70J0D01*
G74*
G01*
X60350Y-56600D02*
X60350Y-55950D01*
X60350Y-55950D02*
X61950Y-55950D01*
X61950Y-55950D02*
X61950Y-56600D01*
X61950Y-57800D02*
X61950Y-58450D01*
X61950Y-58450D02*
X60350Y-58450D01*
X60350Y-58450D02*
X60350Y-57800D01*
X53520Y-39475D02*
G75*
G03X53520Y-39475I-70J0D01*
G74*
G01*
X55350Y-39525D02*
X56000Y-39525D01*
X56000Y-39525D02*
X56000Y-41125D01*
X56000Y-41125D02*
X55350Y-41125D01*
X54150Y-41125D02*
X53500Y-41125D01*
X53500Y-41125D02*
X53500Y-39525D01*
X53500Y-39525D02*
X54150Y-39525D01*
X61300Y-53650D02*
X60100Y-53650D01*
X60100Y-52200D02*
X60100Y-51450D01*
X60100Y-51450D02*
X61300Y-51450D01*
X61300Y-51450D02*
X61300Y-52200D01*
X61300Y-52850D02*
X61300Y-53650D01*
X61300Y-53571D02*
X60100Y-53571D01*
X60100Y-53650D02*
X60100Y-52850D01*
G54D12*
X108950Y-42350D02*
G75*
G03X108950Y-42350I-50J0D01*
G74*
G01*
X108900Y-42800D02*
X108900Y-42400D01*
X108900Y-42400D02*
X108300Y-42400D01*
X108300Y-42400D02*
X108300Y-42800D01*
X108300Y-43200D02*
X108300Y-43600D01*
X108300Y-43600D02*
X108900Y-43600D01*
X108900Y-43600D02*
X108900Y-43200D01*
X106050Y-42700D02*
G75*
G03X106050Y-42700I-50J0D01*
G74*
G01*
X105550Y-42700D02*
X105950Y-42700D01*
X105950Y-42700D02*
X105950Y-42100D01*
X105950Y-42100D02*
X105550Y-42100D01*
X105150Y-42100D02*
X104750Y-42100D01*
X104750Y-42100D02*
X104750Y-42700D01*
X104750Y-42700D02*
X105150Y-42700D01*
X107450Y-42700D02*
G75*
G03X107450Y-42700I-50J0D01*
G74*
G01*
X106950Y-42700D02*
X107350Y-42700D01*
X107350Y-42700D02*
X107350Y-42100D01*
X107350Y-42100D02*
X106950Y-42100D01*
X106550Y-42100D02*
X106150Y-42100D01*
X106150Y-42100D02*
X106150Y-42700D01*
X106150Y-42700D02*
X106550Y-42700D01*
X96150Y-43225D02*
G75*
G03X96150Y-43225I-50J0D01*
G74*
G01*
X96100Y-43675D02*
X96100Y-43275D01*
X96100Y-43275D02*
X95500Y-43275D01*
X95500Y-43275D02*
X95500Y-43675D01*
X95500Y-44075D02*
X95500Y-44475D01*
X95500Y-44475D02*
X96100Y-44475D01*
X96100Y-44475D02*
X96100Y-44075D01*
X103000Y-44700D02*
G75*
G03X103000Y-44700I-50J0D01*
G74*
G01*
X103400Y-44700D02*
X103000Y-44700D01*
X103000Y-44700D02*
X103000Y-45300D01*
X103000Y-45300D02*
X103400Y-45300D01*
X103800Y-45300D02*
X104200Y-45300D01*
X104200Y-45300D02*
X104200Y-44700D01*
X104200Y-44700D02*
X103800Y-44700D01*
X90275Y-44500D02*
G75*
G03X90275Y-44500I-50J0D01*
G74*
G01*
X90225Y-44050D02*
X90225Y-44450D01*
X90225Y-44450D02*
X90825Y-44450D01*
X90825Y-44450D02*
X90825Y-44050D01*
X90825Y-43650D02*
X90825Y-43250D01*
X90825Y-43250D02*
X90225Y-43250D01*
X90225Y-43250D02*
X90225Y-43650D01*
X97125Y-43225D02*
G75*
G03X97125Y-43225I-50J0D01*
G74*
G01*
X97075Y-43675D02*
X97075Y-43275D01*
X97075Y-43275D02*
X96475Y-43275D01*
X96475Y-43275D02*
X96475Y-43675D01*
X96475Y-44075D02*
X96475Y-44475D01*
X96475Y-44475D02*
X97075Y-44475D01*
X97075Y-44475D02*
X97075Y-44075D01*
X103300Y-42375D02*
G75*
G03X103300Y-42375I-50J0D01*
G74*
G01*
X103700Y-42375D02*
X103300Y-42375D01*
X103300Y-42375D02*
X103300Y-42975D01*
X103300Y-42975D02*
X103700Y-42975D01*
X104100Y-42975D02*
X104500Y-42975D01*
X104500Y-42975D02*
X104500Y-42375D01*
X104500Y-42375D02*
X104100Y-42375D01*
X99700Y-42275D02*
G75*
G03X99700Y-42275I-50J0D01*
G74*
G01*
X100100Y-42275D02*
X99700Y-42275D01*
X99700Y-42275D02*
X99700Y-42875D01*
X99700Y-42875D02*
X100100Y-42875D01*
X100500Y-42875D02*
X100900Y-42875D01*
X100900Y-42875D02*
X100900Y-42275D01*
X100900Y-42275D02*
X100500Y-42275D01*
X68875Y-41450D02*
G75*
G03X68875Y-41450I-50J0D01*
G74*
G01*
X68375Y-41450D02*
X68775Y-41450D01*
X68775Y-41450D02*
X68775Y-40850D01*
X68775Y-40850D02*
X68375Y-40850D01*
X67975Y-40850D02*
X67575Y-40850D01*
X67575Y-40850D02*
X67575Y-41450D01*
X67575Y-41450D02*
X67975Y-41450D01*
X66975Y-41450D02*
G75*
G03X66975Y-41450I-50J0D01*
G74*
G01*
X66475Y-41450D02*
X66875Y-41450D01*
X66875Y-41450D02*
X66875Y-40850D01*
X66875Y-40850D02*
X66475Y-40850D01*
X66075Y-40850D02*
X65675Y-40850D01*
X65675Y-40850D02*
X65675Y-41450D01*
X65675Y-41450D02*
X66075Y-41450D01*
X65675Y-40000D02*
G75*
G03X65675Y-40000I-50J0D01*
G74*
G01*
X66075Y-40000D02*
X65675Y-40000D01*
X65675Y-40000D02*
X65675Y-40600D01*
X65675Y-40600D02*
X66075Y-40600D01*
X66475Y-40600D02*
X66875Y-40600D01*
X66875Y-40600D02*
X66875Y-40000D01*
X66875Y-40000D02*
X66475Y-40000D01*
X67575Y-40000D02*
G75*
G03X67575Y-40000I-50J0D01*
G74*
G01*
X67975Y-40000D02*
X67575Y-40000D01*
X67575Y-40000D02*
X67575Y-40600D01*
X67575Y-40600D02*
X67975Y-40600D01*
X68375Y-40600D02*
X68775Y-40600D01*
X68775Y-40600D02*
X68775Y-40000D01*
X68775Y-40000D02*
X68375Y-40000D01*
X89300Y-44500D02*
G75*
G03X89300Y-44500I-50J0D01*
G74*
G01*
X89250Y-44050D02*
X89250Y-44450D01*
X89250Y-44450D02*
X89850Y-44450D01*
X89850Y-44450D02*
X89850Y-44050D01*
X89850Y-43650D02*
X89850Y-43250D01*
X89850Y-43250D02*
X89250Y-43250D01*
X89250Y-43250D02*
X89250Y-43650D01*
X100300Y-44075D02*
G75*
G03X100300Y-44075I-50J0D01*
G74*
G01*
X99800Y-44075D02*
X100200Y-44075D01*
X100200Y-44075D02*
X100200Y-43475D01*
X100200Y-43475D02*
X99800Y-43475D01*
X99400Y-43475D02*
X99000Y-43475D01*
X99000Y-43475D02*
X99000Y-44075D01*
X99000Y-44075D02*
X99400Y-44075D01*
X95150Y-43225D02*
G75*
G03X95150Y-43225I-50J0D01*
G74*
G01*
X95100Y-43675D02*
X95100Y-43275D01*
X95100Y-43275D02*
X94500Y-43275D01*
X94500Y-43275D02*
X94500Y-43675D01*
X94500Y-44075D02*
X94500Y-44475D01*
X94500Y-44475D02*
X95100Y-44475D01*
X95100Y-44475D02*
X95100Y-44075D01*
X88275Y-44500D02*
G75*
G03X88275Y-44500I-50J0D01*
G74*
G01*
X88225Y-44050D02*
X88225Y-44450D01*
X88225Y-44450D02*
X88825Y-44450D01*
X88825Y-44450D02*
X88825Y-44050D01*
X88825Y-43650D02*
X88825Y-43250D01*
X88825Y-43250D02*
X88225Y-43250D01*
X88225Y-43250D02*
X88225Y-43650D01*
G54D11*
X90275Y-41550D02*
X90275Y-40350D01*
X90275Y-40350D02*
X89975Y-40350D01*
X89975Y-40350D02*
X89975Y-41550D01*
X89975Y-41550D02*
X90275Y-41550D01*
X105000Y-45150D02*
X106200Y-45150D01*
X106200Y-45150D02*
X106200Y-44850D01*
X106200Y-44850D02*
X105000Y-44850D01*
X105000Y-44850D02*
X105000Y-45150D01*
X102175Y-44850D02*
X100975Y-44850D01*
X100975Y-44850D02*
X100975Y-45150D01*
X100975Y-45150D02*
X102175Y-45150D01*
X102175Y-45150D02*
X102175Y-44850D01*
X94950Y-40300D02*
X94950Y-41500D01*
X94950Y-41500D02*
X95250Y-41500D01*
X95250Y-41500D02*
X95250Y-40300D01*
X95250Y-40300D02*
X94950Y-40300D01*
X97400Y-40750D02*
X96200Y-40750D01*
X96200Y-40750D02*
X96200Y-41050D01*
X96200Y-41050D02*
X97400Y-41050D01*
X97400Y-41050D02*
X97400Y-40750D01*
X101875Y-41950D02*
X101875Y-43150D01*
X101875Y-43150D02*
X102175Y-43150D01*
X102175Y-43150D02*
X102175Y-41950D01*
X102175Y-41950D02*
X101875Y-41950D01*
X87850Y-39875D02*
X87850Y-41075D01*
X87850Y-41075D02*
X88150Y-41075D01*
X88150Y-41075D02*
X88150Y-39875D01*
X88150Y-39875D02*
X87850Y-39875D01*
X108400Y-45525D02*
X108400Y-44325D01*
X108400Y-44325D02*
X108100Y-44325D01*
X108100Y-44325D02*
X108100Y-45525D01*
X108100Y-45525D02*
X108400Y-45525D01*
G54D12*
X113100Y-56200D02*
G75*
G03X113100Y-56200I-50J0D01*
G74*
G01*
X112600Y-56200D02*
X113000Y-56200D01*
X113000Y-56200D02*
X113000Y-55600D01*
X113000Y-55600D02*
X112600Y-55600D01*
X112200Y-55600D02*
X111800Y-55600D01*
X111800Y-55600D02*
X111800Y-56200D01*
X111800Y-56200D02*
X112200Y-56200D01*
X93825Y-54625D02*
G75*
G03X93825Y-54625I-50J0D01*
G74*
G01*
X93775Y-55075D02*
X93775Y-54675D01*
X93775Y-54675D02*
X93175Y-54675D01*
X93175Y-54675D02*
X93175Y-55075D01*
X93175Y-55475D02*
X93175Y-55875D01*
X93175Y-55875D02*
X93775Y-55875D01*
X93775Y-55875D02*
X93775Y-55475D01*
X92975Y-48575D02*
G75*
G03X92975Y-48575I-50J0D01*
G74*
G01*
X92475Y-48575D02*
X92875Y-48575D01*
X92875Y-48575D02*
X92875Y-47975D01*
X92875Y-47975D02*
X92475Y-47975D01*
X92075Y-47975D02*
X91675Y-47975D01*
X91675Y-47975D02*
X91675Y-48575D01*
X91675Y-48575D02*
X92075Y-48575D01*
X79450Y-45650D02*
G75*
G03X79450Y-45650I-50J0D01*
G74*
G01*
X79400Y-45200D02*
X79400Y-45600D01*
X79400Y-45600D02*
X80000Y-45600D01*
X80000Y-45600D02*
X80000Y-45200D01*
X80000Y-44800D02*
X80000Y-44400D01*
X80000Y-44400D02*
X79400Y-44400D01*
X79400Y-44400D02*
X79400Y-44800D01*
X74850Y-45950D02*
G75*
G03X74850Y-45950I-50J0D01*
G74*
G01*
X74800Y-45500D02*
X74800Y-45900D01*
X74800Y-45900D02*
X75400Y-45900D01*
X75400Y-45900D02*
X75400Y-45500D01*
X75400Y-45100D02*
X75400Y-44700D01*
X75400Y-44700D02*
X74800Y-44700D01*
X74800Y-44700D02*
X74800Y-45100D01*
X71850Y-46500D02*
G75*
G03X71850Y-46500I-50J0D01*
G74*
G01*
X71800Y-46050D02*
X71800Y-46450D01*
X71800Y-46450D02*
X72400Y-46450D01*
X72400Y-46450D02*
X72400Y-46050D01*
X72400Y-45650D02*
X72400Y-45250D01*
X72400Y-45250D02*
X71800Y-45250D01*
X71800Y-45250D02*
X71800Y-45650D01*
X72850Y-45950D02*
G75*
G03X72850Y-45950I-50J0D01*
G74*
G01*
X72800Y-45500D02*
X72800Y-45900D01*
X72800Y-45900D02*
X73400Y-45900D01*
X73400Y-45900D02*
X73400Y-45500D01*
X73400Y-45100D02*
X73400Y-44700D01*
X73400Y-44700D02*
X72800Y-44700D01*
X72800Y-44700D02*
X72800Y-45100D01*
X78450Y-45825D02*
G75*
G03X78450Y-45825I-50J0D01*
G74*
G01*
X78400Y-45375D02*
X78400Y-45775D01*
X78400Y-45775D02*
X79000Y-45775D01*
X79000Y-45775D02*
X79000Y-45375D01*
X79000Y-44975D02*
X79000Y-44575D01*
X79000Y-44575D02*
X78400Y-44575D01*
X78400Y-44575D02*
X78400Y-44975D01*
X75875Y-46550D02*
G75*
G03X75875Y-46550I-50J0D01*
G74*
G01*
X75825Y-46100D02*
X75825Y-46500D01*
X75825Y-46500D02*
X76425Y-46500D01*
X76425Y-46500D02*
X76425Y-46100D01*
X76425Y-45700D02*
X76425Y-45300D01*
X76425Y-45300D02*
X75825Y-45300D01*
X75825Y-45300D02*
X75825Y-45700D01*
X109900Y-45100D02*
G75*
G03X109900Y-45100I-50J0D01*
G74*
G01*
X109850Y-44650D02*
X109850Y-45050D01*
X109850Y-45050D02*
X110450Y-45050D01*
X110450Y-45050D02*
X110450Y-44650D01*
X110450Y-44250D02*
X110450Y-43850D01*
X110450Y-43850D02*
X109850Y-43850D01*
X109850Y-43850D02*
X109850Y-44250D01*
G54D11*
X112220Y-38925D02*
G75*
G03X112220Y-38925I-70J0D01*
G74*
G01*
X111000Y-39575D02*
X111000Y-38975D01*
X111000Y-38975D02*
X112100Y-38975D01*
X112100Y-38975D02*
X112100Y-39575D01*
X112100Y-40175D02*
X112100Y-40775D01*
X112100Y-40775D02*
X111000Y-40775D01*
X111000Y-40775D02*
X111000Y-40175D01*
X112020Y-43450D02*
G75*
G03X112020Y-43450I-70J0D01*
G74*
G01*
X111300Y-42300D02*
X111900Y-42300D01*
X111900Y-42300D02*
X111900Y-43400D01*
X111900Y-43400D02*
X111300Y-43400D01*
X110700Y-43400D02*
X110100Y-43400D01*
X110100Y-43400D02*
X110100Y-42300D01*
X110100Y-42300D02*
X110700Y-42300D01*
X112045Y-42150D02*
G75*
G03X112045Y-42150I-70J0D01*
G74*
G01*
X111325Y-41000D02*
X111925Y-41000D01*
X111925Y-41000D02*
X111925Y-42100D01*
X111925Y-42100D02*
X111325Y-42100D01*
X110725Y-42100D02*
X110125Y-42100D01*
X110125Y-42100D02*
X110125Y-41000D01*
X110125Y-41000D02*
X110725Y-41000D01*
X110695Y-45425D02*
G75*
G03X110695Y-45425I-70J0D01*
G74*
G01*
X111775Y-44775D02*
X111775Y-45375D01*
X111775Y-45375D02*
X110675Y-45375D01*
X110675Y-45375D02*
X110675Y-44775D01*
X110675Y-44175D02*
X110675Y-43575D01*
X110675Y-43575D02*
X111775Y-43575D01*
X111775Y-43575D02*
X111775Y-44175D01*
G54D12*
X91600Y-49300D02*
G75*
G03X91600Y-49300I-50J0D01*
G74*
G01*
X92000Y-49300D02*
X91600Y-49300D01*
X91600Y-49300D02*
X91600Y-49900D01*
X91600Y-49900D02*
X92000Y-49900D01*
X92400Y-49900D02*
X92800Y-49900D01*
X92800Y-49900D02*
X92800Y-49300D01*
X92800Y-49300D02*
X92400Y-49300D01*
X91975Y-39900D02*
G75*
G03X91975Y-39900I-50J0D01*
G74*
G01*
X91475Y-39900D02*
X91875Y-39900D01*
X91875Y-39900D02*
X91875Y-39300D01*
X91875Y-39300D02*
X91475Y-39300D01*
X91075Y-39300D02*
X90675Y-39300D01*
X90675Y-39300D02*
X90675Y-39900D01*
X90675Y-39900D02*
X91075Y-39900D01*
X93200Y-39300D02*
G75*
G03X93200Y-39300I-50J0D01*
G74*
G01*
X93600Y-39300D02*
X93200Y-39300D01*
X93200Y-39300D02*
X93200Y-39900D01*
X93200Y-39900D02*
X93600Y-39900D01*
X94000Y-39900D02*
X94400Y-39900D01*
X94400Y-39900D02*
X94400Y-39300D01*
X94400Y-39300D02*
X94000Y-39300D01*
G54D14*
X102503Y-61800D02*
X102532Y-61785D01*
X102560Y-61757D01*
X102603Y-61714D01*
X102632Y-61700D01*
X102660Y-61700D01*
X102646Y-61771D02*
X102675Y-61757D01*
X102703Y-61728D01*
X102717Y-61671D01*
X102717Y-61571D01*
X102703Y-61514D01*
X102675Y-61485D01*
X102646Y-61471D01*
X102589Y-61471D01*
X102560Y-61485D01*
X102532Y-61514D01*
X102517Y-61571D01*
X102517Y-61671D01*
X102532Y-61728D01*
X102560Y-61757D01*
X102589Y-61771D01*
X102646Y-61771D01*
X102232Y-61771D02*
X102403Y-61771D01*
X102317Y-61771D02*
X102317Y-61471D01*
X102346Y-61514D01*
X102375Y-61542D01*
X102403Y-61557D01*
G54D15*
G54D16*
X100657Y-62304D02*
X100723Y-62210D01*
X100770Y-62304D02*
X100770Y-62107D01*
X100695Y-62107D01*
X100676Y-62117D01*
X100667Y-62126D01*
X100657Y-62145D01*
X100657Y-62173D01*
X100667Y-62192D01*
X100676Y-62201D01*
X100695Y-62210D01*
X100770Y-62210D01*
X100488Y-62173D02*
X100488Y-62304D01*
X100535Y-62098D02*
X100582Y-62239D01*
X100460Y-62239D01*
X92407Y-62029D02*
X92473Y-61935D01*
X92520Y-62029D02*
X92520Y-61832D01*
X92445Y-61832D01*
X92426Y-61842D01*
X92417Y-61851D01*
X92407Y-61870D01*
X92407Y-61898D01*
X92417Y-61917D01*
X92426Y-61926D01*
X92445Y-61935D01*
X92520Y-61935D01*
X92220Y-62029D02*
X92332Y-62029D01*
X92276Y-62029D02*
X92276Y-61832D01*
X92295Y-61860D01*
X92314Y-61879D01*
X92332Y-61889D01*
X100532Y-58079D02*
X100598Y-57985D01*
X100645Y-58079D02*
X100645Y-57882D01*
X100570Y-57882D01*
X100551Y-57892D01*
X100542Y-57901D01*
X100532Y-57920D01*
X100532Y-57948D01*
X100542Y-57967D01*
X100551Y-57976D01*
X100570Y-57985D01*
X100645Y-57985D01*
X100363Y-57882D02*
X100401Y-57882D01*
X100420Y-57892D01*
X100429Y-57901D01*
X100448Y-57929D01*
X100457Y-57967D01*
X100457Y-58042D01*
X100448Y-58060D01*
X100439Y-58070D01*
X100420Y-58079D01*
X100382Y-58079D01*
X100363Y-58070D01*
X100354Y-58060D01*
X100345Y-58042D01*
X100345Y-57995D01*
X100354Y-57976D01*
X100363Y-57967D01*
X100382Y-57957D01*
X100420Y-57957D01*
X100439Y-57967D01*
X100448Y-57976D01*
X100457Y-57995D01*
G54D11*
X110665Y-47821D02*
X110665Y-48064D01*
X110653Y-48092D01*
X110641Y-48107D01*
X110617Y-48121D01*
X110570Y-48121D01*
X110546Y-48107D01*
X110534Y-48092D01*
X110522Y-48064D01*
X110522Y-47821D01*
X110427Y-47821D02*
X110272Y-47821D01*
X110355Y-47935D01*
X110320Y-47935D01*
X110296Y-47950D01*
X110284Y-47964D01*
X110272Y-47992D01*
X110272Y-48064D01*
X110284Y-48092D01*
X110296Y-48107D01*
X110320Y-48121D01*
X110391Y-48121D01*
X110415Y-48107D01*
X110427Y-48092D01*
X97575Y-46671D02*
X97675Y-46528D01*
X97746Y-46671D02*
X97746Y-46371D01*
X97632Y-46371D01*
X97603Y-46385D01*
X97589Y-46400D01*
X97575Y-46428D01*
X97575Y-46471D01*
X97589Y-46500D01*
X97603Y-46514D01*
X97632Y-46528D01*
X97746Y-46528D01*
X97432Y-46671D02*
X97375Y-46671D01*
X97346Y-46657D01*
X97332Y-46642D01*
X97303Y-46600D01*
X97289Y-46542D01*
X97289Y-46428D01*
X97303Y-46400D01*
X97317Y-46385D01*
X97346Y-46371D01*
X97403Y-46371D01*
X97432Y-46385D01*
X97446Y-46400D01*
X97460Y-46428D01*
X97460Y-46500D01*
X97446Y-46528D01*
X97432Y-46542D01*
X97403Y-46557D01*
X97346Y-46557D01*
X97317Y-46542D01*
X97303Y-46528D01*
X97289Y-46500D01*
X94825Y-46671D02*
X94925Y-46528D01*
X94996Y-46671D02*
X94996Y-46371D01*
X94882Y-46371D01*
X94853Y-46385D01*
X94839Y-46400D01*
X94825Y-46428D01*
X94825Y-46471D01*
X94839Y-46500D01*
X94853Y-46514D01*
X94882Y-46528D01*
X94996Y-46528D01*
X94725Y-46371D02*
X94525Y-46371D01*
X94653Y-46671D01*
X101242Y-49621D02*
X101342Y-49478D01*
X101414Y-49621D02*
X101414Y-49321D01*
X101300Y-49321D01*
X101271Y-49335D01*
X101257Y-49350D01*
X101242Y-49378D01*
X101242Y-49421D01*
X101257Y-49450D01*
X101271Y-49464D01*
X101300Y-49478D01*
X101414Y-49478D01*
X100957Y-49621D02*
X101128Y-49621D01*
X101042Y-49621D02*
X101042Y-49321D01*
X101071Y-49364D01*
X101100Y-49392D01*
X101128Y-49407D01*
X100771Y-49321D02*
X100742Y-49321D01*
X100714Y-49335D01*
X100700Y-49350D01*
X100685Y-49378D01*
X100671Y-49435D01*
X100671Y-49507D01*
X100685Y-49564D01*
X100700Y-49592D01*
X100714Y-49607D01*
X100742Y-49621D01*
X100771Y-49621D01*
X100800Y-49607D01*
X100814Y-49592D01*
X100828Y-49564D01*
X100842Y-49507D01*
X100842Y-49435D01*
X100828Y-49378D01*
X100814Y-49350D01*
X100800Y-49335D01*
X100771Y-49321D01*
X97525Y-49171D02*
X97625Y-49028D01*
X97696Y-49171D02*
X97696Y-48871D01*
X97582Y-48871D01*
X97553Y-48885D01*
X97539Y-48900D01*
X97525Y-48928D01*
X97525Y-48971D01*
X97539Y-49000D01*
X97553Y-49014D01*
X97582Y-49028D01*
X97696Y-49028D01*
X97353Y-49000D02*
X97382Y-48985D01*
X97396Y-48971D01*
X97410Y-48942D01*
X97410Y-48928D01*
X97396Y-48900D01*
X97382Y-48885D01*
X97353Y-48871D01*
X97296Y-48871D01*
X97267Y-48885D01*
X97253Y-48900D01*
X97239Y-48928D01*
X97239Y-48942D01*
X97253Y-48971D01*
X97267Y-48985D01*
X97296Y-49000D01*
X97353Y-49000D01*
X97382Y-49014D01*
X97396Y-49028D01*
X97410Y-49057D01*
X97410Y-49114D01*
X97396Y-49142D01*
X97382Y-49157D01*
X97353Y-49171D01*
X97296Y-49171D01*
X97267Y-49157D01*
X97253Y-49142D01*
X97239Y-49114D01*
X97239Y-49057D01*
X97253Y-49028D01*
X97267Y-49014D01*
X97296Y-49000D01*
G54D16*
X89557Y-54660D02*
X89567Y-54670D01*
X89595Y-54679D01*
X89614Y-54679D01*
X89642Y-54670D01*
X89661Y-54651D01*
X89670Y-54632D01*
X89679Y-54595D01*
X89679Y-54567D01*
X89670Y-54529D01*
X89661Y-54510D01*
X89642Y-54492D01*
X89614Y-54482D01*
X89595Y-54482D01*
X89567Y-54492D01*
X89557Y-54501D01*
X89370Y-54679D02*
X89482Y-54679D01*
X89426Y-54679D02*
X89426Y-54482D01*
X89445Y-54510D01*
X89464Y-54529D01*
X89482Y-54539D01*
X93707Y-47885D02*
X93717Y-47895D01*
X93745Y-47904D01*
X93764Y-47904D01*
X93792Y-47895D01*
X93811Y-47876D01*
X93820Y-47857D01*
X93829Y-47820D01*
X93829Y-47792D01*
X93820Y-47754D01*
X93811Y-47735D01*
X93792Y-47717D01*
X93764Y-47707D01*
X93745Y-47707D01*
X93717Y-47717D01*
X93707Y-47726D01*
X93642Y-47707D02*
X93510Y-47707D01*
X93595Y-47904D01*
X90907Y-47860D02*
X90917Y-47870D01*
X90945Y-47879D01*
X90964Y-47879D01*
X90992Y-47870D01*
X91011Y-47851D01*
X91020Y-47832D01*
X91029Y-47795D01*
X91029Y-47767D01*
X91020Y-47729D01*
X91011Y-47710D01*
X90992Y-47692D01*
X90964Y-47682D01*
X90945Y-47682D01*
X90917Y-47692D01*
X90907Y-47701D01*
X90795Y-47767D02*
X90814Y-47757D01*
X90823Y-47748D01*
X90832Y-47729D01*
X90832Y-47720D01*
X90823Y-47701D01*
X90814Y-47692D01*
X90795Y-47682D01*
X90757Y-47682D01*
X90738Y-47692D01*
X90729Y-47701D01*
X90720Y-47720D01*
X90720Y-47729D01*
X90729Y-47748D01*
X90738Y-47757D01*
X90757Y-47767D01*
X90795Y-47767D01*
X90814Y-47776D01*
X90823Y-47785D01*
X90832Y-47804D01*
X90832Y-47842D01*
X90823Y-47860D01*
X90814Y-47870D01*
X90795Y-47879D01*
X90757Y-47879D01*
X90738Y-47870D01*
X90729Y-47860D01*
X90720Y-47842D01*
X90720Y-47804D01*
X90729Y-47785D01*
X90738Y-47776D01*
X90757Y-47767D01*
X102901Y-47685D02*
X102911Y-47695D01*
X102939Y-47704D01*
X102957Y-47704D01*
X102986Y-47695D01*
X103004Y-47676D01*
X103014Y-47657D01*
X103023Y-47620D01*
X103023Y-47592D01*
X103014Y-47554D01*
X103004Y-47535D01*
X102986Y-47517D01*
X102957Y-47507D01*
X102939Y-47507D01*
X102911Y-47517D01*
X102901Y-47526D01*
X102714Y-47704D02*
X102826Y-47704D01*
X102770Y-47704D02*
X102770Y-47507D01*
X102789Y-47535D01*
X102807Y-47554D01*
X102826Y-47564D01*
X102592Y-47507D02*
X102573Y-47507D01*
X102554Y-47517D01*
X102545Y-47526D01*
X102535Y-47545D01*
X102526Y-47582D01*
X102526Y-47629D01*
X102535Y-47667D01*
X102545Y-47685D01*
X102554Y-47695D01*
X102573Y-47704D01*
X102592Y-47704D01*
X102610Y-47695D01*
X102620Y-47685D01*
X102629Y-47667D01*
X102638Y-47629D01*
X102638Y-47582D01*
X102629Y-47545D01*
X102620Y-47526D01*
X102610Y-47517D01*
X102592Y-47507D01*
X100760Y-46223D02*
X100770Y-46213D01*
X100779Y-46185D01*
X100779Y-46167D01*
X100770Y-46138D01*
X100751Y-46120D01*
X100732Y-46110D01*
X100695Y-46101D01*
X100667Y-46101D01*
X100629Y-46110D01*
X100610Y-46120D01*
X100592Y-46138D01*
X100582Y-46167D01*
X100582Y-46185D01*
X100592Y-46213D01*
X100601Y-46223D01*
X100779Y-46410D02*
X100779Y-46298D01*
X100779Y-46354D02*
X100582Y-46354D01*
X100610Y-46335D01*
X100629Y-46317D01*
X100639Y-46298D01*
X100779Y-46598D02*
X100779Y-46486D01*
X100779Y-46542D02*
X100582Y-46542D01*
X100610Y-46523D01*
X100629Y-46504D01*
X100639Y-46486D01*
X109757Y-46710D02*
X109767Y-46720D01*
X109795Y-46729D01*
X109814Y-46729D01*
X109842Y-46720D01*
X109861Y-46701D01*
X109870Y-46682D01*
X109879Y-46645D01*
X109879Y-46617D01*
X109870Y-46579D01*
X109861Y-46560D01*
X109842Y-46542D01*
X109814Y-46532D01*
X109795Y-46532D01*
X109767Y-46542D01*
X109757Y-46551D01*
X109664Y-46729D02*
X109626Y-46729D01*
X109607Y-46720D01*
X109598Y-46710D01*
X109579Y-46682D01*
X109570Y-46645D01*
X109570Y-46570D01*
X109579Y-46551D01*
X109588Y-46542D01*
X109607Y-46532D01*
X109645Y-46532D01*
X109664Y-46542D01*
X109673Y-46551D01*
X109682Y-46570D01*
X109682Y-46617D01*
X109673Y-46635D01*
X109664Y-46645D01*
X109645Y-46654D01*
X109607Y-46654D01*
X109588Y-46645D01*
X109579Y-46635D01*
X109570Y-46617D01*
X104626Y-49729D02*
X104692Y-49635D01*
X104739Y-49729D02*
X104739Y-49532D01*
X104664Y-49532D01*
X104645Y-49542D01*
X104636Y-49551D01*
X104626Y-49570D01*
X104626Y-49598D01*
X104636Y-49617D01*
X104645Y-49626D01*
X104664Y-49635D01*
X104739Y-49635D01*
X104457Y-49598D02*
X104457Y-49729D01*
X104504Y-49523D02*
X104551Y-49664D01*
X104429Y-49664D01*
X104270Y-49598D02*
X104270Y-49729D01*
X104317Y-49523D02*
X104363Y-49664D01*
X104242Y-49664D01*
X104601Y-47804D02*
X104667Y-47710D01*
X104714Y-47804D02*
X104714Y-47607D01*
X104639Y-47607D01*
X104620Y-47617D01*
X104611Y-47626D01*
X104601Y-47645D01*
X104601Y-47673D01*
X104611Y-47692D01*
X104620Y-47701D01*
X104639Y-47710D01*
X104714Y-47710D01*
X104432Y-47673D02*
X104432Y-47804D01*
X104479Y-47598D02*
X104526Y-47739D01*
X104404Y-47739D01*
X104235Y-47607D02*
X104329Y-47607D01*
X104338Y-47701D01*
X104329Y-47692D01*
X104310Y-47682D01*
X104263Y-47682D01*
X104245Y-47692D01*
X104235Y-47701D01*
X104226Y-47720D01*
X104226Y-47767D01*
X104235Y-47785D01*
X104245Y-47795D01*
X104263Y-47804D01*
X104310Y-47804D01*
X104329Y-47795D01*
X104338Y-47785D01*
X103026Y-49854D02*
X103092Y-49760D01*
X103139Y-49854D02*
X103139Y-49657D01*
X103064Y-49657D01*
X103045Y-49667D01*
X103036Y-49676D01*
X103026Y-49695D01*
X103026Y-49723D01*
X103036Y-49742D01*
X103045Y-49751D01*
X103064Y-49760D01*
X103139Y-49760D01*
X102839Y-49854D02*
X102951Y-49854D01*
X102895Y-49854D02*
X102895Y-49657D01*
X102914Y-49685D01*
X102932Y-49704D01*
X102951Y-49714D01*
X102773Y-49657D02*
X102651Y-49657D01*
X102717Y-49732D01*
X102688Y-49732D01*
X102670Y-49742D01*
X102660Y-49751D01*
X102651Y-49770D01*
X102651Y-49817D01*
X102660Y-49835D01*
X102670Y-49845D01*
X102688Y-49854D01*
X102745Y-49854D01*
X102763Y-49845D01*
X102773Y-49835D01*
X104601Y-46779D02*
X104667Y-46685D01*
X104714Y-46779D02*
X104714Y-46582D01*
X104639Y-46582D01*
X104620Y-46592D01*
X104611Y-46601D01*
X104601Y-46620D01*
X104601Y-46648D01*
X104611Y-46667D01*
X104620Y-46676D01*
X104639Y-46685D01*
X104714Y-46685D01*
X104414Y-46779D02*
X104526Y-46779D01*
X104470Y-46779D02*
X104470Y-46582D01*
X104489Y-46610D01*
X104507Y-46629D01*
X104526Y-46639D01*
X104338Y-46601D02*
X104329Y-46592D01*
X104310Y-46582D01*
X104263Y-46582D01*
X104245Y-46592D01*
X104235Y-46601D01*
X104226Y-46620D01*
X104226Y-46639D01*
X104235Y-46667D01*
X104348Y-46779D01*
X104226Y-46779D01*
X97451Y-50529D02*
X97517Y-50435D01*
X97564Y-50529D02*
X97564Y-50332D01*
X97489Y-50332D01*
X97470Y-50342D01*
X97461Y-50351D01*
X97451Y-50370D01*
X97451Y-50398D01*
X97461Y-50417D01*
X97470Y-50426D01*
X97489Y-50435D01*
X97564Y-50435D01*
X97264Y-50529D02*
X97376Y-50529D01*
X97320Y-50529D02*
X97320Y-50332D01*
X97339Y-50360D01*
X97357Y-50379D01*
X97376Y-50389D01*
X97076Y-50529D02*
X97188Y-50529D01*
X97132Y-50529D02*
X97132Y-50332D01*
X97151Y-50360D01*
X97170Y-50379D01*
X97188Y-50389D01*
X93282Y-45685D02*
X93292Y-45695D01*
X93320Y-45704D01*
X93339Y-45704D01*
X93367Y-45695D01*
X93386Y-45676D01*
X93395Y-45657D01*
X93404Y-45620D01*
X93404Y-45592D01*
X93395Y-45554D01*
X93386Y-45535D01*
X93367Y-45517D01*
X93339Y-45507D01*
X93320Y-45507D01*
X93292Y-45517D01*
X93282Y-45526D01*
X93113Y-45507D02*
X93151Y-45507D01*
X93170Y-45517D01*
X93179Y-45526D01*
X93198Y-45554D01*
X93207Y-45592D01*
X93207Y-45667D01*
X93198Y-45685D01*
X93189Y-45695D01*
X93170Y-45704D01*
X93132Y-45704D01*
X93113Y-45695D01*
X93104Y-45685D01*
X93095Y-45667D01*
X93095Y-45620D01*
X93104Y-45601D01*
X93113Y-45592D01*
X93132Y-45582D01*
X93170Y-45582D01*
X93189Y-45592D01*
X93198Y-45601D01*
X93207Y-45620D01*
X78151Y-56129D02*
X78217Y-56035D01*
X78264Y-56129D02*
X78264Y-55932D01*
X78189Y-55932D01*
X78170Y-55942D01*
X78161Y-55951D01*
X78151Y-55970D01*
X78151Y-55998D01*
X78161Y-56017D01*
X78170Y-56026D01*
X78189Y-56035D01*
X78264Y-56035D01*
X78085Y-55932D02*
X77964Y-55932D01*
X78029Y-56007D01*
X78001Y-56007D01*
X77982Y-56017D01*
X77973Y-56026D01*
X77964Y-56045D01*
X77964Y-56092D01*
X77973Y-56110D01*
X77982Y-56120D01*
X78001Y-56129D01*
X78057Y-56129D01*
X78076Y-56120D01*
X78085Y-56110D01*
X77898Y-55932D02*
X77776Y-55932D01*
X77842Y-56007D01*
X77813Y-56007D01*
X77795Y-56017D01*
X77785Y-56026D01*
X77776Y-56045D01*
X77776Y-56092D01*
X77785Y-56110D01*
X77795Y-56120D01*
X77813Y-56129D01*
X77870Y-56129D01*
X77888Y-56120D01*
X77898Y-56110D01*
G54D17*
X98928Y-45375D02*
X98957Y-45360D01*
X98985Y-45332D01*
X99028Y-45289D01*
X99057Y-45275D01*
X99085Y-45275D01*
X99071Y-45346D02*
X99100Y-45332D01*
X99128Y-45303D01*
X99142Y-45246D01*
X99142Y-45146D01*
X99128Y-45089D01*
X99100Y-45060D01*
X99071Y-45046D01*
X99014Y-45046D01*
X98985Y-45060D01*
X98957Y-45089D01*
X98942Y-45146D01*
X98942Y-45246D01*
X98957Y-45303D01*
X98985Y-45332D01*
X99014Y-45346D01*
X99071Y-45346D01*
X98828Y-45075D02*
X98814Y-45060D01*
X98785Y-45046D01*
X98714Y-45046D01*
X98685Y-45060D01*
X98671Y-45075D01*
X98657Y-45103D01*
X98657Y-45132D01*
X98671Y-45175D01*
X98842Y-45346D01*
X98657Y-45346D01*
G54D11*
X111360Y-51161D02*
X111189Y-51161D01*
X111274Y-51561D02*
X111274Y-51161D01*
X111089Y-51561D02*
X111089Y-51161D01*
X111089Y-51352D02*
X110917Y-51352D01*
X110917Y-51561D02*
X110917Y-51161D01*
X110632Y-51161D02*
X110774Y-51161D01*
X110789Y-51352D01*
X110774Y-51333D01*
X110746Y-51314D01*
X110674Y-51314D01*
X110646Y-51333D01*
X110632Y-51352D01*
X110617Y-51390D01*
X110617Y-51485D01*
X110632Y-51523D01*
X110646Y-51542D01*
X110674Y-51561D01*
X110746Y-51561D01*
X110774Y-51542D01*
X110789Y-51523D01*
G54D16*
X103026Y-51710D02*
X103036Y-51720D01*
X103064Y-51729D01*
X103082Y-51729D01*
X103111Y-51720D01*
X103129Y-51701D01*
X103139Y-51682D01*
X103148Y-51645D01*
X103148Y-51617D01*
X103139Y-51579D01*
X103129Y-51560D01*
X103111Y-51542D01*
X103082Y-51532D01*
X103064Y-51532D01*
X103036Y-51542D01*
X103026Y-51551D01*
X102839Y-51729D02*
X102951Y-51729D01*
X102895Y-51729D02*
X102895Y-51532D01*
X102914Y-51560D01*
X102932Y-51579D01*
X102951Y-51589D01*
X102773Y-51532D02*
X102651Y-51532D01*
X102717Y-51607D01*
X102688Y-51607D01*
X102670Y-51617D01*
X102660Y-51626D01*
X102651Y-51645D01*
X102651Y-51692D01*
X102660Y-51710D01*
X102670Y-51720D01*
X102688Y-51729D01*
X102745Y-51729D01*
X102763Y-51720D01*
X102773Y-51710D01*
X90701Y-51185D02*
X90711Y-51195D01*
X90739Y-51204D01*
X90757Y-51204D01*
X90786Y-51195D01*
X90804Y-51176D01*
X90814Y-51157D01*
X90823Y-51120D01*
X90823Y-51092D01*
X90814Y-51054D01*
X90804Y-51035D01*
X90786Y-51017D01*
X90757Y-51007D01*
X90739Y-51007D01*
X90711Y-51017D01*
X90701Y-51026D01*
X90514Y-51204D02*
X90626Y-51204D01*
X90570Y-51204D02*
X90570Y-51007D01*
X90589Y-51035D01*
X90607Y-51054D01*
X90626Y-51064D01*
X90438Y-51026D02*
X90429Y-51017D01*
X90410Y-51007D01*
X90363Y-51007D01*
X90345Y-51017D01*
X90335Y-51026D01*
X90326Y-51045D01*
X90326Y-51064D01*
X90335Y-51092D01*
X90448Y-51204D01*
X90326Y-51204D01*
G54D11*
X58660Y-50436D02*
X58489Y-50436D01*
X58574Y-50836D02*
X58574Y-50436D01*
X58389Y-50836D02*
X58389Y-50436D01*
X58389Y-50627D02*
X58217Y-50627D01*
X58217Y-50836D02*
X58217Y-50436D01*
X57946Y-50570D02*
X57946Y-50836D01*
X58017Y-50417D02*
X58089Y-50703D01*
X57903Y-50703D01*
X58060Y-59786D02*
X57889Y-59786D01*
X57974Y-60186D02*
X57974Y-59786D01*
X57789Y-60186D02*
X57789Y-59786D01*
X57789Y-59977D02*
X57617Y-59977D01*
X57617Y-60186D02*
X57617Y-59786D01*
X57503Y-59786D02*
X57317Y-59786D01*
X57417Y-59939D01*
X57374Y-59939D01*
X57346Y-59958D01*
X57332Y-59977D01*
X57317Y-60015D01*
X57317Y-60110D01*
X57332Y-60148D01*
X57346Y-60167D01*
X57374Y-60186D01*
X57460Y-60186D01*
X57489Y-60167D01*
X57503Y-60148D01*
X61610Y-55461D02*
X61439Y-55461D01*
X61524Y-55861D02*
X61524Y-55461D01*
X61339Y-55861D02*
X61339Y-55461D01*
X61339Y-55652D02*
X61167Y-55652D01*
X61167Y-55861D02*
X61167Y-55461D01*
X61039Y-55500D02*
X61024Y-55480D01*
X60996Y-55461D01*
X60924Y-55461D01*
X60896Y-55480D01*
X60882Y-55500D01*
X60867Y-55538D01*
X60867Y-55576D01*
X60882Y-55633D01*
X61053Y-55861D01*
X60867Y-55861D01*
X54235Y-39036D02*
X54064Y-39036D01*
X54149Y-39436D02*
X54149Y-39036D01*
X53964Y-39436D02*
X53964Y-39036D01*
X53964Y-39227D02*
X53792Y-39227D01*
X53792Y-39436D02*
X53792Y-39036D01*
X53492Y-39436D02*
X53664Y-39436D01*
X53578Y-39436D02*
X53578Y-39036D01*
X53607Y-39094D01*
X53635Y-39132D01*
X53664Y-39151D01*
X60720Y-51361D02*
X60852Y-51361D01*
X60852Y-51085D01*
X60510Y-51177D02*
X60510Y-51361D01*
X60576Y-51072D02*
X60642Y-51269D01*
X60471Y-51269D01*
G54D16*
X108726Y-42310D02*
X108736Y-42320D01*
X108764Y-42329D01*
X108782Y-42329D01*
X108811Y-42320D01*
X108829Y-42301D01*
X108839Y-42282D01*
X108848Y-42245D01*
X108848Y-42217D01*
X108839Y-42179D01*
X108829Y-42160D01*
X108811Y-42142D01*
X108782Y-42132D01*
X108764Y-42132D01*
X108736Y-42142D01*
X108726Y-42151D01*
X108539Y-42329D02*
X108651Y-42329D01*
X108595Y-42329D02*
X108595Y-42132D01*
X108614Y-42160D01*
X108632Y-42179D01*
X108651Y-42189D01*
X108473Y-42132D02*
X108342Y-42132D01*
X108426Y-42329D01*
X105476Y-42004D02*
X105542Y-41910D01*
X105589Y-42004D02*
X105589Y-41807D01*
X105514Y-41807D01*
X105495Y-41817D01*
X105486Y-41826D01*
X105476Y-41845D01*
X105476Y-41873D01*
X105486Y-41892D01*
X105495Y-41901D01*
X105514Y-41910D01*
X105589Y-41910D01*
X105298Y-41807D02*
X105392Y-41807D01*
X105401Y-41901D01*
X105392Y-41892D01*
X105373Y-41882D01*
X105326Y-41882D01*
X105307Y-41892D01*
X105298Y-41901D01*
X105289Y-41920D01*
X105289Y-41967D01*
X105298Y-41985D01*
X105307Y-41995D01*
X105326Y-42004D01*
X105373Y-42004D01*
X105392Y-41995D01*
X105401Y-41985D01*
X105120Y-41873D02*
X105120Y-42004D01*
X105167Y-41798D02*
X105213Y-41939D01*
X105092Y-41939D01*
X106851Y-41979D02*
X106917Y-41885D01*
X106964Y-41979D02*
X106964Y-41782D01*
X106889Y-41782D01*
X106870Y-41792D01*
X106861Y-41801D01*
X106851Y-41820D01*
X106851Y-41848D01*
X106861Y-41867D01*
X106870Y-41876D01*
X106889Y-41885D01*
X106964Y-41885D01*
X106673Y-41782D02*
X106767Y-41782D01*
X106776Y-41876D01*
X106767Y-41867D01*
X106748Y-41857D01*
X106701Y-41857D01*
X106682Y-41867D01*
X106673Y-41876D01*
X106664Y-41895D01*
X106664Y-41942D01*
X106673Y-41960D01*
X106682Y-41970D01*
X106701Y-41979D01*
X106748Y-41979D01*
X106767Y-41970D01*
X106776Y-41960D01*
X106485Y-41782D02*
X106579Y-41782D01*
X106588Y-41876D01*
X106579Y-41867D01*
X106560Y-41857D01*
X106513Y-41857D01*
X106495Y-41867D01*
X106485Y-41876D01*
X106476Y-41895D01*
X106476Y-41942D01*
X106485Y-41960D01*
X106495Y-41970D01*
X106513Y-41979D01*
X106560Y-41979D01*
X106579Y-41970D01*
X106588Y-41960D01*
X95701Y-43135D02*
X95711Y-43145D01*
X95739Y-43154D01*
X95757Y-43154D01*
X95786Y-43145D01*
X95804Y-43126D01*
X95814Y-43107D01*
X95823Y-43070D01*
X95823Y-43042D01*
X95814Y-43004D01*
X95804Y-42985D01*
X95786Y-42967D01*
X95757Y-42957D01*
X95739Y-42957D01*
X95711Y-42967D01*
X95701Y-42976D01*
X95626Y-42976D02*
X95617Y-42967D01*
X95598Y-42957D01*
X95551Y-42957D01*
X95532Y-42967D01*
X95523Y-42976D01*
X95514Y-42995D01*
X95514Y-43014D01*
X95523Y-43042D01*
X95635Y-43154D01*
X95514Y-43154D01*
X95448Y-42957D02*
X95326Y-42957D01*
X95392Y-43032D01*
X95363Y-43032D01*
X95345Y-43042D01*
X95335Y-43051D01*
X95326Y-43070D01*
X95326Y-43117D01*
X95335Y-43135D01*
X95345Y-43145D01*
X95363Y-43154D01*
X95420Y-43154D01*
X95438Y-43145D01*
X95448Y-43135D01*
X103751Y-44510D02*
X103761Y-44520D01*
X103789Y-44529D01*
X103807Y-44529D01*
X103836Y-44520D01*
X103854Y-44501D01*
X103864Y-44482D01*
X103873Y-44445D01*
X103873Y-44417D01*
X103864Y-44379D01*
X103854Y-44360D01*
X103836Y-44342D01*
X103807Y-44332D01*
X103789Y-44332D01*
X103761Y-44342D01*
X103751Y-44351D01*
X103676Y-44351D02*
X103667Y-44342D01*
X103648Y-44332D01*
X103601Y-44332D01*
X103582Y-44342D01*
X103573Y-44351D01*
X103564Y-44370D01*
X103564Y-44389D01*
X103573Y-44417D01*
X103685Y-44529D01*
X103564Y-44529D01*
X103385Y-44332D02*
X103479Y-44332D01*
X103488Y-44426D01*
X103479Y-44417D01*
X103460Y-44407D01*
X103413Y-44407D01*
X103395Y-44417D01*
X103385Y-44426D01*
X103376Y-44445D01*
X103376Y-44492D01*
X103385Y-44510D01*
X103395Y-44520D01*
X103413Y-44529D01*
X103460Y-44529D01*
X103479Y-44520D01*
X103488Y-44510D01*
X90676Y-43160D02*
X90686Y-43170D01*
X90714Y-43179D01*
X90732Y-43179D01*
X90761Y-43170D01*
X90779Y-43151D01*
X90789Y-43132D01*
X90798Y-43095D01*
X90798Y-43067D01*
X90789Y-43029D01*
X90779Y-43010D01*
X90761Y-42992D01*
X90732Y-42982D01*
X90714Y-42982D01*
X90686Y-42992D01*
X90676Y-43001D01*
X90601Y-43001D02*
X90592Y-42992D01*
X90573Y-42982D01*
X90526Y-42982D01*
X90507Y-42992D01*
X90498Y-43001D01*
X90489Y-43020D01*
X90489Y-43039D01*
X90498Y-43067D01*
X90610Y-43179D01*
X90489Y-43179D01*
X90413Y-43001D02*
X90404Y-42992D01*
X90385Y-42982D01*
X90338Y-42982D01*
X90320Y-42992D01*
X90310Y-43001D01*
X90301Y-43020D01*
X90301Y-43039D01*
X90310Y-43067D01*
X90423Y-43179D01*
X90301Y-43179D01*
X96651Y-43135D02*
X96661Y-43145D01*
X96689Y-43154D01*
X96707Y-43154D01*
X96736Y-43145D01*
X96754Y-43126D01*
X96764Y-43107D01*
X96773Y-43070D01*
X96773Y-43042D01*
X96764Y-43004D01*
X96754Y-42985D01*
X96736Y-42967D01*
X96707Y-42957D01*
X96689Y-42957D01*
X96661Y-42967D01*
X96651Y-42976D01*
X96464Y-43154D02*
X96576Y-43154D01*
X96520Y-43154D02*
X96520Y-42957D01*
X96539Y-42985D01*
X96557Y-43004D01*
X96576Y-43014D01*
X96285Y-42957D02*
X96379Y-42957D01*
X96388Y-43051D01*
X96379Y-43042D01*
X96360Y-43032D01*
X96313Y-43032D01*
X96295Y-43042D01*
X96285Y-43051D01*
X96276Y-43070D01*
X96276Y-43117D01*
X96285Y-43135D01*
X96295Y-43145D01*
X96313Y-43154D01*
X96360Y-43154D01*
X96379Y-43145D01*
X96388Y-43135D01*
X104001Y-42235D02*
X104011Y-42245D01*
X104039Y-42254D01*
X104057Y-42254D01*
X104086Y-42245D01*
X104104Y-42226D01*
X104114Y-42207D01*
X104123Y-42170D01*
X104123Y-42142D01*
X104114Y-42104D01*
X104104Y-42085D01*
X104086Y-42067D01*
X104057Y-42057D01*
X104039Y-42057D01*
X104011Y-42067D01*
X104001Y-42076D01*
X103814Y-42254D02*
X103926Y-42254D01*
X103870Y-42254D02*
X103870Y-42057D01*
X103889Y-42085D01*
X103907Y-42104D01*
X103926Y-42114D01*
X103645Y-42057D02*
X103682Y-42057D01*
X103701Y-42067D01*
X103710Y-42076D01*
X103729Y-42104D01*
X103738Y-42142D01*
X103738Y-42217D01*
X103729Y-42235D01*
X103720Y-42245D01*
X103701Y-42254D01*
X103663Y-42254D01*
X103645Y-42245D01*
X103635Y-42235D01*
X103626Y-42217D01*
X103626Y-42170D01*
X103635Y-42151D01*
X103645Y-42142D01*
X103663Y-42132D01*
X103701Y-42132D01*
X103720Y-42142D01*
X103729Y-42151D01*
X103738Y-42170D01*
X100451Y-42154D02*
X100517Y-42060D01*
X100564Y-42154D02*
X100564Y-41957D01*
X100489Y-41957D01*
X100470Y-41967D01*
X100461Y-41976D01*
X100451Y-41995D01*
X100451Y-42023D01*
X100461Y-42042D01*
X100470Y-42051D01*
X100489Y-42060D01*
X100564Y-42060D01*
X100273Y-41957D02*
X100367Y-41957D01*
X100376Y-42051D01*
X100367Y-42042D01*
X100348Y-42032D01*
X100301Y-42032D01*
X100282Y-42042D01*
X100273Y-42051D01*
X100264Y-42070D01*
X100264Y-42117D01*
X100273Y-42135D01*
X100282Y-42145D01*
X100301Y-42154D01*
X100348Y-42154D01*
X100367Y-42145D01*
X100376Y-42135D01*
X100198Y-41957D02*
X100076Y-41957D01*
X100142Y-42032D01*
X100113Y-42032D01*
X100095Y-42042D01*
X100085Y-42051D01*
X100076Y-42070D01*
X100076Y-42117D01*
X100085Y-42135D01*
X100095Y-42145D01*
X100113Y-42154D01*
X100170Y-42154D01*
X100188Y-42145D01*
X100198Y-42135D01*
X68326Y-41779D02*
X68392Y-41685D01*
X68439Y-41779D02*
X68439Y-41582D01*
X68364Y-41582D01*
X68345Y-41592D01*
X68336Y-41601D01*
X68326Y-41620D01*
X68326Y-41648D01*
X68336Y-41667D01*
X68345Y-41676D01*
X68364Y-41685D01*
X68439Y-41685D01*
X68157Y-41648D02*
X68157Y-41779D01*
X68204Y-41573D02*
X68251Y-41714D01*
X68129Y-41714D01*
X67951Y-41779D02*
X68063Y-41779D01*
X68007Y-41779D02*
X68007Y-41582D01*
X68026Y-41610D01*
X68045Y-41629D01*
X68063Y-41639D01*
X66401Y-41754D02*
X66467Y-41660D01*
X66514Y-41754D02*
X66514Y-41557D01*
X66439Y-41557D01*
X66420Y-41567D01*
X66411Y-41576D01*
X66401Y-41595D01*
X66401Y-41623D01*
X66411Y-41642D01*
X66420Y-41651D01*
X66439Y-41660D01*
X66514Y-41660D01*
X66232Y-41623D02*
X66232Y-41754D01*
X66279Y-41548D02*
X66326Y-41689D01*
X66204Y-41689D01*
X66092Y-41557D02*
X66073Y-41557D01*
X66054Y-41567D01*
X66045Y-41576D01*
X66035Y-41595D01*
X66026Y-41632D01*
X66026Y-41679D01*
X66035Y-41717D01*
X66045Y-41735D01*
X66054Y-41745D01*
X66073Y-41754D01*
X66092Y-41754D01*
X66110Y-41745D01*
X66120Y-41735D01*
X66129Y-41717D01*
X66138Y-41679D01*
X66138Y-41632D01*
X66129Y-41595D01*
X66120Y-41576D01*
X66110Y-41567D01*
X66092Y-41557D01*
X65476Y-40379D02*
X65542Y-40285D01*
X65589Y-40379D02*
X65589Y-40182D01*
X65514Y-40182D01*
X65495Y-40192D01*
X65486Y-40201D01*
X65476Y-40220D01*
X65476Y-40248D01*
X65486Y-40267D01*
X65495Y-40276D01*
X65514Y-40285D01*
X65589Y-40285D01*
X65410Y-40182D02*
X65289Y-40182D01*
X65354Y-40257D01*
X65326Y-40257D01*
X65307Y-40267D01*
X65298Y-40276D01*
X65289Y-40295D01*
X65289Y-40342D01*
X65298Y-40360D01*
X65307Y-40370D01*
X65326Y-40379D01*
X65382Y-40379D01*
X65401Y-40370D01*
X65410Y-40360D01*
X65195Y-40379D02*
X65157Y-40379D01*
X65138Y-40370D01*
X65129Y-40360D01*
X65110Y-40332D01*
X65101Y-40295D01*
X65101Y-40220D01*
X65110Y-40201D01*
X65120Y-40192D01*
X65138Y-40182D01*
X65176Y-40182D01*
X65195Y-40192D01*
X65204Y-40201D01*
X65213Y-40220D01*
X65213Y-40267D01*
X65204Y-40285D01*
X65195Y-40295D01*
X65176Y-40304D01*
X65138Y-40304D01*
X65120Y-40295D01*
X65110Y-40285D01*
X65101Y-40267D01*
X68276Y-39879D02*
X68342Y-39785D01*
X68389Y-39879D02*
X68389Y-39682D01*
X68314Y-39682D01*
X68295Y-39692D01*
X68286Y-39701D01*
X68276Y-39720D01*
X68276Y-39748D01*
X68286Y-39767D01*
X68295Y-39776D01*
X68314Y-39785D01*
X68389Y-39785D01*
X68210Y-39682D02*
X68089Y-39682D01*
X68154Y-39757D01*
X68126Y-39757D01*
X68107Y-39767D01*
X68098Y-39776D01*
X68089Y-39795D01*
X68089Y-39842D01*
X68098Y-39860D01*
X68107Y-39870D01*
X68126Y-39879D01*
X68182Y-39879D01*
X68201Y-39870D01*
X68210Y-39860D01*
X67976Y-39767D02*
X67995Y-39757D01*
X68004Y-39748D01*
X68013Y-39729D01*
X68013Y-39720D01*
X68004Y-39701D01*
X67995Y-39692D01*
X67976Y-39682D01*
X67938Y-39682D01*
X67920Y-39692D01*
X67910Y-39701D01*
X67901Y-39720D01*
X67901Y-39729D01*
X67910Y-39748D01*
X67920Y-39757D01*
X67938Y-39767D01*
X67976Y-39767D01*
X67995Y-39776D01*
X68004Y-39785D01*
X68013Y-39804D01*
X68013Y-39842D01*
X68004Y-39860D01*
X67995Y-39870D01*
X67976Y-39879D01*
X67938Y-39879D01*
X67920Y-39870D01*
X67910Y-39860D01*
X67901Y-39842D01*
X67901Y-39804D01*
X67910Y-39785D01*
X67920Y-39776D01*
X67938Y-39767D01*
X89676Y-43160D02*
X89686Y-43170D01*
X89714Y-43179D01*
X89732Y-43179D01*
X89761Y-43170D01*
X89779Y-43151D01*
X89789Y-43132D01*
X89798Y-43095D01*
X89798Y-43067D01*
X89789Y-43029D01*
X89779Y-43010D01*
X89761Y-42992D01*
X89732Y-42982D01*
X89714Y-42982D01*
X89686Y-42992D01*
X89676Y-43001D01*
X89489Y-43179D02*
X89601Y-43179D01*
X89545Y-43179D02*
X89545Y-42982D01*
X89564Y-43010D01*
X89582Y-43029D01*
X89601Y-43039D01*
X89320Y-43048D02*
X89320Y-43179D01*
X89367Y-42973D02*
X89413Y-43114D01*
X89292Y-43114D01*
X99726Y-44360D02*
X99736Y-44370D01*
X99764Y-44379D01*
X99782Y-44379D01*
X99811Y-44370D01*
X99829Y-44351D01*
X99839Y-44332D01*
X99848Y-44295D01*
X99848Y-44267D01*
X99839Y-44229D01*
X99829Y-44210D01*
X99811Y-44192D01*
X99782Y-44182D01*
X99764Y-44182D01*
X99736Y-44192D01*
X99726Y-44201D01*
X99651Y-44201D02*
X99642Y-44192D01*
X99623Y-44182D01*
X99576Y-44182D01*
X99557Y-44192D01*
X99548Y-44201D01*
X99539Y-44220D01*
X99539Y-44239D01*
X99548Y-44267D01*
X99660Y-44379D01*
X99539Y-44379D01*
X99417Y-44182D02*
X99398Y-44182D01*
X99379Y-44192D01*
X99370Y-44201D01*
X99360Y-44220D01*
X99351Y-44257D01*
X99351Y-44304D01*
X99360Y-44342D01*
X99370Y-44360D01*
X99379Y-44370D01*
X99398Y-44379D01*
X99417Y-44379D01*
X99435Y-44370D01*
X99445Y-44360D01*
X99454Y-44342D01*
X99463Y-44304D01*
X99463Y-44257D01*
X99454Y-44220D01*
X99445Y-44201D01*
X99435Y-44192D01*
X99417Y-44182D01*
X94726Y-43135D02*
X94736Y-43145D01*
X94764Y-43154D01*
X94782Y-43154D01*
X94811Y-43145D01*
X94829Y-43126D01*
X94839Y-43107D01*
X94848Y-43070D01*
X94848Y-43042D01*
X94839Y-43004D01*
X94829Y-42985D01*
X94811Y-42967D01*
X94782Y-42957D01*
X94764Y-42957D01*
X94736Y-42967D01*
X94726Y-42976D01*
X94539Y-43154D02*
X94651Y-43154D01*
X94595Y-43154D02*
X94595Y-42957D01*
X94614Y-42985D01*
X94632Y-43004D01*
X94651Y-43014D01*
X94445Y-43154D02*
X94407Y-43154D01*
X94388Y-43145D01*
X94379Y-43135D01*
X94360Y-43107D01*
X94351Y-43070D01*
X94351Y-42995D01*
X94360Y-42976D01*
X94370Y-42967D01*
X94388Y-42957D01*
X94426Y-42957D01*
X94445Y-42967D01*
X94454Y-42976D01*
X94463Y-42995D01*
X94463Y-43042D01*
X94454Y-43060D01*
X94445Y-43070D01*
X94426Y-43079D01*
X94388Y-43079D01*
X94370Y-43070D01*
X94360Y-43060D01*
X94351Y-43042D01*
X88676Y-43160D02*
X88686Y-43170D01*
X88714Y-43179D01*
X88732Y-43179D01*
X88761Y-43170D01*
X88779Y-43151D01*
X88789Y-43132D01*
X88798Y-43095D01*
X88798Y-43067D01*
X88789Y-43029D01*
X88779Y-43010D01*
X88761Y-42992D01*
X88732Y-42982D01*
X88714Y-42982D01*
X88686Y-42992D01*
X88676Y-43001D01*
X88489Y-43179D02*
X88601Y-43179D01*
X88545Y-43179D02*
X88545Y-42982D01*
X88564Y-43010D01*
X88582Y-43029D01*
X88601Y-43039D01*
X88376Y-43067D02*
X88395Y-43057D01*
X88404Y-43048D01*
X88413Y-43029D01*
X88413Y-43020D01*
X88404Y-43001D01*
X88395Y-42992D01*
X88376Y-42982D01*
X88338Y-42982D01*
X88320Y-42992D01*
X88310Y-43001D01*
X88301Y-43020D01*
X88301Y-43029D01*
X88310Y-43048D01*
X88320Y-43057D01*
X88338Y-43067D01*
X88376Y-43067D01*
X88395Y-43076D01*
X88404Y-43085D01*
X88413Y-43104D01*
X88413Y-43142D01*
X88404Y-43160D01*
X88395Y-43170D01*
X88376Y-43179D01*
X88338Y-43179D01*
X88320Y-43170D01*
X88310Y-43160D01*
X88301Y-43142D01*
X88301Y-43104D01*
X88310Y-43085D01*
X88320Y-43076D01*
X88338Y-43067D01*
G54D14*
X90564Y-40271D02*
X90564Y-39971D01*
X90492Y-39971D01*
X90450Y-39985D01*
X90421Y-40014D01*
X90407Y-40042D01*
X90392Y-40100D01*
X90392Y-40142D01*
X90407Y-40200D01*
X90421Y-40228D01*
X90450Y-40257D01*
X90492Y-40271D01*
X90564Y-40271D01*
X90107Y-40271D02*
X90278Y-40271D01*
X90192Y-40271D02*
X90192Y-39971D01*
X90221Y-40014D01*
X90250Y-40042D01*
X90278Y-40057D01*
X89921Y-39971D02*
X89892Y-39971D01*
X89864Y-39985D01*
X89850Y-40000D01*
X89835Y-40028D01*
X89821Y-40085D01*
X89821Y-40157D01*
X89835Y-40214D01*
X89850Y-40242D01*
X89864Y-40257D01*
X89892Y-40271D01*
X89921Y-40271D01*
X89950Y-40257D01*
X89964Y-40242D01*
X89978Y-40214D01*
X89992Y-40157D01*
X89992Y-40085D01*
X89978Y-40028D01*
X89964Y-40000D01*
X89950Y-39985D01*
X89921Y-39971D01*
X105939Y-46046D02*
X105939Y-45746D01*
X105867Y-45746D01*
X105825Y-45760D01*
X105796Y-45789D01*
X105782Y-45817D01*
X105767Y-45875D01*
X105767Y-45917D01*
X105782Y-45975D01*
X105796Y-46003D01*
X105825Y-46032D01*
X105867Y-46046D01*
X105939Y-46046D01*
X105482Y-46046D02*
X105653Y-46046D01*
X105567Y-46046D02*
X105567Y-45746D01*
X105596Y-45789D01*
X105625Y-45817D01*
X105653Y-45832D01*
X105382Y-45746D02*
X105196Y-45746D01*
X105296Y-45860D01*
X105253Y-45860D01*
X105225Y-45875D01*
X105210Y-45889D01*
X105196Y-45917D01*
X105196Y-45989D01*
X105210Y-46017D01*
X105225Y-46032D01*
X105253Y-46046D01*
X105339Y-46046D01*
X105367Y-46032D01*
X105382Y-46017D01*
X101239Y-45546D02*
X101239Y-45246D01*
X101167Y-45246D01*
X101125Y-45260D01*
X101096Y-45289D01*
X101082Y-45317D01*
X101067Y-45375D01*
X101067Y-45417D01*
X101082Y-45475D01*
X101096Y-45503D01*
X101125Y-45532D01*
X101167Y-45546D01*
X101239Y-45546D01*
X100782Y-45546D02*
X100953Y-45546D01*
X100867Y-45546D02*
X100867Y-45246D01*
X100896Y-45289D01*
X100925Y-45317D01*
X100953Y-45332D01*
X100667Y-45275D02*
X100653Y-45260D01*
X100625Y-45246D01*
X100553Y-45246D01*
X100525Y-45260D01*
X100510Y-45275D01*
X100496Y-45303D01*
X100496Y-45332D01*
X100510Y-45375D01*
X100682Y-45546D01*
X100496Y-45546D01*
X95089Y-40246D02*
X95089Y-39946D01*
X95017Y-39946D01*
X94975Y-39960D01*
X94946Y-39989D01*
X94932Y-40017D01*
X94917Y-40075D01*
X94917Y-40117D01*
X94932Y-40175D01*
X94946Y-40203D01*
X94975Y-40232D01*
X95017Y-40246D01*
X95089Y-40246D01*
X94632Y-40246D02*
X94803Y-40246D01*
X94717Y-40246D02*
X94717Y-39946D01*
X94746Y-39989D01*
X94775Y-40017D01*
X94803Y-40032D01*
X94346Y-40246D02*
X94517Y-40246D01*
X94432Y-40246D02*
X94432Y-39946D01*
X94460Y-39989D01*
X94489Y-40017D01*
X94517Y-40032D01*
X97021Y-40071D02*
X97021Y-39771D01*
X96950Y-39771D01*
X96907Y-39785D01*
X96878Y-39814D01*
X96864Y-39842D01*
X96850Y-39900D01*
X96850Y-39942D01*
X96864Y-40000D01*
X96878Y-40028D01*
X96907Y-40057D01*
X96950Y-40071D01*
X97021Y-40071D01*
X96750Y-39771D02*
X96550Y-39771D01*
X96678Y-40071D01*
X101996Y-41846D02*
X101996Y-41546D01*
X101925Y-41546D01*
X101882Y-41560D01*
X101853Y-41589D01*
X101839Y-41617D01*
X101825Y-41675D01*
X101825Y-41717D01*
X101839Y-41775D01*
X101853Y-41803D01*
X101882Y-41832D01*
X101925Y-41846D01*
X101996Y-41846D01*
X101653Y-41675D02*
X101682Y-41660D01*
X101696Y-41646D01*
X101710Y-41617D01*
X101710Y-41603D01*
X101696Y-41575D01*
X101682Y-41560D01*
X101653Y-41546D01*
X101596Y-41546D01*
X101567Y-41560D01*
X101553Y-41575D01*
X101539Y-41603D01*
X101539Y-41617D01*
X101553Y-41646D01*
X101567Y-41660D01*
X101596Y-41675D01*
X101653Y-41675D01*
X101682Y-41689D01*
X101696Y-41703D01*
X101710Y-41732D01*
X101710Y-41789D01*
X101696Y-41817D01*
X101682Y-41832D01*
X101653Y-41846D01*
X101596Y-41846D01*
X101567Y-41832D01*
X101553Y-41817D01*
X101539Y-41789D01*
X101539Y-41732D01*
X101553Y-41703D01*
X101567Y-41689D01*
X101596Y-41675D01*
X88071Y-39746D02*
X88071Y-39446D01*
X88000Y-39446D01*
X87957Y-39460D01*
X87928Y-39489D01*
X87914Y-39517D01*
X87900Y-39575D01*
X87900Y-39617D01*
X87914Y-39675D01*
X87928Y-39703D01*
X87957Y-39732D01*
X88000Y-39746D01*
X88071Y-39746D01*
X87642Y-39446D02*
X87700Y-39446D01*
X87728Y-39460D01*
X87742Y-39475D01*
X87771Y-39517D01*
X87785Y-39575D01*
X87785Y-39689D01*
X87771Y-39717D01*
X87757Y-39732D01*
X87728Y-39746D01*
X87671Y-39746D01*
X87642Y-39732D01*
X87628Y-39717D01*
X87614Y-39689D01*
X87614Y-39617D01*
X87628Y-39589D01*
X87642Y-39575D01*
X87671Y-39560D01*
X87728Y-39560D01*
X87757Y-39575D01*
X87771Y-39589D01*
X87785Y-39617D01*
X108896Y-45871D02*
X108896Y-45571D01*
X108825Y-45571D01*
X108782Y-45585D01*
X108753Y-45614D01*
X108739Y-45642D01*
X108725Y-45700D01*
X108725Y-45742D01*
X108739Y-45800D01*
X108753Y-45828D01*
X108782Y-45857D01*
X108825Y-45871D01*
X108896Y-45871D01*
X108582Y-45871D02*
X108525Y-45871D01*
X108496Y-45857D01*
X108482Y-45842D01*
X108453Y-45800D01*
X108439Y-45742D01*
X108439Y-45628D01*
X108453Y-45600D01*
X108467Y-45585D01*
X108496Y-45571D01*
X108553Y-45571D01*
X108582Y-45585D01*
X108596Y-45600D01*
X108610Y-45628D01*
X108610Y-45700D01*
X108596Y-45728D01*
X108582Y-45742D01*
X108553Y-45757D01*
X108496Y-45757D01*
X108467Y-45742D01*
X108453Y-45728D01*
X108439Y-45700D01*
G54D16*
X112057Y-55510D02*
X112067Y-55520D01*
X112095Y-55529D01*
X112114Y-55529D01*
X112142Y-55520D01*
X112161Y-55501D01*
X112170Y-55482D01*
X112179Y-55445D01*
X112179Y-55417D01*
X112170Y-55379D01*
X112161Y-55360D01*
X112142Y-55342D01*
X112114Y-55332D01*
X112095Y-55332D01*
X112067Y-55342D01*
X112057Y-55351D01*
X111982Y-55351D02*
X111973Y-55342D01*
X111954Y-55332D01*
X111907Y-55332D01*
X111888Y-55342D01*
X111879Y-55351D01*
X111870Y-55370D01*
X111870Y-55389D01*
X111879Y-55417D01*
X111992Y-55529D01*
X111870Y-55529D01*
X93601Y-54604D02*
X93667Y-54510D01*
X93714Y-54604D02*
X93714Y-54407D01*
X93639Y-54407D01*
X93620Y-54417D01*
X93611Y-54426D01*
X93601Y-54445D01*
X93601Y-54473D01*
X93611Y-54492D01*
X93620Y-54501D01*
X93639Y-54510D01*
X93714Y-54510D01*
X93414Y-54604D02*
X93526Y-54604D01*
X93470Y-54604D02*
X93470Y-54407D01*
X93489Y-54435D01*
X93507Y-54454D01*
X93526Y-54464D01*
X93245Y-54473D02*
X93245Y-54604D01*
X93292Y-54398D02*
X93338Y-54539D01*
X93217Y-54539D01*
X91957Y-47904D02*
X92051Y-47904D01*
X92051Y-47707D01*
X91798Y-47707D02*
X91892Y-47707D01*
X91901Y-47801D01*
X91892Y-47792D01*
X91873Y-47782D01*
X91826Y-47782D01*
X91807Y-47792D01*
X91798Y-47801D01*
X91788Y-47820D01*
X91788Y-47867D01*
X91798Y-47885D01*
X91807Y-47895D01*
X91826Y-47904D01*
X91873Y-47904D01*
X91892Y-47895D01*
X91901Y-47885D01*
X79826Y-45979D02*
X79892Y-45885D01*
X79939Y-45979D02*
X79939Y-45782D01*
X79864Y-45782D01*
X79845Y-45792D01*
X79836Y-45801D01*
X79826Y-45820D01*
X79826Y-45848D01*
X79836Y-45867D01*
X79845Y-45876D01*
X79864Y-45885D01*
X79939Y-45885D01*
X79657Y-45848D02*
X79657Y-45979D01*
X79704Y-45773D02*
X79751Y-45914D01*
X79629Y-45914D01*
X79470Y-45782D02*
X79507Y-45782D01*
X79526Y-45792D01*
X79535Y-45801D01*
X79554Y-45829D01*
X79563Y-45867D01*
X79563Y-45942D01*
X79554Y-45960D01*
X79545Y-45970D01*
X79526Y-45979D01*
X79488Y-45979D01*
X79470Y-45970D01*
X79460Y-45960D01*
X79451Y-45942D01*
X79451Y-45895D01*
X79460Y-45876D01*
X79470Y-45867D01*
X79488Y-45857D01*
X79526Y-45857D01*
X79545Y-45867D01*
X79554Y-45876D01*
X79563Y-45895D01*
X75226Y-44504D02*
X75292Y-44410D01*
X75339Y-44504D02*
X75339Y-44307D01*
X75264Y-44307D01*
X75245Y-44317D01*
X75236Y-44326D01*
X75226Y-44345D01*
X75226Y-44373D01*
X75236Y-44392D01*
X75245Y-44401D01*
X75264Y-44410D01*
X75339Y-44410D01*
X75151Y-44326D02*
X75142Y-44317D01*
X75123Y-44307D01*
X75076Y-44307D01*
X75057Y-44317D01*
X75048Y-44326D01*
X75039Y-44345D01*
X75039Y-44364D01*
X75048Y-44392D01*
X75160Y-44504D01*
X75039Y-44504D01*
X74926Y-44392D02*
X74945Y-44382D01*
X74954Y-44373D01*
X74963Y-44354D01*
X74963Y-44345D01*
X74954Y-44326D01*
X74945Y-44317D01*
X74926Y-44307D01*
X74888Y-44307D01*
X74870Y-44317D01*
X74860Y-44326D01*
X74851Y-44345D01*
X74851Y-44354D01*
X74860Y-44373D01*
X74870Y-44382D01*
X74888Y-44392D01*
X74926Y-44392D01*
X74945Y-44401D01*
X74954Y-44410D01*
X74963Y-44429D01*
X74963Y-44467D01*
X74954Y-44485D01*
X74945Y-44495D01*
X74926Y-44504D01*
X74888Y-44504D01*
X74870Y-44495D01*
X74860Y-44485D01*
X74851Y-44467D01*
X74851Y-44429D01*
X74860Y-44410D01*
X74870Y-44401D01*
X74888Y-44392D01*
X72226Y-45029D02*
X72292Y-44935D01*
X72339Y-45029D02*
X72339Y-44832D01*
X72264Y-44832D01*
X72245Y-44842D01*
X72236Y-44851D01*
X72226Y-44870D01*
X72226Y-44898D01*
X72236Y-44917D01*
X72245Y-44926D01*
X72264Y-44935D01*
X72339Y-44935D01*
X72151Y-44851D02*
X72142Y-44842D01*
X72123Y-44832D01*
X72076Y-44832D01*
X72057Y-44842D01*
X72048Y-44851D01*
X72039Y-44870D01*
X72039Y-44889D01*
X72048Y-44917D01*
X72160Y-45029D01*
X72039Y-45029D01*
X71860Y-44832D02*
X71954Y-44832D01*
X71963Y-44926D01*
X71954Y-44917D01*
X71935Y-44907D01*
X71888Y-44907D01*
X71870Y-44917D01*
X71860Y-44926D01*
X71851Y-44945D01*
X71851Y-44992D01*
X71860Y-45010D01*
X71870Y-45020D01*
X71888Y-45029D01*
X71935Y-45029D01*
X71954Y-45020D01*
X71963Y-45010D01*
X73251Y-44504D02*
X73317Y-44410D01*
X73364Y-44504D02*
X73364Y-44307D01*
X73289Y-44307D01*
X73270Y-44317D01*
X73261Y-44326D01*
X73251Y-44345D01*
X73251Y-44373D01*
X73261Y-44392D01*
X73270Y-44401D01*
X73289Y-44410D01*
X73364Y-44410D01*
X73176Y-44326D02*
X73167Y-44317D01*
X73148Y-44307D01*
X73101Y-44307D01*
X73082Y-44317D01*
X73073Y-44326D01*
X73064Y-44345D01*
X73064Y-44364D01*
X73073Y-44392D01*
X73185Y-44504D01*
X73064Y-44504D01*
X72895Y-44307D02*
X72932Y-44307D01*
X72951Y-44317D01*
X72960Y-44326D01*
X72979Y-44354D01*
X72988Y-44392D01*
X72988Y-44467D01*
X72979Y-44485D01*
X72970Y-44495D01*
X72951Y-44504D01*
X72913Y-44504D01*
X72895Y-44495D01*
X72885Y-44485D01*
X72876Y-44467D01*
X72876Y-44420D01*
X72885Y-44401D01*
X72895Y-44392D01*
X72913Y-44382D01*
X72951Y-44382D01*
X72970Y-44392D01*
X72979Y-44401D01*
X72988Y-44420D01*
X78826Y-46179D02*
X78892Y-46085D01*
X78939Y-46179D02*
X78939Y-45982D01*
X78864Y-45982D01*
X78845Y-45992D01*
X78836Y-46001D01*
X78826Y-46020D01*
X78826Y-46048D01*
X78836Y-46067D01*
X78845Y-46076D01*
X78864Y-46085D01*
X78939Y-46085D01*
X78760Y-45982D02*
X78639Y-45982D01*
X78704Y-46057D01*
X78676Y-46057D01*
X78657Y-46067D01*
X78648Y-46076D01*
X78639Y-46095D01*
X78639Y-46142D01*
X78648Y-46160D01*
X78657Y-46170D01*
X78676Y-46179D01*
X78732Y-46179D01*
X78751Y-46170D01*
X78760Y-46160D01*
X78451Y-46179D02*
X78563Y-46179D01*
X78507Y-46179D02*
X78507Y-45982D01*
X78526Y-46010D01*
X78545Y-46029D01*
X78563Y-46039D01*
X76251Y-45079D02*
X76317Y-44985D01*
X76364Y-45079D02*
X76364Y-44882D01*
X76289Y-44882D01*
X76270Y-44892D01*
X76261Y-44901D01*
X76251Y-44920D01*
X76251Y-44948D01*
X76261Y-44967D01*
X76270Y-44976D01*
X76289Y-44985D01*
X76364Y-44985D01*
X76176Y-44901D02*
X76167Y-44892D01*
X76148Y-44882D01*
X76101Y-44882D01*
X76082Y-44892D01*
X76073Y-44901D01*
X76064Y-44920D01*
X76064Y-44939D01*
X76073Y-44967D01*
X76185Y-45079D01*
X76064Y-45079D01*
X75970Y-45079D02*
X75932Y-45079D01*
X75913Y-45070D01*
X75904Y-45060D01*
X75885Y-45032D01*
X75876Y-44995D01*
X75876Y-44920D01*
X75885Y-44901D01*
X75895Y-44892D01*
X75913Y-44882D01*
X75951Y-44882D01*
X75970Y-44892D01*
X75979Y-44901D01*
X75988Y-44920D01*
X75988Y-44967D01*
X75979Y-44985D01*
X75970Y-44995D01*
X75951Y-45004D01*
X75913Y-45004D01*
X75895Y-44995D01*
X75885Y-44985D01*
X75876Y-44967D01*
X110201Y-45354D02*
X110267Y-45260D01*
X110314Y-45354D02*
X110314Y-45157D01*
X110239Y-45157D01*
X110220Y-45167D01*
X110211Y-45176D01*
X110201Y-45195D01*
X110201Y-45223D01*
X110211Y-45242D01*
X110220Y-45251D01*
X110239Y-45260D01*
X110314Y-45260D01*
X110023Y-45157D02*
X110117Y-45157D01*
X110126Y-45251D01*
X110117Y-45242D01*
X110098Y-45232D01*
X110051Y-45232D01*
X110032Y-45242D01*
X110023Y-45251D01*
X110014Y-45270D01*
X110014Y-45317D01*
X110023Y-45335D01*
X110032Y-45345D01*
X110051Y-45354D01*
X110098Y-45354D01*
X110117Y-45345D01*
X110126Y-45335D01*
X109845Y-45157D02*
X109882Y-45157D01*
X109901Y-45167D01*
X109910Y-45176D01*
X109929Y-45204D01*
X109938Y-45242D01*
X109938Y-45317D01*
X109929Y-45335D01*
X109920Y-45345D01*
X109901Y-45354D01*
X109863Y-45354D01*
X109845Y-45345D01*
X109835Y-45335D01*
X109826Y-45317D01*
X109826Y-45270D01*
X109835Y-45251D01*
X109845Y-45242D01*
X109863Y-45232D01*
X109901Y-45232D01*
X109920Y-45242D01*
X109929Y-45251D01*
X109938Y-45270D01*
G54D11*
X111667Y-38917D02*
X111682Y-38932D01*
X111725Y-38946D01*
X111753Y-38946D01*
X111796Y-38932D01*
X111825Y-38903D01*
X111839Y-38875D01*
X111853Y-38817D01*
X111853Y-38775D01*
X111839Y-38717D01*
X111825Y-38689D01*
X111796Y-38660D01*
X111753Y-38646D01*
X111725Y-38646D01*
X111682Y-38660D01*
X111667Y-38675D01*
X111553Y-38675D02*
X111539Y-38660D01*
X111510Y-38646D01*
X111439Y-38646D01*
X111410Y-38660D01*
X111396Y-38675D01*
X111382Y-38703D01*
X111382Y-38732D01*
X111396Y-38775D01*
X111567Y-38946D01*
X111382Y-38946D01*
X111239Y-38946D02*
X111182Y-38946D01*
X111153Y-38932D01*
X111139Y-38917D01*
X111110Y-38875D01*
X111096Y-38817D01*
X111096Y-38703D01*
X111110Y-38675D01*
X111125Y-38660D01*
X111153Y-38646D01*
X111210Y-38646D01*
X111239Y-38660D01*
X111253Y-38675D01*
X111267Y-38703D01*
X111267Y-38775D01*
X111253Y-38803D01*
X111239Y-38817D01*
X111210Y-38832D01*
X111153Y-38832D01*
X111125Y-38817D01*
X111110Y-38803D01*
X111096Y-38775D01*
X112542Y-43042D02*
X112557Y-43057D01*
X112600Y-43071D01*
X112628Y-43071D01*
X112671Y-43057D01*
X112700Y-43028D01*
X112714Y-43000D01*
X112728Y-42942D01*
X112728Y-42900D01*
X112714Y-42842D01*
X112700Y-42814D01*
X112671Y-42785D01*
X112628Y-42771D01*
X112600Y-42771D01*
X112557Y-42785D01*
X112542Y-42800D01*
X112428Y-42800D02*
X112414Y-42785D01*
X112385Y-42771D01*
X112314Y-42771D01*
X112285Y-42785D01*
X112271Y-42800D01*
X112257Y-42828D01*
X112257Y-42857D01*
X112271Y-42900D01*
X112442Y-43071D01*
X112257Y-43071D01*
X112157Y-42771D02*
X111957Y-42771D01*
X112085Y-43071D01*
X112567Y-41742D02*
X112582Y-41757D01*
X112625Y-41771D01*
X112653Y-41771D01*
X112696Y-41757D01*
X112725Y-41728D01*
X112739Y-41700D01*
X112753Y-41642D01*
X112753Y-41600D01*
X112739Y-41542D01*
X112725Y-41514D01*
X112696Y-41485D01*
X112653Y-41471D01*
X112625Y-41471D01*
X112582Y-41485D01*
X112567Y-41500D01*
X112453Y-41500D02*
X112439Y-41485D01*
X112410Y-41471D01*
X112339Y-41471D01*
X112310Y-41485D01*
X112296Y-41500D01*
X112282Y-41528D01*
X112282Y-41557D01*
X112296Y-41600D01*
X112467Y-41771D01*
X112282Y-41771D01*
X112110Y-41600D02*
X112139Y-41585D01*
X112153Y-41571D01*
X112167Y-41542D01*
X112167Y-41528D01*
X112153Y-41500D01*
X112139Y-41485D01*
X112110Y-41471D01*
X112053Y-41471D01*
X112025Y-41485D01*
X112010Y-41500D01*
X111996Y-41528D01*
X111996Y-41542D01*
X112010Y-41571D01*
X112025Y-41585D01*
X112053Y-41600D01*
X112110Y-41600D01*
X112139Y-41614D01*
X112153Y-41628D01*
X112167Y-41657D01*
X112167Y-41714D01*
X112153Y-41742D01*
X112139Y-41757D01*
X112110Y-41771D01*
X112053Y-41771D01*
X112025Y-41757D01*
X112010Y-41742D01*
X111996Y-41714D01*
X111996Y-41657D01*
X112010Y-41628D01*
X112025Y-41614D01*
X112053Y-41600D01*
X112367Y-44567D02*
X112382Y-44582D01*
X112425Y-44596D01*
X112453Y-44596D01*
X112496Y-44582D01*
X112525Y-44553D01*
X112539Y-44525D01*
X112553Y-44467D01*
X112553Y-44425D01*
X112539Y-44367D01*
X112525Y-44339D01*
X112496Y-44310D01*
X112453Y-44296D01*
X112425Y-44296D01*
X112382Y-44310D01*
X112367Y-44325D01*
X112253Y-44325D02*
X112239Y-44310D01*
X112210Y-44296D01*
X112139Y-44296D01*
X112110Y-44310D01*
X112096Y-44325D01*
X112082Y-44353D01*
X112082Y-44382D01*
X112096Y-44425D01*
X112267Y-44596D01*
X112082Y-44596D01*
X111825Y-44296D02*
X111882Y-44296D01*
X111910Y-44310D01*
X111925Y-44325D01*
X111953Y-44367D01*
X111967Y-44425D01*
X111967Y-44539D01*
X111953Y-44567D01*
X111939Y-44582D01*
X111910Y-44596D01*
X111853Y-44596D01*
X111825Y-44582D01*
X111810Y-44567D01*
X111796Y-44539D01*
X111796Y-44467D01*
X111810Y-44439D01*
X111825Y-44425D01*
X111853Y-44410D01*
X111910Y-44410D01*
X111939Y-44425D01*
X111953Y-44439D01*
X111967Y-44467D01*
G54D16*
X92351Y-49160D02*
X92361Y-49170D01*
X92389Y-49179D01*
X92407Y-49179D01*
X92436Y-49170D01*
X92454Y-49151D01*
X92464Y-49132D01*
X92473Y-49095D01*
X92473Y-49067D01*
X92464Y-49029D01*
X92454Y-49010D01*
X92436Y-48992D01*
X92407Y-48982D01*
X92389Y-48982D01*
X92361Y-48992D01*
X92351Y-49001D01*
X92285Y-48982D02*
X92164Y-48982D01*
X92229Y-49057D01*
X92201Y-49057D01*
X92182Y-49067D01*
X92173Y-49076D01*
X92164Y-49095D01*
X92164Y-49142D01*
X92173Y-49160D01*
X92182Y-49170D01*
X92201Y-49179D01*
X92257Y-49179D01*
X92276Y-49170D01*
X92285Y-49160D01*
X92042Y-48982D02*
X92023Y-48982D01*
X92004Y-48992D01*
X91995Y-49001D01*
X91985Y-49020D01*
X91976Y-49057D01*
X91976Y-49104D01*
X91985Y-49142D01*
X91995Y-49160D01*
X92004Y-49170D01*
X92023Y-49179D01*
X92042Y-49179D01*
X92060Y-49170D01*
X92070Y-49160D01*
X92079Y-49142D01*
X92088Y-49104D01*
X92088Y-49057D01*
X92079Y-49020D01*
X92070Y-49001D01*
X92060Y-48992D01*
X92042Y-48982D01*
X91401Y-40179D02*
X91467Y-40085D01*
X91514Y-40179D02*
X91514Y-39982D01*
X91439Y-39982D01*
X91420Y-39992D01*
X91411Y-40001D01*
X91401Y-40020D01*
X91401Y-40048D01*
X91411Y-40067D01*
X91420Y-40076D01*
X91439Y-40085D01*
X91514Y-40085D01*
X91214Y-40179D02*
X91326Y-40179D01*
X91270Y-40179D02*
X91270Y-39982D01*
X91289Y-40010D01*
X91307Y-40029D01*
X91326Y-40039D01*
X91045Y-39982D02*
X91082Y-39982D01*
X91101Y-39992D01*
X91110Y-40001D01*
X91129Y-40029D01*
X91138Y-40067D01*
X91138Y-40142D01*
X91129Y-40160D01*
X91120Y-40170D01*
X91101Y-40179D01*
X91063Y-40179D01*
X91045Y-40170D01*
X91035Y-40160D01*
X91026Y-40142D01*
X91026Y-40095D01*
X91035Y-40076D01*
X91045Y-40067D01*
X91063Y-40057D01*
X91101Y-40057D01*
X91120Y-40067D01*
X91129Y-40076D01*
X91138Y-40095D01*
X93901Y-40179D02*
X93967Y-40085D01*
X94014Y-40179D02*
X94014Y-39982D01*
X93939Y-39982D01*
X93920Y-39992D01*
X93911Y-40001D01*
X93901Y-40020D01*
X93901Y-40048D01*
X93911Y-40067D01*
X93920Y-40076D01*
X93939Y-40085D01*
X94014Y-40085D01*
X93723Y-39982D02*
X93817Y-39982D01*
X93826Y-40076D01*
X93817Y-40067D01*
X93798Y-40057D01*
X93751Y-40057D01*
X93732Y-40067D01*
X93723Y-40076D01*
X93714Y-40095D01*
X93714Y-40142D01*
X93723Y-40160D01*
X93732Y-40170D01*
X93751Y-40179D01*
X93798Y-40179D01*
X93817Y-40170D01*
X93826Y-40160D01*
X93648Y-39982D02*
X93517Y-39982D01*
X93601Y-40179D01*
M02*
