G04 (created by PCBNEW (2013-07-07 BZR 4022)-stable) date 16/03/2014 11:18:58*
%MOIN*%
G04 Gerber Fmt 3.4, Leading zero omitted, Abs format*
%FSLAX34Y34*%
G01*
G70*
G90*
G04 APERTURE LIST*
%ADD10C,0.006*%
%ADD11C,0.00590551*%
%ADD12C,0.0039*%
%ADD13C,0.0026*%
%ADD14C,0.004*%
%ADD15C,0.008*%
%ADD16C,0.005*%
%ADD17C,0.015*%
%ADD18C,0.0065*%
%ADD19C,0.0043*%
%ADD20C,0.003*%
%ADD21C,0.01*%
G04 APERTURE END LIST*
G54D10*
G54D11*
X101200Y-61050D02*
X101300Y-61050D01*
X101250Y-61050D02*
X99300Y-61050D01*
X101150Y-60700D02*
X99250Y-60700D01*
X99250Y-60700D02*
X99250Y-62950D01*
X99250Y-62950D02*
X99250Y-63050D01*
X99250Y-63050D02*
X101300Y-63050D01*
X101300Y-63050D02*
X101300Y-60700D01*
X101300Y-60700D02*
X101100Y-60700D01*
G54D12*
X100550Y-59350D02*
G75*
G03X100550Y-59350I-50J0D01*
G74*
G01*
X100050Y-59350D02*
X100450Y-59350D01*
X100450Y-59350D02*
X100450Y-59950D01*
X100450Y-59950D02*
X100050Y-59950D01*
X99650Y-59950D02*
X99250Y-59950D01*
X99250Y-59950D02*
X99250Y-59350D01*
X99250Y-59350D02*
X99650Y-59350D01*
X101500Y-59950D02*
G75*
G03X101500Y-59950I-50J0D01*
G74*
G01*
X101900Y-59950D02*
X101500Y-59950D01*
X101500Y-59950D02*
X101500Y-59350D01*
X101500Y-59350D02*
X101900Y-59350D01*
X102300Y-59350D02*
X102700Y-59350D01*
X102700Y-59350D02*
X102700Y-59950D01*
X102700Y-59950D02*
X102300Y-59950D01*
X97700Y-58800D02*
G75*
G03X97700Y-58800I-50J0D01*
G74*
G01*
X98100Y-58800D02*
X97700Y-58800D01*
X97700Y-58800D02*
X97700Y-58200D01*
X97700Y-58200D02*
X98100Y-58200D01*
X98500Y-58200D02*
X98900Y-58200D01*
X98900Y-58200D02*
X98900Y-58800D01*
X98900Y-58800D02*
X98500Y-58800D01*
G54D13*
X97223Y-59623D02*
X97577Y-59623D01*
X97577Y-59623D02*
X97577Y-59466D01*
X97223Y-59466D02*
X97577Y-59466D01*
X97223Y-59623D02*
X97223Y-59466D01*
X97223Y-60134D02*
X97577Y-60134D01*
X97577Y-60134D02*
X97577Y-59977D01*
X97223Y-59977D02*
X97577Y-59977D01*
X97223Y-60134D02*
X97223Y-59977D01*
X97223Y-59800D02*
X97282Y-59800D01*
X97282Y-59800D02*
X97282Y-59682D01*
X97223Y-59682D02*
X97282Y-59682D01*
X97223Y-59800D02*
X97223Y-59682D01*
X97518Y-59800D02*
X97577Y-59800D01*
X97577Y-59800D02*
X97577Y-59682D01*
X97518Y-59682D02*
X97577Y-59682D01*
X97518Y-59800D02*
X97518Y-59682D01*
X97341Y-59800D02*
X97459Y-59800D01*
X97459Y-59800D02*
X97459Y-59682D01*
X97341Y-59682D02*
X97459Y-59682D01*
X97341Y-59800D02*
X97341Y-59682D01*
G54D14*
X97243Y-59623D02*
X97243Y-59977D01*
X97557Y-59623D02*
X97557Y-59977D01*
G54D11*
X95930Y-61100D02*
G75*
G03X95930Y-61100I-180J0D01*
G74*
G01*
X95350Y-60700D02*
X95350Y-63050D01*
X95350Y-63050D02*
X98000Y-63050D01*
X98000Y-63050D02*
X98000Y-60900D01*
X98000Y-60900D02*
X98000Y-60700D01*
X98000Y-60700D02*
X95350Y-60700D01*
G54D15*
X105200Y-49200D02*
X105200Y-46200D01*
X107200Y-46200D02*
X107200Y-49200D01*
X107200Y-49200D02*
X105200Y-49200D01*
X105200Y-46200D02*
X107200Y-46200D01*
G54D12*
X90350Y-46100D02*
G75*
G03X90350Y-46100I-50J0D01*
G74*
G01*
X90750Y-46100D02*
X90350Y-46100D01*
X90350Y-46100D02*
X90350Y-45500D01*
X90350Y-45500D02*
X90750Y-45500D01*
X91150Y-45500D02*
X91550Y-45500D01*
X91550Y-45500D02*
X91550Y-46100D01*
X91550Y-46100D02*
X91150Y-46100D01*
X88375Y-48050D02*
G75*
G03X88375Y-48050I-50J0D01*
G74*
G01*
X88775Y-48050D02*
X88375Y-48050D01*
X88375Y-48050D02*
X88375Y-47450D01*
X88375Y-47450D02*
X88775Y-47450D01*
X89175Y-47450D02*
X89575Y-47450D01*
X89575Y-47450D02*
X89575Y-48050D01*
X89575Y-48050D02*
X89175Y-48050D01*
G54D11*
X112600Y-62984D02*
X114174Y-62984D01*
X114174Y-62984D02*
X114174Y-57078D01*
X111025Y-57078D02*
X114174Y-57078D01*
X112600Y-62984D02*
X111025Y-62984D01*
X111025Y-62984D02*
X111025Y-57078D01*
X114138Y-55655D02*
X114138Y-38687D01*
X111461Y-38687D02*
X114138Y-38687D01*
X112800Y-55655D02*
X114138Y-55655D01*
X112800Y-55655D02*
X111461Y-55655D01*
X111461Y-55655D02*
X111461Y-38687D01*
X53390Y-41337D02*
X53390Y-61651D01*
X53390Y-61651D02*
X48351Y-61651D01*
X53390Y-41337D02*
X48351Y-41337D01*
X48351Y-61651D02*
X48351Y-41337D01*
G54D16*
X91550Y-51075D02*
X91550Y-53075D01*
X91550Y-53075D02*
X89750Y-53075D01*
X89750Y-53075D02*
X89750Y-51075D01*
X89750Y-51075D02*
X91550Y-51075D01*
X90950Y-51075D02*
X90950Y-51275D01*
X90950Y-51275D02*
X90450Y-51275D01*
X90450Y-51275D02*
X90450Y-51075D01*
G54D11*
X110900Y-50950D02*
X110900Y-51050D01*
X110900Y-51000D02*
X110900Y-49050D01*
X111250Y-50900D02*
X111250Y-49000D01*
X111250Y-49000D02*
X109000Y-49000D01*
X109000Y-49000D02*
X108900Y-49000D01*
X108900Y-49000D02*
X108900Y-51050D01*
X108900Y-51050D02*
X111250Y-51050D01*
X111250Y-51050D02*
X111250Y-50850D01*
G54D16*
X95600Y-51950D02*
X96500Y-51950D01*
X96500Y-51950D02*
X96500Y-51300D01*
X95600Y-50600D02*
X95600Y-49950D01*
X95600Y-49950D02*
X96500Y-49950D01*
X96500Y-49950D02*
X96500Y-50600D01*
X95600Y-51300D02*
X95600Y-51950D01*
G54D12*
X95425Y-48725D02*
G75*
G03X95425Y-48725I-50J0D01*
G74*
G01*
X95825Y-48725D02*
X95425Y-48725D01*
X95425Y-48725D02*
X95425Y-48125D01*
X95425Y-48125D02*
X95825Y-48125D01*
X96225Y-48125D02*
X96625Y-48125D01*
X96625Y-48125D02*
X96625Y-48725D01*
X96625Y-48725D02*
X96225Y-48725D01*
G54D16*
X97500Y-50600D02*
X97500Y-49350D01*
X97500Y-49350D02*
X96800Y-49350D01*
X96800Y-49350D02*
X96800Y-50600D01*
X99300Y-50600D02*
X99300Y-49350D01*
X99300Y-49350D02*
X98600Y-49350D01*
X98600Y-49350D02*
X98600Y-50600D01*
X96700Y-53000D02*
X96700Y-50600D01*
X96700Y-50600D02*
X99400Y-50600D01*
X99400Y-50600D02*
X99400Y-53700D01*
X99400Y-53750D02*
X96700Y-53750D01*
X96700Y-53700D02*
X96700Y-53000D01*
X105000Y-50500D02*
X105000Y-49250D01*
X105000Y-49250D02*
X104300Y-49250D01*
X104300Y-49250D02*
X104300Y-50500D01*
X106800Y-50500D02*
X106800Y-49250D01*
X106800Y-49250D02*
X106100Y-49250D01*
X106100Y-49250D02*
X106100Y-50500D01*
X104200Y-52900D02*
X104200Y-50500D01*
X104200Y-50500D02*
X106900Y-50500D01*
X106900Y-50500D02*
X106900Y-53600D01*
X106900Y-53650D02*
X104200Y-53650D01*
X104200Y-53600D02*
X104200Y-52900D01*
X57850Y-42950D02*
X57850Y-44150D01*
X59300Y-44150D02*
X60050Y-44150D01*
X60050Y-44150D02*
X60050Y-42950D01*
X60050Y-42950D02*
X59300Y-42950D01*
X58650Y-42950D02*
X57850Y-42950D01*
X57928Y-42950D02*
X57928Y-44150D01*
X57850Y-44150D02*
X58650Y-44150D01*
X60050Y-42600D02*
X60050Y-41400D01*
X58600Y-41400D02*
X57850Y-41400D01*
X57850Y-41400D02*
X57850Y-42600D01*
X57850Y-42600D02*
X58600Y-42600D01*
X59250Y-42600D02*
X60050Y-42600D01*
X59971Y-42600D02*
X59971Y-41400D01*
X60050Y-41400D02*
X59250Y-41400D01*
X61600Y-43300D02*
X60700Y-43300D01*
X60700Y-43300D02*
X60700Y-43950D01*
X61600Y-44650D02*
X61600Y-45300D01*
X61600Y-45300D02*
X60700Y-45300D01*
X60700Y-45300D02*
X60700Y-44650D01*
X61600Y-43950D02*
X61600Y-43300D01*
X60650Y-50050D02*
X61550Y-50050D01*
X61550Y-50050D02*
X61550Y-49400D01*
X60650Y-48700D02*
X60650Y-48050D01*
X60650Y-48050D02*
X61550Y-48050D01*
X61550Y-48050D02*
X61550Y-48700D01*
X60650Y-49400D02*
X60650Y-50050D01*
X61600Y-39700D02*
X60700Y-39700D01*
X60700Y-39700D02*
X60700Y-40350D01*
X61600Y-41050D02*
X61600Y-41700D01*
X61600Y-41700D02*
X60700Y-41700D01*
X60700Y-41700D02*
X60700Y-41050D01*
X61600Y-40350D02*
X61600Y-39700D01*
G54D12*
X59800Y-39300D02*
G75*
G03X59800Y-39300I-50J0D01*
G74*
G01*
X59300Y-39300D02*
X59700Y-39300D01*
X59700Y-39300D02*
X59700Y-39900D01*
X59700Y-39900D02*
X59300Y-39900D01*
X58900Y-39900D02*
X58500Y-39900D01*
X58500Y-39900D02*
X58500Y-39300D01*
X58500Y-39300D02*
X58900Y-39300D01*
G54D11*
X64678Y-38558D02*
X64678Y-36984D01*
X64678Y-36984D02*
X64402Y-36984D01*
X64402Y-36984D02*
X64166Y-37220D01*
X64166Y-37220D02*
X63930Y-36984D01*
X63930Y-36984D02*
X63615Y-36984D01*
X63615Y-36984D02*
X63615Y-38558D01*
X66528Y-38558D02*
X66528Y-40291D01*
X66528Y-40291D02*
X63142Y-40291D01*
X63142Y-40291D02*
X63142Y-38558D01*
X63142Y-38558D02*
X66528Y-38558D01*
G54D12*
X103300Y-42000D02*
G75*
G03X103300Y-42000I-50J0D01*
G74*
G01*
X102800Y-42000D02*
X103200Y-42000D01*
X103200Y-42000D02*
X103200Y-42600D01*
X103200Y-42600D02*
X102800Y-42600D01*
X102400Y-42600D02*
X102000Y-42600D01*
X102000Y-42600D02*
X102000Y-42000D01*
X102000Y-42000D02*
X102400Y-42000D01*
X84050Y-40750D02*
G75*
G03X84050Y-40750I-50J0D01*
G74*
G01*
X83550Y-40750D02*
X83950Y-40750D01*
X83950Y-40750D02*
X83950Y-41350D01*
X83950Y-41350D02*
X83550Y-41350D01*
X83150Y-41350D02*
X82750Y-41350D01*
X82750Y-41350D02*
X82750Y-40750D01*
X82750Y-40750D02*
X83150Y-40750D01*
X105700Y-45850D02*
G75*
G03X105700Y-45850I-50J0D01*
G74*
G01*
X106100Y-45850D02*
X105700Y-45850D01*
X105700Y-45850D02*
X105700Y-45250D01*
X105700Y-45250D02*
X106100Y-45250D01*
X106500Y-45250D02*
X106900Y-45250D01*
X106900Y-45250D02*
X106900Y-45850D01*
X106900Y-45850D02*
X106500Y-45850D01*
X82750Y-39700D02*
G75*
G03X82750Y-39700I-50J0D01*
G74*
G01*
X83150Y-39700D02*
X82750Y-39700D01*
X82750Y-39700D02*
X82750Y-39100D01*
X82750Y-39100D02*
X83150Y-39100D01*
X83550Y-39100D02*
X83950Y-39100D01*
X83950Y-39100D02*
X83950Y-39700D01*
X83950Y-39700D02*
X83550Y-39700D01*
X107050Y-42100D02*
G75*
G03X107050Y-42100I-50J0D01*
G74*
G01*
X106550Y-42100D02*
X106950Y-42100D01*
X106950Y-42100D02*
X106950Y-42700D01*
X106950Y-42700D02*
X106550Y-42700D01*
X106150Y-42700D02*
X105750Y-42700D01*
X105750Y-42700D02*
X105750Y-42100D01*
X105750Y-42100D02*
X106150Y-42100D01*
G54D11*
X77618Y-35694D02*
X77618Y-31994D01*
X77618Y-31994D02*
X79981Y-32033D01*
X79981Y-32033D02*
X79981Y-35694D01*
X77225Y-37663D02*
X77225Y-35694D01*
X77225Y-35694D02*
X80374Y-35694D01*
X80374Y-35694D02*
X80374Y-37663D01*
X80729Y-40616D02*
X80729Y-37663D01*
X80729Y-37663D02*
X76949Y-37663D01*
X76949Y-37663D02*
X76870Y-37663D01*
X76870Y-37663D02*
X76870Y-40616D01*
X76870Y-40616D02*
X80729Y-40616D01*
X71168Y-35694D02*
X71168Y-31994D01*
X71168Y-31994D02*
X73531Y-32033D01*
X73531Y-32033D02*
X73531Y-35694D01*
X70775Y-37663D02*
X70775Y-35694D01*
X70775Y-35694D02*
X73924Y-35694D01*
X73924Y-35694D02*
X73924Y-37663D01*
X74279Y-40616D02*
X74279Y-37663D01*
X74279Y-37663D02*
X70499Y-37663D01*
X70499Y-37663D02*
X70420Y-37663D01*
X70420Y-37663D02*
X70420Y-40616D01*
X70420Y-40616D02*
X74279Y-40616D01*
G54D16*
X91725Y-55475D02*
X91525Y-55775D01*
X91725Y-54775D02*
X91725Y-55800D01*
X91725Y-55800D02*
X91125Y-55800D01*
X91125Y-55800D02*
X91125Y-54775D01*
X91125Y-54775D02*
X91725Y-54775D01*
G54D11*
X97704Y-54941D02*
X97704Y-55847D01*
X96641Y-54981D02*
X96641Y-55847D01*
X96641Y-55847D02*
X98413Y-55847D01*
X98413Y-55847D02*
X98413Y-54941D01*
X98413Y-54941D02*
X96641Y-54941D01*
X96641Y-54941D02*
X96641Y-55138D01*
X110450Y-57250D02*
X110450Y-63200D01*
X103250Y-57250D02*
X103250Y-63200D01*
X103250Y-57250D02*
X110450Y-57250D01*
X103250Y-63200D02*
X110450Y-63200D01*
G54D17*
X93800Y-41500D02*
X93800Y-41250D01*
X93800Y-41250D02*
X97800Y-41250D01*
X97800Y-41250D02*
X97800Y-41500D01*
X93800Y-43000D02*
X93800Y-41500D01*
X93800Y-41500D02*
X97800Y-41500D01*
X97800Y-41500D02*
X97800Y-43000D01*
X97800Y-43000D02*
X93800Y-43000D01*
X104000Y-44550D02*
X104000Y-44800D01*
X104000Y-44800D02*
X100000Y-44800D01*
X100000Y-44800D02*
X100000Y-44550D01*
X104000Y-43050D02*
X104000Y-44550D01*
X104000Y-44550D02*
X100000Y-44550D01*
X100000Y-44550D02*
X100000Y-43050D01*
X100000Y-43050D02*
X104000Y-43050D01*
X108800Y-44550D02*
X108800Y-44800D01*
X108800Y-44800D02*
X104800Y-44800D01*
X104800Y-44800D02*
X104800Y-44550D01*
X108800Y-43050D02*
X108800Y-44550D01*
X108800Y-44550D02*
X104800Y-44550D01*
X104800Y-44550D02*
X104800Y-43050D01*
X104800Y-43050D02*
X108800Y-43050D01*
X87550Y-41500D02*
X87550Y-41250D01*
X87550Y-41250D02*
X91550Y-41250D01*
X91550Y-41250D02*
X91550Y-41500D01*
X87550Y-43000D02*
X87550Y-41500D01*
X87550Y-41500D02*
X91550Y-41500D01*
X91550Y-41500D02*
X91550Y-43000D01*
X91550Y-43000D02*
X87550Y-43000D01*
G54D15*
X102500Y-49550D02*
X100600Y-49550D01*
X100600Y-49550D02*
X100600Y-45550D01*
X100600Y-45550D02*
X102500Y-45550D01*
X102500Y-45550D02*
X102500Y-49550D01*
X101800Y-45550D02*
X101800Y-45800D01*
X101800Y-45800D02*
X101300Y-45800D01*
X101300Y-45800D02*
X101300Y-45550D01*
G54D11*
X85700Y-63500D02*
X85700Y-62500D01*
X85700Y-62500D02*
X86700Y-61500D01*
X85100Y-42500D02*
X85700Y-43100D01*
X85700Y-43100D02*
X85700Y-47600D01*
X85700Y-47600D02*
X86700Y-48600D01*
X64200Y-58750D02*
X64200Y-62250D01*
X58950Y-58750D02*
X58950Y-62250D01*
X58950Y-62250D02*
X64200Y-62250D01*
X58950Y-58750D02*
X64200Y-58750D01*
X63450Y-46250D02*
X63450Y-50750D01*
X57200Y-46250D02*
X57200Y-50750D01*
X57200Y-50720D02*
X57200Y-50740D01*
X57200Y-50750D02*
X63450Y-50750D01*
X57200Y-46250D02*
X63450Y-46250D01*
X86700Y-48600D02*
X86700Y-61500D01*
X85700Y-63500D02*
X59700Y-63500D01*
X59700Y-63500D02*
X59700Y-42500D01*
X59700Y-42500D02*
X85100Y-42500D01*
X87825Y-44500D02*
X86880Y-44500D01*
X91919Y-44500D02*
X90974Y-44500D01*
X90974Y-40444D02*
X87825Y-40444D01*
X90974Y-44500D02*
X90974Y-40444D01*
X87825Y-44500D02*
X87825Y-40444D01*
X91919Y-39500D02*
X91919Y-44500D01*
X86880Y-39500D02*
X86880Y-44500D01*
X91919Y-39500D02*
X86880Y-39500D01*
X94075Y-44550D02*
X93130Y-44550D01*
X98169Y-44550D02*
X97224Y-44550D01*
X97224Y-40494D02*
X94075Y-40494D01*
X97224Y-44550D02*
X97224Y-40494D01*
X94075Y-44550D02*
X94075Y-40494D01*
X98169Y-39550D02*
X98169Y-44550D01*
X93130Y-39550D02*
X93130Y-44550D01*
X98169Y-39550D02*
X93130Y-39550D01*
G54D17*
X64200Y-52700D02*
G75*
G03X64200Y-52700I-900J0D01*
G74*
G01*
G54D10*
X62700Y-54650D02*
X63700Y-54650D01*
X63700Y-54650D02*
X63700Y-56650D01*
X63700Y-56650D02*
X62700Y-56650D01*
X62700Y-56650D02*
X62700Y-54650D01*
X64789Y-54046D02*
X65496Y-53339D01*
X65496Y-53339D02*
X66910Y-54753D01*
X66910Y-54753D02*
X66203Y-55460D01*
X66203Y-55460D02*
X64789Y-54046D01*
X63700Y-51550D02*
X62700Y-51550D01*
X62700Y-51550D02*
X62700Y-49550D01*
X62700Y-49550D02*
X63700Y-49550D01*
X63700Y-49550D02*
X63700Y-51550D01*
X65296Y-52260D02*
X64589Y-51553D01*
X64589Y-51553D02*
X66003Y-50139D01*
X66003Y-50139D02*
X66710Y-50846D01*
X66710Y-50846D02*
X65296Y-52260D01*
G54D18*
X89750Y-48550D02*
X92750Y-48550D01*
X92750Y-47150D02*
X89750Y-47150D01*
X89750Y-48550D02*
X89750Y-47150D01*
G54D10*
X92750Y-47150D02*
X92750Y-48550D01*
G54D16*
X92691Y-47350D02*
G75*
G03X92691Y-47350I-141J0D01*
G74*
G01*
X92750Y-48100D02*
X92450Y-48100D01*
X92450Y-48100D02*
X92450Y-47600D01*
X92450Y-47600D02*
X92750Y-47600D01*
G54D12*
X88000Y-45400D02*
G75*
G03X88000Y-45400I-50J0D01*
G74*
G01*
X87950Y-45850D02*
X87950Y-45450D01*
X87950Y-45450D02*
X88550Y-45450D01*
X88550Y-45450D02*
X88550Y-45850D01*
X88550Y-46250D02*
X88550Y-46650D01*
X88550Y-46650D02*
X87950Y-46650D01*
X87950Y-46650D02*
X87950Y-46250D01*
X83050Y-45850D02*
G75*
G03X83050Y-45850I-50J0D01*
G74*
G01*
X83000Y-45400D02*
X83000Y-45800D01*
X83000Y-45800D02*
X82400Y-45800D01*
X82400Y-45800D02*
X82400Y-45400D01*
X82400Y-45000D02*
X82400Y-44600D01*
X82400Y-44600D02*
X83000Y-44600D01*
X83000Y-44600D02*
X83000Y-45000D01*
X82050Y-45650D02*
G75*
G03X82050Y-45650I-50J0D01*
G74*
G01*
X82000Y-45200D02*
X82000Y-45600D01*
X82000Y-45600D02*
X81400Y-45600D01*
X81400Y-45600D02*
X81400Y-45200D01*
X81400Y-44800D02*
X81400Y-44400D01*
X81400Y-44400D02*
X82000Y-44400D01*
X82000Y-44400D02*
X82000Y-44800D01*
X81050Y-45825D02*
G75*
G03X81050Y-45825I-50J0D01*
G74*
G01*
X81000Y-45375D02*
X81000Y-45775D01*
X81000Y-45775D02*
X80400Y-45775D01*
X80400Y-45775D02*
X80400Y-45375D01*
X80400Y-44975D02*
X80400Y-44575D01*
X80400Y-44575D02*
X81000Y-44575D01*
X81000Y-44575D02*
X81000Y-44975D01*
X77050Y-58250D02*
G75*
G03X77050Y-58250I-50J0D01*
G74*
G01*
X77000Y-57800D02*
X77000Y-58200D01*
X77000Y-58200D02*
X76400Y-58200D01*
X76400Y-58200D02*
X76400Y-57800D01*
X76400Y-57400D02*
X76400Y-57000D01*
X76400Y-57000D02*
X77000Y-57000D01*
X77000Y-57000D02*
X77000Y-57400D01*
X76050Y-58275D02*
G75*
G03X76050Y-58275I-50J0D01*
G74*
G01*
X76000Y-57825D02*
X76000Y-58225D01*
X76000Y-58225D02*
X75400Y-58225D01*
X75400Y-58225D02*
X75400Y-57825D01*
X75400Y-57425D02*
X75400Y-57025D01*
X75400Y-57025D02*
X76000Y-57025D01*
X76000Y-57025D02*
X76000Y-57425D01*
X78050Y-61300D02*
G75*
G03X78050Y-61300I-50J0D01*
G74*
G01*
X78000Y-60850D02*
X78000Y-61250D01*
X78000Y-61250D02*
X77400Y-61250D01*
X77400Y-61250D02*
X77400Y-60850D01*
X77400Y-60450D02*
X77400Y-60050D01*
X77400Y-60050D02*
X78000Y-60050D01*
X78000Y-60050D02*
X78000Y-60450D01*
X85050Y-45850D02*
G75*
G03X85050Y-45850I-50J0D01*
G74*
G01*
X85000Y-45400D02*
X85000Y-45800D01*
X85000Y-45800D02*
X84400Y-45800D01*
X84400Y-45800D02*
X84400Y-45400D01*
X84400Y-45000D02*
X84400Y-44600D01*
X84400Y-44600D02*
X85000Y-44600D01*
X85000Y-44600D02*
X85000Y-45000D01*
X71450Y-45950D02*
G75*
G03X71450Y-45950I-50J0D01*
G74*
G01*
X71400Y-45500D02*
X71400Y-45900D01*
X71400Y-45900D02*
X70800Y-45900D01*
X70800Y-45900D02*
X70800Y-45500D01*
X70800Y-45100D02*
X70800Y-44700D01*
X70800Y-44700D02*
X71400Y-44700D01*
X71400Y-44700D02*
X71400Y-45100D01*
X74450Y-46525D02*
G75*
G03X74450Y-46525I-50J0D01*
G74*
G01*
X74400Y-46075D02*
X74400Y-46475D01*
X74400Y-46475D02*
X73800Y-46475D01*
X73800Y-46475D02*
X73800Y-46075D01*
X73800Y-45675D02*
X73800Y-45275D01*
X73800Y-45275D02*
X74400Y-45275D01*
X74400Y-45275D02*
X74400Y-45675D01*
X81450Y-60150D02*
G75*
G03X81450Y-60150I-50J0D01*
G74*
G01*
X81400Y-60600D02*
X81400Y-60200D01*
X81400Y-60200D02*
X82000Y-60200D01*
X82000Y-60200D02*
X82000Y-60600D01*
X82000Y-61000D02*
X82000Y-61400D01*
X82000Y-61400D02*
X81400Y-61400D01*
X81400Y-61400D02*
X81400Y-61000D01*
X82450Y-60150D02*
G75*
G03X82450Y-60150I-50J0D01*
G74*
G01*
X82400Y-60600D02*
X82400Y-60200D01*
X82400Y-60200D02*
X83000Y-60200D01*
X83000Y-60200D02*
X83000Y-60600D01*
X83000Y-61000D02*
X83000Y-61400D01*
X83000Y-61400D02*
X82400Y-61400D01*
X82400Y-61400D02*
X82400Y-61000D01*
X80450Y-60150D02*
G75*
G03X80450Y-60150I-50J0D01*
G74*
G01*
X80400Y-60600D02*
X80400Y-60200D01*
X80400Y-60200D02*
X81000Y-60200D01*
X81000Y-60200D02*
X81000Y-60600D01*
X81000Y-61000D02*
X81000Y-61400D01*
X81000Y-61400D02*
X80400Y-61400D01*
X80400Y-61400D02*
X80400Y-61000D01*
X79450Y-60150D02*
G75*
G03X79450Y-60150I-50J0D01*
G74*
G01*
X79400Y-60600D02*
X79400Y-60200D01*
X79400Y-60200D02*
X80000Y-60200D01*
X80000Y-60200D02*
X80000Y-60600D01*
X80000Y-61000D02*
X80000Y-61400D01*
X80000Y-61400D02*
X79400Y-61400D01*
X79400Y-61400D02*
X79400Y-61000D01*
X78050Y-45650D02*
G75*
G03X78050Y-45650I-50J0D01*
G74*
G01*
X78000Y-45200D02*
X78000Y-45600D01*
X78000Y-45600D02*
X77400Y-45600D01*
X77400Y-45600D02*
X77400Y-45200D01*
X77400Y-44800D02*
X77400Y-44400D01*
X77400Y-44400D02*
X78000Y-44400D01*
X78000Y-44400D02*
X78000Y-44800D01*
G54D11*
X101809Y-62140D02*
X101415Y-62140D01*
X101415Y-62046D01*
X101434Y-61990D01*
X101471Y-61953D01*
X101509Y-61934D01*
X101584Y-61915D01*
X101640Y-61915D01*
X101715Y-61934D01*
X101753Y-61953D01*
X101790Y-61990D01*
X101809Y-62046D01*
X101809Y-62140D01*
X101453Y-61765D02*
X101434Y-61746D01*
X101415Y-61709D01*
X101415Y-61615D01*
X101434Y-61578D01*
X101453Y-61559D01*
X101490Y-61540D01*
X101528Y-61540D01*
X101584Y-61559D01*
X101809Y-61784D01*
X101809Y-61540D01*
X98803Y-63615D02*
X98821Y-63559D01*
X98840Y-63540D01*
X98878Y-63521D01*
X98934Y-63521D01*
X98971Y-63540D01*
X98990Y-63559D01*
X99009Y-63596D01*
X99009Y-63746D01*
X98615Y-63746D01*
X98615Y-63615D01*
X98634Y-63577D01*
X98653Y-63559D01*
X98690Y-63540D01*
X98728Y-63540D01*
X98765Y-63559D01*
X98784Y-63577D01*
X98803Y-63615D01*
X98803Y-63746D01*
X99009Y-63146D02*
X99009Y-63371D01*
X99009Y-63259D02*
X98615Y-63259D01*
X98671Y-63296D01*
X98709Y-63334D01*
X98728Y-63371D01*
X98615Y-63015D02*
X98615Y-62771D01*
X98765Y-62903D01*
X98765Y-62846D01*
X98784Y-62809D01*
X98803Y-62790D01*
X98840Y-62771D01*
X98934Y-62771D01*
X98971Y-62790D01*
X98990Y-62809D01*
X99009Y-62846D01*
X99009Y-62959D01*
X98990Y-62996D01*
X98971Y-63015D01*
X98615Y-62528D02*
X98615Y-62490D01*
X98634Y-62453D01*
X98653Y-62434D01*
X98690Y-62415D01*
X98765Y-62396D01*
X98859Y-62396D01*
X98934Y-62415D01*
X98971Y-62434D01*
X98990Y-62453D01*
X99009Y-62490D01*
X99009Y-62528D01*
X98990Y-62565D01*
X98971Y-62584D01*
X98934Y-62603D01*
X98859Y-62621D01*
X98765Y-62621D01*
X98690Y-62603D01*
X98653Y-62584D01*
X98634Y-62565D01*
X98615Y-62528D01*
X98859Y-62228D02*
X98859Y-61928D01*
X99009Y-61534D02*
X99009Y-61759D01*
X99009Y-61646D02*
X98615Y-61646D01*
X98671Y-61684D01*
X98709Y-61721D01*
X98728Y-61759D01*
X98615Y-61403D02*
X98615Y-61159D01*
X98765Y-61290D01*
X98765Y-61234D01*
X98784Y-61196D01*
X98803Y-61178D01*
X98840Y-61159D01*
X98934Y-61159D01*
X98971Y-61178D01*
X98990Y-61196D01*
X99009Y-61234D01*
X99009Y-61346D01*
X98990Y-61384D01*
X98971Y-61403D01*
X98859Y-60990D02*
X98859Y-60690D01*
X98803Y-60372D02*
X98803Y-60503D01*
X99009Y-60503D02*
X98615Y-60503D01*
X98615Y-60315D01*
G54D19*
X99817Y-59854D02*
X99751Y-59760D01*
X99704Y-59854D02*
X99704Y-59657D01*
X99779Y-59657D01*
X99798Y-59667D01*
X99807Y-59676D01*
X99817Y-59695D01*
X99817Y-59723D01*
X99807Y-59742D01*
X99798Y-59751D01*
X99779Y-59760D01*
X99704Y-59760D01*
X99882Y-59657D02*
X100004Y-59657D01*
X99939Y-59732D01*
X99967Y-59732D01*
X99986Y-59742D01*
X99995Y-59751D01*
X100004Y-59770D01*
X100004Y-59817D01*
X99995Y-59835D01*
X99986Y-59845D01*
X99967Y-59854D01*
X99910Y-59854D01*
X99892Y-59845D01*
X99882Y-59835D01*
X99840Y-59382D02*
X99859Y-59382D01*
X99878Y-59392D01*
X99887Y-59401D01*
X99896Y-59420D01*
X99906Y-59457D01*
X99906Y-59504D01*
X99896Y-59542D01*
X99887Y-59560D01*
X99878Y-59570D01*
X99859Y-59579D01*
X99840Y-59579D01*
X99821Y-59570D01*
X99812Y-59560D01*
X99803Y-59542D01*
X99793Y-59504D01*
X99793Y-59457D01*
X99803Y-59420D01*
X99812Y-59401D01*
X99821Y-59392D01*
X99840Y-59382D01*
X102067Y-59604D02*
X102001Y-59510D01*
X101954Y-59604D02*
X101954Y-59407D01*
X102029Y-59407D01*
X102048Y-59417D01*
X102057Y-59426D01*
X102067Y-59445D01*
X102067Y-59473D01*
X102057Y-59492D01*
X102048Y-59501D01*
X102029Y-59510D01*
X101954Y-59510D01*
X102245Y-59407D02*
X102151Y-59407D01*
X102142Y-59501D01*
X102151Y-59492D01*
X102170Y-59482D01*
X102217Y-59482D01*
X102236Y-59492D01*
X102245Y-59501D01*
X102254Y-59520D01*
X102254Y-59567D01*
X102245Y-59585D01*
X102236Y-59595D01*
X102217Y-59604D01*
X102170Y-59604D01*
X102151Y-59595D01*
X102142Y-59585D01*
X102090Y-59682D02*
X102109Y-59682D01*
X102128Y-59692D01*
X102137Y-59701D01*
X102146Y-59720D01*
X102156Y-59757D01*
X102156Y-59804D01*
X102146Y-59842D01*
X102137Y-59860D01*
X102128Y-59870D01*
X102109Y-59879D01*
X102090Y-59879D01*
X102071Y-59870D01*
X102062Y-59860D01*
X102053Y-59842D01*
X102043Y-59804D01*
X102043Y-59757D01*
X102053Y-59720D01*
X102062Y-59701D01*
X102071Y-59692D01*
X102090Y-59682D01*
X98267Y-58454D02*
X98201Y-58360D01*
X98154Y-58454D02*
X98154Y-58257D01*
X98229Y-58257D01*
X98248Y-58267D01*
X98257Y-58276D01*
X98267Y-58295D01*
X98267Y-58323D01*
X98257Y-58342D01*
X98248Y-58351D01*
X98229Y-58360D01*
X98154Y-58360D01*
X98342Y-58276D02*
X98351Y-58267D01*
X98370Y-58257D01*
X98417Y-58257D01*
X98436Y-58267D01*
X98445Y-58276D01*
X98454Y-58295D01*
X98454Y-58314D01*
X98445Y-58342D01*
X98332Y-58454D01*
X98454Y-58454D01*
X98056Y-58551D02*
X98065Y-58542D01*
X98084Y-58532D01*
X98131Y-58532D01*
X98149Y-58542D01*
X98159Y-58551D01*
X98168Y-58570D01*
X98168Y-58589D01*
X98159Y-58617D01*
X98046Y-58729D01*
X98168Y-58729D01*
X98290Y-58532D02*
X98309Y-58532D01*
X98328Y-58542D01*
X98337Y-58551D01*
X98346Y-58570D01*
X98356Y-58607D01*
X98356Y-58654D01*
X98346Y-58692D01*
X98337Y-58710D01*
X98328Y-58720D01*
X98309Y-58729D01*
X98290Y-58729D01*
X98271Y-58720D01*
X98262Y-58710D01*
X98253Y-58692D01*
X98243Y-58654D01*
X98243Y-58607D01*
X98253Y-58570D01*
X98262Y-58551D01*
X98271Y-58542D01*
X98290Y-58532D01*
X98478Y-58532D02*
X98497Y-58532D01*
X98515Y-58542D01*
X98525Y-58551D01*
X98534Y-58570D01*
X98543Y-58607D01*
X98543Y-58654D01*
X98534Y-58692D01*
X98525Y-58710D01*
X98515Y-58720D01*
X98497Y-58729D01*
X98478Y-58729D01*
X98459Y-58720D01*
X98450Y-58710D01*
X98440Y-58692D01*
X98431Y-58654D01*
X98431Y-58607D01*
X98440Y-58570D01*
X98450Y-58551D01*
X98459Y-58542D01*
X98478Y-58532D01*
G54D16*
X97080Y-59947D02*
X96880Y-59947D01*
X96880Y-59900D01*
X96890Y-59871D01*
X96909Y-59852D01*
X96928Y-59842D01*
X96966Y-59833D01*
X96995Y-59833D01*
X97033Y-59842D01*
X97052Y-59852D01*
X97071Y-59871D01*
X97080Y-59900D01*
X97080Y-59947D01*
X97080Y-59642D02*
X97080Y-59757D01*
X97080Y-59700D02*
X96880Y-59700D01*
X96909Y-59719D01*
X96928Y-59738D01*
X96938Y-59757D01*
X97880Y-60852D02*
X97880Y-60947D01*
X97680Y-60947D01*
X97690Y-60680D02*
X97680Y-60700D01*
X97680Y-60728D01*
X97690Y-60757D01*
X97709Y-60776D01*
X97728Y-60785D01*
X97766Y-60795D01*
X97795Y-60795D01*
X97833Y-60785D01*
X97852Y-60776D01*
X97871Y-60757D01*
X97880Y-60728D01*
X97880Y-60709D01*
X97871Y-60680D01*
X97861Y-60671D01*
X97795Y-60671D01*
X97795Y-60709D01*
X97900Y-60300D02*
X97890Y-60319D01*
X97871Y-60338D01*
X97842Y-60366D01*
X97833Y-60385D01*
X97833Y-60404D01*
X97880Y-60395D02*
X97871Y-60414D01*
X97852Y-60433D01*
X97814Y-60442D01*
X97747Y-60442D01*
X97709Y-60433D01*
X97690Y-60414D01*
X97680Y-60395D01*
X97680Y-60357D01*
X97690Y-60338D01*
X97709Y-60319D01*
X97747Y-60309D01*
X97814Y-60309D01*
X97852Y-60319D01*
X97871Y-60338D01*
X97880Y-60357D01*
X97880Y-60395D01*
X97880Y-60214D02*
X97880Y-60176D01*
X97871Y-60157D01*
X97861Y-60147D01*
X97833Y-60128D01*
X97795Y-60119D01*
X97719Y-60119D01*
X97700Y-60128D01*
X97690Y-60138D01*
X97680Y-60157D01*
X97680Y-60195D01*
X97690Y-60214D01*
X97700Y-60223D01*
X97719Y-60233D01*
X97766Y-60233D01*
X97785Y-60223D01*
X97795Y-60214D01*
X97804Y-60195D01*
X97804Y-60157D01*
X97795Y-60138D01*
X97785Y-60128D01*
X97766Y-60119D01*
X97680Y-60052D02*
X97680Y-59919D01*
X97880Y-60004D01*
X97880Y-59738D02*
X97880Y-59852D01*
X97880Y-59795D02*
X97680Y-59795D01*
X97709Y-59814D01*
X97728Y-59833D01*
X97738Y-59852D01*
X97804Y-59652D02*
X97804Y-59499D01*
X97880Y-59404D02*
X97680Y-59404D01*
X97880Y-59290D02*
X97766Y-59376D01*
X97680Y-59290D02*
X97795Y-59404D01*
X97880Y-59204D02*
X97680Y-59204D01*
X97880Y-59090D01*
X97680Y-59090D01*
X97804Y-58995D02*
X97804Y-58842D01*
X97880Y-58642D02*
X97880Y-58757D01*
X97880Y-58700D02*
X97680Y-58700D01*
X97709Y-58719D01*
X97728Y-58738D01*
X97738Y-58757D01*
G54D11*
X99015Y-62099D02*
X99334Y-62099D01*
X99371Y-62081D01*
X99390Y-62062D01*
X99409Y-62024D01*
X99409Y-61949D01*
X99390Y-61912D01*
X99371Y-61893D01*
X99334Y-61874D01*
X99015Y-61874D01*
X99409Y-61481D02*
X99409Y-61706D01*
X99409Y-61593D02*
X99015Y-61593D01*
X99071Y-61631D01*
X99109Y-61668D01*
X99128Y-61706D01*
X94159Y-63040D02*
X94159Y-63227D01*
X93765Y-63227D01*
X93765Y-62965D02*
X93765Y-62740D01*
X94159Y-62852D02*
X93765Y-62852D01*
X93765Y-62665D02*
X94159Y-62534D01*
X93765Y-62403D01*
X94009Y-62271D02*
X94009Y-61971D01*
X93934Y-61728D02*
X93915Y-61765D01*
X93896Y-61784D01*
X93859Y-61803D01*
X93840Y-61803D01*
X93803Y-61784D01*
X93784Y-61765D01*
X93765Y-61728D01*
X93765Y-61653D01*
X93784Y-61615D01*
X93803Y-61596D01*
X93840Y-61578D01*
X93859Y-61578D01*
X93896Y-61596D01*
X93915Y-61615D01*
X93934Y-61653D01*
X93934Y-61728D01*
X93953Y-61765D01*
X93971Y-61784D01*
X94009Y-61803D01*
X94084Y-61803D01*
X94121Y-61784D01*
X94140Y-61765D01*
X94159Y-61728D01*
X94159Y-61653D01*
X94140Y-61615D01*
X94121Y-61596D01*
X94084Y-61578D01*
X94009Y-61578D01*
X93971Y-61596D01*
X93953Y-61615D01*
X93934Y-61653D01*
X94159Y-61203D02*
X94159Y-61428D01*
X94159Y-61315D02*
X93765Y-61315D01*
X93821Y-61353D01*
X93859Y-61390D01*
X93878Y-61428D01*
X93765Y-60865D02*
X93765Y-60940D01*
X93784Y-60978D01*
X93803Y-60996D01*
X93859Y-61034D01*
X93934Y-61053D01*
X94084Y-61053D01*
X94121Y-61034D01*
X94140Y-61015D01*
X94159Y-60978D01*
X94159Y-60903D01*
X94140Y-60865D01*
X94121Y-60847D01*
X94084Y-60828D01*
X93990Y-60828D01*
X93953Y-60847D01*
X93934Y-60865D01*
X93915Y-60903D01*
X93915Y-60978D01*
X93934Y-61015D01*
X93953Y-61034D01*
X93990Y-61053D01*
X94140Y-60678D02*
X94159Y-60622D01*
X94159Y-60528D01*
X94140Y-60490D01*
X94121Y-60472D01*
X94084Y-60453D01*
X94046Y-60453D01*
X94009Y-60472D01*
X93990Y-60490D01*
X93971Y-60528D01*
X93953Y-60603D01*
X93934Y-60640D01*
X93915Y-60659D01*
X93878Y-60678D01*
X93840Y-60678D01*
X93803Y-60659D01*
X93784Y-60640D01*
X93765Y-60603D01*
X93765Y-60509D01*
X93784Y-60453D01*
G54D15*
X107861Y-47995D02*
X107461Y-47995D01*
X107461Y-47842D01*
X107480Y-47804D01*
X107500Y-47785D01*
X107538Y-47766D01*
X107595Y-47766D01*
X107633Y-47785D01*
X107652Y-47804D01*
X107671Y-47842D01*
X107671Y-47995D01*
X107500Y-47614D02*
X107480Y-47595D01*
X107461Y-47557D01*
X107461Y-47461D01*
X107480Y-47423D01*
X107500Y-47404D01*
X107538Y-47385D01*
X107576Y-47385D01*
X107633Y-47404D01*
X107861Y-47633D01*
X107861Y-47385D01*
G54D19*
X90823Y-45754D02*
X90757Y-45660D01*
X90710Y-45754D02*
X90710Y-45557D01*
X90785Y-45557D01*
X90804Y-45567D01*
X90813Y-45576D01*
X90823Y-45595D01*
X90823Y-45623D01*
X90813Y-45642D01*
X90804Y-45651D01*
X90785Y-45660D01*
X90710Y-45660D01*
X90992Y-45623D02*
X90992Y-45754D01*
X90945Y-45548D02*
X90898Y-45689D01*
X91020Y-45689D01*
X91104Y-45754D02*
X91142Y-45754D01*
X91161Y-45745D01*
X91170Y-45735D01*
X91189Y-45707D01*
X91198Y-45670D01*
X91198Y-45595D01*
X91189Y-45576D01*
X91179Y-45567D01*
X91161Y-45557D01*
X91123Y-45557D01*
X91104Y-45567D01*
X91095Y-45576D01*
X91086Y-45595D01*
X91086Y-45642D01*
X91095Y-45660D01*
X91104Y-45670D01*
X91123Y-45679D01*
X91161Y-45679D01*
X91179Y-45670D01*
X91189Y-45660D01*
X91198Y-45642D01*
X90940Y-45832D02*
X90959Y-45832D01*
X90978Y-45842D01*
X90987Y-45851D01*
X90996Y-45870D01*
X91006Y-45907D01*
X91006Y-45954D01*
X90996Y-45992D01*
X90987Y-46010D01*
X90978Y-46020D01*
X90959Y-46029D01*
X90940Y-46029D01*
X90921Y-46020D01*
X90912Y-46010D01*
X90903Y-45992D01*
X90893Y-45954D01*
X90893Y-45907D01*
X90903Y-45870D01*
X90912Y-45851D01*
X90921Y-45842D01*
X90940Y-45832D01*
X88848Y-47704D02*
X88782Y-47610D01*
X88735Y-47704D02*
X88735Y-47507D01*
X88810Y-47507D01*
X88829Y-47517D01*
X88838Y-47526D01*
X88848Y-47545D01*
X88848Y-47573D01*
X88838Y-47592D01*
X88829Y-47601D01*
X88810Y-47610D01*
X88735Y-47610D01*
X89017Y-47573D02*
X89017Y-47704D01*
X88970Y-47498D02*
X88923Y-47639D01*
X89045Y-47639D01*
X89148Y-47592D02*
X89129Y-47582D01*
X89120Y-47573D01*
X89111Y-47554D01*
X89111Y-47545D01*
X89120Y-47526D01*
X89129Y-47517D01*
X89148Y-47507D01*
X89186Y-47507D01*
X89204Y-47517D01*
X89214Y-47526D01*
X89223Y-47545D01*
X89223Y-47554D01*
X89214Y-47573D01*
X89204Y-47582D01*
X89186Y-47592D01*
X89148Y-47592D01*
X89129Y-47601D01*
X89120Y-47610D01*
X89111Y-47629D01*
X89111Y-47667D01*
X89120Y-47685D01*
X89129Y-47695D01*
X89148Y-47704D01*
X89186Y-47704D01*
X89204Y-47695D01*
X89214Y-47685D01*
X89223Y-47667D01*
X89223Y-47629D01*
X89214Y-47610D01*
X89204Y-47601D01*
X89186Y-47592D01*
X88965Y-47782D02*
X88984Y-47782D01*
X89003Y-47792D01*
X89012Y-47801D01*
X89021Y-47820D01*
X89031Y-47857D01*
X89031Y-47904D01*
X89021Y-47942D01*
X89012Y-47960D01*
X89003Y-47970D01*
X88984Y-47979D01*
X88965Y-47979D01*
X88946Y-47970D01*
X88937Y-47960D01*
X88928Y-47942D01*
X88918Y-47904D01*
X88918Y-47857D01*
X88928Y-47820D01*
X88937Y-47801D01*
X88946Y-47792D01*
X88965Y-47782D01*
G54D11*
X110659Y-57740D02*
X110265Y-57740D01*
X110265Y-57590D01*
X110284Y-57553D01*
X110303Y-57534D01*
X110340Y-57515D01*
X110396Y-57515D01*
X110434Y-57534D01*
X110453Y-57553D01*
X110471Y-57590D01*
X110471Y-57740D01*
X110265Y-57159D02*
X110265Y-57346D01*
X110453Y-57365D01*
X110434Y-57346D01*
X110415Y-57309D01*
X110415Y-57215D01*
X110434Y-57178D01*
X110453Y-57159D01*
X110490Y-57140D01*
X110584Y-57140D01*
X110621Y-57159D01*
X110640Y-57178D01*
X110659Y-57215D01*
X110659Y-57309D01*
X110640Y-57346D01*
X110621Y-57365D01*
X111309Y-39440D02*
X110915Y-39440D01*
X110915Y-39290D01*
X110934Y-39253D01*
X110953Y-39234D01*
X110990Y-39215D01*
X111046Y-39215D01*
X111084Y-39234D01*
X111103Y-39253D01*
X111121Y-39290D01*
X111121Y-39440D01*
X111046Y-38878D02*
X111309Y-38878D01*
X110896Y-38971D02*
X111178Y-39065D01*
X111178Y-38821D01*
X49625Y-40703D02*
X49644Y-40684D01*
X49681Y-40665D01*
X49775Y-40665D01*
X49812Y-40684D01*
X49831Y-40703D01*
X49850Y-40740D01*
X49850Y-40778D01*
X49831Y-40834D01*
X49606Y-41059D01*
X49850Y-41059D01*
X50187Y-40796D02*
X50187Y-41059D01*
X50094Y-40646D02*
X50000Y-40928D01*
X50244Y-40928D01*
X50693Y-40796D02*
X50693Y-41190D01*
X50693Y-40815D02*
X50731Y-40796D01*
X50806Y-40796D01*
X50843Y-40815D01*
X50862Y-40834D01*
X50881Y-40871D01*
X50881Y-40984D01*
X50862Y-41021D01*
X50843Y-41040D01*
X50806Y-41059D01*
X50731Y-41059D01*
X50693Y-41040D01*
X51050Y-41059D02*
X51050Y-40796D01*
X51050Y-40665D02*
X51031Y-40684D01*
X51050Y-40703D01*
X51068Y-40684D01*
X51050Y-40665D01*
X51050Y-40703D01*
X51237Y-40796D02*
X51237Y-41059D01*
X51237Y-40834D02*
X51256Y-40815D01*
X51293Y-40796D01*
X51350Y-40796D01*
X51387Y-40815D01*
X51406Y-40853D01*
X51406Y-41059D01*
X51893Y-41059D02*
X51893Y-40665D01*
X52025Y-40946D01*
X52156Y-40665D01*
X52156Y-41059D01*
X52343Y-41059D02*
X52343Y-40796D01*
X52343Y-40665D02*
X52324Y-40684D01*
X52343Y-40703D01*
X52362Y-40684D01*
X52343Y-40665D01*
X52343Y-40703D01*
X52531Y-40796D02*
X52531Y-41059D01*
X52531Y-40834D02*
X52549Y-40815D01*
X52587Y-40796D01*
X52643Y-40796D01*
X52681Y-40815D01*
X52699Y-40853D01*
X52699Y-41059D01*
X52887Y-41059D02*
X52887Y-40796D01*
X52887Y-40665D02*
X52868Y-40684D01*
X52887Y-40703D01*
X52906Y-40684D01*
X52887Y-40665D01*
X52887Y-40703D01*
X53074Y-40909D02*
X53374Y-40909D01*
X53506Y-40796D02*
X53656Y-40796D01*
X53562Y-41059D02*
X53562Y-40721D01*
X53581Y-40684D01*
X53618Y-40665D01*
X53656Y-40665D01*
X53787Y-41059D02*
X53787Y-40796D01*
X53787Y-40665D02*
X53768Y-40684D01*
X53787Y-40703D01*
X53806Y-40684D01*
X53787Y-40665D01*
X53787Y-40703D01*
X53918Y-40796D02*
X54068Y-40796D01*
X53974Y-40665D02*
X53974Y-41003D01*
X53993Y-41040D01*
X54031Y-41059D01*
X54068Y-41059D01*
X54612Y-40665D02*
X54612Y-40946D01*
X54593Y-41003D01*
X54555Y-41040D01*
X54499Y-41059D01*
X54462Y-41059D01*
X54799Y-41059D02*
X54799Y-40796D01*
X54799Y-40871D02*
X54818Y-40834D01*
X54837Y-40815D01*
X54874Y-40796D01*
X54912Y-40796D01*
G54D16*
X90882Y-52570D02*
X91246Y-52570D01*
X91289Y-52551D01*
X91310Y-52532D01*
X91332Y-52494D01*
X91332Y-52417D01*
X91310Y-52379D01*
X91289Y-52360D01*
X91246Y-52341D01*
X90882Y-52341D01*
X91332Y-51941D02*
X91332Y-52170D01*
X91332Y-52055D02*
X90882Y-52055D01*
X90946Y-52094D01*
X90989Y-52132D01*
X91010Y-52170D01*
X90882Y-51694D02*
X90882Y-51655D01*
X90903Y-51617D01*
X90925Y-51598D01*
X90967Y-51579D01*
X91053Y-51560D01*
X91160Y-51560D01*
X91246Y-51579D01*
X91289Y-51598D01*
X91310Y-51617D01*
X91332Y-51655D01*
X91332Y-51694D01*
X91310Y-51732D01*
X91289Y-51751D01*
X91246Y-51770D01*
X91160Y-51789D01*
X91053Y-51789D01*
X90967Y-51770D01*
X90925Y-51751D01*
X90903Y-51732D01*
X90882Y-51694D01*
X90311Y-53370D02*
X89911Y-53370D01*
X90197Y-53236D01*
X89911Y-53103D01*
X90311Y-53103D01*
X90273Y-52684D02*
X90292Y-52703D01*
X90311Y-52760D01*
X90311Y-52798D01*
X90292Y-52855D01*
X90254Y-52894D01*
X90216Y-52913D01*
X90140Y-52932D01*
X90083Y-52932D01*
X90007Y-52913D01*
X89969Y-52894D01*
X89930Y-52855D01*
X89911Y-52798D01*
X89911Y-52760D01*
X89930Y-52703D01*
X89950Y-52684D01*
X90311Y-52513D02*
X89911Y-52513D01*
X89911Y-52360D01*
X89930Y-52322D01*
X89950Y-52303D01*
X89988Y-52284D01*
X90045Y-52284D01*
X90083Y-52303D01*
X90102Y-52322D01*
X90121Y-52360D01*
X90121Y-52513D01*
X90045Y-51941D02*
X90311Y-51941D01*
X89892Y-52036D02*
X90178Y-52132D01*
X90178Y-51884D01*
X90083Y-51674D02*
X90064Y-51713D01*
X90045Y-51732D01*
X90007Y-51751D01*
X89988Y-51751D01*
X89950Y-51732D01*
X89930Y-51713D01*
X89911Y-51674D01*
X89911Y-51598D01*
X89930Y-51560D01*
X89950Y-51541D01*
X89988Y-51522D01*
X90007Y-51522D01*
X90045Y-51541D01*
X90064Y-51560D01*
X90083Y-51598D01*
X90083Y-51674D01*
X90102Y-51713D01*
X90121Y-51732D01*
X90159Y-51751D01*
X90235Y-51751D01*
X90273Y-51732D01*
X90292Y-51713D01*
X90311Y-51674D01*
X90311Y-51598D01*
X90292Y-51560D01*
X90273Y-51541D01*
X90235Y-51522D01*
X90159Y-51522D01*
X90121Y-51541D01*
X90102Y-51560D01*
X90083Y-51598D01*
X89911Y-51274D02*
X89911Y-51236D01*
X89930Y-51198D01*
X89950Y-51179D01*
X89988Y-51160D01*
X90064Y-51141D01*
X90159Y-51141D01*
X90235Y-51160D01*
X90273Y-51179D01*
X90292Y-51198D01*
X90311Y-51236D01*
X90311Y-51274D01*
X90292Y-51313D01*
X90273Y-51332D01*
X90235Y-51351D01*
X90159Y-51370D01*
X90064Y-51370D01*
X89988Y-51351D01*
X89950Y-51332D01*
X89930Y-51313D01*
X89911Y-51274D01*
X90311Y-50760D02*
X90311Y-50989D01*
X90311Y-50874D02*
X89911Y-50874D01*
X89969Y-50913D01*
X90007Y-50951D01*
X90026Y-50989D01*
G54D11*
X109809Y-51559D02*
X109809Y-51165D01*
X109903Y-51165D01*
X109959Y-51184D01*
X109996Y-51221D01*
X110015Y-51259D01*
X110034Y-51334D01*
X110034Y-51390D01*
X110015Y-51465D01*
X109996Y-51503D01*
X109959Y-51540D01*
X109903Y-51559D01*
X109809Y-51559D01*
X110390Y-51165D02*
X110203Y-51165D01*
X110184Y-51353D01*
X110203Y-51334D01*
X110240Y-51315D01*
X110334Y-51315D01*
X110371Y-51334D01*
X110390Y-51353D01*
X110409Y-51390D01*
X110409Y-51484D01*
X110390Y-51521D01*
X110371Y-51540D01*
X110334Y-51559D01*
X110240Y-51559D01*
X110203Y-51540D01*
X110184Y-51521D01*
X108334Y-48553D02*
X108390Y-48571D01*
X108409Y-48590D01*
X108428Y-48628D01*
X108428Y-48684D01*
X108409Y-48721D01*
X108390Y-48740D01*
X108353Y-48759D01*
X108203Y-48759D01*
X108203Y-48365D01*
X108334Y-48365D01*
X108372Y-48384D01*
X108390Y-48403D01*
X108409Y-48440D01*
X108409Y-48478D01*
X108390Y-48515D01*
X108372Y-48534D01*
X108334Y-48553D01*
X108203Y-48553D01*
X108803Y-48759D02*
X108578Y-48759D01*
X108690Y-48759D02*
X108690Y-48365D01*
X108653Y-48421D01*
X108615Y-48459D01*
X108578Y-48478D01*
X108934Y-48365D02*
X109178Y-48365D01*
X109046Y-48515D01*
X109103Y-48515D01*
X109140Y-48534D01*
X109159Y-48553D01*
X109178Y-48590D01*
X109178Y-48684D01*
X109159Y-48721D01*
X109140Y-48740D01*
X109103Y-48759D01*
X108990Y-48759D01*
X108953Y-48740D01*
X108934Y-48721D01*
X109421Y-48365D02*
X109459Y-48365D01*
X109496Y-48384D01*
X109515Y-48403D01*
X109534Y-48440D01*
X109553Y-48515D01*
X109553Y-48609D01*
X109534Y-48684D01*
X109515Y-48721D01*
X109496Y-48740D01*
X109459Y-48759D01*
X109421Y-48759D01*
X109384Y-48740D01*
X109365Y-48721D01*
X109346Y-48684D01*
X109328Y-48609D01*
X109328Y-48515D01*
X109346Y-48440D01*
X109365Y-48403D01*
X109384Y-48384D01*
X109421Y-48365D01*
X109721Y-48609D02*
X110021Y-48609D01*
X110415Y-48759D02*
X110190Y-48759D01*
X110303Y-48759D02*
X110303Y-48365D01*
X110265Y-48421D01*
X110228Y-48459D01*
X110190Y-48478D01*
X110546Y-48365D02*
X110790Y-48365D01*
X110659Y-48515D01*
X110715Y-48515D01*
X110753Y-48534D01*
X110771Y-48553D01*
X110790Y-48590D01*
X110790Y-48684D01*
X110771Y-48721D01*
X110753Y-48740D01*
X110715Y-48759D01*
X110603Y-48759D01*
X110565Y-48740D01*
X110546Y-48721D01*
X110959Y-48609D02*
X111259Y-48609D01*
X111577Y-48553D02*
X111446Y-48553D01*
X111446Y-48759D02*
X111446Y-48365D01*
X111634Y-48365D01*
G54D16*
X96171Y-51142D02*
X96028Y-51242D01*
X96171Y-51314D02*
X95871Y-51314D01*
X95871Y-51200D01*
X95885Y-51171D01*
X95900Y-51157D01*
X95928Y-51142D01*
X95971Y-51142D01*
X96000Y-51157D01*
X96014Y-51171D01*
X96028Y-51200D01*
X96028Y-51314D01*
X95971Y-50885D02*
X96171Y-50885D01*
X95857Y-50957D02*
X96071Y-51028D01*
X96071Y-50842D01*
X95871Y-50757D02*
X95871Y-50571D01*
X95985Y-50671D01*
X95985Y-50628D01*
X96000Y-50600D01*
X96014Y-50585D01*
X96042Y-50571D01*
X96114Y-50571D01*
X96142Y-50585D01*
X96157Y-50600D01*
X96171Y-50628D01*
X96171Y-50714D01*
X96157Y-50742D01*
X96142Y-50757D01*
G54D19*
X95898Y-48379D02*
X95832Y-48285D01*
X95785Y-48379D02*
X95785Y-48182D01*
X95860Y-48182D01*
X95879Y-48192D01*
X95888Y-48201D01*
X95898Y-48220D01*
X95898Y-48248D01*
X95888Y-48267D01*
X95879Y-48276D01*
X95860Y-48285D01*
X95785Y-48285D01*
X96067Y-48248D02*
X96067Y-48379D01*
X96020Y-48173D02*
X95973Y-48314D01*
X96095Y-48314D01*
X96161Y-48201D02*
X96170Y-48192D01*
X96189Y-48182D01*
X96236Y-48182D01*
X96254Y-48192D01*
X96264Y-48201D01*
X96273Y-48220D01*
X96273Y-48239D01*
X96264Y-48267D01*
X96151Y-48379D01*
X96273Y-48379D01*
X96085Y-48654D02*
X96020Y-48560D01*
X95973Y-48654D02*
X95973Y-48457D01*
X96048Y-48457D01*
X96067Y-48467D01*
X96076Y-48476D01*
X96085Y-48495D01*
X96085Y-48523D01*
X96076Y-48542D01*
X96067Y-48551D01*
X96048Y-48560D01*
X95973Y-48560D01*
G54D15*
X98011Y-54350D02*
X97973Y-54326D01*
X97935Y-54278D01*
X97878Y-54207D01*
X97840Y-54183D01*
X97802Y-54183D01*
X97821Y-54302D02*
X97783Y-54278D01*
X97745Y-54230D01*
X97726Y-54135D01*
X97726Y-53969D01*
X97745Y-53873D01*
X97783Y-53826D01*
X97821Y-53802D01*
X97897Y-53802D01*
X97935Y-53826D01*
X97973Y-53873D01*
X97992Y-53969D01*
X97992Y-54135D01*
X97973Y-54230D01*
X97935Y-54278D01*
X97897Y-54302D01*
X97821Y-54302D01*
X98126Y-53802D02*
X98373Y-53802D01*
X98240Y-53992D01*
X98297Y-53992D01*
X98335Y-54016D01*
X98354Y-54040D01*
X98373Y-54088D01*
X98373Y-54207D01*
X98354Y-54254D01*
X98335Y-54278D01*
X98297Y-54302D01*
X98183Y-54302D01*
X98145Y-54278D01*
X98126Y-54254D01*
X96459Y-50902D02*
X96516Y-50921D01*
X96535Y-50940D01*
X96554Y-50978D01*
X96554Y-51035D01*
X96535Y-51073D01*
X96516Y-51092D01*
X96478Y-51111D01*
X96326Y-51111D01*
X96326Y-50711D01*
X96459Y-50711D01*
X96497Y-50730D01*
X96516Y-50750D01*
X96535Y-50788D01*
X96535Y-50826D01*
X96516Y-50864D01*
X96497Y-50883D01*
X96459Y-50902D01*
X96326Y-50902D01*
X96935Y-51111D02*
X96707Y-51111D01*
X96821Y-51111D02*
X96821Y-50711D01*
X96783Y-50769D01*
X96745Y-50807D01*
X96707Y-50826D01*
X97069Y-50711D02*
X97316Y-50711D01*
X97183Y-50864D01*
X97240Y-50864D01*
X97278Y-50883D01*
X97297Y-50902D01*
X97316Y-50940D01*
X97316Y-51035D01*
X97297Y-51073D01*
X97278Y-51092D01*
X97240Y-51111D01*
X97126Y-51111D01*
X97088Y-51092D01*
X97069Y-51073D01*
X97564Y-50711D02*
X97602Y-50711D01*
X97640Y-50730D01*
X97659Y-50750D01*
X97678Y-50788D01*
X97697Y-50864D01*
X97697Y-50959D01*
X97678Y-51035D01*
X97659Y-51073D01*
X97640Y-51092D01*
X97602Y-51111D01*
X97564Y-51111D01*
X97526Y-51092D01*
X97507Y-51073D01*
X97488Y-51035D01*
X97469Y-50959D01*
X97469Y-50864D01*
X97488Y-50788D01*
X97507Y-50750D01*
X97526Y-50730D01*
X97564Y-50711D01*
X97869Y-50959D02*
X98173Y-50959D01*
X98573Y-51111D02*
X98345Y-51111D01*
X98459Y-51111D02*
X98459Y-50711D01*
X98421Y-50769D01*
X98383Y-50807D01*
X98345Y-50826D01*
X98707Y-50711D02*
X98954Y-50711D01*
X98821Y-50864D01*
X98878Y-50864D01*
X98916Y-50883D01*
X98935Y-50902D01*
X98954Y-50940D01*
X98954Y-51035D01*
X98935Y-51073D01*
X98916Y-51092D01*
X98878Y-51111D01*
X98764Y-51111D01*
X98726Y-51092D01*
X98707Y-51073D01*
X99126Y-50959D02*
X99430Y-50959D01*
X99754Y-50902D02*
X99621Y-50902D01*
X99621Y-51111D02*
X99621Y-50711D01*
X99811Y-50711D01*
X105511Y-54250D02*
X105473Y-54226D01*
X105435Y-54178D01*
X105378Y-54107D01*
X105340Y-54083D01*
X105302Y-54083D01*
X105321Y-54202D02*
X105283Y-54178D01*
X105245Y-54130D01*
X105226Y-54035D01*
X105226Y-53869D01*
X105245Y-53773D01*
X105283Y-53726D01*
X105321Y-53702D01*
X105397Y-53702D01*
X105435Y-53726D01*
X105473Y-53773D01*
X105492Y-53869D01*
X105492Y-54035D01*
X105473Y-54130D01*
X105435Y-54178D01*
X105397Y-54202D01*
X105321Y-54202D01*
X105835Y-53869D02*
X105835Y-54202D01*
X105740Y-53678D02*
X105645Y-54035D01*
X105892Y-54035D01*
X103959Y-50802D02*
X104016Y-50821D01*
X104035Y-50840D01*
X104054Y-50878D01*
X104054Y-50935D01*
X104035Y-50973D01*
X104016Y-50992D01*
X103978Y-51011D01*
X103826Y-51011D01*
X103826Y-50611D01*
X103959Y-50611D01*
X103997Y-50630D01*
X104016Y-50650D01*
X104035Y-50688D01*
X104035Y-50726D01*
X104016Y-50764D01*
X103997Y-50783D01*
X103959Y-50802D01*
X103826Y-50802D01*
X104435Y-51011D02*
X104207Y-51011D01*
X104321Y-51011D02*
X104321Y-50611D01*
X104283Y-50669D01*
X104245Y-50707D01*
X104207Y-50726D01*
X104569Y-50611D02*
X104816Y-50611D01*
X104683Y-50764D01*
X104740Y-50764D01*
X104778Y-50783D01*
X104797Y-50802D01*
X104816Y-50840D01*
X104816Y-50935D01*
X104797Y-50973D01*
X104778Y-50992D01*
X104740Y-51011D01*
X104626Y-51011D01*
X104588Y-50992D01*
X104569Y-50973D01*
X105064Y-50611D02*
X105102Y-50611D01*
X105140Y-50630D01*
X105159Y-50650D01*
X105178Y-50688D01*
X105197Y-50764D01*
X105197Y-50859D01*
X105178Y-50935D01*
X105159Y-50973D01*
X105140Y-50992D01*
X105102Y-51011D01*
X105064Y-51011D01*
X105026Y-50992D01*
X105007Y-50973D01*
X104988Y-50935D01*
X104969Y-50859D01*
X104969Y-50764D01*
X104988Y-50688D01*
X105007Y-50650D01*
X105026Y-50630D01*
X105064Y-50611D01*
X105369Y-50859D02*
X105673Y-50859D01*
X106073Y-51011D02*
X105845Y-51011D01*
X105959Y-51011D02*
X105959Y-50611D01*
X105921Y-50669D01*
X105883Y-50707D01*
X105845Y-50726D01*
X106207Y-50611D02*
X106454Y-50611D01*
X106321Y-50764D01*
X106378Y-50764D01*
X106416Y-50783D01*
X106435Y-50802D01*
X106454Y-50840D01*
X106454Y-50935D01*
X106435Y-50973D01*
X106416Y-50992D01*
X106378Y-51011D01*
X106264Y-51011D01*
X106226Y-50992D01*
X106207Y-50973D01*
X106626Y-50859D02*
X106930Y-50859D01*
X107254Y-50802D02*
X107121Y-50802D01*
X107121Y-51011D02*
X107121Y-50611D01*
X107311Y-50611D01*
G54D16*
X58954Y-43361D02*
X58822Y-43361D01*
X58822Y-43085D01*
X59032Y-43112D02*
X59045Y-43099D01*
X59072Y-43085D01*
X59137Y-43085D01*
X59164Y-43099D01*
X59177Y-43112D01*
X59190Y-43138D01*
X59190Y-43164D01*
X59177Y-43204D01*
X59019Y-43361D01*
X59190Y-43361D01*
X57276Y-43935D02*
X57263Y-43948D01*
X57224Y-43961D01*
X57198Y-43961D01*
X57158Y-43948D01*
X57132Y-43922D01*
X57119Y-43895D01*
X57106Y-43843D01*
X57106Y-43804D01*
X57119Y-43751D01*
X57132Y-43725D01*
X57158Y-43699D01*
X57198Y-43685D01*
X57224Y-43685D01*
X57263Y-43699D01*
X57276Y-43712D01*
X57394Y-43961D02*
X57394Y-43685D01*
X57486Y-43882D01*
X57578Y-43685D01*
X57578Y-43961D01*
X57683Y-43685D02*
X57854Y-43685D01*
X57762Y-43790D01*
X57801Y-43790D01*
X57827Y-43804D01*
X57841Y-43817D01*
X57854Y-43843D01*
X57854Y-43909D01*
X57841Y-43935D01*
X57827Y-43948D01*
X57801Y-43961D01*
X57722Y-43961D01*
X57696Y-43948D01*
X57683Y-43935D01*
X57959Y-43712D02*
X57972Y-43699D01*
X57998Y-43685D01*
X58064Y-43685D01*
X58090Y-43699D01*
X58103Y-43712D01*
X58116Y-43738D01*
X58116Y-43764D01*
X58103Y-43804D01*
X57946Y-43961D01*
X58116Y-43961D01*
X58221Y-43712D02*
X58234Y-43699D01*
X58261Y-43685D01*
X58326Y-43685D01*
X58352Y-43699D01*
X58366Y-43712D01*
X58379Y-43738D01*
X58379Y-43764D01*
X58366Y-43804D01*
X58208Y-43961D01*
X58379Y-43961D01*
X58628Y-43685D02*
X58497Y-43685D01*
X58484Y-43817D01*
X58497Y-43804D01*
X58523Y-43790D01*
X58589Y-43790D01*
X58615Y-43804D01*
X58628Y-43817D01*
X58641Y-43843D01*
X58641Y-43909D01*
X58628Y-43935D01*
X58615Y-43948D01*
X58589Y-43961D01*
X58523Y-43961D01*
X58497Y-43948D01*
X58484Y-43935D01*
X58746Y-43712D02*
X58759Y-43699D01*
X58785Y-43685D01*
X58851Y-43685D01*
X58877Y-43699D01*
X58890Y-43712D01*
X58904Y-43738D01*
X58904Y-43764D01*
X58890Y-43804D01*
X58733Y-43961D01*
X58904Y-43961D01*
X59009Y-43712D02*
X59022Y-43699D01*
X59048Y-43685D01*
X59114Y-43685D01*
X59140Y-43699D01*
X59153Y-43712D01*
X59166Y-43738D01*
X59166Y-43764D01*
X59153Y-43804D01*
X58995Y-43961D01*
X59166Y-43961D01*
X59284Y-43856D02*
X59494Y-43856D01*
X59612Y-43712D02*
X59625Y-43699D01*
X59652Y-43685D01*
X59717Y-43685D01*
X59743Y-43699D01*
X59757Y-43712D01*
X59770Y-43738D01*
X59770Y-43764D01*
X59757Y-43804D01*
X59599Y-43961D01*
X59770Y-43961D01*
X59875Y-43712D02*
X59888Y-43699D01*
X59914Y-43685D01*
X59980Y-43685D01*
X60006Y-43699D01*
X60019Y-43712D01*
X60032Y-43738D01*
X60032Y-43764D01*
X60019Y-43804D01*
X59862Y-43961D01*
X60032Y-43961D01*
X60203Y-43685D02*
X60229Y-43685D01*
X60255Y-43699D01*
X60268Y-43712D01*
X60282Y-43738D01*
X60295Y-43790D01*
X60295Y-43856D01*
X60282Y-43909D01*
X60268Y-43935D01*
X60255Y-43948D01*
X60229Y-43961D01*
X60203Y-43961D01*
X60177Y-43948D01*
X60163Y-43935D01*
X60150Y-43909D01*
X60137Y-43856D01*
X60137Y-43790D01*
X60150Y-43738D01*
X60163Y-43712D01*
X60177Y-43699D01*
X60203Y-43685D01*
X60413Y-43961D02*
X60413Y-43685D01*
X60570Y-43961D02*
X60452Y-43804D01*
X60570Y-43685D02*
X60413Y-43843D01*
X60820Y-43961D02*
X60688Y-43961D01*
X60688Y-43685D01*
X58854Y-42411D02*
X58722Y-42411D01*
X58722Y-42135D01*
X58919Y-42135D02*
X59090Y-42135D01*
X58998Y-42240D01*
X59037Y-42240D01*
X59064Y-42254D01*
X59077Y-42267D01*
X59090Y-42293D01*
X59090Y-42359D01*
X59077Y-42385D01*
X59064Y-42398D01*
X59037Y-42411D01*
X58959Y-42411D01*
X58932Y-42398D01*
X58919Y-42385D01*
X57276Y-41785D02*
X57263Y-41798D01*
X57224Y-41811D01*
X57198Y-41811D01*
X57158Y-41798D01*
X57132Y-41772D01*
X57119Y-41745D01*
X57106Y-41693D01*
X57106Y-41654D01*
X57119Y-41601D01*
X57132Y-41575D01*
X57158Y-41549D01*
X57198Y-41535D01*
X57224Y-41535D01*
X57263Y-41549D01*
X57276Y-41562D01*
X57394Y-41811D02*
X57394Y-41535D01*
X57486Y-41732D01*
X57578Y-41535D01*
X57578Y-41811D01*
X57683Y-41535D02*
X57854Y-41535D01*
X57762Y-41640D01*
X57801Y-41640D01*
X57827Y-41654D01*
X57841Y-41667D01*
X57854Y-41693D01*
X57854Y-41759D01*
X57841Y-41785D01*
X57827Y-41798D01*
X57801Y-41811D01*
X57722Y-41811D01*
X57696Y-41798D01*
X57683Y-41785D01*
X57959Y-41562D02*
X57972Y-41549D01*
X57998Y-41535D01*
X58064Y-41535D01*
X58090Y-41549D01*
X58103Y-41562D01*
X58116Y-41588D01*
X58116Y-41614D01*
X58103Y-41654D01*
X57946Y-41811D01*
X58116Y-41811D01*
X58221Y-41562D02*
X58234Y-41549D01*
X58261Y-41535D01*
X58326Y-41535D01*
X58352Y-41549D01*
X58366Y-41562D01*
X58379Y-41588D01*
X58379Y-41614D01*
X58366Y-41654D01*
X58208Y-41811D01*
X58379Y-41811D01*
X58628Y-41535D02*
X58497Y-41535D01*
X58484Y-41667D01*
X58497Y-41654D01*
X58523Y-41640D01*
X58589Y-41640D01*
X58615Y-41654D01*
X58628Y-41667D01*
X58641Y-41693D01*
X58641Y-41759D01*
X58628Y-41785D01*
X58615Y-41798D01*
X58589Y-41811D01*
X58523Y-41811D01*
X58497Y-41798D01*
X58484Y-41785D01*
X58746Y-41562D02*
X58759Y-41549D01*
X58785Y-41535D01*
X58851Y-41535D01*
X58877Y-41549D01*
X58890Y-41562D01*
X58904Y-41588D01*
X58904Y-41614D01*
X58890Y-41654D01*
X58733Y-41811D01*
X58904Y-41811D01*
X59009Y-41562D02*
X59022Y-41549D01*
X59048Y-41535D01*
X59114Y-41535D01*
X59140Y-41549D01*
X59153Y-41562D01*
X59166Y-41588D01*
X59166Y-41614D01*
X59153Y-41654D01*
X58995Y-41811D01*
X59166Y-41811D01*
X59284Y-41706D02*
X59494Y-41706D01*
X59612Y-41562D02*
X59625Y-41549D01*
X59652Y-41535D01*
X59717Y-41535D01*
X59743Y-41549D01*
X59757Y-41562D01*
X59770Y-41588D01*
X59770Y-41614D01*
X59757Y-41654D01*
X59599Y-41811D01*
X59770Y-41811D01*
X59875Y-41562D02*
X59888Y-41549D01*
X59914Y-41535D01*
X59980Y-41535D01*
X60006Y-41549D01*
X60019Y-41562D01*
X60032Y-41588D01*
X60032Y-41614D01*
X60019Y-41654D01*
X59862Y-41811D01*
X60032Y-41811D01*
X60203Y-41535D02*
X60229Y-41535D01*
X60255Y-41549D01*
X60268Y-41562D01*
X60282Y-41588D01*
X60295Y-41640D01*
X60295Y-41706D01*
X60282Y-41759D01*
X60268Y-41785D01*
X60255Y-41798D01*
X60229Y-41811D01*
X60203Y-41811D01*
X60177Y-41798D01*
X60163Y-41785D01*
X60150Y-41759D01*
X60137Y-41706D01*
X60137Y-41640D01*
X60150Y-41588D01*
X60163Y-41562D01*
X60177Y-41549D01*
X60203Y-41535D01*
X60413Y-41811D02*
X60413Y-41535D01*
X60570Y-41811D02*
X60452Y-41654D01*
X60570Y-41535D02*
X60413Y-41693D01*
X60820Y-41811D02*
X60688Y-41811D01*
X60688Y-41535D01*
X61242Y-44350D02*
X61257Y-44364D01*
X61271Y-44407D01*
X61271Y-44435D01*
X61257Y-44478D01*
X61228Y-44507D01*
X61200Y-44521D01*
X61142Y-44535D01*
X61100Y-44535D01*
X61042Y-44521D01*
X61014Y-44507D01*
X60985Y-44478D01*
X60971Y-44435D01*
X60971Y-44407D01*
X60985Y-44364D01*
X61000Y-44350D01*
X60971Y-44250D02*
X60971Y-44064D01*
X61085Y-44164D01*
X61085Y-44121D01*
X61100Y-44092D01*
X61114Y-44078D01*
X61142Y-44064D01*
X61214Y-44064D01*
X61242Y-44078D01*
X61257Y-44092D01*
X61271Y-44121D01*
X61271Y-44207D01*
X61257Y-44235D01*
X61242Y-44250D01*
X61192Y-49100D02*
X61207Y-49114D01*
X61221Y-49157D01*
X61221Y-49185D01*
X61207Y-49228D01*
X61178Y-49257D01*
X61150Y-49271D01*
X61092Y-49285D01*
X61050Y-49285D01*
X60992Y-49271D01*
X60964Y-49257D01*
X60935Y-49228D01*
X60921Y-49185D01*
X60921Y-49157D01*
X60935Y-49114D01*
X60950Y-49100D01*
X60921Y-48828D02*
X60921Y-48971D01*
X61064Y-48985D01*
X61050Y-48971D01*
X61035Y-48942D01*
X61035Y-48871D01*
X61050Y-48842D01*
X61064Y-48828D01*
X61092Y-48814D01*
X61164Y-48814D01*
X61192Y-48828D01*
X61207Y-48842D01*
X61221Y-48871D01*
X61221Y-48942D01*
X61207Y-48971D01*
X61192Y-48985D01*
X61242Y-40750D02*
X61257Y-40764D01*
X61271Y-40807D01*
X61271Y-40835D01*
X61257Y-40878D01*
X61228Y-40907D01*
X61200Y-40921D01*
X61142Y-40935D01*
X61100Y-40935D01*
X61042Y-40921D01*
X61014Y-40907D01*
X60985Y-40878D01*
X60971Y-40835D01*
X60971Y-40807D01*
X60985Y-40764D01*
X61000Y-40750D01*
X61071Y-40492D02*
X61271Y-40492D01*
X60957Y-40564D02*
X61171Y-40635D01*
X61171Y-40450D01*
G54D19*
X58973Y-39804D02*
X58907Y-39710D01*
X58860Y-39804D02*
X58860Y-39607D01*
X58935Y-39607D01*
X58954Y-39617D01*
X58963Y-39626D01*
X58973Y-39645D01*
X58973Y-39673D01*
X58963Y-39692D01*
X58954Y-39701D01*
X58935Y-39710D01*
X58860Y-39710D01*
X59160Y-39804D02*
X59048Y-39804D01*
X59104Y-39804D02*
X59104Y-39607D01*
X59085Y-39635D01*
X59067Y-39654D01*
X59048Y-39664D01*
X59339Y-39607D02*
X59245Y-39607D01*
X59236Y-39701D01*
X59245Y-39692D01*
X59264Y-39682D01*
X59311Y-39682D01*
X59329Y-39692D01*
X59339Y-39701D01*
X59348Y-39720D01*
X59348Y-39767D01*
X59339Y-39785D01*
X59329Y-39795D01*
X59311Y-39804D01*
X59264Y-39804D01*
X59245Y-39795D01*
X59236Y-39785D01*
X59160Y-39529D02*
X59095Y-39435D01*
X59048Y-39529D02*
X59048Y-39332D01*
X59123Y-39332D01*
X59142Y-39342D01*
X59151Y-39351D01*
X59160Y-39370D01*
X59160Y-39398D01*
X59151Y-39417D01*
X59142Y-39426D01*
X59123Y-39435D01*
X59048Y-39435D01*
G54D11*
X64271Y-41022D02*
X64327Y-41041D01*
X64421Y-41041D01*
X64458Y-41022D01*
X64477Y-41003D01*
X64496Y-40966D01*
X64496Y-40928D01*
X64477Y-40891D01*
X64458Y-40872D01*
X64421Y-40853D01*
X64346Y-40834D01*
X64309Y-40816D01*
X64290Y-40797D01*
X64271Y-40759D01*
X64271Y-40722D01*
X64290Y-40684D01*
X64309Y-40666D01*
X64346Y-40647D01*
X64440Y-40647D01*
X64496Y-40666D01*
X64627Y-40647D02*
X64721Y-41041D01*
X64796Y-40759D01*
X64871Y-41041D01*
X64965Y-40647D01*
X65321Y-41041D02*
X65096Y-41041D01*
X65208Y-41041D02*
X65208Y-40647D01*
X65171Y-40703D01*
X65133Y-40741D01*
X65096Y-40759D01*
X63787Y-38088D02*
X63787Y-37694D01*
X63937Y-37694D01*
X63975Y-37713D01*
X63994Y-37732D01*
X64012Y-37769D01*
X64012Y-37825D01*
X63994Y-37863D01*
X63975Y-37882D01*
X63937Y-37900D01*
X63787Y-37900D01*
X64237Y-38088D02*
X64200Y-38069D01*
X64181Y-38050D01*
X64162Y-38013D01*
X64162Y-37900D01*
X64181Y-37863D01*
X64200Y-37844D01*
X64237Y-37825D01*
X64294Y-37825D01*
X64331Y-37844D01*
X64350Y-37863D01*
X64369Y-37900D01*
X64369Y-38013D01*
X64350Y-38050D01*
X64331Y-38069D01*
X64294Y-38088D01*
X64237Y-38088D01*
X64500Y-37825D02*
X64575Y-38088D01*
X64650Y-37900D01*
X64725Y-38088D01*
X64800Y-37825D01*
X65100Y-38069D02*
X65062Y-38088D01*
X64987Y-38088D01*
X64950Y-38069D01*
X64931Y-38032D01*
X64931Y-37882D01*
X64950Y-37844D01*
X64987Y-37825D01*
X65062Y-37825D01*
X65100Y-37844D01*
X65118Y-37882D01*
X65118Y-37919D01*
X64931Y-37957D01*
X65287Y-38088D02*
X65287Y-37825D01*
X65287Y-37900D02*
X65306Y-37863D01*
X65325Y-37844D01*
X65362Y-37825D01*
X65400Y-37825D01*
X65812Y-38069D02*
X65868Y-38088D01*
X65962Y-38088D01*
X66000Y-38069D01*
X66018Y-38050D01*
X66037Y-38013D01*
X66037Y-37975D01*
X66018Y-37938D01*
X66000Y-37919D01*
X65962Y-37900D01*
X65887Y-37882D01*
X65850Y-37863D01*
X65831Y-37844D01*
X65812Y-37807D01*
X65812Y-37769D01*
X65831Y-37732D01*
X65850Y-37713D01*
X65887Y-37694D01*
X65981Y-37694D01*
X66037Y-37713D01*
X66168Y-37825D02*
X66243Y-38088D01*
X66318Y-37900D01*
X66393Y-38088D01*
X66468Y-37825D01*
X66618Y-38088D02*
X66618Y-37825D01*
X66618Y-37694D02*
X66599Y-37713D01*
X66618Y-37732D01*
X66637Y-37713D01*
X66618Y-37694D01*
X66618Y-37732D01*
X66749Y-37825D02*
X66899Y-37825D01*
X66806Y-37694D02*
X66806Y-38032D01*
X66824Y-38069D01*
X66862Y-38088D01*
X66899Y-38088D01*
X67199Y-38069D02*
X67162Y-38088D01*
X67087Y-38088D01*
X67049Y-38069D01*
X67031Y-38050D01*
X67012Y-38013D01*
X67012Y-37900D01*
X67031Y-37863D01*
X67049Y-37844D01*
X67087Y-37825D01*
X67162Y-37825D01*
X67199Y-37844D01*
X67368Y-38088D02*
X67368Y-37694D01*
X67537Y-38088D02*
X67537Y-37882D01*
X67518Y-37844D01*
X67481Y-37825D01*
X67424Y-37825D01*
X67387Y-37844D01*
X67368Y-37863D01*
G54D19*
X102473Y-42504D02*
X102407Y-42410D01*
X102360Y-42504D02*
X102360Y-42307D01*
X102435Y-42307D01*
X102454Y-42317D01*
X102463Y-42326D01*
X102473Y-42345D01*
X102473Y-42373D01*
X102463Y-42392D01*
X102454Y-42401D01*
X102435Y-42410D01*
X102360Y-42410D01*
X102651Y-42307D02*
X102557Y-42307D01*
X102548Y-42401D01*
X102557Y-42392D01*
X102576Y-42382D01*
X102623Y-42382D01*
X102642Y-42392D01*
X102651Y-42401D01*
X102660Y-42420D01*
X102660Y-42467D01*
X102651Y-42485D01*
X102642Y-42495D01*
X102623Y-42504D01*
X102576Y-42504D01*
X102557Y-42495D01*
X102548Y-42485D01*
X102736Y-42326D02*
X102745Y-42317D01*
X102764Y-42307D01*
X102811Y-42307D01*
X102829Y-42317D01*
X102839Y-42326D01*
X102848Y-42345D01*
X102848Y-42364D01*
X102839Y-42392D01*
X102726Y-42504D01*
X102848Y-42504D01*
X102660Y-42229D02*
X102595Y-42135D01*
X102548Y-42229D02*
X102548Y-42032D01*
X102623Y-42032D01*
X102642Y-42042D01*
X102651Y-42051D01*
X102660Y-42070D01*
X102660Y-42098D01*
X102651Y-42117D01*
X102642Y-42126D01*
X102623Y-42135D01*
X102548Y-42135D01*
X83223Y-41254D02*
X83157Y-41160D01*
X83110Y-41254D02*
X83110Y-41057D01*
X83185Y-41057D01*
X83204Y-41067D01*
X83213Y-41076D01*
X83223Y-41095D01*
X83223Y-41123D01*
X83213Y-41142D01*
X83204Y-41151D01*
X83185Y-41160D01*
X83110Y-41160D01*
X83289Y-41057D02*
X83410Y-41057D01*
X83345Y-41132D01*
X83373Y-41132D01*
X83392Y-41142D01*
X83401Y-41151D01*
X83410Y-41170D01*
X83410Y-41217D01*
X83401Y-41235D01*
X83392Y-41245D01*
X83373Y-41254D01*
X83317Y-41254D01*
X83298Y-41245D01*
X83289Y-41235D01*
X83579Y-41123D02*
X83579Y-41254D01*
X83532Y-41048D02*
X83486Y-41189D01*
X83607Y-41189D01*
X83096Y-40782D02*
X83228Y-40782D01*
X83143Y-40979D01*
X83406Y-40979D02*
X83293Y-40979D01*
X83350Y-40979D02*
X83350Y-40782D01*
X83331Y-40810D01*
X83312Y-40829D01*
X83293Y-40839D01*
X83584Y-40782D02*
X83490Y-40782D01*
X83481Y-40876D01*
X83490Y-40867D01*
X83509Y-40857D01*
X83556Y-40857D01*
X83575Y-40867D01*
X83584Y-40876D01*
X83593Y-40895D01*
X83593Y-40942D01*
X83584Y-40960D01*
X83575Y-40970D01*
X83556Y-40979D01*
X83509Y-40979D01*
X83490Y-40970D01*
X83481Y-40960D01*
X106173Y-45485D02*
X106163Y-45495D01*
X106135Y-45504D01*
X106117Y-45504D01*
X106088Y-45495D01*
X106070Y-45476D01*
X106060Y-45457D01*
X106051Y-45420D01*
X106051Y-45392D01*
X106060Y-45354D01*
X106070Y-45335D01*
X106088Y-45317D01*
X106117Y-45307D01*
X106135Y-45307D01*
X106163Y-45317D01*
X106173Y-45326D01*
X106248Y-45326D02*
X106257Y-45317D01*
X106276Y-45307D01*
X106323Y-45307D01*
X106342Y-45317D01*
X106351Y-45326D01*
X106360Y-45345D01*
X106360Y-45364D01*
X106351Y-45392D01*
X106239Y-45504D01*
X106360Y-45504D01*
X106529Y-45373D02*
X106529Y-45504D01*
X106482Y-45298D02*
X106436Y-45439D01*
X106557Y-45439D01*
X106360Y-45760D02*
X106351Y-45770D01*
X106323Y-45779D01*
X106304Y-45779D01*
X106276Y-45770D01*
X106257Y-45751D01*
X106248Y-45732D01*
X106239Y-45695D01*
X106239Y-45667D01*
X106248Y-45629D01*
X106257Y-45610D01*
X106276Y-45592D01*
X106304Y-45582D01*
X106323Y-45582D01*
X106351Y-45592D01*
X106360Y-45601D01*
X83223Y-39354D02*
X83157Y-39260D01*
X83110Y-39354D02*
X83110Y-39157D01*
X83185Y-39157D01*
X83204Y-39167D01*
X83213Y-39176D01*
X83223Y-39195D01*
X83223Y-39223D01*
X83213Y-39242D01*
X83204Y-39251D01*
X83185Y-39260D01*
X83110Y-39260D01*
X83289Y-39157D02*
X83410Y-39157D01*
X83345Y-39232D01*
X83373Y-39232D01*
X83392Y-39242D01*
X83401Y-39251D01*
X83410Y-39270D01*
X83410Y-39317D01*
X83401Y-39335D01*
X83392Y-39345D01*
X83373Y-39354D01*
X83317Y-39354D01*
X83298Y-39345D01*
X83289Y-39335D01*
X83476Y-39157D02*
X83607Y-39157D01*
X83523Y-39354D01*
X83096Y-39432D02*
X83228Y-39432D01*
X83143Y-39629D01*
X83406Y-39629D02*
X83293Y-39629D01*
X83350Y-39629D02*
X83350Y-39432D01*
X83331Y-39460D01*
X83312Y-39479D01*
X83293Y-39489D01*
X83584Y-39432D02*
X83490Y-39432D01*
X83481Y-39526D01*
X83490Y-39517D01*
X83509Y-39507D01*
X83556Y-39507D01*
X83575Y-39517D01*
X83584Y-39526D01*
X83593Y-39545D01*
X83593Y-39592D01*
X83584Y-39610D01*
X83575Y-39620D01*
X83556Y-39629D01*
X83509Y-39629D01*
X83490Y-39620D01*
X83481Y-39610D01*
X106223Y-42585D02*
X106213Y-42595D01*
X106185Y-42604D01*
X106167Y-42604D01*
X106138Y-42595D01*
X106120Y-42576D01*
X106110Y-42557D01*
X106101Y-42520D01*
X106101Y-42492D01*
X106110Y-42454D01*
X106120Y-42435D01*
X106138Y-42417D01*
X106167Y-42407D01*
X106185Y-42407D01*
X106213Y-42417D01*
X106223Y-42426D01*
X106298Y-42426D02*
X106307Y-42417D01*
X106326Y-42407D01*
X106373Y-42407D01*
X106392Y-42417D01*
X106401Y-42426D01*
X106410Y-42445D01*
X106410Y-42464D01*
X106401Y-42492D01*
X106289Y-42604D01*
X106410Y-42604D01*
X106598Y-42604D02*
X106486Y-42604D01*
X106542Y-42604D02*
X106542Y-42407D01*
X106523Y-42435D01*
X106504Y-42454D01*
X106486Y-42464D01*
X106410Y-42310D02*
X106401Y-42320D01*
X106373Y-42329D01*
X106354Y-42329D01*
X106326Y-42320D01*
X106307Y-42301D01*
X106298Y-42282D01*
X106289Y-42245D01*
X106289Y-42217D01*
X106298Y-42179D01*
X106307Y-42160D01*
X106326Y-42142D01*
X106354Y-42132D01*
X106373Y-42132D01*
X106401Y-42142D01*
X106410Y-42151D01*
G54D11*
X76518Y-39058D02*
X76330Y-39189D01*
X76518Y-39283D02*
X76124Y-39283D01*
X76124Y-39133D01*
X76143Y-39095D01*
X76162Y-39076D01*
X76199Y-39058D01*
X76255Y-39058D01*
X76293Y-39076D01*
X76312Y-39095D01*
X76330Y-39133D01*
X76330Y-39283D01*
X76124Y-38926D02*
X76124Y-38683D01*
X76274Y-38814D01*
X76274Y-38758D01*
X76293Y-38720D01*
X76312Y-38702D01*
X76349Y-38683D01*
X76443Y-38683D01*
X76480Y-38702D01*
X76499Y-38720D01*
X76518Y-38758D01*
X76518Y-38870D01*
X76499Y-38908D01*
X76480Y-38926D01*
X76124Y-38345D02*
X76124Y-38420D01*
X76143Y-38458D01*
X76162Y-38477D01*
X76218Y-38514D01*
X76293Y-38533D01*
X76443Y-38533D01*
X76480Y-38514D01*
X76499Y-38495D01*
X76518Y-38458D01*
X76518Y-38383D01*
X76499Y-38345D01*
X76480Y-38327D01*
X76443Y-38308D01*
X76349Y-38308D01*
X76312Y-38327D01*
X76293Y-38345D01*
X76274Y-38383D01*
X76274Y-38458D01*
X76293Y-38495D01*
X76312Y-38514D01*
X76349Y-38533D01*
X80888Y-38595D02*
X80888Y-38782D01*
X81075Y-38801D01*
X81057Y-38782D01*
X81038Y-38745D01*
X81038Y-38651D01*
X81057Y-38613D01*
X81075Y-38595D01*
X81113Y-38576D01*
X81207Y-38576D01*
X81244Y-38595D01*
X81263Y-38613D01*
X81282Y-38651D01*
X81282Y-38745D01*
X81263Y-38782D01*
X81244Y-38801D01*
X81282Y-38407D02*
X80888Y-38407D01*
X81132Y-38370D02*
X81282Y-38257D01*
X81019Y-38257D02*
X81169Y-38407D01*
X70068Y-39058D02*
X69880Y-39189D01*
X70068Y-39283D02*
X69674Y-39283D01*
X69674Y-39133D01*
X69693Y-39095D01*
X69712Y-39076D01*
X69749Y-39058D01*
X69805Y-39058D01*
X69843Y-39076D01*
X69862Y-39095D01*
X69880Y-39133D01*
X69880Y-39283D01*
X69674Y-38926D02*
X69674Y-38683D01*
X69824Y-38814D01*
X69824Y-38758D01*
X69843Y-38720D01*
X69862Y-38702D01*
X69899Y-38683D01*
X69993Y-38683D01*
X70030Y-38702D01*
X70049Y-38720D01*
X70068Y-38758D01*
X70068Y-38870D01*
X70049Y-38908D01*
X70030Y-38926D01*
X69674Y-38327D02*
X69674Y-38514D01*
X69862Y-38533D01*
X69843Y-38514D01*
X69824Y-38477D01*
X69824Y-38383D01*
X69843Y-38345D01*
X69862Y-38327D01*
X69899Y-38308D01*
X69993Y-38308D01*
X70030Y-38327D01*
X70049Y-38345D01*
X70068Y-38383D01*
X70068Y-38477D01*
X70049Y-38514D01*
X70030Y-38533D01*
X74438Y-38595D02*
X74438Y-38782D01*
X74625Y-38801D01*
X74607Y-38782D01*
X74588Y-38745D01*
X74588Y-38651D01*
X74607Y-38613D01*
X74625Y-38595D01*
X74663Y-38576D01*
X74757Y-38576D01*
X74794Y-38595D01*
X74813Y-38613D01*
X74832Y-38651D01*
X74832Y-38745D01*
X74813Y-38782D01*
X74794Y-38801D01*
X74832Y-38407D02*
X74438Y-38407D01*
X74682Y-38370D02*
X74832Y-38257D01*
X74569Y-38257D02*
X74719Y-38407D01*
G54D20*
X91196Y-54309D02*
X91196Y-54552D01*
X91210Y-54580D01*
X91225Y-54595D01*
X91253Y-54609D01*
X91310Y-54609D01*
X91339Y-54595D01*
X91353Y-54580D01*
X91367Y-54552D01*
X91367Y-54309D01*
X91653Y-54309D02*
X91510Y-54309D01*
X91496Y-54452D01*
X91510Y-54438D01*
X91539Y-54423D01*
X91610Y-54423D01*
X91639Y-54438D01*
X91653Y-54452D01*
X91667Y-54480D01*
X91667Y-54552D01*
X91653Y-54580D01*
X91639Y-54595D01*
X91610Y-54609D01*
X91539Y-54609D01*
X91510Y-54595D01*
X91496Y-54580D01*
X91448Y-55770D02*
X91448Y-55676D01*
X91504Y-55789D02*
X91307Y-55723D01*
X91504Y-55658D01*
X91504Y-55592D02*
X91307Y-55592D01*
X91307Y-55517D01*
X91317Y-55498D01*
X91326Y-55489D01*
X91345Y-55479D01*
X91373Y-55479D01*
X91392Y-55489D01*
X91401Y-55498D01*
X91410Y-55517D01*
X91410Y-55592D01*
X91307Y-55301D02*
X91307Y-55395D01*
X91401Y-55404D01*
X91392Y-55395D01*
X91382Y-55376D01*
X91382Y-55329D01*
X91392Y-55310D01*
X91401Y-55301D01*
X91420Y-55292D01*
X91467Y-55292D01*
X91485Y-55301D01*
X91495Y-55310D01*
X91504Y-55329D01*
X91504Y-55376D01*
X91495Y-55395D01*
X91485Y-55404D01*
X91307Y-55226D02*
X91307Y-55095D01*
X91504Y-55179D01*
X91326Y-55029D02*
X91317Y-55020D01*
X91307Y-55001D01*
X91307Y-54954D01*
X91317Y-54935D01*
X91326Y-54926D01*
X91345Y-54916D01*
X91364Y-54916D01*
X91392Y-54926D01*
X91504Y-55038D01*
X91504Y-54916D01*
X91307Y-54748D02*
X91307Y-54785D01*
X91317Y-54804D01*
X91326Y-54813D01*
X91354Y-54832D01*
X91392Y-54841D01*
X91467Y-54841D01*
X91485Y-54832D01*
X91495Y-54823D01*
X91504Y-54804D01*
X91504Y-54766D01*
X91495Y-54748D01*
X91485Y-54738D01*
X91467Y-54729D01*
X91420Y-54729D01*
X91401Y-54738D01*
X91392Y-54748D01*
X91382Y-54766D01*
X91382Y-54804D01*
X91392Y-54823D01*
X91401Y-54832D01*
X91420Y-54841D01*
G54D11*
X97217Y-54865D02*
X97217Y-54471D01*
X97311Y-54471D01*
X97367Y-54490D01*
X97404Y-54527D01*
X97423Y-54565D01*
X97442Y-54640D01*
X97442Y-54696D01*
X97423Y-54771D01*
X97404Y-54808D01*
X97367Y-54846D01*
X97311Y-54865D01*
X97217Y-54865D01*
X97779Y-54602D02*
X97779Y-54865D01*
X97686Y-54452D02*
X97592Y-54733D01*
X97836Y-54733D01*
X93585Y-55318D02*
X93585Y-55505D01*
X93191Y-55505D01*
X93585Y-54980D02*
X93585Y-55205D01*
X93585Y-55093D02*
X93191Y-55093D01*
X93247Y-55130D01*
X93285Y-55168D01*
X93303Y-55205D01*
X104059Y-56659D02*
X104059Y-56265D01*
X104284Y-56659D02*
X104115Y-56434D01*
X104284Y-56265D02*
X104059Y-56490D01*
X104659Y-56659D02*
X104434Y-56659D01*
X104546Y-56659D02*
X104546Y-56265D01*
X104509Y-56321D01*
X104471Y-56359D01*
X104434Y-56378D01*
X103006Y-63859D02*
X102781Y-63859D01*
X102893Y-63859D02*
X102893Y-63465D01*
X102856Y-63521D01*
X102818Y-63559D01*
X102781Y-63578D01*
X103343Y-63596D02*
X103343Y-63859D01*
X103250Y-63446D02*
X103156Y-63728D01*
X103400Y-63728D01*
X103718Y-63465D02*
X103643Y-63465D01*
X103606Y-63484D01*
X103587Y-63503D01*
X103550Y-63559D01*
X103531Y-63634D01*
X103531Y-63784D01*
X103550Y-63821D01*
X103568Y-63840D01*
X103606Y-63859D01*
X103681Y-63859D01*
X103718Y-63840D01*
X103737Y-63821D01*
X103756Y-63784D01*
X103756Y-63690D01*
X103737Y-63653D01*
X103718Y-63634D01*
X103681Y-63615D01*
X103606Y-63615D01*
X103568Y-63634D01*
X103550Y-63653D01*
X103531Y-63690D01*
X104131Y-63859D02*
X103906Y-63859D01*
X104018Y-63859D02*
X104018Y-63465D01*
X103981Y-63521D01*
X103943Y-63559D01*
X103906Y-63578D01*
X104375Y-63465D02*
X104412Y-63465D01*
X104450Y-63484D01*
X104468Y-63503D01*
X104487Y-63540D01*
X104506Y-63615D01*
X104506Y-63709D01*
X104487Y-63784D01*
X104468Y-63821D01*
X104450Y-63840D01*
X104412Y-63859D01*
X104375Y-63859D01*
X104337Y-63840D01*
X104318Y-63821D01*
X104300Y-63784D01*
X104281Y-63709D01*
X104281Y-63615D01*
X104300Y-63540D01*
X104318Y-63503D01*
X104337Y-63484D01*
X104375Y-63465D01*
X104843Y-63465D02*
X104768Y-63465D01*
X104731Y-63484D01*
X104712Y-63503D01*
X104674Y-63559D01*
X104656Y-63634D01*
X104656Y-63784D01*
X104674Y-63821D01*
X104693Y-63840D01*
X104731Y-63859D01*
X104806Y-63859D01*
X104843Y-63840D01*
X104862Y-63821D01*
X104881Y-63784D01*
X104881Y-63690D01*
X104862Y-63653D01*
X104843Y-63634D01*
X104806Y-63615D01*
X104731Y-63615D01*
X104693Y-63634D01*
X104674Y-63653D01*
X104656Y-63690D01*
X105068Y-63859D02*
X105143Y-63859D01*
X105181Y-63840D01*
X105199Y-63821D01*
X105237Y-63765D01*
X105256Y-63690D01*
X105256Y-63540D01*
X105237Y-63503D01*
X105218Y-63484D01*
X105181Y-63465D01*
X105106Y-63465D01*
X105068Y-63484D01*
X105049Y-63503D01*
X105031Y-63540D01*
X105031Y-63634D01*
X105049Y-63671D01*
X105068Y-63690D01*
X105106Y-63709D01*
X105181Y-63709D01*
X105218Y-63690D01*
X105237Y-63671D01*
X105256Y-63634D01*
X105424Y-63709D02*
X105724Y-63709D01*
X106099Y-63465D02*
X105912Y-63465D01*
X105893Y-63653D01*
X105912Y-63634D01*
X105949Y-63615D01*
X106043Y-63615D01*
X106081Y-63634D01*
X106099Y-63653D01*
X106118Y-63690D01*
X106118Y-63784D01*
X106099Y-63821D01*
X106081Y-63840D01*
X106043Y-63859D01*
X105949Y-63859D01*
X105912Y-63840D01*
X105893Y-63821D01*
G54D15*
X95495Y-43142D02*
X95495Y-43628D01*
X95514Y-43685D01*
X95533Y-43714D01*
X95571Y-43742D01*
X95647Y-43742D01*
X95685Y-43714D01*
X95704Y-43685D01*
X95723Y-43628D01*
X95723Y-43142D01*
X95876Y-43142D02*
X96142Y-43142D01*
X95971Y-43742D01*
X93542Y-42676D02*
X93542Y-42866D01*
X92942Y-42866D01*
X93542Y-42542D02*
X92942Y-42542D01*
X93371Y-42409D01*
X92942Y-42276D01*
X93542Y-42276D01*
X92942Y-42123D02*
X92942Y-41876D01*
X93171Y-42009D01*
X93171Y-41952D01*
X93200Y-41914D01*
X93228Y-41895D01*
X93285Y-41876D01*
X93428Y-41876D01*
X93485Y-41895D01*
X93514Y-41914D01*
X93542Y-41952D01*
X93542Y-42066D01*
X93514Y-42104D01*
X93485Y-42123D01*
X93542Y-41495D02*
X93542Y-41723D01*
X93542Y-41609D02*
X92942Y-41609D01*
X93028Y-41647D01*
X93085Y-41685D01*
X93114Y-41723D01*
X92942Y-41361D02*
X92942Y-41095D01*
X93542Y-41266D01*
X101695Y-42192D02*
X101695Y-42678D01*
X101714Y-42735D01*
X101733Y-42764D01*
X101771Y-42792D01*
X101847Y-42792D01*
X101885Y-42764D01*
X101904Y-42735D01*
X101923Y-42678D01*
X101923Y-42192D01*
X102171Y-42450D02*
X102133Y-42421D01*
X102114Y-42392D01*
X102095Y-42335D01*
X102095Y-42307D01*
X102114Y-42250D01*
X102133Y-42221D01*
X102171Y-42192D01*
X102247Y-42192D01*
X102285Y-42221D01*
X102304Y-42250D01*
X102323Y-42307D01*
X102323Y-42335D01*
X102304Y-42392D01*
X102285Y-42421D01*
X102247Y-42450D01*
X102171Y-42450D01*
X102133Y-42478D01*
X102114Y-42507D01*
X102095Y-42564D01*
X102095Y-42678D01*
X102114Y-42735D01*
X102133Y-42764D01*
X102171Y-42792D01*
X102247Y-42792D01*
X102285Y-42764D01*
X102304Y-42735D01*
X102323Y-42678D01*
X102323Y-42564D01*
X102304Y-42507D01*
X102285Y-42478D01*
X102247Y-42450D01*
X104742Y-44726D02*
X104742Y-44916D01*
X104142Y-44916D01*
X104742Y-44592D02*
X104142Y-44592D01*
X104571Y-44459D01*
X104142Y-44326D01*
X104742Y-44326D01*
X104142Y-44173D02*
X104142Y-43926D01*
X104371Y-44059D01*
X104371Y-44002D01*
X104400Y-43964D01*
X104428Y-43945D01*
X104485Y-43926D01*
X104628Y-43926D01*
X104685Y-43945D01*
X104714Y-43964D01*
X104742Y-44002D01*
X104742Y-44116D01*
X104714Y-44154D01*
X104685Y-44173D01*
X104742Y-43545D02*
X104742Y-43773D01*
X104742Y-43659D02*
X104142Y-43659D01*
X104228Y-43697D01*
X104285Y-43735D01*
X104314Y-43773D01*
X104142Y-43411D02*
X104142Y-43145D01*
X104742Y-43316D01*
X106495Y-42192D02*
X106495Y-42678D01*
X106514Y-42735D01*
X106533Y-42764D01*
X106571Y-42792D01*
X106647Y-42792D01*
X106685Y-42764D01*
X106704Y-42735D01*
X106723Y-42678D01*
X106723Y-42192D01*
X106933Y-42792D02*
X107009Y-42792D01*
X107047Y-42764D01*
X107066Y-42735D01*
X107104Y-42650D01*
X107123Y-42535D01*
X107123Y-42307D01*
X107104Y-42250D01*
X107085Y-42221D01*
X107047Y-42192D01*
X106971Y-42192D01*
X106933Y-42221D01*
X106914Y-42250D01*
X106895Y-42307D01*
X106895Y-42450D01*
X106914Y-42507D01*
X106933Y-42535D01*
X106971Y-42564D01*
X107047Y-42564D01*
X107085Y-42535D01*
X107104Y-42507D01*
X107123Y-42450D01*
X109542Y-44878D02*
X109542Y-45069D01*
X108942Y-45069D01*
X109542Y-44745D02*
X108942Y-44745D01*
X109371Y-44611D01*
X108942Y-44478D01*
X109542Y-44478D01*
X108942Y-44326D02*
X108942Y-44078D01*
X109171Y-44211D01*
X109171Y-44154D01*
X109200Y-44116D01*
X109228Y-44097D01*
X109285Y-44078D01*
X109428Y-44078D01*
X109485Y-44097D01*
X109514Y-44116D01*
X109542Y-44154D01*
X109542Y-44269D01*
X109514Y-44307D01*
X109485Y-44326D01*
X108942Y-43945D02*
X108942Y-43697D01*
X109171Y-43830D01*
X109171Y-43773D01*
X109200Y-43735D01*
X109228Y-43716D01*
X109285Y-43697D01*
X109428Y-43697D01*
X109485Y-43716D01*
X109514Y-43735D01*
X109542Y-43773D01*
X109542Y-43888D01*
X109514Y-43926D01*
X109485Y-43945D01*
X108942Y-43564D02*
X108942Y-43297D01*
X109542Y-43469D01*
X108942Y-43202D02*
X108942Y-42973D01*
X109542Y-43088D02*
X108942Y-43088D01*
X89245Y-43142D02*
X89245Y-43628D01*
X89264Y-43685D01*
X89283Y-43714D01*
X89321Y-43742D01*
X89397Y-43742D01*
X89435Y-43714D01*
X89454Y-43685D01*
X89473Y-43628D01*
X89473Y-43142D01*
X89835Y-43142D02*
X89759Y-43142D01*
X89721Y-43171D01*
X89702Y-43200D01*
X89664Y-43285D01*
X89645Y-43400D01*
X89645Y-43628D01*
X89664Y-43685D01*
X89683Y-43714D01*
X89721Y-43742D01*
X89797Y-43742D01*
X89835Y-43714D01*
X89854Y-43685D01*
X89873Y-43628D01*
X89873Y-43485D01*
X89854Y-43428D01*
X89835Y-43400D01*
X89797Y-43371D01*
X89721Y-43371D01*
X89683Y-43400D01*
X89664Y-43428D01*
X89645Y-43485D01*
X87292Y-42828D02*
X87292Y-43019D01*
X86692Y-43019D01*
X87292Y-42695D02*
X86692Y-42695D01*
X87121Y-42561D01*
X86692Y-42428D01*
X87292Y-42428D01*
X86692Y-42276D02*
X86692Y-42028D01*
X86921Y-42161D01*
X86921Y-42104D01*
X86950Y-42066D01*
X86978Y-42047D01*
X87035Y-42028D01*
X87178Y-42028D01*
X87235Y-42047D01*
X87264Y-42066D01*
X87292Y-42104D01*
X87292Y-42219D01*
X87264Y-42257D01*
X87235Y-42276D01*
X86692Y-41895D02*
X86692Y-41647D01*
X86921Y-41780D01*
X86921Y-41723D01*
X86950Y-41685D01*
X86978Y-41666D01*
X87035Y-41647D01*
X87178Y-41647D01*
X87235Y-41666D01*
X87264Y-41685D01*
X87292Y-41723D01*
X87292Y-41838D01*
X87264Y-41876D01*
X87235Y-41895D01*
X86692Y-41514D02*
X86692Y-41247D01*
X87292Y-41419D01*
X86692Y-41152D02*
X86692Y-40923D01*
X87292Y-41038D02*
X86692Y-41038D01*
G54D16*
X101861Y-47892D02*
X102185Y-47892D01*
X102223Y-47871D01*
X102242Y-47850D01*
X102261Y-47807D01*
X102261Y-47721D01*
X102242Y-47678D01*
X102223Y-47657D01*
X102185Y-47635D01*
X101861Y-47635D01*
X101995Y-47228D02*
X102261Y-47228D01*
X101842Y-47335D02*
X102128Y-47442D01*
X102128Y-47164D01*
X100861Y-48721D02*
X100861Y-48645D01*
X100880Y-48607D01*
X100919Y-48569D01*
X100995Y-48550D01*
X101128Y-48550D01*
X101204Y-48569D01*
X101242Y-48607D01*
X101261Y-48645D01*
X101261Y-48721D01*
X101242Y-48759D01*
X101204Y-48797D01*
X101128Y-48816D01*
X100995Y-48816D01*
X100919Y-48797D01*
X100880Y-48759D01*
X100861Y-48721D01*
X101261Y-48378D02*
X100861Y-48378D01*
X100861Y-48226D01*
X100880Y-48188D01*
X100900Y-48169D01*
X100938Y-48150D01*
X100995Y-48150D01*
X101033Y-48169D01*
X101052Y-48188D01*
X101071Y-48226D01*
X101071Y-48378D01*
X101147Y-47997D02*
X101147Y-47807D01*
X101261Y-48035D02*
X100861Y-47902D01*
X101261Y-47769D01*
X100995Y-47464D02*
X101261Y-47464D01*
X100842Y-47559D02*
X101128Y-47654D01*
X101128Y-47407D01*
X101261Y-47045D02*
X101261Y-47273D01*
X101261Y-47159D02*
X100861Y-47159D01*
X100919Y-47197D01*
X100957Y-47235D01*
X100976Y-47273D01*
X100861Y-46911D02*
X100861Y-46645D01*
X101261Y-46816D01*
X100861Y-46416D02*
X100861Y-46378D01*
X100880Y-46340D01*
X100900Y-46321D01*
X100938Y-46302D01*
X101014Y-46283D01*
X101109Y-46283D01*
X101185Y-46302D01*
X101223Y-46321D01*
X101242Y-46340D01*
X101261Y-46378D01*
X101261Y-46416D01*
X101242Y-46454D01*
X101223Y-46473D01*
X101185Y-46492D01*
X101109Y-46511D01*
X101014Y-46511D01*
X100938Y-46492D01*
X100900Y-46473D01*
X100880Y-46454D01*
X100861Y-46416D01*
G54D11*
X88332Y-41265D02*
X88463Y-41659D01*
X88595Y-41265D01*
X88782Y-41434D02*
X88745Y-41415D01*
X88726Y-41396D01*
X88707Y-41359D01*
X88707Y-41340D01*
X88726Y-41303D01*
X88745Y-41284D01*
X88782Y-41265D01*
X88857Y-41265D01*
X88895Y-41284D01*
X88913Y-41303D01*
X88932Y-41340D01*
X88932Y-41359D01*
X88913Y-41396D01*
X88895Y-41415D01*
X88857Y-41434D01*
X88782Y-41434D01*
X88745Y-41453D01*
X88726Y-41471D01*
X88707Y-41509D01*
X88707Y-41584D01*
X88726Y-41621D01*
X88745Y-41640D01*
X88782Y-41659D01*
X88857Y-41659D01*
X88895Y-41640D01*
X88913Y-41621D01*
X88932Y-41584D01*
X88932Y-41509D01*
X88913Y-41471D01*
X88895Y-41453D01*
X88857Y-41434D01*
X89288Y-41265D02*
X89101Y-41265D01*
X89082Y-41453D01*
X89101Y-41434D01*
X89138Y-41415D01*
X89232Y-41415D01*
X89270Y-41434D01*
X89288Y-41453D01*
X89307Y-41490D01*
X89307Y-41584D01*
X89288Y-41621D01*
X89270Y-41640D01*
X89232Y-41659D01*
X89138Y-41659D01*
X89101Y-41640D01*
X89082Y-41621D01*
X89551Y-41265D02*
X89588Y-41265D01*
X89626Y-41284D01*
X89644Y-41303D01*
X89663Y-41340D01*
X89682Y-41415D01*
X89682Y-41509D01*
X89663Y-41584D01*
X89644Y-41621D01*
X89626Y-41640D01*
X89588Y-41659D01*
X89551Y-41659D01*
X89513Y-41640D01*
X89494Y-41621D01*
X89476Y-41584D01*
X89457Y-41509D01*
X89457Y-41415D01*
X89476Y-41340D01*
X89494Y-41303D01*
X89513Y-41284D01*
X89551Y-41265D01*
X89907Y-41434D02*
X89869Y-41415D01*
X89851Y-41396D01*
X89832Y-41359D01*
X89832Y-41340D01*
X89851Y-41303D01*
X89869Y-41284D01*
X89907Y-41265D01*
X89982Y-41265D01*
X90019Y-41284D01*
X90038Y-41303D01*
X90057Y-41340D01*
X90057Y-41359D01*
X90038Y-41396D01*
X90019Y-41415D01*
X89982Y-41434D01*
X89907Y-41434D01*
X89869Y-41453D01*
X89851Y-41471D01*
X89832Y-41509D01*
X89832Y-41584D01*
X89851Y-41621D01*
X89869Y-41640D01*
X89907Y-41659D01*
X89982Y-41659D01*
X90019Y-41640D01*
X90038Y-41621D01*
X90057Y-41584D01*
X90057Y-41509D01*
X90038Y-41471D01*
X90019Y-41453D01*
X89982Y-41434D01*
X90226Y-41659D02*
X90226Y-41265D01*
X90226Y-41453D02*
X90451Y-41453D01*
X90451Y-41659D02*
X90451Y-41265D01*
X88440Y-40585D02*
X88571Y-40979D01*
X88703Y-40585D01*
X88815Y-40866D02*
X89003Y-40866D01*
X88778Y-40979D02*
X88909Y-40585D01*
X89040Y-40979D01*
X89359Y-40979D02*
X89171Y-40979D01*
X89171Y-40585D01*
X89546Y-40585D02*
X89546Y-40679D01*
X89453Y-40641D02*
X89546Y-40679D01*
X89640Y-40641D01*
X89490Y-40754D02*
X89546Y-40679D01*
X89603Y-40754D01*
X89846Y-40585D02*
X89846Y-40679D01*
X89753Y-40641D02*
X89846Y-40679D01*
X89940Y-40641D01*
X89790Y-40754D02*
X89846Y-40679D01*
X89903Y-40754D01*
X94582Y-41315D02*
X94713Y-41709D01*
X94845Y-41315D01*
X95032Y-41484D02*
X94995Y-41465D01*
X94976Y-41446D01*
X94957Y-41409D01*
X94957Y-41390D01*
X94976Y-41353D01*
X94995Y-41334D01*
X95032Y-41315D01*
X95107Y-41315D01*
X95145Y-41334D01*
X95163Y-41353D01*
X95182Y-41390D01*
X95182Y-41409D01*
X95163Y-41446D01*
X95145Y-41465D01*
X95107Y-41484D01*
X95032Y-41484D01*
X94995Y-41503D01*
X94976Y-41521D01*
X94957Y-41559D01*
X94957Y-41634D01*
X94976Y-41671D01*
X94995Y-41690D01*
X95032Y-41709D01*
X95107Y-41709D01*
X95145Y-41690D01*
X95163Y-41671D01*
X95182Y-41634D01*
X95182Y-41559D01*
X95163Y-41521D01*
X95145Y-41503D01*
X95107Y-41484D01*
X95538Y-41315D02*
X95351Y-41315D01*
X95332Y-41503D01*
X95351Y-41484D01*
X95388Y-41465D01*
X95482Y-41465D01*
X95520Y-41484D01*
X95538Y-41503D01*
X95557Y-41540D01*
X95557Y-41634D01*
X95538Y-41671D01*
X95520Y-41690D01*
X95482Y-41709D01*
X95388Y-41709D01*
X95351Y-41690D01*
X95332Y-41671D01*
X95801Y-41315D02*
X95838Y-41315D01*
X95876Y-41334D01*
X95894Y-41353D01*
X95913Y-41390D01*
X95932Y-41465D01*
X95932Y-41559D01*
X95913Y-41634D01*
X95894Y-41671D01*
X95876Y-41690D01*
X95838Y-41709D01*
X95801Y-41709D01*
X95763Y-41690D01*
X95744Y-41671D01*
X95726Y-41634D01*
X95707Y-41559D01*
X95707Y-41465D01*
X95726Y-41390D01*
X95744Y-41353D01*
X95763Y-41334D01*
X95801Y-41315D01*
X96157Y-41484D02*
X96119Y-41465D01*
X96101Y-41446D01*
X96082Y-41409D01*
X96082Y-41390D01*
X96101Y-41353D01*
X96119Y-41334D01*
X96157Y-41315D01*
X96232Y-41315D01*
X96269Y-41334D01*
X96288Y-41353D01*
X96307Y-41390D01*
X96307Y-41409D01*
X96288Y-41446D01*
X96269Y-41465D01*
X96232Y-41484D01*
X96157Y-41484D01*
X96119Y-41503D01*
X96101Y-41521D01*
X96082Y-41559D01*
X96082Y-41634D01*
X96101Y-41671D01*
X96119Y-41690D01*
X96157Y-41709D01*
X96232Y-41709D01*
X96269Y-41690D01*
X96288Y-41671D01*
X96307Y-41634D01*
X96307Y-41559D01*
X96288Y-41521D01*
X96269Y-41503D01*
X96232Y-41484D01*
X96476Y-41709D02*
X96476Y-41315D01*
X96476Y-41503D02*
X96701Y-41503D01*
X96701Y-41709D02*
X96701Y-41315D01*
X94690Y-40635D02*
X94821Y-41029D01*
X94953Y-40635D01*
X95065Y-40916D02*
X95253Y-40916D01*
X95028Y-41029D02*
X95159Y-40635D01*
X95290Y-41029D01*
X95609Y-41029D02*
X95421Y-41029D01*
X95421Y-40635D01*
X95796Y-40635D02*
X95796Y-40729D01*
X95703Y-40691D02*
X95796Y-40729D01*
X95890Y-40691D01*
X95740Y-40804D02*
X95796Y-40729D01*
X95853Y-40804D01*
X96096Y-40635D02*
X96096Y-40729D01*
X96003Y-40691D02*
X96096Y-40729D01*
X96190Y-40691D01*
X96040Y-40804D02*
X96096Y-40729D01*
X96153Y-40804D01*
G54D21*
X62795Y-51261D02*
X63023Y-51261D01*
X62909Y-51661D02*
X62909Y-51261D01*
X63157Y-51661D02*
X63157Y-51261D01*
X63309Y-51261D01*
X63347Y-51280D01*
X63366Y-51300D01*
X63385Y-51338D01*
X63385Y-51395D01*
X63366Y-51433D01*
X63347Y-51452D01*
X63309Y-51471D01*
X63157Y-51471D01*
X63766Y-51661D02*
X63538Y-51661D01*
X63652Y-51661D02*
X63652Y-51261D01*
X63614Y-51319D01*
X63576Y-51357D01*
X63538Y-51376D01*
G54D16*
X91021Y-47921D02*
X91021Y-48164D01*
X91035Y-48192D01*
X91050Y-48207D01*
X91078Y-48221D01*
X91135Y-48221D01*
X91164Y-48207D01*
X91178Y-48192D01*
X91192Y-48164D01*
X91192Y-47921D01*
X91321Y-47950D02*
X91335Y-47935D01*
X91364Y-47921D01*
X91435Y-47921D01*
X91464Y-47935D01*
X91478Y-47950D01*
X91492Y-47978D01*
X91492Y-48007D01*
X91478Y-48050D01*
X91307Y-48221D01*
X91492Y-48221D01*
X90278Y-47721D02*
X90278Y-47421D01*
X90378Y-47635D01*
X90478Y-47421D01*
X90478Y-47721D01*
X90792Y-47692D02*
X90778Y-47707D01*
X90735Y-47721D01*
X90707Y-47721D01*
X90664Y-47707D01*
X90635Y-47678D01*
X90621Y-47650D01*
X90607Y-47592D01*
X90607Y-47550D01*
X90621Y-47492D01*
X90635Y-47464D01*
X90664Y-47435D01*
X90707Y-47421D01*
X90735Y-47421D01*
X90778Y-47435D01*
X90792Y-47450D01*
X90921Y-47721D02*
X90921Y-47421D01*
X91035Y-47421D01*
X91064Y-47435D01*
X91078Y-47450D01*
X91092Y-47478D01*
X91092Y-47521D01*
X91078Y-47550D01*
X91064Y-47564D01*
X91035Y-47578D01*
X90921Y-47578D01*
X91192Y-47421D02*
X91378Y-47421D01*
X91278Y-47535D01*
X91321Y-47535D01*
X91350Y-47550D01*
X91364Y-47564D01*
X91378Y-47592D01*
X91378Y-47664D01*
X91364Y-47692D01*
X91350Y-47707D01*
X91321Y-47721D01*
X91235Y-47721D01*
X91207Y-47707D01*
X91192Y-47692D01*
X91521Y-47721D02*
X91578Y-47721D01*
X91607Y-47707D01*
X91621Y-47692D01*
X91650Y-47650D01*
X91664Y-47592D01*
X91664Y-47478D01*
X91650Y-47450D01*
X91635Y-47435D01*
X91607Y-47421D01*
X91550Y-47421D01*
X91521Y-47435D01*
X91507Y-47450D01*
X91492Y-47478D01*
X91492Y-47550D01*
X91507Y-47578D01*
X91521Y-47592D01*
X91550Y-47607D01*
X91607Y-47607D01*
X91635Y-47592D01*
X91650Y-47578D01*
X91664Y-47550D01*
X91850Y-47421D02*
X91878Y-47421D01*
X91907Y-47435D01*
X91921Y-47450D01*
X91935Y-47478D01*
X91950Y-47535D01*
X91950Y-47607D01*
X91935Y-47664D01*
X91921Y-47692D01*
X91907Y-47707D01*
X91878Y-47721D01*
X91850Y-47721D01*
X91821Y-47707D01*
X91807Y-47692D01*
X91792Y-47664D01*
X91778Y-47607D01*
X91778Y-47535D01*
X91792Y-47478D01*
X91807Y-47450D01*
X91821Y-47435D01*
X91850Y-47421D01*
X92235Y-47721D02*
X92064Y-47721D01*
X92150Y-47721D02*
X92150Y-47421D01*
X92121Y-47464D01*
X92092Y-47492D01*
X92064Y-47507D01*
G54D19*
X88454Y-46195D02*
X88257Y-46195D01*
X88257Y-46120D01*
X88267Y-46101D01*
X88276Y-46092D01*
X88295Y-46082D01*
X88323Y-46082D01*
X88342Y-46092D01*
X88351Y-46101D01*
X88360Y-46120D01*
X88360Y-46195D01*
X88257Y-46017D02*
X88257Y-45895D01*
X88332Y-45960D01*
X88332Y-45932D01*
X88342Y-45913D01*
X88351Y-45904D01*
X88370Y-45895D01*
X88417Y-45895D01*
X88435Y-45904D01*
X88445Y-45913D01*
X88454Y-45932D01*
X88454Y-45989D01*
X88445Y-46007D01*
X88435Y-46017D01*
X88160Y-46467D02*
X88170Y-46476D01*
X88179Y-46504D01*
X88179Y-46523D01*
X88170Y-46551D01*
X88151Y-46570D01*
X88132Y-46580D01*
X88095Y-46589D01*
X88067Y-46589D01*
X88029Y-46580D01*
X88010Y-46570D01*
X87992Y-46551D01*
X87982Y-46523D01*
X87982Y-46504D01*
X87992Y-46476D01*
X88001Y-46467D01*
X87982Y-46345D02*
X87982Y-46307D01*
X87992Y-46289D01*
X88010Y-46270D01*
X88048Y-46261D01*
X88114Y-46261D01*
X88151Y-46270D01*
X88170Y-46289D01*
X88179Y-46307D01*
X88179Y-46345D01*
X88170Y-46364D01*
X88151Y-46383D01*
X88114Y-46392D01*
X88048Y-46392D01*
X88010Y-46383D01*
X87992Y-46364D01*
X87982Y-46345D01*
X88179Y-46176D02*
X87982Y-46176D01*
X88179Y-46064D01*
X87982Y-46064D01*
X88179Y-45970D02*
X87982Y-45970D01*
X88179Y-45857D01*
X87982Y-45857D01*
X88198Y-45810D02*
X88198Y-45660D01*
X88001Y-45623D02*
X87992Y-45613D01*
X87982Y-45595D01*
X87982Y-45548D01*
X87992Y-45529D01*
X88001Y-45519D01*
X88020Y-45510D01*
X88039Y-45510D01*
X88067Y-45519D01*
X88179Y-45632D01*
X88179Y-45510D01*
X82219Y-45326D02*
X82125Y-45392D01*
X82219Y-45439D02*
X82022Y-45439D01*
X82022Y-45364D01*
X82032Y-45345D01*
X82041Y-45336D01*
X82060Y-45326D01*
X82088Y-45326D01*
X82107Y-45336D01*
X82116Y-45345D01*
X82125Y-45364D01*
X82125Y-45439D01*
X82022Y-45148D02*
X82022Y-45242D01*
X82116Y-45251D01*
X82107Y-45242D01*
X82097Y-45223D01*
X82097Y-45176D01*
X82107Y-45157D01*
X82116Y-45148D01*
X82135Y-45139D01*
X82182Y-45139D01*
X82200Y-45148D01*
X82210Y-45157D01*
X82219Y-45176D01*
X82219Y-45223D01*
X82210Y-45242D01*
X82200Y-45251D01*
X82219Y-44951D02*
X82219Y-45063D01*
X82219Y-45007D02*
X82022Y-45007D01*
X82050Y-45026D01*
X82069Y-45045D01*
X82079Y-45063D01*
X81219Y-45126D02*
X81125Y-45192D01*
X81219Y-45239D02*
X81022Y-45239D01*
X81022Y-45164D01*
X81032Y-45145D01*
X81041Y-45136D01*
X81060Y-45126D01*
X81088Y-45126D01*
X81107Y-45136D01*
X81116Y-45145D01*
X81125Y-45164D01*
X81125Y-45239D01*
X81022Y-44948D02*
X81022Y-45042D01*
X81116Y-45051D01*
X81107Y-45042D01*
X81097Y-45023D01*
X81097Y-44976D01*
X81107Y-44957D01*
X81116Y-44948D01*
X81135Y-44939D01*
X81182Y-44939D01*
X81200Y-44948D01*
X81210Y-44957D01*
X81219Y-44976D01*
X81219Y-45023D01*
X81210Y-45042D01*
X81200Y-45051D01*
X81022Y-44817D02*
X81022Y-44798D01*
X81032Y-44779D01*
X81041Y-44770D01*
X81060Y-44760D01*
X81097Y-44751D01*
X81144Y-44751D01*
X81182Y-44760D01*
X81200Y-44770D01*
X81210Y-44779D01*
X81219Y-44798D01*
X81219Y-44817D01*
X81210Y-44835D01*
X81200Y-44845D01*
X81182Y-44854D01*
X81144Y-44863D01*
X81097Y-44863D01*
X81060Y-44854D01*
X81041Y-44845D01*
X81032Y-44835D01*
X81022Y-44817D01*
X80219Y-45301D02*
X80125Y-45367D01*
X80219Y-45414D02*
X80022Y-45414D01*
X80022Y-45339D01*
X80032Y-45320D01*
X80041Y-45311D01*
X80060Y-45301D01*
X80088Y-45301D01*
X80107Y-45311D01*
X80116Y-45320D01*
X80125Y-45339D01*
X80125Y-45414D01*
X80088Y-45132D02*
X80219Y-45132D01*
X80013Y-45179D02*
X80154Y-45226D01*
X80154Y-45104D01*
X80022Y-45048D02*
X80022Y-44917D01*
X80219Y-45001D01*
X76219Y-57726D02*
X76125Y-57792D01*
X76219Y-57839D02*
X76022Y-57839D01*
X76022Y-57764D01*
X76032Y-57745D01*
X76041Y-57736D01*
X76060Y-57726D01*
X76088Y-57726D01*
X76107Y-57736D01*
X76116Y-57745D01*
X76125Y-57764D01*
X76125Y-57839D01*
X76219Y-57539D02*
X76219Y-57651D01*
X76219Y-57595D02*
X76022Y-57595D01*
X76050Y-57614D01*
X76069Y-57632D01*
X76079Y-57651D01*
X76107Y-57426D02*
X76097Y-57445D01*
X76088Y-57454D01*
X76069Y-57463D01*
X76060Y-57463D01*
X76041Y-57454D01*
X76032Y-57445D01*
X76022Y-57426D01*
X76022Y-57388D01*
X76032Y-57370D01*
X76041Y-57360D01*
X76060Y-57351D01*
X76069Y-57351D01*
X76088Y-57360D01*
X76097Y-57370D01*
X76107Y-57388D01*
X76107Y-57426D01*
X76116Y-57445D01*
X76125Y-57454D01*
X76144Y-57463D01*
X76182Y-57463D01*
X76200Y-57454D01*
X76210Y-57445D01*
X76219Y-57426D01*
X76219Y-57388D01*
X76210Y-57370D01*
X76200Y-57360D01*
X76182Y-57351D01*
X76144Y-57351D01*
X76125Y-57360D01*
X76116Y-57370D01*
X76107Y-57388D01*
X75219Y-57751D02*
X75125Y-57817D01*
X75219Y-57864D02*
X75022Y-57864D01*
X75022Y-57789D01*
X75032Y-57770D01*
X75041Y-57761D01*
X75060Y-57751D01*
X75088Y-57751D01*
X75107Y-57761D01*
X75116Y-57770D01*
X75125Y-57789D01*
X75125Y-57864D01*
X75219Y-57564D02*
X75219Y-57676D01*
X75219Y-57620D02*
X75022Y-57620D01*
X75050Y-57639D01*
X75069Y-57657D01*
X75079Y-57676D01*
X75022Y-57498D02*
X75022Y-57367D01*
X75219Y-57451D01*
X77219Y-60776D02*
X77125Y-60842D01*
X77219Y-60889D02*
X77022Y-60889D01*
X77022Y-60814D01*
X77032Y-60795D01*
X77041Y-60786D01*
X77060Y-60776D01*
X77088Y-60776D01*
X77107Y-60786D01*
X77116Y-60795D01*
X77125Y-60814D01*
X77125Y-60889D01*
X77219Y-60589D02*
X77219Y-60701D01*
X77219Y-60645D02*
X77022Y-60645D01*
X77050Y-60664D01*
X77069Y-60682D01*
X77079Y-60701D01*
X77219Y-60495D02*
X77219Y-60457D01*
X77210Y-60438D01*
X77200Y-60429D01*
X77172Y-60410D01*
X77135Y-60401D01*
X77060Y-60401D01*
X77041Y-60410D01*
X77032Y-60420D01*
X77022Y-60438D01*
X77022Y-60476D01*
X77032Y-60495D01*
X77041Y-60504D01*
X77060Y-60513D01*
X77107Y-60513D01*
X77125Y-60504D01*
X77135Y-60495D01*
X77144Y-60476D01*
X77144Y-60438D01*
X77135Y-60420D01*
X77125Y-60410D01*
X77107Y-60401D01*
X84219Y-45326D02*
X84125Y-45392D01*
X84219Y-45439D02*
X84022Y-45439D01*
X84022Y-45364D01*
X84032Y-45345D01*
X84041Y-45336D01*
X84060Y-45326D01*
X84088Y-45326D01*
X84107Y-45336D01*
X84116Y-45345D01*
X84125Y-45364D01*
X84125Y-45439D01*
X84022Y-45260D02*
X84022Y-45139D01*
X84097Y-45204D01*
X84097Y-45176D01*
X84107Y-45157D01*
X84116Y-45148D01*
X84135Y-45139D01*
X84182Y-45139D01*
X84200Y-45148D01*
X84210Y-45157D01*
X84219Y-45176D01*
X84219Y-45232D01*
X84210Y-45251D01*
X84200Y-45260D01*
X84041Y-45063D02*
X84032Y-45054D01*
X84022Y-45035D01*
X84022Y-44988D01*
X84032Y-44970D01*
X84041Y-44960D01*
X84060Y-44951D01*
X84079Y-44951D01*
X84107Y-44960D01*
X84219Y-45073D01*
X84219Y-44951D01*
X70619Y-45426D02*
X70525Y-45492D01*
X70619Y-45539D02*
X70422Y-45539D01*
X70422Y-45464D01*
X70432Y-45445D01*
X70441Y-45436D01*
X70460Y-45426D01*
X70488Y-45426D01*
X70507Y-45436D01*
X70516Y-45445D01*
X70525Y-45464D01*
X70525Y-45539D01*
X70441Y-45351D02*
X70432Y-45342D01*
X70422Y-45323D01*
X70422Y-45276D01*
X70432Y-45257D01*
X70441Y-45248D01*
X70460Y-45239D01*
X70479Y-45239D01*
X70507Y-45248D01*
X70619Y-45360D01*
X70619Y-45239D01*
X70488Y-45070D02*
X70619Y-45070D01*
X70413Y-45117D02*
X70554Y-45163D01*
X70554Y-45042D01*
X73619Y-46001D02*
X73525Y-46067D01*
X73619Y-46114D02*
X73422Y-46114D01*
X73422Y-46039D01*
X73432Y-46020D01*
X73441Y-46011D01*
X73460Y-46001D01*
X73488Y-46001D01*
X73507Y-46011D01*
X73516Y-46020D01*
X73525Y-46039D01*
X73525Y-46114D01*
X73441Y-45926D02*
X73432Y-45917D01*
X73422Y-45898D01*
X73422Y-45851D01*
X73432Y-45832D01*
X73441Y-45823D01*
X73460Y-45814D01*
X73479Y-45814D01*
X73507Y-45823D01*
X73619Y-45935D01*
X73619Y-45814D01*
X73422Y-45748D02*
X73422Y-45617D01*
X73619Y-45701D01*
X82339Y-60926D02*
X82245Y-60992D01*
X82339Y-61039D02*
X82142Y-61039D01*
X82142Y-60964D01*
X82152Y-60945D01*
X82161Y-60936D01*
X82180Y-60926D01*
X82208Y-60926D01*
X82227Y-60936D01*
X82236Y-60945D01*
X82245Y-60964D01*
X82245Y-61039D01*
X82161Y-60851D02*
X82152Y-60842D01*
X82142Y-60823D01*
X82142Y-60776D01*
X82152Y-60757D01*
X82161Y-60748D01*
X82180Y-60739D01*
X82199Y-60739D01*
X82227Y-60748D01*
X82339Y-60860D01*
X82339Y-60739D01*
X82161Y-60663D02*
X82152Y-60654D01*
X82142Y-60635D01*
X82142Y-60588D01*
X82152Y-60570D01*
X82161Y-60560D01*
X82180Y-60551D01*
X82199Y-60551D01*
X82227Y-60560D01*
X82339Y-60673D01*
X82339Y-60551D01*
X83339Y-60926D02*
X83245Y-60992D01*
X83339Y-61039D02*
X83142Y-61039D01*
X83142Y-60964D01*
X83152Y-60945D01*
X83161Y-60936D01*
X83180Y-60926D01*
X83208Y-60926D01*
X83227Y-60936D01*
X83236Y-60945D01*
X83245Y-60964D01*
X83245Y-61039D01*
X83161Y-60851D02*
X83152Y-60842D01*
X83142Y-60823D01*
X83142Y-60776D01*
X83152Y-60757D01*
X83161Y-60748D01*
X83180Y-60739D01*
X83199Y-60739D01*
X83227Y-60748D01*
X83339Y-60860D01*
X83339Y-60739D01*
X83142Y-60673D02*
X83142Y-60551D01*
X83217Y-60617D01*
X83217Y-60588D01*
X83227Y-60570D01*
X83236Y-60560D01*
X83255Y-60551D01*
X83302Y-60551D01*
X83320Y-60560D01*
X83330Y-60570D01*
X83339Y-60588D01*
X83339Y-60645D01*
X83330Y-60663D01*
X83320Y-60673D01*
X81339Y-60926D02*
X81245Y-60992D01*
X81339Y-61039D02*
X81142Y-61039D01*
X81142Y-60964D01*
X81152Y-60945D01*
X81161Y-60936D01*
X81180Y-60926D01*
X81208Y-60926D01*
X81227Y-60936D01*
X81236Y-60945D01*
X81245Y-60964D01*
X81245Y-61039D01*
X81161Y-60851D02*
X81152Y-60842D01*
X81142Y-60823D01*
X81142Y-60776D01*
X81152Y-60757D01*
X81161Y-60748D01*
X81180Y-60739D01*
X81199Y-60739D01*
X81227Y-60748D01*
X81339Y-60860D01*
X81339Y-60739D01*
X81339Y-60551D02*
X81339Y-60663D01*
X81339Y-60607D02*
X81142Y-60607D01*
X81170Y-60626D01*
X81189Y-60645D01*
X81199Y-60663D01*
X80339Y-60926D02*
X80245Y-60992D01*
X80339Y-61039D02*
X80142Y-61039D01*
X80142Y-60964D01*
X80152Y-60945D01*
X80161Y-60936D01*
X80180Y-60926D01*
X80208Y-60926D01*
X80227Y-60936D01*
X80236Y-60945D01*
X80245Y-60964D01*
X80245Y-61039D01*
X80161Y-60851D02*
X80152Y-60842D01*
X80142Y-60823D01*
X80142Y-60776D01*
X80152Y-60757D01*
X80161Y-60748D01*
X80180Y-60739D01*
X80199Y-60739D01*
X80227Y-60748D01*
X80339Y-60860D01*
X80339Y-60739D01*
X80142Y-60617D02*
X80142Y-60598D01*
X80152Y-60579D01*
X80161Y-60570D01*
X80180Y-60560D01*
X80217Y-60551D01*
X80264Y-60551D01*
X80302Y-60560D01*
X80320Y-60570D01*
X80330Y-60579D01*
X80339Y-60598D01*
X80339Y-60617D01*
X80330Y-60635D01*
X80320Y-60645D01*
X80302Y-60654D01*
X80264Y-60663D01*
X80217Y-60663D01*
X80180Y-60654D01*
X80161Y-60645D01*
X80152Y-60635D01*
X80142Y-60617D01*
X77219Y-45126D02*
X77125Y-45192D01*
X77219Y-45239D02*
X77022Y-45239D01*
X77022Y-45164D01*
X77032Y-45145D01*
X77041Y-45136D01*
X77060Y-45126D01*
X77088Y-45126D01*
X77107Y-45136D01*
X77116Y-45145D01*
X77125Y-45164D01*
X77125Y-45239D01*
X77022Y-45060D02*
X77022Y-44939D01*
X77097Y-45004D01*
X77097Y-44976D01*
X77107Y-44957D01*
X77116Y-44948D01*
X77135Y-44939D01*
X77182Y-44939D01*
X77200Y-44948D01*
X77210Y-44957D01*
X77219Y-44976D01*
X77219Y-45032D01*
X77210Y-45051D01*
X77200Y-45060D01*
X77022Y-44817D02*
X77022Y-44798D01*
X77032Y-44779D01*
X77041Y-44770D01*
X77060Y-44760D01*
X77097Y-44751D01*
X77144Y-44751D01*
X77182Y-44760D01*
X77200Y-44770D01*
X77210Y-44779D01*
X77219Y-44798D01*
X77219Y-44817D01*
X77210Y-44835D01*
X77200Y-44845D01*
X77182Y-44854D01*
X77144Y-44863D01*
X77097Y-44863D01*
X77060Y-44854D01*
X77041Y-44845D01*
X77032Y-44835D01*
X77022Y-44817D01*
M02*
