G04 (created by PCBNEW (2013-07-07 BZR 4022)-stable) date 26/03/2014 18:27:59*
%MOIN*%
G04 Gerber Fmt 3.4, Leading zero omitted, Abs format*
%FSLAX34Y34*%
G01*
G70*
G90*
G04 APERTURE LIST*
%ADD10C,0.006*%
%ADD11C,0.0075*%
%ADD12C,0.015*%
%ADD13C,0.00590551*%
%ADD14C,0.0039*%
%ADD15C,0.008*%
%ADD16C,0.005*%
%ADD17C,0.0065*%
%ADD18C,0.0026*%
%ADD19C,0.004*%
%ADD20C,0.0043*%
%ADD21C,0.003*%
%ADD22C,0.01*%
G04 APERTURE END LIST*
G54D10*
G54D11*
X105839Y-39939D02*
X105739Y-39939D01*
X105739Y-40096D02*
X105739Y-39796D01*
X105882Y-39796D01*
X105996Y-39939D02*
X106096Y-39939D01*
X106139Y-40096D02*
X105996Y-40096D01*
X105996Y-39796D01*
X106139Y-39796D01*
X106267Y-39982D02*
X106496Y-39982D01*
X106967Y-39939D02*
X107010Y-39953D01*
X107025Y-39967D01*
X107039Y-39996D01*
X107039Y-40039D01*
X107025Y-40067D01*
X107010Y-40082D01*
X106982Y-40096D01*
X106867Y-40096D01*
X106867Y-39796D01*
X106967Y-39796D01*
X106996Y-39810D01*
X107010Y-39825D01*
X107025Y-39853D01*
X107025Y-39882D01*
X107010Y-39910D01*
X106996Y-39925D01*
X106967Y-39939D01*
X106867Y-39939D01*
X107225Y-39953D02*
X107225Y-40096D01*
X107125Y-39796D02*
X107225Y-39953D01*
X107325Y-39796D01*
X107425Y-40096D02*
X107425Y-39796D01*
X107539Y-39796D01*
X107567Y-39810D01*
X107582Y-39825D01*
X107596Y-39853D01*
X107596Y-39896D01*
X107582Y-39925D01*
X107567Y-39939D01*
X107539Y-39953D01*
X107425Y-39953D01*
X107710Y-40010D02*
X107853Y-40010D01*
X107682Y-40096D02*
X107782Y-39796D01*
X107882Y-40096D01*
X107967Y-40082D02*
X108010Y-40096D01*
X108082Y-40096D01*
X108110Y-40082D01*
X108125Y-40067D01*
X108139Y-40039D01*
X108139Y-40010D01*
X108125Y-39982D01*
X108110Y-39967D01*
X108082Y-39953D01*
X108025Y-39939D01*
X107996Y-39925D01*
X107982Y-39910D01*
X107967Y-39882D01*
X107967Y-39853D01*
X107982Y-39825D01*
X107996Y-39810D01*
X108025Y-39796D01*
X108096Y-39796D01*
X108139Y-39810D01*
X108253Y-40082D02*
X108296Y-40096D01*
X108367Y-40096D01*
X108396Y-40082D01*
X108410Y-40067D01*
X108425Y-40039D01*
X108425Y-40010D01*
X108410Y-39982D01*
X108396Y-39967D01*
X108367Y-39953D01*
X108310Y-39939D01*
X108282Y-39925D01*
X108267Y-39910D01*
X108253Y-39882D01*
X108253Y-39853D01*
X108267Y-39825D01*
X108282Y-39810D01*
X108310Y-39796D01*
X108382Y-39796D01*
X108425Y-39810D01*
X99289Y-39889D02*
X99189Y-39889D01*
X99189Y-40046D02*
X99189Y-39746D01*
X99332Y-39746D01*
X99446Y-39889D02*
X99546Y-39889D01*
X99589Y-40046D02*
X99446Y-40046D01*
X99446Y-39746D01*
X99589Y-39746D01*
X99717Y-39932D02*
X99946Y-39932D01*
X99832Y-40046D02*
X99832Y-39817D01*
X100417Y-39889D02*
X100460Y-39903D01*
X100475Y-39917D01*
X100489Y-39946D01*
X100489Y-39989D01*
X100475Y-40017D01*
X100460Y-40032D01*
X100432Y-40046D01*
X100317Y-40046D01*
X100317Y-39746D01*
X100417Y-39746D01*
X100446Y-39760D01*
X100460Y-39775D01*
X100475Y-39803D01*
X100475Y-39832D01*
X100460Y-39860D01*
X100446Y-39875D01*
X100417Y-39889D01*
X100317Y-39889D01*
X100675Y-39903D02*
X100675Y-40046D01*
X100575Y-39746D02*
X100675Y-39903D01*
X100775Y-39746D01*
X100875Y-40046D02*
X100875Y-39746D01*
X100989Y-39746D01*
X101017Y-39760D01*
X101032Y-39775D01*
X101046Y-39803D01*
X101046Y-39846D01*
X101032Y-39875D01*
X101017Y-39889D01*
X100989Y-39903D01*
X100875Y-39903D01*
X101160Y-39960D02*
X101303Y-39960D01*
X101132Y-40046D02*
X101232Y-39746D01*
X101332Y-40046D01*
X101417Y-40032D02*
X101460Y-40046D01*
X101532Y-40046D01*
X101560Y-40032D01*
X101575Y-40017D01*
X101589Y-39989D01*
X101589Y-39960D01*
X101575Y-39932D01*
X101560Y-39917D01*
X101532Y-39903D01*
X101475Y-39889D01*
X101446Y-39875D01*
X101432Y-39860D01*
X101417Y-39832D01*
X101417Y-39803D01*
X101432Y-39775D01*
X101446Y-39760D01*
X101475Y-39746D01*
X101546Y-39746D01*
X101589Y-39760D01*
X101703Y-40032D02*
X101746Y-40046D01*
X101817Y-40046D01*
X101846Y-40032D01*
X101860Y-40017D01*
X101875Y-39989D01*
X101875Y-39960D01*
X101860Y-39932D01*
X101846Y-39917D01*
X101817Y-39903D01*
X101760Y-39889D01*
X101732Y-39875D01*
X101717Y-39860D01*
X101703Y-39832D01*
X101703Y-39803D01*
X101717Y-39775D01*
X101732Y-39760D01*
X101760Y-39746D01*
X101832Y-39746D01*
X101875Y-39760D01*
G54D12*
X106325Y-40325D02*
X108150Y-40325D01*
X99800Y-40325D02*
X101825Y-40325D01*
G54D13*
X94075Y-44550D02*
X93130Y-44550D01*
X98169Y-44550D02*
X97224Y-44550D01*
X97224Y-40494D02*
X94075Y-40494D01*
X97224Y-44550D02*
X97224Y-40494D01*
X94075Y-44550D02*
X94075Y-40494D01*
X98169Y-39550D02*
X98169Y-44550D01*
X93130Y-39550D02*
X93130Y-44550D01*
X98169Y-39550D02*
X93130Y-39550D01*
X101200Y-61050D02*
X101300Y-61050D01*
X101250Y-61050D02*
X99300Y-61050D01*
X101150Y-60700D02*
X99250Y-60700D01*
X99250Y-60700D02*
X99250Y-62950D01*
X99250Y-62950D02*
X99250Y-63050D01*
X99250Y-63050D02*
X101300Y-63050D01*
X101300Y-63050D02*
X101300Y-60700D01*
X101300Y-60700D02*
X101100Y-60700D01*
G54D14*
X100550Y-59350D02*
G75*
G03X100550Y-59350I-50J0D01*
G74*
G01*
X100050Y-59350D02*
X100450Y-59350D01*
X100450Y-59350D02*
X100450Y-59950D01*
X100450Y-59950D02*
X100050Y-59950D01*
X99650Y-59950D02*
X99250Y-59950D01*
X99250Y-59950D02*
X99250Y-59350D01*
X99250Y-59350D02*
X99650Y-59350D01*
X101500Y-59950D02*
G75*
G03X101500Y-59950I-50J0D01*
G74*
G01*
X101900Y-59950D02*
X101500Y-59950D01*
X101500Y-59950D02*
X101500Y-59350D01*
X101500Y-59350D02*
X101900Y-59350D01*
X102300Y-59350D02*
X102700Y-59350D01*
X102700Y-59350D02*
X102700Y-59950D01*
X102700Y-59950D02*
X102300Y-59950D01*
X97700Y-58800D02*
G75*
G03X97700Y-58800I-50J0D01*
G74*
G01*
X98100Y-58800D02*
X97700Y-58800D01*
X97700Y-58800D02*
X97700Y-58200D01*
X97700Y-58200D02*
X98100Y-58200D01*
X98500Y-58200D02*
X98900Y-58200D01*
X98900Y-58200D02*
X98900Y-58800D01*
X98900Y-58800D02*
X98500Y-58800D01*
G54D13*
X95930Y-61100D02*
G75*
G03X95930Y-61100I-180J0D01*
G74*
G01*
X95350Y-60700D02*
X95350Y-63050D01*
X95350Y-63050D02*
X98000Y-63050D01*
X98000Y-63050D02*
X98000Y-60900D01*
X98000Y-60900D02*
X98000Y-60700D01*
X98000Y-60700D02*
X95350Y-60700D01*
G54D15*
X105200Y-49200D02*
X105200Y-46200D01*
X107200Y-46200D02*
X107200Y-49200D01*
X107200Y-49200D02*
X105200Y-49200D01*
X105200Y-46200D02*
X107200Y-46200D01*
G54D14*
X90975Y-45025D02*
G75*
G03X90975Y-45025I-50J0D01*
G74*
G01*
X90925Y-45475D02*
X90925Y-45075D01*
X90925Y-45075D02*
X91525Y-45075D01*
X91525Y-45075D02*
X91525Y-45475D01*
X91525Y-45875D02*
X91525Y-46275D01*
X91525Y-46275D02*
X90925Y-46275D01*
X90925Y-46275D02*
X90925Y-45875D01*
X88925Y-46750D02*
G75*
G03X88925Y-46750I-50J0D01*
G74*
G01*
X88875Y-47200D02*
X88875Y-46800D01*
X88875Y-46800D02*
X89475Y-46800D01*
X89475Y-46800D02*
X89475Y-47200D01*
X89475Y-47600D02*
X89475Y-48000D01*
X89475Y-48000D02*
X88875Y-48000D01*
X88875Y-48000D02*
X88875Y-47600D01*
G54D13*
X112600Y-62984D02*
X114174Y-62984D01*
X114174Y-62984D02*
X114174Y-57078D01*
X111025Y-57078D02*
X114174Y-57078D01*
X112600Y-62984D02*
X111025Y-62984D01*
X111025Y-62984D02*
X111025Y-57078D01*
X114138Y-55655D02*
X114138Y-38687D01*
X111461Y-38687D02*
X114138Y-38687D01*
X112800Y-55655D02*
X114138Y-55655D01*
X112800Y-55655D02*
X111461Y-55655D01*
X111461Y-55655D02*
X111461Y-38687D01*
G54D16*
X91550Y-51075D02*
X91550Y-53075D01*
X91550Y-53075D02*
X89750Y-53075D01*
X89750Y-53075D02*
X89750Y-51075D01*
X89750Y-51075D02*
X91550Y-51075D01*
X90950Y-51075D02*
X90950Y-51275D01*
X90950Y-51275D02*
X90450Y-51275D01*
X90450Y-51275D02*
X90450Y-51075D01*
G54D13*
X110900Y-50950D02*
X110900Y-51050D01*
X110900Y-51000D02*
X110900Y-49050D01*
X111250Y-50900D02*
X111250Y-49000D01*
X111250Y-49000D02*
X109000Y-49000D01*
X109000Y-49000D02*
X108900Y-49000D01*
X108900Y-49000D02*
X108900Y-51050D01*
X108900Y-51050D02*
X111250Y-51050D01*
X111250Y-51050D02*
X111250Y-50850D01*
G54D14*
X95425Y-48725D02*
G75*
G03X95425Y-48725I-50J0D01*
G74*
G01*
X95825Y-48725D02*
X95425Y-48725D01*
X95425Y-48725D02*
X95425Y-48125D01*
X95425Y-48125D02*
X95825Y-48125D01*
X96225Y-48125D02*
X96625Y-48125D01*
X96625Y-48125D02*
X96625Y-48725D01*
X96625Y-48725D02*
X96225Y-48725D01*
G54D16*
X57850Y-42950D02*
X57850Y-44150D01*
X59300Y-44150D02*
X60050Y-44150D01*
X60050Y-44150D02*
X60050Y-42950D01*
X60050Y-42950D02*
X59300Y-42950D01*
X58650Y-42950D02*
X57850Y-42950D01*
X57928Y-42950D02*
X57928Y-44150D01*
X57850Y-44150D02*
X58650Y-44150D01*
X60050Y-42600D02*
X60050Y-41400D01*
X58600Y-41400D02*
X57850Y-41400D01*
X57850Y-41400D02*
X57850Y-42600D01*
X57850Y-42600D02*
X58600Y-42600D01*
X59250Y-42600D02*
X60050Y-42600D01*
X59971Y-42600D02*
X59971Y-41400D01*
X60050Y-41400D02*
X59250Y-41400D01*
X61600Y-43300D02*
X60700Y-43300D01*
X60700Y-43300D02*
X60700Y-43950D01*
X61600Y-44650D02*
X61600Y-45300D01*
X61600Y-45300D02*
X60700Y-45300D01*
X60700Y-45300D02*
X60700Y-44650D01*
X61600Y-43950D02*
X61600Y-43300D01*
X60650Y-50050D02*
X61550Y-50050D01*
X61550Y-50050D02*
X61550Y-49400D01*
X60650Y-48700D02*
X60650Y-48050D01*
X60650Y-48050D02*
X61550Y-48050D01*
X61550Y-48050D02*
X61550Y-48700D01*
X60650Y-49400D02*
X60650Y-50050D01*
X61600Y-39700D02*
X60700Y-39700D01*
X60700Y-39700D02*
X60700Y-40350D01*
X61600Y-41050D02*
X61600Y-41700D01*
X61600Y-41700D02*
X60700Y-41700D01*
X60700Y-41700D02*
X60700Y-41050D01*
X61600Y-40350D02*
X61600Y-39700D01*
G54D14*
X59800Y-39300D02*
G75*
G03X59800Y-39300I-50J0D01*
G74*
G01*
X59300Y-39300D02*
X59700Y-39300D01*
X59700Y-39300D02*
X59700Y-39900D01*
X59700Y-39900D02*
X59300Y-39900D01*
X58900Y-39900D02*
X58500Y-39900D01*
X58500Y-39900D02*
X58500Y-39300D01*
X58500Y-39300D02*
X58900Y-39300D01*
X84050Y-40750D02*
G75*
G03X84050Y-40750I-50J0D01*
G74*
G01*
X83550Y-40750D02*
X83950Y-40750D01*
X83950Y-40750D02*
X83950Y-41350D01*
X83950Y-41350D02*
X83550Y-41350D01*
X83150Y-41350D02*
X82750Y-41350D01*
X82750Y-41350D02*
X82750Y-40750D01*
X82750Y-40750D02*
X83150Y-40750D01*
X82750Y-39700D02*
G75*
G03X82750Y-39700I-50J0D01*
G74*
G01*
X83150Y-39700D02*
X82750Y-39700D01*
X82750Y-39700D02*
X82750Y-39100D01*
X82750Y-39100D02*
X83150Y-39100D01*
X83550Y-39100D02*
X83950Y-39100D01*
X83950Y-39100D02*
X83950Y-39700D01*
X83950Y-39700D02*
X83550Y-39700D01*
G54D16*
X91725Y-55475D02*
X91525Y-55775D01*
X91725Y-54775D02*
X91725Y-55800D01*
X91725Y-55800D02*
X91125Y-55800D01*
X91125Y-55800D02*
X91125Y-54775D01*
X91125Y-54775D02*
X91725Y-54775D01*
G54D13*
X97704Y-54941D02*
X97704Y-55847D01*
X96641Y-54981D02*
X96641Y-55847D01*
X96641Y-55847D02*
X98413Y-55847D01*
X98413Y-55847D02*
X98413Y-54941D01*
X98413Y-54941D02*
X96641Y-54941D01*
X96641Y-54941D02*
X96641Y-55138D01*
X110450Y-57250D02*
X110450Y-63200D01*
X103250Y-57250D02*
X103250Y-63200D01*
X103250Y-57250D02*
X110450Y-57250D01*
X103250Y-63200D02*
X110450Y-63200D01*
G54D15*
X102500Y-49550D02*
X100600Y-49550D01*
X100600Y-49550D02*
X100600Y-45550D01*
X100600Y-45550D02*
X102500Y-45550D01*
X102500Y-45550D02*
X102500Y-49550D01*
X101800Y-45550D02*
X101800Y-45800D01*
X101800Y-45800D02*
X101300Y-45800D01*
X101300Y-45800D02*
X101300Y-45550D01*
G54D12*
X64200Y-52700D02*
G75*
G03X64200Y-52700I-900J0D01*
G74*
G01*
G54D10*
X62700Y-54650D02*
X63700Y-54650D01*
X63700Y-54650D02*
X63700Y-56650D01*
X63700Y-56650D02*
X62700Y-56650D01*
X62700Y-56650D02*
X62700Y-54650D01*
X64789Y-54046D02*
X65496Y-53339D01*
X65496Y-53339D02*
X66910Y-54753D01*
X66910Y-54753D02*
X66203Y-55460D01*
X66203Y-55460D02*
X64789Y-54046D01*
X63700Y-51550D02*
X62700Y-51550D01*
X62700Y-51550D02*
X62700Y-49550D01*
X62700Y-49550D02*
X63700Y-49550D01*
X63700Y-49550D02*
X63700Y-51550D01*
X65296Y-52260D02*
X64589Y-51553D01*
X64589Y-51553D02*
X66003Y-50139D01*
X66003Y-50139D02*
X66710Y-50846D01*
X66710Y-50846D02*
X65296Y-52260D01*
G54D17*
X89750Y-48550D02*
X92750Y-48550D01*
X92750Y-47150D02*
X89750Y-47150D01*
X89750Y-48550D02*
X89750Y-47150D01*
G54D10*
X92750Y-47150D02*
X92750Y-48550D01*
G54D16*
X92691Y-47350D02*
G75*
G03X92691Y-47350I-141J0D01*
G74*
G01*
X92750Y-48100D02*
X92450Y-48100D01*
X92450Y-48100D02*
X92450Y-47600D01*
X92450Y-47600D02*
X92750Y-47600D01*
G54D14*
X88000Y-45400D02*
G75*
G03X88000Y-45400I-50J0D01*
G74*
G01*
X87950Y-45850D02*
X87950Y-45450D01*
X87950Y-45450D02*
X88550Y-45450D01*
X88550Y-45450D02*
X88550Y-45850D01*
X88550Y-46250D02*
X88550Y-46650D01*
X88550Y-46650D02*
X87950Y-46650D01*
X87950Y-46650D02*
X87950Y-46250D01*
X83050Y-45850D02*
G75*
G03X83050Y-45850I-50J0D01*
G74*
G01*
X83000Y-45400D02*
X83000Y-45800D01*
X83000Y-45800D02*
X82400Y-45800D01*
X82400Y-45800D02*
X82400Y-45400D01*
X82400Y-45000D02*
X82400Y-44600D01*
X82400Y-44600D02*
X83000Y-44600D01*
X83000Y-44600D02*
X83000Y-45000D01*
X82050Y-45650D02*
G75*
G03X82050Y-45650I-50J0D01*
G74*
G01*
X82000Y-45200D02*
X82000Y-45600D01*
X82000Y-45600D02*
X81400Y-45600D01*
X81400Y-45600D02*
X81400Y-45200D01*
X81400Y-44800D02*
X81400Y-44400D01*
X81400Y-44400D02*
X82000Y-44400D01*
X82000Y-44400D02*
X82000Y-44800D01*
X81050Y-45825D02*
G75*
G03X81050Y-45825I-50J0D01*
G74*
G01*
X81000Y-45375D02*
X81000Y-45775D01*
X81000Y-45775D02*
X80400Y-45775D01*
X80400Y-45775D02*
X80400Y-45375D01*
X80400Y-44975D02*
X80400Y-44575D01*
X80400Y-44575D02*
X81000Y-44575D01*
X81000Y-44575D02*
X81000Y-44975D01*
X77050Y-58250D02*
G75*
G03X77050Y-58250I-50J0D01*
G74*
G01*
X77000Y-57800D02*
X77000Y-58200D01*
X77000Y-58200D02*
X76400Y-58200D01*
X76400Y-58200D02*
X76400Y-57800D01*
X76400Y-57400D02*
X76400Y-57000D01*
X76400Y-57000D02*
X77000Y-57000D01*
X77000Y-57000D02*
X77000Y-57400D01*
X76050Y-58275D02*
G75*
G03X76050Y-58275I-50J0D01*
G74*
G01*
X76000Y-57825D02*
X76000Y-58225D01*
X76000Y-58225D02*
X75400Y-58225D01*
X75400Y-58225D02*
X75400Y-57825D01*
X75400Y-57425D02*
X75400Y-57025D01*
X75400Y-57025D02*
X76000Y-57025D01*
X76000Y-57025D02*
X76000Y-57425D01*
X78050Y-61300D02*
G75*
G03X78050Y-61300I-50J0D01*
G74*
G01*
X78000Y-60850D02*
X78000Y-61250D01*
X78000Y-61250D02*
X77400Y-61250D01*
X77400Y-61250D02*
X77400Y-60850D01*
X77400Y-60450D02*
X77400Y-60050D01*
X77400Y-60050D02*
X78000Y-60050D01*
X78000Y-60050D02*
X78000Y-60450D01*
X85050Y-45850D02*
G75*
G03X85050Y-45850I-50J0D01*
G74*
G01*
X85000Y-45400D02*
X85000Y-45800D01*
X85000Y-45800D02*
X84400Y-45800D01*
X84400Y-45800D02*
X84400Y-45400D01*
X84400Y-45000D02*
X84400Y-44600D01*
X84400Y-44600D02*
X85000Y-44600D01*
X85000Y-44600D02*
X85000Y-45000D01*
X71450Y-45950D02*
G75*
G03X71450Y-45950I-50J0D01*
G74*
G01*
X71400Y-45500D02*
X71400Y-45900D01*
X71400Y-45900D02*
X70800Y-45900D01*
X70800Y-45900D02*
X70800Y-45500D01*
X70800Y-45100D02*
X70800Y-44700D01*
X70800Y-44700D02*
X71400Y-44700D01*
X71400Y-44700D02*
X71400Y-45100D01*
X74450Y-46525D02*
G75*
G03X74450Y-46525I-50J0D01*
G74*
G01*
X74400Y-46075D02*
X74400Y-46475D01*
X74400Y-46475D02*
X73800Y-46475D01*
X73800Y-46475D02*
X73800Y-46075D01*
X73800Y-45675D02*
X73800Y-45275D01*
X73800Y-45275D02*
X74400Y-45275D01*
X74400Y-45275D02*
X74400Y-45675D01*
X81450Y-60150D02*
G75*
G03X81450Y-60150I-50J0D01*
G74*
G01*
X81400Y-60600D02*
X81400Y-60200D01*
X81400Y-60200D02*
X82000Y-60200D01*
X82000Y-60200D02*
X82000Y-60600D01*
X82000Y-61000D02*
X82000Y-61400D01*
X82000Y-61400D02*
X81400Y-61400D01*
X81400Y-61400D02*
X81400Y-61000D01*
X82450Y-60150D02*
G75*
G03X82450Y-60150I-50J0D01*
G74*
G01*
X82400Y-60600D02*
X82400Y-60200D01*
X82400Y-60200D02*
X83000Y-60200D01*
X83000Y-60200D02*
X83000Y-60600D01*
X83000Y-61000D02*
X83000Y-61400D01*
X83000Y-61400D02*
X82400Y-61400D01*
X82400Y-61400D02*
X82400Y-61000D01*
X80450Y-60150D02*
G75*
G03X80450Y-60150I-50J0D01*
G74*
G01*
X80400Y-60600D02*
X80400Y-60200D01*
X80400Y-60200D02*
X81000Y-60200D01*
X81000Y-60200D02*
X81000Y-60600D01*
X81000Y-61000D02*
X81000Y-61400D01*
X81000Y-61400D02*
X80400Y-61400D01*
X80400Y-61400D02*
X80400Y-61000D01*
X79450Y-60150D02*
G75*
G03X79450Y-60150I-50J0D01*
G74*
G01*
X79400Y-60600D02*
X79400Y-60200D01*
X79400Y-60200D02*
X80000Y-60200D01*
X80000Y-60200D02*
X80000Y-60600D01*
X80000Y-61000D02*
X80000Y-61400D01*
X80000Y-61400D02*
X79400Y-61400D01*
X79400Y-61400D02*
X79400Y-61000D01*
X78050Y-45650D02*
G75*
G03X78050Y-45650I-50J0D01*
G74*
G01*
X78000Y-45200D02*
X78000Y-45600D01*
X78000Y-45600D02*
X77400Y-45600D01*
X77400Y-45600D02*
X77400Y-45200D01*
X77400Y-44800D02*
X77400Y-44400D01*
X77400Y-44400D02*
X78000Y-44400D01*
X78000Y-44400D02*
X78000Y-44800D01*
X90675Y-45700D02*
G75*
G03X90675Y-45700I-50J0D01*
G74*
G01*
X90175Y-45700D02*
X90575Y-45700D01*
X90575Y-45700D02*
X90575Y-46300D01*
X90575Y-46300D02*
X90175Y-46300D01*
X89775Y-46300D02*
X89375Y-46300D01*
X89375Y-46300D02*
X89375Y-45700D01*
X89375Y-45700D02*
X89775Y-45700D01*
G54D13*
X96550Y-59995D02*
X96550Y-60035D01*
X96450Y-59995D02*
X96630Y-59995D01*
X96630Y-59995D02*
X96550Y-59775D01*
X96550Y-59775D02*
X96450Y-59995D01*
X96390Y-59775D02*
X96690Y-59775D01*
G54D18*
X96373Y-59698D02*
X96727Y-59698D01*
X96727Y-59698D02*
X96727Y-59541D01*
X96373Y-59541D02*
X96727Y-59541D01*
X96373Y-59698D02*
X96373Y-59541D01*
X96373Y-60209D02*
X96727Y-60209D01*
X96727Y-60209D02*
X96727Y-60052D01*
X96373Y-60052D02*
X96727Y-60052D01*
X96373Y-60209D02*
X96373Y-60052D01*
G54D19*
X96393Y-59698D02*
X96393Y-60052D01*
X96707Y-59698D02*
X96707Y-60052D01*
G54D13*
X87825Y-44500D02*
X86880Y-44500D01*
X91919Y-44500D02*
X90974Y-44500D01*
X90974Y-40444D02*
X87825Y-40444D01*
X90974Y-44500D02*
X90974Y-40444D01*
X87825Y-44500D02*
X87825Y-40444D01*
X91919Y-39500D02*
X91919Y-44500D01*
X86880Y-39500D02*
X86880Y-44500D01*
X91919Y-39500D02*
X86880Y-39500D01*
G54D12*
X87525Y-41500D02*
X87525Y-41250D01*
X87525Y-41250D02*
X91525Y-41250D01*
X91525Y-41250D02*
X91525Y-41500D01*
X87525Y-43000D02*
X87525Y-41500D01*
X87525Y-41500D02*
X91525Y-41500D01*
X91525Y-41500D02*
X91525Y-43000D01*
X91525Y-43000D02*
X87525Y-43000D01*
X104800Y-43050D02*
X104800Y-42800D01*
X104800Y-42800D02*
X108800Y-42800D01*
X108800Y-42800D02*
X108800Y-43050D01*
X104800Y-44550D02*
X104800Y-43050D01*
X104800Y-43050D02*
X108800Y-43050D01*
X108800Y-43050D02*
X108800Y-44550D01*
X108800Y-44550D02*
X104800Y-44550D01*
X100000Y-43075D02*
X100000Y-42825D01*
X100000Y-42825D02*
X104000Y-42825D01*
X104000Y-42825D02*
X104000Y-43075D01*
X100000Y-44575D02*
X100000Y-43075D01*
X100000Y-43075D02*
X104000Y-43075D01*
X104000Y-43075D02*
X104000Y-44575D01*
X104000Y-44575D02*
X100000Y-44575D01*
X93800Y-41500D02*
X93800Y-41250D01*
X93800Y-41250D02*
X97800Y-41250D01*
X97800Y-41250D02*
X97800Y-41500D01*
X93800Y-43000D02*
X93800Y-41500D01*
X93800Y-41500D02*
X97800Y-41500D01*
X97800Y-41500D02*
X97800Y-43000D01*
X97800Y-43000D02*
X93800Y-43000D01*
G54D14*
X110175Y-48050D02*
G75*
G03X110175Y-48050I-50J0D01*
G74*
G01*
X109675Y-48050D02*
X110075Y-48050D01*
X110075Y-48050D02*
X110075Y-48650D01*
X110075Y-48650D02*
X109675Y-48650D01*
X109275Y-48650D02*
X108875Y-48650D01*
X108875Y-48650D02*
X108875Y-48050D01*
X108875Y-48050D02*
X109275Y-48050D01*
X110175Y-47275D02*
G75*
G03X110175Y-47275I-50J0D01*
G74*
G01*
X109675Y-47275D02*
X110075Y-47275D01*
X110075Y-47275D02*
X110075Y-47875D01*
X110075Y-47875D02*
X109675Y-47875D01*
X109275Y-47875D02*
X108875Y-47875D01*
X108875Y-47875D02*
X108875Y-47275D01*
X108875Y-47275D02*
X109275Y-47275D01*
X104000Y-50575D02*
G75*
G03X104000Y-50575I-50J0D01*
G74*
G01*
X103950Y-50125D02*
X103950Y-50525D01*
X103950Y-50525D02*
X103350Y-50525D01*
X103350Y-50525D02*
X103350Y-50125D01*
X103350Y-49725D02*
X103350Y-49325D01*
X103350Y-49325D02*
X103950Y-49325D01*
X103950Y-49325D02*
X103950Y-49725D01*
X100575Y-50250D02*
G75*
G03X100575Y-50250I-50J0D01*
G74*
G01*
X100975Y-50250D02*
X100575Y-50250D01*
X100575Y-50250D02*
X100575Y-49650D01*
X100575Y-49650D02*
X100975Y-49650D01*
X101375Y-49650D02*
X101775Y-49650D01*
X101775Y-49650D02*
X101775Y-50250D01*
X101775Y-50250D02*
X101375Y-50250D01*
X99675Y-49600D02*
G75*
G03X99675Y-49600I-50J0D01*
G74*
G01*
X99625Y-50050D02*
X99625Y-49650D01*
X99625Y-49650D02*
X100225Y-49650D01*
X100225Y-49650D02*
X100225Y-50050D01*
X100225Y-50450D02*
X100225Y-50850D01*
X100225Y-50850D02*
X99625Y-50850D01*
X99625Y-50850D02*
X99625Y-50450D01*
G54D10*
X102800Y-40550D02*
X102800Y-41550D01*
X102800Y-41550D02*
X99800Y-41550D01*
X99800Y-41550D02*
X99800Y-40550D01*
X99800Y-40550D02*
X102800Y-40550D01*
X101800Y-41550D02*
X101800Y-40550D01*
X105225Y-41575D02*
X105225Y-40575D01*
X105225Y-40575D02*
X108225Y-40575D01*
X108225Y-40575D02*
X108225Y-41575D01*
X108225Y-41575D02*
X105225Y-41575D01*
X106225Y-40575D02*
X106225Y-41575D01*
G54D13*
X97559Y-39384D02*
X97559Y-38990D01*
X97709Y-38990D01*
X97746Y-39009D01*
X97765Y-39028D01*
X97784Y-39065D01*
X97784Y-39121D01*
X97765Y-39159D01*
X97746Y-39178D01*
X97709Y-39196D01*
X97559Y-39196D01*
X97915Y-38990D02*
X98178Y-38990D01*
X98009Y-39384D01*
X101459Y-63009D02*
X101459Y-62615D01*
X101553Y-62615D01*
X101609Y-62634D01*
X101646Y-62671D01*
X101665Y-62709D01*
X101684Y-62784D01*
X101684Y-62840D01*
X101665Y-62915D01*
X101646Y-62953D01*
X101609Y-62990D01*
X101553Y-63009D01*
X101459Y-63009D01*
X101834Y-62653D02*
X101853Y-62634D01*
X101890Y-62615D01*
X101984Y-62615D01*
X102021Y-62634D01*
X102040Y-62653D01*
X102059Y-62690D01*
X102059Y-62728D01*
X102040Y-62784D01*
X101815Y-63009D01*
X102059Y-63009D01*
G54D20*
X99817Y-59229D02*
X99751Y-59135D01*
X99704Y-59229D02*
X99704Y-59032D01*
X99779Y-59032D01*
X99798Y-59042D01*
X99807Y-59051D01*
X99817Y-59070D01*
X99817Y-59098D01*
X99807Y-59117D01*
X99798Y-59126D01*
X99779Y-59135D01*
X99704Y-59135D01*
X99882Y-59032D02*
X100004Y-59032D01*
X99939Y-59107D01*
X99967Y-59107D01*
X99986Y-59117D01*
X99995Y-59126D01*
X100004Y-59145D01*
X100004Y-59192D01*
X99995Y-59210D01*
X99986Y-59220D01*
X99967Y-59229D01*
X99910Y-59229D01*
X99892Y-59220D01*
X99882Y-59210D01*
X102067Y-59229D02*
X102001Y-59135D01*
X101954Y-59229D02*
X101954Y-59032D01*
X102029Y-59032D01*
X102048Y-59042D01*
X102057Y-59051D01*
X102067Y-59070D01*
X102067Y-59098D01*
X102057Y-59117D01*
X102048Y-59126D01*
X102029Y-59135D01*
X101954Y-59135D01*
X102245Y-59032D02*
X102151Y-59032D01*
X102142Y-59126D01*
X102151Y-59117D01*
X102170Y-59107D01*
X102217Y-59107D01*
X102236Y-59117D01*
X102245Y-59126D01*
X102254Y-59145D01*
X102254Y-59192D01*
X102245Y-59210D01*
X102236Y-59220D01*
X102217Y-59229D01*
X102170Y-59229D01*
X102151Y-59220D01*
X102142Y-59210D01*
X98292Y-58104D02*
X98226Y-58010D01*
X98179Y-58104D02*
X98179Y-57907D01*
X98254Y-57907D01*
X98273Y-57917D01*
X98282Y-57926D01*
X98292Y-57945D01*
X98292Y-57973D01*
X98282Y-57992D01*
X98273Y-58001D01*
X98254Y-58010D01*
X98179Y-58010D01*
X98367Y-57926D02*
X98376Y-57917D01*
X98395Y-57907D01*
X98442Y-57907D01*
X98461Y-57917D01*
X98470Y-57926D01*
X98479Y-57945D01*
X98479Y-57964D01*
X98470Y-57992D01*
X98357Y-58104D01*
X98479Y-58104D01*
G54D13*
X95300Y-60165D02*
X95300Y-60484D01*
X95318Y-60521D01*
X95337Y-60540D01*
X95375Y-60559D01*
X95450Y-60559D01*
X95487Y-60540D01*
X95506Y-60521D01*
X95525Y-60484D01*
X95525Y-60165D01*
X95918Y-60559D02*
X95693Y-60559D01*
X95806Y-60559D02*
X95806Y-60165D01*
X95768Y-60221D01*
X95731Y-60259D01*
X95693Y-60278D01*
G54D15*
X107761Y-46820D02*
X107361Y-46820D01*
X107361Y-46667D01*
X107380Y-46629D01*
X107400Y-46610D01*
X107438Y-46591D01*
X107495Y-46591D01*
X107533Y-46610D01*
X107552Y-46629D01*
X107571Y-46667D01*
X107571Y-46820D01*
X107400Y-46439D02*
X107380Y-46420D01*
X107361Y-46382D01*
X107361Y-46286D01*
X107380Y-46248D01*
X107400Y-46229D01*
X107438Y-46210D01*
X107476Y-46210D01*
X107533Y-46229D01*
X107761Y-46458D01*
X107761Y-46210D01*
G54D20*
X91148Y-44979D02*
X91082Y-44885D01*
X91035Y-44979D02*
X91035Y-44782D01*
X91110Y-44782D01*
X91129Y-44792D01*
X91138Y-44801D01*
X91148Y-44820D01*
X91148Y-44848D01*
X91138Y-44867D01*
X91129Y-44876D01*
X91110Y-44885D01*
X91035Y-44885D01*
X91317Y-44848D02*
X91317Y-44979D01*
X91270Y-44773D02*
X91223Y-44914D01*
X91345Y-44914D01*
X91429Y-44979D02*
X91467Y-44979D01*
X91486Y-44970D01*
X91495Y-44960D01*
X91514Y-44932D01*
X91523Y-44895D01*
X91523Y-44820D01*
X91514Y-44801D01*
X91504Y-44792D01*
X91486Y-44782D01*
X91448Y-44782D01*
X91429Y-44792D01*
X91420Y-44801D01*
X91411Y-44820D01*
X91411Y-44867D01*
X91420Y-44885D01*
X91429Y-44895D01*
X91448Y-44904D01*
X91486Y-44904D01*
X91504Y-44895D01*
X91514Y-44885D01*
X91523Y-44867D01*
X89073Y-46679D02*
X89007Y-46585D01*
X88960Y-46679D02*
X88960Y-46482D01*
X89035Y-46482D01*
X89054Y-46492D01*
X89063Y-46501D01*
X89073Y-46520D01*
X89073Y-46548D01*
X89063Y-46567D01*
X89054Y-46576D01*
X89035Y-46585D01*
X88960Y-46585D01*
X89242Y-46548D02*
X89242Y-46679D01*
X89195Y-46473D02*
X89148Y-46614D01*
X89270Y-46614D01*
X89373Y-46567D02*
X89354Y-46557D01*
X89345Y-46548D01*
X89336Y-46529D01*
X89336Y-46520D01*
X89345Y-46501D01*
X89354Y-46492D01*
X89373Y-46482D01*
X89411Y-46482D01*
X89429Y-46492D01*
X89439Y-46501D01*
X89448Y-46520D01*
X89448Y-46529D01*
X89439Y-46548D01*
X89429Y-46557D01*
X89411Y-46567D01*
X89373Y-46567D01*
X89354Y-46576D01*
X89345Y-46585D01*
X89336Y-46604D01*
X89336Y-46642D01*
X89345Y-46660D01*
X89354Y-46670D01*
X89373Y-46679D01*
X89411Y-46679D01*
X89429Y-46670D01*
X89439Y-46660D01*
X89448Y-46642D01*
X89448Y-46604D01*
X89439Y-46585D01*
X89429Y-46576D01*
X89411Y-46567D01*
G54D13*
X111034Y-56959D02*
X111034Y-56565D01*
X111184Y-56565D01*
X111221Y-56584D01*
X111240Y-56603D01*
X111259Y-56640D01*
X111259Y-56696D01*
X111240Y-56734D01*
X111221Y-56753D01*
X111184Y-56771D01*
X111034Y-56771D01*
X111615Y-56565D02*
X111428Y-56565D01*
X111409Y-56753D01*
X111428Y-56734D01*
X111465Y-56715D01*
X111559Y-56715D01*
X111596Y-56734D01*
X111615Y-56753D01*
X111634Y-56790D01*
X111634Y-56884D01*
X111615Y-56921D01*
X111596Y-56940D01*
X111559Y-56959D01*
X111465Y-56959D01*
X111428Y-56940D01*
X111409Y-56921D01*
X111309Y-39440D02*
X110915Y-39440D01*
X110915Y-39290D01*
X110934Y-39253D01*
X110953Y-39234D01*
X110990Y-39215D01*
X111046Y-39215D01*
X111084Y-39234D01*
X111103Y-39253D01*
X111121Y-39290D01*
X111121Y-39440D01*
X111046Y-38878D02*
X111309Y-38878D01*
X110896Y-38971D02*
X111178Y-39065D01*
X111178Y-38821D01*
G54D16*
X90654Y-50507D02*
X90654Y-50871D01*
X90673Y-50914D01*
X90692Y-50935D01*
X90730Y-50957D01*
X90807Y-50957D01*
X90845Y-50935D01*
X90864Y-50914D01*
X90883Y-50871D01*
X90883Y-50507D01*
X91283Y-50957D02*
X91054Y-50957D01*
X91169Y-50957D02*
X91169Y-50507D01*
X91130Y-50571D01*
X91092Y-50614D01*
X91054Y-50635D01*
X91530Y-50507D02*
X91569Y-50507D01*
X91607Y-50528D01*
X91626Y-50550D01*
X91645Y-50592D01*
X91664Y-50678D01*
X91664Y-50785D01*
X91645Y-50871D01*
X91626Y-50914D01*
X91607Y-50935D01*
X91569Y-50957D01*
X91530Y-50957D01*
X91492Y-50935D01*
X91473Y-50914D01*
X91454Y-50871D01*
X91435Y-50785D01*
X91435Y-50678D01*
X91454Y-50592D01*
X91473Y-50550D01*
X91492Y-50528D01*
X91530Y-50507D01*
G54D13*
X110434Y-48909D02*
X110434Y-48515D01*
X110528Y-48515D01*
X110584Y-48534D01*
X110621Y-48571D01*
X110640Y-48609D01*
X110659Y-48684D01*
X110659Y-48740D01*
X110640Y-48815D01*
X110621Y-48853D01*
X110584Y-48890D01*
X110528Y-48909D01*
X110434Y-48909D01*
X111015Y-48515D02*
X110828Y-48515D01*
X110809Y-48703D01*
X110828Y-48684D01*
X110865Y-48665D01*
X110959Y-48665D01*
X110996Y-48684D01*
X111015Y-48703D01*
X111034Y-48740D01*
X111034Y-48834D01*
X111015Y-48871D01*
X110996Y-48890D01*
X110959Y-48909D01*
X110865Y-48909D01*
X110828Y-48890D01*
X110809Y-48871D01*
G54D20*
X95898Y-47979D02*
X95832Y-47885D01*
X95785Y-47979D02*
X95785Y-47782D01*
X95860Y-47782D01*
X95879Y-47792D01*
X95888Y-47801D01*
X95898Y-47820D01*
X95898Y-47848D01*
X95888Y-47867D01*
X95879Y-47876D01*
X95860Y-47885D01*
X95785Y-47885D01*
X96067Y-47848D02*
X96067Y-47979D01*
X96020Y-47773D02*
X95973Y-47914D01*
X96095Y-47914D01*
X96161Y-47801D02*
X96170Y-47792D01*
X96189Y-47782D01*
X96236Y-47782D01*
X96254Y-47792D01*
X96264Y-47801D01*
X96273Y-47820D01*
X96273Y-47839D01*
X96264Y-47867D01*
X96151Y-47979D01*
X96273Y-47979D01*
G54D16*
X58054Y-44611D02*
X57922Y-44611D01*
X57922Y-44335D01*
X58132Y-44362D02*
X58145Y-44349D01*
X58172Y-44335D01*
X58237Y-44335D01*
X58264Y-44349D01*
X58277Y-44362D01*
X58290Y-44388D01*
X58290Y-44414D01*
X58277Y-44454D01*
X58119Y-44611D01*
X58290Y-44611D01*
X58004Y-41261D02*
X57872Y-41261D01*
X57872Y-40985D01*
X58069Y-40985D02*
X58240Y-40985D01*
X58148Y-41090D01*
X58187Y-41090D01*
X58214Y-41104D01*
X58227Y-41117D01*
X58240Y-41143D01*
X58240Y-41209D01*
X58227Y-41235D01*
X58214Y-41248D01*
X58187Y-41261D01*
X58109Y-41261D01*
X58082Y-41248D01*
X58069Y-41235D01*
X60850Y-43167D02*
X60835Y-43182D01*
X60792Y-43196D01*
X60764Y-43196D01*
X60721Y-43182D01*
X60692Y-43153D01*
X60678Y-43125D01*
X60664Y-43067D01*
X60664Y-43025D01*
X60678Y-42967D01*
X60692Y-42939D01*
X60721Y-42910D01*
X60764Y-42896D01*
X60792Y-42896D01*
X60835Y-42910D01*
X60850Y-42925D01*
X60950Y-42896D02*
X61135Y-42896D01*
X61035Y-43010D01*
X61078Y-43010D01*
X61107Y-43025D01*
X61121Y-43039D01*
X61135Y-43067D01*
X61135Y-43139D01*
X61121Y-43167D01*
X61107Y-43182D01*
X61078Y-43196D01*
X60992Y-43196D01*
X60964Y-43182D01*
X60950Y-43167D01*
X60800Y-47917D02*
X60785Y-47932D01*
X60742Y-47946D01*
X60714Y-47946D01*
X60671Y-47932D01*
X60642Y-47903D01*
X60628Y-47875D01*
X60614Y-47817D01*
X60614Y-47775D01*
X60628Y-47717D01*
X60642Y-47689D01*
X60671Y-47660D01*
X60714Y-47646D01*
X60742Y-47646D01*
X60785Y-47660D01*
X60800Y-47675D01*
X61071Y-47646D02*
X60928Y-47646D01*
X60914Y-47789D01*
X60928Y-47775D01*
X60957Y-47760D01*
X61028Y-47760D01*
X61057Y-47775D01*
X61071Y-47789D01*
X61085Y-47817D01*
X61085Y-47889D01*
X61071Y-47917D01*
X61057Y-47932D01*
X61028Y-47946D01*
X60957Y-47946D01*
X60928Y-47932D01*
X60914Y-47917D01*
X61100Y-39592D02*
X61085Y-39607D01*
X61042Y-39621D01*
X61014Y-39621D01*
X60971Y-39607D01*
X60942Y-39578D01*
X60928Y-39550D01*
X60914Y-39492D01*
X60914Y-39450D01*
X60928Y-39392D01*
X60942Y-39364D01*
X60971Y-39335D01*
X61014Y-39321D01*
X61042Y-39321D01*
X61085Y-39335D01*
X61100Y-39350D01*
X61357Y-39421D02*
X61357Y-39621D01*
X61285Y-39307D02*
X61214Y-39521D01*
X61400Y-39521D01*
G54D20*
X58623Y-39204D02*
X58557Y-39110D01*
X58510Y-39204D02*
X58510Y-39007D01*
X58585Y-39007D01*
X58604Y-39017D01*
X58613Y-39026D01*
X58623Y-39045D01*
X58623Y-39073D01*
X58613Y-39092D01*
X58604Y-39101D01*
X58585Y-39110D01*
X58510Y-39110D01*
X58810Y-39204D02*
X58698Y-39204D01*
X58754Y-39204D02*
X58754Y-39007D01*
X58735Y-39035D01*
X58717Y-39054D01*
X58698Y-39064D01*
X58989Y-39007D02*
X58895Y-39007D01*
X58886Y-39101D01*
X58895Y-39092D01*
X58914Y-39082D01*
X58961Y-39082D01*
X58979Y-39092D01*
X58989Y-39101D01*
X58998Y-39120D01*
X58998Y-39167D01*
X58989Y-39185D01*
X58979Y-39195D01*
X58961Y-39204D01*
X58914Y-39204D01*
X58895Y-39195D01*
X58886Y-39185D01*
X83198Y-40629D02*
X83132Y-40535D01*
X83085Y-40629D02*
X83085Y-40432D01*
X83160Y-40432D01*
X83179Y-40442D01*
X83188Y-40451D01*
X83198Y-40470D01*
X83198Y-40498D01*
X83188Y-40517D01*
X83179Y-40526D01*
X83160Y-40535D01*
X83085Y-40535D01*
X83264Y-40432D02*
X83385Y-40432D01*
X83320Y-40507D01*
X83348Y-40507D01*
X83367Y-40517D01*
X83376Y-40526D01*
X83385Y-40545D01*
X83385Y-40592D01*
X83376Y-40610D01*
X83367Y-40620D01*
X83348Y-40629D01*
X83292Y-40629D01*
X83273Y-40620D01*
X83264Y-40610D01*
X83554Y-40498D02*
X83554Y-40629D01*
X83507Y-40423D02*
X83461Y-40564D01*
X83582Y-40564D01*
X83198Y-38979D02*
X83132Y-38885D01*
X83085Y-38979D02*
X83085Y-38782D01*
X83160Y-38782D01*
X83179Y-38792D01*
X83188Y-38801D01*
X83198Y-38820D01*
X83198Y-38848D01*
X83188Y-38867D01*
X83179Y-38876D01*
X83160Y-38885D01*
X83085Y-38885D01*
X83264Y-38782D02*
X83385Y-38782D01*
X83320Y-38857D01*
X83348Y-38857D01*
X83367Y-38867D01*
X83376Y-38876D01*
X83385Y-38895D01*
X83385Y-38942D01*
X83376Y-38960D01*
X83367Y-38970D01*
X83348Y-38979D01*
X83292Y-38979D01*
X83273Y-38970D01*
X83264Y-38960D01*
X83451Y-38782D02*
X83582Y-38782D01*
X83498Y-38979D01*
G54D21*
X91196Y-54309D02*
X91196Y-54552D01*
X91210Y-54580D01*
X91225Y-54595D01*
X91253Y-54609D01*
X91310Y-54609D01*
X91339Y-54595D01*
X91353Y-54580D01*
X91367Y-54552D01*
X91367Y-54309D01*
X91653Y-54309D02*
X91510Y-54309D01*
X91496Y-54452D01*
X91510Y-54438D01*
X91539Y-54423D01*
X91610Y-54423D01*
X91639Y-54438D01*
X91653Y-54452D01*
X91667Y-54480D01*
X91667Y-54552D01*
X91653Y-54580D01*
X91639Y-54595D01*
X91610Y-54609D01*
X91539Y-54609D01*
X91510Y-54595D01*
X91496Y-54580D01*
G54D13*
X98559Y-55134D02*
X98559Y-54740D01*
X98653Y-54740D01*
X98709Y-54759D01*
X98746Y-54796D01*
X98765Y-54834D01*
X98784Y-54909D01*
X98784Y-54965D01*
X98765Y-55040D01*
X98746Y-55078D01*
X98709Y-55115D01*
X98653Y-55134D01*
X98559Y-55134D01*
X99121Y-54871D02*
X99121Y-55134D01*
X99028Y-54721D02*
X98934Y-55003D01*
X99178Y-55003D01*
X94684Y-56559D02*
X94496Y-56559D01*
X94496Y-56165D01*
X95021Y-56559D02*
X94796Y-56559D01*
X94909Y-56559D02*
X94909Y-56165D01*
X94871Y-56221D01*
X94834Y-56259D01*
X94796Y-56278D01*
X103259Y-57084D02*
X103259Y-56690D01*
X103484Y-57084D02*
X103315Y-56859D01*
X103484Y-56690D02*
X103259Y-56915D01*
X103859Y-57084D02*
X103634Y-57084D01*
X103746Y-57084D02*
X103746Y-56690D01*
X103709Y-56746D01*
X103671Y-56784D01*
X103634Y-56803D01*
G54D16*
X100607Y-44986D02*
X100607Y-45310D01*
X100628Y-45348D01*
X100650Y-45367D01*
X100692Y-45386D01*
X100778Y-45386D01*
X100821Y-45367D01*
X100842Y-45348D01*
X100864Y-45310D01*
X100864Y-44986D01*
X101271Y-45120D02*
X101271Y-45386D01*
X101164Y-44967D02*
X101057Y-45253D01*
X101335Y-45253D01*
G54D22*
X60911Y-52892D02*
X60969Y-52911D01*
X61064Y-52911D01*
X61102Y-52892D01*
X61121Y-52873D01*
X61140Y-52835D01*
X61140Y-52797D01*
X61121Y-52759D01*
X61102Y-52740D01*
X61064Y-52721D01*
X60988Y-52702D01*
X60950Y-52683D01*
X60930Y-52664D01*
X60911Y-52626D01*
X60911Y-52588D01*
X60930Y-52550D01*
X60950Y-52530D01*
X60988Y-52511D01*
X61083Y-52511D01*
X61140Y-52530D01*
X61254Y-52511D02*
X61483Y-52511D01*
X61369Y-52911D02*
X61369Y-52511D01*
X61597Y-52797D02*
X61788Y-52797D01*
X61559Y-52911D02*
X61692Y-52511D01*
X61826Y-52911D01*
X62188Y-52911D02*
X62054Y-52721D01*
X61959Y-52911D02*
X61959Y-52511D01*
X62111Y-52511D01*
X62150Y-52530D01*
X62169Y-52550D01*
X62188Y-52588D01*
X62188Y-52645D01*
X62169Y-52683D01*
X62150Y-52702D01*
X62111Y-52721D01*
X61959Y-52721D01*
G54D16*
X92671Y-48696D02*
X92671Y-48939D01*
X92685Y-48967D01*
X92700Y-48982D01*
X92728Y-48996D01*
X92785Y-48996D01*
X92814Y-48982D01*
X92828Y-48967D01*
X92842Y-48939D01*
X92842Y-48696D01*
X92971Y-48725D02*
X92985Y-48710D01*
X93014Y-48696D01*
X93085Y-48696D01*
X93114Y-48710D01*
X93128Y-48725D01*
X93142Y-48753D01*
X93142Y-48782D01*
X93128Y-48825D01*
X92957Y-48996D01*
X93142Y-48996D01*
G54D20*
X88154Y-45354D02*
X88154Y-45157D01*
X88229Y-45157D01*
X88248Y-45167D01*
X88257Y-45176D01*
X88267Y-45195D01*
X88267Y-45223D01*
X88257Y-45242D01*
X88248Y-45251D01*
X88229Y-45260D01*
X88154Y-45260D01*
X88332Y-45157D02*
X88454Y-45157D01*
X88389Y-45232D01*
X88417Y-45232D01*
X88436Y-45242D01*
X88445Y-45251D01*
X88454Y-45270D01*
X88454Y-45317D01*
X88445Y-45335D01*
X88436Y-45345D01*
X88417Y-45354D01*
X88360Y-45354D01*
X88342Y-45345D01*
X88332Y-45335D01*
X82623Y-46204D02*
X82557Y-46110D01*
X82510Y-46204D02*
X82510Y-46007D01*
X82585Y-46007D01*
X82604Y-46017D01*
X82613Y-46026D01*
X82623Y-46045D01*
X82623Y-46073D01*
X82613Y-46092D01*
X82604Y-46101D01*
X82585Y-46110D01*
X82510Y-46110D01*
X82801Y-46007D02*
X82707Y-46007D01*
X82698Y-46101D01*
X82707Y-46092D01*
X82726Y-46082D01*
X82773Y-46082D01*
X82792Y-46092D01*
X82801Y-46101D01*
X82810Y-46120D01*
X82810Y-46167D01*
X82801Y-46185D01*
X82792Y-46195D01*
X82773Y-46204D01*
X82726Y-46204D01*
X82707Y-46195D01*
X82698Y-46185D01*
X82998Y-46204D02*
X82886Y-46204D01*
X82942Y-46204D02*
X82942Y-46007D01*
X82923Y-46035D01*
X82904Y-46054D01*
X82886Y-46064D01*
X81598Y-46004D02*
X81532Y-45910D01*
X81485Y-46004D02*
X81485Y-45807D01*
X81560Y-45807D01*
X81579Y-45817D01*
X81588Y-45826D01*
X81598Y-45845D01*
X81598Y-45873D01*
X81588Y-45892D01*
X81579Y-45901D01*
X81560Y-45910D01*
X81485Y-45910D01*
X81776Y-45807D02*
X81682Y-45807D01*
X81673Y-45901D01*
X81682Y-45892D01*
X81701Y-45882D01*
X81748Y-45882D01*
X81767Y-45892D01*
X81776Y-45901D01*
X81785Y-45920D01*
X81785Y-45967D01*
X81776Y-45985D01*
X81767Y-45995D01*
X81748Y-46004D01*
X81701Y-46004D01*
X81682Y-45995D01*
X81673Y-45985D01*
X81907Y-45807D02*
X81926Y-45807D01*
X81945Y-45817D01*
X81954Y-45826D01*
X81964Y-45845D01*
X81973Y-45882D01*
X81973Y-45929D01*
X81964Y-45967D01*
X81954Y-45985D01*
X81945Y-45995D01*
X81926Y-46004D01*
X81907Y-46004D01*
X81889Y-45995D01*
X81879Y-45985D01*
X81870Y-45967D01*
X81861Y-45929D01*
X81861Y-45882D01*
X81870Y-45845D01*
X81879Y-45826D01*
X81889Y-45817D01*
X81907Y-45807D01*
X80573Y-46229D02*
X80507Y-46135D01*
X80460Y-46229D02*
X80460Y-46032D01*
X80535Y-46032D01*
X80554Y-46042D01*
X80563Y-46051D01*
X80573Y-46070D01*
X80573Y-46098D01*
X80563Y-46117D01*
X80554Y-46126D01*
X80535Y-46135D01*
X80460Y-46135D01*
X80742Y-46098D02*
X80742Y-46229D01*
X80695Y-46023D02*
X80648Y-46164D01*
X80770Y-46164D01*
X80826Y-46032D02*
X80957Y-46032D01*
X80873Y-46229D01*
X76573Y-56779D02*
X76507Y-56685D01*
X76460Y-56779D02*
X76460Y-56582D01*
X76535Y-56582D01*
X76554Y-56592D01*
X76563Y-56601D01*
X76573Y-56620D01*
X76573Y-56648D01*
X76563Y-56667D01*
X76554Y-56676D01*
X76535Y-56685D01*
X76460Y-56685D01*
X76760Y-56779D02*
X76648Y-56779D01*
X76704Y-56779D02*
X76704Y-56582D01*
X76685Y-56610D01*
X76667Y-56629D01*
X76648Y-56639D01*
X76873Y-56667D02*
X76854Y-56657D01*
X76845Y-56648D01*
X76836Y-56629D01*
X76836Y-56620D01*
X76845Y-56601D01*
X76854Y-56592D01*
X76873Y-56582D01*
X76911Y-56582D01*
X76929Y-56592D01*
X76939Y-56601D01*
X76948Y-56620D01*
X76948Y-56629D01*
X76939Y-56648D01*
X76929Y-56657D01*
X76911Y-56667D01*
X76873Y-56667D01*
X76854Y-56676D01*
X76845Y-56685D01*
X76836Y-56704D01*
X76836Y-56742D01*
X76845Y-56760D01*
X76854Y-56770D01*
X76873Y-56779D01*
X76911Y-56779D01*
X76929Y-56770D01*
X76939Y-56760D01*
X76948Y-56742D01*
X76948Y-56704D01*
X76939Y-56685D01*
X76929Y-56676D01*
X76911Y-56667D01*
X75423Y-56804D02*
X75357Y-56710D01*
X75310Y-56804D02*
X75310Y-56607D01*
X75385Y-56607D01*
X75404Y-56617D01*
X75413Y-56626D01*
X75423Y-56645D01*
X75423Y-56673D01*
X75413Y-56692D01*
X75404Y-56701D01*
X75385Y-56710D01*
X75310Y-56710D01*
X75610Y-56804D02*
X75498Y-56804D01*
X75554Y-56804D02*
X75554Y-56607D01*
X75535Y-56635D01*
X75517Y-56654D01*
X75498Y-56664D01*
X75676Y-56607D02*
X75807Y-56607D01*
X75723Y-56804D01*
X77573Y-59829D02*
X77507Y-59735D01*
X77460Y-59829D02*
X77460Y-59632D01*
X77535Y-59632D01*
X77554Y-59642D01*
X77563Y-59651D01*
X77573Y-59670D01*
X77573Y-59698D01*
X77563Y-59717D01*
X77554Y-59726D01*
X77535Y-59735D01*
X77460Y-59735D01*
X77760Y-59829D02*
X77648Y-59829D01*
X77704Y-59829D02*
X77704Y-59632D01*
X77685Y-59660D01*
X77667Y-59679D01*
X77648Y-59689D01*
X77854Y-59829D02*
X77892Y-59829D01*
X77911Y-59820D01*
X77920Y-59810D01*
X77939Y-59782D01*
X77948Y-59745D01*
X77948Y-59670D01*
X77939Y-59651D01*
X77929Y-59642D01*
X77911Y-59632D01*
X77873Y-59632D01*
X77854Y-59642D01*
X77845Y-59651D01*
X77836Y-59670D01*
X77836Y-59717D01*
X77845Y-59735D01*
X77854Y-59745D01*
X77873Y-59754D01*
X77911Y-59754D01*
X77929Y-59745D01*
X77939Y-59735D01*
X77948Y-59717D01*
X85354Y-44826D02*
X85260Y-44892D01*
X85354Y-44939D02*
X85157Y-44939D01*
X85157Y-44864D01*
X85167Y-44845D01*
X85176Y-44836D01*
X85195Y-44826D01*
X85223Y-44826D01*
X85242Y-44836D01*
X85251Y-44845D01*
X85260Y-44864D01*
X85260Y-44939D01*
X85157Y-44760D02*
X85157Y-44639D01*
X85232Y-44704D01*
X85232Y-44676D01*
X85242Y-44657D01*
X85251Y-44648D01*
X85270Y-44639D01*
X85317Y-44639D01*
X85335Y-44648D01*
X85345Y-44657D01*
X85354Y-44676D01*
X85354Y-44732D01*
X85345Y-44751D01*
X85335Y-44760D01*
X85176Y-44563D02*
X85167Y-44554D01*
X85157Y-44535D01*
X85157Y-44488D01*
X85167Y-44470D01*
X85176Y-44460D01*
X85195Y-44451D01*
X85214Y-44451D01*
X85242Y-44460D01*
X85354Y-44573D01*
X85354Y-44451D01*
X70998Y-46329D02*
X70932Y-46235D01*
X70885Y-46329D02*
X70885Y-46132D01*
X70960Y-46132D01*
X70979Y-46142D01*
X70988Y-46151D01*
X70998Y-46170D01*
X70998Y-46198D01*
X70988Y-46217D01*
X70979Y-46226D01*
X70960Y-46235D01*
X70885Y-46235D01*
X71073Y-46151D02*
X71082Y-46142D01*
X71101Y-46132D01*
X71148Y-46132D01*
X71167Y-46142D01*
X71176Y-46151D01*
X71185Y-46170D01*
X71185Y-46189D01*
X71176Y-46217D01*
X71064Y-46329D01*
X71185Y-46329D01*
X71354Y-46198D02*
X71354Y-46329D01*
X71307Y-46123D02*
X71261Y-46264D01*
X71382Y-46264D01*
X73973Y-45029D02*
X73907Y-44935D01*
X73860Y-45029D02*
X73860Y-44832D01*
X73935Y-44832D01*
X73954Y-44842D01*
X73963Y-44851D01*
X73973Y-44870D01*
X73973Y-44898D01*
X73963Y-44917D01*
X73954Y-44926D01*
X73935Y-44935D01*
X73860Y-44935D01*
X74048Y-44851D02*
X74057Y-44842D01*
X74076Y-44832D01*
X74123Y-44832D01*
X74142Y-44842D01*
X74151Y-44851D01*
X74160Y-44870D01*
X74160Y-44889D01*
X74151Y-44917D01*
X74039Y-45029D01*
X74160Y-45029D01*
X74226Y-44832D02*
X74357Y-44832D01*
X74273Y-45029D01*
X81573Y-59954D02*
X81507Y-59860D01*
X81460Y-59954D02*
X81460Y-59757D01*
X81535Y-59757D01*
X81554Y-59767D01*
X81563Y-59776D01*
X81573Y-59795D01*
X81573Y-59823D01*
X81563Y-59842D01*
X81554Y-59851D01*
X81535Y-59860D01*
X81460Y-59860D01*
X81648Y-59776D02*
X81657Y-59767D01*
X81676Y-59757D01*
X81723Y-59757D01*
X81742Y-59767D01*
X81751Y-59776D01*
X81760Y-59795D01*
X81760Y-59814D01*
X81751Y-59842D01*
X81639Y-59954D01*
X81760Y-59954D01*
X81836Y-59776D02*
X81845Y-59767D01*
X81864Y-59757D01*
X81911Y-59757D01*
X81929Y-59767D01*
X81939Y-59776D01*
X81948Y-59795D01*
X81948Y-59814D01*
X81939Y-59842D01*
X81826Y-59954D01*
X81948Y-59954D01*
X82548Y-59954D02*
X82482Y-59860D01*
X82435Y-59954D02*
X82435Y-59757D01*
X82510Y-59757D01*
X82529Y-59767D01*
X82538Y-59776D01*
X82548Y-59795D01*
X82548Y-59823D01*
X82538Y-59842D01*
X82529Y-59851D01*
X82510Y-59860D01*
X82435Y-59860D01*
X82623Y-59776D02*
X82632Y-59767D01*
X82651Y-59757D01*
X82698Y-59757D01*
X82717Y-59767D01*
X82726Y-59776D01*
X82735Y-59795D01*
X82735Y-59814D01*
X82726Y-59842D01*
X82614Y-59954D01*
X82735Y-59954D01*
X82801Y-59757D02*
X82923Y-59757D01*
X82857Y-59832D01*
X82886Y-59832D01*
X82904Y-59842D01*
X82914Y-59851D01*
X82923Y-59870D01*
X82923Y-59917D01*
X82914Y-59935D01*
X82904Y-59945D01*
X82886Y-59954D01*
X82829Y-59954D01*
X82811Y-59945D01*
X82801Y-59935D01*
X80573Y-59954D02*
X80507Y-59860D01*
X80460Y-59954D02*
X80460Y-59757D01*
X80535Y-59757D01*
X80554Y-59767D01*
X80563Y-59776D01*
X80573Y-59795D01*
X80573Y-59823D01*
X80563Y-59842D01*
X80554Y-59851D01*
X80535Y-59860D01*
X80460Y-59860D01*
X80648Y-59776D02*
X80657Y-59767D01*
X80676Y-59757D01*
X80723Y-59757D01*
X80742Y-59767D01*
X80751Y-59776D01*
X80760Y-59795D01*
X80760Y-59814D01*
X80751Y-59842D01*
X80639Y-59954D01*
X80760Y-59954D01*
X80948Y-59954D02*
X80836Y-59954D01*
X80892Y-59954D02*
X80892Y-59757D01*
X80873Y-59785D01*
X80854Y-59804D01*
X80836Y-59814D01*
X79548Y-59954D02*
X79482Y-59860D01*
X79435Y-59954D02*
X79435Y-59757D01*
X79510Y-59757D01*
X79529Y-59767D01*
X79538Y-59776D01*
X79548Y-59795D01*
X79548Y-59823D01*
X79538Y-59842D01*
X79529Y-59851D01*
X79510Y-59860D01*
X79435Y-59860D01*
X79623Y-59776D02*
X79632Y-59767D01*
X79651Y-59757D01*
X79698Y-59757D01*
X79717Y-59767D01*
X79726Y-59776D01*
X79735Y-59795D01*
X79735Y-59814D01*
X79726Y-59842D01*
X79614Y-59954D01*
X79735Y-59954D01*
X79857Y-59757D02*
X79876Y-59757D01*
X79895Y-59767D01*
X79904Y-59776D01*
X79914Y-59795D01*
X79923Y-59832D01*
X79923Y-59879D01*
X79914Y-59917D01*
X79904Y-59935D01*
X79895Y-59945D01*
X79876Y-59954D01*
X79857Y-59954D01*
X79839Y-59945D01*
X79829Y-59935D01*
X79820Y-59917D01*
X79811Y-59879D01*
X79811Y-59832D01*
X79820Y-59795D01*
X79829Y-59776D01*
X79839Y-59767D01*
X79857Y-59757D01*
X77598Y-46004D02*
X77532Y-45910D01*
X77485Y-46004D02*
X77485Y-45807D01*
X77560Y-45807D01*
X77579Y-45817D01*
X77588Y-45826D01*
X77598Y-45845D01*
X77598Y-45873D01*
X77588Y-45892D01*
X77579Y-45901D01*
X77560Y-45910D01*
X77485Y-45910D01*
X77664Y-45807D02*
X77785Y-45807D01*
X77720Y-45882D01*
X77748Y-45882D01*
X77767Y-45892D01*
X77776Y-45901D01*
X77785Y-45920D01*
X77785Y-45967D01*
X77776Y-45985D01*
X77767Y-45995D01*
X77748Y-46004D01*
X77692Y-46004D01*
X77673Y-45995D01*
X77664Y-45985D01*
X77907Y-45807D02*
X77926Y-45807D01*
X77945Y-45817D01*
X77954Y-45826D01*
X77964Y-45845D01*
X77973Y-45882D01*
X77973Y-45929D01*
X77964Y-45967D01*
X77954Y-45985D01*
X77945Y-45995D01*
X77926Y-46004D01*
X77907Y-46004D01*
X77889Y-45995D01*
X77879Y-45985D01*
X77870Y-45967D01*
X77861Y-45929D01*
X77861Y-45882D01*
X77870Y-45845D01*
X77879Y-45826D01*
X77889Y-45817D01*
X77907Y-45807D01*
X89823Y-45560D02*
X89813Y-45570D01*
X89785Y-45579D01*
X89767Y-45579D01*
X89738Y-45570D01*
X89720Y-45551D01*
X89710Y-45532D01*
X89701Y-45495D01*
X89701Y-45467D01*
X89710Y-45429D01*
X89720Y-45410D01*
X89738Y-45392D01*
X89767Y-45382D01*
X89785Y-45382D01*
X89813Y-45392D01*
X89823Y-45401D01*
X89889Y-45382D02*
X90010Y-45382D01*
X89945Y-45457D01*
X89973Y-45457D01*
X89992Y-45467D01*
X90001Y-45476D01*
X90010Y-45495D01*
X90010Y-45542D01*
X90001Y-45560D01*
X89992Y-45570D01*
X89973Y-45579D01*
X89917Y-45579D01*
X89898Y-45570D01*
X89889Y-45560D01*
X90198Y-45579D02*
X90086Y-45579D01*
X90142Y-45579D02*
X90142Y-45382D01*
X90123Y-45410D01*
X90104Y-45429D01*
X90086Y-45439D01*
G54D10*
X95629Y-60011D02*
X95629Y-59611D01*
X95725Y-59611D01*
X95782Y-59630D01*
X95820Y-59669D01*
X95839Y-59707D01*
X95858Y-59783D01*
X95858Y-59840D01*
X95839Y-59916D01*
X95820Y-59954D01*
X95782Y-59992D01*
X95725Y-60011D01*
X95629Y-60011D01*
X96239Y-60011D02*
X96010Y-60011D01*
X96125Y-60011D02*
X96125Y-59611D01*
X96086Y-59669D01*
X96048Y-59707D01*
X96010Y-59726D01*
G54D13*
X91234Y-39334D02*
X91234Y-38940D01*
X91384Y-38940D01*
X91421Y-38959D01*
X91440Y-38978D01*
X91459Y-39015D01*
X91459Y-39071D01*
X91440Y-39109D01*
X91421Y-39128D01*
X91384Y-39146D01*
X91234Y-39146D01*
X91796Y-38940D02*
X91721Y-38940D01*
X91684Y-38959D01*
X91665Y-38978D01*
X91628Y-39034D01*
X91609Y-39109D01*
X91609Y-39259D01*
X91628Y-39296D01*
X91646Y-39315D01*
X91684Y-39334D01*
X91759Y-39334D01*
X91796Y-39315D01*
X91815Y-39296D01*
X91834Y-39259D01*
X91834Y-39165D01*
X91815Y-39128D01*
X91796Y-39109D01*
X91759Y-39090D01*
X91684Y-39090D01*
X91646Y-39109D01*
X91628Y-39128D01*
X91609Y-39165D01*
G54D15*
X89320Y-43192D02*
X89320Y-43678D01*
X89339Y-43735D01*
X89358Y-43764D01*
X89396Y-43792D01*
X89472Y-43792D01*
X89510Y-43764D01*
X89529Y-43735D01*
X89548Y-43678D01*
X89548Y-43192D01*
X89910Y-43192D02*
X89834Y-43192D01*
X89796Y-43221D01*
X89777Y-43250D01*
X89739Y-43335D01*
X89720Y-43450D01*
X89720Y-43678D01*
X89739Y-43735D01*
X89758Y-43764D01*
X89796Y-43792D01*
X89872Y-43792D01*
X89910Y-43764D01*
X89929Y-43735D01*
X89948Y-43678D01*
X89948Y-43535D01*
X89929Y-43478D01*
X89910Y-43450D01*
X89872Y-43421D01*
X89796Y-43421D01*
X89758Y-43450D01*
X89739Y-43478D01*
X89720Y-43535D01*
X108120Y-44742D02*
X108120Y-45228D01*
X108139Y-45285D01*
X108158Y-45314D01*
X108196Y-45342D01*
X108272Y-45342D01*
X108310Y-45314D01*
X108329Y-45285D01*
X108348Y-45228D01*
X108348Y-44742D01*
X108558Y-45342D02*
X108634Y-45342D01*
X108672Y-45314D01*
X108691Y-45285D01*
X108729Y-45200D01*
X108748Y-45085D01*
X108748Y-44857D01*
X108729Y-44800D01*
X108710Y-44771D01*
X108672Y-44742D01*
X108596Y-44742D01*
X108558Y-44771D01*
X108539Y-44800D01*
X108520Y-44857D01*
X108520Y-45000D01*
X108539Y-45057D01*
X108558Y-45085D01*
X108596Y-45114D01*
X108672Y-45114D01*
X108710Y-45085D01*
X108729Y-45057D01*
X108748Y-45000D01*
X103395Y-44767D02*
X103395Y-45253D01*
X103414Y-45310D01*
X103433Y-45339D01*
X103471Y-45367D01*
X103547Y-45367D01*
X103585Y-45339D01*
X103604Y-45310D01*
X103623Y-45253D01*
X103623Y-44767D01*
X103871Y-45025D02*
X103833Y-44996D01*
X103814Y-44967D01*
X103795Y-44910D01*
X103795Y-44882D01*
X103814Y-44825D01*
X103833Y-44796D01*
X103871Y-44767D01*
X103947Y-44767D01*
X103985Y-44796D01*
X104004Y-44825D01*
X104023Y-44882D01*
X104023Y-44910D01*
X104004Y-44967D01*
X103985Y-44996D01*
X103947Y-45025D01*
X103871Y-45025D01*
X103833Y-45053D01*
X103814Y-45082D01*
X103795Y-45139D01*
X103795Y-45253D01*
X103814Y-45310D01*
X103833Y-45339D01*
X103871Y-45367D01*
X103947Y-45367D01*
X103985Y-45339D01*
X104004Y-45310D01*
X104023Y-45253D01*
X104023Y-45139D01*
X104004Y-45082D01*
X103985Y-45053D01*
X103947Y-45025D01*
X95595Y-43192D02*
X95595Y-43678D01*
X95614Y-43735D01*
X95633Y-43764D01*
X95671Y-43792D01*
X95747Y-43792D01*
X95785Y-43764D01*
X95804Y-43735D01*
X95823Y-43678D01*
X95823Y-43192D01*
X95976Y-43192D02*
X96242Y-43192D01*
X96071Y-43792D01*
G54D13*
X70159Y-39503D02*
X69971Y-39634D01*
X70159Y-39728D02*
X69765Y-39728D01*
X69765Y-39578D01*
X69784Y-39540D01*
X69803Y-39521D01*
X69840Y-39503D01*
X69896Y-39503D01*
X69934Y-39521D01*
X69953Y-39540D01*
X69971Y-39578D01*
X69971Y-39728D01*
X69765Y-39371D02*
X69765Y-39128D01*
X69915Y-39259D01*
X69915Y-39203D01*
X69934Y-39165D01*
X69953Y-39146D01*
X69990Y-39128D01*
X70084Y-39128D01*
X70121Y-39146D01*
X70140Y-39165D01*
X70159Y-39203D01*
X70159Y-39315D01*
X70140Y-39353D01*
X70121Y-39371D01*
X69765Y-38771D02*
X69765Y-38959D01*
X69953Y-38978D01*
X69934Y-38959D01*
X69915Y-38921D01*
X69915Y-38828D01*
X69934Y-38790D01*
X69953Y-38771D01*
X69990Y-38753D01*
X70084Y-38753D01*
X70121Y-38771D01*
X70140Y-38790D01*
X70159Y-38828D01*
X70159Y-38921D01*
X70140Y-38959D01*
X70121Y-38978D01*
X76609Y-39503D02*
X76421Y-39634D01*
X76609Y-39728D02*
X76215Y-39728D01*
X76215Y-39578D01*
X76234Y-39540D01*
X76253Y-39521D01*
X76290Y-39503D01*
X76346Y-39503D01*
X76384Y-39521D01*
X76403Y-39540D01*
X76421Y-39578D01*
X76421Y-39728D01*
X76215Y-39371D02*
X76215Y-39128D01*
X76365Y-39259D01*
X76365Y-39203D01*
X76384Y-39165D01*
X76403Y-39146D01*
X76440Y-39128D01*
X76534Y-39128D01*
X76571Y-39146D01*
X76590Y-39165D01*
X76609Y-39203D01*
X76609Y-39315D01*
X76590Y-39353D01*
X76571Y-39371D01*
X76215Y-38790D02*
X76215Y-38865D01*
X76234Y-38903D01*
X76253Y-38921D01*
X76309Y-38959D01*
X76384Y-38978D01*
X76534Y-38978D01*
X76571Y-38959D01*
X76590Y-38940D01*
X76609Y-38903D01*
X76609Y-38828D01*
X76590Y-38790D01*
X76571Y-38771D01*
X76534Y-38753D01*
X76440Y-38753D01*
X76403Y-38771D01*
X76384Y-38790D01*
X76365Y-38828D01*
X76365Y-38903D01*
X76384Y-38940D01*
X76403Y-38959D01*
X76440Y-38978D01*
X63900Y-40840D02*
X63956Y-40859D01*
X64050Y-40859D01*
X64087Y-40840D01*
X64106Y-40821D01*
X64125Y-40784D01*
X64125Y-40746D01*
X64106Y-40709D01*
X64087Y-40690D01*
X64050Y-40671D01*
X63975Y-40653D01*
X63937Y-40634D01*
X63918Y-40615D01*
X63900Y-40578D01*
X63900Y-40540D01*
X63918Y-40503D01*
X63937Y-40484D01*
X63975Y-40465D01*
X64068Y-40465D01*
X64125Y-40484D01*
X64256Y-40465D02*
X64350Y-40859D01*
X64425Y-40578D01*
X64499Y-40859D01*
X64593Y-40465D01*
X64949Y-40859D02*
X64724Y-40859D01*
X64837Y-40859D02*
X64837Y-40465D01*
X64799Y-40521D01*
X64762Y-40559D01*
X64724Y-40578D01*
X52734Y-62209D02*
X52734Y-61815D01*
X52884Y-61815D01*
X52921Y-61834D01*
X52940Y-61853D01*
X52959Y-61890D01*
X52959Y-61946D01*
X52940Y-61984D01*
X52921Y-62003D01*
X52884Y-62021D01*
X52734Y-62021D01*
X53334Y-62209D02*
X53109Y-62209D01*
X53221Y-62209D02*
X53221Y-61815D01*
X53184Y-61871D01*
X53146Y-61909D01*
X53109Y-61928D01*
G54D16*
X95084Y-49576D02*
X95227Y-49576D01*
X95155Y-49826D02*
X95155Y-49576D01*
X95310Y-49826D02*
X95310Y-49576D01*
X95405Y-49576D01*
X95429Y-49588D01*
X95441Y-49600D01*
X95453Y-49623D01*
X95453Y-49659D01*
X95441Y-49683D01*
X95429Y-49695D01*
X95405Y-49707D01*
X95310Y-49707D01*
X95572Y-49826D02*
X95620Y-49826D01*
X95644Y-49814D01*
X95655Y-49802D01*
X95679Y-49766D01*
X95691Y-49719D01*
X95691Y-49623D01*
X95679Y-49600D01*
X95667Y-49588D01*
X95644Y-49576D01*
X95596Y-49576D01*
X95572Y-49588D01*
X95560Y-49600D01*
X95548Y-49623D01*
X95548Y-49683D01*
X95560Y-49707D01*
X95572Y-49719D01*
X95596Y-49730D01*
X95644Y-49730D01*
X95667Y-49719D01*
X95679Y-49707D01*
X95691Y-49683D01*
X95074Y-49401D02*
X95074Y-49151D01*
X95134Y-49151D01*
X95170Y-49163D01*
X95194Y-49186D01*
X95205Y-49210D01*
X95217Y-49258D01*
X95217Y-49294D01*
X95205Y-49341D01*
X95194Y-49365D01*
X95170Y-49389D01*
X95134Y-49401D01*
X95074Y-49401D01*
X95313Y-49329D02*
X95432Y-49329D01*
X95289Y-49401D02*
X95372Y-49151D01*
X95455Y-49401D01*
X95682Y-49377D02*
X95670Y-49389D01*
X95634Y-49401D01*
X95610Y-49401D01*
X95575Y-49389D01*
X95551Y-49365D01*
X95539Y-49341D01*
X95527Y-49294D01*
X95527Y-49258D01*
X95539Y-49210D01*
X95551Y-49186D01*
X95575Y-49163D01*
X95610Y-49151D01*
X95634Y-49151D01*
X95670Y-49163D01*
X95682Y-49175D01*
X95729Y-49425D02*
X95920Y-49425D01*
X96027Y-49151D02*
X96075Y-49151D01*
X96098Y-49163D01*
X96122Y-49186D01*
X96134Y-49234D01*
X96134Y-49317D01*
X96122Y-49365D01*
X96098Y-49389D01*
X96075Y-49401D01*
X96027Y-49401D01*
X96003Y-49389D01*
X95979Y-49365D01*
X95967Y-49317D01*
X95967Y-49234D01*
X95979Y-49186D01*
X96003Y-49163D01*
X96027Y-49151D01*
X96241Y-49151D02*
X96241Y-49353D01*
X96253Y-49377D01*
X96265Y-49389D01*
X96289Y-49401D01*
X96336Y-49401D01*
X96360Y-49389D01*
X96372Y-49377D01*
X96384Y-49353D01*
X96384Y-49151D01*
X96467Y-49151D02*
X96610Y-49151D01*
X96539Y-49401D02*
X96539Y-49151D01*
X103084Y-41176D02*
X103227Y-41176D01*
X103155Y-41426D02*
X103155Y-41176D01*
X103310Y-41426D02*
X103310Y-41176D01*
X103405Y-41176D01*
X103429Y-41188D01*
X103441Y-41200D01*
X103453Y-41223D01*
X103453Y-41259D01*
X103441Y-41283D01*
X103429Y-41295D01*
X103405Y-41307D01*
X103310Y-41307D01*
X103679Y-41176D02*
X103560Y-41176D01*
X103548Y-41295D01*
X103560Y-41283D01*
X103584Y-41271D01*
X103644Y-41271D01*
X103667Y-41283D01*
X103679Y-41295D01*
X103691Y-41319D01*
X103691Y-41378D01*
X103679Y-41402D01*
X103667Y-41414D01*
X103644Y-41426D01*
X103584Y-41426D01*
X103560Y-41414D01*
X103548Y-41402D01*
X102909Y-40504D02*
X103028Y-40504D01*
X102885Y-40576D02*
X102969Y-40326D01*
X103052Y-40576D01*
X103266Y-40338D02*
X103242Y-40326D01*
X103207Y-40326D01*
X103171Y-40338D01*
X103147Y-40361D01*
X103135Y-40385D01*
X103123Y-40433D01*
X103123Y-40469D01*
X103135Y-40516D01*
X103147Y-40540D01*
X103171Y-40564D01*
X103207Y-40576D01*
X103230Y-40576D01*
X103266Y-40564D01*
X103278Y-40552D01*
X103278Y-40469D01*
X103230Y-40469D01*
X103385Y-40576D02*
X103385Y-40326D01*
X103528Y-40576D01*
X103528Y-40326D01*
X103647Y-40576D02*
X103647Y-40326D01*
X103707Y-40326D01*
X103742Y-40338D01*
X103766Y-40361D01*
X103778Y-40385D01*
X103790Y-40433D01*
X103790Y-40469D01*
X103778Y-40516D01*
X103766Y-40540D01*
X103742Y-40564D01*
X103707Y-40576D01*
X103647Y-40576D01*
X92184Y-41226D02*
X92327Y-41226D01*
X92255Y-41476D02*
X92255Y-41226D01*
X92410Y-41476D02*
X92410Y-41226D01*
X92505Y-41226D01*
X92529Y-41238D01*
X92541Y-41250D01*
X92553Y-41273D01*
X92553Y-41309D01*
X92541Y-41333D01*
X92529Y-41345D01*
X92505Y-41357D01*
X92410Y-41357D01*
X92696Y-41333D02*
X92672Y-41321D01*
X92660Y-41309D01*
X92648Y-41285D01*
X92648Y-41273D01*
X92660Y-41250D01*
X92672Y-41238D01*
X92696Y-41226D01*
X92744Y-41226D01*
X92767Y-41238D01*
X92779Y-41250D01*
X92791Y-41273D01*
X92791Y-41285D01*
X92779Y-41309D01*
X92767Y-41321D01*
X92744Y-41333D01*
X92696Y-41333D01*
X92672Y-41345D01*
X92660Y-41357D01*
X92648Y-41380D01*
X92648Y-41428D01*
X92660Y-41452D01*
X92672Y-41464D01*
X92696Y-41476D01*
X92744Y-41476D01*
X92767Y-41464D01*
X92779Y-41452D01*
X92791Y-41428D01*
X92791Y-41380D01*
X92779Y-41357D01*
X92767Y-41345D01*
X92744Y-41333D01*
X92007Y-42715D02*
X91988Y-42705D01*
X91959Y-42705D01*
X91930Y-42715D01*
X91911Y-42734D01*
X91902Y-42753D01*
X91892Y-42791D01*
X91892Y-42820D01*
X91902Y-42858D01*
X91911Y-42877D01*
X91930Y-42896D01*
X91959Y-42905D01*
X91978Y-42905D01*
X92007Y-42896D01*
X92016Y-42886D01*
X92016Y-42820D01*
X91978Y-42820D01*
X92102Y-42905D02*
X92102Y-42705D01*
X92216Y-42905D01*
X92216Y-42705D01*
X92311Y-42905D02*
X92311Y-42705D01*
X92359Y-42705D01*
X92388Y-42715D01*
X92407Y-42734D01*
X92416Y-42753D01*
X92426Y-42791D01*
X92426Y-42820D01*
X92416Y-42858D01*
X92407Y-42877D01*
X92388Y-42896D01*
X92359Y-42905D01*
X92311Y-42905D01*
X92464Y-42925D02*
X92616Y-42925D01*
X92664Y-42905D02*
X92664Y-42705D01*
X92740Y-42705D01*
X92759Y-42715D01*
X92769Y-42725D01*
X92778Y-42744D01*
X92778Y-42772D01*
X92769Y-42791D01*
X92759Y-42801D01*
X92740Y-42810D01*
X92664Y-42810D01*
X92845Y-42705D02*
X92892Y-42905D01*
X92930Y-42763D01*
X92969Y-42905D01*
X93016Y-42705D01*
X93207Y-42905D02*
X93140Y-42810D01*
X93092Y-42905D02*
X93092Y-42705D01*
X93169Y-42705D01*
X93188Y-42715D01*
X93197Y-42725D01*
X93207Y-42744D01*
X93207Y-42772D01*
X93197Y-42791D01*
X93188Y-42801D01*
X93169Y-42810D01*
X93092Y-42810D01*
X101515Y-57576D02*
X101658Y-57576D01*
X101586Y-57826D02*
X101586Y-57576D01*
X101741Y-57826D02*
X101741Y-57576D01*
X101836Y-57576D01*
X101860Y-57588D01*
X101872Y-57600D01*
X101884Y-57623D01*
X101884Y-57659D01*
X101872Y-57683D01*
X101860Y-57695D01*
X101836Y-57707D01*
X101741Y-57707D01*
X102122Y-57826D02*
X101979Y-57826D01*
X102051Y-57826D02*
X102051Y-57576D01*
X102027Y-57611D01*
X102003Y-57635D01*
X101979Y-57647D01*
X102277Y-57576D02*
X102301Y-57576D01*
X102325Y-57588D01*
X102336Y-57600D01*
X102348Y-57623D01*
X102360Y-57671D01*
X102360Y-57730D01*
X102348Y-57778D01*
X102336Y-57802D01*
X102325Y-57814D01*
X102301Y-57826D01*
X102277Y-57826D01*
X102253Y-57814D01*
X102241Y-57802D01*
X102229Y-57778D01*
X102217Y-57730D01*
X102217Y-57671D01*
X102229Y-57623D01*
X102241Y-57600D01*
X102253Y-57588D01*
X102277Y-57576D01*
X101752Y-57401D02*
X101609Y-57401D01*
X101680Y-57401D02*
X101680Y-57151D01*
X101657Y-57186D01*
X101633Y-57210D01*
X101609Y-57222D01*
X101847Y-57175D02*
X101859Y-57163D01*
X101883Y-57151D01*
X101942Y-57151D01*
X101966Y-57163D01*
X101978Y-57175D01*
X101990Y-57198D01*
X101990Y-57222D01*
X101978Y-57258D01*
X101835Y-57401D01*
X101990Y-57401D01*
X102097Y-57401D02*
X102097Y-57151D01*
X102192Y-57151D01*
X102216Y-57163D01*
X102228Y-57175D01*
X102240Y-57198D01*
X102240Y-57234D01*
X102228Y-57258D01*
X102216Y-57270D01*
X102192Y-57282D01*
X102097Y-57282D01*
X97834Y-59651D02*
X97977Y-59651D01*
X97905Y-59901D02*
X97905Y-59651D01*
X98060Y-59901D02*
X98060Y-59651D01*
X98155Y-59651D01*
X98179Y-59663D01*
X98191Y-59675D01*
X98203Y-59698D01*
X98203Y-59734D01*
X98191Y-59758D01*
X98179Y-59770D01*
X98155Y-59782D01*
X98060Y-59782D01*
X98417Y-59734D02*
X98417Y-59901D01*
X98358Y-59639D02*
X98298Y-59817D01*
X98453Y-59817D01*
X97353Y-59451D02*
X97270Y-59332D01*
X97210Y-59451D02*
X97210Y-59201D01*
X97305Y-59201D01*
X97329Y-59213D01*
X97341Y-59225D01*
X97353Y-59248D01*
X97353Y-59284D01*
X97341Y-59308D01*
X97329Y-59320D01*
X97305Y-59332D01*
X97210Y-59332D01*
X97460Y-59320D02*
X97544Y-59320D01*
X97579Y-59451D02*
X97460Y-59451D01*
X97460Y-59201D01*
X97579Y-59201D01*
X97805Y-59451D02*
X97686Y-59451D01*
X97686Y-59201D01*
X97877Y-59379D02*
X97996Y-59379D01*
X97853Y-59451D02*
X97936Y-59201D01*
X98020Y-59451D01*
X98151Y-59332D02*
X98151Y-59451D01*
X98067Y-59201D02*
X98151Y-59332D01*
X98234Y-59201D01*
X98258Y-59475D02*
X98448Y-59475D01*
X98627Y-59451D02*
X98508Y-59451D01*
X98508Y-59201D01*
X98758Y-59201D02*
X98805Y-59201D01*
X98829Y-59213D01*
X98853Y-59236D01*
X98865Y-59284D01*
X98865Y-59367D01*
X98853Y-59415D01*
X98829Y-59439D01*
X98805Y-59451D01*
X98758Y-59451D01*
X98734Y-59439D01*
X98710Y-59415D01*
X98698Y-59367D01*
X98698Y-59284D01*
X98710Y-59236D01*
X98734Y-59213D01*
X98758Y-59201D01*
X98948Y-59201D02*
X99008Y-59451D01*
X99055Y-59272D01*
X99103Y-59451D01*
X99163Y-59201D01*
X86484Y-45376D02*
X86627Y-45376D01*
X86555Y-45626D02*
X86555Y-45376D01*
X86710Y-45626D02*
X86710Y-45376D01*
X86805Y-45376D01*
X86829Y-45388D01*
X86841Y-45400D01*
X86853Y-45423D01*
X86853Y-45459D01*
X86841Y-45483D01*
X86829Y-45495D01*
X86805Y-45507D01*
X86710Y-45507D01*
X87091Y-45626D02*
X86948Y-45626D01*
X87020Y-45626D02*
X87020Y-45376D01*
X86996Y-45411D01*
X86972Y-45435D01*
X86948Y-45447D01*
X86752Y-45726D02*
X86633Y-45726D01*
X86621Y-45845D01*
X86633Y-45833D01*
X86657Y-45821D01*
X86716Y-45821D01*
X86740Y-45833D01*
X86752Y-45845D01*
X86764Y-45869D01*
X86764Y-45928D01*
X86752Y-45952D01*
X86740Y-45964D01*
X86716Y-45976D01*
X86657Y-45976D01*
X86633Y-45964D01*
X86621Y-45952D01*
X86835Y-45726D02*
X86919Y-45976D01*
X87002Y-45726D01*
X107734Y-47676D02*
X107877Y-47676D01*
X107805Y-47926D02*
X107805Y-47676D01*
X107960Y-47926D02*
X107960Y-47676D01*
X108055Y-47676D01*
X108079Y-47688D01*
X108091Y-47700D01*
X108103Y-47723D01*
X108103Y-47759D01*
X108091Y-47783D01*
X108079Y-47795D01*
X108055Y-47807D01*
X107960Y-47807D01*
X108198Y-47700D02*
X108210Y-47688D01*
X108234Y-47676D01*
X108294Y-47676D01*
X108317Y-47688D01*
X108329Y-47700D01*
X108341Y-47723D01*
X108341Y-47747D01*
X108329Y-47783D01*
X108186Y-47926D01*
X108341Y-47926D01*
X107772Y-47502D02*
X107760Y-47514D01*
X107725Y-47526D01*
X107701Y-47526D01*
X107665Y-47514D01*
X107641Y-47490D01*
X107629Y-47466D01*
X107617Y-47419D01*
X107617Y-47383D01*
X107629Y-47335D01*
X107641Y-47311D01*
X107665Y-47288D01*
X107701Y-47276D01*
X107725Y-47276D01*
X107760Y-47288D01*
X107772Y-47300D01*
X107879Y-47526D02*
X107879Y-47276D01*
X107879Y-47395D02*
X108022Y-47395D01*
X108022Y-47526D02*
X108022Y-47276D01*
X108272Y-47526D02*
X108129Y-47526D01*
X108201Y-47526D02*
X108201Y-47276D01*
X108177Y-47311D01*
X108153Y-47335D01*
X108129Y-47347D01*
X108379Y-47430D02*
X108570Y-47430D01*
X108475Y-47526D02*
X108475Y-47335D01*
X99234Y-44876D02*
X99377Y-44876D01*
X99305Y-45126D02*
X99305Y-44876D01*
X99460Y-45126D02*
X99460Y-44876D01*
X99555Y-44876D01*
X99579Y-44888D01*
X99591Y-44900D01*
X99603Y-44923D01*
X99603Y-44959D01*
X99591Y-44983D01*
X99579Y-44995D01*
X99555Y-45007D01*
X99460Y-45007D01*
X99686Y-44876D02*
X99841Y-44876D01*
X99758Y-44971D01*
X99794Y-44971D01*
X99817Y-44983D01*
X99829Y-44995D01*
X99841Y-45019D01*
X99841Y-45078D01*
X99829Y-45102D01*
X99817Y-45114D01*
X99794Y-45126D01*
X99722Y-45126D01*
X99698Y-45114D01*
X99686Y-45102D01*
X99247Y-44627D02*
X99235Y-44639D01*
X99200Y-44651D01*
X99176Y-44651D01*
X99140Y-44639D01*
X99116Y-44615D01*
X99104Y-44591D01*
X99092Y-44544D01*
X99092Y-44508D01*
X99104Y-44460D01*
X99116Y-44436D01*
X99140Y-44413D01*
X99176Y-44401D01*
X99200Y-44401D01*
X99235Y-44413D01*
X99247Y-44425D01*
X99354Y-44651D02*
X99354Y-44401D01*
X99354Y-44520D02*
X99497Y-44520D01*
X99497Y-44651D02*
X99497Y-44401D01*
X99664Y-44401D02*
X99688Y-44401D01*
X99711Y-44413D01*
X99723Y-44425D01*
X99735Y-44448D01*
X99747Y-44496D01*
X99747Y-44555D01*
X99735Y-44603D01*
X99723Y-44627D01*
X99711Y-44639D01*
X99688Y-44651D01*
X99664Y-44651D01*
X99640Y-44639D01*
X99628Y-44627D01*
X99616Y-44603D01*
X99604Y-44555D01*
X99604Y-44496D01*
X99616Y-44448D01*
X99628Y-44425D01*
X99640Y-44413D01*
X99664Y-44401D01*
X99854Y-44555D02*
X100045Y-44555D01*
X99950Y-44651D02*
X99950Y-44460D01*
G54D15*
X97086Y-49275D02*
X97048Y-49251D01*
X97010Y-49203D01*
X96953Y-49132D01*
X96915Y-49108D01*
X96877Y-49108D01*
X96896Y-49227D02*
X96858Y-49203D01*
X96820Y-49155D01*
X96801Y-49060D01*
X96801Y-48894D01*
X96820Y-48798D01*
X96858Y-48751D01*
X96896Y-48727D01*
X96972Y-48727D01*
X97010Y-48751D01*
X97048Y-48798D01*
X97067Y-48894D01*
X97067Y-49060D01*
X97048Y-49155D01*
X97010Y-49203D01*
X96972Y-49227D01*
X96896Y-49227D01*
X97201Y-48727D02*
X97448Y-48727D01*
X97315Y-48917D01*
X97372Y-48917D01*
X97410Y-48941D01*
X97429Y-48965D01*
X97448Y-49013D01*
X97448Y-49132D01*
X97429Y-49179D01*
X97410Y-49203D01*
X97372Y-49227D01*
X97258Y-49227D01*
X97220Y-49203D01*
X97201Y-49179D01*
X96973Y-50997D02*
X97164Y-50997D01*
X96935Y-51111D02*
X97069Y-50711D01*
X97202Y-51111D01*
X97411Y-50711D02*
X97488Y-50711D01*
X97526Y-50730D01*
X97564Y-50769D01*
X97583Y-50845D01*
X97583Y-50978D01*
X97564Y-51054D01*
X97526Y-51092D01*
X97488Y-51111D01*
X97411Y-51111D01*
X97373Y-51092D01*
X97335Y-51054D01*
X97316Y-50978D01*
X97316Y-50845D01*
X97335Y-50769D01*
X97373Y-50730D01*
X97411Y-50711D01*
X97754Y-51111D02*
X97754Y-50711D01*
X97850Y-50711D01*
X97907Y-50730D01*
X97945Y-50769D01*
X97964Y-50807D01*
X97983Y-50883D01*
X97983Y-50940D01*
X97964Y-51016D01*
X97945Y-51054D01*
X97907Y-51092D01*
X97850Y-51111D01*
X97754Y-51111D01*
X98326Y-50845D02*
X98326Y-51111D01*
X98230Y-50692D02*
X98135Y-50978D01*
X98383Y-50978D01*
X98497Y-50711D02*
X98764Y-50711D01*
X98592Y-51111D01*
X99088Y-50711D02*
X99011Y-50711D01*
X98973Y-50730D01*
X98954Y-50750D01*
X98916Y-50807D01*
X98897Y-50883D01*
X98897Y-51035D01*
X98916Y-51073D01*
X98935Y-51092D01*
X98973Y-51111D01*
X99050Y-51111D01*
X99088Y-51092D01*
X99107Y-51073D01*
X99126Y-51035D01*
X99126Y-50940D01*
X99107Y-50902D01*
X99088Y-50883D01*
X99050Y-50864D01*
X98973Y-50864D01*
X98935Y-50883D01*
X98916Y-50902D01*
X98897Y-50940D01*
X104586Y-49100D02*
X104548Y-49076D01*
X104510Y-49028D01*
X104453Y-48957D01*
X104415Y-48933D01*
X104377Y-48933D01*
X104396Y-49052D02*
X104358Y-49028D01*
X104320Y-48980D01*
X104301Y-48885D01*
X104301Y-48719D01*
X104320Y-48623D01*
X104358Y-48576D01*
X104396Y-48552D01*
X104472Y-48552D01*
X104510Y-48576D01*
X104548Y-48623D01*
X104567Y-48719D01*
X104567Y-48885D01*
X104548Y-48980D01*
X104510Y-49028D01*
X104472Y-49052D01*
X104396Y-49052D01*
X104910Y-48719D02*
X104910Y-49052D01*
X104815Y-48528D02*
X104720Y-48885D01*
X104967Y-48885D01*
X104473Y-50897D02*
X104664Y-50897D01*
X104435Y-51011D02*
X104569Y-50611D01*
X104702Y-51011D01*
X104911Y-50611D02*
X104988Y-50611D01*
X105026Y-50630D01*
X105064Y-50669D01*
X105083Y-50745D01*
X105083Y-50878D01*
X105064Y-50954D01*
X105026Y-50992D01*
X104988Y-51011D01*
X104911Y-51011D01*
X104873Y-50992D01*
X104835Y-50954D01*
X104816Y-50878D01*
X104816Y-50745D01*
X104835Y-50669D01*
X104873Y-50630D01*
X104911Y-50611D01*
X105254Y-51011D02*
X105254Y-50611D01*
X105350Y-50611D01*
X105407Y-50630D01*
X105445Y-50669D01*
X105464Y-50707D01*
X105483Y-50783D01*
X105483Y-50840D01*
X105464Y-50916D01*
X105445Y-50954D01*
X105407Y-50992D01*
X105350Y-51011D01*
X105254Y-51011D01*
X105826Y-50745D02*
X105826Y-51011D01*
X105730Y-50592D02*
X105635Y-50878D01*
X105883Y-50878D01*
X105997Y-50611D02*
X106264Y-50611D01*
X106092Y-51011D01*
X106588Y-50611D02*
X106511Y-50611D01*
X106473Y-50630D01*
X106454Y-50650D01*
X106416Y-50707D01*
X106397Y-50783D01*
X106397Y-50935D01*
X106416Y-50973D01*
X106435Y-50992D01*
X106473Y-51011D01*
X106550Y-51011D01*
X106588Y-50992D01*
X106607Y-50973D01*
X106626Y-50935D01*
X106626Y-50840D01*
X106607Y-50802D01*
X106588Y-50783D01*
X106550Y-50764D01*
X106473Y-50764D01*
X106435Y-50783D01*
X106416Y-50802D01*
X106397Y-50840D01*
G54D16*
X94857Y-51046D02*
X94757Y-50903D01*
X94685Y-51046D02*
X94685Y-50746D01*
X94800Y-50746D01*
X94828Y-50760D01*
X94842Y-50775D01*
X94857Y-50803D01*
X94857Y-50846D01*
X94842Y-50875D01*
X94828Y-50889D01*
X94800Y-50903D01*
X94685Y-50903D01*
X95114Y-50846D02*
X95114Y-51046D01*
X95042Y-50732D02*
X94971Y-50946D01*
X95157Y-50946D01*
X95242Y-50746D02*
X95428Y-50746D01*
X95328Y-50860D01*
X95371Y-50860D01*
X95400Y-50875D01*
X95414Y-50889D01*
X95428Y-50917D01*
X95428Y-50989D01*
X95414Y-51017D01*
X95400Y-51032D01*
X95371Y-51046D01*
X95285Y-51046D01*
X95257Y-51032D01*
X95242Y-51017D01*
G54D20*
X110273Y-48354D02*
X110207Y-48260D01*
X110160Y-48354D02*
X110160Y-48157D01*
X110235Y-48157D01*
X110254Y-48167D01*
X110263Y-48176D01*
X110273Y-48195D01*
X110273Y-48223D01*
X110263Y-48242D01*
X110254Y-48251D01*
X110235Y-48260D01*
X110160Y-48260D01*
X110442Y-48157D02*
X110404Y-48157D01*
X110385Y-48167D01*
X110376Y-48176D01*
X110357Y-48204D01*
X110348Y-48242D01*
X110348Y-48317D01*
X110357Y-48335D01*
X110367Y-48345D01*
X110385Y-48354D01*
X110423Y-48354D01*
X110442Y-48345D01*
X110451Y-48335D01*
X110460Y-48317D01*
X110460Y-48270D01*
X110451Y-48251D01*
X110442Y-48242D01*
X110423Y-48232D01*
X110385Y-48232D01*
X110367Y-48242D01*
X110357Y-48251D01*
X110348Y-48270D01*
X110582Y-48157D02*
X110601Y-48157D01*
X110620Y-48167D01*
X110629Y-48176D01*
X110639Y-48195D01*
X110648Y-48232D01*
X110648Y-48279D01*
X110639Y-48317D01*
X110629Y-48335D01*
X110620Y-48345D01*
X110601Y-48354D01*
X110582Y-48354D01*
X110564Y-48345D01*
X110554Y-48335D01*
X110545Y-48317D01*
X110536Y-48279D01*
X110536Y-48232D01*
X110545Y-48195D01*
X110554Y-48176D01*
X110564Y-48167D01*
X110582Y-48157D01*
X109323Y-47154D02*
X109257Y-47060D01*
X109210Y-47154D02*
X109210Y-46957D01*
X109285Y-46957D01*
X109304Y-46967D01*
X109313Y-46976D01*
X109323Y-46995D01*
X109323Y-47023D01*
X109313Y-47042D01*
X109304Y-47051D01*
X109285Y-47060D01*
X109210Y-47060D01*
X109501Y-46957D02*
X109407Y-46957D01*
X109398Y-47051D01*
X109407Y-47042D01*
X109426Y-47032D01*
X109473Y-47032D01*
X109492Y-47042D01*
X109501Y-47051D01*
X109510Y-47070D01*
X109510Y-47117D01*
X109501Y-47135D01*
X109492Y-47145D01*
X109473Y-47154D01*
X109426Y-47154D01*
X109407Y-47145D01*
X109398Y-47135D01*
X109623Y-47042D02*
X109604Y-47032D01*
X109595Y-47023D01*
X109586Y-47004D01*
X109586Y-46995D01*
X109595Y-46976D01*
X109604Y-46967D01*
X109623Y-46957D01*
X109661Y-46957D01*
X109679Y-46967D01*
X109689Y-46976D01*
X109698Y-46995D01*
X109698Y-47004D01*
X109689Y-47023D01*
X109679Y-47032D01*
X109661Y-47042D01*
X109623Y-47042D01*
X109604Y-47051D01*
X109595Y-47060D01*
X109586Y-47079D01*
X109586Y-47117D01*
X109595Y-47135D01*
X109604Y-47145D01*
X109623Y-47154D01*
X109661Y-47154D01*
X109679Y-47145D01*
X109689Y-47135D01*
X109698Y-47117D01*
X109698Y-47079D01*
X109689Y-47060D01*
X109679Y-47051D01*
X109661Y-47042D01*
X103254Y-50001D02*
X103160Y-50067D01*
X103254Y-50114D02*
X103057Y-50114D01*
X103057Y-50039D01*
X103067Y-50020D01*
X103076Y-50011D01*
X103095Y-50001D01*
X103123Y-50001D01*
X103142Y-50011D01*
X103151Y-50020D01*
X103160Y-50039D01*
X103160Y-50114D01*
X103057Y-49832D02*
X103057Y-49870D01*
X103067Y-49889D01*
X103076Y-49898D01*
X103104Y-49917D01*
X103142Y-49926D01*
X103217Y-49926D01*
X103235Y-49917D01*
X103245Y-49907D01*
X103254Y-49889D01*
X103254Y-49851D01*
X103245Y-49832D01*
X103235Y-49823D01*
X103217Y-49814D01*
X103170Y-49814D01*
X103151Y-49823D01*
X103142Y-49832D01*
X103132Y-49851D01*
X103132Y-49889D01*
X103142Y-49907D01*
X103151Y-49917D01*
X103170Y-49926D01*
X103076Y-49738D02*
X103067Y-49729D01*
X103057Y-49710D01*
X103057Y-49663D01*
X103067Y-49645D01*
X103076Y-49635D01*
X103095Y-49626D01*
X103114Y-49626D01*
X103142Y-49635D01*
X103254Y-49748D01*
X103254Y-49626D01*
X101073Y-50535D02*
X101063Y-50545D01*
X101035Y-50554D01*
X101017Y-50554D01*
X100988Y-50545D01*
X100970Y-50526D01*
X100960Y-50507D01*
X100951Y-50470D01*
X100951Y-50442D01*
X100960Y-50404D01*
X100970Y-50385D01*
X100988Y-50367D01*
X101017Y-50357D01*
X101035Y-50357D01*
X101063Y-50367D01*
X101073Y-50376D01*
X101139Y-50357D02*
X101260Y-50357D01*
X101195Y-50432D01*
X101223Y-50432D01*
X101242Y-50442D01*
X101251Y-50451D01*
X101260Y-50470D01*
X101260Y-50517D01*
X101251Y-50535D01*
X101242Y-50545D01*
X101223Y-50554D01*
X101167Y-50554D01*
X101148Y-50545D01*
X101139Y-50535D01*
X101336Y-50376D02*
X101345Y-50367D01*
X101364Y-50357D01*
X101411Y-50357D01*
X101429Y-50367D01*
X101439Y-50376D01*
X101448Y-50395D01*
X101448Y-50414D01*
X101439Y-50442D01*
X101326Y-50554D01*
X101448Y-50554D01*
X99773Y-49554D02*
X99707Y-49460D01*
X99660Y-49554D02*
X99660Y-49357D01*
X99735Y-49357D01*
X99754Y-49367D01*
X99763Y-49376D01*
X99773Y-49395D01*
X99773Y-49423D01*
X99763Y-49442D01*
X99754Y-49451D01*
X99735Y-49460D01*
X99660Y-49460D01*
X99942Y-49357D02*
X99904Y-49357D01*
X99885Y-49367D01*
X99876Y-49376D01*
X99857Y-49404D01*
X99848Y-49442D01*
X99848Y-49517D01*
X99857Y-49535D01*
X99867Y-49545D01*
X99885Y-49554D01*
X99923Y-49554D01*
X99942Y-49545D01*
X99951Y-49535D01*
X99960Y-49517D01*
X99960Y-49470D01*
X99951Y-49451D01*
X99942Y-49442D01*
X99923Y-49432D01*
X99885Y-49432D01*
X99867Y-49442D01*
X99857Y-49451D01*
X99848Y-49470D01*
X100026Y-49357D02*
X100148Y-49357D01*
X100082Y-49432D01*
X100111Y-49432D01*
X100129Y-49442D01*
X100139Y-49451D01*
X100148Y-49470D01*
X100148Y-49517D01*
X100139Y-49535D01*
X100129Y-49545D01*
X100111Y-49554D01*
X100054Y-49554D01*
X100036Y-49545D01*
X100026Y-49535D01*
G54D10*
X100904Y-42061D02*
X100904Y-41661D01*
X101133Y-42061D02*
X100961Y-41833D01*
X101133Y-41661D02*
X100904Y-41890D01*
X101285Y-41700D02*
X101304Y-41680D01*
X101342Y-41661D01*
X101438Y-41661D01*
X101476Y-41680D01*
X101495Y-41700D01*
X101514Y-41738D01*
X101514Y-41776D01*
X101495Y-41833D01*
X101266Y-42061D01*
X101514Y-42061D01*
X106579Y-42086D02*
X106579Y-41686D01*
X106808Y-42086D02*
X106636Y-41858D01*
X106808Y-41686D02*
X106579Y-41915D01*
X106941Y-41686D02*
X107189Y-41686D01*
X107055Y-41839D01*
X107113Y-41839D01*
X107151Y-41858D01*
X107170Y-41877D01*
X107189Y-41915D01*
X107189Y-42010D01*
X107170Y-42048D01*
X107151Y-42067D01*
X107113Y-42086D01*
X106998Y-42086D01*
X106960Y-42067D01*
X106941Y-42048D01*
M02*
