G04 (created by PCBNEW (2013-07-07 BZR 4022)-stable) date 27/03/2014 17:50:44*
%MOIN*%
G04 Gerber Fmt 3.4, Leading zero omitted, Abs format*
%FSLAX34Y34*%
G01*
G70*
G90*
G04 APERTURE LIST*
%ADD10C,0.006*%
%ADD11C,0.0984252*%
%ADD12R,0.0669291X0.0984252*%
%ADD13R,0.035X0.055*%
%ADD14R,0.0511811X0.0590551*%
%ADD15R,0.06X0.06*%
%ADD16C,0.06*%
%ADD17R,0.055X0.035*%
%ADD18R,0.0787402X0.0787402*%
%ADD19C,0.0787402*%
%ADD20R,0.045X0.02*%
%ADD21R,0.0984252X0.0669291*%
%ADD22R,0.07X0.11*%
%ADD23R,0.08X0.06*%
%ADD24R,0.0394X0.0276*%
%ADD25R,0.0255906X0.0531496*%
%ADD26R,0.145669X0.0472441*%
%ADD27C,0.075*%
%ADD28C,0.11811*%
%ADD29C,0.16*%
%ADD30R,0.1X0.2*%
%ADD31R,0.016X0.05*%
%ADD32R,0.0314X0.0314*%
%ADD33C,0.07*%
%ADD34R,0.07X0.07*%
%ADD35O,0.0866142X0.110236*%
%ADD36C,0.0629921*%
%ADD37C,0.0590551*%
%ADD38C,0.0551181*%
%ADD39O,0.06X0.1*%
%ADD40C,0.125*%
%ADD41R,0.11811X0.11811*%
%ADD42C,0.1*%
%ADD43R,0.065X0.12*%
%ADD44R,0.24X0.24*%
%ADD45C,0.046*%
%ADD46C,0.027*%
%ADD47C,0.035*%
%ADD48C,0.01*%
G04 APERTURE END LIST*
G54D10*
G54D11*
X95650Y-39550D03*
G54D12*
X100250Y-61100D03*
X100250Y-62674D03*
G54D13*
X100225Y-59650D03*
X99475Y-59650D03*
X101725Y-59650D03*
X102475Y-59650D03*
X97925Y-58500D03*
X98675Y-58500D03*
G54D14*
X94900Y-61450D03*
X94900Y-62450D03*
X98443Y-62450D03*
X98443Y-61450D03*
G54D15*
X105700Y-46700D03*
G54D16*
X106700Y-46700D03*
X105700Y-47700D03*
X106700Y-47700D03*
X105700Y-48700D03*
X106700Y-48700D03*
G54D17*
X91225Y-45300D03*
X91225Y-46050D03*
X89175Y-47025D03*
X89175Y-47775D03*
G54D18*
X112600Y-62000D03*
G54D19*
X112600Y-60031D03*
X112600Y-58062D03*
G54D18*
X112800Y-54750D03*
G54D19*
X112800Y-53372D03*
X112800Y-51994D03*
X112800Y-50616D03*
X112800Y-49238D03*
X112800Y-47860D03*
X112800Y-46482D03*
X112800Y-45104D03*
X112800Y-43726D03*
X112800Y-42348D03*
X112800Y-40970D03*
X112800Y-39592D03*
G54D20*
X91900Y-51325D03*
X91900Y-51825D03*
X91900Y-52325D03*
X91900Y-52825D03*
X89400Y-52825D03*
X89400Y-52325D03*
X89400Y-51825D03*
X89400Y-51325D03*
G54D21*
X110850Y-50000D03*
X109275Y-50000D03*
G54D13*
X95650Y-48425D03*
X96400Y-48425D03*
G54D22*
X58250Y-43550D03*
X59650Y-43550D03*
X59650Y-42000D03*
X58250Y-42000D03*
G54D23*
X61150Y-43650D03*
X61150Y-44950D03*
X61100Y-49700D03*
X61100Y-48400D03*
X61150Y-40050D03*
X61150Y-41350D03*
G54D13*
X59475Y-39600D03*
X58725Y-39600D03*
X83725Y-41050D03*
X82975Y-41050D03*
X82975Y-39400D03*
X83725Y-39400D03*
G54D24*
X90925Y-55650D03*
X90925Y-55275D03*
X90925Y-54900D03*
X91925Y-54900D03*
X91925Y-55275D03*
X91925Y-55650D03*
G54D25*
X97075Y-55375D03*
X98019Y-55375D03*
G54D26*
X94725Y-55725D03*
X94725Y-54622D03*
G54D27*
X104150Y-60250D03*
X104940Y-57890D03*
X109740Y-57890D03*
X109740Y-62610D03*
X104940Y-62610D03*
G54D20*
X100300Y-46050D03*
X100300Y-46550D03*
X100300Y-47050D03*
X100300Y-47550D03*
X100300Y-48050D03*
X100300Y-48550D03*
X100300Y-49050D03*
X102800Y-49050D03*
X102800Y-48550D03*
X102800Y-47550D03*
X102800Y-47050D03*
X102800Y-46550D03*
X102800Y-46050D03*
X102800Y-48050D03*
G54D28*
X51000Y-39600D03*
X50950Y-62700D03*
X110100Y-40000D03*
G54D29*
X63300Y-52700D03*
G54D15*
X63200Y-55150D03*
G54D16*
X63200Y-56150D03*
G54D30*
X63200Y-55650D03*
G54D10*
G36*
X65072Y-54046D02*
X65496Y-53622D01*
X65920Y-54046D01*
X65496Y-54470D01*
X65072Y-54046D01*
X65072Y-54046D01*
G37*
G54D16*
X66203Y-54753D03*
G54D10*
G36*
X64789Y-54046D02*
X65496Y-53339D01*
X66910Y-54753D01*
X66203Y-55460D01*
X64789Y-54046D01*
X64789Y-54046D01*
G37*
G54D15*
X63200Y-51050D03*
G54D16*
X63200Y-50050D03*
G54D30*
X63200Y-50550D03*
G54D10*
G36*
X65296Y-51977D02*
X64872Y-51553D01*
X65296Y-51129D01*
X65720Y-51553D01*
X65296Y-51977D01*
X65296Y-51977D01*
G37*
G54D16*
X66003Y-50846D03*
G54D10*
G36*
X65296Y-52260D02*
X64589Y-51553D01*
X66003Y-50139D01*
X66710Y-50846D01*
X65296Y-52260D01*
X65296Y-52260D01*
G37*
G54D31*
X92400Y-46800D03*
X92150Y-46800D03*
X91890Y-46800D03*
X91630Y-46800D03*
X91380Y-46800D03*
X91120Y-46800D03*
X90860Y-46800D03*
X90610Y-46800D03*
X90350Y-46800D03*
X90100Y-46800D03*
X90100Y-48900D03*
X90350Y-48900D03*
X90610Y-48900D03*
X90860Y-48900D03*
X91120Y-48900D03*
X91380Y-48900D03*
X91630Y-48900D03*
X91890Y-48900D03*
X92150Y-48900D03*
X92400Y-48900D03*
G54D17*
X88250Y-45675D03*
X88250Y-46425D03*
G54D10*
G36*
X83005Y-45930D02*
X82395Y-45930D01*
X82595Y-45220D01*
X82805Y-45220D01*
X83005Y-45930D01*
X83005Y-45930D01*
G37*
G36*
X83005Y-44470D02*
X82805Y-45180D01*
X82595Y-45180D01*
X82395Y-44470D01*
X83005Y-44470D01*
X83005Y-44470D01*
G37*
G36*
X82005Y-45730D02*
X81395Y-45730D01*
X81595Y-45020D01*
X81805Y-45020D01*
X82005Y-45730D01*
X82005Y-45730D01*
G37*
G36*
X82005Y-44270D02*
X81805Y-44980D01*
X81595Y-44980D01*
X81395Y-44270D01*
X82005Y-44270D01*
X82005Y-44270D01*
G37*
G36*
X81005Y-45905D02*
X80395Y-45905D01*
X80595Y-45195D01*
X80805Y-45195D01*
X81005Y-45905D01*
X81005Y-45905D01*
G37*
G36*
X81005Y-44445D02*
X80805Y-45155D01*
X80595Y-45155D01*
X80395Y-44445D01*
X81005Y-44445D01*
X81005Y-44445D01*
G37*
G36*
X77005Y-58330D02*
X76395Y-58330D01*
X76595Y-57620D01*
X76805Y-57620D01*
X77005Y-58330D01*
X77005Y-58330D01*
G37*
G36*
X77005Y-56870D02*
X76805Y-57580D01*
X76595Y-57580D01*
X76395Y-56870D01*
X77005Y-56870D01*
X77005Y-56870D01*
G37*
G36*
X76005Y-58355D02*
X75395Y-58355D01*
X75595Y-57645D01*
X75805Y-57645D01*
X76005Y-58355D01*
X76005Y-58355D01*
G37*
G36*
X76005Y-56895D02*
X75805Y-57605D01*
X75595Y-57605D01*
X75395Y-56895D01*
X76005Y-56895D01*
X76005Y-56895D01*
G37*
G36*
X78005Y-61380D02*
X77395Y-61380D01*
X77595Y-60670D01*
X77805Y-60670D01*
X78005Y-61380D01*
X78005Y-61380D01*
G37*
G36*
X78005Y-59920D02*
X77805Y-60630D01*
X77595Y-60630D01*
X77395Y-59920D01*
X78005Y-59920D01*
X78005Y-59920D01*
G37*
G36*
X85005Y-45930D02*
X84395Y-45930D01*
X84595Y-45220D01*
X84805Y-45220D01*
X85005Y-45930D01*
X85005Y-45930D01*
G37*
G36*
X85005Y-44470D02*
X84805Y-45180D01*
X84595Y-45180D01*
X84395Y-44470D01*
X85005Y-44470D01*
X85005Y-44470D01*
G37*
G36*
X71405Y-46030D02*
X70795Y-46030D01*
X70995Y-45320D01*
X71205Y-45320D01*
X71405Y-46030D01*
X71405Y-46030D01*
G37*
G36*
X71405Y-44570D02*
X71205Y-45280D01*
X70995Y-45280D01*
X70795Y-44570D01*
X71405Y-44570D01*
X71405Y-44570D01*
G37*
G36*
X74405Y-46605D02*
X73795Y-46605D01*
X73995Y-45895D01*
X74205Y-45895D01*
X74405Y-46605D01*
X74405Y-46605D01*
G37*
G36*
X74405Y-45145D02*
X74205Y-45855D01*
X73995Y-45855D01*
X73795Y-45145D01*
X74405Y-45145D01*
X74405Y-45145D01*
G37*
G36*
X81395Y-60070D02*
X82005Y-60070D01*
X81805Y-60780D01*
X81595Y-60780D01*
X81395Y-60070D01*
X81395Y-60070D01*
G37*
G36*
X81395Y-61530D02*
X81595Y-60820D01*
X81805Y-60820D01*
X82005Y-61530D01*
X81395Y-61530D01*
X81395Y-61530D01*
G37*
G36*
X82395Y-60070D02*
X83005Y-60070D01*
X82805Y-60780D01*
X82595Y-60780D01*
X82395Y-60070D01*
X82395Y-60070D01*
G37*
G36*
X82395Y-61530D02*
X82595Y-60820D01*
X82805Y-60820D01*
X83005Y-61530D01*
X82395Y-61530D01*
X82395Y-61530D01*
G37*
G36*
X80395Y-60070D02*
X81005Y-60070D01*
X80805Y-60780D01*
X80595Y-60780D01*
X80395Y-60070D01*
X80395Y-60070D01*
G37*
G36*
X80395Y-61530D02*
X80595Y-60820D01*
X80805Y-60820D01*
X81005Y-61530D01*
X80395Y-61530D01*
X80395Y-61530D01*
G37*
G36*
X79395Y-60070D02*
X80005Y-60070D01*
X79805Y-60780D01*
X79595Y-60780D01*
X79395Y-60070D01*
X79395Y-60070D01*
G37*
G36*
X79395Y-61530D02*
X79595Y-60820D01*
X79805Y-60820D01*
X80005Y-61530D01*
X79395Y-61530D01*
X79395Y-61530D01*
G37*
G36*
X78005Y-45730D02*
X77395Y-45730D01*
X77595Y-45020D01*
X77805Y-45020D01*
X78005Y-45730D01*
X78005Y-45730D01*
G37*
G36*
X78005Y-44270D02*
X77805Y-44980D01*
X77595Y-44980D01*
X77395Y-44270D01*
X78005Y-44270D01*
X78005Y-44270D01*
G37*
G54D13*
X90350Y-46000D03*
X89600Y-46000D03*
G54D32*
X96550Y-60170D03*
X96550Y-59580D03*
G54D11*
X89400Y-39500D03*
G54D33*
X89525Y-42250D03*
X90525Y-42250D03*
G54D34*
X88525Y-42250D03*
G54D33*
X106800Y-43800D03*
X107800Y-43800D03*
G54D34*
X105800Y-43800D03*
G54D33*
X102000Y-43825D03*
X103000Y-43825D03*
G54D34*
X101000Y-43825D03*
G54D33*
X95800Y-42250D03*
X96800Y-42250D03*
G54D34*
X94800Y-42250D03*
G54D35*
X74279Y-40616D03*
X70420Y-40616D03*
G54D36*
X72350Y-39750D03*
X73334Y-39750D03*
X71365Y-39750D03*
G54D35*
X80729Y-40616D03*
X76870Y-40616D03*
G54D36*
X78800Y-39750D03*
X79784Y-39750D03*
X77815Y-39750D03*
G54D37*
X66450Y-39425D03*
X63221Y-39425D03*
G54D38*
X65623Y-39425D03*
X64835Y-39425D03*
X64048Y-39425D03*
G54D39*
X84700Y-62500D03*
X84700Y-43500D03*
X83700Y-43500D03*
X82700Y-43500D03*
X81700Y-43500D03*
X80700Y-43500D03*
X79700Y-43500D03*
X78700Y-43500D03*
X77700Y-43500D03*
X76100Y-43500D03*
X75100Y-43500D03*
X74100Y-43500D03*
X73100Y-43500D03*
X72100Y-43500D03*
X71100Y-43500D03*
X70100Y-43500D03*
X69100Y-43500D03*
X83700Y-62500D03*
X82700Y-62500D03*
X81700Y-62500D03*
X80700Y-62500D03*
X79700Y-62500D03*
X77700Y-62500D03*
X76700Y-62500D03*
X75700Y-62500D03*
X74700Y-62500D03*
X73700Y-62500D03*
X72700Y-62500D03*
X71700Y-62500D03*
X70700Y-62500D03*
G54D40*
X85700Y-49500D03*
X85700Y-60500D03*
X65700Y-43500D03*
X65200Y-62500D03*
G54D28*
X50950Y-42400D03*
X50950Y-60588D03*
G54D41*
X53824Y-60588D03*
G54D28*
X53824Y-58935D03*
X53824Y-57281D03*
X53824Y-55628D03*
X53824Y-53974D03*
X53824Y-52321D03*
X53824Y-50667D03*
X53824Y-49014D03*
X53824Y-47360D03*
X53824Y-45707D03*
X53824Y-44053D03*
X53824Y-42400D03*
X55989Y-60588D03*
X55989Y-58935D03*
X55989Y-57281D03*
X55989Y-55628D03*
X55989Y-53974D03*
X55938Y-52321D03*
X55989Y-50667D03*
X55989Y-49014D03*
X55989Y-47360D03*
X55989Y-45707D03*
X55989Y-44053D03*
X55989Y-42400D03*
X102250Y-60975D03*
G54D42*
X94450Y-49425D03*
X104300Y-41100D03*
X92525Y-42075D03*
X101950Y-58425D03*
X98700Y-60475D03*
X86900Y-46625D03*
X108050Y-48575D03*
X98475Y-44850D03*
G54D43*
X98950Y-50000D03*
G54D44*
X98050Y-52500D03*
G54D43*
X97150Y-50000D03*
X106450Y-49900D03*
G54D44*
X105550Y-52400D03*
G54D43*
X104650Y-49900D03*
G54D23*
X96050Y-51600D03*
X96050Y-50300D03*
G54D13*
X109850Y-48350D03*
X109100Y-48350D03*
X109850Y-47575D03*
X109100Y-47575D03*
G54D17*
X103650Y-50300D03*
X103650Y-49550D03*
G54D13*
X100800Y-49950D03*
X101550Y-49950D03*
G54D17*
X99925Y-49875D03*
X99925Y-50625D03*
G54D15*
X102300Y-41050D03*
G54D16*
X101300Y-41050D03*
X100300Y-41050D03*
G54D15*
X105725Y-41075D03*
G54D16*
X106725Y-41075D03*
X107725Y-41075D03*
G54D45*
X109250Y-43300D03*
X101825Y-52700D03*
X55600Y-61900D03*
X77700Y-59325D03*
X101000Y-59650D03*
X59450Y-59700D03*
X62300Y-43700D03*
G54D46*
X56825Y-39800D03*
G54D45*
X85350Y-41000D03*
X64300Y-43850D03*
X60800Y-55200D03*
G54D47*
X88500Y-54950D03*
G54D45*
X65300Y-55450D03*
G54D46*
X91950Y-47525D03*
X90000Y-51450D03*
X108700Y-47100D03*
G54D45*
X61150Y-50900D03*
X57350Y-41375D03*
X87125Y-41800D03*
X62350Y-41350D03*
G54D46*
X93500Y-50750D03*
X84725Y-46200D03*
X97825Y-45400D03*
X84700Y-53925D03*
X74150Y-48050D03*
X73275Y-48125D03*
X93525Y-61450D03*
X88600Y-52300D03*
X88375Y-50475D03*
X67225Y-39800D03*
X67300Y-40825D03*
X76125Y-47000D03*
X82000Y-46700D03*
X93150Y-51925D03*
X92750Y-50425D03*
X80075Y-46775D03*
X88075Y-51300D03*
X82700Y-46975D03*
X92800Y-52100D03*
G54D45*
X90225Y-55275D03*
X96725Y-56875D03*
G54D46*
X92575Y-54875D03*
X86625Y-39350D03*
G54D45*
X84575Y-40900D03*
G54D46*
X93300Y-46850D03*
X91400Y-47450D03*
X90650Y-47475D03*
X102150Y-47400D03*
X88350Y-47425D03*
X95200Y-48950D03*
X99950Y-45225D03*
G54D45*
X104375Y-44300D03*
X104775Y-43225D03*
X95125Y-50300D03*
G54D46*
X110750Y-47100D03*
X99300Y-45150D03*
X92475Y-51825D03*
X89700Y-48725D03*
G54D45*
X101775Y-52050D03*
X103450Y-48925D03*
X101200Y-47350D03*
X105675Y-45575D03*
X103500Y-46950D03*
X60050Y-44950D03*
G54D46*
X61150Y-39175D03*
X75975Y-56700D03*
G54D45*
X73925Y-57325D03*
X60550Y-47300D03*
X88700Y-55750D03*
X111475Y-55700D03*
X92775Y-55275D03*
G54D47*
X92525Y-39600D03*
G54D45*
X92550Y-43800D03*
G54D46*
X65175Y-40675D03*
G54D45*
X99450Y-58500D03*
G54D46*
X99450Y-47775D03*
X98875Y-47200D03*
X92400Y-47600D03*
X90925Y-49575D03*
X109125Y-49000D03*
X91350Y-49500D03*
X98250Y-49925D03*
X98850Y-48300D03*
X98400Y-46450D03*
X101600Y-47750D03*
X103600Y-46100D03*
X91950Y-45375D03*
X103750Y-46550D03*
X102200Y-48550D03*
G54D45*
X99050Y-63200D03*
X93850Y-62500D03*
X101025Y-60300D03*
X99350Y-61350D03*
G54D10*
G36*
X101050Y-54600D02*
X96450Y-54600D01*
X96450Y-54025D01*
X93475Y-54025D01*
X93475Y-51250D01*
X101050Y-51250D01*
X101050Y-54600D01*
X101050Y-54600D01*
G37*
G54D48*
X101050Y-54600D02*
X96450Y-54600D01*
X96450Y-54025D01*
X93475Y-54025D01*
X93475Y-51250D01*
X101050Y-51250D01*
X101050Y-54600D01*
G54D10*
G36*
X111400Y-54600D02*
X102475Y-54600D01*
X102475Y-51250D01*
X111400Y-51250D01*
X111400Y-54600D01*
X111400Y-54600D01*
G37*
G54D48*
X111400Y-54600D02*
X102475Y-54600D01*
X102475Y-51250D01*
X111400Y-51250D01*
X111400Y-54600D01*
M02*
